<svg width="70" height="48" viewBox="0 0 70 48" fill="none" xmlns="http://www.w3.org/2000/svg">
<g clip-path="url(#clip0_1962_20734)">
<path d="M17.0616 27.8828V28.1009H15.9991V28.7191H16.9894V28.9372H15.9991V29.61H17.0697V29.8281H15.7456V27.8835H17.0616V27.8828Z" fill="#6D6E71"/>
<path d="M17.5526 28.4189V28.6422H17.5577C17.652 28.4712 17.8009 28.3857 18.0057 28.3857C18.0963 28.3857 18.1722 28.3983 18.2327 28.4241C18.2931 28.4491 18.3424 28.4852 18.3793 28.5302C18.4169 28.5758 18.4427 28.6296 18.4581 28.6923C18.4736 28.7549 18.481 28.8242 18.481 28.9008V29.827H18.254V28.8735C18.254 28.7866 18.229 28.7173 18.1796 28.6665C18.1295 28.6156 18.061 28.5906 17.974 28.5906C17.9048 28.5906 17.8443 28.6016 17.7935 28.623C17.7427 28.6451 17.7007 28.6761 17.6668 28.7158C17.6329 28.7556 17.6078 28.8028 17.5909 28.8558C17.5739 28.9096 17.5658 28.9678 17.5658 29.0312V29.8263H17.3389V28.4182H17.5526V28.4189Z" fill="#6D6E71"/>
<path d="M19.4131 28.4193V28.6234H19.1383V29.498C19.1383 29.5253 19.1405 29.5466 19.1449 29.5636C19.1493 29.5798 19.1582 29.5923 19.1707 29.6019C19.1832 29.6108 19.2002 29.6166 19.2223 29.6196C19.2444 29.6225 19.2731 29.6233 19.3092 29.6233H19.4138V29.8274H19.24C19.181 29.8274 19.1309 29.8237 19.0889 29.8149C19.0469 29.8068 19.013 29.792 18.9872 29.7699C18.9614 29.7478 18.9423 29.7176 18.9297 29.6771C18.9172 29.6373 18.9113 29.5842 18.9113 29.5194V28.6234H18.6763V28.4193H18.9113V27.9971H19.1383V28.4193H19.4131Z" fill="#6D6E71"/>
<path d="M20.6406 29.7374C20.5374 29.8169 20.4077 29.8575 20.2508 29.8575C20.1403 29.8575 20.0452 29.839 19.9642 29.8029C19.8831 29.7668 19.8153 29.716 19.7601 29.6504C19.7048 29.5848 19.6635 29.5075 19.6363 29.4161C19.609 29.3255 19.5935 29.2267 19.5898 29.1191C19.5898 29.0123 19.6061 28.9143 19.6377 28.8251C19.6694 28.736 19.7151 28.6586 19.7726 28.5938C19.8301 28.5282 19.8993 28.4774 19.9782 28.4412C20.057 28.4051 20.144 28.3867 20.2383 28.3867C20.3613 28.3867 20.4623 28.4125 20.5433 28.4641C20.6244 28.5157 20.6892 28.582 20.7378 28.6616C20.7872 28.7411 20.8204 28.8288 20.8395 28.9231C20.858 29.0175 20.8661 29.1074 20.8624 29.1928H19.8301C19.8278 29.2547 19.8352 29.3129 19.8514 29.3682C19.8676 29.4235 19.8934 29.4728 19.9288 29.5156C19.9642 29.5583 20.0098 29.5922 20.0651 29.618C20.1204 29.643 20.1852 29.6563 20.2596 29.6563C20.3562 29.6563 20.4343 29.6335 20.4954 29.5885C20.5573 29.5428 20.5971 29.4743 20.617 29.3815H20.841C20.8108 29.5391 20.7445 29.6585 20.6406 29.7381V29.7374ZM20.5861 28.8332C20.5654 28.7846 20.5382 28.7419 20.5035 28.7065C20.4689 28.6711 20.4276 28.6431 20.3805 28.6218C20.3333 28.6011 20.281 28.5908 20.2243 28.5908C20.1675 28.5908 20.1123 28.6011 20.0658 28.6218C20.0194 28.6424 19.9782 28.6711 19.9443 28.7072C19.9104 28.7434 19.8838 28.7861 19.8639 28.834C19.8441 28.8826 19.833 28.9335 19.8293 28.988H20.6214C20.6177 28.9335 20.6059 28.8819 20.5853 28.8325L20.5861 28.8332Z" fill="#6D6E71"/>
<path d="M21.303 28.4191V28.7161H21.3082C21.3635 28.6019 21.4313 28.5171 21.5116 28.4626C21.5919 28.4081 21.6928 28.383 21.8159 28.386V28.6313C21.7253 28.6313 21.6479 28.6439 21.5838 28.6697C21.5197 28.6947 21.4681 28.7323 21.429 28.7817C21.39 28.8303 21.3613 28.89 21.3436 28.96C21.3259 29.03 21.3163 29.1103 21.3163 29.2009V29.8272H21.0894V28.4191H21.303Z" fill="#6D6E71"/>
<path d="M22.2201 28.4191V28.61H22.2253C22.2628 28.5319 22.3211 28.4751 22.4014 28.4398C22.4817 28.4044 22.5694 28.3867 22.6659 28.3867C22.7727 28.3867 22.8656 28.4066 22.9444 28.4464C23.024 28.4862 23.0896 28.54 23.1419 28.6085C23.1942 28.6763 23.234 28.7551 23.2613 28.8443C23.2878 28.9335 23.3011 29.0278 23.3011 29.1272C23.3011 29.2267 23.2878 29.3218 23.262 29.4102C23.2362 29.4994 23.1972 29.5767 23.1448 29.643C23.0925 29.7094 23.0262 29.7617 22.9474 29.8C22.8685 29.8383 22.7764 29.8575 22.6711 29.8575C22.6372 29.8575 22.5996 29.8538 22.5576 29.8464C22.5156 29.839 22.4743 29.8272 22.4338 29.811C22.3925 29.7948 22.3542 29.7727 22.3174 29.744C22.2813 29.716 22.2503 29.6806 22.2253 29.6394H22.2201V30.3637H21.9932V28.4191H22.2201ZM23.0358 28.9187C23.0188 28.8561 22.9931 28.8001 22.9584 28.7515C22.9238 28.7028 22.8788 28.6638 22.8251 28.6343C22.7713 28.6056 22.7072 28.5908 22.6342 28.5908C22.5576 28.5908 22.4927 28.6063 22.4397 28.6372C22.3859 28.6682 22.3424 28.7087 22.3085 28.7588C22.2746 28.8089 22.2503 28.8657 22.2348 28.929C22.2194 28.9924 22.212 29.0572 22.212 29.1221C22.212 29.1913 22.2201 29.2577 22.2356 29.3225C22.2518 29.3866 22.2768 29.4441 22.3122 29.4927C22.3468 29.5421 22.3918 29.5811 22.4471 29.6113C22.5023 29.6416 22.5694 29.6563 22.6475 29.6563C22.7256 29.6563 22.7912 29.6408 22.8442 29.6099C22.8965 29.5789 22.9385 29.5384 22.971 29.4876C23.0026 29.4367 23.0262 29.3785 23.0402 29.3129C23.0542 29.2474 23.0616 29.1803 23.0616 29.1118C23.0616 29.0432 23.0535 28.9821 23.0365 28.9195L23.0358 28.9187Z" fill="#6D6E71"/>
<path d="M23.7737 28.4191V28.7161H23.7789C23.8342 28.6019 23.902 28.5171 23.9815 28.4626C24.0618 28.4081 24.1635 28.383 24.2858 28.386V28.6313C24.1952 28.6313 24.1178 28.6439 24.0537 28.6697C23.9896 28.6947 23.9381 28.7323 23.899 28.7817C23.86 28.8303 23.8312 28.89 23.8135 28.96C23.7958 29.03 23.787 29.1103 23.787 29.2009V29.8272H23.5601V28.4191H23.7737Z" fill="#6D6E71"/>
<path d="M24.4707 28.1658V27.8828H24.6976V28.1658H24.4707ZM24.6976 28.4192V29.8273H24.4707V28.4192H24.6976Z" fill="#6D6E71"/>
<path d="M25.2228 29.5121C25.2441 29.5475 25.2721 29.5755 25.3068 29.5969C25.3414 29.6182 25.3804 29.633 25.4239 29.6418C25.4674 29.6507 25.5123 29.6551 25.5588 29.6551C25.5941 29.6551 25.6317 29.6521 25.6708 29.647C25.7098 29.6418 25.7459 29.6315 25.7791 29.6168C25.8122 29.602 25.8395 29.5807 25.8601 29.5527C25.8815 29.5247 25.8926 29.4886 25.8926 29.4451C25.8926 29.3854 25.8697 29.3397 25.8255 29.3088C25.7813 29.2778 25.7253 29.2528 25.659 29.2336C25.5927 29.2145 25.5197 29.1975 25.4416 29.182C25.3635 29.1666 25.2906 29.1452 25.2242 29.1165C25.1572 29.0885 25.1019 29.0487 25.0577 28.9978C25.0135 28.947 24.9914 28.8762 24.9914 28.7856C24.9914 28.7149 25.0069 28.6537 25.0378 28.6029C25.0688 28.552 25.1093 28.5108 25.1579 28.4791C25.2073 28.4474 25.2626 28.4238 25.3237 28.4083C25.3856 28.3929 25.446 28.3848 25.5064 28.3848C25.5846 28.3848 25.6568 28.3914 25.7231 28.4054C25.7887 28.4187 25.8469 28.4422 25.8977 28.4761C25.9486 28.51 25.9891 28.555 26.0193 28.6125C26.0495 28.6699 26.0672 28.7407 26.0731 28.8261H25.8461C25.8424 28.7805 25.8307 28.7429 25.8115 28.7134C25.7916 28.6832 25.7666 28.6596 25.7363 28.6412C25.7061 28.6228 25.673 28.6095 25.6361 28.6014C25.5993 28.5933 25.5625 28.5889 25.5256 28.5889C25.4917 28.5889 25.4571 28.5918 25.4224 28.597C25.3878 28.6021 25.3561 28.6117 25.3274 28.6257C25.2994 28.639 25.2758 28.6574 25.2581 28.6802C25.2404 28.7031 25.2316 28.7326 25.2316 28.7687C25.2316 28.8085 25.2456 28.8416 25.2729 28.8681C25.3001 28.8947 25.3355 28.916 25.3782 28.9337C25.421 28.9507 25.4689 28.9654 25.5227 28.9772C25.5757 28.989 25.6295 29.0015 25.6826 29.014C25.7393 29.0266 25.7946 29.042 25.8491 29.0604C25.9029 29.0789 25.9515 29.1025 25.9928 29.1327C26.0348 29.1629 26.0687 29.2005 26.0945 29.2454C26.1202 29.2911 26.1328 29.3471 26.1328 29.4141C26.1328 29.4996 26.1151 29.5703 26.0805 29.6263C26.0458 29.6823 26.0001 29.728 25.9441 29.7627C25.8881 29.7973 25.8248 29.8209 25.7548 29.8349C25.6848 29.8489 25.6148 29.8555 25.5455 29.8555C25.4689 29.8555 25.3959 29.8474 25.3267 29.8312C25.2574 29.815 25.1962 29.7885 25.1424 29.7509C25.0887 29.714 25.0459 29.6647 25.0142 29.6035C24.9826 29.5431 24.9641 29.4687 24.9604 29.3817H25.1874C25.1889 29.4326 25.2007 29.476 25.222 29.5114L25.2228 29.5121Z" fill="#6D6E71"/>
<path d="M27.3613 29.7374C27.2581 29.8169 27.1284 29.8575 26.9715 29.8575C26.861 29.8575 26.7659 29.839 26.6849 29.8029C26.6038 29.7668 26.536 29.716 26.4808 29.6504C26.4255 29.5848 26.3842 29.5075 26.357 29.4161C26.3297 29.3255 26.3142 29.2267 26.3105 29.1191C26.3105 29.0123 26.3268 28.9143 26.3584 28.8251C26.3901 28.736 26.4358 28.6586 26.4933 28.5938C26.5515 28.5282 26.62 28.4774 26.6989 28.4412C26.7777 28.4051 26.8647 28.3867 26.959 28.3867C27.082 28.3867 27.183 28.4125 27.264 28.4641C27.3451 28.5157 27.4099 28.582 27.4585 28.6616C27.5079 28.7411 27.5411 28.8288 27.5602 28.9231C27.5787 29.0175 27.5868 29.1074 27.5831 29.1928H26.5508C26.5485 29.2547 26.5559 29.3129 26.5721 29.3682C26.5883 29.4235 26.6141 29.4728 26.6495 29.5156C26.6849 29.5583 26.7305 29.5922 26.7858 29.618C26.8411 29.643 26.9059 29.6563 26.9803 29.6563C27.0769 29.6563 27.155 29.6335 27.2161 29.5885C27.278 29.5428 27.3178 29.4743 27.3377 29.3815H27.5617C27.5315 29.5391 27.4652 29.6585 27.3613 29.7381V29.7374ZM27.3068 28.8332C27.2861 28.7846 27.2589 28.7419 27.2242 28.7065C27.1896 28.6711 27.1483 28.6431 27.1012 28.6218C27.054 28.6011 27.0017 28.5908 26.945 28.5908C26.8882 28.5908 26.833 28.6011 26.7865 28.6218C26.7394 28.6424 26.6989 28.6711 26.665 28.7072C26.6311 28.7434 26.6045 28.7861 26.5847 28.834C26.5648 28.8826 26.5537 28.9335 26.55 28.988H27.3421C27.3384 28.9335 27.3267 28.8819 27.306 28.8325L27.3068 28.8332Z" fill="#6D6E71"/>
<path d="M29.2503 27.8826C29.5435 27.8826 29.7697 27.9585 29.9282 28.111C30.0866 28.2635 30.1654 28.4956 30.1654 28.808C30.1654 28.9716 30.1477 29.116 30.1116 29.242C30.0763 29.368 30.021 29.4742 29.9458 29.5611C29.8714 29.6473 29.7756 29.7129 29.66 29.7586C29.5443 29.8043 29.4072 29.8264 29.2488 29.8264H28.5952V27.8818H29.2488L29.2503 27.8826ZM29.2716 29.609C29.2996 29.609 29.3357 29.6068 29.3785 29.6024C29.4212 29.5979 29.4669 29.5869 29.5148 29.5699C29.5627 29.5523 29.6106 29.5279 29.6577 29.4948C29.7049 29.4624 29.7469 29.4174 29.7845 29.3614C29.8221 29.3054 29.853 29.2347 29.8766 29.1507C29.9002 29.0659 29.9127 28.9643 29.9127 28.8442C29.9127 28.724 29.9016 28.6238 29.8795 28.5325C29.8574 28.4411 29.8206 28.3623 29.7705 28.2982C29.7196 28.234 29.6541 28.1847 29.5737 28.1515C29.4934 28.1176 29.3954 28.1014 29.2775 28.1014H28.8502V29.6105H29.2716V29.609Z" fill="#6D6E71"/>
<path d="M30.4517 28.1658V27.8828H30.6786V28.1658H30.4517ZM30.6786 28.4192V29.8273H30.4517V28.4192H30.6786Z" fill="#6D6E71"/>
<path d="M32.0665 30.2242C31.9633 30.3384 31.8012 30.3958 31.5809 30.3958C31.5168 30.3958 31.4512 30.3885 31.3841 30.3737C31.3178 30.359 31.2567 30.3354 31.2029 30.303C31.1484 30.2706 31.1034 30.2278 31.068 30.1748C31.0327 30.1225 31.0128 30.0576 31.0098 29.9817H31.2368C31.2383 30.0237 31.2515 30.0591 31.2751 30.0878C31.2994 30.1166 31.3289 30.1402 31.3635 30.1586C31.3981 30.1763 31.4357 30.1895 31.477 30.1976C31.5183 30.2057 31.5573 30.2102 31.5941 30.2102C31.6693 30.2102 31.7319 30.1969 31.7835 30.1711C31.8351 30.1446 31.8778 30.1085 31.9117 30.0621C31.9456 30.0156 31.9699 29.9596 31.9854 29.8948C32.0009 29.8292 32.0083 29.7577 32.0083 29.6796V29.5868H32.0031C31.964 29.6737 31.9051 29.7378 31.8255 29.7791C31.7459 29.8196 31.6619 29.8403 31.5735 29.8403C31.4704 29.8403 31.3805 29.8211 31.3038 29.7828C31.2272 29.7445 31.1638 29.6936 31.1115 29.6288C31.0599 29.5647 31.0216 29.4888 30.9958 29.4026C30.97 29.3164 30.9575 29.225 30.9575 29.1285C30.9575 29.0452 30.9686 28.959 30.9892 28.8713C31.0106 28.7836 31.0459 28.7033 31.096 28.6318C31.1461 28.5604 31.2117 28.5014 31.2935 28.455C31.3753 28.4086 31.4755 28.3857 31.5949 28.3857C31.6818 28.3857 31.7621 28.4056 31.8351 28.4447C31.908 28.4837 31.9648 28.542 32.0053 28.6201H32.0083V28.4189H32.2219V29.7069C32.2219 29.9375 32.1704 30.11 32.0672 30.2242H32.0665ZM31.7769 29.5912C31.8292 29.5595 31.8719 29.5175 31.9036 29.466C31.9353 29.4144 31.9589 29.3554 31.9744 29.2906C31.9898 29.225 31.9972 29.1602 31.9972 29.0946C31.9972 29.0327 31.9898 28.9723 31.9758 28.9118C31.9618 28.8522 31.939 28.7984 31.908 28.7497C31.8771 28.7018 31.8366 28.6628 31.7865 28.6341C31.7364 28.6053 31.6759 28.5906 31.6052 28.5906C31.5345 28.5906 31.4696 28.6046 31.4188 28.6326C31.3672 28.6606 31.3252 28.6982 31.292 28.7453C31.2589 28.7925 31.2346 28.847 31.2198 28.9089C31.2044 28.9708 31.197 29.0349 31.197 29.102C31.197 29.1653 31.2036 29.2294 31.2161 29.2928C31.2287 29.3562 31.25 29.4144 31.2803 29.466C31.3105 29.5175 31.3503 29.5595 31.4004 29.5912C31.4505 29.6229 31.5124 29.6391 31.5875 29.6391C31.6627 29.6391 31.726 29.6229 31.7784 29.5912H31.7769Z" fill="#6D6E71"/>
<path d="M32.5757 28.1658V27.8828H32.8026V28.1658H32.5757ZM32.8026 28.4192V29.8273H32.5757V28.4192H32.8026Z" fill="#6D6E71"/>
<path d="M33.7451 28.4193V28.6234H33.4703V29.498C33.4703 29.5253 33.4725 29.5466 33.4769 29.5636C33.4814 29.5798 33.4902 29.5923 33.5027 29.6019C33.5152 29.6108 33.5322 29.6166 33.5543 29.6196C33.5764 29.6225 33.6051 29.6233 33.6412 29.6233H33.7459V29.8274H33.572C33.513 29.8274 33.4629 29.8237 33.4209 29.8149C33.3789 29.8068 33.345 29.792 33.3192 29.7699C33.2935 29.7478 33.2743 29.7176 33.2618 29.6771C33.2492 29.6373 33.2434 29.5842 33.2434 29.5194V28.6234H33.0083V28.4193H33.2434V27.9971H33.4703V28.4193H33.7451Z" fill="#6D6E71"/>
<path d="M35.218 29.8216C35.1789 29.8452 35.1244 29.857 35.0551 29.857C34.9962 29.857 34.9498 29.84 34.9151 29.8069C34.8805 29.773 34.8628 29.7184 34.8628 29.6418C34.8009 29.7177 34.728 29.773 34.6455 29.8069C34.5629 29.84 34.473 29.857 34.3773 29.857C34.3154 29.857 34.2557 29.8496 34.1997 29.8356C34.1437 29.8209 34.095 29.798 34.0538 29.7678C34.0125 29.7369 33.9801 29.6963 33.9565 29.6462C33.9322 29.5961 33.9204 29.5357 33.9204 29.465C33.9204 29.3854 33.9337 29.3198 33.9602 29.269C33.9875 29.2181 34.0221 29.1769 34.0656 29.1452C34.109 29.1135 34.1591 29.0892 34.2151 29.073C34.2711 29.0567 34.3286 29.0427 34.3876 29.0324C34.4495 29.0199 34.5091 29.0103 34.5651 29.0037C34.6211 28.9978 34.6705 28.9882 34.7133 28.9764C34.756 28.9646 34.7899 28.9477 34.8149 28.9249C34.84 28.902 34.8525 28.8689 34.8525 28.8254C34.8525 28.7745 34.8429 28.734 34.8245 28.7031C34.8061 28.6721 34.7818 28.6485 34.7523 28.6323C34.7228 28.6161 34.6904 28.6051 34.6536 28.5999C34.6167 28.594 34.5806 28.5918 34.5453 28.5918C34.4495 28.5918 34.3691 28.6102 34.305 28.6478C34.2409 28.6846 34.2063 28.7554 34.2011 28.8585H33.9742C33.9779 28.7716 33.9956 28.6979 34.028 28.6382C34.0597 28.5785 34.1024 28.5299 34.1562 28.4923C34.2093 28.4555 34.2704 28.4282 34.3389 28.412C34.4075 28.3958 34.4811 28.3877 34.5593 28.3877C34.6211 28.3877 34.683 28.3921 34.7449 28.401C34.8068 28.4098 34.8621 28.429 34.9115 28.457C34.9616 28.485 35.0014 28.5247 35.0316 28.5749C35.0618 28.6257 35.0773 28.6913 35.0773 28.7731V29.4959C35.0773 29.5504 35.0802 29.5902 35.0868 29.6153C35.0935 29.6403 35.1141 29.6536 35.1495 29.6536C35.1686 29.6536 35.1922 29.6499 35.2187 29.6425V29.8223L35.218 29.8216ZM34.8496 29.0995C34.8208 29.1209 34.784 29.1371 34.7376 29.1466C34.6911 29.157 34.6425 29.1651 34.5917 29.171C34.5408 29.1776 34.49 29.1842 34.4384 29.1923C34.3868 29.2004 34.3404 29.2137 34.2991 29.2314C34.2579 29.2491 34.2247 29.2749 34.1989 29.3087C34.1731 29.3419 34.1599 29.3876 34.1599 29.4458C34.1599 29.4841 34.1673 29.5158 34.1827 29.5423C34.1982 29.5689 34.2174 29.5895 34.2417 29.6064C34.2653 29.6226 34.2933 29.6344 34.3257 29.6418C34.3574 29.6492 34.3913 29.6529 34.4266 29.6529C34.501 29.6529 34.5659 29.6425 34.6189 29.6219C34.6727 29.6013 34.7162 29.5747 34.7501 29.5431C34.784 29.5114 34.809 29.4775 34.8245 29.4399C34.8407 29.4031 34.8488 29.3684 34.8488 29.3353V29.0995H34.8496Z" fill="#6D6E71"/>
<path d="M35.6688 27.8828V29.8273H35.4419V27.8828H35.6688Z" fill="#6D6E71"/>
<path d="M36.0347 28.1658V27.8828H36.2616V28.1658H36.0347ZM36.2616 28.4192V29.8273H36.0347V28.4192H36.2616Z" fill="#6D6E71"/>
<path d="M37.3346 28.6231H36.555V28.4189H37.6278V28.5766L36.7849 29.6222H37.6654V29.8263H36.502V29.6495L37.3346 28.6231Z" fill="#6D6E71"/>
<path d="M39.1176 29.8216C39.0786 29.8452 39.0248 29.857 38.9548 29.857C38.8966 29.857 38.8494 29.84 38.8148 29.8069C38.7802 29.773 38.7625 29.7184 38.7625 29.6418C38.7006 29.7177 38.6276 29.773 38.5451 29.8069C38.4626 29.84 38.3727 29.857 38.2769 29.857C38.215 29.857 38.1553 29.8496 38.0993 29.8356C38.0433 29.8209 37.9947 29.798 37.9542 29.7678C37.9129 29.7369 37.8805 29.6963 37.8569 29.6462C37.8333 29.5961 37.8208 29.5357 37.8208 29.465C37.8208 29.3854 37.8341 29.3198 37.8606 29.269C37.8871 29.2181 37.9225 29.1769 37.966 29.1452C38.0094 29.1135 38.0595 29.0892 38.1155 29.073C38.1715 29.0567 38.229 29.0427 38.288 29.0324C38.3499 29.0199 38.4095 29.0103 38.4655 29.0037C38.5215 28.9978 38.5709 28.9882 38.6136 28.9764C38.6564 28.9646 38.6903 28.9477 38.7146 28.9249C38.7389 28.902 38.7522 28.8689 38.7522 28.8254C38.7522 28.7745 38.7426 28.734 38.7242 28.7031C38.705 28.6721 38.6814 28.6485 38.652 28.6323C38.6225 28.6161 38.5893 28.6051 38.5532 28.5999C38.5171 28.594 38.4803 28.5918 38.4449 28.5918C38.3484 28.5918 38.2688 28.6102 38.2047 28.6478C38.1406 28.6846 38.106 28.7554 38.1001 28.8585H37.8731C37.8768 28.7716 37.8945 28.6979 37.9262 28.6382C37.9586 28.5785 38.0006 28.5299 38.0544 28.4923C38.1082 28.4555 38.1686 28.4282 38.2371 28.412C38.3056 28.3958 38.3793 28.3877 38.4574 28.3877C38.5193 28.3877 38.5812 28.3921 38.6431 28.401C38.7043 28.4098 38.7603 28.429 38.8096 28.457C38.859 28.485 38.8995 28.5247 38.9297 28.5749C38.96 28.6257 38.9754 28.6913 38.9754 28.7731V29.4959C38.9754 29.5504 38.9784 29.5902 38.985 29.6153C38.9909 29.6403 39.0123 29.6536 39.0476 29.6536C39.0668 29.6536 39.0904 29.6499 39.1169 29.6425V29.8223L39.1176 29.8216ZM38.7492 29.0995C38.7212 29.1209 38.6836 29.1371 38.6372 29.1466C38.5908 29.157 38.5422 29.1651 38.4921 29.171C38.4412 29.1776 38.3904 29.1842 38.3381 29.1923C38.2865 29.2004 38.2401 29.2137 38.1995 29.2314C38.1583 29.2491 38.1251 29.2749 38.0993 29.3087C38.0735 29.3426 38.061 29.3876 38.061 29.4458C38.061 29.4841 38.0684 29.5158 38.0838 29.5423C38.0986 29.5689 38.1185 29.5895 38.1421 29.6064C38.1656 29.6226 38.1944 29.6344 38.2261 29.6418C38.2577 29.6492 38.2916 29.6529 38.3277 29.6529C38.4022 29.6529 38.4663 29.6425 38.5201 29.6219C38.5739 29.6013 38.6166 29.5747 38.6512 29.5431C38.6851 29.5114 38.7094 29.4775 38.7256 29.4399C38.7411 29.4031 38.7492 29.3684 38.7492 29.3353V29.0995Z" fill="#6D6E71"/>
<path d="M39.9185 28.4193V28.6234H39.6436V29.498C39.6436 29.5253 39.6459 29.5466 39.6503 29.5636C39.6547 29.5798 39.6635 29.5923 39.6761 29.6019C39.6886 29.6108 39.7055 29.6166 39.7276 29.6196C39.7497 29.6225 39.7785 29.6233 39.8146 29.6233H39.9192V29.8274H39.7453C39.6864 29.8274 39.6363 29.8237 39.5943 29.8149C39.5523 29.8068 39.5184 29.792 39.4926 29.7699C39.4668 29.7478 39.4476 29.7176 39.4351 29.6771C39.4226 29.6373 39.4167 29.5842 39.4167 29.5194V28.6234H39.1816V28.4193H39.4167V27.9971H39.6436V28.4193H39.9185Z" fill="#6D6E71"/>
<path d="M40.1821 28.1658V27.8828H40.4091V28.1658H40.1821ZM40.4091 28.4192V29.8273H40.1821V28.4192H40.4091Z" fill="#6D6E71"/>
<path d="M40.7297 28.8345C40.7577 28.7446 40.8005 28.6665 40.858 28.6002C40.9147 28.5338 40.9854 28.4815 41.0687 28.4432C41.152 28.4049 41.2485 28.3857 41.3568 28.3857C41.4651 28.3857 41.5639 28.4049 41.6464 28.4432C41.7289 28.4815 41.7989 28.5338 41.8556 28.6002C41.9131 28.6665 41.9559 28.7446 41.9839 28.8345C42.0126 28.9244 42.0266 29.0209 42.0266 29.1248C42.0266 29.2287 42.0126 29.3245 41.9839 29.4136C41.9559 29.5028 41.9131 29.5802 41.8556 29.6465C41.7989 29.7128 41.7289 29.7644 41.6464 29.802C41.5639 29.8388 41.4673 29.858 41.3568 29.858C41.2463 29.858 41.152 29.8395 41.0687 29.802C40.9847 29.7651 40.9147 29.7128 40.858 29.6465C40.8005 29.5802 40.7577 29.5028 40.7297 29.4136C40.701 29.3245 40.687 29.228 40.687 29.1248C40.687 29.0216 40.701 28.9244 40.7297 28.8345ZM40.9604 29.3517C40.9825 29.4181 41.0134 29.4733 41.0525 29.5183C41.0915 29.5625 41.1372 29.5971 41.1903 29.6207C41.2426 29.6443 41.2986 29.6561 41.3568 29.6561C41.415 29.6561 41.471 29.6443 41.5233 29.6207C41.5756 29.5971 41.6213 29.5632 41.6604 29.5183C41.6994 29.4741 41.7304 29.4181 41.7525 29.3517C41.7746 29.2854 41.7856 29.2095 41.7856 29.1241C41.7856 29.0386 41.7746 28.9627 41.7525 28.8964C41.7304 28.8301 41.6994 28.7741 41.6604 28.7291C41.6213 28.6842 41.5756 28.6495 41.5233 28.626C41.4703 28.6024 41.415 28.5906 41.3568 28.5906C41.2986 28.5906 41.2426 28.6024 41.1903 28.626C41.138 28.6495 41.0915 28.6842 41.0525 28.7291C41.0134 28.7748 40.9825 28.8301 40.9604 28.8964C40.9383 28.9627 40.9272 29.0386 40.9272 29.1241C40.9272 29.2095 40.9383 29.2854 40.9604 29.3517Z" fill="#6D6E71"/>
<path d="M42.5069 28.4189V28.6422H42.5121C42.6064 28.4712 42.7559 28.3857 42.9608 28.3857C43.0514 28.3857 43.1273 28.3983 43.1877 28.4241C43.2482 28.4491 43.2968 28.4852 43.3344 28.5302C43.3719 28.5758 43.3977 28.6296 43.4132 28.6923C43.4287 28.7549 43.4361 28.8242 43.4361 28.9008V29.827H43.2091V28.8735C43.2091 28.7866 43.1841 28.7173 43.1347 28.6665C43.0846 28.6156 43.0161 28.5906 42.9291 28.5906C42.8598 28.5906 42.7994 28.6016 42.7493 28.623C42.6985 28.6451 42.6565 28.6761 42.6226 28.7158C42.5887 28.7556 42.5636 28.8028 42.5459 28.8558C42.529 28.9096 42.5209 28.9678 42.5209 29.0312V29.8263H42.2939V28.4182H42.5069V28.4189Z" fill="#6D6E71"/>
<path d="M45.8722 27.8828V28.1009H44.8096V28.7191H45.7999V28.9372H44.8096V29.61H45.8803V29.8281H44.5562V27.8835H45.8722V27.8828Z" fill="#6D6E71"/>
<path d="M46.3638 28.4189V28.6422H46.369C46.4633 28.4712 46.6129 28.3857 46.8177 28.3857C46.9084 28.3857 46.9842 28.3983 47.0447 28.4241C47.1051 28.4491 47.1537 28.4852 47.1913 28.5302C47.2289 28.5758 47.2547 28.6296 47.2701 28.6923C47.2856 28.7549 47.293 28.8242 47.293 28.9008V29.827H47.066V28.8735C47.066 28.7866 47.041 28.7173 46.9916 28.6665C46.9415 28.6156 46.873 28.5906 46.786 28.5906C46.7168 28.5906 46.6564 28.6016 46.6062 28.623C46.5554 28.6451 46.5134 28.6761 46.4795 28.7158C46.4456 28.7556 46.4206 28.8028 46.4029 28.8558C46.3859 28.9096 46.3778 28.9678 46.3778 29.0312V29.8263H46.1509V28.4182H46.3638V28.4189Z" fill="#6D6E71"/>
<path d="M47.861 27.8828V28.6263H47.8661C47.8838 28.5828 47.9089 28.546 47.9413 28.5158C47.973 28.4855 48.0091 28.4612 48.0496 28.4421C48.0894 28.4229 48.1314 28.4089 48.1749 28.4001C48.2183 28.3912 48.2603 28.3868 48.3016 28.3868C48.3922 28.3868 48.4681 28.3993 48.5286 28.4251C48.589 28.4502 48.6383 28.4863 48.6752 28.5312C48.7128 28.5769 48.7386 28.6307 48.754 28.6933C48.7695 28.756 48.7769 28.8252 48.7769 28.9019V29.8281H48.5499V28.8746C48.5499 28.7877 48.5249 28.7184 48.4755 28.6675C48.4254 28.6167 48.3569 28.5917 48.2699 28.5917C48.2007 28.5917 48.1402 28.6027 48.0894 28.6241C48.0386 28.6462 47.9966 28.6771 47.9627 28.7169C47.9288 28.7567 47.9037 28.8039 47.8868 28.8569C47.8698 28.9107 47.8617 28.9689 47.8617 29.0323V29.8273H47.6348V27.8828H47.8617H47.861Z" fill="#6D6E71"/>
<path d="M50.3403 29.8216C50.3012 29.8452 50.2475 29.857 50.1775 29.857C50.1192 29.857 50.0721 29.84 50.0375 29.8069C50.0028 29.773 49.9851 29.7184 49.9851 29.6418C49.9232 29.7177 49.8503 29.773 49.7678 29.8069C49.6852 29.84 49.5954 29.857 49.4996 29.857C49.4377 29.857 49.378 29.8496 49.322 29.8356C49.266 29.8209 49.2174 29.798 49.1768 29.7678C49.1356 29.7369 49.1031 29.6963 49.0796 29.6462C49.056 29.5961 49.0435 29.5357 49.0435 29.465C49.0435 29.3854 49.0567 29.3198 49.0832 29.269C49.1098 29.2181 49.1451 29.1769 49.1886 29.1452C49.2321 29.1135 49.2822 29.0892 49.3382 29.073C49.3942 29.0567 49.4517 29.0427 49.5106 29.0324C49.5725 29.0199 49.6322 29.0103 49.6882 29.0037C49.7442 28.9978 49.7936 28.9882 49.8363 28.9764C49.879 28.9646 49.9129 28.9477 49.9372 28.9249C49.9616 28.902 49.9748 28.8689 49.9748 28.8254C49.9748 28.7745 49.9652 28.734 49.9468 28.7031C49.9277 28.6721 49.9041 28.6485 49.8746 28.6323C49.8451 28.6161 49.812 28.6051 49.7759 28.5999C49.7398 28.594 49.7029 28.5918 49.6676 28.5918C49.571 28.5918 49.4915 28.6102 49.4273 28.6478C49.3632 28.6846 49.3286 28.7554 49.3227 28.8585H49.0958C49.0995 28.7716 49.1171 28.6979 49.1488 28.6382C49.1812 28.5785 49.2232 28.5299 49.277 28.4923C49.3308 28.4555 49.3912 28.4282 49.4598 28.412C49.5283 28.3958 49.602 28.3877 49.6801 28.3877C49.742 28.3877 49.8039 28.3921 49.8658 28.401C49.9269 28.4098 49.9829 28.429 50.0323 28.457C50.0824 28.485 50.1222 28.5247 50.1524 28.5749C50.1826 28.6257 50.1981 28.6913 50.1981 28.7731V29.4959C50.1981 29.5504 50.201 29.5902 50.2077 29.6153C50.2136 29.6403 50.2349 29.6536 50.2703 29.6536C50.2895 29.6536 50.313 29.6499 50.3396 29.6425V29.8223L50.3403 29.8216ZM49.9719 29.0995C49.9439 29.1209 49.9063 29.1371 49.8599 29.1466C49.8135 29.157 49.7648 29.1651 49.7147 29.171C49.6639 29.1776 49.613 29.1842 49.5607 29.1923C49.5091 29.2004 49.4627 29.2137 49.4222 29.2314C49.3809 29.2491 49.3478 29.2749 49.322 29.3087C49.2962 29.3419 49.2837 29.3876 49.2837 29.4458C49.2837 29.4841 49.291 29.5158 49.3065 29.5423C49.3212 29.5689 49.3411 29.5895 49.3647 29.6064C49.3883 29.6226 49.417 29.6344 49.4487 29.6418C49.4804 29.6492 49.5143 29.6529 49.5504 29.6529C49.6248 29.6529 49.6889 29.6425 49.7427 29.6219C49.7965 29.6013 49.8392 29.5747 49.8739 29.5431C49.9078 29.5114 49.9321 29.4775 49.9483 29.4399C49.9638 29.4031 49.9719 29.3684 49.9719 29.3353V29.0995Z" fill="#6D6E71"/>
<path d="M50.765 28.4189V28.6422H50.7701C50.8644 28.4712 51.0133 28.3857 51.2181 28.3857C51.3087 28.3857 51.3846 28.3983 51.4451 28.4241C51.5055 28.4491 51.5548 28.4852 51.5917 28.5302C51.6293 28.5758 51.6551 28.6296 51.6705 28.6923C51.686 28.7549 51.6934 28.8242 51.6934 28.9008V29.827H51.4664V28.8735C51.4664 28.7866 51.4414 28.7173 51.392 28.6665C51.3419 28.6156 51.2734 28.5906 51.1864 28.5906C51.1172 28.5906 51.0567 28.6016 51.0059 28.623C50.9551 28.6451 50.9131 28.6761 50.8792 28.7158C50.8453 28.7556 50.8202 28.8028 50.8033 28.8558C50.7863 28.9096 50.7782 28.9678 50.7782 29.0312V29.8263H50.5513V28.4182H50.765V28.4189Z" fill="#6D6E71"/>
<path d="M52.8594 28.6643C52.8027 28.6156 52.726 28.5906 52.6302 28.5906C52.5485 28.5906 52.4799 28.6061 52.4247 28.637C52.3694 28.668 52.3252 28.7085 52.2928 28.7593C52.2596 28.8102 52.236 28.8691 52.222 28.9354C52.2073 29.0017 52.2007 29.0703 52.2007 29.141C52.2007 29.2066 52.208 29.27 52.2235 29.3318C52.2382 29.3937 52.2618 29.4483 52.2942 29.4962C52.3259 29.5448 52.3679 29.5831 52.4195 29.6118C52.4711 29.6406 52.5322 29.6553 52.6037 29.6553C52.7157 29.6553 52.8034 29.6251 52.8668 29.5654C52.9301 29.5057 52.9684 29.421 52.9824 29.312H53.2146C53.1895 29.4866 53.1261 29.6207 53.0237 29.715C52.9213 29.8093 52.782 29.8565 52.6059 29.8565C52.5013 29.8565 52.4084 29.8388 52.3274 29.8049C52.2463 29.7703 52.1786 29.7216 52.1248 29.6583C52.0702 29.5949 52.0297 29.519 52.0017 29.4306C51.9744 29.3422 51.9604 29.2456 51.9604 29.1403C51.9604 29.0349 51.9737 28.9362 52.0002 28.8448C52.0268 28.7534 52.0673 28.6731 52.1218 28.6053C52.1756 28.5375 52.2441 28.4837 52.3259 28.4447C52.4077 28.4056 52.5028 28.3857 52.6118 28.3857C52.6899 28.3857 52.7636 28.3953 52.8321 28.4145C52.9007 28.4336 52.9611 28.4631 53.0134 28.5029C53.0657 28.5427 53.1092 28.5935 53.1431 28.654C53.177 28.7144 53.1983 28.7873 53.2072 28.8706H52.9721C52.9544 28.7814 52.9169 28.7129 52.8601 28.6635L52.8594 28.6643Z" fill="#6D6E71"/>
<path d="M53.4824 28.1658V27.8828H53.7094V28.1658H53.4824ZM53.7094 28.4192V29.8273H53.4824V28.4192H53.7094Z" fill="#6D6E71"/>
<path d="M54.2745 28.4189V28.6422H54.2796C54.3739 28.4712 54.5235 28.3857 54.7284 28.3857C54.819 28.3857 54.8949 28.3983 54.9553 28.4241C55.0157 28.4491 55.0644 28.4852 55.1019 28.5302C55.1395 28.5758 55.1653 28.6296 55.1808 28.6923C55.1963 28.7549 55.2036 28.8242 55.2036 28.9008V29.827H54.9767V28.8735C54.9767 28.7866 54.9516 28.7173 54.9023 28.6665C54.8522 28.6156 54.7836 28.5906 54.6967 28.5906C54.6274 28.5906 54.567 28.6016 54.5169 28.623C54.466 28.6451 54.4241 28.6761 54.3902 28.7158C54.3563 28.7556 54.3312 28.8028 54.3135 28.8558C54.2966 28.9096 54.2885 28.9678 54.2885 29.0312V29.8263H54.0615V28.4182H54.2745V28.4189Z" fill="#6D6E71"/>
<path d="M56.5806 30.2242C56.4775 30.3384 56.3154 30.3958 56.095 30.3958C56.0309 30.3958 55.9654 30.3885 55.8983 30.3737C55.832 30.359 55.7708 30.3354 55.717 30.303C55.6625 30.2706 55.6176 30.2278 55.5822 30.1748C55.5468 30.1225 55.5269 30.0576 55.524 29.9817H55.7509C55.7524 30.0237 55.7657 30.0591 55.7893 30.0878C55.8136 30.1166 55.843 30.1402 55.8777 30.1586C55.9123 30.1763 55.9499 30.1895 55.9912 30.1976C56.0324 30.2057 56.0715 30.2102 56.1083 30.2102C56.1835 30.2102 56.2461 30.1969 56.2977 30.1711C56.3493 30.1446 56.392 30.1085 56.4259 30.0621C56.4598 30.0156 56.4841 29.9596 56.4996 29.8948C56.515 29.8292 56.5224 29.7577 56.5224 29.6796V29.5868H56.5173C56.4782 29.6737 56.4193 29.7378 56.3397 29.7791C56.2601 29.8196 56.1761 29.8403 56.0877 29.8403C55.9845 29.8403 55.8946 29.8211 55.818 29.7828C55.7414 29.7445 55.678 29.6936 55.6257 29.6288C55.5741 29.5647 55.5358 29.4888 55.51 29.4026C55.4842 29.3164 55.4717 29.225 55.4717 29.1285C55.4717 29.0452 55.4827 28.959 55.5034 28.8713C55.5247 28.7836 55.5601 28.7033 55.6102 28.6318C55.6603 28.5604 55.7259 28.5014 55.8077 28.455C55.8895 28.4086 55.9897 28.3857 56.109 28.3857C56.196 28.3857 56.2763 28.4056 56.3493 28.4447C56.4222 28.4837 56.4789 28.542 56.5195 28.6201H56.5224V28.4189H56.7361V29.7069C56.7361 29.9375 56.6845 30.11 56.5814 30.2242H56.5806ZM56.291 29.5912C56.3434 29.5595 56.3861 29.5175 56.4178 29.466C56.4495 29.4144 56.473 29.3554 56.4885 29.2906C56.504 29.225 56.5114 29.1602 56.5114 29.0946C56.5114 29.0327 56.504 28.9723 56.49 28.9118C56.476 28.8514 56.4532 28.7984 56.4222 28.7497C56.3913 28.7018 56.3507 28.6628 56.3006 28.6341C56.2505 28.6053 56.1901 28.5906 56.1186 28.5906C56.0472 28.5906 55.983 28.6046 55.9322 28.6326C55.8806 28.6606 55.8386 28.6982 55.8055 28.7453C55.7723 28.7925 55.748 28.847 55.7333 28.9089C55.7178 28.9708 55.7104 29.0349 55.7104 29.102C55.7104 29.1653 55.717 29.2294 55.7296 29.2928C55.7421 29.3562 55.7635 29.4144 55.7937 29.466C55.8239 29.5175 55.8637 29.5595 55.9138 29.5912C55.9639 29.6229 56.0258 29.6391 56.1009 29.6391C56.1761 29.6391 56.2395 29.6229 56.2918 29.5912H56.291Z" fill="#6D6E71"/>
<path d="M58.1227 27.8828L59.1263 29.4597H59.1314V27.8828H59.3717V29.8273H59.0939L58.0984 28.2667H58.0932V29.8273H57.853V27.8828H58.1227Z" fill="#6D6E71"/>
<path d="M60.7226 29.7374C60.6195 29.8169 60.4898 29.8575 60.3328 29.8575C60.2223 29.8575 60.1272 29.839 60.0462 29.8029C59.9651 29.7668 59.8973 29.716 59.8421 29.6504C59.7868 29.5848 59.7456 29.5075 59.7183 29.4161C59.691 29.3255 59.6756 29.2267 59.6719 29.1191C59.6719 29.0123 59.6881 28.9143 59.7198 28.8251C59.7515 28.736 59.7971 28.6586 59.8546 28.5938C59.9121 28.5282 59.9813 28.4774 60.0602 28.4412C60.139 28.4051 60.226 28.3867 60.3203 28.3867C60.4433 28.3867 60.5443 28.4125 60.6253 28.4641C60.7064 28.5157 60.7712 28.582 60.8199 28.6616C60.8692 28.7411 60.9024 28.8288 60.9216 28.9231C60.94 29.0175 60.9481 29.1074 60.9444 29.1928H59.9121C59.9099 29.2547 59.9172 29.3129 59.9335 29.3682C59.9497 29.4235 59.9755 29.4728 60.0108 29.5156C60.0462 29.5583 60.0919 29.5922 60.1471 29.618C60.2024 29.643 60.2672 29.6563 60.3417 29.6563C60.4382 29.6563 60.5163 29.6335 60.5775 29.5885C60.6393 29.5428 60.6791 29.4743 60.699 29.3815H60.923C60.8928 29.5391 60.8265 29.6585 60.7226 29.7381V29.7374ZM60.6681 28.8332C60.6475 28.7846 60.6202 28.7419 60.5856 28.7065C60.5509 28.6711 60.5097 28.6431 60.4625 28.6218C60.4153 28.6011 60.363 28.5908 60.3063 28.5908C60.2496 28.5908 60.1943 28.6011 60.1479 28.6218C60.1015 28.6424 60.0602 28.6711 60.0263 28.7072C59.9924 28.7434 59.9659 28.7861 59.946 28.834C59.9261 28.8826 59.915 28.9335 59.9113 28.988H60.7035C60.6998 28.9335 60.688 28.8819 60.6673 28.8325L60.6681 28.8332Z" fill="#6D6E71"/>
<path d="M61.7688 28.4193V28.6234H61.494V29.498C61.494 29.5253 61.4962 29.5466 61.5006 29.5636C61.505 29.5798 61.5131 29.5923 61.5257 29.6019C61.5382 29.6108 61.5559 29.6166 61.578 29.6196C61.6001 29.6225 61.6288 29.6233 61.6649 29.6233H61.7688V29.8274H61.5949C61.5367 29.8274 61.4859 29.8237 61.4439 29.8149C61.4019 29.8068 61.368 29.792 61.3429 29.7699C61.3171 29.7478 61.298 29.7176 61.2855 29.6771C61.2729 29.6373 61.2663 29.5842 61.2663 29.5194V28.6234H61.0312V28.4193H61.2663V27.9971H61.4932V28.4193H61.7681H61.7688Z" fill="#6D6E71"/>
<path d="M63.1459 29.8271L62.8652 28.7078H62.86L62.5823 29.8271H62.3369L61.894 28.4189H62.1453L62.4577 29.5706H62.4629L62.7407 28.4189H62.9883L63.2764 29.5706H63.2815L63.591 28.4189H63.826L63.3854 29.8271H63.1452H63.1459Z" fill="#6D6E71"/>
<path d="M64.01 28.8345C64.0388 28.7446 64.0815 28.6665 64.1382 28.6002C64.195 28.5338 64.2657 28.4815 64.349 28.4432C64.433 28.4049 64.5288 28.3857 64.6371 28.3857C64.7454 28.3857 64.8441 28.4049 64.9267 28.4432C65.0092 28.4815 65.0792 28.5338 65.1359 28.6002C65.1927 28.6665 65.2354 28.7446 65.2641 28.8345C65.2921 28.9244 65.3069 29.0209 65.3069 29.1248C65.3069 29.2287 65.2921 29.3245 65.2641 29.4136C65.2354 29.5028 65.1927 29.5802 65.1359 29.6465C65.0792 29.7128 65.0092 29.7644 64.9267 29.802C64.8441 29.8388 64.7476 29.858 64.6371 29.858C64.5265 29.858 64.4322 29.8395 64.349 29.802C64.265 29.7651 64.195 29.7128 64.1382 29.6465C64.0815 29.5802 64.0388 29.5028 64.01 29.4136C63.982 29.3245 63.9673 29.228 63.9673 29.1248C63.9673 29.0216 63.982 28.9244 64.01 28.8345ZM64.2414 29.3517C64.2635 29.4181 64.2944 29.4733 64.3335 29.5183C64.3725 29.5625 64.4182 29.5971 64.4705 29.6207C64.5229 29.6443 64.5789 29.6561 64.6371 29.6561C64.6953 29.6561 64.7513 29.6443 64.8036 29.6207C64.8559 29.5971 64.9016 29.5632 64.9414 29.5183C64.9804 29.4741 65.0107 29.4181 65.0335 29.3517C65.0563 29.2854 65.0674 29.2095 65.0674 29.1241C65.0674 29.0386 65.0563 28.9627 65.0335 28.8964C65.0114 28.8301 64.9804 28.7741 64.9414 28.7291C64.9023 28.6834 64.8567 28.6495 64.8036 28.626C64.7513 28.6024 64.6953 28.5906 64.6371 28.5906C64.5789 28.5906 64.5229 28.6024 64.4705 28.626C64.4182 28.6495 64.3725 28.6842 64.3335 28.7291C64.2944 28.7748 64.2635 28.8301 64.2414 28.8964C64.2193 28.9627 64.2082 29.0386 64.2082 29.1241C64.2082 29.2095 64.2193 29.2854 64.2414 29.3517Z" fill="#6D6E71"/>
<path d="M65.7801 28.4191V28.7161H65.7852C65.8405 28.6019 65.9083 28.5171 65.9879 28.4626C66.0682 28.4081 66.1699 28.383 66.2922 28.386V28.6313C66.2016 28.6313 66.1242 28.6439 66.0601 28.6697C65.996 28.6947 65.9444 28.7323 65.9054 28.7817C65.8663 28.8303 65.8376 28.89 65.8199 28.96C65.8022 29.03 65.7934 29.1103 65.7934 29.2009V29.8272H65.5664V28.4191H65.7801Z" fill="#6D6E71"/>
<path d="M66.7035 27.8826V29.0343L67.3335 28.419H67.6378L67.0904 28.9311L67.6776 29.8271H67.3895L66.9172 29.0917L66.7035 29.2929V29.8264H66.4766V27.8818H66.7035V27.8826Z" fill="#6D6E71"/>
<path d="M68.8256 29.7374C68.7225 29.8169 68.5928 29.8575 68.4359 29.8575C68.3253 29.8575 68.2295 29.839 68.1492 29.8029C68.0682 29.7668 68.0004 29.716 67.9451 29.6504C67.8898 29.5848 67.8486 29.5075 67.8213 29.4161C67.7941 29.3255 67.7778 29.2267 67.7749 29.1191C67.7749 29.0123 67.7911 28.9143 67.8228 28.8251C67.8545 28.736 67.8994 28.6586 67.9576 28.5938C68.0159 28.5282 68.0844 28.4774 68.1632 28.4412C68.2428 28.4051 68.3297 28.3867 68.4233 28.3867C68.5464 28.3867 68.6481 28.4125 68.7291 28.4641C68.8102 28.5157 68.875 28.582 68.9236 28.6616C68.9723 28.7411 69.0062 28.8288 69.0246 28.9231C69.0437 29.0175 69.0511 29.1074 69.0474 29.1928H68.0144C68.0129 29.2547 68.0195 29.3129 68.0357 29.3682C68.0512 29.4235 68.0777 29.4728 68.1131 29.5156C68.1485 29.5583 68.1942 29.5922 68.2487 29.618C68.304 29.643 68.3688 29.6563 68.444 29.6563C68.5397 29.6563 68.6186 29.6335 68.6797 29.5885C68.7409 29.5428 68.7814 29.4743 68.8013 29.3815H69.0253C68.9951 29.5391 68.9288 29.6585 68.8249 29.7381L68.8256 29.7374ZM68.7711 28.8332C68.7505 28.7846 68.7232 28.7419 68.6886 28.7065C68.654 28.6711 68.6127 28.6431 68.5655 28.6218C68.5184 28.6011 68.4661 28.5908 68.4093 28.5908C68.3526 28.5908 68.2973 28.6011 68.2509 28.6218C68.2037 28.6424 68.1632 28.6711 68.1293 28.7072C68.0954 28.7434 68.0689 28.7861 68.049 28.834C68.0299 28.8826 68.0181 28.9335 68.0144 28.988H68.8072C68.8035 28.9335 68.7917 28.8819 68.7711 28.8325V28.8332Z" fill="#6D6E71"/>
<path d="M69.4871 28.4191V28.7161H69.4923C69.5475 28.6019 69.6153 28.5171 69.6949 28.4626C69.7745 28.4081 69.8769 28.383 69.9992 28.386V28.6313C69.9086 28.6313 69.8312 28.6439 69.7671 28.6697C69.703 28.6947 69.6514 28.7323 69.6124 28.7817C69.5733 28.8303 69.5446 28.89 69.5269 28.96C69.5092 29.03 69.5004 29.1103 69.5004 29.2009V29.8272H69.2734V28.4191H69.4871Z" fill="#6D6E71"/>
<path d="M22.2871 17.2195C22.2871 17.1119 22.2008 17.0249 22.094 17.0205H17.8675C17.726 17.0205 17.5985 17.0596 17.4851 17.1384C17.3716 17.2165 17.2957 17.3447 17.2566 17.5216L15.7682 24.3226C15.7292 24.4995 15.7498 24.6269 15.8294 24.7058C15.909 24.7839 16.0187 24.8237 16.1602 24.8237C16.1602 24.8237 20.5135 24.8237 20.5142 24.8237C20.5901 24.8237 20.6542 24.7765 20.6822 24.7109C20.6822 24.7109 20.8782 23.8017 20.8782 23.7803C20.8782 23.6727 20.7927 23.5865 20.6859 23.5821H17.6155L18.0966 21.3811C18.0966 21.3811 20.7168 21.3811 20.722 21.3811C20.792 21.3752 20.8487 21.3296 20.8731 21.2684C20.8848 21.2389 21.0123 20.6148 21.047 20.4483C21.061 20.3805 21.0831 20.3164 21.0411 20.2545C21.0064 20.2037 20.9386 20.1705 20.8767 20.1705H18.3626L18.7797 18.265C18.7797 18.265 21.9208 18.2702 21.9216 18.2702C21.9982 18.2702 22.0631 18.223 22.0903 18.1567C22.0903 18.1567 22.2871 17.243 22.2871 17.2217V17.2195Z" fill="#154B94"/>
<path d="M55.0218 22.6463C55.0675 22.4363 55.1441 22.2381 55.2502 22.0516C55.3571 21.866 55.4941 21.6899 55.6621 21.5248C55.8301 21.3598 56.0268 21.2021 56.2538 21.0518C56.48 20.9014 56.7372 20.7548 57.0238 20.6126C56.9177 20.4402 56.8285 20.2773 56.7556 20.1255C56.6826 19.973 56.6266 19.8279 56.5868 19.6886C56.5471 19.5493 56.5242 19.4174 56.5176 19.2914C56.511 19.1654 56.5213 19.0409 56.5485 18.9171C56.606 18.6541 56.7099 18.4072 56.8602 18.1759C57.0105 17.9445 57.2102 17.7448 57.4585 17.5761C57.7068 17.4073 58.006 17.2725 58.3553 17.173C58.7045 17.0735 59.1091 17.0234 59.5688 17.0234C59.9881 17.0234 60.3418 17.061 60.6292 17.1362C60.9165 17.2113 61.1427 17.3174 61.3093 17.4545C61.4751 17.5915 61.5841 17.761 61.6364 17.9614C61.6887 18.1626 61.6873 18.3888 61.632 18.6401C61.5826 18.8655 61.4964 19.0741 61.3726 19.2656C61.2488 19.4572 61.0853 19.6392 60.8819 19.8124C60.6785 19.9855 60.4354 20.1513 60.1524 20.3112C59.8695 20.4711 59.5453 20.6318 59.1783 20.7931C59.2608 20.9095 59.3544 21.0326 59.4605 21.1623C59.5659 21.292 59.6757 21.4216 59.7892 21.5513C59.9026 21.681 60.0176 21.8092 60.1333 21.9374C60.249 22.0649 60.3632 22.1835 60.4752 22.2926C60.5437 22.2174 60.6093 22.1312 60.6726 22.0332C60.736 21.9352 60.7942 21.8321 60.848 21.723C60.9018 21.614 60.9497 21.5034 60.9924 21.3907C61.0352 21.278 61.0683 21.1674 61.0919 21.0584L61.1302 20.8838C61.1391 20.8425 61.1553 20.8071 61.1774 20.7769C61.1995 20.7467 61.2378 20.7224 61.2923 20.704C61.3461 20.6848 61.4213 20.6708 61.5171 20.662C61.6128 20.6524 61.7352 20.648 61.8825 20.648C62.0225 20.648 62.1375 20.6509 62.2281 20.6568C62.3187 20.6627 62.3887 20.6745 62.4388 20.6936C62.489 20.7128 62.5214 20.7379 62.5361 20.7695C62.5508 20.8012 62.5531 20.8418 62.5427 20.8904L62.5037 21.0709C62.4646 21.2514 62.4108 21.4334 62.3423 21.6176C62.2738 21.8019 62.1942 21.9809 62.1021 22.1555C62.01 22.3302 61.9068 22.4974 61.7919 22.6566C61.677 22.8165 61.5568 22.9653 61.4301 23.1046C61.548 23.2063 61.6711 23.3058 61.758 23.3735C61.845 23.4413 61.9201 23.4944 61.9835 23.5342C62.0468 23.574 62.1006 23.6012 62.1456 23.616C62.1905 23.6307 62.2288 23.6388 62.2605 23.6388H62.3836C62.4219 23.6388 62.4499 23.6521 62.4676 23.6786C62.486 23.7051 62.4934 23.7515 62.4904 23.8193C62.4875 23.8871 62.472 23.9866 62.4433 24.1178C62.4131 24.257 62.3865 24.3653 62.363 24.4449C62.3401 24.5238 62.3173 24.582 62.2952 24.6195C62.2731 24.6571 62.2421 24.6881 62.2031 24.7124C62.164 24.7367 62.1021 24.7595 62.0174 24.7802C61.9326 24.8008 61.8346 24.8111 61.7226 24.8111C61.635 24.8111 61.5458 24.8008 61.4566 24.7802C61.3675 24.7595 61.2665 24.7198 61.156 24.6623C61.0447 24.6041 60.918 24.5267 60.7751 24.4309C60.6321 24.3351 60.4486 24.1966 60.2652 24.0463C60.0507 24.1664 59.8334 24.2747 59.6131 24.3705C59.392 24.4663 59.1658 24.5459 58.9344 24.61C58.7023 24.6741 58.4673 24.7227 58.2278 24.7566C57.9883 24.7905 57.7371 24.8074 57.4733 24.8074C57.2095 24.8074 56.9641 24.7883 56.7246 24.7514C56.4852 24.7139 56.2648 24.6564 56.0637 24.5798C55.8625 24.5031 55.685 24.4059 55.531 24.2894C55.3762 24.173 55.2524 24.0352 55.1596 23.8753C55.0667 23.7154 55.0063 23.5334 54.9791 23.3286C54.9518 23.1238 54.9651 22.8975 55.0196 22.65L55.0218 22.6463ZM56.6694 22.5674C56.634 22.7288 56.634 22.8769 56.6679 23.0125C56.7025 23.1481 56.7688 23.2645 56.8676 23.3618C56.9663 23.4598 57.0982 23.5356 57.264 23.5902C57.4298 23.6447 57.6287 23.672 57.8608 23.672C57.981 23.672 58.1018 23.6616 58.2241 23.641C58.3464 23.6204 58.4687 23.5924 58.5903 23.5563C58.7119 23.5209 58.8291 23.4774 58.9425 23.4266C59.0553 23.3758 59.1621 23.3205 59.2638 23.2601C59.1135 23.1252 58.9639 22.9808 58.8151 22.829C58.6662 22.6772 58.5233 22.524 58.3847 22.37C58.2462 22.216 58.1151 22.0627 57.9905 21.9109C57.866 21.7591 57.7562 21.6154 57.6619 21.4799C57.5042 21.5624 57.3686 21.6479 57.2552 21.7363C57.1417 21.8247 57.0459 21.9139 56.9663 22.0038C56.8867 22.0936 56.8226 22.1858 56.774 22.2801C56.7254 22.3744 56.6907 22.4702 56.6694 22.5674ZM58.1534 18.8434C58.1364 18.9223 58.132 19.0041 58.1416 19.0888C58.1512 19.1735 58.1711 19.262 58.2005 19.3533C58.23 19.4454 58.272 19.5434 58.3251 19.6466C58.3781 19.7498 58.44 19.8618 58.5093 19.9819C58.7716 19.8618 58.9919 19.7505 59.1724 19.6495C59.3522 19.5479 59.5011 19.4491 59.6175 19.3541C59.7346 19.2583 59.8231 19.1625 59.8842 19.0667C59.9446 18.9709 59.9866 18.8722 60.0087 18.7712C60.0286 18.6813 60.0286 18.5966 60.0102 18.5178C59.9918 18.4389 59.9505 18.3704 59.8872 18.3122C59.8238 18.254 59.7398 18.2083 59.6359 18.1744C59.5313 18.1405 59.4031 18.1235 59.2513 18.1235C59.0833 18.1235 58.9366 18.1412 58.8106 18.1773C58.6854 18.2134 58.5771 18.2635 58.4864 18.3299C58.3958 18.3954 58.3236 18.4728 58.2683 18.5612C58.2131 18.6496 58.1747 18.7447 58.1526 18.8456L58.1534 18.8434Z" fill="#154B94"/>
<path d="M37.0659 17.2195C37.0659 17.1119 36.9797 17.0249 36.8728 17.0205H32.6463C32.5048 17.0205 32.3773 17.0596 32.2639 17.1384C32.1504 17.2165 32.0745 17.3447 32.0354 17.5216L30.547 24.3226C30.508 24.4995 30.5286 24.6269 30.6082 24.7058C30.6878 24.7839 30.7975 24.8237 30.939 24.8237C30.939 24.8237 35.2923 24.8237 35.293 24.8237C35.3689 24.8237 35.433 24.7765 35.461 24.7109C35.461 24.7109 35.657 23.8017 35.657 23.7803C35.657 23.6727 35.5715 23.5865 35.4647 23.5821H32.3943L32.8762 21.3811C32.8762 21.3811 35.4964 21.3811 35.5015 21.3811C35.5715 21.3752 35.6283 21.3296 35.6526 21.2684C35.6644 21.2389 35.7919 20.6148 35.8265 20.4483C35.8405 20.3805 35.8626 20.3164 35.8206 20.2545C35.786 20.2037 35.7182 20.1705 35.6563 20.1705H33.1422L33.5592 18.265C33.5592 18.265 36.7004 18.2702 36.7011 18.2702C36.7778 18.2702 36.8419 18.223 36.8699 18.1567C36.8699 18.1567 37.0666 17.243 37.0666 17.2217L37.0659 17.2195Z" fill="#154B94"/>
<path d="M24.0459 23.5806H24.0636L24.5374 21.3789H24.5278L24.0459 23.5806Z" fill="#154B94"/>
<path d="M24.7974 20.166L25.0597 18.9473L24.793 20.166H24.7974Z" fill="#154B94"/>
<path d="M29.9966 19.1839C29.9148 18.7108 29.7306 18.3137 29.4455 17.9917C29.1603 17.6704 28.775 17.4273 28.2916 17.2637C27.8075 17.1001 27.1922 17.0183 26.4465 17.0183H25.4746L24.2979 17.0176C24.1564 17.0176 24.029 17.0566 23.9147 17.1355C23.9147 17.1355 23.914 17.1362 23.9133 17.1369C23.7991 17.2158 23.7224 17.344 23.6834 17.5223L23.119 20.1145L22.1979 24.3241C22.1588 24.5009 22.1795 24.6284 22.2591 24.7073C22.3386 24.7854 22.4492 24.8252 22.5906 24.8252H24.5971C25.3391 24.8252 25.9948 24.7493 26.5652 24.5975C27.1355 24.4457 27.6439 24.2084 28.0897 23.8849C28.5355 23.5615 28.915 23.1437 29.2274 22.6323C29.5398 22.1209 29.7586 21.5492 29.9156 20.8293C30.0519 20.2066 30.0792 19.6584 29.9974 19.1854L29.9966 19.1839ZM28.1435 20.8823C28.0447 21.3355 27.9033 21.7054 27.7235 22.0451C27.5437 22.3847 27.3396 22.6515 27.0765 22.8799C26.8127 23.1083 26.5092 23.2793 26.1651 23.3927C25.821 23.5062 25.4164 23.5622 24.95 23.5622H24.0636L25.2153 18.268H26.0759C26.5976 18.268 27.0051 18.3336 27.2976 18.4655C27.5901 18.5966 27.8134 18.7801 27.9666 19.0144C28.1199 19.2487 28.2083 19.5258 28.2312 19.8456C28.254 20.1654 28.2245 20.5109 28.1435 20.8831V20.8823Z" fill="#154B94"/>
<path d="M45.3379 17.1337C45.2583 17.0556 45.1485 17.0158 45.007 17.0158C45.007 17.0158 44.1508 17.004 44.0764 17.0364C43.9622 17.0858 43.9017 17.1838 43.8649 17.3613L42.7265 22.5244L40.9942 17.4483C40.936 17.2766 40.8461 17.1587 40.7245 17.0931C40.6316 17.043 40.5292 17.0194 40.4246 17.0158H39.0843C38.9428 17.0158 38.8153 17.0548 38.7019 17.1337C38.5884 17.2118 38.5125 17.34 38.4734 17.5168L36.985 24.3179C36.946 24.4947 36.9666 24.6222 37.0462 24.701C37.1257 24.7791 37.2355 24.8189 37.377 24.8189C37.377 24.8189 38.248 24.8211 38.3076 24.7983C38.4123 24.7585 38.4823 24.6509 38.5191 24.4733L39.6575 18.9522L41.3899 24.3857C41.4481 24.5573 41.538 24.6752 41.6595 24.7408C41.7288 24.7784 41.8017 24.8005 41.8776 24.8116H41.8843C41.9093 24.8152 41.9344 24.8174 41.9594 24.8189H43.2997C43.4412 24.8189 43.5687 24.7799 43.6822 24.701C43.7956 24.6229 43.8715 24.4947 43.9106 24.3179L45.399 17.5168C45.4381 17.34 45.4174 17.2125 45.3379 17.1337Z" fill="#154B94"/>
<path d="M69.9886 17.7261C69.9783 17.6834 69.9599 17.6443 69.9334 17.6097C69.9334 17.6097 69.9312 17.6067 69.9304 17.606C69.9231 17.5964 69.8825 17.5426 69.8155 17.4822C69.8155 17.4815 69.8147 17.4807 69.814 17.48C69.7963 17.4594 69.7654 17.4351 69.7234 17.4085C69.6784 17.3768 69.6276 17.3474 69.5709 17.3253C69.4603 17.2715 69.3336 17.2228 69.1877 17.1786C69.033 17.1322 68.8635 17.0954 68.68 17.0688C68.4965 17.0416 68.3094 17.0283 68.12 17.0283C67.7531 17.0283 67.3964 17.0725 67.0494 17.1617C66.7023 17.2508 66.3884 17.385 66.1084 17.5647C65.8277 17.7445 65.5867 17.9707 65.3849 18.2426C65.183 18.5153 65.043 18.8306 64.9641 19.1902C64.8956 19.5034 64.8868 19.7716 64.9361 19.9956C64.9862 20.2196 65.0724 20.4141 65.1947 20.5777C65.3171 20.742 65.4666 20.8827 65.6427 21.0006C65.8189 21.1185 66.0038 21.2239 66.1983 21.3167C66.3921 21.4096 66.5807 21.4973 66.765 21.5805C66.9484 21.6638 67.1098 21.7522 67.2476 21.8473C67.3854 21.9423 67.4907 22.0499 67.563 22.1715C67.6352 22.2931 67.6529 22.439 67.6153 22.6092C67.5829 22.7558 67.5246 22.8892 67.4414 23.0093C67.3574 23.1294 67.252 23.2296 67.1253 23.3106C66.9985 23.3917 66.8519 23.4543 66.6854 23.4993C66.5189 23.5435 66.3369 23.5663 66.1394 23.5663C65.8387 23.5663 65.5809 23.5346 65.3664 23.4705C65.1513 23.4072 64.97 23.3364 64.8226 23.2591C64.6745 23.1817 64.5552 23.111 64.4638 23.0476C64.4373 23.0292 64.4152 23.0188 64.3909 23.0056C64.3746 22.9945 64.3577 22.9842 64.3393 22.9761C64.3105 22.9628 64.2803 22.9518 64.2472 22.9474C64.0814 22.9245 63.9281 23.0306 63.8869 23.1891H63.8846C63.7825 23.6051 63.7287 23.8279 63.7233 23.8574H63.7248C63.7233 23.8662 63.7203 23.8736 63.7189 23.8824C63.713 23.9237 63.7159 23.9642 63.7255 24.0025C63.7358 24.0475 63.7557 24.0887 63.783 24.1248C63.783 24.1248 63.7852 24.1278 63.7859 24.1285C63.8006 24.1484 63.9436 24.3371 64.1632 24.4233L64.1646 24.4218C64.2626 24.4756 64.3761 24.5279 64.5169 24.578C64.6849 24.6377 64.8831 24.6893 65.1108 24.7313C65.3384 24.774 65.5904 24.7954 65.8667 24.7954C66.275 24.7954 66.6692 24.7453 67.0494 24.6451C67.4296 24.5448 67.7759 24.3953 68.0876 24.1956C68.3985 23.9966 68.6653 23.7483 68.8871 23.4506C69.1089 23.153 69.2629 22.8074 69.3491 22.4132C69.4154 22.1118 69.4227 21.8502 69.3726 21.6277C69.3225 21.4059 69.2349 21.2121 69.1103 21.0478C68.9858 20.8835 68.8333 20.7427 68.6527 20.6248C68.4722 20.507 68.2851 20.4016 68.0913 20.3087C67.8975 20.2159 67.7066 20.1282 67.5188 20.045C67.3309 19.9617 67.1658 19.8733 67.0236 19.7782C66.8814 19.6839 66.7753 19.5756 66.7053 19.4533C66.6353 19.3317 66.6183 19.188 66.6544 19.0215C66.6787 18.9095 66.7237 18.8034 66.7893 18.7024C66.8549 18.6022 66.9389 18.516 67.0435 18.4445C67.1474 18.3731 67.2704 18.3171 67.4112 18.2765C67.5519 18.236 67.7111 18.2154 67.8879 18.2154C68.1141 18.2154 68.3168 18.2412 68.4951 18.2935C68.6734 18.3458 68.8274 18.4033 68.9578 18.4674C69.0882 18.5315 69.1965 18.5897 69.2835 18.6442C69.3343 18.6759 69.3756 18.6951 69.4124 18.7083C69.4375 18.7194 69.464 18.7282 69.492 18.7319C69.6504 18.754 69.7963 18.6523 69.8361 18.5013C69.8361 18.5013 69.996 17.8477 69.9968 17.8403C70.0019 17.8005 69.999 17.7622 69.9909 17.7254L69.9886 17.7261Z" fill="#154B94"/>
<path d="M55.1758 17.0234H50.7982H49.4395C49.315 17.0234 49.2347 17.117 49.1971 17.2135C49.1941 17.2231 48.9812 18.1854 48.979 18.1943C48.9775 18.2002 48.9768 18.2061 48.9753 18.212C48.9731 18.2252 48.9731 18.237 48.9753 18.2503C48.9775 18.2613 48.9819 18.2724 48.9878 18.2827C48.9996 18.3033 49.0173 18.3195 49.0387 18.3291C49.0556 18.3372 49.0748 18.3409 49.0939 18.3409C49.1079 18.3409 51.1306 18.3431 51.1306 18.3424L50.3981 21.6788L49.819 24.316C49.7799 24.4928 49.8006 24.6203 49.8801 24.6991C49.9597 24.7772 50.0695 24.817 50.211 24.817C50.211 24.817 51.2212 24.8192 51.2809 24.7964C51.3855 24.7566 51.4555 24.649 51.4923 24.4714L52.101 21.6795L52.8282 18.3446C53.9637 18.3461 54.9923 18.3475 54.9923 18.3475C55.0063 18.3475 55.0189 18.3446 55.0321 18.3416C55.1942 18.3063 55.1972 18.1081 55.2252 17.9776C55.2635 17.7979 55.3026 17.6181 55.3401 17.4375C55.3534 17.3742 55.3807 17.3005 55.3807 17.2356C55.3807 17.1214 55.2893 17.0293 55.1758 17.0242V17.0234Z" fill="#154B94"/>
<path d="M13.4357 19.5649C13.4203 19.4883 13.3819 19.4191 13.3281 19.366C13.2567 19.2945 13.1587 19.2503 13.0496 19.2503H11.3615C11.1441 19.2503 10.9673 19.0742 10.9673 18.8561V17.3942C10.9673 17.1768 10.7912 17 10.5731 17H8.67131C8.45394 17 8.27783 17.1761 8.27783 17.3935V19.5819C8.27783 19.7993 8.45394 19.9761 8.67131 19.9761H10.2975C10.5149 19.9761 10.691 20.1522 10.6917 20.3696V27.0498C10.6917 27.2672 10.5156 27.4433 10.2975 27.4433H8.67131C8.45394 27.4433 8.27783 27.6194 8.27783 27.8367V30.048C8.27783 30.2661 8.45394 30.4422 8.67131 30.4422H10.5731C10.7905 30.4422 10.9673 30.2661 10.9673 30.048V28.5868C10.9673 28.3695 11.1434 28.1926 11.3615 28.1926H13.0496C13.1358 28.1926 13.2154 28.1639 13.2803 28.1167C13.3584 28.06 13.4158 27.976 13.4357 27.878C13.4409 27.8522 13.4438 27.8257 13.4438 27.7984V19.6445C13.4438 19.6173 13.4409 19.5907 13.4357 19.5649Z" fill="#21B5E1"/>
<path d="M2.46326 18.8554C2.46326 19.0727 2.29158 19.2496 2.07421 19.2496H2.07053C2.07053 19.2496 0.539368 19.2496 0.394947 19.2496C0.176105 19.2496 0 19.4257 0 19.6431V27.8014C0 28.0187 0.176105 28.1948 0.394211 28.1948H2.07421C2.27611 28.1948 2.43968 28.3466 2.46326 28.5419C2.46326 28.5419 2.46326 30.0517 2.464 30.0517C2.46547 30.2676 2.64084 30.4429 2.85747 30.4429H7.29105C7.50768 30.4429 7.68305 30.2683 7.68526 30.0517V27.8375C7.68526 27.6201 7.50916 27.444 7.29105 27.444L3.14116 27.4403C2.92379 27.4403 2.74695 27.2642 2.74695 27.0461L2.74326 25.6174C2.74326 25.4 2.91937 25.2232 3.13747 25.2232H7.29032C7.50768 25.2232 7.68379 25.0471 7.68453 24.8297V22.5926C7.68453 22.3753 7.50842 22.1992 7.29032 22.1992H3.13821C2.92084 22.1992 2.744 22.0231 2.744 21.8049V20.3703C2.744 20.1529 2.92011 19.9761 3.13747 19.9761H7.29032C7.50768 19.9761 7.68379 19.8 7.68453 19.5826V17.3913C7.68305 17.1754 7.50768 17 7.29105 17H2.85747C2.64084 17 2.46547 17.1746 2.46326 17.3913C2.46326 17.4104 2.46253 18.8554 2.46253 18.8554H2.46326Z" fill="#2E3885"/>
</g>
<defs>
<clipPath id="clip0_1962_20734">
<rect width="70" height="13.4437" fill="white" transform="translate(0 17)"/>
</clipPath>
</defs>
</svg>
