<svg width="70" height="48" viewBox="0 0 70 48" fill="none" xmlns="http://www.w3.org/2000/svg">
<g clip-path="url(#clip0_1962_20439)">
<path d="M8.25474 15.5544C6.40821 13.7058 3.41127 13.7058 1.56263 15.5544C-0.283899 17.4031 -0.283899 20.3979 1.56263 22.2466C3.41127 24.0952 6.40821 24.0952 8.25474 22.2466C10.1034 20.3979 10.1034 17.4031 8.25474 15.5544Z" fill="#F16924"/>
<mask id="mask0_1962_20439" style="mask-type:luminance" maskUnits="userSpaceOnUse" x="0" y="14" width="10" height="10">
<path d="M8.25474 15.5544C6.40821 13.7058 3.41127 13.7058 1.56263 15.5544C-0.283899 17.4031 -0.283899 20.3979 1.56263 22.2466C3.41127 24.0952 6.40821 24.0952 8.25474 22.2466C10.1034 20.3979 10.1034 17.4031 8.25474 15.5544Z" fill="white"/>
</mask>
<g mask="url(#mask0_1962_20439)">
<path d="M1.60898 17.4555L0.498535 16.9318L0.542701 16.8372L1.6216 17.344L3.12112 16.9886L4.89614 16.303L6.34519 15.4091L6.82259 14.4375L6.91723 14.4838L6.42721 15.4827L6.41459 15.4891L4.94241 16.3976L3.15266 17.0895L1.60898 17.4555Z" fill="white"/>
<path d="M3.03898 23.3963L2.94434 23.35L3.43646 22.3363L5.0138 21.4046L6.74045 20.698L8.3956 20.332L9.38196 20.841L9.33359 20.9335L8.38088 20.4414L6.772 20.7968L5.06007 21.4993L3.51638 22.4099L3.03898 23.3963Z" fill="white"/>
<path d="M8.29697 17.5022L6.82689 17.1383L4.9425 16.3707L3.52711 15.5105L3.11279 14.2739L3.21374 14.2402L3.61544 15.4411L4.99087 16.276L6.86054 17.0395L8.29276 17.3928L9.38848 17.0058L9.42213 17.1068L8.29697 17.5022Z" fill="white"/>
<path d="M4.91077 23.8026L3.43018 22.4019L3.42597 22.3872L3.00324 20.6963L2.37862 18.9338L1.60047 17.4848L0.0715058 18.8939L0 18.8161L1.62991 17.3145L2.47536 18.8918L3.10419 20.6668L3.52482 22.3451L4.98227 23.7268L4.91077 23.8026Z" fill="white"/>
<path d="M6.7596 23.4578L6.25065 22.2843L5.01191 21.4956L3.08125 20.7006L1.63431 20.341L1.6238 20.3305L0.059082 18.6711L0.136897 18.5996L1.6911 20.2463L3.1149 20.6018L5.06028 21.401L6.33477 22.2128L6.85634 23.4157L6.7596 23.4578Z" fill="white"/>
<path d="M4.73215 23.8342L4.66064 23.7585L6.30738 22.2043L6.71118 20.7321L7.38418 18.7909L8.24225 17.4323L8.19387 15.3986L8.29903 15.3965L8.3474 17.4617L8.33899 17.4744L7.47882 18.8351L6.81003 20.7636L6.40202 22.261L6.39151 22.2716L4.73215 23.8342Z" fill="white"/>
<path d="M8.28438 22.4713L8.17922 22.4629L8.33485 20.3998L7.39056 18.8351L6.80589 17.0558L6.339 15.4722L4.94043 14.0736L5.01614 14L6.43785 15.4301L6.90474 17.0243L7.4852 18.7909L8.44211 20.3745L8.28438 22.4713Z" fill="white"/>
<path d="M0.286091 20.8122L0.252441 20.7134L1.62577 20.2507L2.39762 18.8143L3.08323 17.0224L3.52488 15.4472L4.99075 14.0928L5.06226 14.1706L3.61742 15.504L3.18418 17.054L2.49226 18.8584L1.69938 20.3369L0.286091 20.8122Z" fill="white"/>
<path d="M1.64064 15.2575L1.59326 17.4463L1.69839 17.4486L1.74577 15.2597L1.64064 15.2575Z" fill="white"/>
<path d="M1.57011 15.3705L1.56641 15.4756L3.55261 15.5456L3.55632 15.4405L1.57011 15.3705Z" fill="white"/>
<path d="M1.59355 20.2883L1.46484 22.417L1.56981 22.4233L1.69851 20.2947L1.59355 20.2883Z" fill="white"/>
<path d="M1.40041 22.1492L1.39111 22.2539L3.50276 22.4413L3.51205 22.3365L1.40041 22.1492Z" fill="white"/>
<path d="M8.49562 22.2106L6.33789 22.2275L6.33872 22.3327L8.49644 22.3157L8.49562 22.2106Z" fill="white"/>
<path d="M9.67233 18.9448L8.38037 20.3682L8.45823 20.4388L9.75019 19.0155L9.67233 18.9448Z" fill="white"/>
<path d="M8.31955 17.3975L8.23877 17.4648L9.64721 19.1547L9.72799 19.0874L8.31955 17.3975Z" fill="white"/>
<path d="M6.35679 15.393L6.35156 15.498L8.49618 15.6048L8.50141 15.4998L6.35679 15.393Z" fill="white"/>
</g>
<path d="M18.9804 15.5544C17.1318 13.7058 14.1349 13.7058 12.2883 15.5544C10.4397 17.4031 10.4397 20.3979 12.2883 22.2466C14.137 24.0952 17.1339 24.0952 18.9804 22.2466C20.8291 20.3979 20.8291 17.4031 18.9804 15.5544Z" fill="#FFD54F"/>
<mask id="mask1_1962_20439" style="mask-type:luminance" maskUnits="userSpaceOnUse" x="10" y="14" width="11" height="10">
<path d="M18.9804 15.5544C17.1318 13.7058 14.1349 13.7058 12.2883 15.5544C10.4397 17.4031 10.4397 20.3979 12.2883 22.2466C14.137 24.0952 17.1339 24.0952 18.9804 22.2466C20.8291 20.3979 20.8291 17.4031 18.9804 15.5544Z" fill="white"/>
</mask>
<g mask="url(#mask1_1962_20439)">
<path d="M12.3346 17.4555L11.2241 16.9318L11.2683 16.8372L12.3472 17.344L13.8467 16.9886L15.6217 16.303L17.0708 15.4091L17.5482 14.4375L17.6428 14.4838L17.1528 15.4827L17.1402 15.4891L15.668 16.3976L13.8782 17.0895L12.3346 17.4555Z" fill="white"/>
<path d="M13.7646 23.3963L13.6699 23.35L14.162 22.3363L15.7394 21.4046L17.466 20.698L19.1212 20.332L20.1075 20.841L20.0592 20.9335L19.1065 20.4414L17.4976 20.7968L15.7857 21.4993L14.242 22.4099L13.7646 23.3963Z" fill="white"/>
<path d="M19.0226 17.5022L17.5525 17.1383L15.6681 16.3707L14.2527 15.5105L13.8384 14.2739L13.9393 14.2402L14.341 15.4411L15.7165 16.276L17.5861 17.0395L19.0183 17.3928L20.1141 17.0058L20.1477 17.1068L19.0226 17.5022Z" fill="white"/>
<path d="M15.6364 23.8026L14.1558 22.4019L14.1516 22.3872L13.7288 20.6963L13.1042 18.9338L12.3261 17.4848L10.7971 18.8939L10.7256 18.8161L12.3555 17.3145L13.2009 18.8918L13.8298 20.6668L14.2504 22.3451L15.7079 23.7268L15.6364 23.8026Z" fill="white"/>
<path d="M17.4852 23.4578L16.9762 22.2843L15.7375 21.4956L13.8068 20.7006L12.3599 20.341L12.3494 20.3305L10.7847 18.6711L10.8625 18.5996L12.4167 20.2463L13.8405 20.6018L15.7859 21.401L17.0604 22.2128L17.5819 23.4157L17.4852 23.4578Z" fill="white"/>
<path d="M15.4577 23.8342L15.3862 23.7585L17.033 22.2043L17.4368 20.7321L18.1098 18.7909L18.9678 17.4323L18.9195 15.3986L19.0246 15.3965L19.073 17.4617L19.0646 17.4744L18.2044 18.8351L17.5356 20.7636L17.1276 22.261L17.1171 22.2716L15.4577 23.8342Z" fill="white"/>
<path d="M19.01 22.4713L18.9048 22.4629L19.0604 20.3998L18.1161 18.8351L17.5315 17.0558L17.0646 15.4722L15.666 14.0736L15.7417 14L17.1634 15.4301L17.6303 17.0243L18.2108 18.7909L19.1677 20.3745L19.01 22.4713Z" fill="white"/>
<path d="M11.0117 20.8122L10.978 20.7134L12.3514 20.2507L13.1232 18.8143L13.8088 17.0224L14.2505 15.4472L15.7163 14.0928L15.7878 14.1706L14.343 15.504L13.9098 17.054L13.2178 18.8584L12.425 20.3369L11.0117 20.8122Z" fill="white"/>
<path d="M12.3672 15.2584L12.3198 17.4473L12.425 17.4495L12.4723 15.2607L12.3672 15.2584Z" fill="white"/>
<path d="M12.2952 15.3705L12.2915 15.4756L14.2777 15.5456L14.2814 15.4405L12.2952 15.3705Z" fill="white"/>
<path d="M12.3186 20.2883L12.1899 22.417L12.2949 22.4233L12.4236 20.2947L12.3186 20.2883Z" fill="white"/>
<path d="M12.1275 22.1492L12.1182 22.2539L14.2298 22.4413L14.2391 22.3365L12.1275 22.1492Z" fill="white"/>
<path d="M19.2232 22.2086L17.0654 22.2256L17.0663 22.3307L19.224 22.3138L19.2232 22.2086Z" fill="white"/>
<path d="M20.3974 18.9458L19.1055 20.3691L19.1833 20.4398L20.4753 19.0165L20.3974 18.9458Z" fill="white"/>
<path d="M19.0446 17.3995L18.9639 17.4668L20.3723 19.1567L20.4531 19.0893L19.0446 17.3995Z" fill="white"/>
<path d="M17.0834 15.394L17.0781 15.499L19.2227 15.6058L19.228 15.5008L17.0834 15.394Z" fill="white"/>
</g>
<path d="M18.9804 26.28C17.1318 24.4314 14.1349 24.4314 12.2883 26.28C10.4397 28.1287 10.4397 31.1235 12.2883 32.9721C14.137 34.8208 17.1339 34.8208 18.9804 32.9721C20.8291 31.1235 20.8291 28.1287 18.9804 26.28Z" fill="#00A651"/>
<mask id="mask2_1962_20439" style="mask-type:luminance" maskUnits="userSpaceOnUse" x="10" y="24" width="11" height="11">
<path d="M18.9804 26.28C17.1318 24.4314 14.1349 24.4314 12.2883 26.28C10.4397 28.1287 10.4397 31.1235 12.2883 32.9721C14.137 34.8208 17.1339 34.8208 18.9804 32.9721C20.8291 31.1235 20.8291 28.1287 18.9804 26.28Z" fill="white"/>
</mask>
<g mask="url(#mask2_1962_20439)">
<path d="M12.3346 28.1811L11.2241 27.6574L11.2683 27.5627L12.3472 28.0696L13.8467 27.7142L15.6217 27.0285L17.0708 26.1347L17.5482 25.1631L17.6428 25.2094L17.1528 26.2083L17.1402 26.2146L15.668 27.1232L13.8782 27.8151L12.3346 28.1811Z" fill="white"/>
<path d="M13.7646 34.1219L13.6699 34.0756L14.162 33.0619L15.7394 32.1302L17.466 31.4236L19.1212 31.0576L20.1075 31.5666L20.0592 31.6591L19.1065 31.167L17.4976 31.5224L15.7857 32.2248L14.242 33.1355L13.7646 34.1219Z" fill="white"/>
<path d="M19.0226 28.2277L17.5525 27.8639L15.6681 27.0963L14.2527 26.2361L13.8384 24.9995L13.9393 24.9658L14.341 26.1667L15.7165 27.0016L17.5861 27.7651L19.0183 28.1184L20.1141 27.7314L20.1477 27.8324L19.0226 28.2277Z" fill="white"/>
<path d="M15.6364 34.5281L14.1558 33.1275L14.1516 33.1127L13.7288 31.4218L13.1042 29.6594L12.3261 28.2104L10.7971 29.6195L10.7256 29.5417L12.3555 28.04L13.2009 29.6174L13.8298 31.3924L14.2504 33.0707L15.7079 34.4524L15.6364 34.5281Z" fill="white"/>
<path d="M17.4852 34.1834L16.9762 33.0098L15.7375 32.2212L13.8068 31.4262L12.3599 31.0666L12.3494 31.0561L10.7847 29.3967L10.8625 29.3252L12.4167 30.9719L13.8405 31.3274L15.7859 32.1265L17.0604 32.9383L17.5819 34.1413L17.4852 34.1834Z" fill="white"/>
<path d="M15.4577 34.5598L15.3862 34.484L17.033 32.9298L17.4368 31.4577L18.1098 29.5165L18.9678 28.1579L18.9195 26.1242L19.0246 26.1221L19.073 28.1873L19.0646 28.1999L18.2044 29.5607L17.5356 31.4892L17.1276 32.9866L17.1171 32.9971L15.4577 34.5598Z" fill="white"/>
<path d="M19.01 33.1969L18.9048 33.1885L19.0604 31.1254L18.1161 29.5606L17.5315 27.7814L17.0646 26.1978L15.666 24.7992L15.7417 24.7256L17.1634 26.1557L17.6303 27.7499L18.2108 29.5165L19.1677 31.1001L19.01 33.1969Z" fill="white"/>
<path d="M11.0117 31.5378L10.978 31.439L12.3514 30.9763L13.1232 29.5398L13.8088 27.748L14.2505 26.1728L15.7163 24.8184L15.7878 24.8962L14.343 26.2295L13.9098 27.7795L13.2178 29.584L12.425 31.0625L11.0117 31.5378Z" fill="white"/>
<path d="M12.3667 25.984L12.3193 28.1729L12.4245 28.1751L12.4718 25.9863L12.3667 25.984Z" fill="white"/>
<path d="M12.2952 26.0932L12.2915 26.1982L14.2777 26.2683L14.2814 26.1632L12.2952 26.0932Z" fill="white"/>
<path d="M12.3201 31.0139L12.1914 33.1426L12.2964 33.1489L12.4251 31.0203L12.3201 31.0139Z" fill="white"/>
<path d="M12.1275 32.8757L12.1182 32.9805L14.2298 33.1678L14.2391 33.0631L12.1275 32.8757Z" fill="white"/>
<path d="M19.2198 32.9595L17.062 32.9727L17.0624 33.0379L19.2202 33.0247L19.2198 32.9595Z" fill="white"/>
<path d="M20.3979 29.6714L19.106 31.0947L19.1838 31.1654L20.4758 29.7421L20.3979 29.6714Z" fill="white"/>
<path d="M19.0451 28.1241L18.9644 28.1914L20.3728 29.8813L20.4536 29.8139L19.0451 28.1241Z" fill="white"/>
<path d="M17.0829 26.1186L17.0776 26.2236L19.2223 26.3304L19.2275 26.2254L17.0829 26.1186Z" fill="white"/>
</g>
<path d="M8.25485 26.28C6.40621 24.4314 3.40928 24.4314 1.56275 26.28C-0.28589 28.1287 -0.28589 31.1235 1.56275 32.9721C3.41138 34.8208 6.40832 34.8208 8.25485 32.9721C10.1035 31.1235 10.1035 28.1287 8.25485 26.28Z" fill="#1C75BC"/>
<mask id="mask3_1962_20439" style="mask-type:luminance" maskUnits="userSpaceOnUse" x="0" y="24" width="10" height="11">
<path d="M8.25485 26.28C6.40621 24.4314 3.40928 24.4314 1.56275 26.28C-0.28589 28.1287 -0.28589 31.1235 1.56275 32.9721C3.41138 34.8208 6.40832 34.8208 8.25485 32.9721C10.1035 31.1235 10.1035 28.1287 8.25485 26.28Z" fill="white"/>
</mask>
<g mask="url(#mask3_1962_20439)">
<path d="M1.60898 28.1811L0.498535 27.6574L0.542701 27.5627L1.6216 28.0696L3.12112 27.7142L4.89614 27.0285L6.34519 26.1347L6.82259 25.1631L6.91723 25.2094L6.42721 26.2083L6.41459 26.2146L4.94241 27.1232L3.15266 27.8151L1.60898 28.1811Z" fill="white"/>
<path d="M3.03898 34.1219L2.94434 34.0756L3.43646 33.0619L5.0138 32.1302L6.74045 31.4236L8.3956 31.0576L9.38196 31.5666L9.33359 31.6591L8.38088 31.167L6.772 31.5224L5.06007 32.2248L3.51638 33.1355L3.03898 34.1219Z" fill="white"/>
<path d="M8.29697 28.2277L6.82689 27.8639L4.9425 27.0963L3.52711 26.2361L3.11279 24.9995L3.21374 24.9658L3.61544 26.1667L4.99087 27.0016L6.86054 27.7651L8.29276 28.1184L9.38848 27.7314L9.42213 27.8324L8.29697 28.2277Z" fill="white"/>
<path d="M4.91077 34.5281L3.43018 33.1275L3.42597 33.1127L3.00324 31.4218L2.37862 29.6594L1.60047 28.2104L0.0715058 29.6195L0 29.5417L1.62991 28.04L2.47536 29.6174L3.10419 31.3924L3.52482 33.0707L4.98227 34.4524L4.91077 34.5281Z" fill="white"/>
<path d="M6.7596 34.1834L6.25065 33.0098L5.01191 32.2212L3.08125 31.4262L1.63431 31.0666L1.6238 31.0561L0.059082 29.3967L0.136897 29.3252L1.6911 30.9719L3.1149 31.3274L5.06028 32.1265L6.33477 32.9383L6.85634 34.1413L6.7596 34.1834Z" fill="white"/>
<path d="M4.73215 34.5598L4.66064 34.484L6.30738 32.9298L6.71118 31.4577L7.38418 29.5165L8.24225 28.1579L8.19387 26.1242L8.29903 26.1221L8.3474 28.1873L8.33899 28.1999L7.47882 29.5607L6.81003 31.4892L6.40202 32.9866L6.39151 32.9971L4.73215 34.5598Z" fill="white"/>
<path d="M8.28438 33.1969L8.17922 33.1885L8.33485 31.1254L7.39056 29.5606L6.80589 27.7814L6.339 26.1978L4.94043 24.7992L5.01614 24.7256L6.43785 26.1557L6.90474 27.7499L7.4852 29.5165L8.44211 31.1001L8.28438 33.1969Z" fill="white"/>
<path d="M0.286091 31.5378L0.252441 31.439L1.62577 30.9763L2.39762 29.5398L3.08323 27.748L3.52488 26.1728L4.99075 24.8184L5.06226 24.8962L3.61742 26.2295L3.18418 27.7795L2.49226 29.584L1.69938 31.0625L0.286091 31.5378Z" fill="white"/>
<path d="M1.64064 25.984L1.59326 28.1729L1.69839 28.1751L1.74577 25.9863L1.64064 25.984Z" fill="white"/>
<path d="M1.57011 26.0951L1.56641 26.2002L3.55261 26.2702L3.55632 26.1652L1.57011 26.0951Z" fill="white"/>
<path d="M1.59501 31.0129L1.46631 33.1416L1.57127 33.1479L1.69998 31.0193L1.59501 31.0129Z" fill="white"/>
<path d="M1.40041 32.8757L1.39111 32.9805L3.50276 33.1678L3.51205 33.0631L1.40041 32.8757Z" fill="white"/>
<path d="M8.49806 32.9362L6.34033 32.9531L6.34116 33.0583L8.49889 33.0413L8.49806 32.9362Z" fill="white"/>
<path d="M9.67086 29.6724L8.37891 31.0957L8.45677 31.1664L9.74873 29.743L9.67086 29.6724Z" fill="white"/>
<path d="M8.31808 28.1241L8.2373 28.1914L9.64575 29.8813L9.72653 29.8139L8.31808 28.1241Z" fill="white"/>
<path d="M6.3563 26.1176L6.35107 26.2227L8.4957 26.3294L8.50092 26.2244L6.3563 26.1176Z" fill="white"/>
</g>
<path d="M42.4258 22.6732C42.2786 23.3504 41.4647 23.7605 40.6045 23.5943C39.7465 23.4261 39.1681 22.7426 39.3174 22.0654C39.4647 21.3903 40.2786 20.9781 41.1387 21.1442C41.9968 21.3125 42.5752 21.996 42.4258 22.6732Z" fill="#D2602C"/>
<path d="M41.7508 29.7692C41.6541 29.5274 41.4669 29.3423 41.2271 29.2224C41.0757 27.8596 41.7172 25.3632 41.7172 25.3632C41.8202 24.7365 41.3428 24.5767 41.3428 24.5767C40.4406 24.2591 39.6309 24.7701 39.6309 24.7701C38.9999 25.1466 38.9032 25.828 38.9032 25.828C38.4889 27.9164 38.4531 30.0847 38.4531 30.0847C38.4531 30.7745 38.777 31.1573 39.0841 31.3655C39.1724 31.4286 39.2712 31.4833 39.3785 31.5232C39.6372 31.6158 40.2408 31.6599 40.6929 31.4896C41.5279 31.1741 42.0011 30.4023 41.7529 29.7713L41.7508 29.7692Z" fill="#D2602C"/>
<path d="M55.1731 23.8812C54.8892 23.8812 54.6116 23.9128 54.3445 23.9695C54.0564 23.8307 53.7451 23.7992 53.4591 23.9085C53.1331 24.0347 52.906 24.3208 52.8029 24.6825C51.8776 25.3891 51.2803 26.5017 51.2803 27.753C51.2803 29.8919 53.0216 31.6249 55.171 31.6249C57.3204 31.6249 59.0618 29.8919 59.0618 27.753C59.0618 25.6142 57.3183 23.8812 55.171 23.8812H55.1731ZM55.1731 29.1011C54.4181 29.1011 53.8061 28.5102 53.8061 27.7804C53.8061 27.4859 53.9071 27.2146 54.0774 26.9938C54.2604 27.0212 54.4434 27.0632 54.6179 26.998C54.8556 26.9076 55.0427 26.7856 55.1689 26.5753H55.1731C55.9282 26.5753 56.5402 27.1074 56.5402 27.8372C56.5402 28.5669 55.9282 29.099 55.1731 29.099V29.1011Z" fill="#D2602C"/>
<path d="M48.2771 16.6986C48.2771 16.6986 49.6105 16.8164 49.6 18.1603C49.6 18.1603 47.6546 26.5012 48.479 30.209C48.479 30.209 48.7188 31.229 47.8544 31.5424C47.8544 31.5424 46.4495 31.9861 46.0794 30.7979C46.0794 30.7979 45.1687 28.5959 46.7335 18.0951C46.7335 18.0951 46.8807 16.583 48.2792 16.6965L48.2771 16.6986Z" fill="#D2602C"/>
<path d="M65.8676 26.1563C67.0748 26.1563 67.1589 27.679 67.1589 27.679L67.121 30.6949C67.1421 31.8053 68.6058 31.6097 68.6058 31.6097C69.9182 31.3321 69.9834 30.2616 69.9834 30.2616L70.0023 27.6853C70.0023 27.6853 69.5922 23.8408 65.8697 23.8408H65.7835C62.0609 23.8408 61.6529 27.6853 61.6529 27.6853L61.5898 30.27C61.5898 30.27 61.655 31.3321 62.9674 31.6097C62.9674 31.6097 64.4311 31.799 64.4522 30.6886L64.4921 27.6769C64.4921 27.6769 64.5784 26.1521 65.7835 26.1521H65.8697L65.8676 26.1563Z" fill="#D2602C"/>
<path d="M38.9265 17.9874C38.0453 16.9232 36.9411 17.4553 36.9411 17.4553C32.7244 19.0305 25.8241 18.1703 25.8241 18.1703C24.5559 18.0063 24.3919 19.1104 24.3919 19.1104C24.1668 20.1746 25.4161 20.4396 25.4161 20.4396C28.1396 20.7866 30.6781 20.7256 30.6781 20.7256C28.9178 28.4167 30.228 30.585 30.228 30.585C30.5561 31.4031 31.3742 31.5672 31.3742 31.5672C31.3973 31.5714 31.4226 31.5735 31.4457 31.5756C31.7822 31.6555 32.1734 31.6345 32.5562 31.4852C33.3785 31.1655 33.8475 30.3915 33.5993 29.7564C33.4689 29.4241 33.1682 29.197 32.7938 29.0981C32.287 23.8929 33.6456 20.5826 33.6456 20.5826C37.1472 20.2966 38.5185 19.4785 38.5185 19.4785C39.4796 18.9064 38.9286 17.9853 38.9286 17.9853L38.9265 17.9874Z" fill="#D2602C"/>
</g>
<defs>
<clipPath id="clip0_1962_20439">
<rect width="70" height="20.56" fill="white" transform="translate(0 14)"/>
</clipPath>
</defs>
</svg>
