<svg width="70" height="48" viewBox="0 0 70 48" fill="none" xmlns="http://www.w3.org/2000/svg">
<g clip-path="url(#clip0_1962_20636)">
<path d="M35.4208 3C35.4208 3 35.4023 3 35.3884 3L25.6197 5.91859L23.9869 6.40426C23.9314 6.42276 23.8991 6.47364 23.9083 6.52914L25.5734 18.222L25.6104 18.4209L25.6659 18.629L25.7353 18.8418L25.8186 19.0546L25.9157 19.2673L26.0267 19.4755L26.147 19.6744L26.2765 19.864L26.4106 20.0352L26.554 20.1924L26.6974 20.3312L26.8454 20.4468L34.246 25.7058L34.4402 25.8307C34.4402 25.8307 34.4495 25.8307 34.4495 25.8353L34.6345 25.9278C34.6345 25.9278 34.6437 25.9278 34.6484 25.9325L34.8288 25.9972C34.8288 25.9972 34.838 25.9972 34.8426 25.9972L35.0138 26.0296C35.0138 26.0296 35.0276 26.0296 35.0323 26.0296H35.1942C35.2034 26.0296 35.208 26.0296 35.2173 26.0296L35.3607 26.0019C35.3607 26.0019 35.3792 25.9972 35.3884 25.9926L35.5179 25.9325C35.5179 25.9325 35.5318 25.9278 35.5364 25.9232L36.4337 25.2479L37.0905 25.692C37.0905 25.692 37.1322 25.7105 37.1507 25.7105C37.1738 25.7105 37.2016 25.7012 37.2201 25.6873L44.3662 20.1785L44.505 20.0629L44.6437 19.9195L44.7779 19.7576L44.9074 19.5819L45.0323 19.3922L45.1479 19.1933L45.2543 18.9852L45.3468 18.7724L45.4254 18.5597L45.4902 18.3469L45.5411 18.1388L45.5734 17.9399L46.1516 13.3006L46.1701 13.0879V12.8844V12.8751L46.1516 12.6994C46.1516 12.6994 46.1516 12.6901 46.1516 12.6855L46.1146 12.5282C46.1146 12.5282 46.1146 12.519 46.11 12.5097L46.0591 12.3756C46.0591 12.3756 46.0545 12.3617 46.0498 12.3571L45.9805 12.2461C45.9805 12.2461 45.9712 12.2322 45.962 12.2276L45.8741 12.1443C45.8741 12.1443 45.8556 12.1304 45.8463 12.1258L45.7446 12.0703C45.7446 12.0703 45.7353 12.0703 45.7307 12.0657L44.9583 11.7743L45.0554 10.8816L46.5078 10.0722C46.5355 10.0537 46.5586 10.0213 46.5633 9.9889L47.0212 6.31637C47.0258 6.26087 46.9934 6.20999 46.9379 6.19611L43.8112 5.32192L43.566 5.26179L43.307 5.20629L43.0387 5.16004L42.7612 5.12303L42.4791 5.09991L42.1969 5.08141H41.9148H41.6326L41.3597 5.09991L41.0961 5.12303L40.8417 5.16004L40.6012 5.20629L39.1812 5.50694L39.2275 4.12396C39.2275 4.07308 39.1951 4.02683 39.1442 4.01295L35.4485 3C35.4485 3 35.43 3 35.4162 3H35.4208Z" fill="#241A16"/>
<path d="M28.7924 12.4032L29.2735 17.542L27.8442 18.2867L27.0811 11.5244L28.7924 12.4032Z" fill="url(#paint0_linear_1962_20636)"/>
<path d="M28.8111 12.4493L27.0905 11.5658L27.8583 18.3512L32.5715 21.4225L32.4837 19.6741L30.2404 18.2865L30.2357 18.1893L29.9582 14.7712L34.1072 17.0561L34.3199 17.1903L34.5327 17.3521L34.7362 17.5464L34.9351 17.7684L35.1155 18.0089L35.282 18.268L35.43 18.5409L35.5549 18.8184L35.6566 19.1005L35.726 19.378L35.7723 19.6463L35.7908 19.8961L35.8232 25.1829L35.8093 25.3818L35.7723 25.5621L35.7075 25.7148L35.6196 25.835L35.5133 25.9322L35.3838 25.9923L35.2404 26.02H35.0785L34.9073 25.9877L34.727 25.9229L34.5419 25.8304L34.3523 25.7055L26.9286 20.4326L26.7899 20.3216L26.6511 20.1875L26.5077 20.0395L26.3782 19.8683L26.2487 19.6879L26.1284 19.4937L26.022 19.2902L25.9249 19.082L25.8417 18.8785L25.7723 18.6704L25.7214 18.4669L25.6844 18.2726L24.0146 6.53809L31.9795 9.99322L32.1969 14.193L28.8111 12.4493Z" fill="url(#paint1_linear_1962_20636)"/>
<path d="M29.9349 14.7204L30.2125 18.1247L29.2735 17.5419L28.7925 12.4031L32.169 14.1422L33.7601 13.3698L33.6352 9.27637L37.3725 10.7981L37.2569 18.8693L37.243 18.6242L37.206 18.3605L37.1366 18.0923L37.0441 17.8194L36.9238 17.5511L36.7805 17.2875L36.6186 17.0423L36.4382 16.8064L36.2485 16.5937L36.045 16.4087L35.8323 16.256L35.6241 16.1265L31.4844 13.985L29.9349 14.7204Z" fill="url(#paint2_linear_1962_20636)"/>
<path style="mix-blend-mode:screen" opacity="0.51" d="M29.9349 14.7204L30.2125 18.1247L29.2735 17.5419L28.7925 12.4031L32.169 14.1422L33.7601 13.3698L33.6352 9.27637L37.3725 10.7981L37.2569 18.8693L37.243 18.6242L37.206 18.3605L37.1366 18.0923L37.0441 17.8194L36.9238 17.5511L36.7805 17.2875L36.6186 17.0423L36.4382 16.8064L36.2485 16.5937L36.045 16.4087L35.8323 16.256L35.6241 16.1265L31.4844 13.985L29.9349 14.7204Z" fill="url(#paint3_linear_1962_20636)"/>
<path style="mix-blend-mode:screen" opacity="0.7" d="M29.9349 14.7204L30.2125 18.1247L29.2735 17.5419L28.7925 12.4031L32.169 14.1422L33.7601 13.3698L33.6352 9.27637L37.3725 10.7981L37.2569 18.8693L37.243 18.6242L37.206 18.3605L37.1366 18.0923L37.0441 17.8194L36.9238 17.5511L36.7805 17.2875L36.6186 17.0423L36.4382 16.8064L36.2485 16.5937L36.045 16.4087L35.8323 16.256L35.6241 16.1265L31.4844 13.985L29.9349 14.7204Z" fill="url(#paint4_linear_1962_20636)"/>
<path d="M33.6353 9.27637L33.7602 13.3698L32.1691 14.1422L31.9517 9.96092L33.6353 9.27637Z" fill="url(#paint5_linear_1962_20636)"/>
<path style="mix-blend-mode:screen" d="M37.3727 10.7977L33.6354 9.27594L38.3302 7.3703L32.3403 8.75327L29.394 7.55068L32.9879 5.55716L28.2978 7.10665L25.6475 6.02895L35.4208 3.11035L39.1165 4.1418L35.5272 6.41747L39.0656 5.66354L40.6243 5.33514L40.8602 5.29352L41.11 5.25651L41.3736 5.23339L41.6419 5.21488L41.9194 5.21026L42.197 5.21488L42.4791 5.23339L42.7566 5.25651L43.0295 5.28889L43.2978 5.33052L43.5476 5.38602L43.7881 5.44615L46.9148 6.32034L37.3727 10.7977Z" fill="url(#paint6_linear_1962_20636)"/>
<path style="mix-blend-mode:screen" d="M37.3727 10.7977L33.6354 9.27594L38.3302 7.3703L32.3403 8.75327L29.394 7.55068L32.9879 5.55716L28.2978 7.10665L25.6475 6.02895L35.4208 3.11035L39.1165 4.1418L35.5272 6.41747L39.0656 5.66354L40.6243 5.33514L40.8602 5.29352L41.11 5.25651L41.3736 5.23339L41.6419 5.21488L41.9194 5.21026L42.197 5.21488L42.4791 5.23339L42.7566 5.25651L43.0295 5.28889L43.2978 5.33052L43.5476 5.38602L43.7881 5.44615L46.9148 6.32034L37.3727 10.7977Z" fill="url(#paint7_linear_1962_20636)"/>
<path style="mix-blend-mode:screen" opacity="0.7" d="M37.3727 10.7977L33.6354 9.27594L38.3302 7.3703L32.3403 8.75327L29.394 7.55068L32.9879 5.55716L28.2978 7.10665L25.6475 6.02895L35.4208 3.11035L39.1165 4.1418L35.5272 6.41747L39.0656 5.66354L40.6243 5.33514L40.8602 5.29352L41.11 5.25651L41.3736 5.23339L41.6419 5.21488L41.9194 5.21026L42.197 5.21488L42.4791 5.23339L42.7566 5.25651L43.0295 5.28889L43.2978 5.33052L43.5476 5.38602L43.7881 5.44615L46.9148 6.32034L37.3727 10.7977Z" fill="url(#paint8_linear_1962_20636)"/>
<path d="M37.3681 10.8074L33.6308 9.28565V9.26715L38.196 7.41239L32.345 8.76299H32.3403L29.3894 7.5604V7.5419L32.8815 5.60388L28.307 7.11636H28.2978L25.6475 6.03866V6.01553L35.4162 3.10156H35.4208L39.1165 4.13301V4.15152L35.5827 6.39481L40.6197 5.32635L40.8556 5.28473L41.1054 5.24772L41.3644 5.2246L41.6327 5.21072H41.9102H42.1923L42.4745 5.2246L42.752 5.24772L43.0249 5.28473L43.2885 5.32635L43.5429 5.37723L43.7834 5.43736L46.9102 6.30693V6.33005L37.3681 10.8074ZM33.6632 9.2764L37.3727 10.7843L46.8871 6.3208L43.7881 5.45586L43.5476 5.39573L43.2932 5.34486L43.0295 5.30323L42.7566 5.27085L42.4791 5.24772L42.2016 5.23385H41.9194H41.6419L41.3736 5.24772L41.11 5.27085L40.8602 5.30785L40.6243 5.35411L35.5272 6.43644L35.518 6.41794L39.0841 4.15614L35.4162 3.13394L25.6798 6.04328L28.2978 7.10711L32.9833 5.55762L32.9925 5.57612L29.4171 7.5604L32.3403 8.74911L38.3255 7.36613L38.3348 7.38926L33.6632 9.28565V9.2764Z" fill="white"/>
<path opacity="0.58" d="M37.3681 10.8074L33.6308 9.28565V9.26715L38.196 7.41239L32.345 8.76299H32.3403L29.3894 7.5604V7.5419L32.8815 5.60388L28.307 7.11636H28.2978L25.6475 6.03866V6.01553L35.4162 3.10156H35.4208L39.1165 4.13301V4.15152L35.5827 6.39481L40.6197 5.32635L40.8556 5.28473L41.1054 5.24772L41.3644 5.2246L41.6327 5.21072H41.9102H42.1923L42.4745 5.2246L42.752 5.24772L43.0249 5.28473L43.2885 5.32635L43.5429 5.37723L43.7834 5.43736L46.9102 6.30693V6.33005L37.3681 10.8074ZM33.6632 9.2764L37.3727 10.7843L46.8871 6.3208L43.7881 5.45586L43.5476 5.39573L43.2932 5.34486L43.0295 5.30323L42.7566 5.27085L42.4791 5.24772L42.2016 5.23385H41.9194H41.6419L41.3736 5.24772L41.11 5.27085L40.8602 5.30785L40.6243 5.35411L35.5272 6.43644L35.518 6.41794L39.0841 4.15614L35.4162 3.13394L25.6798 6.04328L28.2978 7.10711L32.9833 5.55762L32.9925 5.57612L29.4171 7.5604L32.3403 8.74911L38.3255 7.36613L38.3348 7.38926L33.6632 9.28565V9.2764Z" fill="white"/>
<path d="M33.7187 9.30872C35.259 8.6843 36.7992 8.05525 38.3394 7.43083C38.3394 7.43083 38.3394 7.3707 38.3394 7.36608C38.2978 7.23194 37.6919 7.44933 37.5716 7.47709C36.938 7.6251 36.3089 7.76848 35.6752 7.91649C34.5837 8.16626 33.4921 8.42066 32.4005 8.67043C32.16 8.72593 31.716 8.42991 31.4986 8.34203C30.8926 8.09688 30.2913 7.85174 29.6854 7.6066C29.6207 7.57884 29.5559 7.55572 29.4912 7.52796C29.4495 7.50946 29.4403 7.59734 29.5004 7.56497C29.6669 7.47246 29.8381 7.37995 30.0046 7.28282C30.6012 6.9498 31.2025 6.61677 31.7992 6.28375C32.2016 6.06173 32.5994 5.83971 33.0018 5.6177C33.0018 5.6177 33.0018 5.55757 33.0018 5.55294C32.9463 5.42343 32.2247 5.74258 32.0999 5.78883C31.4292 6.01085 30.7631 6.23287 30.0925 6.45488C29.5559 6.63065 29.0194 6.80641 28.4875 6.9868C28.1914 7.08393 27.974 6.91742 27.6826 6.79716C27.086 6.55202 26.4893 6.3115 25.8926 6.07098C25.8418 6.05248 25.7909 6.02935 25.7446 6.01085C25.8186 6.04323 25.6937 6.08948 25.777 6.06173C25.8741 6.03398 25.9759 6.0016 26.0777 5.97385C27.1276 5.65932 28.1822 5.3448 29.2321 5.03028C31.295 4.41511 33.358 3.79993 35.4209 3.18014C35.481 3.16164 35.6475 3.24489 35.7076 3.25877C35.9944 3.3374 36.2812 3.42066 36.5679 3.49929C37.2247 3.6843 37.8815 3.86469 38.5383 4.0497C38.6956 4.09596 38.8575 4.13758 39.0194 4.18384C39.0564 4.19309 39.0656 4.10983 39.0101 4.14684C38.9454 4.18846 38.8806 4.23009 38.8159 4.27172C38.2932 4.60474 37.7659 4.93777 37.2432 5.27079C36.6651 5.6362 36.0915 6.0016 35.518 6.367C35.518 6.367 35.518 6.42713 35.518 6.43176C35.5735 6.57514 36.5217 6.27912 36.6697 6.25137C37.3357 6.10798 37.9972 5.96922 38.6632 5.82584C39.4773 5.6547 40.2913 5.44656 41.1193 5.3263C43.0388 5.05803 44.9722 5.84896 46.7807 6.35313C46.8362 6.367 46.8593 6.28837 46.7576 6.33462C46.6466 6.3855 46.5356 6.44101 46.4246 6.49189C46.0037 6.68615 45.5874 6.88504 45.1665 7.07931C43.9037 7.67135 42.641 8.26339 41.3783 8.85544C40.2728 9.37348 39.1674 9.89614 38.0573 10.4142C37.8353 10.5206 37.6086 10.6269 37.3866 10.7287C37.2525 10.7935 36.6512 10.4419 36.5217 10.3911C35.5874 10.0118 34.653 9.6325 33.7234 9.25322C33.728 9.25322 33.7141 9.31335 33.7234 9.31797C34.7456 9.73425 35.7678 10.1505 36.79 10.5668C36.938 10.6269 37.271 10.8536 37.4329 10.7796C37.7058 10.6501 37.9787 10.5252 38.2469 10.3957C40.6382 9.27635 43.0249 8.15239 45.4162 7.03305C45.888 6.81104 46.3598 6.58902 46.8362 6.367V6.30225C45.0693 5.80734 43.2284 5.06728 41.3598 5.23842C40.5226 5.31705 39.6993 5.53906 38.876 5.71483C37.7705 5.95072 36.6651 6.18661 35.555 6.42251C35.4995 6.43638 35.5319 6.42251 35.592 6.3855C35.703 6.31612 35.814 6.24212 35.925 6.17274C36.3413 5.90909 36.7576 5.64545 37.1739 5.3818C37.7983 4.98402 38.4227 4.59087 39.0518 4.19309V4.12833C37.9925 3.83231 36.9333 3.53629 35.8741 3.24027C35.6799 3.18476 35.5087 3.09226 35.3145 3.15239C34.9814 3.25414 34.6484 3.35128 34.3108 3.45303C31.7946 4.20696 29.2784 4.95627 26.7576 5.7102C26.4199 5.80734 26.0869 5.90909 25.7493 6.01085V6.07561C26.2164 6.26524 26.6836 6.45488 27.1507 6.64452C27.4375 6.76016 27.7243 6.87579 28.011 6.99142C28.0804 7.01918 28.2516 7.13018 28.3302 7.10706C29.4172 6.74628 30.5087 6.3855 31.5957 6.02473C32.0444 5.87672 32.4884 5.7287 32.937 5.58069C33.0203 5.55294 33.0249 5.55294 32.937 5.59919C32.7428 5.70558 32.5485 5.81196 32.3542 5.92297C31.3922 6.45488 30.4347 6.99142 29.4727 7.52334V7.58809C30.4209 7.97662 31.3737 8.36053 32.3219 8.74906C32.4791 8.81381 32.8815 8.63805 33.0388 8.60104C33.6632 8.45766 34.2876 8.31427 34.9074 8.17089C36.0222 7.91187 37.1322 7.65747 38.2469 7.39845C38.3071 7.38458 38.3765 7.36145 38.3117 7.3892C38.1591 7.44933 38.0064 7.51409 37.8492 7.57884C37.2432 7.82399 36.6373 8.06913 36.0268 8.3189C35.259 8.63342 34.4865 8.94795 33.7187 9.25784C33.7095 9.25784 33.7234 9.31797 33.7187 9.3226V9.30872Z" fill="white"/>
<path style="mix-blend-mode:screen" d="M46.4612 9.99381L44.958 10.8264L40.5362 13.2871L40.5177 13.6478L40.439 15.1094L45.1846 12.2834L45.328 12.2094L45.4622 12.1724L45.5824 12.1631L45.6981 12.1862L45.7998 12.2417L45.8831 12.3204L45.9571 12.4314L46.008 12.5655L46.045 12.7228L46.0635 12.8985V13.0928L46.045 13.2963L45.4668 17.9309L45.4344 18.1252L45.3882 18.3241L45.3234 18.5322L45.2494 18.7403L45.1569 18.9439L45.0598 19.1474L44.9488 19.3416L44.8285 19.5267L44.699 19.6978L44.5741 19.8504L44.44 19.9846L44.3058 20.0956L37.1597 25.609L37.1782 24.0595L37.2059 22.436L43.39 18.065L43.5473 16.4277L42.1319 17.3759L38.6722 19.6978L38.4871 19.8042L38.3114 19.8828L38.1356 19.9291L37.9645 19.9383L37.8118 19.9152L37.6731 19.8597L37.5482 19.7718L37.4418 19.6469L37.3586 19.4943L37.2984 19.3093L37.2661 19.1057L37.2568 18.8699L37.3724 10.7986L46.9145 6.32129L46.4612 9.99381Z" fill="url(#paint9_linear_1962_20636)"/>
<g style="mix-blend-mode:screen" opacity="0.49">
<path d="M37.1645 25.618L37.146 25.6087L37.1923 22.4357V22.4265L43.3763 18.0602L43.5336 16.4505L38.677 19.7068L38.492 19.8178L38.3116 19.8964L38.1358 19.9427L37.9647 19.9566L37.8074 19.9334L37.664 19.8779L37.5345 19.7854L37.4281 19.6605L37.3449 19.5033L37.2848 19.3183L37.2478 19.1101L37.2385 18.8788L37.3541 10.803V10.7937L46.9055 6.31641L46.924 6.32566L46.4661 9.99818V10.0074L40.5456 13.3007L40.4485 15.0953L45.1756 12.2785L45.3144 12.2091L45.4531 12.1675L45.578 12.1582L45.6936 12.1813L45.7954 12.2368L45.8833 12.3201L45.9573 12.4311L46.0128 12.5699L46.0498 12.7271L46.0683 12.9029V13.0972L46.0498 13.3053L45.4716 17.9399L45.4439 18.1342L45.393 18.3377L45.3282 18.5458L45.2542 18.754L45.1664 18.9621L45.0646 19.1656L44.9536 19.3599L44.8333 19.5449L44.7084 19.716L44.5789 19.8687L44.4448 20.0028L44.3107 20.1184L37.1645 25.6272V25.618ZM37.2154 22.4404L37.1691 25.5856L44.2968 20.0907L44.4309 19.9797L44.5604 19.8455L44.6899 19.6929L44.8148 19.5218L44.9351 19.3368L45.0461 19.1425L45.1478 18.9436L45.2404 18.7355L45.319 18.5273L45.3791 18.3238L45.4254 18.1249L45.4577 17.9353L46.0359 13.3053L46.0544 13.0972V12.9075L46.0359 12.7318L45.9989 12.5791L45.9434 12.445L45.874 12.3386L45.7908 12.26L45.6936 12.2091L45.5826 12.186L45.4624 12.1952L45.3282 12.2322L45.1895 12.3016L40.4439 15.1277L40.4254 15.1184L40.5271 13.2961V13.2868L46.4476 9.99356L46.9009 6.34878L37.3819 10.8122L37.2663 18.8788L37.2755 19.1101L37.3125 19.3183L37.3726 19.4986L37.4559 19.6513L37.5577 19.7715L37.6779 19.8594L37.8167 19.9149L37.9693 19.9381L38.1312 19.9242L38.307 19.8779L38.4873 19.7993L38.6677 19.6929L43.5429 16.4228L43.5614 16.432L43.4041 18.0694V18.0787L37.22 22.445L37.2154 22.4404Z" fill="#231F20"/>
</g>
<path d="M42.1323 17.3759L43.5477 16.4277L43.3904 18.0651L42.123 17.4546L42.1323 17.3759Z" fill="url(#paint10_linear_1962_20636)"/>
<path d="M44.9584 10.8262L44.8474 11.8669L44.3664 11.6865L44.2507 11.6634L44.1212 11.668L43.9825 11.705L43.8437 11.7697L40.5181 13.6476L40.5366 13.2869L44.9584 10.8262Z" fill="url(#paint11_linear_1962_20636)"/>
<path d="M37.2292 20.7427L42.1228 17.4541L43.3901 18.0646L37.2061 22.4356L37.2292 20.7427Z" fill="url(#paint12_linear_1962_20636)"/>
<path d="M37.2524 19.0958L37.2571 18.8691L37.2663 19.105L37.2524 19.0958Z" fill="#88888C"/>
<path d="M38.6726 19.6979L38.4876 19.8043L38.3118 19.8829L38.1361 19.9292L37.9649 19.9384L37.8123 19.9153L37.6735 19.8598L37.5486 19.7719L37.4423 19.647L37.359 19.4944L37.2989 19.3094L37.2665 19.1059L37.2526 19.0966L37.248 19.2816V19.4296V19.536V19.6008L37.2434 19.6193L37.2295 20.7432L42.1231 17.4546L42.1324 17.376L38.6726 19.6979Z" fill="url(#paint13_linear_1962_20636)"/>
<path d="M39.1166 4.14258L39.0657 5.66432L35.5273 6.41825L39.1166 4.14258Z" fill="url(#paint14_linear_1962_20636)"/>
<path d="M38.3302 7.37109L33.6354 9.27674L32.3403 8.75407L38.3302 7.37109Z" fill="url(#paint15_linear_1962_20636)"/>
<path d="M32.3403 8.75363L33.6354 9.27629L31.9517 9.96084L24.0146 6.51958L25.6474 6.0293L28.2977 7.107L29.3939 7.55104L32.3403 8.75363Z" fill="url(#paint16_linear_1962_20636)"/>
<path d="M29.3941 7.55114L28.2979 7.10711L32.988 5.55762L29.3941 7.55114Z" fill="url(#paint17_linear_1962_20636)"/>
<path d="M29.2735 17.542L30.2124 18.1248L30.2217 18.2219L32.4511 19.6049L32.5436 21.3487L27.8442 18.2867L29.2735 17.542Z" fill="url(#paint18_linear_1962_20636)"/>
<path d="M31.4845 13.9854L35.6242 16.1269L34.0701 16.9965L29.9351 14.7208L31.4845 13.9854Z" fill="url(#paint19_linear_1962_20636)"/>
<path d="M37.1783 24.0596L37.1598 25.6091L36.4336 25.1188L36.8545 24.8043L36.9655 24.7071L37.058 24.5822L37.1228 24.4342L37.1644 24.2585L37.1783 24.0596Z" fill="#414042"/>
<path d="M36.8547 24.8042L36.4337 25.1187L35.4717 25.8402L35.5827 25.7477L36.9657 24.707L36.8547 24.8042Z" fill="#193E3E"/>
<path d="M40.5181 13.6476L43.8391 11.7744L40.5181 13.6476ZM43.8391 11.7744L43.9825 11.7096L43.8391 11.7744ZM43.9825 11.7096L44.1166 11.6726L43.9825 11.7096ZM44.1166 11.6726H44.2461H44.1166ZM44.2461 11.668L44.3617 11.6911L44.2461 11.668ZM42.1184 17.4589V17.3803V17.4589Z" fill="#231F20"/>
<path d="M37.2433 18.6246L37.2063 18.361L37.1369 18.0927L37.0444 17.8198L36.9242 17.5516L36.7808 17.2879L36.6189 17.0428L36.4385 16.8069L36.2489 16.5941L36.0453 16.4091L35.8326 16.2565L35.6244 16.127L34.0703 16.9965L34.2831 17.1307L34.4958 17.2925L34.6994 17.4868L34.8936 17.7042L35.0786 17.9493L35.2451 18.2037L35.3932 18.4766L35.5134 18.7542L35.6152 19.0317L35.6846 19.3092L35.7308 19.5775L35.7493 19.8272L35.7817 25.0955L35.7678 25.2944L35.7308 25.4702L35.6661 25.6228L35.5828 25.7477L36.9658 24.707L37.0583 24.5821L37.123 24.4341L37.1647 24.2583L37.1785 24.0594L37.2063 22.4359L37.2294 20.7431L37.2433 19.6191L37.2479 19.6006V19.5358V19.4295V19.2814L37.2526 19.0964L37.2572 18.8698L37.2433 18.6246Z" fill="url(#paint20_linear_1962_20636)"/>
<path d="M44.8474 11.8666L44.3664 11.6862L44.2507 11.6631L44.1212 11.6677L43.9825 11.7047L43.8437 11.7695L40.5181 13.6474L40.4395 15.109L45.1851 12.2829L45.3284 12.2089L45.4626 12.1719L45.5828 12.1626L45.6985 12.1858L44.8474 11.8666Z" fill="url(#paint21_linear_1962_20636)"/>
<path d="M28.7743 12.3802L27.0583 11.4968L27.8261 18.2821L32.5393 21.3534L32.4468 19.605L30.2081 18.2174L30.1989 18.1203L29.9214 14.7021L34.0749 16.987L34.2831 17.1212L34.4958 17.2831L34.704 17.4773L34.8982 17.6994L35.0833 17.9399L35.2498 18.1989L35.3978 18.4718L35.5227 18.7493L35.6198 19.0315L35.6938 19.309L35.7354 19.5772L35.7539 19.827L35.7863 25.1138L35.7771 25.3173L35.7354 25.4931L35.6753 25.6457L35.5874 25.766L35.4764 25.8631L35.3515 25.9232L35.2035 25.9556L35.0463 25.951L34.8705 25.9186L34.6947 25.8538L34.5097 25.7613L34.3201 25.6364L26.8918 20.3636L26.753 20.2525L26.6142 20.1184L26.4755 19.9704L26.3413 19.7993L26.2165 19.6189L26.0962 19.4246L25.9898 19.2257L25.8927 19.0176L25.8094 18.8094L25.7401 18.6013L25.6892 18.3978L25.6522 18.2035L23.9824 6.47363L31.9473 9.92877L32.1647 14.124L28.7743 12.3802Z" fill="url(#paint22_linear_1962_20636)"/>
<path d="M0.689177 40.1784H0V31.6123H0.689177V40.1784Z" fill="#231F20"/>
<path d="M5.82795 37.1072V39.1331C5.82795 39.2672 5.82795 39.4152 5.82795 39.5771C5.82795 39.739 5.84183 39.887 5.86033 40.0119H5.00464C5.02314 39.8731 5.03239 39.7251 5.03701 39.5771C5.03701 39.4245 5.03701 39.2765 5.03701 39.1331V37.1072H3.00186C2.76597 37.1072 2.5347 37.1072 2.30806 37.1072C2.08142 37.1072 1.85015 37.121 1.61426 37.1395V36.4226C1.85015 36.4411 2.08142 36.4504 2.30806 36.455C2.5347 36.455 2.76597 36.4596 3.00186 36.4596H7.7891C8.02499 36.4596 8.25626 36.4596 8.4829 36.455C8.70954 36.455 8.94081 36.4411 9.1767 36.4226V37.1395C8.94081 37.121 8.70954 37.1118 8.4829 37.1072C8.25626 37.1072 8.02499 37.1072 7.7891 37.1072H5.8187H5.82795ZM7.39132 32.8657H5.82795C5.86495 33.1941 5.98521 33.4855 6.1841 33.7399C6.38762 33.9989 6.64201 34.2163 6.94266 34.4013C7.21555 34.5817 7.5162 34.7297 7.84923 34.8454C8.18225 34.961 8.51065 35.0489 8.8298 35.109C8.72804 35.2108 8.63553 35.3125 8.54765 35.405C8.4644 35.4976 8.38577 35.5901 8.31176 35.6826C8.07587 35.6271 7.8261 35.5531 7.56245 35.4606C7.29881 35.368 7.03979 35.2478 6.7854 35.1044C6.50788 34.961 6.24423 34.7806 5.99446 34.5632C5.74469 34.3458 5.55043 34.1007 5.40242 33.8232C5.26828 34.0591 5.1064 34.2718 4.91213 34.4615C4.71787 34.6465 4.5051 34.813 4.26921 34.961C4.00094 35.1321 3.71879 35.2755 3.41814 35.3958C3.1175 35.5161 2.81222 35.6132 2.50695 35.6872C2.43294 35.6086 2.34506 35.5161 2.23868 35.4097C2.1323 35.3033 2.03516 35.2062 1.94266 35.1136C2.34506 35.0304 2.72434 34.9194 3.08512 34.7852C3.4459 34.6465 3.76042 34.4846 4.03331 34.2903C4.30158 34.1099 4.51898 33.9018 4.68549 33.6659C4.85663 33.43 4.95376 33.1664 4.97689 32.875H3.41352C3.25163 32.875 3.10362 32.875 2.97411 32.875C2.8446 32.875 2.70121 32.8889 2.54395 32.9074V32.1904C2.70121 32.2089 2.8446 32.2182 2.97411 32.2228C3.10362 32.2228 3.25163 32.2274 3.41352 32.2274H7.38207C7.53933 32.2274 7.68271 32.2274 7.81222 32.2228C7.94173 32.2228 8.08974 32.2089 8.25163 32.1904V32.9074C8.08974 32.8889 7.94173 32.8796 7.81222 32.875C7.68271 32.875 7.53933 32.875 7.38207 32.875L7.39132 32.8657Z" fill="#231F20"/>
<path d="M10.8371 40.1784H10.1479V31.6123H10.8371V40.1784Z" fill="#231F20"/>
<path d="M16.6511 33.3651V34.0266C16.6511 34.4105 16.6881 34.7712 16.7668 35.1181C16.8454 35.465 16.9656 35.7888 17.1322 36.0895C17.2987 36.404 17.5068 36.6908 17.7658 36.9498C18.0248 37.2088 18.3255 37.4308 18.677 37.6205C18.5336 37.7453 18.3856 37.8795 18.2469 38.0136C18.1035 38.1477 17.9786 38.2726 17.8722 38.379C17.715 38.2958 17.5438 38.1755 17.3634 38.0275C17.183 37.8748 17.0073 37.7083 16.8361 37.5279C16.665 37.3476 16.5124 37.1579 16.369 36.9637C16.2256 36.7694 16.1192 36.5798 16.0452 36.3994C15.9619 36.6214 15.8463 36.8434 15.7076 37.0562C15.5642 37.2736 15.4069 37.4724 15.2404 37.6621C15.0693 37.8471 14.8935 38.0229 14.7131 38.1801C14.5327 38.3374 14.3616 38.4669 14.2043 38.5733C14.1396 38.5178 14.0702 38.4623 14.0008 38.4068C13.9314 38.3513 13.862 38.2911 13.788 38.231C13.7094 38.1662 13.6261 38.0969 13.5383 38.0321C13.4504 37.9674 13.3579 37.8933 13.2607 37.824C13.6076 37.6251 13.9175 37.3984 14.1951 37.1394C14.4726 36.8804 14.7085 36.589 14.9027 36.2514C15.0785 35.9553 15.2126 35.6223 15.3051 35.2523C15.3977 34.8822 15.4439 34.4752 15.4439 34.0358V33.3744H14.5466C14.4125 33.3744 14.2922 33.3744 14.1812 33.3744C14.0702 33.3744 13.9545 33.3883 13.825 33.4068V32.3522C13.9545 32.3707 14.0702 32.3799 14.1812 32.3846C14.2922 32.3846 14.4125 32.3892 14.5466 32.3892H17.5623C17.6872 32.3892 17.8075 32.3892 17.9185 32.3846C18.0295 32.3846 18.1497 32.3707 18.2839 32.3522V33.4068C18.1497 33.3883 18.0295 33.379 17.9185 33.3744C17.8075 33.3744 17.6918 33.3744 17.5623 33.3744H16.6557L16.6511 33.3651ZM20.4393 38.7999C20.4393 39.0034 20.4393 39.2116 20.4393 39.4151C20.4393 39.6186 20.4532 39.8175 20.4717 40.021H19.2644C19.2829 39.8221 19.2968 39.6186 19.3014 39.4151C19.3061 39.2116 19.3107 39.0081 19.3107 38.7999V33.1107C19.3107 32.9118 19.3107 32.7083 19.3014 32.5048C19.2968 32.3013 19.2829 32.0978 19.2644 31.8896H20.4717C20.4532 32.0978 20.4439 32.3013 20.4393 32.5048C20.4393 32.7083 20.4393 32.9072 20.4393 33.1107V38.7999Z" fill="#231F20"/>
<path d="M24.69 38.2129V36.5247C23.8852 36.446 23.2746 36.2009 22.863 35.7892C22.4513 35.3776 22.2432 34.8827 22.2432 34.3091C22.2432 33.9946 22.3125 33.6986 22.4559 33.4211C22.5993 33.1482 22.8028 32.9077 23.0711 32.6995C23.3301 32.4914 23.6493 32.3341 24.0239 32.2138C24.3986 32.0982 24.8195 32.0381 25.2774 32.0381C25.7353 32.0381 26.1516 32.0982 26.5262 32.2231C26.8963 32.348 27.22 32.5145 27.4837 32.718C27.7427 32.9262 27.9462 33.1667 28.0896 33.4396C28.233 33.7171 28.3024 34.0039 28.3024 34.3091C28.3024 34.8873 28.0989 35.3822 27.6918 35.7939C27.2848 36.2102 26.6789 36.4553 25.8648 36.5339V38.2129H27.6918C27.9277 38.2129 28.159 38.2129 28.3856 38.2129C28.6123 38.2129 28.8435 38.199 29.0794 38.1805V39.2536C28.8435 39.2351 28.6123 39.2259 28.3856 39.2212C28.159 39.2212 27.9277 39.2212 27.6918 39.2212H22.8676C22.6317 39.2212 22.4004 39.2212 22.1738 39.2212C21.9471 39.2212 21.7159 39.2351 21.48 39.2536V38.1805C21.7159 38.199 21.9471 38.2083 22.1738 38.2129C22.4004 38.2129 22.6317 38.2129 22.8676 38.2129H24.6853H24.69ZM23.4365 34.3138C23.4365 34.5311 23.4874 34.7208 23.5891 34.878C23.6909 35.0353 23.8297 35.1694 23.9962 35.2805C24.1673 35.3822 24.3616 35.4608 24.5882 35.5117C24.8102 35.5626 25.0415 35.5904 25.2774 35.5904C25.5133 35.5904 25.7631 35.5626 25.9851 35.5117C26.2071 35.4608 26.406 35.3776 26.5771 35.2712C26.7483 35.1648 26.8824 35.0261 26.9795 34.8734C27.0813 34.7162 27.1275 34.5311 27.1275 34.3184C27.1275 34.1287 27.0767 33.9576 26.9795 33.8003C26.8778 33.6431 26.7483 33.5089 26.5864 33.3933C26.4152 33.2777 26.221 33.1898 25.9943 33.125C25.7723 33.0603 25.5318 33.0279 25.2774 33.0279C25.023 33.0279 24.7917 33.0603 24.5697 33.1297C24.3431 33.1944 24.1488 33.2869 23.9777 33.4026C23.8065 33.5182 23.677 33.6523 23.5799 33.8096C23.4828 33.9669 23.4319 34.138 23.4319 34.3184L23.4365 34.3138Z" fill="#231F20"/>
<path d="M34.0332 33.6013V33.0832C34.0332 32.9029 34.0332 32.7225 34.0239 32.5467C34.0193 32.3709 34.01 32.1952 33.9961 32.0102H35.1432C35.1247 32.1906 35.1155 32.3709 35.1155 32.5467V36.7465H34.0332V34.6836H33.2607V36.173H30.0646V33.1388C30.0646 32.9954 30.0646 32.852 30.0646 32.7086C30.0646 32.5652 30.0507 32.4079 30.0322 32.2414H33.3023C33.2838 32.4126 33.2746 32.5698 33.27 32.7086C33.27 32.852 33.27 32.9954 33.27 33.1388V33.6013H34.0424H34.0332ZM36.7667 39.2257C36.7667 39.3645 36.7667 39.5079 36.776 39.6512C36.7806 39.7946 36.7945 39.9334 36.813 40.0675H35.5873C35.6058 39.938 35.615 39.7992 35.6196 39.6512C35.6196 39.4986 35.6243 39.3552 35.6243 39.2257V38.0462H31.8824C31.702 38.0462 31.5355 38.0462 31.3828 38.0462C31.2302 38.0462 31.0637 38.0601 30.8833 38.0786V37.024C31.0637 37.0425 31.2302 37.0518 31.3828 37.0518H36.8084C36.7899 37.1721 36.7806 37.2923 36.776 37.4033C36.776 37.5143 36.776 37.63 36.776 37.7456V39.2257H36.7667ZM32.1599 35.2017V33.2035H31.1793V35.2017H32.1599ZM36.7667 32.9676V36.7465H35.6844V32.9676C35.6844 32.7872 35.6844 32.6068 35.6844 32.4311C35.6844 32.2553 35.6705 32.0749 35.652 31.8945H36.8084C36.7899 32.0749 36.7806 32.2553 36.776 32.4311C36.776 32.6068 36.776 32.7872 36.776 32.9676H36.7667Z" fill="#231F20"/>
<path d="M44.0517 39.1056H39.2367C39.0008 39.1056 38.7696 39.1056 38.5429 39.1056C38.3163 39.1056 38.085 39.1195 37.8491 39.138V38.0649C38.085 38.0834 38.3163 38.0927 38.5429 38.0973C38.7696 38.0973 39.0008 38.0973 39.2367 38.0973H44.0517C44.2876 38.0973 44.5189 38.0973 44.7455 38.0973C44.9722 38.0973 45.2034 38.0834 45.4393 38.0649V39.138C45.2034 39.1195 44.9722 39.1102 44.7455 39.1056C44.5189 39.1056 44.2876 39.1056 44.0517 39.1056ZM42.2617 32.8845C42.2617 33.2546 42.3403 33.6015 42.5022 33.9299C42.6641 34.2583 42.8769 34.5543 43.1544 34.8226C43.4273 35.0908 43.7372 35.3175 44.0841 35.5071C44.431 35.6967 44.7918 35.8355 45.171 35.9188C45.0323 36.0575 44.8981 36.2055 44.7686 36.3582C44.6391 36.5108 44.5281 36.6449 44.4356 36.7513C44.1812 36.6727 43.9222 36.5663 43.6539 36.4275C43.3857 36.2888 43.1313 36.1269 42.8815 35.9419C42.6317 35.7569 42.4005 35.558 42.1831 35.3313C41.9657 35.1047 41.7853 34.8688 41.6373 34.6144C41.3598 35.1371 40.962 35.5765 40.4532 35.9419C39.9398 36.3073 39.4079 36.5756 38.8574 36.7606C38.7649 36.6496 38.6539 36.5247 38.5198 36.372C38.3857 36.2194 38.2423 36.0621 38.085 35.9003C38.4828 35.7892 38.8621 35.6459 39.2136 35.4609C39.5697 35.2758 39.8796 35.0538 40.1433 34.7948C40.4116 34.5404 40.6197 34.2536 40.777 33.9299C40.9296 33.6107 41.0082 33.2592 41.0082 32.8845C41.0082 32.7689 41.0082 32.644 40.999 32.5099C40.9944 32.3757 40.9851 32.2509 40.9712 32.126H42.2987C42.2802 32.2416 42.271 32.3711 42.2663 32.5099C42.2663 32.6486 42.2663 32.7735 42.2663 32.8845H42.2617Z" fill="#231F20"/>
<path d="M49.2137 38.2081V37.4264C49.2137 37.3015 49.2137 37.1674 49.2137 37.024C49.2137 36.8853 49.1999 36.7511 49.1814 36.6262H50.4441C50.4256 36.7465 50.4163 36.8853 50.4117 37.0286C50.4117 37.1767 50.4117 37.3108 50.4117 37.4218V38.2035H52.2295C52.4654 38.2035 52.6966 38.2035 52.9233 38.2035C53.1499 38.2035 53.3812 38.1896 53.6171 38.1711V39.2257C53.3812 39.2072 53.1499 39.1979 52.9233 39.1933C52.6966 39.1933 52.4654 39.1933 52.2295 39.1933H47.4237C47.1878 39.1933 46.9566 39.1933 46.7299 39.1933C46.5033 39.1933 46.272 39.2072 46.0361 39.2257V38.1711C46.272 38.1896 46.5033 38.1989 46.7299 38.2035C46.9566 38.2035 47.1878 38.2035 47.4237 38.2035H49.223L49.2137 38.2081ZM50.4765 32.1396C50.458 32.2507 50.4487 32.3663 50.4441 32.4912C50.4441 32.6161 50.4441 32.7317 50.4441 32.8427C50.4441 33.2127 50.5227 33.5596 50.6846 33.888C50.8465 34.2164 51.0639 34.5125 51.3368 34.7807C51.6097 35.0444 51.9196 35.2756 52.2665 35.4653C52.6134 35.6549 52.9788 35.7937 53.3534 35.8769C53.2147 36.0157 53.0805 36.1637 52.951 36.3163C52.8215 36.4736 52.7105 36.6031 52.618 36.7095C52.3636 36.6309 52.1046 36.5245 51.8363 36.3857C51.568 36.2516 51.3137 36.0897 51.0639 35.9001C50.8141 35.7197 50.5828 35.5162 50.3655 35.2941C50.1481 35.0675 49.9677 34.8316 49.8197 34.5772C49.5421 35.0999 49.1444 35.5393 48.6356 35.9047C48.1222 36.2701 47.5902 36.543 47.0398 36.7234C46.952 36.6124 46.8363 36.4828 46.7068 36.3302C46.5727 36.1776 46.4293 36.0203 46.272 35.8584C46.6698 35.7474 47.0491 35.604 47.4052 35.419C47.7614 35.234 48.0713 35.012 48.3349 34.753C48.6032 34.4986 48.8113 34.2118 48.9686 33.888C49.1212 33.5689 49.1999 33.2174 49.1999 32.8427C49.1999 32.7317 49.1999 32.6207 49.1906 32.4958C49.186 32.3755 49.1767 32.2553 49.1629 32.1396H50.4903H50.4765Z" fill="#231F20"/>
<path d="M60.4072 39.0773H55.5922C55.3563 39.0773 55.125 39.0773 54.8984 39.0773C54.6717 39.0773 54.4405 39.0911 54.2046 39.1096V38.0458C54.4405 38.0643 54.6717 38.0736 54.8984 38.0782C55.125 38.0782 55.3563 38.0782 55.5922 38.0782H60.4072C60.6431 38.0782 60.8743 38.0782 61.101 38.0782C61.3276 38.0782 61.5589 38.0643 61.7948 38.0458V39.1096C61.5589 39.0911 61.3276 39.0819 61.101 39.0773C60.8743 39.0773 60.6431 39.0773 60.4072 39.0773ZM55.8558 33.2077C55.694 33.2077 55.5459 33.2077 55.4164 33.2077C55.2869 33.2077 55.1435 33.2216 54.9863 33.2401V32.167C55.1435 32.1855 55.2869 32.1947 55.4164 32.1994C55.5459 32.1994 55.694 32.1994 55.8558 32.1994H60.1343C60.2915 32.1994 60.4349 32.1994 60.5644 32.1994C60.694 32.1994 60.842 32.1855 61.0038 32.167V33.2401C60.842 33.2216 60.6893 33.2123 60.5506 33.2077C60.4118 33.2077 60.2638 33.2077 60.1065 33.2077L60.0788 35.6869H60.3147C60.4719 35.6869 60.6153 35.6869 60.7448 35.6823C60.8743 35.6823 61.0223 35.6684 61.1842 35.6499V36.7137C61.0223 36.6952 60.8697 36.686 60.7263 36.6813C60.5829 36.6813 60.4349 36.6767 60.2777 36.6767H55.6708C55.5089 36.6767 55.3609 36.6767 55.2314 36.6813C55.1019 36.6813 54.9585 36.6952 54.8013 36.7137V35.6499C54.9585 35.6684 55.1019 35.6776 55.2314 35.6823C55.3609 35.6823 55.5089 35.6869 55.6708 35.6869H55.879L55.8512 33.2077H55.8558ZM57.0029 33.2077L57.0307 35.6869H58.9641L58.9918 33.2077H57.0029Z" fill="#231F20"/>
<path d="M68.5893 39.0775H63.7743C63.5384 39.0775 63.3072 39.0775 63.0805 39.0775C62.8539 39.0775 62.6226 39.0914 62.3867 39.1099V38.0368C62.6226 38.0553 62.8539 38.0646 63.0805 38.0692C63.3072 38.0692 63.5384 38.0692 63.7743 38.0692H68.5893C68.8252 38.0692 69.0565 38.0692 69.2831 38.0692C69.5097 38.0692 69.741 38.0553 69.9769 38.0368V39.1099C69.741 39.0914 69.5097 39.0821 69.2831 39.0775C69.0565 39.0775 68.8252 39.0775 68.5893 39.0775ZM67.9788 33.1895H64.5282V34.1608H68.9732V35.1413H64.5282V36.0942L68.0898 36.1034H68.5616C68.7327 36.1034 68.9177 36.0942 69.1166 36.0757V37.1117C68.9177 37.0979 68.7327 37.0932 68.5616 37.0886C68.3904 37.0886 68.2332 37.084 68.0898 37.084H63.3765V33.1339C63.3765 32.9813 63.3765 32.8287 63.3673 32.6714C63.358 32.5142 63.3488 32.3569 63.3303 32.1996H68.4552C68.6263 32.1996 68.8113 32.1904 69.0102 32.1719V33.2172C68.8113 33.2033 68.6263 33.1987 68.4552 33.1941C68.284 33.1941 68.1268 33.1941 67.9834 33.1941L67.9788 33.1895Z" fill="#231F20"/>
<path d="M2.35443 45.3081C2.22029 45.3914 2.08153 45.4515 1.93352 45.4885C1.78551 45.5255 1.62825 45.544 1.46636 45.544C1.28597 45.544 1.11946 45.5163 0.966822 45.4561C0.814186 45.396 0.684676 45.3081 0.573668 45.1878C0.462659 45.0722 0.374778 44.9196 0.310023 44.7392C0.245268 44.5542 0.212891 44.3368 0.212891 44.087C0.212891 43.8372 0.245268 43.6384 0.310023 43.4533C0.374778 43.2683 0.462659 43.1111 0.573668 42.9862C0.684676 42.8613 0.814186 42.7642 0.962197 42.6948C1.11483 42.63 1.27672 42.5977 1.45248 42.5977C1.619 42.5977 1.77163 42.6208 1.91039 42.6717C2.04915 42.7225 2.17866 42.7965 2.29892 42.8983L2.06303 43.1897C1.9659 43.1203 1.86876 43.0648 1.76701 43.0324C1.66525 42.9954 1.56349 42.9816 1.45711 42.9816C1.33685 42.9816 1.22584 43.0047 1.13333 43.0509C1.0362 43.0972 0.962197 43.1712 0.902067 43.2637C0.837312 43.3608 0.791059 43.4811 0.758682 43.6245C0.726304 43.7679 0.707803 43.9298 0.707803 44.1194C0.707803 44.2952 0.721679 44.4478 0.749431 44.5773C0.777183 44.7114 0.823436 44.8178 0.883566 44.9057C0.943695 44.9936 1.02233 45.063 1.12408 45.1092C1.22122 45.1555 1.3461 45.1786 1.48949 45.1786C1.55887 45.1786 1.62825 45.1693 1.693 45.1555C1.75776 45.1416 1.82251 45.1185 1.88264 45.0861V44.3414H1.37385L1.3276 43.9529H2.37293C2.36368 44.0269 2.35905 44.0963 2.35443 44.161C2.35443 44.2258 2.35443 44.2905 2.35443 44.3645V45.3081Z" fill="#3164AF"/>
<path d="M2.93262 45.5073C2.94187 45.4333 2.94649 45.3639 2.94649 45.2945C2.94649 45.2252 2.94649 45.1558 2.94649 45.0772V43.0744C2.94649 42.9957 2.94649 42.9264 2.94649 42.857C2.94649 42.7876 2.93724 42.7136 2.93262 42.635H4.14908C4.22309 42.635 4.28322 42.635 4.33872 42.635C4.3896 42.635 4.45436 42.6303 4.52836 42.6211L4.48211 43.042C4.44511 43.042 4.41273 43.0374 4.38498 43.0327C4.35722 43.0327 4.32947 43.0327 4.30172 43.0327C4.27397 43.0327 4.24622 43.0327 4.21846 43.0327H3.41365V43.8191H3.92707C3.99645 43.8191 4.0612 43.8191 4.12133 43.8191C4.18146 43.8191 4.24622 43.8144 4.32022 43.8052V44.2307C4.24622 44.2215 4.18146 44.2168 4.12133 44.2168C4.06583 44.2168 4.00107 44.2168 3.92707 44.2168H3.4229V45.1142H4.0982C4.18609 45.1142 4.26472 45.1142 4.3341 45.1142C4.40348 45.1142 4.48673 45.1095 4.57462 45.1003V45.5397C4.48673 45.5351 4.40348 45.5304 4.3341 45.5258C4.26472 45.5258 4.18146 45.5258 4.0982 45.5258H2.93724L2.93262 45.5073Z" fill="#3164AF"/>
<path d="M6.02678 45.553C5.84177 45.553 5.67063 45.5206 5.52262 45.4559C5.37461 45.3911 5.24972 45.294 5.14334 45.1691C5.03696 45.0442 4.9537 44.8916 4.8982 44.7066C4.84269 44.5215 4.81494 44.3134 4.81494 44.0729C4.81494 43.8324 4.84269 43.6242 4.90282 43.4392C4.96295 43.2542 5.04621 43.1016 5.15259 42.9721C5.25897 42.8472 5.38386 42.7547 5.52724 42.6899C5.67526 42.6252 5.83252 42.5928 6.00828 42.5928C6.18404 42.5928 6.34131 42.6252 6.48932 42.6899C6.63733 42.7547 6.76221 42.8472 6.8686 42.9721C6.97498 43.1016 7.05361 43.2542 7.11374 43.4392C7.17387 43.6242 7.20162 43.837 7.20162 44.0775C7.20162 44.318 7.17387 44.5077 7.12299 44.6927C7.07211 44.8731 6.99348 45.0303 6.89635 45.1552C6.79459 45.2847 6.67433 45.3819 6.52632 45.4512C6.37831 45.5206 6.2118 45.553 6.02678 45.553ZM6.01753 45.1922C6.12854 45.1922 6.22567 45.1691 6.3043 45.1228C6.38756 45.0766 6.45694 45.0072 6.51244 44.9147C6.56795 44.8268 6.60958 44.7112 6.63733 44.577C6.66508 44.4429 6.67896 44.2856 6.67896 44.1099C6.67896 43.9156 6.66508 43.7491 6.63733 43.6104C6.60958 43.467 6.56795 43.3467 6.51244 43.2496C6.45694 43.1571 6.38293 43.0877 6.29968 43.0414C6.21642 42.9952 6.11466 42.9721 6.00366 42.9721C5.89265 42.9721 5.79089 42.9952 5.70763 43.0414C5.61975 43.0877 5.55037 43.1571 5.49487 43.2449C5.43474 43.3375 5.39311 43.4531 5.36073 43.5872C5.33298 43.7214 5.3191 43.8786 5.3191 44.059C5.3191 44.2533 5.33298 44.4198 5.36536 44.5585C5.39311 44.7019 5.43936 44.8176 5.49949 44.9147C5.555 45.0118 5.629 45.0858 5.71226 45.1321C5.80014 45.1783 5.89727 45.2015 6.01291 45.2015L6.01753 45.1922Z" fill="#3164AF"/>
<path d="M9.6486 45.3081C9.51447 45.3914 9.37571 45.4515 9.2277 45.4885C9.07969 45.5255 8.92242 45.544 8.75591 45.544C8.57552 45.544 8.40901 45.5163 8.25637 45.4561C8.10374 45.396 7.97423 45.3081 7.86322 45.1878C7.75221 45.0722 7.66433 44.9196 7.59957 44.7392C7.53482 44.5542 7.50244 44.3368 7.50244 44.087C7.50244 43.8372 7.53482 43.6384 7.59957 43.4533C7.66433 43.2683 7.75221 43.1111 7.86322 42.9862C7.97423 42.8613 8.10374 42.7642 8.25175 42.6948C8.40438 42.63 8.56627 42.5977 8.74203 42.5977C8.90855 42.5977 9.06118 42.6208 9.19994 42.6717C9.3387 42.7225 9.47284 42.7965 9.5931 42.8983L9.35721 43.1897C9.26007 43.1203 9.16294 43.0648 9.06118 43.0324C8.95943 42.9954 8.85767 42.9816 8.75129 42.9816C8.63103 42.9816 8.52002 43.0047 8.42751 43.0509C8.33038 43.0972 8.25637 43.1712 8.19624 43.2637C8.13149 43.3608 8.08061 43.4811 8.05286 43.6245C8.02048 43.7679 8.00198 43.9298 8.00198 44.1194C8.00198 44.2952 8.01585 44.4478 8.04361 44.5773C8.07136 44.7114 8.11761 44.8178 8.17774 44.9057C8.23787 44.9936 8.3165 45.063 8.41826 45.1092C8.52002 45.1555 8.64028 45.1786 8.78366 45.1786C8.85304 45.1786 8.92242 45.1693 8.98718 45.1555C9.05193 45.1416 9.11669 45.1185 9.17219 45.0861V44.3414H8.6634L8.61715 43.9529H9.66248C9.65323 44.0269 9.6486 44.0963 9.64398 44.161C9.64398 44.2258 9.64398 44.2905 9.64398 44.3645V45.3081H9.6486Z" fill="#231F20"/>
<path d="M11.3227 44.2488C11.3782 44.2858 11.443 44.3505 11.517 44.4476C11.591 44.5402 11.6742 44.665 11.7714 44.8223L11.961 45.1322C12.0073 45.2062 12.0443 45.271 12.0813 45.3218C12.1183 45.3727 12.1599 45.4375 12.2108 45.5068H11.6141C11.6002 45.4791 11.5864 45.4467 11.5725 45.419C11.5586 45.3912 11.5494 45.3635 11.5401 45.3403C11.5262 45.3172 11.517 45.2895 11.4985 45.2617C11.4846 45.234 11.4707 45.2062 11.4522 45.1738L11.3828 45.0582C11.2857 44.8917 11.1978 44.7529 11.1146 44.6327C11.0313 44.5124 10.9573 44.4199 10.8879 44.3459C10.8602 44.3228 10.8324 44.3043 10.7954 44.2904C10.763 44.2719 10.726 44.2626 10.689 44.2626V45.1183C10.689 45.1877 10.689 45.2525 10.689 45.3126C10.689 45.3727 10.6983 45.4375 10.7029 45.5068H10.2126C10.2173 45.4421 10.2219 45.3773 10.2265 45.3126C10.2265 45.2525 10.2311 45.1877 10.2311 45.1183V43.0785C10.2311 42.9999 10.2311 42.9259 10.2265 42.8565C10.2265 42.7871 10.2173 42.7131 10.208 42.6299H11.0914C11.2256 42.6299 11.3458 42.6484 11.4615 42.6854C11.5771 42.7224 11.6742 42.7779 11.7621 42.8426C11.8454 42.9167 11.9101 42.9999 11.9564 43.1017C12.0026 43.2034 12.0258 43.3191 12.0258 43.4486C12.0258 43.555 12.0073 43.6521 11.9749 43.7492C11.9425 43.8463 11.8963 43.9296 11.8361 43.999C11.776 44.073 11.6974 44.1331 11.6095 44.1747C11.5216 44.2164 11.4198 44.2395 11.3088 44.2395L11.3227 44.2488ZM10.6983 43.023V43.9342H10.9619C11.0729 43.9342 11.1701 43.925 11.2487 43.9019C11.3273 43.8834 11.3875 43.851 11.4337 43.8047C11.48 43.7677 11.5124 43.7215 11.5309 43.6613C11.5494 43.6058 11.5586 43.5365 11.5586 43.4624C11.5586 43.3884 11.5447 43.3283 11.5216 43.2682C11.4985 43.2127 11.4615 43.1664 11.4152 43.1294C11.3643 43.0924 11.2996 43.0693 11.2302 43.0508C11.1562 43.0323 11.0729 43.023 10.9758 43.023H10.7075H10.6983Z" fill="#231F20"/>
<path d="M14.1166 45.5068C14.0981 45.419 14.0796 45.345 14.0658 45.2802C14.0519 45.2201 14.0288 45.1414 14.001 45.0536L13.9039 44.7483H12.9603L12.8724 45.0536C12.8447 45.1414 12.8215 45.2201 12.803 45.2802C12.7845 45.345 12.766 45.419 12.7475 45.5068H12.2295C12.2665 45.419 12.2942 45.345 12.3174 45.2802C12.3405 45.2201 12.3683 45.1414 12.396 45.0536L13.1869 42.6299H13.7281L14.5005 45.0536C14.5283 45.1414 14.5514 45.2201 14.5745 45.2802C14.5977 45.345 14.6254 45.419 14.6624 45.5068H14.112H14.1166ZM13.7975 44.3505L13.5431 43.4532C13.52 43.3838 13.5015 43.3191 13.4876 43.2543C13.4737 43.1942 13.4598 43.134 13.4552 43.0832C13.4367 43.1433 13.4136 43.2034 13.3997 43.2682C13.3812 43.3283 13.3627 43.3931 13.3442 43.4578L13.0806 44.3505H13.8021H13.7975Z" fill="#231F20"/>
<path d="M14.9401 45.1232V43.0834C14.9401 43.0048 14.9401 42.9308 14.9355 42.8614C14.9355 42.792 14.9262 42.718 14.917 42.6348H15.694C15.8744 42.6348 16.0317 42.6533 16.1704 42.6856C16.3092 42.718 16.4248 42.7689 16.522 42.8383C16.6145 42.9123 16.6838 43.0002 16.7347 43.1112C16.7856 43.2222 16.8087 43.3471 16.8087 43.4951C16.8087 43.62 16.7902 43.7402 16.7486 43.8512C16.707 43.9622 16.6515 44.0594 16.5728 44.138C16.4942 44.2213 16.3971 44.2906 16.2814 44.3369C16.1658 44.3831 16.0363 44.4109 15.8837 44.4109H15.3888V45.1232C15.3888 45.1926 15.3888 45.2573 15.3888 45.3175C15.3888 45.3776 15.398 45.4424 15.4026 45.5117H14.9077C14.9123 45.447 14.917 45.3822 14.9216 45.3175C14.9216 45.2573 14.9262 45.1926 14.9262 45.1232H14.9401ZM15.398 43.0187V44.027H15.7819C15.8698 44.027 15.9484 44.0177 16.0132 43.9946C16.0826 43.9715 16.1381 43.9391 16.1843 43.8975C16.2306 43.8559 16.2629 43.805 16.2861 43.7402C16.3092 43.6755 16.3231 43.6015 16.3231 43.5182C16.3231 43.4396 16.3092 43.3702 16.2861 43.3054C16.2629 43.2453 16.2259 43.1898 16.1843 43.1482C16.1381 43.1066 16.0779 43.0742 16.0132 43.051C15.9438 43.0279 15.8698 43.0187 15.7819 43.0187H15.398Z" fill="#231F20"/>
<path d="M18.6542 43.7865V43.0187C18.6542 42.9493 18.6542 42.8845 18.6496 42.829C18.6496 42.7689 18.6403 42.7041 18.6357 42.6348H19.1399C19.1306 42.7041 19.126 42.7643 19.126 42.829C19.126 42.8892 19.126 42.9539 19.126 43.0187V45.1093C19.126 45.1787 19.126 45.2481 19.126 45.3082C19.126 45.373 19.1352 45.4377 19.1399 45.5025H18.6357C18.6403 45.4377 18.6449 45.3683 18.6496 45.3082C18.6496 45.2435 18.6542 45.1787 18.6542 45.1093V44.1796H17.6597V45.1093C17.6597 45.1787 17.6597 45.2481 17.6597 45.3082C17.6597 45.373 17.669 45.4377 17.6736 45.5025H17.1787C17.1787 45.4377 17.188 45.3683 17.1926 45.3082C17.1926 45.2435 17.1972 45.1787 17.1972 45.1093V43.0187C17.1972 42.9493 17.1972 42.8845 17.1926 42.829C17.1926 42.7689 17.1833 42.7041 17.1787 42.6348H17.6736C17.6644 42.7041 17.6597 42.7643 17.6597 42.829C17.6597 42.8892 17.6597 42.9539 17.6597 43.0187V43.7865H18.6542Z" fill="#231F20"/>
<path d="M20.2774 43.0187V45.1093C20.2774 45.1787 20.2774 45.2481 20.2774 45.3082C20.2774 45.373 20.2866 45.4377 20.2912 45.5025H19.7778C19.7825 45.4377 19.7871 45.3683 19.7917 45.3082C19.7917 45.2435 19.7963 45.1787 19.7963 45.1093V43.0187C19.7963 42.9493 19.7963 42.8845 19.7917 42.829C19.7917 42.7689 19.7825 42.7041 19.7778 42.6348H20.2912C20.282 42.7041 20.2774 42.7643 20.2774 42.829C20.2774 42.8892 20.2774 42.9539 20.2774 43.0187Z" fill="#231F20"/>
<path d="M22.7613 45.3032C22.6503 45.3864 22.53 45.4512 22.3959 45.4928C22.2664 45.5344 22.1276 45.5529 21.9796 45.5529C21.8038 45.5529 21.6419 45.5206 21.4893 45.4604C21.3367 45.4003 21.2072 45.3032 21.1008 45.1783C20.9898 45.058 20.9019 44.91 20.8371 44.725C20.777 44.5446 20.7446 44.3365 20.7446 44.1052C20.7446 43.8739 20.777 43.6566 20.8418 43.4669C20.9065 43.2773 20.9944 43.1154 21.1054 42.9813C21.2164 42.8517 21.3459 42.75 21.4986 42.6806C21.6466 42.6112 21.8131 42.5742 21.9888 42.5742C22.1322 42.5742 22.2664 42.5927 22.382 42.6297C22.5023 42.6667 22.604 42.7222 22.6919 42.7962L22.4745 43.1061C22.4005 43.0553 22.3219 43.0183 22.2432 42.9905C22.1646 42.9627 22.0767 42.9489 21.9888 42.9489C21.8778 42.9489 21.7761 42.972 21.6789 43.0136C21.5864 43.0553 21.5078 43.1246 21.4431 43.2125C21.3737 43.305 21.3228 43.4207 21.2904 43.5594C21.2534 43.6982 21.2395 43.8601 21.2395 44.0497C21.2395 44.2393 21.258 44.4059 21.2904 44.5446C21.3228 44.6834 21.3737 44.799 21.4431 44.8915C21.5078 44.9887 21.5911 45.0534 21.6882 45.0997C21.7853 45.1459 21.8963 45.169 22.0259 45.169C22.1184 45.169 22.2109 45.1552 22.2941 45.1274C22.3774 45.0997 22.4606 45.0534 22.5393 44.9933L22.7613 45.2939V45.3032Z" fill="#231F20"/>
<path d="M26.36 45.5068C26.36 45.4236 26.3646 45.3496 26.3646 45.2895C26.3646 45.2293 26.3646 45.1553 26.36 45.0674L26.286 43.7261C26.286 43.6798 26.2767 43.6382 26.2767 43.592C26.2767 43.5457 26.2767 43.5041 26.2675 43.4578C26.2675 43.4116 26.2675 43.3653 26.2675 43.3191C26.2675 43.2728 26.2675 43.2266 26.2675 43.171C26.2443 43.2821 26.2212 43.3792 26.1981 43.4624C26.1796 43.5457 26.1564 43.6197 26.1379 43.6845L25.6199 45.5022H25.2221L24.7457 43.7631C24.718 43.6613 24.6902 43.5503 24.6671 43.4439C24.644 43.3376 24.6301 43.2451 24.6162 43.1757C24.6116 43.2219 24.607 43.2636 24.607 43.3052C24.607 43.3468 24.6023 43.3884 24.5977 43.4347C24.5977 43.4809 24.5931 43.5318 24.5884 43.5873C24.5884 43.6428 24.5792 43.703 24.5792 43.7677L24.5144 45.0628C24.5144 45.1091 24.5098 45.1461 24.5052 45.1831C24.5052 45.2201 24.5052 45.2525 24.5052 45.2848V45.3912C24.5052 45.4282 24.5052 45.4652 24.5144 45.5068H24.0195C24.0288 45.4652 24.0334 45.4282 24.038 45.3912C24.038 45.3542 24.0473 45.3218 24.0473 45.2848C24.0473 45.2525 24.0565 45.2201 24.0565 45.1831C24.0565 45.1461 24.0612 45.1091 24.0658 45.0628L24.223 43.0508C24.223 43.0092 24.2277 42.9722 24.2323 42.9398C24.2323 42.9074 24.2369 42.875 24.2415 42.8426C24.2415 42.8103 24.2415 42.7825 24.2415 42.7455C24.2415 42.7131 24.2415 42.6715 24.2415 42.6299H24.8752L25.3193 44.258C25.3378 44.3274 25.3563 44.406 25.3748 44.4893C25.3933 44.5725 25.4118 44.6697 25.4349 44.7807C25.4441 44.6928 25.458 44.6095 25.4765 44.5263C25.495 44.443 25.5181 44.3551 25.5413 44.2673L25.9946 42.6345H26.6282C26.6282 42.6761 26.6282 42.7131 26.6282 42.7501C26.6282 42.7871 26.6282 42.8149 26.6282 42.8473C26.6282 42.8797 26.6282 42.912 26.6329 42.9444C26.6329 42.9768 26.6329 43.0138 26.6421 43.0554L26.7901 45.0674C26.7947 45.1553 26.804 45.2293 26.8086 45.2895C26.8179 45.3496 26.8271 45.4236 26.841 45.5068H26.3461H26.36Z" fill="#3164AF"/>
<path d="M28.8945 45.5068C28.876 45.419 28.8575 45.345 28.8436 45.2802C28.8297 45.2201 28.8066 45.1414 28.7788 45.0536L28.6817 44.7483H27.7381L27.6502 45.0536C27.6225 45.1414 27.5994 45.2201 27.5809 45.2802C27.5624 45.345 27.5439 45.419 27.5254 45.5068H27.0073C27.0443 45.419 27.0721 45.345 27.0952 45.2802C27.1183 45.2201 27.1461 45.1414 27.1738 45.0536L27.9648 42.6299H28.5059L29.2784 45.0536C29.3061 45.1414 29.3292 45.2201 29.3524 45.2802C29.3755 45.345 29.4033 45.419 29.4403 45.5068H28.8898H28.8945ZM28.5753 44.3505L28.3209 43.4532C28.2978 43.3838 28.2793 43.3191 28.2654 43.2543C28.2515 43.1942 28.2377 43.134 28.233 43.0832C28.2145 43.1433 28.196 43.2034 28.1775 43.2682C28.159 43.3283 28.1405 43.3931 28.122 43.4578L27.8584 44.3505H28.5799H28.5753Z" fill="#231F20"/>
<path d="M29.7223 45.1232V43.0834C29.7223 43.0048 29.7223 42.9308 29.7177 42.8614C29.7177 42.792 29.7084 42.718 29.6992 42.6348H30.4762C30.6566 42.6348 30.8139 42.6533 30.9527 42.6856C31.0914 42.718 31.2071 42.7689 31.3042 42.8383C31.3967 42.9123 31.4661 43.0002 31.517 43.1112C31.5678 43.2222 31.591 43.3471 31.591 43.4951C31.591 43.62 31.5725 43.7402 31.5308 43.8512C31.4892 43.9622 31.4337 44.0594 31.3551 44.138C31.2764 44.2213 31.1793 44.2906 31.0637 44.3369C30.948 44.3831 30.8185 44.4109 30.6659 44.4109H30.171V45.1232C30.171 45.1926 30.171 45.2573 30.171 45.3175C30.171 45.3776 30.1802 45.4424 30.1849 45.5117H29.6899C29.6899 45.447 29.6992 45.3822 29.7038 45.3175C29.7038 45.2573 29.7084 45.1926 29.7084 45.1232H29.7223ZM30.1802 43.0187V44.027H30.5641C30.652 44.027 30.7306 44.0177 30.7954 43.9946C30.8602 43.9715 30.9203 43.9391 30.9665 43.8975C31.0128 43.8559 31.0452 43.805 31.0683 43.7402C31.0914 43.6755 31.1053 43.6015 31.1053 43.5182C31.1053 43.4396 31.0914 43.3702 31.0683 43.3054C31.0452 43.2453 31.0128 43.1898 30.9665 43.1482C30.9203 43.1066 30.8602 43.0742 30.7954 43.051C30.726 43.0279 30.652 43.0187 30.5641 43.0187H30.1802Z" fill="#231F20"/>
<path d="M32.9556 45.5073C32.9648 45.4333 32.9694 45.3639 32.9694 45.2945C32.9694 45.2252 32.9694 45.1558 32.9694 45.0772V43.0744C32.9694 42.9957 32.9694 42.9264 32.9694 42.857C32.9694 42.7876 32.9602 42.7136 32.9556 42.635H34.172C34.246 42.635 34.3062 42.635 34.357 42.635C34.4079 42.635 34.4727 42.6303 34.5467 42.6211L34.5004 43.042C34.4634 43.042 34.4311 43.0374 34.4033 43.0327C34.3755 43.0327 34.3478 43.0327 34.32 43.0327C34.2923 43.0327 34.2645 43.0327 34.2368 43.0327H33.432V43.8191H33.9454C34.0148 43.8191 34.0795 43.8191 34.1397 43.8191C34.1998 43.8191 34.2645 43.8144 34.3385 43.8052V44.2307C34.2645 44.2215 34.1952 44.2168 34.1397 44.2168C34.0841 44.2168 34.0194 44.2168 33.9454 44.2168H33.4412V45.1142H34.1165C34.2044 45.1142 34.283 45.1142 34.3524 45.1142C34.4218 45.1142 34.5051 45.1095 34.5929 45.1003V45.5397C34.5051 45.5351 34.4218 45.5304 34.3524 45.5258C34.283 45.5258 34.1998 45.5258 34.1165 45.5258H32.9556V45.5073Z" fill="#3164AF"/>
<path d="M36.6283 44.8315C36.6237 44.776 36.6191 44.702 36.6144 44.6142C36.6144 44.5263 36.6052 44.4384 36.6006 44.3459C36.6006 44.258 36.5959 44.1794 36.5913 44.1054C36.5913 44.0314 36.5867 43.9805 36.5867 43.9481V43.0184C36.5867 42.949 36.5867 42.8843 36.5821 42.8288C36.5821 42.7686 36.5728 42.7039 36.5682 42.6345H37.0353C37.0261 42.7039 37.0215 42.764 37.0215 42.8288C37.0215 42.8889 37.0215 42.9537 37.0215 43.0184V45.0767C37.0215 45.1599 37.0215 45.234 37.0215 45.2987C37.0215 45.3635 37.0261 45.4328 37.0353 45.5068H36.5358L35.8929 44.1562C35.842 44.0591 35.7957 43.9666 35.7587 43.8787C35.7217 43.7908 35.6847 43.7076 35.6524 43.6336C35.62 43.5596 35.5922 43.4902 35.5645 43.4301C35.5414 43.3699 35.5182 43.3144 35.4997 43.2682C35.4997 43.3191 35.4997 43.3884 35.4997 43.4763C35.4997 43.5642 35.5043 43.6475 35.509 43.7353C35.509 43.8232 35.5136 43.9019 35.5182 43.9712C35.5182 44.0406 35.5182 44.0869 35.5275 44.11V45.1137C35.5275 45.1831 35.5275 45.2478 35.5275 45.308C35.5275 45.3681 35.5367 45.4328 35.5414 45.5022H35.0649C35.0696 45.4375 35.0742 45.3727 35.0788 45.308C35.0788 45.2478 35.0834 45.1831 35.0834 45.1137V43.0277C35.0834 42.9537 35.0834 42.8889 35.0834 42.8334C35.0834 42.7779 35.0788 42.7085 35.0742 42.6299H35.6107L36.3092 44.0314C36.3785 44.1655 36.4387 44.3043 36.4942 44.443C36.5497 44.5818 36.5959 44.7113 36.6283 44.8269V44.8315Z" fill="#231F20"/>
<path d="M39.6579 45.3081C39.5237 45.3914 39.385 45.4515 39.237 45.4885C39.089 45.5255 38.9317 45.544 38.7652 45.544C38.5848 45.544 38.4183 45.5163 38.2657 45.4561C38.113 45.396 37.9835 45.3081 37.8725 45.1878C37.7615 45.0722 37.6736 44.9196 37.6089 44.7392C37.5441 44.5542 37.5117 44.3368 37.5117 44.087C37.5117 43.8372 37.5441 43.6384 37.6089 43.4533C37.6736 43.2683 37.7615 43.1111 37.8725 42.9862C37.9835 42.8613 38.113 42.7642 38.2657 42.6948C38.4183 42.63 38.5802 42.5977 38.7559 42.5977C38.9225 42.5977 39.0751 42.6208 39.2138 42.6717C39.3526 42.7225 39.4867 42.7965 39.607 42.8983L39.3711 43.1897C39.274 43.1203 39.1768 43.0648 39.0751 43.0324C38.9733 42.9954 38.8716 42.9816 38.7652 42.9816C38.6449 42.9816 38.5339 43.0047 38.4414 43.0509C38.3489 43.0972 38.2703 43.1712 38.2101 43.2637C38.1454 43.3608 38.0945 43.4811 38.0668 43.6245C38.0344 43.7679 38.0159 43.9298 38.0159 44.1194C38.0159 44.2952 38.0298 44.4478 38.0575 44.5773C38.0853 44.7114 38.1315 44.8178 38.1916 44.9057C38.2518 44.9936 38.3304 45.063 38.4322 45.1092C38.5339 45.1555 38.6542 45.1786 38.7976 45.1786C38.8669 45.1786 38.9363 45.1693 39.0011 45.1555C39.0658 45.1416 39.1306 45.1185 39.1861 45.0861V44.3414H38.6773L38.6311 43.9529H39.6764C39.6671 44.0269 39.6625 44.0963 39.6579 44.161C39.6579 44.2258 39.6579 44.2905 39.6579 44.3645V45.3081Z" fill="#231F20"/>
<path d="M40.731 43.0187V45.1093C40.731 45.1787 40.731 45.2481 40.731 45.3082C40.731 45.373 40.7402 45.4377 40.7449 45.5025H40.2314C40.2361 45.4377 40.2407 45.3683 40.2453 45.3082C40.2453 45.2435 40.2499 45.1787 40.2499 45.1093V43.0187C40.2499 42.9493 40.2499 42.8845 40.2453 42.829C40.2453 42.7689 40.2361 42.7041 40.2314 42.6348H40.7449C40.7402 42.7041 40.731 42.7643 40.731 42.829C40.731 42.8892 40.731 42.9539 40.731 43.0187Z" fill="#231F20"/>
<path d="M42.9323 44.8315C42.9323 44.776 42.923 44.702 42.9184 44.6142C42.9184 44.5263 42.9091 44.4384 42.9045 44.3459C42.9045 44.258 42.8999 44.1794 42.8952 44.1054C42.8952 44.0314 42.8906 43.9805 42.8906 43.9481V43.0184C42.8906 42.949 42.8906 42.8843 42.886 42.8288C42.886 42.7686 42.8767 42.7039 42.8721 42.6345H43.3393C43.33 42.7039 43.3254 42.764 43.3254 42.8288C43.3254 42.8889 43.3254 42.9537 43.3254 43.0184V45.0767C43.3254 45.1599 43.3254 45.234 43.3254 45.2987C43.3254 45.3635 43.33 45.4328 43.3393 45.5068H42.8397L42.1968 44.1562C42.1459 44.0591 42.1043 43.9666 42.0627 43.8787C42.0257 43.7908 41.9887 43.7076 41.9563 43.6336C41.9239 43.5596 41.8962 43.4902 41.8684 43.4301C41.8453 43.3699 41.8222 43.3144 41.8037 43.2682C41.8037 43.3191 41.8037 43.3884 41.8037 43.4763C41.8037 43.5642 41.8037 43.6475 41.8129 43.7353C41.8129 43.8232 41.8175 43.9019 41.8222 43.9712C41.8222 44.0406 41.8222 44.0869 41.8268 44.11V45.1137C41.8268 45.1831 41.8268 45.2478 41.8268 45.308C41.8268 45.3681 41.836 45.4328 41.8407 45.5022H41.3643C41.3689 45.4375 41.3735 45.3727 41.3781 45.308C41.3781 45.2478 41.3828 45.1831 41.3828 45.1137V43.0277C41.3828 42.9537 41.3828 42.8889 41.3828 42.8334C41.3828 42.7779 41.3781 42.7085 41.3735 42.6299H41.9147L42.6131 44.0314C42.6825 44.1655 42.7426 44.3043 42.7981 44.443C42.8536 44.5818 42.8999 44.7113 42.9323 44.8269V44.8315Z" fill="#231F20"/>
<path d="M43.9824 45.5073C43.9917 45.4333 43.9963 45.3639 43.9963 45.2945C43.9963 45.2252 43.9963 45.1558 43.9963 45.0772V43.0744C43.9963 42.9957 43.9963 42.9264 43.9963 42.857C43.9963 42.7876 43.987 42.7136 43.9824 42.635H45.1989C45.2729 42.635 45.333 42.635 45.3839 42.635C45.4348 42.635 45.4995 42.6303 45.5735 42.6211L45.5273 43.042C45.4903 43.042 45.4579 43.0374 45.4302 43.0327C45.4024 43.0327 45.3747 43.0327 45.3469 43.0327C45.3191 43.0327 45.2914 43.0327 45.2636 43.0327H44.4635V43.8191H44.9769C45.0463 43.8191 45.111 43.8191 45.1711 43.8191C45.2313 43.8191 45.296 43.8144 45.37 43.8052V44.2307C45.296 44.2215 45.2313 44.2168 45.1711 44.2168C45.1156 44.2168 45.0509 44.2168 44.9769 44.2168H44.4727V45.1142H45.148C45.2359 45.1142 45.3145 45.1142 45.3839 45.1142C45.4533 45.1142 45.5365 45.1095 45.6244 45.1003V45.5397C45.5365 45.5351 45.4533 45.5304 45.3839 45.5258C45.3145 45.5258 45.2313 45.5258 45.148 45.5258H43.987L43.9824 45.5073Z" fill="#231F20"/>
<path d="M48.8344 45.525C48.8067 45.4834 48.7743 45.4464 48.7419 45.4094C48.7095 45.3724 48.6771 45.3307 48.6401 45.2891C48.5939 45.34 48.5476 45.3862 48.4921 45.4232C48.4366 45.4602 48.3811 45.488 48.321 45.5111C48.2562 45.5342 48.1869 45.5527 48.1175 45.5666C48.0435 45.5805 47.9695 45.5851 47.8862 45.5851C47.7289 45.5851 47.5948 45.5666 47.4746 45.5296C47.3589 45.4926 47.2618 45.4371 47.1832 45.3677C47.1045 45.2984 47.0444 45.2151 47.0074 45.118C46.9704 45.0208 46.9473 44.9098 46.9473 44.7896C46.9473 44.7109 46.9565 44.6369 46.9796 44.5675C46.9981 44.4982 47.0351 44.4288 47.0768 44.364C47.1184 44.3039 47.1739 44.2484 47.234 44.1883C47.2988 44.1328 47.3728 44.0819 47.4607 44.0356C47.3913 43.9755 47.3404 43.92 47.3034 43.8691C47.2664 43.8182 47.234 43.7674 47.2063 43.7211C47.1785 43.6749 47.1554 43.6194 47.1415 43.5638C47.123 43.5037 47.1184 43.4436 47.1184 43.3788C47.1184 43.291 47.1369 43.2031 47.1693 43.1152C47.2063 43.0319 47.2572 42.9533 47.3219 42.8885C47.382 42.8238 47.4607 42.7729 47.5486 42.7313C47.6364 42.6943 47.7382 42.6758 47.8492 42.6758C47.9648 42.6758 48.0666 42.6943 48.1591 42.7267C48.2516 42.759 48.3302 42.8053 48.3996 42.8654C48.4644 42.9256 48.5153 42.9996 48.5476 43.0782C48.58 43.1614 48.5985 43.2539 48.5985 43.3511C48.5985 43.4251 48.5893 43.4898 48.5661 43.5546C48.543 43.6194 48.5106 43.6795 48.469 43.7396C48.4228 43.7997 48.3672 43.8552 48.3025 43.9061C48.2331 43.957 48.1545 44.0079 48.0666 44.0541L48.6031 44.6369C48.6216 44.5814 48.6401 44.5074 48.6494 44.4149C48.6586 44.327 48.6679 44.2206 48.6679 44.0958H49.0148C49.0148 44.1836 49.0148 44.2669 49.0055 44.3455C49.0009 44.4242 48.9917 44.4982 48.9824 44.5629C48.9685 44.6369 48.9547 44.7017 48.9408 44.7618C48.9269 44.8219 48.9084 44.8774 48.8853 44.933L49.024 45.0856C49.0657 45.1318 49.0981 45.1688 49.1351 45.2105C49.1674 45.2475 49.1998 45.2845 49.2322 45.3169C49.2599 45.3492 49.2969 45.3862 49.3293 45.4186C49.3663 45.4556 49.408 45.4926 49.4496 45.5342H48.8298L48.8344 45.525ZM48.395 45.0301L47.6919 44.2762C47.6411 44.3039 47.5948 44.3409 47.5578 44.3733C47.5208 44.4103 47.4884 44.4473 47.4653 44.4843C47.4422 44.5259 47.4237 44.5722 47.4098 44.6184C47.4005 44.6647 47.3913 44.7156 47.3913 44.7664C47.3913 44.8358 47.4005 44.9006 47.4237 44.9607C47.4468 45.0208 47.4792 45.0671 47.5208 45.1041C47.5624 45.1457 47.6179 45.1781 47.6781 45.2012C47.7428 45.2243 47.8122 45.2336 47.8955 45.2336C48.0018 45.2336 48.099 45.2151 48.1822 45.1827C48.2655 45.1457 48.3349 45.0948 48.3857 45.0301H48.395ZM48.1684 43.3372C48.1684 43.291 48.1591 43.2493 48.1452 43.2077C48.1314 43.1661 48.1129 43.1291 48.0851 43.0967C48.0573 43.0689 48.025 43.0412 47.988 43.0227C47.951 43.0042 47.9093 42.9949 47.8631 42.9949C47.8168 42.9949 47.7706 43.0042 47.7336 43.0181C47.6966 43.0319 47.6642 43.0551 47.6364 43.0828C47.6087 43.1152 47.5902 43.1476 47.5763 43.1892C47.5624 43.2308 47.5578 43.2725 47.5578 43.3233C47.5578 43.3557 47.5624 43.3881 47.5763 43.4251C47.5856 43.4621 47.6041 43.4991 47.6318 43.5361C47.6549 43.5777 47.6827 43.6194 47.7197 43.6656C47.7567 43.7072 47.7983 43.7535 47.8446 43.8044C47.9001 43.7766 47.9463 43.7442 47.988 43.7072C48.0296 43.6749 48.0666 43.6379 48.0944 43.5962C48.1175 43.5592 48.1406 43.5176 48.1545 43.476C48.1684 43.4343 48.173 43.3835 48.173 43.3372H48.1684Z" fill="#231F20"/>
<path d="M50.7632 45.5073C50.7724 45.4333 50.7771 45.3639 50.7771 45.2945C50.7771 45.2252 50.7771 45.1558 50.7771 45.0772V43.0744C50.7771 42.9957 50.7771 42.9264 50.7771 42.857C50.7771 42.7876 50.7678 42.7136 50.7632 42.635H51.9796C52.0537 42.635 52.1138 42.635 52.1693 42.635C52.2202 42.635 52.2849 42.6303 52.3589 42.6211L52.3127 43.042C52.2757 43.042 52.2433 43.0374 52.2155 43.0327C52.1878 43.0327 52.16 43.0327 52.1323 43.0327C52.1045 43.0327 52.0768 43.0327 52.049 43.0327H51.2442V43.8191H51.7576C51.827 43.8191 51.8918 43.8191 51.9519 43.8191C52.012 43.8191 52.0768 43.8144 52.1508 43.8052V44.2307C52.0768 44.2215 52.012 44.2168 51.9519 44.2168C51.8964 44.2168 51.8316 44.2168 51.7576 44.2168H51.2535V45.1142H51.9288C52.0167 45.1142 52.0953 45.1142 52.1647 45.1142C52.234 45.1142 52.3173 45.1095 52.4052 45.1003V45.5397C52.3173 45.5351 52.234 45.5304 52.1647 45.5258C52.0953 45.5258 52.012 45.5258 51.9288 45.5258H50.7678L50.7632 45.5073Z" fill="#231F20"/>
<path d="M54.2647 45.5071C54.2277 45.4238 54.1953 45.3545 54.1676 45.2943C54.1398 45.2342 54.1074 45.1648 54.0612 45.0816L53.6773 44.3554L53.3073 45.0816C53.261 45.1648 53.2286 45.2388 53.2009 45.2943C53.1731 45.3545 53.1454 45.4238 53.113 45.5071H52.5024C52.5579 45.4238 52.6042 45.3545 52.6412 45.2943C52.6782 45.2342 52.7198 45.1648 52.7707 45.0816L53.4044 43.9669L52.8632 43.0372C52.817 42.9585 52.78 42.8938 52.743 42.8383C52.706 42.7828 52.6643 42.718 52.6134 42.6348H53.2194C53.2471 42.7134 53.2749 42.7828 53.3026 42.8383C53.3304 42.8938 53.3628 42.9585 53.4044 43.0372L53.668 43.5413L53.927 43.0372C53.9455 43.0002 53.964 42.9632 53.9779 42.9308C53.9964 42.8984 54.0103 42.866 54.0242 42.8383C54.0381 42.8105 54.0519 42.7782 54.0658 42.7458C54.0797 42.7134 54.0936 42.6764 54.1121 42.6394H54.7041C54.6532 42.718 54.607 42.7874 54.5746 42.8429C54.5376 42.8984 54.5006 42.9632 54.4543 43.0418L53.9548 43.9391L54.5977 45.0862C54.6208 45.1278 54.6394 45.1648 54.6625 45.2018C54.681 45.2388 54.7041 45.2666 54.7272 45.299C54.7457 45.3313 54.7689 45.3637 54.792 45.4007C54.8151 45.4377 54.8382 45.4747 54.866 45.5117H54.2693L54.2647 45.5071Z" fill="#3164AF"/>
<path d="M56.0593 43.0327V45.1142C56.0593 45.1835 56.0593 45.2529 56.0593 45.313C56.0593 45.3778 56.0685 45.4426 56.0732 45.5073H55.5736C55.5736 45.4426 55.5829 45.3732 55.5875 45.313C55.5875 45.2483 55.5921 45.1835 55.5921 45.1142V43.0327H55.2499C55.1805 43.0327 55.1157 43.0327 55.0556 43.0327C54.9955 43.0327 54.9307 43.0374 54.8613 43.0466V42.6211C54.9261 42.6303 54.9908 42.635 55.0556 42.635C55.1157 42.635 55.1805 42.635 55.2499 42.635H56.4386C56.5033 42.635 56.5681 42.635 56.6328 42.635C56.693 42.635 56.7577 42.6303 56.8271 42.6211L56.8178 43.0466C56.7485 43.042 56.6745 43.0374 56.6005 43.0327C56.5265 43.0327 56.4524 43.0327 56.3877 43.0327H56.05H56.0593Z" fill="#231F20"/>
<path d="M57.1694 45.5073C57.1787 45.4333 57.1833 45.3639 57.1833 45.2945C57.1833 45.2252 57.1833 45.1558 57.1833 45.0772V43.0744C57.1833 42.9957 57.1833 42.9264 57.1833 42.857C57.1833 42.7876 57.1741 42.7136 57.1694 42.635H58.3859C58.4599 42.635 58.52 42.635 58.5755 42.635C58.6264 42.635 58.6912 42.6303 58.7652 42.6211L58.7189 43.042C58.6819 43.042 58.6495 43.0374 58.6218 43.0327C58.594 43.0327 58.5663 43.0327 58.5385 43.0327C58.5108 43.0327 58.483 43.0327 58.4553 43.0327H57.6551V43.8191H58.1685C58.2379 43.8191 58.3026 43.8191 58.3628 43.8191C58.4229 43.8191 58.4877 43.8144 58.5617 43.8052V44.2307C58.4877 44.2215 58.4229 44.2168 58.3628 44.2168C58.3073 44.2168 58.2425 44.2168 58.1685 44.2168H57.6643V45.1142H58.3396C58.4275 45.1142 58.5062 45.1142 58.5755 45.1142C58.6449 45.1142 58.7282 45.1095 58.8161 45.1003V45.5397C58.7236 45.5351 58.6449 45.5304 58.5755 45.5258C58.5062 45.5258 58.4229 45.5258 58.3396 45.5258H57.1787L57.1694 45.5073Z" fill="#231F20"/>
<path d="M60.8373 44.8315C60.8373 44.776 60.828 44.702 60.8234 44.6142C60.8234 44.5263 60.8142 44.4384 60.8095 44.3459C60.8095 44.258 60.8049 44.1794 60.8003 44.1054C60.8003 44.0314 60.7957 43.9805 60.7957 43.9481V43.0184C60.7957 42.949 60.7957 42.8843 60.791 42.8288C60.791 42.7686 60.7818 42.7039 60.7772 42.6345H61.2443C61.2351 42.7039 61.2305 42.764 61.2305 42.8288C61.2305 42.8889 61.2305 42.9537 61.2305 43.0184V45.0767C61.2305 45.1599 61.2305 45.234 61.2305 45.2987C61.2305 45.3635 61.2351 45.4328 61.2443 45.5068H60.7448L60.1019 44.1562C60.051 44.0591 60.0094 43.9666 59.9677 43.8787C59.9307 43.7908 59.8937 43.7076 59.8613 43.6336C59.829 43.5596 59.8012 43.4902 59.7735 43.4301C59.7503 43.3699 59.7272 43.3144 59.7087 43.2682C59.7087 43.3191 59.7087 43.3884 59.7087 43.4763C59.7087 43.5642 59.7133 43.6475 59.718 43.7353C59.718 43.8232 59.718 43.9019 59.7272 43.9712C59.7272 44.0406 59.7318 44.0869 59.7365 44.11V45.1137C59.7365 45.1831 59.7365 45.2478 59.7365 45.308C59.7365 45.3681 59.7457 45.4328 59.7503 45.5022H59.2739C59.2786 45.4375 59.2832 45.3727 59.2878 45.308C59.2878 45.2478 59.2924 45.1831 59.2924 45.1137V43.0277C59.2924 42.9537 59.2924 42.8889 59.2924 42.8334C59.2924 42.7779 59.2878 42.7085 59.2832 42.6299H59.8243L60.5228 44.0314C60.5922 44.1655 60.6523 44.3043 60.7078 44.443C60.7633 44.5818 60.8049 44.7113 60.8419 44.8269L60.8373 44.8315Z" fill="#231F20"/>
<path d="M63.7094 44.6423C63.7094 44.7625 63.6863 44.8782 63.6354 44.9892C63.5892 45.1002 63.5151 45.1973 63.4226 45.2806C63.3301 45.3684 63.2099 45.4332 63.0711 45.4841C62.9324 45.535 62.7705 45.5581 62.5901 45.5581C62.5068 45.5581 62.4236 45.5535 62.3403 45.5442C62.2571 45.535 62.1784 45.5165 62.1044 45.498C62.0258 45.4794 61.9472 45.4517 61.8732 45.4193C61.7991 45.3869 61.7251 45.3499 61.6558 45.3037L61.8361 44.9429C61.9055 44.9799 61.9703 45.0123 62.035 45.0447C62.0998 45.077 62.1645 45.1002 62.2339 45.114C62.2941 45.1372 62.3588 45.1511 62.4236 45.1603C62.4883 45.1696 62.5485 45.1742 62.6086 45.1742C62.6965 45.1742 62.7797 45.1649 62.8491 45.1418C62.9185 45.1233 62.9786 45.0909 63.0341 45.0493C63.0804 45.0123 63.1174 44.966 63.1451 44.9105C63.1729 44.855 63.1821 44.7903 63.1821 44.7163C63.1821 44.6654 63.1729 44.6191 63.1544 44.5775C63.1359 44.5359 63.1081 44.4943 63.0757 44.4572C63.0387 44.4249 62.9925 44.3925 62.9416 44.3647C62.8861 44.337 62.826 44.3139 62.7566 44.2907L62.4513 44.2029C62.3403 44.1751 62.2432 44.1335 62.1553 44.0872C62.072 44.041 62.0027 43.9808 61.9472 43.9161C61.8916 43.8513 61.8454 43.7819 61.8223 43.7033C61.7945 43.6247 61.7806 43.5368 61.7806 43.435C61.7806 43.3148 61.8038 43.2038 61.85 43.102C61.8963 43.0003 61.961 42.9078 62.0443 42.8291C62.1275 42.7551 62.2293 42.695 62.3496 42.6487C62.4698 42.6071 62.604 42.584 62.752 42.584C62.9231 42.584 63.0804 42.6071 63.233 42.6534C63.381 42.6996 63.5244 42.7644 63.6539 42.8569L63.4458 43.1945C63.3209 43.1205 63.2006 43.0696 63.0896 43.0326C62.9786 42.9956 62.8722 42.9818 62.7658 42.9818C62.6918 42.9818 62.6271 42.991 62.5716 43.0095C62.5114 43.028 62.4652 43.0558 62.4236 43.0881C62.3819 43.1251 62.3496 43.1668 62.3264 43.213C62.3033 43.2593 62.2941 43.3148 62.2941 43.3703C62.2941 43.4212 62.3033 43.4628 62.3218 43.4998C62.3403 43.5368 62.3727 43.5692 62.4097 43.5969C62.4467 43.6293 62.4837 43.6524 62.53 43.6709C62.5762 43.6894 62.6271 43.7079 62.678 43.7218L63.0202 43.819C63.1359 43.856 63.2376 43.8976 63.3301 43.9485C63.418 43.9993 63.492 44.0595 63.5521 44.1242C63.6077 44.1936 63.6539 44.2722 63.6817 44.3555C63.7094 44.4387 63.7233 44.5359 63.7233 44.6376L63.7094 44.6423Z" fill="#231F20"/>
<path d="M64.69 43.0187V45.1093C64.69 45.1787 64.69 45.2481 64.69 45.3082C64.69 45.373 64.6992 45.4377 64.7038 45.5025H64.1904C64.1904 45.4377 64.1997 45.3683 64.2043 45.3082C64.2043 45.2435 64.2089 45.1787 64.2089 45.1093V43.0187C64.2089 42.9493 64.2089 42.8845 64.2043 42.829C64.2043 42.7689 64.1951 42.7041 64.1904 42.6348H64.7038C64.6946 42.7041 64.69 42.7643 64.69 42.829C64.69 42.8892 64.69 42.9539 64.69 43.0187Z" fill="#231F20"/>
<path d="M66.392 45.553C66.207 45.553 66.0359 45.5206 65.8879 45.4559C65.7398 45.3911 65.615 45.294 65.5086 45.1691C65.4022 45.0442 65.3189 44.8916 65.2634 44.7066C65.2079 44.5215 65.1802 44.3134 65.1802 44.0729C65.1802 43.8324 65.2079 43.6242 65.2681 43.4392C65.3282 43.2542 65.4114 43.1016 65.5178 42.9721C65.6242 42.8472 65.7491 42.7547 65.8925 42.6899C66.0405 42.6252 66.1978 42.5928 66.3735 42.5928C66.5493 42.5928 66.7065 42.6252 66.8499 42.6899C66.9979 42.7547 67.1228 42.8472 67.2338 42.9721C67.3402 43.1016 67.4188 43.2542 67.479 43.4392C67.5345 43.6242 67.5669 43.837 67.5669 44.0775C67.5669 44.318 67.5391 44.5077 67.4882 44.6927C67.4373 44.8731 67.3587 45.0303 67.2662 45.1552C67.1644 45.2847 67.0442 45.3819 66.8962 45.4512C66.7482 45.5206 66.5817 45.553 66.3966 45.553H66.392ZM66.3828 45.1922C66.4938 45.1922 66.5909 45.1691 66.6695 45.1228C66.7528 45.0766 66.8222 45.0072 66.8777 44.9147C66.9332 44.8268 66.9748 44.7112 67.0026 44.577C67.0303 44.4429 67.0442 44.2856 67.0442 44.1099C67.0442 43.9156 67.0303 43.7491 67.0026 43.6104C66.9748 43.467 66.9332 43.3467 66.8777 43.2496C66.8222 43.1571 66.7482 43.0877 66.6649 43.0414C66.5817 42.9952 66.4799 42.9721 66.3689 42.9721C66.2579 42.9721 66.1561 42.9952 66.0729 43.0414C65.985 43.0877 65.9156 43.1571 65.8601 43.2449C65.8 43.3375 65.7537 43.4531 65.726 43.5872C65.6982 43.7214 65.6843 43.8786 65.6843 44.059C65.6843 44.2533 65.6982 44.4198 65.7306 44.5585C65.7583 44.7019 65.8046 44.8176 65.8647 44.9147C65.9202 45.0118 65.9942 45.0858 66.0821 45.1321C66.17 45.1783 66.2671 45.2015 66.3828 45.2015V45.1922Z" fill="#231F20"/>
<path d="M69.5929 44.8315C69.5929 44.776 69.5837 44.702 69.579 44.6142C69.579 44.5263 69.5698 44.4384 69.5652 44.3459C69.5652 44.258 69.5605 44.1794 69.5559 44.1054C69.5559 44.0314 69.5513 43.9805 69.5513 43.9481V43.0184C69.5513 42.949 69.5513 42.8843 69.5513 42.8288C69.5513 42.7686 69.542 42.7039 69.5374 42.6345H70.0046C69.9953 42.7039 69.9907 42.764 69.9907 42.8288C69.9907 42.8889 69.9907 42.9537 69.9907 43.0184V45.0767C69.9907 45.1599 69.9907 45.234 69.9907 45.2987C69.9907 45.3635 69.9953 45.4328 70.0046 45.5068H69.505L68.8621 44.1562C68.8112 44.0591 68.7696 43.9666 68.728 43.8787C68.691 43.7908 68.654 43.7076 68.6216 43.6336C68.5892 43.5596 68.5615 43.4902 68.5337 43.4301C68.5106 43.3699 68.4875 43.3144 68.469 43.2682C68.469 43.3191 68.469 43.3884 68.469 43.4763C68.469 43.5642 68.469 43.6475 68.4782 43.7353C68.4782 43.8232 68.4828 43.9019 68.4875 43.9712C68.4875 44.0406 68.4921 44.0869 68.4967 44.11V45.1137C68.4967 45.1831 68.4967 45.2478 68.4967 45.308C68.4967 45.3681 68.5013 45.4328 68.5106 45.5022H68.0342C68.0388 45.4375 68.0434 45.3727 68.0481 45.308C68.0481 45.2478 68.0527 45.1831 68.0527 45.1137V43.0277C68.0527 42.9537 68.0527 42.8889 68.0527 42.8334C68.0527 42.7779 68.0481 42.7085 68.0434 42.6299H68.58L69.2784 44.0314C69.3478 44.1655 69.4079 44.3043 69.4634 44.443C69.5189 44.5818 69.5605 44.7113 69.5975 44.8269L69.5929 44.8315Z" fill="#231F20"/>
</g>
<defs>
<linearGradient id="paint0_linear_1962_20636" x1="31.7897" y1="24.0637" x2="27.9876" y2="14.5124" gradientUnits="userSpaceOnUse">
<stop stop-color="#367AAD"/>
<stop offset="0.69" stop-color="#2E8989"/>
<stop offset="0.98" stop-color="#255E5F"/>
</linearGradient>
<linearGradient id="paint1_linear_1962_20636" x1="29.9166" y1="26.02" x2="29.9166" y2="6.53809" gradientUnits="userSpaceOnUse">
<stop stop-color="#2C5698"/>
<stop offset="0.4" stop-color="#44A79D"/>
<stop offset="0.6" stop-color="#43B0A3"/>
<stop offset="1" stop-color="#7CC249"/>
</linearGradient>
<linearGradient id="paint2_linear_1962_20636" x1="29.0284" y1="23.4716" x2="35.527" y2="10.7334" gradientUnits="userSpaceOnUse">
<stop stop-color="#D5D7D8"/>
<stop offset="0.72" stop-color="#5C5D60"/>
<stop offset="0.84" stop-color="white"/>
</linearGradient>
<linearGradient id="paint3_linear_1962_20636" x1="33.0802" y1="18.8693" x2="33.0802" y2="9.27637" gradientUnits="userSpaceOnUse">
<stop stop-color="#6E6F72"/>
<stop offset="0.5" stop-color="#4C4C4E"/>
<stop offset="0.54" stop-color="#525355"/>
<stop offset="0.67" stop-color="#626265"/>
<stop offset="0.81" stop-color="#6B6C6F"/>
<stop offset="1" stop-color="#6E6F72"/>
</linearGradient>
<linearGradient id="paint4_linear_1962_20636" x1="33.0802" y1="9.27637" x2="33.0802" y2="18.8693" gradientUnits="userSpaceOnUse">
<stop stop-color="white"/>
<stop offset="0.2" stop-color="white"/>
<stop offset="0.34" stop-color="white"/>
<stop offset="0.35" stop-color="white"/>
<stop offset="0.51" stop-color="white"/>
<stop offset="0.52" stop-color="#E1E2E1"/>
<stop offset="0.55" stop-color="#B8B9B8"/>
<stop offset="0.57" stop-color="#939393"/>
<stop offset="0.6" stop-color="#727372"/>
<stop offset="0.63" stop-color="#575857"/>
<stop offset="0.66" stop-color="#414241"/>
<stop offset="0.7" stop-color="#303130"/>
<stop offset="0.75" stop-color="#242524"/>
<stop offset="0.81" stop-color="#1D1E1D"/>
<stop offset="1" stop-color="#1C1D1C"/>
</linearGradient>
<linearGradient id="paint5_linear_1962_20636" x1="34.4447" y1="17.491" x2="31.9285" y2="8.06915" gradientUnits="userSpaceOnUse">
<stop stop-color="#35927B"/>
<stop offset="0.16" stop-color="#006664"/>
<stop offset="0.22" stop-color="#008B95"/>
<stop offset="0.51" stop-color="#006060"/>
<stop offset="0.98" stop-color="#528142"/>
</linearGradient>
<linearGradient id="paint6_linear_1962_20636" x1="33.7973" y1="2.32867" x2="42.7982" y2="16.251" gradientUnits="userSpaceOnUse">
<stop stop-color="white"/>
<stop offset="0.62" stop-color="#A9AAAD"/>
<stop offset="0.63" stop-color="white"/>
<stop offset="0.98" stop-color="#E6E7E8"/>
</linearGradient>
<linearGradient id="paint7_linear_1962_20636" x1="36.2811" y1="10.7977" x2="36.2811" y2="3.11035" gradientUnits="userSpaceOnUse">
<stop stop-color="#9FA0A4"/>
<stop offset="0.5" stop-color="#828286"/>
<stop offset="0.51" stop-color="#838387"/>
<stop offset="0.64" stop-color="#929397"/>
<stop offset="0.8" stop-color="#9C9DA1"/>
<stop offset="1" stop-color="#9FA0A4"/>
</linearGradient>
<linearGradient id="paint8_linear_1962_20636" x1="36.2811" y1="3.11035" x2="36.2811" y2="10.7977" gradientUnits="userSpaceOnUse">
<stop stop-color="white"/>
<stop offset="0.2" stop-color="white"/>
<stop offset="0.34" stop-color="white"/>
<stop offset="0.35" stop-color="white"/>
<stop offset="0.51" stop-color="white"/>
<stop offset="0.52" stop-color="#E1E2E1"/>
<stop offset="0.55" stop-color="#B8B9B8"/>
<stop offset="0.57" stop-color="#939393"/>
<stop offset="0.6" stop-color="#727372"/>
<stop offset="0.63" stop-color="#575857"/>
<stop offset="0.66" stop-color="#414241"/>
<stop offset="0.7" stop-color="#303130"/>
<stop offset="0.75" stop-color="#242524"/>
<stop offset="0.81" stop-color="#1D1E1D"/>
<stop offset="1" stop-color="#1C1D1C"/>
</linearGradient>
<linearGradient id="paint9_linear_1962_20636" x1="38.205" y1="9.73017" x2="44.8285" y2="20.5026" gradientUnits="userSpaceOnUse">
<stop stop-color="white"/>
<stop offset="0.63" stop-color="#B6B6B9"/>
<stop offset="0.71" stop-color="#808285"/>
<stop offset="0.98" stop-color="#D1D3D4"/>
</linearGradient>
<linearGradient id="paint10_linear_1962_20636" x1="43.0666" y1="14.6655" x2="42.7243" y2="18.0744" gradientUnits="userSpaceOnUse">
<stop stop-color="#8A8B8E"/>
<stop offset="0.17" stop-color="#848488"/>
<stop offset="0.78" stop-color="#27292A"/>
</linearGradient>
<linearGradient id="paint11_linear_1962_20636" x1="43.8622" y1="14.0084" x2="42.2757" y2="11.5107" gradientUnits="userSpaceOnUse">
<stop stop-color="#8A8B8E"/>
<stop offset="0.17" stop-color="#848488"/>
<stop offset="0.84" stop-color="#27292A"/>
<stop offset="1" stop-color="white"/>
</linearGradient>
<linearGradient id="paint12_linear_1962_20636" x1="40.1524" y1="20.0304" x2="38.6492" y2="17.7825" gradientUnits="userSpaceOnUse">
<stop stop-color="#4A4C4E"/>
<stop offset="0.49" stop-color="#131517"/>
<stop offset="1" stop-color="white"/>
</linearGradient>
<linearGradient id="paint13_linear_1962_20636" x1="39.8798" y1="19.2446" x2="38.0482" y2="17.5795" gradientUnits="userSpaceOnUse">
<stop offset="0.84" stop-color="#27292A"/>
<stop offset="1" stop-color="white"/>
</linearGradient>
<linearGradient id="paint14_linear_1962_20636" x1="37.359" y1="6.76515" x2="37.2757" y2="3.60141" gradientUnits="userSpaceOnUse">
<stop stop-color="#8A8B8E"/>
<stop offset="0.17" stop-color="#848488"/>
<stop offset="0.22" stop-color="#737477"/>
<stop offset="0.31" stop-color="#57585B"/>
<stop offset="0.42" stop-color="#424345"/>
<stop offset="0.53" stop-color="#323436"/>
<stop offset="0.66" stop-color="#292B2C"/>
<stop offset="0.84" stop-color="#27292A"/>
<stop offset="1" stop-color="white"/>
</linearGradient>
<linearGradient id="paint15_linear_1962_20636" x1="31.7575" y1="8.32392" x2="37.7474" y2="8.32392" gradientUnits="userSpaceOnUse">
<stop stop-color="#848488"/>
<stop offset="0.36" stop-color="#27292A"/>
</linearGradient>
<linearGradient id="paint16_linear_1962_20636" x1="34.3338" y1="10.428" x2="24.0748" y2="5.7194" gradientUnits="userSpaceOnUse">
<stop stop-color="#528142"/>
<stop offset="0.98" stop-color="#7AB74A"/>
</linearGradient>
<linearGradient id="paint17_linear_1962_20636" x1="26.8825" y1="6.55669" x2="31.5726" y2="6.55669" gradientUnits="userSpaceOnUse">
<stop stop-color="#8A8B8E"/>
<stop offset="0.04" stop-color="#848488"/>
<stop offset="0.61" stop-color="#27292A"/>
</linearGradient>
<linearGradient id="paint18_linear_1962_20636" x1="33.2929" y1="21.3348" x2="25.4437" y2="15.3681" gradientUnits="userSpaceOnUse">
<stop stop-color="#263E8E"/>
<stop offset="0.62" stop-color="#44A79D"/>
<stop offset="0.7" stop-color="#2768A2"/>
<stop offset="0.98" stop-color="#337FB7"/>
</linearGradient>
<linearGradient id="paint19_linear_1962_20636" x1="32.8213" y1="15.4932" x2="35.1756" y2="19.1611" gradientUnits="userSpaceOnUse">
<stop stop-color="#245C5D"/>
<stop offset="0.51" stop-color="#479A92"/>
<stop offset="0.79" stop-color="#46A097"/>
</linearGradient>
<linearGradient id="paint20_linear_1962_20636" x1="30.939" y1="14.9799" x2="37.0074" y2="22.5192" gradientUnits="userSpaceOnUse">
<stop offset="0.03" stop-color="#6CBFCE"/>
<stop offset="0.41" stop-color="#44A79D"/>
<stop offset="0.76" stop-color="#2B5290"/>
<stop offset="0.98" stop-color="#2E5C90"/>
</linearGradient>
<linearGradient id="paint21_linear_1962_20636" x1="42.3312" y1="12.6853" x2="43.9963" y2="14.85" gradientUnits="userSpaceOnUse">
<stop stop-color="#8A8B8E"/>
<stop offset="0.42" stop-color="#78797C"/>
<stop offset="0.53" stop-color="#848488"/>
<stop offset="0.55" stop-color="white"/>
</linearGradient>
<linearGradient id="paint22_linear_1962_20636" x1="29.8844" y1="25.9556" x2="29.8844" y2="6.47363" gradientUnits="userSpaceOnUse">
<stop stop-color="#2C5698"/>
<stop offset="0.4" stop-color="#44A79D"/>
<stop offset="0.6" stop-color="#43B0A3"/>
<stop offset="1" stop-color="#7CC249"/>
</linearGradient>
<clipPath id="clip0_1962_20636">
<rect width="70" height="42.5809" fill="white" transform="translate(0 3)"/>
</clipPath>
</defs>
</svg>
