<svg width="67" height="80" viewBox="0 0 67 80" fill="none" xmlns="http://www.w3.org/2000/svg">
<g clip-path="url(#clip0_546_1225)">
<path d="M47.327 35.3253V61.083L31.02 70.4999V44.7405L47.327 35.3253Z" fill="url(#paint0_linear_546_1225)"/>
<path d="M19 35.7622C19.0018 37.023 19.8364 38.282 21.5003 39.2445L31.0202 44.7405V70.5L21.5003 65.004C19.6126 63.9136 18.794 62.438 19.0444 61.0156H19V35.7622V35.7622Z" fill="url(#paint1_linear_546_1225)"/>
<path d="M19.6251 33.9012C19.6411 33.8799 19.657 33.8585 19.673 33.8372C19.7103 33.7857 19.7494 33.7325 19.7902 33.681C19.8293 33.6312 19.8737 33.5833 19.9163 33.5336C19.9358 33.5105 19.9554 33.4874 19.9749 33.4643C20.3656 33.0346 20.8734 32.6315 21.4985 32.271L31.7678 26.3417L47.3272 35.3236L31.0202 44.7387L21.5003 39.2427C19.8364 38.282 19.0018 37.023 19 35.7622V35.7533C19 35.1229 19.2095 34.4925 19.6251 33.8994V33.9012Z" fill="url(#paint2_linear_546_1225)"/>
<path d="M33.7335 47.8144C33.6359 47.8144 33.54 47.7629 33.4867 47.6724C33.4086 47.5356 33.4547 47.3616 33.5915 47.2835L44.5587 40.951C44.6954 40.8729 44.8694 40.9191 44.9476 41.0558C45.0257 41.1925 44.9795 41.3666 44.8428 41.4447L33.8756 47.7771C33.8312 47.8038 33.7815 47.8144 33.7335 47.8144Z" fill="white"/>
<path d="M33.7335 50.9807C33.6359 50.9807 33.54 50.9292 33.4867 50.8386C33.4086 50.7019 33.4547 50.5279 33.5915 50.4497L44.5587 44.1173C44.6954 44.0392 44.8694 44.0853 44.9476 44.2221C45.0257 44.3588 44.9795 44.5328 44.8428 44.611L33.8756 50.9434C33.8312 50.97 33.7815 50.9807 33.7335 50.9807Z" fill="white"/>
<path d="M33.7335 54.1468C33.6359 54.1468 33.54 54.0953 33.4867 54.0048C33.4086 53.868 33.4547 53.694 33.5915 53.6159L44.5587 47.2834C44.6954 47.2053 44.8694 47.2515 44.9476 47.3882C45.0257 47.5249 44.9795 47.699 44.8428 47.7771L33.8756 54.1095C33.8312 54.1362 33.7815 54.1468 33.7335 54.1468Z" fill="white"/>
<path d="M33.7335 57.3131C33.6359 57.3131 33.54 57.2616 33.4867 57.171C33.4086 57.0343 33.4547 56.8603 33.5915 56.7821L44.5587 50.4497C44.6954 50.3716 44.8694 50.4177 44.9476 50.5545C45.0257 50.6912 44.9795 50.8652 44.8428 50.9434L33.8756 57.2758C33.8312 57.3024 33.7815 57.3131 33.7335 57.3131Z" fill="white"/>
<path d="M33.7335 60.4792C33.6359 60.4792 33.54 60.4277 33.4867 60.3372C33.4086 60.2004 33.4547 60.0264 33.5915 59.9483L44.5587 53.6158C44.6954 53.5377 44.8694 53.5839 44.9476 53.7206C45.0257 53.8573 44.9795 54.0314 44.8428 54.1095L33.8756 60.4419C33.8312 60.4686 33.7815 60.4792 33.7335 60.4792Z" fill="white"/>
<path d="M33.7335 63.6455C33.6359 63.6455 33.54 63.594 33.4867 63.5034C33.4086 63.3667 33.4547 63.1927 33.5915 63.1145L44.5587 56.7821C44.6954 56.704 44.8694 56.7501 44.9476 56.8869C45.0257 57.0236 44.9795 57.1976 44.8428 57.2758L33.8756 63.6082C33.8312 63.6348 33.7815 63.6455 33.7335 63.6455Z" fill="white"/>
<path d="M28.5376 47.438C28.4878 47.438 28.4399 47.4255 28.3937 47.3989L20.9603 43.0269C20.8253 42.947 20.7792 42.773 20.8591 42.638C20.939 42.5031 21.113 42.4569 21.248 42.5368L28.6814 46.9088C28.8164 46.9887 28.8625 47.1627 28.7826 47.2977C28.7293 47.3882 28.6352 47.438 28.5376 47.438Z" fill="white"/>
<path d="M28.5376 50.6042C28.4878 50.6042 28.4399 50.5918 28.3937 50.5652L20.9603 46.1932C20.8253 46.1133 20.7792 45.9393 20.8591 45.8043C20.939 45.6693 21.113 45.6232 21.248 45.7031L28.6814 50.075C28.8164 50.155 28.8625 50.329 28.7826 50.4639C28.7293 50.5545 28.6352 50.6042 28.5376 50.6042Z" fill="white"/>
<path d="M28.5376 53.7704C28.4878 53.7704 28.4399 53.7579 28.3937 53.7313L20.9603 49.3593C20.8253 49.2794 20.7792 49.1054 20.8591 48.9704C20.939 48.8355 21.113 48.7893 21.248 48.8692L28.6814 53.2412C28.8164 53.3211 28.8625 53.4951 28.7826 53.6301C28.7293 53.7206 28.6352 53.7704 28.5376 53.7704Z" fill="white"/>
<path d="M28.5376 56.9366C28.4878 56.9366 28.4399 56.9242 28.3937 56.8976L20.9603 52.5256C20.8253 52.4457 20.7792 52.2717 20.8591 52.1367C20.939 52.0017 21.113 51.9556 21.248 52.0355L28.6814 56.4074C28.8164 56.4874 28.8625 56.6614 28.7826 56.7963C28.7293 56.8869 28.6352 56.9366 28.5376 56.9366Z" fill="white"/>
<path d="M28.5376 60.1028C28.4878 60.1028 28.4399 60.0903 28.3937 60.0637L20.9603 55.6917C20.8253 55.6118 20.7792 55.4378 20.8591 55.3028C20.939 55.1679 21.113 55.1217 21.248 55.2016L28.6814 59.5736C28.8164 59.6535 28.8625 59.8275 28.7826 59.9625C28.7293 60.053 28.6352 60.1028 28.5376 60.1028Z" fill="white"/>
<path d="M28.5376 63.2673C28.4878 63.2673 28.4399 63.2549 28.3937 63.2283L20.9603 58.8563C20.8253 58.7764 20.7792 58.6023 20.8591 58.4674C20.939 58.3324 21.113 58.2863 21.248 58.3662L28.6814 62.7381C28.8164 62.818 28.8625 62.9921 28.7826 63.127C28.7293 63.2176 28.6352 63.2673 28.5376 63.2673Z" fill="white"/>
<path d="M37.0688 39.2854L35.8506 39.9939C35.95 39.9353 36.0122 39.8128 36.0122 39.637L37.2304 38.9285C37.2304 39.1043 37.1682 39.2268 37.0688 39.2854Z" fill="#009DE0"/>
<path d="M35.3888 17.612C35.5663 17.715 35.7102 17.9618 35.7084 18.166L35.6498 39.154C35.6498 39.3582 35.506 39.4399 35.3266 39.3369L25.432 33.6242C25.2544 33.5212 25.1105 33.2744 25.1123 33.0702L25.1727 12.084C25.1727 11.8798 25.3165 11.7981 25.4941 11.9011L27.57 13.0998C27.7138 13.1832 27.831 13.3857 27.831 13.5508C27.831 13.7177 27.9465 13.9184 28.0903 14.0018L32.789 16.7152C32.9328 16.7987 33.0518 16.7312 33.0518 16.5661C33.0518 16.3991 33.169 16.3334 33.3146 16.4169L35.3888 17.6138V17.612Z" fill="url(#paint3_linear_546_1225)"/>
<path d="M36.7387 16.4382L26.5883 10.5764C26.4338 10.4876 26.2935 10.4787 26.1923 10.5373L24.9741 11.2459C25.0753 11.1873 25.2156 11.1961 25.3701 11.2849L35.5205 17.145C35.8277 17.3226 36.0745 17.7505 36.0745 18.1039L37.2927 17.3954C37.2927 17.042 37.0459 16.614 36.7387 16.4365V16.4382Z" fill="url(#paint4_linear_546_1225)"/>
<path d="M35.5203 17.145C35.8275 17.3226 36.0743 17.7506 36.0743 18.104L36.0139 39.6371C36.0139 39.9904 35.7636 40.1325 35.4564 39.9549L25.306 34.0948C24.9988 33.9173 24.7502 33.4875 24.752 33.1359L24.8123 11.6028C24.8123 11.2495 25.0627 11.1074 25.3699 11.2867L35.5203 17.1468V17.145ZM35.6499 39.154L35.7085 18.1661C35.7085 17.9619 35.5665 17.7133 35.3889 17.6121L33.3148 16.4152C33.1709 16.3317 33.052 16.3992 33.052 16.5644C33.052 16.7313 32.9347 16.797 32.7891 16.7135L28.0904 14.0001C27.9466 13.9167 27.8312 13.716 27.8312 13.5491C27.8312 13.3822 27.7157 13.1815 27.5701 13.098L25.4942 11.8994C25.3167 11.7964 25.1728 11.8781 25.1728 12.0823L25.1124 33.0684C25.1124 33.2727 25.2545 33.5213 25.4321 33.6225L35.3267 39.3352C35.5043 39.4382 35.6481 39.3565 35.6499 39.1523" fill="url(#paint5_linear_546_1225)"/>
<path d="M36.0726 18.1039L37.2925 17.3954L37.2304 38.9285L36.0122 39.637L36.0726 18.1039Z" fill="url(#paint6_linear_546_1225)"/>
<path d="M28.2291 23.9037L29.6532 23.0762C29.2537 23.3088 29.0051 23.8025 29.0033 24.5057C28.9997 25.9227 29.996 27.6488 31.2283 28.3609C31.8499 28.7196 32.4128 28.7533 32.8194 28.5172L31.3953 29.3447C30.9886 29.5808 30.4257 29.5471 29.8042 29.1884C28.5718 28.4763 27.5738 26.7503 27.5791 25.3332C27.5809 24.63 27.8277 24.1363 28.2291 23.9037Z" fill="url(#paint7_linear_546_1225)"/>
<path d="M28.4811 22.2504L29.907 21.4229L29.9017 22.9713L28.4775 23.7988L28.4811 22.2504Z" fill="url(#paint8_linear_546_1225)"/>
<path d="M27.3979 22.4724L28.8221 21.6449C29.1311 21.4655 29.4969 21.3874 29.9053 21.4229L28.4812 22.2504C28.0745 22.2167 27.7069 22.2931 27.3979 22.4724Z" fill="url(#paint9_linear_546_1225)"/>
<path d="M29.8289 21.137C30.1219 21.3057 30.358 21.7159 30.358 22.0533L30.3456 26.7378C30.3456 27.0752 30.1059 27.2102 29.8129 27.0415C29.5181 26.871 29.2837 26.4626 29.2837 26.1252L29.2961 21.4407C29.2961 21.1033 29.5341 20.9665 29.8289 21.137Z" fill="url(#paint10_linear_546_1225)"/>
<path d="M31.2531 20.3077C31.1057 20.2225 30.9725 20.2136 30.8749 20.2704L29.4507 21.0979C29.5466 21.0411 29.6798 21.05 29.8289 21.1352C30.1219 21.3039 30.3581 21.7141 30.3581 22.0515L30.3457 26.736C30.3457 26.9029 30.2853 27.0201 30.1912 27.077L31.6154 26.2495C31.7112 26.1944 31.7699 26.0772 31.7699 25.9085L31.7823 21.224C31.7823 20.8866 31.5461 20.4764 31.2531 20.3077Z" fill="url(#paint11_linear_546_1225)"/>
<path d="M33.6505 29.9449L32.2263 30.7724C32.8372 30.4172 33.2172 29.6625 33.2189 28.5882C33.2243 26.9722 32.3772 25.097 31.1626 23.7971L32.5868 22.9696C33.8014 24.2695 34.6485 26.1465 34.6431 27.7607C34.6396 28.8332 34.2613 29.5897 33.6505 29.9449Z" fill="url(#paint12_linear_546_1225)"/>
<path d="M31.1624 23.7989C32.3771 25.0988 33.2241 26.9757 33.2188 28.5899C33.2134 30.7511 31.6827 31.6212 29.8004 30.5362C27.9181 29.4494 26.398 26.8177 26.4033 24.6566C26.4087 23.0406 27.2646 22.1492 28.481 22.2522L28.4774 23.8007C27.9341 23.9552 27.5825 24.4968 27.5789 25.3349C27.5753 26.752 28.5716 28.4781 29.8039 29.1901C31.0381 29.9022 32.0414 29.3304 32.045 27.9134C32.0468 27.0734 31.6969 26.1269 31.1571 25.3474L31.1606 23.7989H31.1624Z" fill="url(#paint13_linear_546_1225)"/>
</g>
<defs>
<linearGradient id="paint0_linear_546_1225" x1="47.3288" y1="52.9126" x2="18.9998" y2="52.9126" gradientUnits="userSpaceOnUse">
<stop stop-color="#003CCF"/>
<stop offset="1" stop-color="#55CDED"/>
</linearGradient>
<linearGradient id="paint1_linear_546_1225" x1="24.8175" y1="45.1667" x2="25.5224" y2="74.0782" gradientUnits="userSpaceOnUse">
<stop stop-color="#BED9FD"/>
<stop offset="1" stop-color="white"/>
</linearGradient>
<linearGradient id="paint2_linear_546_1225" x1="30.3028" y1="28.588" x2="35.3798" y2="41.4216" gradientUnits="userSpaceOnUse">
<stop stop-color="#BED9FD"/>
<stop offset="1" stop-color="white"/>
</linearGradient>
<linearGradient id="paint3_linear_546_1225" x1="30.2248" y1="23.9125" x2="33.2063" y2="51.3269" gradientUnits="userSpaceOnUse">
<stop stop-color="white"/>
<stop offset="1" stop-color="#BED9FD"/>
</linearGradient>
<linearGradient id="paint4_linear_546_1225" x1="24.9723" y1="14.302" x2="37.2927" y2="14.302" gradientUnits="userSpaceOnUse">
<stop stop-color="#55CDED"/>
<stop offset="1" stop-color="#003CCF"/>
</linearGradient>
<linearGradient id="paint5_linear_546_1225" x1="24.7484" y1="25.6191" x2="36.0725" y2="25.6191" gradientUnits="userSpaceOnUse">
<stop stop-color="#55CDED"/>
<stop offset="1" stop-color="#3D75DA"/>
</linearGradient>
<linearGradient id="paint6_linear_546_1225" x1="36.0122" y1="28.5171" x2="37.2925" y2="28.5171" gradientUnits="userSpaceOnUse">
<stop stop-color="#55CDED"/>
<stop offset="1" stop-color="#003CCF"/>
</linearGradient>
<linearGradient id="paint7_linear_546_1225" x1="27.5791" y1="26.2868" x2="32.8212" y2="26.2868" gradientUnits="userSpaceOnUse">
<stop stop-color="#BED9FD"/>
<stop offset="1" stop-color="white"/>
</linearGradient>
<linearGradient id="paint8_linear_546_1225" x1="28.4775" y1="22.6108" x2="29.907" y2="22.6108" gradientUnits="userSpaceOnUse">
<stop stop-color="#BED9FD"/>
<stop offset="1" stop-color="white"/>
</linearGradient>
<linearGradient id="paint9_linear_546_1225" x1="27.3979" y1="21.9432" x2="29.9071" y2="21.9432" gradientUnits="userSpaceOnUse">
<stop stop-color="#BED9FD"/>
<stop offset="1" stop-color="white"/>
</linearGradient>
<linearGradient id="paint10_linear_546_1225" x1="29.2837" y1="24.0883" x2="30.358" y2="24.0883" gradientUnits="userSpaceOnUse">
<stop stop-color="#55CDED"/>
<stop offset="1" stop-color="#003CCF"/>
</linearGradient>
<linearGradient id="paint11_linear_546_1225" x1="29.4507" y1="23.6568" x2="31.7823" y2="23.6568" gradientUnits="userSpaceOnUse">
<stop stop-color="#BED9FD"/>
<stop offset="1" stop-color="white"/>
</linearGradient>
<linearGradient id="paint12_linear_546_1225" x1="31.1626" y1="26.8728" x2="34.6449" y2="26.8728" gradientUnits="userSpaceOnUse">
<stop stop-color="#BED9FD"/>
<stop offset="1" stop-color="white"/>
</linearGradient>
<linearGradient id="paint13_linear_546_1225" x1="26.4051" y1="26.6224" x2="33.2188" y2="26.6224" gradientUnits="userSpaceOnUse">
<stop stop-color="#55CDED"/>
<stop offset="1" stop-color="#003CCF"/>
</linearGradient>
<clipPath id="clip0_546_1225">
<rect width="28.3272" height="60" fill="white" transform="translate(19 10.5)"/>
</clipPath>
</defs>
</svg>
