<svg width="67" height="80" viewBox="0 0 67 80" fill="none" xmlns="http://www.w3.org/2000/svg">
<g clip-path="url(#clip0_546_1263)">
<path d="M51.3142 58.14V40.3217L14.3921 39.6929V57.139C14.3078 57.5931 14.5343 58.0401 15.0896 58.3617L31.7539 68.0099C32.8176 68.6255 34.6776 68.5508 35.9088 67.8425L50.2998 59.5567C51.0022 59.152 51.3455 58.6291 51.3154 58.14H51.3142Z" fill="url(#paint0_linear_546_1263)"/>
<path d="M51.3142 32.313C51.3034 32.778 50.9613 33.2659 50.2987 33.6466L35.9076 41.9324C34.6777 42.6407 32.8177 42.7154 31.7527 42.0998L15.0897 32.4516C14.6873 32.2191 14.4572 31.9203 14.3922 31.6011V39.4327C14.3078 39.8868 14.5331 40.3338 15.0897 40.6554L31.7539 50.3036C32.8177 50.9192 34.6777 50.8445 35.9089 50.1362L50.2999 41.8504C51.0022 41.4457 51.3456 40.9228 51.3154 40.4337V32.3118L51.3142 32.313Z" fill="url(#paint1_linear_546_1263)"/>
<path d="M51.3144 32.2299C51.2915 31.8625 51.0566 31.5132 50.6 31.2481L33.937 21.6011C32.8732 20.9855 31.0132 21.0602 29.782 21.7686L15.391 30.0543C14.626 30.4952 14.2851 31.0771 14.3923 31.6023C14.4574 31.9215 14.6875 32.2203 15.0898 32.4528L31.7541 42.101C32.8178 42.7166 34.6778 42.6419 35.909 41.9336L50.3 33.6478C50.9626 33.266 51.3047 32.7793 51.3156 32.3143V32.2311L51.3144 32.2299Z" fill="url(#paint2_linear_546_1263)"/>
<path d="M45.5587 20.3868L45.5237 32.5805L29.7847 23.4924L29.8184 11.2999L45.5587 20.3868Z" fill="url(#paint3_linear_546_1263)"/>
<path d="M45.6033 19.9555C45.7985 20.0687 45.9563 20.3422 45.9563 20.5662L45.9214 32.8599C45.9214 33.084 45.7611 33.1744 45.566 33.0623L29.7402 23.9249C29.545 23.8116 29.3872 23.5394 29.3872 23.3141L29.4221 11.0204C29.4221 10.7963 29.5812 10.7048 29.7775 10.818L45.6045 19.9555H45.6033ZM45.5238 32.5793L45.5588 20.3867L29.8185 11.2999L29.7835 23.4924L45.5226 32.5793" fill="url(#paint4_linear_546_1263)"/>
<path d="M46.4202 20.2964C46.4202 20.2964 46.4202 20.2856 46.4202 20.2808C46.4202 20.2747 46.4202 20.2699 46.4202 20.2639C46.4202 20.2615 46.4202 20.2591 46.4202 20.2567V20.247C46.4202 20.247 46.4178 20.235 46.4178 20.2302C46.4178 20.2241 46.4166 20.2181 46.4154 20.2121C46.4154 20.2049 46.4142 20.2001 46.413 20.194C46.413 20.188 46.4106 20.182 46.4094 20.176C46.4094 20.1735 46.4094 20.1711 46.4082 20.1699V20.1663C46.4082 20.1663 46.4058 20.1615 46.4058 20.1579C46.4046 20.1519 46.4022 20.1458 46.401 20.1386C46.3997 20.1338 46.3985 20.129 46.3973 20.1254V20.1205C46.3937 20.1145 46.3925 20.1085 46.3901 20.1025C46.3877 20.0964 46.3865 20.0904 46.3841 20.0844V20.0808L46.3817 20.0784C46.3817 20.0784 46.3793 20.0712 46.3781 20.0675C46.3757 20.0615 46.3732 20.0555 46.3708 20.0507C46.3696 20.0471 46.3672 20.0422 46.366 20.0386V20.0362L46.3636 20.0338C46.3636 20.0338 46.3588 20.023 46.3564 20.0169C46.354 20.0109 46.3504 20.0049 46.3479 19.9977V19.9953L46.3443 19.9916C46.3443 19.9916 46.3395 19.982 46.3371 19.9772C46.3335 19.9712 46.3299 19.9651 46.3275 19.9591C46.3263 19.9555 46.3239 19.9531 46.3226 19.9495L46.3202 19.9459C46.3202 19.9459 46.3142 19.9362 46.3106 19.9302C46.3058 19.923 46.301 19.9145 46.2961 19.9073L46.2937 19.9037C46.2865 19.8929 46.2793 19.8832 46.2721 19.8724C46.2672 19.8639 46.2612 19.8567 46.2564 19.8507C46.2516 19.8459 46.248 19.8399 46.2431 19.835C46.2383 19.829 46.2347 19.823 46.2299 19.8182C46.2251 19.8134 46.2203 19.8073 46.2166 19.8025L46.2142 19.8001L46.2118 19.7977C46.2118 19.7977 46.2058 19.7905 46.2022 19.7868C46.1974 19.782 46.1925 19.7772 46.1877 19.7724L46.1829 19.7688L46.1793 19.7652C46.1793 19.7652 46.1745 19.7603 46.1721 19.7579C46.1672 19.7531 46.1612 19.7483 46.1564 19.7447C46.154 19.7423 46.1516 19.7411 46.1492 19.7387L46.1456 19.7363L46.1407 19.7314C46.1407 19.7314 46.1299 19.723 46.1251 19.7194C46.1215 19.717 46.1179 19.7146 46.1142 19.711H46.1118L46.1094 19.7085C46.1094 19.7085 46.0998 19.7013 46.095 19.6989C46.0901 19.6953 46.0853 19.6929 46.0805 19.6893L46.0769 19.6869L30.2415 10.5482C30.2415 10.5482 30.2342 10.5434 30.2306 10.5422C30.2258 10.5398 30.221 10.5374 30.2162 10.535C30.2125 10.5337 30.2101 10.5325 30.2065 10.5301H30.2041L30.2017 10.5277C30.2017 10.5277 30.1921 10.5241 30.1872 10.5217C30.1824 10.5193 30.1776 10.5181 30.1728 10.5169H30.168C30.168 10.5169 30.1619 10.5133 30.1583 10.5121C30.1535 10.5109 30.1487 10.5097 30.1439 10.5084C30.1415 10.5084 30.1391 10.5084 30.1366 10.5072H30.1294C30.1294 10.5072 30.1186 10.5036 30.1138 10.5024C30.1101 10.5024 30.1077 10.5024 30.1041 10.5024H30.0981C30.0981 10.5024 30.0873 10.5012 30.0812 10.5012C30.0788 10.5012 30.0764 10.5012 30.074 10.5012H30.068C30.068 10.5012 30.0644 10.5012 30.062 10.5012C30.0547 10.5012 30.0487 10.5024 30.0415 10.5036C30.0415 10.5036 30.0391 10.5036 30.0379 10.5048C30.0306 10.506 30.0246 10.5084 30.0174 10.5109H30.0162C30.0065 10.5145 29.9981 10.5193 29.9897 10.5241L29.5259 10.794C29.5343 10.7891 29.5439 10.7843 29.5524 10.7819C29.5596 10.7795 29.5668 10.7771 29.5741 10.7759C29.5753 10.7759 29.5765 10.7759 29.5777 10.7759C29.5861 10.7747 29.5945 10.7735 29.6042 10.7723H29.6102C29.6186 10.7723 29.6283 10.7723 29.6367 10.7723H29.6403C29.65 10.7735 29.6596 10.7747 29.6692 10.7771H29.6728C29.6825 10.7795 29.6933 10.7831 29.7042 10.7867H29.7066C29.7174 10.7915 29.7283 10.7952 29.7403 10.8012H29.7427C29.7548 10.8072 29.7656 10.8132 29.7777 10.8205L45.6047 19.9579C45.6167 19.9651 45.6288 19.9724 45.6396 19.9808H45.642C45.6529 19.9892 45.6637 19.9977 45.6745 20.0061L45.6781 20.0085C45.6878 20.0169 45.6986 20.0254 45.7083 20.035L45.7119 20.0386C45.7215 20.0483 45.7312 20.0579 45.7408 20.0675L45.7432 20.0699C45.7528 20.0808 45.7637 20.0916 45.7733 20.1037C45.783 20.1157 45.7926 20.1278 45.8022 20.141C45.8107 20.1531 45.8191 20.1651 45.8263 20.1772C45.8311 20.1844 45.836 20.1928 45.8408 20.2001C45.8444 20.2061 45.8492 20.2121 45.8528 20.2193C45.854 20.2229 45.8564 20.2254 45.8576 20.229C45.8637 20.2398 45.8697 20.2506 45.8757 20.2615L45.8781 20.2651C45.8854 20.2784 45.8914 20.2928 45.8974 20.3061V20.3085C45.9046 20.3217 45.9094 20.3362 45.9143 20.3494V20.3518C45.9203 20.3663 45.9251 20.3795 45.9299 20.394V20.3964C45.9347 20.4097 45.9384 20.4229 45.942 20.4374V20.441C45.9456 20.4554 45.9492 20.4687 45.9516 20.4832C45.954 20.4976 45.9552 20.5121 45.9564 20.5253V20.5289C45.9576 20.5422 45.9588 20.5566 45.9588 20.5699L45.9239 32.8636C45.9239 32.8768 45.9239 32.8901 45.9215 32.9021V32.9058C45.9203 32.9178 45.9179 32.9286 45.9167 32.9383V32.9419C45.9143 32.9527 45.9107 32.9624 45.9082 32.9708V32.9756C45.9034 32.9841 45.8998 32.9925 45.8962 33.0009V33.0033C45.8914 33.0118 45.8866 33.0214 45.8805 33.0286C45.8733 33.0395 45.8649 33.0503 45.8564 33.0587C45.854 33.0612 45.8516 33.0636 45.8504 33.0648C45.8408 33.0732 45.8311 33.0816 45.8203 33.0877L46.2841 32.8178C46.2949 32.8118 46.3046 32.8034 46.3142 32.7949C46.3166 32.7925 46.319 32.7913 46.3202 32.7889C46.3287 32.7793 46.3371 32.7696 46.3443 32.7588C46.3492 32.7503 46.354 32.7431 46.3576 32.7347V32.7311C46.3576 32.7311 46.3636 32.7202 46.366 32.7142C46.366 32.7118 46.3684 32.7082 46.3684 32.7058V32.701C46.3684 32.701 46.3708 32.6973 46.372 32.6961C46.3732 32.6901 46.3757 32.6841 46.3769 32.6781C46.3769 32.6757 46.3769 32.6732 46.3781 32.6708V32.6672C46.3781 32.6672 46.3793 32.6624 46.3805 32.6612C46.3805 32.6552 46.3817 32.6504 46.3829 32.6443C46.3829 32.6407 46.3829 32.6383 46.3829 32.6347V32.6275C46.3829 32.6275 46.3841 32.6166 46.3841 32.6106C46.3841 32.6046 46.3841 32.5998 46.3841 32.5937L46.1516 32.7275L46.3841 32.5925L46.419 20.2988L46.4202 20.2964Z" fill="url(#paint5_linear_546_1263)"/>
<path d="M44.8794 33.4973C44.9421 33.5334 44.9433 33.5924 44.8794 33.6286L38.7585 37.186C38.6959 37.2221 38.5947 37.2221 38.5308 37.186L22.6002 27.9883C22.5376 27.9521 22.5376 27.8931 22.6002 27.857L28.7212 24.2996C28.7838 24.2634 28.8862 24.2634 28.9488 24.2996L44.8807 33.4985L44.8794 33.4973ZM36.3239 34.3393L37.1756 33.8442C37.2105 33.8237 37.2105 33.7912 37.1756 33.7707L36.2913 33.2599C36.2564 33.2395 36.1986 33.2395 36.1636 33.2599L35.3119 33.7551C35.277 33.7755 35.277 33.8081 35.3119 33.8285L36.1962 34.3393C36.2311 34.3598 36.2877 34.3598 36.3226 34.3393M37.4358 34.9814L38.2875 34.4863C38.3224 34.4658 38.3224 34.4333 38.2875 34.4128L37.4032 33.902C37.3683 33.8815 37.3105 33.8815 37.2755 33.902L36.4238 34.3971C36.3889 34.4176 36.3889 34.4501 36.4238 34.4706L37.3081 34.9814C37.343 35.0019 37.3996 35.0019 37.4346 34.9814M38.5477 35.6235L39.3994 35.1284C39.4343 35.1079 39.4343 35.0754 39.3994 35.0549L38.5152 34.5441C38.4802 34.5236 38.4224 34.5236 38.3875 34.5441L37.5358 35.0392C37.5008 35.0597 37.5008 35.0922 37.5358 35.1127L38.42 35.6235C38.4549 35.644 38.5115 35.644 38.5465 35.6235M32.9809 32.4106L33.8326 31.9155C33.8675 31.895 33.8675 31.8625 33.8326 31.842L32.9484 31.3312C32.9134 31.3108 32.8556 31.3108 32.8207 31.3312L31.969 31.8264C31.934 31.8468 31.934 31.8794 31.969 31.8999L32.8532 32.4106C32.8881 32.4311 32.9447 32.4311 32.9797 32.4106M34.0928 33.0527L34.9445 32.5576C34.9794 32.5371 34.9794 32.5046 34.9445 32.4841L34.0603 31.9733C34.0253 31.9529 33.9675 31.9529 33.9326 31.9733L33.0809 32.4685C33.0459 32.4889 33.0459 32.5215 33.0809 32.5419L33.9651 33.0527C34 33.0732 34.0567 33.0732 34.0916 33.0527M37.4237 33.6948L38.2754 33.1997C38.3104 33.1792 38.3104 33.1467 38.2754 33.1262L37.3912 32.6154C37.3563 32.595 37.2984 32.595 37.2647 32.6154L36.413 33.1106C36.3781 33.131 36.3781 33.1636 36.413 33.184L37.2972 33.6948C37.3322 33.7153 37.3888 33.7153 37.4237 33.6948ZM39.656 36.2656L40.5077 35.7705C40.5426 35.75 40.5426 35.7175 40.5077 35.697L39.6235 35.1862C39.5885 35.1657 39.5307 35.1657 39.4958 35.1862L38.6441 35.6813C38.6091 35.7018 38.6091 35.7343 38.6441 35.7548L39.5283 36.2656C39.5632 36.2861 39.6198 36.2861 39.6548 36.2656M30.751 31.1252L31.6027 30.6301C31.6377 30.6096 31.6377 30.5771 31.6027 30.5566L30.7185 30.0459C30.6836 30.0254 30.6269 30.0254 30.592 30.0459L29.7403 30.541C29.7054 30.5615 29.7054 30.594 29.7403 30.6145L30.6245 31.1252C30.6595 31.1457 30.7161 31.1457 30.751 31.1252ZM29.6379 30.4832L30.4896 29.988C30.5246 29.9676 30.5246 29.935 30.4896 29.9146L29.6054 29.4038C29.5705 29.3833 29.5138 29.3833 29.4789 29.4038L28.6272 29.8989C28.5923 29.9194 28.5923 29.9519 28.6272 29.9724L29.5114 30.4832C29.5464 30.5036 29.603 30.5036 29.6379 30.4832ZM25.1854 27.9124L26.0371 27.4173C26.0721 27.3968 26.0721 27.3643 26.0371 27.3438L25.1529 26.833C25.118 26.8125 25.0614 26.8125 25.0264 26.833L24.1747 27.3281C24.1398 27.3486 24.1398 27.3811 24.1747 27.4016L25.0589 27.9124C25.0939 27.9329 25.1505 27.9329 25.1854 27.9124ZM35.2023 33.696L36.054 33.2009C36.0889 33.1804 36.0889 33.1479 36.054 33.1274L35.1686 32.6166C35.1336 32.5962 35.077 32.5974 35.0421 32.6166L34.1904 33.1118C34.1554 33.1322 34.1554 33.1648 34.1904 33.1852L35.0758 33.696C35.1107 33.7165 35.1674 33.7165 35.2023 33.696ZM28.5236 29.8399L29.3753 29.3447C29.4102 29.3243 29.4102 29.2917 29.3753 29.2713L28.4911 28.7605C28.4561 28.74 28.3995 28.74 28.3646 28.7605L27.5129 29.2556C27.4779 29.2761 27.4779 29.3086 27.5129 29.3291L28.3971 29.8399C28.432 29.8603 28.4887 29.8603 28.5236 29.8399ZM38.5344 34.3381L39.3861 33.843C39.4211 33.8225 39.4211 33.79 39.3861 33.7695L38.5019 33.2587C38.467 33.2382 38.4091 33.2382 38.3754 33.2587L37.5237 33.7538C37.4888 33.7743 37.4888 33.8069 37.5237 33.8273L38.4079 34.3381C38.4429 34.3586 38.4995 34.3586 38.5344 34.3381ZM39.6475 34.9802L40.4993 34.4851C40.5342 34.4646 40.5342 34.4321 40.4993 34.4116L39.615 33.9008C39.5801 33.8803 39.5223 33.8803 39.4885 33.9008L38.6368 34.3959C38.6019 34.4164 38.6019 34.4489 38.6368 34.4694L39.5211 34.9802C39.556 35.0007 39.6126 35.0007 39.6475 34.9802ZM35.1951 32.4094L36.0468 31.9143C36.0817 31.8938 36.0817 31.8613 36.0468 31.8408L35.1625 31.33C35.1276 31.3096 35.0698 31.3096 35.0361 31.33L34.1844 31.8252C34.1494 31.8456 34.1494 31.8782 34.1844 31.8987L35.0686 32.4094C35.1035 32.4299 35.1601 32.4299 35.1951 32.4094ZM34.082 31.7673L34.9337 31.2722C34.9686 31.2517 34.9686 31.2192 34.9337 31.1987L34.0494 30.688C34.0145 30.6675 33.9567 30.6675 33.9229 30.688L33.0712 31.1831C33.0363 31.2036 33.0363 31.2361 33.0712 31.2566L33.9555 31.7673C33.9904 31.7878 34.047 31.7878 34.082 31.7673ZM35.2083 34.9814L36.06 34.4863C36.095 34.4658 36.095 34.4333 36.06 34.4128L35.1758 33.902C35.1409 33.8815 35.0842 33.8815 35.0493 33.902L34.1976 34.3971C34.1627 34.4176 34.1627 34.4501 34.1976 34.4706L35.0818 34.9814C35.1168 35.0019 35.1734 35.0019 35.2083 34.9814ZM39.6343 32.4094L40.486 31.9143C40.5209 31.8938 40.5209 31.8613 40.486 31.8408L39.6018 31.33C39.5668 31.3096 39.509 31.3096 39.4753 31.33L38.6236 31.8252C38.5886 31.8456 38.5886 31.8782 38.6236 31.8987L39.5078 32.4094C39.5427 32.4299 39.5994 32.4299 39.6343 32.4094ZM38.5284 33.0527L39.3801 32.5576C39.415 32.5371 39.415 32.5046 39.3801 32.4841L38.4959 31.9733C38.4609 31.9529 38.4043 31.9529 38.3694 31.9733L37.5177 32.4685C37.4827 32.4889 37.4827 32.5215 37.5177 32.5419L38.4019 33.0527C38.4369 33.0732 38.4935 33.0732 38.5284 33.0527ZM26.2986 28.5557L27.1503 28.0606C27.1852 28.0401 27.1852 28.0076 27.1503 27.9871L26.266 27.4763C26.2311 27.4558 26.1745 27.4558 26.1395 27.4763L25.2878 27.9714C25.2529 27.9919 25.2529 28.0244 25.2878 28.0449L26.1721 28.5557C26.207 28.5762 26.2636 28.5762 26.2986 28.5557ZM31.8642 31.7685L32.7159 31.2734C32.7508 31.2529 32.7508 31.2204 32.7159 31.1999L31.8316 30.6892C31.7967 30.6687 31.7401 30.6687 31.7051 30.6892L30.8534 31.1843C30.8185 31.2048 30.8185 31.2373 30.8534 31.2578L31.7377 31.7685C31.7726 31.789 31.8292 31.789 31.8642 31.7685ZM27.4117 29.1978L28.2634 28.7027C28.2983 28.6822 28.2983 28.6496 28.2634 28.6292L27.3791 28.1184C27.3442 28.0979 27.2876 28.0979 27.2527 28.1184L26.401 28.6135C26.366 28.634 26.366 28.6665 26.401 28.687L27.2852 29.1978C27.3201 29.2183 27.3767 29.2183 27.4117 29.1978ZM41.8617 33.6948L42.7134 33.1997C42.7484 33.1792 42.7484 33.1467 42.7134 33.1262L41.8292 32.6154C41.7943 32.595 41.7365 32.595 41.7027 32.6154L40.851 33.1106C40.8161 33.131 40.8161 33.1636 40.851 33.184L41.7352 33.6948C41.7702 33.7153 41.8268 33.7153 41.8617 33.6948ZM40.7486 33.0527L41.6003 32.5576C41.6353 32.5371 41.6353 32.5046 41.6003 32.4841L40.7161 31.9733C40.6812 31.9529 40.6233 31.9529 40.5896 31.9733L39.7379 32.4685C39.703 32.4889 39.703 32.5215 39.7379 32.5419L40.6221 33.0527C40.6571 33.0732 40.7137 33.0732 40.7486 33.0527ZM36.3226 35.6247L37.1744 35.1296C37.2093 35.1091 37.2093 35.0766 37.1744 35.0561L36.2901 34.5453C36.2552 34.5248 36.1986 34.5248 36.1636 34.5453L35.3119 35.0404C35.277 35.0609 35.277 35.0934 35.3119 35.1139L36.1962 35.6247C36.2311 35.6452 36.2877 35.6452 36.3226 35.6247ZM40.7558 34.3381L41.6076 33.843C41.6425 33.8225 41.6425 33.79 41.6076 33.7695L40.7233 33.2587C40.6884 33.2382 40.6318 33.2382 40.5968 33.2587L39.7451 33.7538C39.7102 33.7743 39.7102 33.8069 39.7451 33.8273L40.6294 34.3381C40.6643 34.3586 40.7209 34.3586 40.7558 34.3381ZM37.4358 36.2668L38.2875 35.7717C38.3224 35.7512 38.3224 35.7187 38.2875 35.6982L37.4032 35.1874C37.3683 35.1669 37.3117 35.1669 37.2767 35.1874L36.425 35.6825C36.3901 35.703 36.3901 35.7355 36.425 35.756L37.3093 36.2668C37.3442 36.2873 37.4008 36.2873 37.4358 36.2668ZM39.6427 33.6948L40.4944 33.1997C40.5294 33.1792 40.5294 33.1467 40.4944 33.1262L39.6102 32.6154C39.5753 32.595 39.5186 32.595 39.4837 32.6154L38.632 33.1106C38.5971 33.131 38.5971 33.1636 38.632 33.184L39.5162 33.6948C39.5512 33.7153 39.6078 33.7153 39.6427 33.6948ZM36.2973 30.482L37.1491 29.9868C37.184 29.9664 37.184 29.9338 37.1491 29.9133L36.2648 29.4026C36.2299 29.3821 36.1721 29.3821 36.1383 29.4026L35.2866 29.8977C35.2517 29.9182 35.2517 29.9507 35.2866 29.9712L36.1709 30.482C36.2058 30.5024 36.2624 30.5024 36.2973 30.482ZM32.9845 33.696L33.8362 33.2009C33.8711 33.1804 33.8711 33.1479 33.8362 33.1274L32.952 32.6166C32.917 32.5962 32.8604 32.5962 32.8255 32.6166L31.9738 33.1118C31.9388 33.1322 31.9388 33.1648 31.9738 33.1852L32.858 33.696C32.8929 33.7165 32.9496 33.7165 32.9845 33.696ZM35.1915 31.124L36.0432 30.6289C36.0781 30.6084 36.0781 30.5759 36.0432 30.5554L35.1589 30.0447C35.124 30.0242 35.0674 30.0242 35.0324 30.0447L34.1807 30.5398C34.1458 30.5603 34.1458 30.5928 34.1807 30.6133L35.065 31.124C35.0999 31.1445 35.1565 31.1445 35.1915 31.124ZM37.4105 31.124L38.2622 30.6289C38.2971 30.6084 38.2971 30.5759 38.2622 30.5554L37.3779 30.0447C37.343 30.0242 37.2852 30.0242 37.2515 30.0447L36.3997 30.5398C36.3648 30.5603 36.3648 30.5928 36.3997 30.6133L37.284 31.124C37.3189 31.1445 37.3755 31.1445 37.4105 31.124ZM36.3046 31.7673L37.1563 31.2722C37.1912 31.2517 37.1912 31.2192 37.1563 31.1987L36.2721 30.688C36.2371 30.6675 36.1805 30.6675 36.1456 30.688L35.2939 31.1831C35.2589 31.2036 35.2589 31.2361 35.2939 31.2566L36.1781 31.7673C36.213 31.7878 36.2696 31.7878 36.3046 31.7673ZM31.8714 33.0539L32.7231 32.5588C32.758 32.5383 32.758 32.5058 32.7231 32.4853L31.8389 31.9745C31.8039 31.9541 31.7473 31.9541 31.7124 31.9745L30.8607 32.4697C30.8257 32.4901 30.8257 32.5227 30.8607 32.5431L31.7449 33.0539C31.7798 33.0744 31.8364 33.0744 31.8714 33.0539ZM40.7619 35.6235L41.6136 35.1284C41.6485 35.1079 41.6485 35.0754 41.6136 35.0549L40.7293 34.5441C40.6944 34.5236 40.6366 34.5236 40.6029 34.5441L39.7512 35.0392C39.7162 35.0597 39.7162 35.0922 39.7512 35.1127L40.6354 35.6235C40.6703 35.644 40.7269 35.644 40.7619 35.6235ZM26.2925 27.2703L27.1442 26.7752C27.1792 26.7547 27.1792 26.7222 27.1442 26.7017L26.26 26.1909C26.2251 26.1704 26.1684 26.1704 26.1335 26.1909L25.2818 26.686C25.2469 26.7065 25.2469 26.739 25.2818 26.7595L26.166 27.2703C26.201 27.2908 26.2576 27.2908 26.2925 27.2703ZM36.3094 33.0539L37.1611 32.5588C37.196 32.5383 37.196 32.5058 37.1611 32.4853L36.2757 31.9745C36.2407 31.9541 36.1841 31.9553 36.1492 31.9745L35.2975 32.4697C35.2625 32.4901 35.2625 32.5227 35.2975 32.5431L36.1829 33.0539C36.2178 33.0744 36.2745 33.0744 36.3094 33.0539ZM31.8569 30.4832L32.7086 29.988C32.7436 29.9676 32.7436 29.935 32.7086 29.9146L31.8244 29.4038C31.7895 29.3833 31.7328 29.3833 31.6979 29.4038L30.8462 29.8989C30.8113 29.9194 30.8113 29.9519 30.8462 29.9724L31.7304 30.4832C31.7654 30.5036 31.822 30.5036 31.8569 30.4832ZM30.7438 29.8411L31.5955 29.3459C31.6304 29.3255 31.6304 29.2929 31.5955 29.2725L30.7113 28.7617C30.6763 28.7412 30.6197 28.7412 30.5848 28.7617L29.7331 29.2568C29.6981 29.2773 29.6981 29.3098 29.7331 29.3303L30.6173 29.8411C30.6522 29.8615 30.7089 29.8615 30.7438 29.8411ZM29.6307 29.199L30.4824 28.7039C30.5173 28.6834 30.5173 28.6508 30.4824 28.6304L29.5982 28.1196C29.5632 28.0991 29.5066 28.0991 29.4717 28.1196L28.62 28.6147C28.585 28.6352 28.585 28.6677 28.62 28.6882L29.5042 29.199C29.5391 29.2195 29.5957 29.2195 29.6307 29.199ZM28.5176 28.5569L29.3693 28.0618C29.4042 28.0413 29.4042 28.0088 29.3693 27.9883L28.485 27.4775C28.4501 27.457 28.3935 27.457 28.3585 27.4775L27.5068 27.9726C27.4719 27.9931 27.4719 28.0256 27.5068 28.0461L28.3911 28.5569C28.426 28.5774 28.4826 28.5774 28.5176 28.5569ZM32.97 31.1277L33.8217 30.6325C33.8567 30.6121 33.8567 30.5795 33.8217 30.5591L32.9375 30.0483C32.9026 30.0278 32.846 30.0278 32.811 30.0483L31.9593 30.5434C31.9244 30.5639 31.9244 30.5964 31.9593 30.6169L32.8435 31.1277C32.8785 31.1481 32.9351 31.1481 32.97 31.1277ZM27.4044 27.9148L28.2562 27.4197C28.2911 27.3992 28.2911 27.3667 28.2562 27.3462L27.3719 26.8354C27.337 26.8149 27.2804 26.8149 27.2454 26.8354L26.3937 27.3305C26.3588 27.351 26.3588 27.3835 26.3937 27.404L27.278 27.9148C27.3129 27.9353 27.3695 27.9353 27.4044 27.9148ZM42.9737 34.3393L43.8254 33.8442C43.8603 33.8237 43.8603 33.7912 43.8254 33.7707L42.9411 33.2599C42.9062 33.2395 42.8484 33.2395 42.8146 33.2599L41.9629 33.7551C41.928 33.7755 41.928 33.8081 41.9629 33.8285L42.8472 34.3393C42.8821 34.3598 42.9387 34.3598 42.9737 34.3393ZM38.5477 36.9113L39.3994 36.4162C39.4343 36.3957 39.4343 36.3632 39.3994 36.3427L38.5152 35.8319C38.4802 35.8114 38.4236 35.8114 38.3887 35.8319L37.537 36.327C37.502 36.3475 37.502 36.38 37.537 36.4005L38.4212 36.9113C38.4561 36.9318 38.5127 36.9318 38.5477 36.9113ZM41.8678 34.9826L42.7195 34.4875C42.7544 34.467 42.7544 34.4345 42.7195 34.414L41.8352 33.9032C41.8003 33.8827 41.7437 33.8827 41.7087 33.9032L40.857 34.3983C40.8221 34.4188 40.8221 34.4514 40.857 34.4718L41.7413 34.9826C41.7762 35.0031 41.8328 35.0031 41.8678 34.9826ZM38.5224 31.7697L39.3741 31.2746C39.409 31.2541 39.409 31.2216 39.3741 31.2011L38.4887 30.6904C38.4537 30.6699 38.3971 30.6711 38.3622 30.6904L37.5105 31.1855C37.4755 31.206 37.4755 31.2385 37.5105 31.259L38.3959 31.7697C38.4308 31.7902 38.4874 31.7902 38.5224 31.7697ZM30.7378 28.5569L31.5895 28.0618C31.6244 28.0413 31.6244 28.0088 31.5895 27.9883L30.7053 27.4775C30.6703 27.457 30.6137 27.457 30.5788 27.4775L29.7271 27.9726C29.6921 27.9931 29.6921 28.0256 29.7271 28.0461L30.6113 28.5569C30.6462 28.5774 30.7028 28.5774 30.7378 28.5569ZM31.8437 27.9136L32.6954 27.4185C32.7303 27.398 32.7303 27.3655 32.6954 27.345L31.8111 26.8342C31.7762 26.8137 31.7196 26.8137 31.6847 26.8342L30.8329 27.3293C30.798 27.3498 30.798 27.3823 30.8329 27.4028L31.7172 27.9136C31.7521 27.9341 31.8087 27.9341 31.8437 27.9136ZM24.0783 28.5581L24.93 28.063C24.965 28.0425 24.965 28.01 24.93 27.9895L24.0458 27.4787C24.0109 27.4582 23.9543 27.4582 23.9193 27.4787L23.0676 27.9738C23.0327 27.9943 23.0327 28.0268 23.0676 28.0473L23.9518 28.5581C23.9868 28.5786 24.0434 28.5786 24.0783 28.5581ZM34.0699 29.199L34.9216 28.7039C34.9565 28.6834 34.9565 28.6508 34.9216 28.6304L34.0374 28.1196C34.0024 28.0991 33.9458 28.0991 33.9109 28.1196L33.0592 28.6147C33.0243 28.6352 33.0243 28.6677 33.0592 28.6882L33.9434 29.199C33.9784 29.2195 34.035 29.2195 34.0699 29.199ZM27.3984 26.6282L28.2501 26.1331C28.2851 26.1126 28.2851 26.0801 28.2501 26.0596L27.3659 25.5488C27.331 25.5283 27.2743 25.5283 27.2394 25.5488L26.3877 26.0439C26.3528 26.0644 26.3528 26.0969 26.3877 26.1174L27.2719 26.6282C27.3069 26.6487 27.3635 26.6487 27.3984 26.6282ZM28.5043 25.9849L29.356 25.4898C29.391 25.4693 29.391 25.4368 29.356 25.4163L28.4718 24.9055C28.4369 24.885 28.3802 24.885 28.3453 24.9055L27.4936 25.4006C27.4587 25.4211 27.4587 25.4536 27.4936 25.4741L28.3778 25.9849C28.4128 26.0054 28.4694 26.0054 28.5043 25.9849ZM29.6439 31.7697L30.4956 31.2746C30.5306 31.2541 30.5306 31.2216 30.4956 31.2011L29.6114 30.6904C29.5765 30.6699 29.5199 30.6699 29.4849 30.6904L28.6332 31.1855C28.5983 31.206 28.5983 31.2385 28.6332 31.259L29.5174 31.7697C29.5524 31.7902 29.609 31.7902 29.6439 31.7697ZM34.0964 34.3405L34.9481 33.8454C34.9831 33.8249 34.9831 33.7924 34.9481 33.7719L34.0627 33.2611C34.0277 33.2407 33.9711 33.2407 33.9362 33.2611L33.0845 33.7563C33.0495 33.7767 33.0495 33.8093 33.0845 33.8297L33.9699 34.3405C34.0049 34.361 34.0615 34.361 34.0964 34.3405ZM32.9568 28.5557L33.8085 28.0606C33.8434 28.0401 33.8434 28.0076 33.8085 27.9871L32.9243 27.4763C32.8893 27.4558 32.8327 27.4558 32.7978 27.4763L31.9461 27.9714C31.9111 27.9919 31.9111 28.0244 31.9461 28.0449L32.8303 28.5557C32.8652 28.5762 32.9219 28.5762 32.9568 28.5557ZM27.4177 30.4856L28.2694 29.9904C28.3043 29.97 28.3043 29.9374 28.2694 29.917L27.3852 29.4062C27.3502 29.3857 27.2936 29.3857 27.2587 29.4062L26.407 29.9013C26.372 29.9218 26.372 29.9543 26.407 29.9748L27.2912 30.4856C27.3261 30.506 27.3828 30.506 27.4177 30.4856ZM37.4153 32.4118L38.267 31.9167C38.3019 31.8962 38.3019 31.8637 38.267 31.8432L37.3816 31.3325C37.3466 31.312 37.29 31.312 37.2551 31.3325L36.4034 31.8276C36.3684 31.8481 36.3684 31.8806 36.4034 31.9011L37.2888 32.4118C37.3237 32.4323 37.3804 32.4323 37.4153 32.4118ZM28.5308 31.1277L29.3825 30.6325C29.4175 30.6121 29.4175 30.5795 29.3825 30.5591L28.4983 30.0483C28.4634 30.0278 28.4067 30.0278 28.3718 30.0483L27.5201 30.5434C27.4852 30.5639 27.4852 30.5964 27.5201 30.6169L28.4043 31.1277C28.4393 31.1481 28.4959 31.1481 28.5308 31.1277ZM32.964 29.8411L33.8157 29.3459C33.8507 29.3255 33.8507 29.2929 33.8157 29.2725L32.9315 28.7617C32.8966 28.7412 32.8399 28.7412 32.805 28.7617L31.9533 29.2568C31.9184 29.2773 31.9184 29.3098 31.9533 29.3303L32.8375 29.8411C32.8725 29.8615 32.9291 29.8615 32.964 29.8411ZM31.8509 29.199L32.7026 28.7039C32.7375 28.6834 32.7375 28.6508 32.7026 28.6304L31.8184 28.1196C31.7834 28.0991 31.7268 28.0991 31.6919 28.1196L30.8402 28.6147C30.8052 28.6352 30.8052 28.6677 30.8402 28.6882L31.7244 29.199C31.7593 29.2195 31.816 29.2195 31.8509 29.199ZM35.183 29.8411L36.0347 29.3459C36.0697 29.3255 36.0697 29.2929 36.0347 29.2725L35.1505 28.7617C35.1156 28.7412 35.0589 28.7412 35.024 28.7617L34.1723 29.2568C34.1374 29.2773 34.1374 29.3098 34.1723 29.3303L35.0565 29.8411C35.0915 29.8615 35.1481 29.8615 35.183 29.8411ZM29.6174 26.6282L30.4691 26.1331C30.5041 26.1126 30.5041 26.0801 30.4691 26.0596L29.5849 25.5488C29.55 25.5283 29.4934 25.5283 29.4584 25.5488L28.6067 26.0439C28.5718 26.0644 28.5718 26.0969 28.6067 26.1174L29.4909 26.6282C29.5259 26.6487 29.5825 26.6487 29.6174 26.6282ZM30.7306 27.2703L31.5823 26.7752C31.6172 26.7547 31.6172 26.7222 31.5823 26.7017L30.698 26.1909C30.6631 26.1704 30.6065 26.1704 30.5715 26.1909L29.7198 26.686C29.6849 26.7065 29.6849 26.739 29.7198 26.7595L30.6041 27.2703C30.639 27.2908 30.6956 27.2908 30.7306 27.2703ZM25.1915 29.2002L26.0432 28.7051C26.0781 28.6846 26.0781 28.6521 26.0432 28.6316L25.1589 28.1208C25.124 28.1003 25.0674 28.1003 25.0324 28.1208L24.1807 28.6159C24.1458 28.6364 24.1458 28.6689 24.1807 28.6894L25.065 29.2002C25.0999 29.2207 25.1565 29.2207 25.1915 29.2002ZM28.5115 27.2715L29.3632 26.7764C29.3982 26.7559 29.3982 26.7234 29.3632 26.7029L28.479 26.1921C28.4441 26.1716 28.3875 26.1716 28.3525 26.1921L27.5008 26.6872C27.4659 26.7077 27.4659 26.7402 27.5008 26.7607L28.3851 27.2715C28.42 27.292 28.4766 27.292 28.5115 27.2715ZM30.7571 32.4143L31.6088 31.9191C31.6437 31.8987 31.6437 31.8661 31.6088 31.8456L30.7245 31.3349C30.6896 31.3144 30.633 31.3144 30.598 31.3349L29.7463 31.83C29.7114 31.8505 29.7114 31.883 29.7463 31.9035L30.6306 32.4143C30.6655 32.4347 30.7221 32.4347 30.7571 32.4143ZM34.0771 30.4856L34.9288 29.9904C34.9638 29.97 34.9638 29.9374 34.9288 29.917L34.0446 29.4062C34.0097 29.3857 33.9531 29.3857 33.9181 29.4062L33.0664 29.9013C33.0315 29.9218 33.0315 29.9543 33.0664 29.9748L33.9506 30.4856C33.9856 30.506 34.0422 30.506 34.0771 30.4856ZM26.3058 29.8447L27.1575 29.3496C27.1924 29.3291 27.1924 29.2966 27.1575 29.2761L26.2733 28.7653C26.2383 28.7448 26.1817 28.7448 26.1468 28.7653L25.2951 29.2604C25.2601 29.2809 25.2601 29.3134 25.2951 29.3339L26.1793 29.8447C26.2142 29.8652 26.2708 29.8652 26.3058 29.8447ZM29.6259 27.916L30.4776 27.4209C30.5125 27.4004 30.5125 27.3679 30.4776 27.3474L29.5933 26.8366C29.5584 26.8161 29.5018 26.8161 29.4668 26.8366L28.6151 27.3317C28.5802 27.3522 28.5802 27.3847 28.6151 27.4052L29.4994 27.916C29.5343 27.9365 29.5909 27.9365 29.6259 27.916ZM40.7269 31.7806L41.0787 31.577C41.1136 31.5565 41.1136 31.524 41.0787 31.5035L40.1945 30.9927C40.1595 30.9723 40.1029 30.9723 40.068 30.9927L39.7162 31.1963C39.6813 31.2168 39.6813 31.2493 39.7162 31.2698L40.6004 31.7806C40.6354 31.8011 40.692 31.8011 40.7269 31.7806ZM41.8401 32.4227L42.1918 32.2191C42.2268 32.1986 42.2268 32.1661 42.1918 32.1456L41.3076 31.6348C41.2727 31.6143 41.216 31.6143 41.1811 31.6348L40.8293 31.8384C40.7944 31.8589 40.7944 31.8914 40.8293 31.9119L41.7136 32.4227C41.7485 32.4432 41.8051 32.4432 41.8401 32.4227ZM42.9532 33.0648L43.3049 32.8612C43.3399 32.8407 43.3399 32.8082 43.3049 32.7877L42.4207 32.2769C42.3858 32.2564 42.3292 32.2564 42.2942 32.2769L41.9425 32.4805C41.9075 32.501 41.9075 32.5335 41.9425 32.554L42.8267 33.0648C42.8616 33.0853 42.9182 33.0853 42.9532 33.0648ZM38.5007 30.494L38.8525 30.2904C38.8874 30.2699 38.8874 30.2374 38.8525 30.2169L37.9682 29.7061C37.9333 29.6857 37.8767 29.6857 37.8417 29.7061L37.49 29.9097C37.455 29.9302 37.455 29.9627 37.49 29.9832L38.3742 30.494C38.4091 30.5145 38.4658 30.5145 38.5007 30.494ZM37.3876 29.8519L37.7393 29.6483C37.7743 29.6278 37.7743 29.5953 37.7393 29.5748L36.8551 29.0641C36.8202 29.0436 36.7636 29.0436 36.7286 29.0641L36.3769 29.2676C36.3419 29.2881 36.3419 29.3206 36.3769 29.3411L37.2611 29.8519C37.296 29.8724 37.3526 29.8724 37.3876 29.8519ZM44.0651 33.7069L44.4169 33.5033C44.4518 33.4828 44.4518 33.4503 44.4169 33.4298L43.5326 32.919C43.4977 32.8985 43.4411 32.8985 43.4061 32.919L43.0544 33.1226C43.0194 33.1431 43.0194 33.1756 43.0544 33.1961L43.9386 33.7069C43.9735 33.7273 44.0302 33.7273 44.0651 33.7069ZM34.0482 27.9232L34.4 27.7196C34.4349 27.6992 34.4349 27.6666 34.4 27.6462L33.5158 27.1354C33.4808 27.1149 33.4242 27.1149 33.3893 27.1354L33.0375 27.339C33.0026 27.3594 33.0026 27.392 33.0375 27.4124L33.9217 27.9232C33.9567 27.9437 34.0133 27.9437 34.0482 27.9232ZM39.6138 31.1361L39.9656 30.9325C40.0005 30.912 40.0005 30.8795 39.9656 30.859L39.0801 30.3482C39.0452 30.3278 38.9886 30.3278 38.9537 30.3482L38.6019 30.5518C38.567 30.5723 38.567 30.6048 38.6019 30.6253L39.4873 31.1361C39.5223 31.1566 39.5789 31.1566 39.6138 31.1361ZM32.9351 27.2799L33.2869 27.0763C33.3218 27.0559 33.3218 27.0233 33.2869 27.0029L32.4026 26.4921C32.3677 26.4716 32.3111 26.4716 32.2761 26.4921L31.9244 26.6957C31.8894 26.7161 31.8894 26.7487 31.9244 26.7691L32.8086 27.2799C32.8435 27.3004 32.9002 27.3004 32.9351 27.2799ZM35.1613 28.5653L35.5131 28.3617C35.548 28.3412 35.548 28.3087 35.5131 28.2882L34.6289 27.7775C34.5939 27.757 34.5373 27.757 34.5024 27.7775L34.1506 27.981C34.1157 28.0015 34.1157 28.0341 34.1506 28.0545L35.0349 28.5653C35.0698 28.5858 35.1264 28.5858 35.1613 28.5653ZM29.5957 25.3525L29.9475 25.1489C29.9824 25.1284 29.9824 25.0959 29.9475 25.0754L29.0633 24.5646C29.0283 24.5441 28.9717 24.5441 28.9368 24.5646L28.585 24.7682C28.5501 24.7887 28.5501 24.8212 28.585 24.8417L29.4693 25.3525C29.5042 25.3729 29.5608 25.3729 29.5957 25.3525ZM31.822 26.6378L32.1737 26.4342C32.2087 26.4138 32.2087 26.3812 32.1737 26.3608L31.2895 25.85C31.2546 25.8295 31.198 25.8295 31.163 25.85L30.8113 26.0536C30.7763 26.0741 30.7763 26.1066 30.8113 26.1271L31.6955 26.6378C31.7304 26.6583 31.7871 26.6583 31.822 26.6378ZM36.2745 29.2086L36.6262 29.005C36.6612 28.9845 36.6612 28.952 36.6262 28.9315L35.742 28.4208C35.7071 28.4003 35.6504 28.4003 35.6155 28.4208L35.2637 28.6243C35.2288 28.6448 35.2288 28.6774 35.2637 28.6978L36.148 29.2086C36.1829 29.2291 36.2395 29.2291 36.2745 29.2086ZM30.7089 25.9957L31.0606 25.7922C31.0956 25.7717 31.0956 25.7392 31.0606 25.7187L30.1764 25.2079C30.1415 25.1874 30.0848 25.1874 30.0499 25.2079L29.6981 25.4115C29.6632 25.432 29.6632 25.4645 29.6981 25.485L30.5824 25.9957C30.6173 26.0162 30.6739 26.0162 30.7089 25.9957Z" fill="url(#paint6_linear_546_1263)"/>
<path d="M44.0262 31.9203V31.9227C44.0262 31.9227 44.0202 31.9347 44.0165 31.9395L44.0141 31.9431C44.0141 31.9431 44.0057 31.954 43.9997 31.9588C43.9961 31.9624 43.9912 31.9648 43.9864 31.9684C43.9828 31.9709 43.9792 31.9745 43.9744 31.9769L43.8286 32.0612V32.6238L43.972 32.5395H43.9744C43.9744 32.5395 43.9804 32.5334 43.984 32.531C43.9888 32.5274 43.9937 32.525 43.9973 32.5214H43.9985C43.9985 32.5214 44.0069 32.513 44.0093 32.5081C44.0093 32.5081 44.0105 32.5057 44.0117 32.5057L44.0141 32.5021C44.0141 32.5021 44.0165 32.4985 44.0177 32.4973C44.0202 32.4937 44.0214 32.4901 44.0226 32.4865V32.4828C44.0226 32.4828 44.025 32.478 44.025 32.4756C44.025 32.472 44.025 32.4684 44.0262 32.4648V31.8998C44.0274 31.9058 44.0262 31.913 44.025 31.9191L44.0262 31.9203Z" fill="#2A2A2A"/>
<path d="M45.9176 33.2659C46.1224 33.384 46.1236 33.5755 45.9201 33.6936L34.778 40.1687C34.5744 40.2867 34.2431 40.2867 34.0396 40.1687L17.4488 30.5903C17.244 30.4723 17.2428 30.2807 17.4464 30.1627L28.5884 23.6875C28.792 23.5695 29.1233 23.5695 29.3269 23.6875L31.3772 24.8717L31.0532 25.0609C30.9809 25.103 30.9821 25.1705 31.0532 25.2115L43.2445 32.2504C43.3168 32.2925 43.4336 32.2925 43.5059 32.2504L43.8299 32.0612L45.9176 33.2671V33.2659ZM38.8233 37.2233L44.9443 33.6659C45.043 33.608 45.0418 33.5165 44.9443 33.4587L29.0125 24.261C28.9137 24.2043 28.7534 24.2031 28.6547 24.261L22.5337 27.8184C22.4361 27.875 22.4361 27.9677 22.5349 28.0256L38.4667 37.2245C38.5655 37.2823 38.7257 37.2823 38.8245 37.2245M29.1209 36.4836L32.6265 34.4465C32.6566 34.4284 32.6566 34.3995 32.6265 34.3814L27.4247 31.3782C27.3934 31.3601 27.3428 31.3601 27.3127 31.3782L23.8071 33.4153C23.7757 33.4334 23.7769 33.4623 23.8071 33.4803L29.0088 36.4836C29.0402 36.5017 29.0896 36.5017 29.1209 36.4836Z" fill="url(#paint7_linear_546_1263)"/>
<path d="M44.9445 33.4598C45.0433 33.5177 45.0445 33.6092 44.9445 33.667L38.8235 37.2244C38.726 37.2811 38.5657 37.2811 38.4657 37.2244L22.5351 28.0255C22.4364 27.9689 22.4352 27.8762 22.5339 27.8183L28.6549 24.2609C28.7537 24.2031 28.9139 24.2043 29.0127 24.2609L44.9445 33.4598ZM38.7597 37.1871L44.8806 33.6297C44.9433 33.5935 44.9433 33.5345 44.8806 33.4984L28.9476 24.2995C28.885 24.2633 28.7826 24.2633 28.7199 24.2995L22.599 27.8569C22.5363 27.893 22.5376 27.9521 22.599 27.9882L38.5308 37.1871C38.5934 37.2232 38.6958 37.2232 38.7585 37.1871" fill="white"/>
<path d="M32.6266 34.3814C32.6579 34.3995 32.6579 34.4284 32.6266 34.4465L29.121 36.4836C29.0897 36.5017 29.0403 36.5017 29.009 36.4836L23.8072 33.4803C23.7759 33.4623 23.7759 33.4334 23.8072 33.4153L27.3128 31.3782C27.3429 31.3601 27.3935 31.3601 27.4248 31.3782L32.6266 34.3814ZM30.0329 35.7981L32.3736 34.438C32.4086 34.4176 32.4086 34.385 32.3736 34.3646L27.4549 31.5251C27.4188 31.5047 27.3622 31.5047 27.3272 31.5251L24.9866 32.8852C24.9516 32.9057 24.9516 32.9382 24.9866 32.9587L29.9052 35.7981C29.9402 35.8186 29.998 35.8186 30.0329 35.7981ZM26.5647 34.8332L27.2405 34.4405C27.2754 34.42 27.2754 34.3875 27.2405 34.367L24.895 33.0129C24.8589 32.9924 24.8022 32.9924 24.7673 33.0129L24.0915 33.4056C24.0566 33.4261 24.0566 33.4586 24.0915 33.4791L26.437 34.8332C26.4719 34.8537 26.5297 34.8537 26.5647 34.8332ZM29.1367 36.3185L29.8125 35.9258C29.8474 35.9053 29.8474 35.8728 29.8125 35.8523L27.4658 34.4971C27.4308 34.4766 27.3742 34.4766 27.3393 34.4971L26.6635 34.8898C26.6285 34.9103 26.6285 34.9428 26.6635 34.9633L29.0102 36.3185C29.0451 36.339 29.1029 36.339 29.1379 36.3185" fill="white"/>
<path d="M27.2406 34.367C27.2756 34.3875 27.2756 34.42 27.2406 34.4405L26.5648 34.8332C26.5299 34.8537 26.472 34.8537 26.4371 34.8332L24.0916 33.4791C24.0555 33.4586 24.0567 33.4261 24.0916 33.4056L24.7674 33.0129C24.8024 32.9924 24.859 32.9924 24.8951 33.0129L27.2406 34.367Z" fill="url(#paint8_linear_546_1263)"/>
<path d="M32.3725 34.3645C32.4074 34.385 32.4074 34.4175 32.3725 34.438L30.0318 35.7981C29.9969 35.8186 29.9402 35.8186 29.9041 35.7981L24.9866 32.9587C24.9505 32.9382 24.9517 32.9057 24.9866 32.8852L27.3273 31.5251C27.3622 31.5046 27.4189 31.5046 27.455 31.5251L32.3737 34.3645H32.3725Z" fill="url(#paint9_linear_546_1263)"/>
<path d="M29.8122 35.8523C29.8471 35.8728 29.8471 35.9053 29.8122 35.9258L29.1363 36.3185C29.1014 36.339 29.0448 36.339 29.0086 36.3185L26.6619 34.9633C26.627 34.9428 26.627 34.9103 26.6619 34.8898L27.3378 34.497C27.3727 34.4766 27.4293 34.4766 27.4643 34.497L29.811 35.8523H29.8122Z" fill="url(#paint10_linear_546_1263)"/>
<path d="M32.1812 26.3583C32.2161 26.3788 32.2161 26.4113 32.1812 26.4318L31.8294 26.6354C31.7945 26.6558 31.7378 26.6558 31.7029 26.6354L30.8187 26.1246C30.7837 26.1041 30.7837 26.0716 30.8187 26.0511L31.1704 25.8475C31.2054 25.827 31.262 25.827 31.2969 25.8475L32.1812 26.3583Z" fill="url(#paint11_linear_546_1263)"/>
<path d="M38.2695 30.5578C38.3044 30.5782 38.3044 30.6108 38.2695 30.6312L37.4177 31.1264C37.3828 31.1468 37.3262 31.1468 37.2913 31.1264L36.407 30.6156C36.3721 30.5951 36.3709 30.5626 36.407 30.5421L37.2587 30.047C37.2937 30.0265 37.3503 30.0265 37.3852 30.047L38.2695 30.5578Z" fill="url(#paint12_linear_546_1263)"/>
<path d="M37.1621 31.2011C37.197 31.2215 37.197 31.2541 37.1621 31.2746L36.3104 31.7697C36.2754 31.7902 36.2188 31.7902 36.1839 31.7697L35.2996 31.2589C35.2647 31.2384 35.2647 31.2059 35.2996 31.1854L36.1513 30.6903C36.1863 30.6698 36.2429 30.6698 36.2778 30.6903L37.1621 31.2011Z" fill="url(#paint13_linear_546_1263)"/>
<path d="M40.4955 31.8432C40.5305 31.8636 40.5305 31.8962 40.4955 31.9166L39.6438 32.4118C39.6089 32.4322 39.5523 32.4322 39.5173 32.4118L38.6331 31.901C38.5982 31.8805 38.597 31.848 38.6331 31.8275L39.4848 31.3324C39.5197 31.3119 39.5764 31.3119 39.6113 31.3324L40.4955 31.8432Z" fill="url(#paint14_linear_546_1263)"/>
<path d="M39.3886 32.4852C39.4236 32.5057 39.4236 32.5383 39.3886 32.5587L38.5369 33.0539C38.502 33.0743 38.4454 33.0743 38.4104 33.0539L37.5262 32.5431C37.4913 32.5226 37.4913 32.4901 37.5262 32.4696L38.3779 31.9745C38.4128 31.954 38.4695 31.954 38.5044 31.9745L39.3886 32.4852Z" fill="url(#paint15_linear_546_1263)"/>
<path d="M29.9546 25.0741C29.9895 25.0946 29.9895 25.1271 29.9546 25.1476L29.6028 25.3512C29.5679 25.3717 29.5113 25.3717 29.4764 25.3512L28.5921 24.8404C28.5572 24.8199 28.5572 24.7874 28.5921 24.7669L28.9439 24.5633C28.9788 24.5429 29.0354 24.5429 29.0704 24.5633L29.9546 25.0741Z" fill="url(#paint16_linear_546_1263)"/>
<path d="M31.5908 26.7017C31.6257 26.7222 31.6257 26.7547 31.5908 26.7752L30.7391 27.2703C30.7041 27.2908 30.6475 27.2908 30.6126 27.2703L29.7284 26.7595C29.6934 26.739 29.6934 26.7065 29.7284 26.686L30.5801 26.1909C30.615 26.1704 30.6716 26.1704 30.7065 26.1909L31.5908 26.7017Z" fill="url(#paint17_linear_546_1263)"/>
<path d="M34.9301 28.6292C34.9651 28.6496 34.9651 28.6822 34.9301 28.7027L34.0784 29.1978C34.0435 29.2183 33.9869 29.2183 33.9519 29.1978L33.0677 28.687C33.0328 28.6665 33.0328 28.634 33.0677 28.6135L33.9194 28.1184C33.9543 28.0979 34.011 28.0979 34.0459 28.1184L34.9301 28.6292Z" fill="url(#paint18_linear_546_1263)"/>
<path d="M37.7451 29.5724C37.78 29.5929 37.78 29.6254 37.7451 29.6459L37.3933 29.8495C37.3584 29.87 37.3018 29.87 37.2668 29.8495L36.3826 29.3387C36.3477 29.3182 36.3465 29.2857 36.3826 29.2652L36.7344 29.0616C36.7693 29.0411 36.8259 29.0411 36.8609 29.0616L37.7451 29.5724Z" fill="url(#paint19_linear_546_1263)"/>
<path d="M37.1562 29.9144C37.1911 29.9349 37.1911 29.9675 37.1562 29.9879L36.3045 30.4831C36.2695 30.5035 36.2129 30.5035 36.178 30.4831L35.2937 29.9723C35.2588 29.9518 35.2576 29.9193 35.2937 29.8988L36.1455 29.4037C36.1804 29.3832 36.237 29.3832 36.2719 29.4037L37.1562 29.9144Z" fill="url(#paint20_linear_546_1263)"/>
<path d="M38.8584 30.2145C38.8933 30.235 38.8933 30.2675 38.8584 30.288L38.5066 30.4916C38.4717 30.512 38.4151 30.512 38.3801 30.4916L37.4959 29.9808C37.461 29.9603 37.4598 29.9278 37.4959 29.9073L37.8477 29.7037C37.8826 29.6832 37.9392 29.6832 37.9741 29.7037L38.8584 30.2145Z" fill="url(#paint21_linear_546_1263)"/>
<path d="M41.0845 31.4999C41.1194 31.5204 41.1194 31.5529 41.0845 31.5734L40.7327 31.777C40.6978 31.7975 40.6411 31.7975 40.6062 31.777L39.722 31.2662C39.687 31.2457 39.6858 31.2132 39.722 31.1927L40.0737 30.9891C40.1087 30.9686 40.1653 30.9686 40.2002 30.9891L41.0845 31.4999Z" fill="url(#paint22_linear_546_1263)"/>
<path d="M41.6088 32.4852C41.6437 32.5057 41.6437 32.5383 41.6088 32.5587L40.7571 33.0539C40.7222 33.0743 40.6655 33.0743 40.6306 33.0539L39.7464 32.5431C39.7114 32.5226 39.7102 32.4901 39.7464 32.4696L40.5981 31.9745C40.633 31.954 40.6896 31.954 40.7246 31.9745L41.6088 32.4852Z" fill="url(#paint23_linear_546_1263)"/>
<path d="M30.4775 26.0596C30.5124 26.0801 30.5124 26.1126 30.4775 26.1331L29.6258 26.6282C29.5909 26.6487 29.5342 26.6487 29.4993 26.6282L28.6151 26.1174C28.5801 26.0969 28.5801 26.0644 28.6151 26.0439L29.4668 25.5488C29.5017 25.5283 29.5583 25.5283 29.5933 25.5488L30.4775 26.0596Z" fill="url(#paint24_linear_546_1263)"/>
<path d="M28.2587 26.0596C28.2937 26.0801 28.2937 26.1126 28.2587 26.1331L27.407 26.6282C27.3721 26.6487 27.3155 26.6487 27.2805 26.6282L26.3963 26.1174C26.3614 26.0969 26.3614 26.0644 26.3963 26.0439L27.248 25.5488C27.283 25.5283 27.3396 25.5283 27.3745 25.5488L28.2587 26.0596Z" fill="url(#paint25_linear_546_1263)"/>
<path d="M30.4834 27.3449C30.5183 27.3653 30.5183 27.3979 30.4834 27.4184L29.6316 27.9135C29.5967 27.934 29.5401 27.934 29.5052 27.9135L28.6209 27.4027C28.586 27.3822 28.586 27.3497 28.6209 27.3292L29.4726 26.8341C29.5076 26.8136 29.5642 26.8136 29.5991 26.8341L30.4834 27.3449Z" fill="url(#paint26_linear_546_1263)"/>
<path d="M28.2646 27.3449C28.2995 27.3653 28.2995 27.3979 28.2646 27.4184L27.4129 27.9135C27.378 27.934 27.3213 27.934 27.2864 27.9135L26.4022 27.4027C26.3672 27.3822 26.3672 27.3497 26.4022 27.3292L27.2539 26.8341C27.2888 26.8136 27.3454 26.8136 27.3804 26.8341L28.2646 27.3449Z" fill="url(#paint27_linear_546_1263)"/>
<path d="M29.3779 27.9882C29.4128 28.0087 29.4128 28.0412 29.3779 28.0617L28.5262 28.5568C28.4912 28.5773 28.4346 28.5773 28.3997 28.5568L27.5155 28.046C27.4805 28.0255 27.4805 27.993 27.5155 27.9725L28.3672 27.4774C28.4021 27.4569 28.4587 27.4569 28.4937 27.4774L29.3779 27.9882Z" fill="url(#paint28_linear_546_1263)"/>
<path d="M27.1586 27.9882C27.1936 28.0087 27.1936 28.0412 27.1586 28.0617L26.3069 28.5568C26.272 28.5773 26.2154 28.5773 26.1805 28.5568L25.2962 28.046C25.2613 28.0255 25.2613 27.993 25.2962 27.9725L26.1479 27.4774C26.1829 27.4569 26.2395 27.4569 26.2744 27.4774L27.1586 27.9882Z" fill="url(#paint29_linear_546_1263)"/>
<path d="M28.2719 28.6303C28.3069 28.6507 28.3069 28.6833 28.2719 28.7038L27.4202 29.1989C27.3853 29.2194 27.3287 29.2194 27.2937 29.1989L26.4095 28.6881C26.3746 28.6676 26.3746 28.6351 26.4095 28.6146L27.2612 28.1195C27.2961 28.099 27.3528 28.099 27.3877 28.1195L28.2719 28.6303Z" fill="url(#paint30_linear_546_1263)"/>
<path d="M27.1645 29.2736C27.1994 29.2941 27.1994 29.3266 27.1645 29.3471L26.3128 29.8422C26.2779 29.8627 26.2212 29.8627 26.1863 29.8422L25.3021 29.3314C25.2671 29.3109 25.2671 29.2784 25.3021 29.2579L26.1538 28.7628C26.1887 28.7423 26.2453 28.7423 26.2803 28.7628L27.1645 29.2736Z" fill="url(#paint31_linear_546_1263)"/>
<path d="M32.7172 29.9157C32.7522 29.9361 32.7522 29.9687 32.7172 29.9892L31.8655 30.4843C31.8306 30.5048 31.774 30.5048 31.739 30.4843L30.8548 29.9735C30.8199 29.953 30.8199 29.9205 30.8548 29.9L31.7065 29.4049C31.7415 29.3844 31.7981 29.3844 31.833 29.4049L32.7172 29.9157Z" fill="url(#paint32_linear_546_1263)"/>
<path d="M31.6113 30.559C31.6462 30.5795 31.6462 30.612 31.6113 30.6325L30.7596 31.1276C30.7246 31.1481 30.668 31.1481 30.6331 31.1276L29.7489 30.6168C29.7139 30.5963 29.7139 30.5638 29.7489 30.5433L30.6006 30.0482C30.6355 30.0277 30.6921 30.0277 30.7271 30.0482L31.6113 30.559Z" fill="url(#paint33_linear_546_1263)"/>
<path d="M34.9433 31.2011C34.9782 31.2215 34.9782 31.2541 34.9433 31.2746L34.0916 31.7697C34.0566 31.7902 34 31.7902 33.9651 31.7697L33.0809 31.2589C33.0459 31.2384 33.0447 31.2059 33.0809 31.1854L33.9326 30.6903C33.9675 30.6698 34.0241 30.6698 34.059 30.6903L34.9433 31.2011Z" fill="url(#paint34_linear_546_1263)"/>
<path d="M36.0566 31.8432C36.0915 31.8636 36.0915 31.8962 36.0566 31.9166L35.2049 32.4118C35.1699 32.4322 35.1133 32.4322 35.0784 32.4118L34.1941 31.901C34.1592 31.8805 34.158 31.848 34.1941 31.8275L35.0458 31.3324C35.0808 31.3119 35.1374 31.3119 35.1723 31.3324L36.0566 31.8432Z" fill="url(#paint35_linear_546_1263)"/>
<path d="M33.8374 31.8432C33.8723 31.8636 33.8723 31.8962 33.8374 31.9166L32.9857 32.4118C32.9507 32.4322 32.8941 32.4322 32.8592 32.4118L31.9749 31.901C31.94 31.8805 31.94 31.848 31.9749 31.8275L32.8266 31.3324C32.8616 31.3119 32.9182 31.3119 32.9543 31.3324L33.8386 31.8432H33.8374Z" fill="url(#paint36_linear_546_1263)"/>
<path d="M33.8432 33.1298C33.8782 33.1503 33.8782 33.1828 33.8432 33.2033L32.9915 33.6984C32.9566 33.7189 32.9 33.7189 32.865 33.6984L31.9808 33.1876C31.9459 33.1671 31.9459 33.1346 31.9808 33.1141L32.8325 32.619C32.8674 32.5985 32.9241 32.5985 32.959 32.619L33.8432 33.1298Z" fill="url(#paint37_linear_546_1263)"/>
<path d="M36.0698 34.4152C36.1047 34.4357 36.1047 34.4682 36.0698 34.4887L35.2181 34.9838C35.1831 35.0043 35.1265 35.0043 35.0916 34.9838L34.2074 34.473C34.1724 34.4525 34.1724 34.42 34.2074 34.3995L35.0591 33.9044C35.094 33.8839 35.1506 33.8839 35.1855 33.9044L36.0698 34.4152Z" fill="url(#paint38_linear_546_1263)"/>
<path d="M29.3642 25.4163C29.3992 25.4368 29.3992 25.4693 29.3642 25.4898L28.5125 25.9849C28.4776 26.0054 28.421 26.0054 28.386 25.9849L27.5018 25.4741C27.4669 25.4536 27.4669 25.4211 27.5018 25.4006L28.3535 24.9055C28.3884 24.885 28.445 24.885 28.48 24.9055L29.3642 25.4163Z" fill="url(#paint39_linear_546_1263)"/>
<path d="M31.0679 25.7162C31.1028 25.7367 31.1028 25.7692 31.0679 25.7897L30.7161 25.9933C30.6812 26.0138 30.6246 26.0138 30.5896 25.9933L29.7054 25.4825C29.6705 25.462 29.6705 25.4295 29.7054 25.409L30.0572 25.2054C30.0921 25.1849 30.1487 25.1849 30.1837 25.2054L31.0679 25.7162Z" fill="url(#paint40_linear_546_1263)"/>
<path d="M33.294 27.0016C33.3289 27.0221 33.3289 27.0546 33.294 27.0751L32.9422 27.2787C32.9073 27.2992 32.8506 27.2992 32.8157 27.2787L31.9315 26.7679C31.8965 26.7474 31.8965 26.7149 31.9315 26.6944L32.2832 26.4908C32.3182 26.4703 32.3748 26.4703 32.4097 26.4908L33.294 27.0016Z" fill="url(#paint41_linear_546_1263)"/>
<path d="M29.3715 26.7017C29.4065 26.7222 29.4065 26.7547 29.3715 26.7752L28.5198 27.2703C28.4849 27.2908 28.4283 27.2908 28.3933 27.2703L27.5091 26.7595C27.4742 26.739 27.4742 26.7065 27.5091 26.686L28.3608 26.1909C28.3958 26.1704 28.4524 26.1704 28.4873 26.1909L29.3715 26.7017Z" fill="url(#paint42_linear_546_1263)"/>
<path d="M27.1513 26.7028C27.1863 26.7233 27.1863 26.7558 27.1513 26.7763L26.2996 27.2714C26.2647 27.2919 26.2081 27.2919 26.1731 27.2714L25.2889 26.7606C25.254 26.7401 25.254 26.7076 25.2889 26.6871L26.1406 26.192C26.1755 26.1715 26.2322 26.1715 26.2671 26.192L27.1513 26.7028Z" fill="url(#paint43_linear_546_1263)"/>
<path d="M32.7036 27.3438C32.7385 27.3642 32.7385 27.3968 32.7036 27.4173L31.8519 27.9124C31.8169 27.9329 31.7603 27.9329 31.7254 27.9124L30.8411 27.4016C30.8062 27.3811 30.8062 27.3486 30.8411 27.3281L31.6928 26.833C31.7278 26.8125 31.7844 26.8125 31.8193 26.833L32.7036 27.3438Z" fill="url(#paint44_linear_546_1263)"/>
<path d="M34.4072 27.6437C34.4422 27.6642 34.4422 27.6967 34.4072 27.7172L34.0555 27.9208C34.0205 27.9412 33.9639 27.9412 33.929 27.9208L33.0448 27.41C33.0098 27.3895 33.0098 27.357 33.0448 27.3365L33.3965 27.1329C33.4315 27.1124 33.4881 27.1124 33.523 27.1329L34.4072 27.6437Z" fill="url(#paint45_linear_546_1263)"/>
<path d="M26.0454 27.3449C26.0803 27.3653 26.0803 27.3979 26.0454 27.4184L25.1937 27.9135C25.1587 27.934 25.1021 27.934 25.0672 27.9135L24.1829 27.4027C24.148 27.3822 24.148 27.3497 24.1829 27.3292L25.0346 26.8341C25.0696 26.8136 25.1262 26.8136 25.1611 26.8341L26.0454 27.3449Z" fill="url(#paint46_linear_546_1263)"/>
<path d="M33.8168 27.987C33.8518 28.0074 33.8518 28.04 33.8168 28.0604L32.9651 28.5556C32.9302 28.576 32.8736 28.576 32.8387 28.5556L31.9544 28.0448C31.9195 28.0243 31.9195 27.9918 31.9544 27.9713L32.8061 27.4762C32.8411 27.4557 32.8977 27.4557 32.9326 27.4762L33.8168 27.987Z" fill="url(#paint47_linear_546_1263)"/>
<path d="M35.5205 28.287C35.5555 28.3075 35.5555 28.34 35.5205 28.3605L35.1688 28.5641C35.1338 28.5846 35.0772 28.5846 35.0423 28.5641L34.158 28.0533C34.1231 28.0328 34.1231 28.0003 34.158 27.9798L34.5098 27.7762C34.5447 27.7557 34.6014 27.7557 34.6363 27.7762L35.5205 28.287Z" fill="url(#paint48_linear_546_1263)"/>
<path d="M31.5966 27.987C31.6316 28.0074 31.6316 28.04 31.5966 28.0604L30.7449 28.5556C30.71 28.576 30.6534 28.576 30.6184 28.5556L29.7342 28.0448C29.6993 28.0243 29.6993 27.9918 29.7342 27.9713L30.5859 27.4762C30.6209 27.4557 30.6775 27.4557 30.7124 27.4762L31.5966 27.987Z" fill="url(#paint49_linear_546_1263)"/>
<path d="M24.9384 27.9882C24.9734 28.0087 24.9734 28.0412 24.9384 28.0617L24.0867 28.5568C24.0518 28.5773 23.9952 28.5773 23.9602 28.5568L23.076 28.046C23.0411 28.0255 23.0411 27.993 23.076 27.9725L23.9277 27.4774C23.9626 27.4569 24.0193 27.4569 24.0542 27.4774L24.9384 27.9882Z" fill="url(#paint50_linear_546_1263)"/>
<path d="M36.6333 28.9291C36.6683 28.9496 36.6683 28.9821 36.6333 29.0026L36.2816 29.2062C36.2466 29.2266 36.19 29.2266 36.1551 29.2062L35.2708 28.6954C35.2359 28.6749 35.2359 28.6424 35.2708 28.6219L35.6226 28.4183C35.6575 28.3978 35.7142 28.3978 35.7491 28.4183L36.6333 28.9291Z" fill="url(#paint51_linear_546_1263)"/>
<path d="M32.7099 28.6303C32.7449 28.6507 32.7449 28.6833 32.7099 28.7038L31.8582 29.1989C31.8233 29.2194 31.7667 29.2194 31.7317 29.1989L30.8475 28.6881C30.8126 28.6676 30.8126 28.6351 30.8475 28.6146L31.6992 28.1195C31.7341 28.099 31.7907 28.099 31.8257 28.1195L32.7099 28.6303Z" fill="url(#paint52_linear_546_1263)"/>
<path d="M30.4907 28.6303C30.5256 28.6507 30.5256 28.6833 30.4907 28.7038L29.639 29.1989C29.604 29.2194 29.5474 29.2194 29.5125 29.1989L28.6283 28.6881C28.5933 28.6676 28.5933 28.6351 28.6283 28.6146L29.48 28.1195C29.5149 28.099 29.5715 28.099 29.6064 28.1195L30.4907 28.6303Z" fill="url(#paint53_linear_546_1263)"/>
<path d="M26.0517 28.6315C26.0866 28.652 26.0866 28.6845 26.0517 28.705L25.2 29.2001C25.1651 29.2206 25.1085 29.2206 25.0735 29.2001L24.1893 28.6893C24.1544 28.6688 24.1544 28.6363 24.1893 28.6158L25.041 28.1207C25.0759 28.1002 25.1325 28.1002 25.1675 28.1207L26.0517 28.6315Z" fill="url(#paint54_linear_546_1263)"/>
<path d="M36.0429 29.2724C36.0779 29.2928 36.0779 29.3254 36.0429 29.3458L35.1912 29.841C35.1563 29.8614 35.0997 29.8614 35.0647 29.841L34.1805 29.3302C34.1456 29.3097 34.1456 29.2772 34.1805 29.2567L35.0322 28.7616C35.0671 28.7411 35.1238 28.7411 35.1587 28.7616L36.0429 29.2724Z" fill="url(#paint55_linear_546_1263)"/>
<path d="M33.8227 29.2724C33.8576 29.2928 33.8576 29.3254 33.8227 29.3458L32.971 29.841C32.9361 29.8614 32.8795 29.8614 32.8445 29.841L31.9603 29.3302C31.9253 29.3097 31.9253 29.2772 31.9603 29.2567L32.812 28.7616C32.8469 28.7411 32.9035 28.7411 32.9385 28.7616L33.8227 29.2724Z" fill="url(#paint56_linear_546_1263)"/>
<path d="M31.604 29.2724C31.6389 29.2928 31.6389 29.3254 31.604 29.3458L30.7523 29.841C30.7173 29.8614 30.6607 29.8614 30.6258 29.841L29.7415 29.3302C29.7066 29.3097 29.7066 29.2772 29.7415 29.2567L30.5932 28.7616C30.6282 28.7411 30.6848 28.7411 30.7197 28.7616L31.604 29.2724Z" fill="url(#paint57_linear_546_1263)"/>
<path d="M29.3847 29.2736C29.4197 29.2941 29.4197 29.3266 29.3847 29.3471L28.533 29.8422C28.4981 29.8627 28.4415 29.8627 28.4065 29.8422L27.5223 29.3314C27.4874 29.3109 27.4874 29.2784 27.5223 29.2579L28.374 28.7628C28.4089 28.7423 28.4656 28.7423 28.5005 28.7628L29.3847 29.2736Z" fill="url(#paint58_linear_546_1263)"/>
<path d="M34.936 29.9157C34.9709 29.9361 34.9709 29.9687 34.936 29.9892L34.0843 30.4843C34.0494 30.5048 33.9927 30.5048 33.9578 30.4843L33.0736 29.9735C33.0386 29.953 33.0386 29.9205 33.0736 29.9L33.9253 29.4049C33.9602 29.3844 34.0168 29.3844 34.0518 29.4049L34.936 29.9157Z" fill="url(#paint59_linear_546_1263)"/>
<path d="M30.498 29.9157C30.5329 29.9361 30.5329 29.9687 30.498 29.9892L29.6463 30.4843C29.6114 30.5048 29.5547 30.5048 29.5198 30.4843L28.6356 29.9735C28.6006 29.953 28.6006 29.9205 28.6356 29.9L29.4873 29.4049C29.5222 29.3844 29.5788 29.3844 29.6138 29.4049L30.498 29.9157Z" fill="url(#paint60_linear_546_1263)"/>
<path d="M28.2778 29.9169C28.3127 29.9374 28.3127 29.9699 28.2778 29.9904L27.4261 30.4855C27.3911 30.506 27.3345 30.506 27.2996 30.4855L26.4154 29.9747C26.3804 29.9542 26.3804 29.9217 26.4154 29.9012L27.2671 29.4061C27.302 29.3856 27.3586 29.3856 27.3936 29.4061L28.2778 29.9169Z" fill="url(#paint61_linear_546_1263)"/>
<path d="M39.9714 30.8578C40.0064 30.8783 40.0064 30.9108 39.9714 30.9313L39.6197 31.1349C39.5847 31.1554 39.5281 31.1554 39.4932 31.1349L38.6077 30.6241C38.5728 30.6036 38.5728 30.5711 38.6077 30.5506L38.9595 30.347C38.9944 30.3265 39.0511 30.3265 39.086 30.347L39.9714 30.8578Z" fill="url(#paint62_linear_546_1263)"/>
<path d="M36.0493 30.5578C36.0842 30.5782 36.0842 30.6108 36.0493 30.6312L35.1976 31.1264C35.1626 31.1468 35.106 31.1468 35.0711 31.1264L34.1868 30.6156C34.1519 30.5951 34.1519 30.5626 34.1868 30.5421L35.0385 30.047C35.0735 30.0265 35.1301 30.0265 35.165 30.047L36.0493 30.5578Z" fill="url(#paint63_linear_546_1263)"/>
<path d="M33.83 30.5578C33.865 30.5782 33.865 30.6108 33.83 30.6312L32.9783 31.1264C32.9434 31.1468 32.8868 31.1468 32.8518 31.1264L31.9676 30.6156C31.9327 30.5951 31.9327 30.5626 31.9676 30.5421L32.8193 30.047C32.8542 30.0265 32.9109 30.0265 32.9458 30.047L33.83 30.5578Z" fill="url(#paint64_linear_546_1263)"/>
<path d="M29.3911 30.559C29.426 30.5795 29.426 30.612 29.3911 30.6325L28.5394 31.1276C28.5044 31.1481 28.4478 31.1481 28.4129 31.1276L27.5286 30.6168C27.4937 30.5963 27.4937 30.5638 27.5286 30.5433L28.3803 30.0482C28.4153 30.0277 28.4719 30.0277 28.5068 30.0482L29.3911 30.559Z" fill="url(#paint65_linear_546_1263)"/>
<path d="M39.3825 31.1998C39.4174 31.2203 39.4174 31.2529 39.3825 31.2733L38.5308 31.7685C38.4959 31.7889 38.4392 31.7889 38.4043 31.7685L37.5189 31.2577C37.4839 31.2372 37.4839 31.2047 37.5189 31.1842L38.3706 30.6891C38.4055 30.6686 38.4621 30.6686 38.4971 30.6891L39.3825 31.1998Z" fill="url(#paint66_linear_546_1263)"/>
<path d="M32.7241 31.2011C32.759 31.2215 32.759 31.2541 32.7241 31.2746L31.8724 31.7697C31.8374 31.7902 31.7808 31.7902 31.7459 31.7697L30.8617 31.2589C30.8267 31.2384 30.8267 31.2059 30.8617 31.1854L31.7134 30.6903C31.7483 30.6698 31.8049 30.6698 31.8398 30.6903L32.7241 31.2011Z" fill="url(#paint67_linear_546_1263)"/>
<path d="M30.5039 31.2011C30.5388 31.2215 30.5388 31.2541 30.5039 31.2746L29.6522 31.7697C29.6172 31.7902 29.5606 31.7902 29.5257 31.7697L28.6414 31.2589C28.6065 31.2384 28.6065 31.2059 28.6414 31.1854L29.4931 30.6903C29.5281 30.6698 29.5847 30.6698 29.6196 30.6903L30.5039 31.2011Z" fill="url(#paint68_linear_546_1263)"/>
<path d="M43.9758 31.8251C44.0481 31.8672 44.0481 31.9347 43.9758 31.9756L43.83 32.06L43.506 32.2491C43.4337 32.2913 43.3168 32.2913 43.2445 32.2491L31.0532 25.2102C30.981 25.168 30.981 25.1006 31.0532 25.0596L31.3773 24.8705L31.5231 24.7861C31.5953 24.744 31.7122 24.744 31.7845 24.7861L43.9758 31.8251Z" fill="url(#paint69_linear_546_1263)"/>
<path d="M42.1977 32.142C42.2327 32.1625 42.2327 32.195 42.1977 32.2155L41.846 32.4191C41.811 32.4395 41.7544 32.4395 41.7195 32.4191L40.8352 31.9083C40.8003 31.8878 40.7991 31.8553 40.8352 31.8348L41.187 31.6312C41.222 31.6107 41.2786 31.6107 41.3135 31.6312L42.1977 32.142Z" fill="url(#paint70_linear_546_1263)"/>
<path d="M38.2756 31.8432C38.3105 31.8636 38.3105 31.8962 38.2756 31.9166L37.4239 32.4118C37.3889 32.4322 37.3311 32.4322 37.2974 32.4118L36.4119 31.901C36.377 31.8805 36.377 31.848 36.4119 31.8275L37.2636 31.3324C37.2986 31.3119 37.3552 31.3119 37.3901 31.3324L38.2756 31.8432Z" fill="url(#paint71_linear_546_1263)"/>
<path d="M31.6171 31.8444C31.6521 31.8649 31.6521 31.8974 31.6171 31.9179L30.7654 32.413C30.7305 32.4335 30.6739 32.4335 30.6389 32.413L29.7547 31.9022C29.7198 31.8817 29.7198 31.8492 29.7547 31.8287L30.6064 31.3336C30.6414 31.3131 30.698 31.3131 30.7329 31.3336L31.6171 31.8444Z" fill="url(#paint72_linear_546_1263)"/>
<path d="M43.311 32.7852C43.346 32.8057 43.346 32.8382 43.311 32.8587L42.9593 33.0622C42.9243 33.0827 42.8677 33.0827 42.8328 33.0622L41.9485 32.5515C41.9136 32.531 41.9124 32.4985 41.9485 32.478L42.3003 32.2744C42.3352 32.2539 42.3919 32.2539 42.4268 32.2744L43.311 32.7852Z" fill="url(#paint73_linear_546_1263)"/>
<path d="M37.1696 32.4865C37.2046 32.5069 37.2046 32.5395 37.1696 32.56L36.3179 33.0551C36.283 33.0756 36.2264 33.0756 36.1914 33.0551L35.306 32.5443C35.2711 32.5238 35.2711 32.4913 35.306 32.4708L36.1577 31.9757C36.1926 31.9552 36.2492 31.9552 36.2842 31.9757L37.1696 32.4865Z" fill="url(#paint74_linear_546_1263)"/>
<path d="M34.9492 32.4865C34.9841 32.5069 34.9841 32.5395 34.9492 32.56L34.0975 33.0551C34.0625 33.0756 34.0059 33.0756 33.971 33.0551L33.0867 32.5443C33.0518 32.5238 33.0518 32.4913 33.0867 32.4708L33.9385 31.9757C33.9734 31.9552 34.03 31.9552 34.0661 31.9757L34.9504 32.4865H34.9492Z" fill="url(#paint75_linear_546_1263)"/>
<path d="M32.7304 32.4865C32.7654 32.5069 32.7654 32.5395 32.7304 32.56L31.8787 33.0551C31.8438 33.0756 31.7872 33.0756 31.7522 33.0551L30.868 32.5443C30.8331 32.5238 30.8331 32.4913 30.868 32.4708L31.7197 31.9757C31.7546 31.9552 31.8113 31.9552 31.8462 31.9757L32.7304 32.4865Z" fill="url(#paint76_linear_546_1263)"/>
<path d="M42.7206 33.1273C42.7556 33.1478 42.7556 33.1803 42.7206 33.2008L41.8689 33.6959C41.834 33.7164 41.7774 33.7164 41.7424 33.6959L40.8582 33.1852C40.8233 33.1647 40.8221 33.1322 40.8582 33.1117L41.7099 32.6166C41.7448 32.5961 41.8015 32.5961 41.8364 32.6166L42.7206 33.1273Z" fill="url(#paint77_linear_546_1263)"/>
<path d="M44.4238 33.4274C44.4587 33.4479 44.4587 33.4804 44.4238 33.5009L44.072 33.7045C44.0371 33.7249 43.9805 33.7249 43.9456 33.7045L43.0613 33.1937C43.0264 33.1732 43.0252 33.1407 43.0613 33.1202L43.4131 32.9166C43.448 32.8961 43.5046 32.8961 43.5396 32.9166L44.4238 33.4274Z" fill="url(#paint78_linear_546_1263)"/>
<path d="M40.5014 33.1286C40.5364 33.149 40.5364 33.1816 40.5014 33.202L39.6497 33.6972C39.6148 33.7176 39.5582 33.7176 39.5232 33.6972L38.639 33.1864C38.6041 33.1659 38.6041 33.1334 38.639 33.1129L39.4907 32.6178C39.5256 32.5973 39.5823 32.5973 39.6172 32.6178L40.5014 33.1286Z" fill="url(#paint79_linear_546_1263)"/>
<path d="M38.2826 33.1286C38.3176 33.149 38.3176 33.1816 38.2826 33.202L37.4309 33.6972C37.396 33.7176 37.3394 33.7176 37.3044 33.6972L36.4202 33.1864C36.3853 33.1659 36.3841 33.1334 36.4202 33.1129L37.2719 32.6178C37.3069 32.5973 37.3635 32.5973 37.3984 32.6178L38.2826 33.1286Z" fill="url(#paint80_linear_546_1263)"/>
<path d="M36.0622 33.1286C36.0971 33.149 36.0971 33.1816 36.0622 33.202L35.2105 33.6972C35.1756 33.7176 35.1177 33.7176 35.084 33.6972L34.1986 33.1864C34.1636 33.1659 34.1636 33.1334 34.1986 33.1129L35.0503 32.6178C35.0852 32.5973 35.1418 32.5973 35.1768 32.6178L36.0622 33.1286Z" fill="url(#paint81_linear_546_1263)"/>
<path d="M43.8339 33.7706C43.8688 33.7911 43.8688 33.8237 43.8339 33.8441L42.9822 34.3393C42.9473 34.3597 42.8906 34.3597 42.8557 34.3393L41.9715 33.8285C41.9365 33.808 41.9353 33.7755 41.9715 33.755L42.8232 33.2599C42.8581 33.2394 42.9147 33.2394 42.9497 33.2599L43.8339 33.7706Z" fill="url(#paint82_linear_546_1263)"/>
<path d="M41.6147 33.7706C41.6496 33.7911 41.6496 33.8237 41.6147 33.8441L40.763 34.3393C40.7281 34.3597 40.6714 34.3597 40.6365 34.3393L39.7523 33.8285C39.7173 33.808 39.7173 33.7755 39.7523 33.755L40.604 33.2599C40.6389 33.2394 40.6955 33.2394 40.7305 33.2599L41.6147 33.7706Z" fill="url(#paint83_linear_546_1263)"/>
<path d="M39.3959 33.7706C39.4309 33.7911 39.4309 33.8237 39.3959 33.8441L38.5442 34.3393C38.5093 34.3597 38.4527 34.3597 38.4177 34.3393L37.5335 33.8285C37.4986 33.808 37.4974 33.7755 37.5335 33.755L38.3852 33.2599C38.4201 33.2394 38.4768 33.2394 38.5117 33.2599L39.3959 33.7706Z" fill="url(#paint84_linear_546_1263)"/>
<path d="M37.1757 33.7719C37.2107 33.7923 37.2107 33.8249 37.1757 33.8454L36.324 34.3405C36.2891 34.361 36.2325 34.361 36.1975 34.3405L35.3133 33.8297C35.2784 33.8092 35.2784 33.7767 35.3133 33.7562L36.165 33.2611C36.2 33.2406 36.2566 33.2406 36.2927 33.2611L37.1769 33.7719H37.1757Z" fill="url(#paint85_linear_546_1263)"/>
<path d="M34.9567 33.7719C34.9917 33.7923 34.9917 33.8249 34.9567 33.8454L34.105 34.3405C34.0701 34.361 34.0135 34.361 33.9785 34.3405L33.0931 33.8297C33.0582 33.8092 33.0582 33.7767 33.0931 33.7562L33.9448 33.2611C33.9797 33.2406 34.0364 33.2406 34.0713 33.2611L34.9567 33.7719Z" fill="url(#paint86_linear_546_1263)"/>
<path d="M42.7265 34.4127C42.7615 34.4332 42.7615 34.4657 42.7265 34.4862L41.8748 34.9813C41.8399 35.0018 41.7833 35.0018 41.7483 34.9813L40.8641 34.4706C40.8292 34.4501 40.8292 34.4176 40.8641 34.3971L41.7158 33.902C41.7507 33.8815 41.8074 33.8815 41.8423 33.902L42.7265 34.4127Z" fill="url(#paint87_linear_546_1263)"/>
<path d="M40.5087 34.414C40.5436 34.4344 40.5436 34.467 40.5087 34.4874L39.657 34.9826C39.6221 35.003 39.5655 35.003 39.5305 34.9826L38.6463 34.4718C38.6113 34.4513 38.6101 34.4188 38.6463 34.3983L39.498 33.9032C39.5329 33.8827 39.5895 33.8827 39.6245 33.9032L40.5087 34.414Z" fill="url(#paint88_linear_546_1263)"/>
<path d="M38.2885 34.414C38.3235 34.4344 38.3235 34.467 38.2885 34.4874L37.4368 34.9826C37.4019 35.003 37.3453 35.003 37.3103 34.9826L36.4261 34.4718C36.3912 34.4513 36.3912 34.4188 36.4261 34.3983L37.2778 33.9032C37.3127 33.8827 37.3694 33.8827 37.4055 33.9032L38.2897 34.414H38.2885Z" fill="url(#paint89_linear_546_1263)"/>
<path d="M41.6205 35.056C41.6555 35.0765 41.6555 35.1091 41.6205 35.1295L40.7688 35.6247C40.7339 35.6451 40.6773 35.6451 40.6423 35.6247L39.7581 35.1139C39.7232 35.0934 39.722 35.0609 39.7581 35.0404L40.6098 34.5453C40.6447 34.5248 40.7014 34.5248 40.7363 34.5453L41.6205 35.056Z" fill="url(#paint90_linear_546_1263)"/>
<path d="M39.4018 35.0573C39.4367 35.0777 39.4367 35.1103 39.4018 35.1308L38.5501 35.6259C38.5152 35.6464 38.4586 35.6464 38.4236 35.6259L37.5394 35.1151C37.5044 35.0946 37.5044 35.0621 37.5394 35.0416L38.3911 34.5465C38.426 34.526 38.4826 34.526 38.5188 34.5465L39.403 35.0573H39.4018Z" fill="url(#paint91_linear_546_1263)"/>
<path d="M37.1826 35.0573C37.2175 35.0777 37.2175 35.1103 37.1826 35.1308L36.3309 35.6259C36.2959 35.6464 36.2393 35.6464 36.2044 35.6259L35.3201 35.1151C35.2852 35.0946 35.2852 35.0621 35.3201 35.0416L36.1719 34.5465C36.2068 34.526 36.2634 34.526 36.2983 34.5465L37.1826 35.0573Z" fill="url(#paint92_linear_546_1263)"/>
<path d="M40.5151 35.6994C40.55 35.7198 40.55 35.7524 40.5151 35.7728L39.6634 36.268C39.6285 36.2884 39.5718 36.2884 39.5369 36.268L38.6527 35.7572C38.6177 35.7367 38.6177 35.7042 38.6527 35.6837L39.5044 35.1886C39.5393 35.1681 39.5959 35.1681 39.6321 35.1886L40.5163 35.6994H40.5151Z" fill="url(#paint93_linear_546_1263)"/>
<path d="M38.2959 35.6994C38.3308 35.7198 38.3308 35.7524 38.2959 35.7728L37.4441 36.268C37.4092 36.2884 37.3526 36.2884 37.3177 36.268L36.4334 35.7572C36.3985 35.7367 36.3985 35.7042 36.4334 35.6837L37.2851 35.1886C37.3201 35.1681 37.3767 35.1681 37.4116 35.1886L38.2959 35.6994Z" fill="url(#paint94_linear_546_1263)"/>
<path d="M39.4077 36.3427C39.4426 36.3631 39.4426 36.3957 39.4077 36.4162L38.556 36.9113C38.521 36.9318 38.4644 36.9318 38.4295 36.9113L37.5452 36.4005C37.5103 36.38 37.5103 36.3475 37.5452 36.327L38.397 35.8319C38.4319 35.8114 38.4885 35.8114 38.5234 35.8319L39.4077 36.3427Z" fill="url(#paint95_linear_546_1263)"/>
<path d="M46.0706 33.4971C46.0706 33.4971 46.0706 33.508 46.0682 33.514C46.0682 33.5188 46.0657 33.5224 46.0645 33.5273C46.0633 33.5321 46.0621 33.5381 46.0597 33.5429C46.0585 33.5477 46.0561 33.5514 46.0549 33.5562C46.0525 33.5622 46.0501 33.567 46.0477 33.573C46.0453 33.5767 46.0429 33.5803 46.0404 33.5851C46.0368 33.5911 46.0332 33.5971 46.0284 33.6032C46.026 33.6068 46.0224 33.6104 46.02 33.614C46.0127 33.6224 46.0055 33.6297 45.9983 33.6381C45.9959 33.6405 45.9923 33.6441 45.9898 33.6465C45.985 33.6513 45.979 33.655 45.9742 33.6598C45.9694 33.6634 45.9646 33.6682 45.9597 33.6718C45.9537 33.6766 45.9477 33.6803 45.9417 33.6839C45.9356 33.6887 45.9284 33.6923 45.9212 33.6971L34.7792 40.1722C34.7563 40.1855 34.7322 40.1963 34.7057 40.2072C34.6984 40.2096 34.6924 40.212 34.6852 40.2144C34.6695 40.2204 34.6527 40.2253 34.6358 40.2289C34.6189 40.2337 34.6009 40.2385 34.584 40.2421C34.5635 40.2469 34.5418 40.2506 34.5201 40.253C34.5153 40.253 34.5105 40.2542 34.5045 40.2554C34.4756 40.259 34.4455 40.2602 34.4165 40.2602C34.4117 40.2602 34.4069 40.2602 34.4021 40.2602C34.3732 40.2602 34.3443 40.2578 34.3154 40.2554C34.3105 40.2554 34.3069 40.2554 34.3021 40.2542C34.2732 40.2506 34.2455 40.2457 34.2178 40.2397C34.213 40.2397 34.2081 40.2373 34.2033 40.2361C34.178 40.2301 34.1539 40.2228 34.131 40.2144C34.1274 40.2132 34.1226 40.212 34.1178 40.2096C34.0901 40.1988 34.0636 40.1867 34.0383 40.1722L17.4487 30.5903C17.3463 30.5312 17.2945 30.4529 17.2945 30.3746V30.9372C17.2921 31.0155 17.3439 31.0938 17.4475 31.1529L34.0383 40.7312C34.0624 40.7445 34.0877 40.7565 34.1142 40.7674C34.1154 40.7674 34.1166 40.7674 34.119 40.7686C34.1226 40.7698 34.1274 40.771 34.1322 40.7734C34.1479 40.7794 34.1624 40.7842 34.1792 40.789C34.1877 40.7915 34.1961 40.7939 34.2057 40.7951C34.2105 40.7963 34.2154 40.7975 34.2202 40.7987C34.225 40.7987 34.2286 40.8011 34.2334 40.8023C34.2503 40.8059 34.2684 40.8083 34.2852 40.8107C34.2913 40.8107 34.2973 40.8119 34.3033 40.8131C34.3081 40.8131 34.3117 40.8131 34.3166 40.8143C34.3226 40.8143 34.3298 40.8155 34.3358 40.8168C34.3527 40.818 34.3696 40.8192 34.3876 40.8192C34.3925 40.8192 34.3985 40.8192 34.4033 40.8192C34.4081 40.8192 34.4129 40.8192 34.4178 40.8192C34.4262 40.8192 34.4334 40.8192 34.4418 40.8192C34.4611 40.8192 34.4804 40.8167 34.4997 40.8155C34.5021 40.8155 34.5045 40.8155 34.5057 40.8155C34.5105 40.8155 34.5153 40.8143 34.5214 40.8131C34.5358 40.8107 34.5515 40.8095 34.5659 40.8071C34.5719 40.8071 34.578 40.8035 34.5852 40.8023C34.6033 40.7987 34.6201 40.7939 34.637 40.789C34.6466 40.7866 34.6563 40.7854 34.6647 40.7818C34.6719 40.7794 34.6792 40.7758 34.6864 40.7734C34.6936 40.771 34.6996 40.7686 34.7069 40.7662C34.7322 40.7553 34.7575 40.7445 34.7804 40.7312L45.9224 34.2561L45.9284 34.2525C45.9284 34.2525 45.9368 34.2465 45.9417 34.2428C45.9477 34.2392 45.9549 34.2344 45.9597 34.2308C45.9646 34.2272 45.9694 34.2236 45.9742 34.2187C45.9802 34.2139 45.985 34.2103 45.9898 34.2055C45.9898 34.2055 45.9923 34.2043 45.9935 34.2031C45.9959 34.2007 45.9971 34.1995 45.9995 34.1971C46.0079 34.1898 46.0151 34.1814 46.0212 34.173C46.0224 34.1718 46.0248 34.1694 46.026 34.1682C46.0272 34.1669 46.0284 34.1645 46.0296 34.1633C46.0344 34.1573 46.038 34.1513 46.0417 34.1453C46.0429 34.1429 46.0453 34.1404 46.0465 34.138C46.0465 34.1368 46.0465 34.1356 46.0489 34.1344C46.0513 34.1296 46.0537 34.1236 46.0561 34.1176C46.0573 34.1139 46.0597 34.1115 46.0609 34.1079C46.0609 34.1079 46.0609 34.1055 46.0609 34.1043C46.0633 34.0995 46.0645 34.0935 46.0657 34.0886C46.0657 34.085 46.0682 34.0814 46.0682 34.0778V34.0754C46.0682 34.0754 46.0694 34.0646 46.0706 34.0585C46.0706 34.0549 46.0706 34.0513 46.0718 34.0477V33.4803C46.0718 33.4803 46.0718 33.4899 46.0718 33.4959L46.0706 33.4971Z" fill="url(#paint96_linear_546_1263)"/>
</g>
<defs>
<linearGradient id="paint0_linear_546_1263" x1="6.48102" y1="54.0598" x2="43.4224" y2="54.0598" gradientUnits="userSpaceOnUse">
<stop stop-color="white"/>
<stop offset="1" stop-color="#BED9FD"/>
</linearGradient>
<linearGradient id="paint1_linear_546_1263" x1="51.0323" y1="41.1614" x2="17.2822" y2="41.1614" gradientUnits="userSpaceOnUse">
<stop stop-color="#55CDED"/>
<stop offset="1" stop-color="#003CCF"/>
</linearGradient>
<linearGradient id="paint2_linear_546_1263" x1="32.8431" y1="0.713256" x2="32.8431" y2="39.4857" gradientUnits="userSpaceOnUse">
<stop stop-color="#BED9FD"/>
<stop offset="1" stop-color="white"/>
</linearGradient>
<linearGradient id="paint3_linear_546_1263" x1="29.7847" y1="21.9396" x2="45.5587" y2="21.9396" gradientUnits="userSpaceOnUse">
<stop stop-color="#BED9FD"/>
<stop offset="1" stop-color="white"/>
</linearGradient>
<linearGradient id="paint4_linear_546_1263" x1="29.3872" y1="21.9396" x2="45.9563" y2="21.9396" gradientUnits="userSpaceOnUse">
<stop stop-color="#3D75DA"/>
<stop offset="1" stop-color="#55CDED"/>
</linearGradient>
<linearGradient id="paint5_linear_546_1263" x1="29.5259" y1="21.7938" x2="46.4202" y2="21.7938" gradientUnits="userSpaceOnUse">
<stop stop-color="#55CDED"/>
<stop offset="1" stop-color="#003CCF"/>
</linearGradient>
<linearGradient id="paint6_linear_546_1263" x1="22.5532" y1="30.7422" x2="44.9276" y2="30.7422" gradientUnits="userSpaceOnUse">
<stop stop-color="#BED9FD"/>
<stop offset="1" stop-color="white"/>
</linearGradient>
<linearGradient id="paint7_linear_546_1263" x1="17.2946" y1="31.9287" x2="46.0718" y2="31.9287" gradientUnits="userSpaceOnUse">
<stop stop-color="#BED9FD"/>
<stop offset="1" stop-color="white"/>
</linearGradient>
<linearGradient id="paint8_linear_546_1263" x1="24.0639" y1="33.9237" x2="27.2671" y2="33.9237" gradientUnits="userSpaceOnUse">
<stop stop-color="#BED9FD"/>
<stop offset="1" stop-color="white"/>
</linearGradient>
<linearGradient id="paint9_linear_546_1263" x1="24.9601" y1="33.6622" x2="32.399" y2="33.6622" gradientUnits="userSpaceOnUse">
<stop stop-color="#BED9FD"/>
<stop offset="1" stop-color="white"/>
</linearGradient>
<linearGradient id="paint10_linear_546_1263" x1="26.6354" y1="35.409" x2="29.8387" y2="35.409" gradientUnits="userSpaceOnUse">
<stop stop-color="#BED9FD"/>
<stop offset="1" stop-color="white"/>
</linearGradient>
<linearGradient id="paint11_linear_546_1263" x1="28.7069" y1="22.9671" x2="39.6947" y2="35.8547" gradientUnits="userSpaceOnUse">
<stop stop-color="#55CDED"/>
<stop offset="1" stop-color="#003CCF"/>
</linearGradient>
<linearGradient id="paint12_linear_546_1263" x1="29.9427" y1="21.913" x2="40.9306" y2="34.8006" gradientUnits="userSpaceOnUse">
<stop stop-color="#55CDED"/>
<stop offset="1" stop-color="#003CCF"/>
</linearGradient>
<linearGradient id="paint13_linear_546_1263" x1="28.9847" y1="22.7298" x2="39.9726" y2="35.6174" gradientUnits="userSpaceOnUse">
<stop stop-color="#55CDED"/>
<stop offset="1" stop-color="#003CCF"/>
</linearGradient>
<linearGradient id="paint14_linear_546_1263" x1="30.5979" y1="21.3553" x2="41.5858" y2="34.2429" gradientUnits="userSpaceOnUse">
<stop stop-color="#55CDED"/>
<stop offset="1" stop-color="#003CCF"/>
</linearGradient>
<linearGradient id="paint15_linear_546_1263" x1="29.6392" y1="22.172" x2="40.627" y2="35.0596" gradientUnits="userSpaceOnUse">
<stop stop-color="#55CDED"/>
<stop offset="1" stop-color="#003CCF"/>
</linearGradient>
<linearGradient id="paint16_linear_546_1263" x1="28.0524" y1="23.5249" x2="39.0403" y2="36.4125" gradientUnits="userSpaceOnUse">
<stop stop-color="#55CDED"/>
<stop offset="1" stop-color="#003CCF"/>
</linearGradient>
<linearGradient id="paint17_linear_546_1263" x1="27.9792" y1="23.5876" x2="38.967" y2="36.4752" gradientUnits="userSpaceOnUse">
<stop stop-color="#55CDED"/>
<stop offset="1" stop-color="#003CCF"/>
</linearGradient>
<linearGradient id="paint18_linear_546_1263" x1="28.961" y1="22.7504" x2="39.9488" y2="35.638" gradientUnits="userSpaceOnUse">
<stop stop-color="#55CDED"/>
<stop offset="1" stop-color="#003CCF"/>
</linearGradient>
<linearGradient id="paint19_linear_546_1263" x1="30.3436" y1="21.5722" x2="41.3314" y2="34.4598" gradientUnits="userSpaceOnUse">
<stop stop-color="#55CDED"/>
<stop offset="1" stop-color="#003CCF"/>
</linearGradient>
<linearGradient id="paint20_linear_546_1263" x1="29.6161" y1="22.1925" x2="40.604" y2="35.0801" gradientUnits="userSpaceOnUse">
<stop stop-color="#55CDED"/>
<stop offset="1" stop-color="#003CCF"/>
</linearGradient>
<linearGradient id="paint21_linear_546_1263" x1="30.6702" y1="21.2927" x2="41.658" y2="34.1803" gradientUnits="userSpaceOnUse">
<stop stop-color="#55CDED"/>
<stop offset="1" stop-color="#003CCF"/>
</linearGradient>
<linearGradient id="paint22_linear_546_1263" x1="31.3254" y1="20.7349" x2="42.3132" y2="33.6225" gradientUnits="userSpaceOnUse">
<stop stop-color="#55CDED"/>
<stop offset="1" stop-color="#003CCF"/>
</linearGradient>
<linearGradient id="paint23_linear_546_1263" x1="30.9258" y1="21.0758" x2="41.9124" y2="33.9634" gradientUnits="userSpaceOnUse">
<stop stop-color="#55CDED"/>
<stop offset="1" stop-color="#003CCF"/>
</linearGradient>
<linearGradient id="paint24_linear_546_1263" x1="27.6525" y1="23.8659" x2="38.6404" y2="36.7535" gradientUnits="userSpaceOnUse">
<stop stop-color="#55CDED"/>
<stop offset="1" stop-color="#003CCF"/>
</linearGradient>
<linearGradient id="paint25_linear_546_1263" x1="26.3674" y1="24.9621" x2="37.354" y2="37.8497" gradientUnits="userSpaceOnUse">
<stop stop-color="#55CDED"/>
<stop offset="1" stop-color="#003CCF"/>
</linearGradient>
<linearGradient id="paint26_linear_546_1263" x1="27.0211" y1="24.4043" x2="38.009" y2="37.2919" gradientUnits="userSpaceOnUse">
<stop stop-color="#55CDED"/>
<stop offset="1" stop-color="#003CCF"/>
</linearGradient>
<linearGradient id="paint27_linear_546_1263" x1="25.736" y1="25.5005" x2="36.7238" y2="38.3881" gradientUnits="userSpaceOnUse">
<stop stop-color="#55CDED"/>
<stop offset="1" stop-color="#003CCF"/>
</linearGradient>
<linearGradient id="paint28_linear_546_1263" x1="26.0638" y1="25.221" x2="37.0505" y2="38.1086" gradientUnits="userSpaceOnUse">
<stop stop-color="#55CDED"/>
<stop offset="1" stop-color="#003CCF"/>
</linearGradient>
<linearGradient id="paint29_linear_546_1263" x1="24.7782" y1="26.3173" x2="35.7648" y2="39.2049" gradientUnits="userSpaceOnUse">
<stop stop-color="#55CDED"/>
<stop offset="1" stop-color="#003CCF"/>
</linearGradient>
<linearGradient id="paint30_linear_546_1263" x1="25.1048" y1="26.0378" x2="36.0927" y2="38.9254" gradientUnits="userSpaceOnUse">
<stop stop-color="#55CDED"/>
<stop offset="1" stop-color="#003CCF"/>
</linearGradient>
<linearGradient id="paint31_linear_546_1263" x1="24.1468" y1="26.8546" x2="35.1346" y2="39.7422" gradientUnits="userSpaceOnUse">
<stop stop-color="#55CDED"/>
<stop offset="1" stop-color="#003CCF"/>
</linearGradient>
<linearGradient id="paint32_linear_546_1263" x1="27.0456" y1="24.3838" x2="38.0323" y2="37.2714" gradientUnits="userSpaceOnUse">
<stop stop-color="#55CDED"/>
<stop offset="1" stop-color="#003CCF"/>
</linearGradient>
<linearGradient id="paint33_linear_546_1263" x1="26.0866" y1="25.2006" x2="37.0745" y2="38.0882" gradientUnits="userSpaceOnUse">
<stop stop-color="#55CDED"/>
<stop offset="1" stop-color="#003CCF"/>
</linearGradient>
<linearGradient id="paint34_linear_546_1263" x1="27.6996" y1="23.8261" x2="38.6874" y2="36.7137" gradientUnits="userSpaceOnUse">
<stop stop-color="#55CDED"/>
<stop offset="1" stop-color="#003CCF"/>
</linearGradient>
<linearGradient id="paint35_linear_546_1263" x1="28.0274" y1="23.5466" x2="39.0153" y2="36.4342" gradientUnits="userSpaceOnUse">
<stop stop-color="#55CDED"/>
<stop offset="1" stop-color="#003CCF"/>
</linearGradient>
<linearGradient id="paint36_linear_546_1263" x1="26.7418" y1="24.6428" x2="37.7285" y2="37.5304" gradientUnits="userSpaceOnUse">
<stop stop-color="#55CDED"/>
<stop offset="1" stop-color="#003CCF"/>
</linearGradient>
<linearGradient id="paint37_linear_546_1263" x1="26.1104" y1="25.1801" x2="37.0983" y2="38.0689" gradientUnits="userSpaceOnUse">
<stop stop-color="#55CDED"/>
<stop offset="1" stop-color="#003CCF"/>
</linearGradient>
<linearGradient id="paint38_linear_546_1263" x1="26.7649" y1="24.6224" x2="37.7527" y2="37.51" gradientUnits="userSpaceOnUse">
<stop stop-color="#55CDED"/>
<stop offset="1" stop-color="#003CCF"/>
</linearGradient>
<linearGradient id="paint39_linear_546_1263" x1="27.3247" y1="24.1453" x2="38.3125" y2="37.033" gradientUnits="userSpaceOnUse">
<stop stop-color="#55CDED"/>
<stop offset="1" stop-color="#003CCF"/>
</linearGradient>
<linearGradient id="paint40_linear_546_1263" x1="28.3803" y1="23.2454" x2="39.3681" y2="36.133" gradientUnits="userSpaceOnUse">
<stop stop-color="#55CDED"/>
<stop offset="1" stop-color="#003CCF"/>
</linearGradient>
<linearGradient id="paint41_linear_546_1263" x1="29.0342" y1="22.6877" x2="40.0221" y2="35.5753" gradientUnits="userSpaceOnUse">
<stop stop-color="#55CDED"/>
<stop offset="1" stop-color="#003CCF"/>
</linearGradient>
<linearGradient id="paint42_linear_546_1263" x1="26.6935" y1="24.6826" x2="37.6814" y2="37.5715" gradientUnits="userSpaceOnUse">
<stop stop-color="#55CDED"/>
<stop offset="1" stop-color="#003CCF"/>
</linearGradient>
<linearGradient id="paint43_linear_546_1263" x1="25.4082" y1="25.7788" x2="36.396" y2="38.6664" gradientUnits="userSpaceOnUse">
<stop stop-color="#55CDED"/>
<stop offset="1" stop-color="#003CCF"/>
</linearGradient>
<linearGradient id="paint44_linear_546_1263" x1="28.3065" y1="23.3081" x2="39.2943" y2="36.1957" gradientUnits="userSpaceOnUse">
<stop stop-color="#55CDED"/>
<stop offset="1" stop-color="#003CCF"/>
</linearGradient>
<linearGradient id="paint45_linear_546_1263" x1="29.3621" y1="22.4082" x2="40.3499" y2="35.297" gradientUnits="userSpaceOnUse">
<stop stop-color="#55CDED"/>
<stop offset="1" stop-color="#003CCF"/>
</linearGradient>
<linearGradient id="paint46_linear_546_1263" x1="24.4504" y1="26.5956" x2="35.4382" y2="39.4832" gradientUnits="userSpaceOnUse">
<stop stop-color="#55CDED"/>
<stop offset="1" stop-color="#003CCF"/>
</linearGradient>
<linearGradient id="paint47_linear_546_1263" x1="28.6343" y1="23.0285" x2="39.6222" y2="35.9173" gradientUnits="userSpaceOnUse">
<stop stop-color="#55CDED"/>
<stop offset="1" stop-color="#003CCF"/>
</linearGradient>
<linearGradient id="paint48_linear_546_1263" x1="29.6887" y1="22.1299" x2="40.6765" y2="35.0175" gradientUnits="userSpaceOnUse">
<stop stop-color="#55CDED"/>
<stop offset="1" stop-color="#003CCF"/>
</linearGradient>
<linearGradient id="paint49_linear_546_1263" x1="27.349" y1="24.1248" x2="38.3356" y2="37.0124" gradientUnits="userSpaceOnUse">
<stop stop-color="#55CDED"/>
<stop offset="1" stop-color="#003CCF"/>
</linearGradient>
<linearGradient id="paint50_linear_546_1263" x1="23.4928" y1="27.4123" x2="34.4795" y2="40.2999" gradientUnits="userSpaceOnUse">
<stop stop-color="#55CDED"/>
<stop offset="1" stop-color="#003CCF"/>
</linearGradient>
<linearGradient id="paint51_linear_546_1263" x1="30.016" y1="21.8504" x2="41.0039" y2="34.738" gradientUnits="userSpaceOnUse">
<stop stop-color="#55CDED"/>
<stop offset="1" stop-color="#003CCF"/>
</linearGradient>
<linearGradient id="paint52_linear_546_1263" x1="27.6756" y1="23.8465" x2="38.6634" y2="36.7341" gradientUnits="userSpaceOnUse">
<stop stop-color="#55CDED"/>
<stop offset="1" stop-color="#003CCF"/>
</linearGradient>
<linearGradient id="paint53_linear_546_1263" x1="26.39" y1="24.9416" x2="37.3778" y2="37.8292" gradientUnits="userSpaceOnUse">
<stop stop-color="#55CDED"/>
<stop offset="1" stop-color="#003CCF"/>
</linearGradient>
<linearGradient id="paint54_linear_546_1263" x1="23.8195" y1="27.1341" x2="34.8073" y2="40.0217" gradientUnits="userSpaceOnUse">
<stop stop-color="#55CDED"/>
<stop offset="1" stop-color="#003CCF"/>
</linearGradient>
<linearGradient id="paint55_linear_546_1263" x1="29.2883" y1="22.4708" x2="40.2762" y2="35.3584" gradientUnits="userSpaceOnUse">
<stop stop-color="#55CDED"/>
<stop offset="1" stop-color="#003CCF"/>
</linearGradient>
<linearGradient id="paint56_linear_546_1263" x1="28.0029" y1="23.567" x2="38.9908" y2="36.4546" gradientUnits="userSpaceOnUse">
<stop stop-color="#55CDED"/>
<stop offset="1" stop-color="#003CCF"/>
</linearGradient>
<linearGradient id="paint57_linear_546_1263" x1="26.7178" y1="24.6633" x2="37.7056" y2="37.5509" gradientUnits="userSpaceOnUse">
<stop stop-color="#55CDED"/>
<stop offset="1" stop-color="#003CCF"/>
</linearGradient>
<linearGradient id="paint58_linear_546_1263" x1="25.4322" y1="25.7583" x2="36.42" y2="38.6459" gradientUnits="userSpaceOnUse">
<stop stop-color="#55CDED"/>
<stop offset="1" stop-color="#003CCF"/>
</linearGradient>
<linearGradient id="paint59_linear_546_1263" x1="28.3308" y1="23.2875" x2="39.3174" y2="36.1764" gradientUnits="userSpaceOnUse">
<stop stop-color="#55CDED"/>
<stop offset="1" stop-color="#003CCF"/>
</linearGradient>
<linearGradient id="paint60_linear_546_1263" x1="25.76" y1="25.4801" x2="36.7467" y2="38.3677" gradientUnits="userSpaceOnUse">
<stop stop-color="#55CDED"/>
<stop offset="1" stop-color="#003CCF"/>
</linearGradient>
<linearGradient id="paint61_linear_546_1263" x1="24.4746" y1="26.5751" x2="35.4612" y2="39.4639" gradientUnits="userSpaceOnUse">
<stop stop-color="#55CDED"/>
<stop offset="1" stop-color="#003CCF"/>
</linearGradient>
<linearGradient id="paint62_linear_546_1263" x1="30.9978" y1="21.0132" x2="41.9856" y2="33.9008" gradientUnits="userSpaceOnUse">
<stop stop-color="#55CDED"/>
<stop offset="1" stop-color="#003CCF"/>
</linearGradient>
<linearGradient id="paint63_linear_546_1263" x1="28.6574" y1="23.0093" x2="39.6452" y2="35.8969" gradientUnits="userSpaceOnUse">
<stop stop-color="#55CDED"/>
<stop offset="1" stop-color="#003CCF"/>
</linearGradient>
<linearGradient id="paint64_linear_546_1263" x1="27.3718" y1="24.1043" x2="38.3596" y2="36.9931" gradientUnits="userSpaceOnUse">
<stop stop-color="#55CDED"/>
<stop offset="1" stop-color="#003CCF"/>
</linearGradient>
<linearGradient id="paint65_linear_546_1263" x1="24.8013" y1="26.2968" x2="35.7891" y2="39.1844" gradientUnits="userSpaceOnUse">
<stop stop-color="#55CDED"/>
<stop offset="1" stop-color="#003CCF"/>
</linearGradient>
<linearGradient id="paint66_linear_546_1263" x1="30.2704" y1="21.6335" x2="41.2582" y2="34.5211" gradientUnits="userSpaceOnUse">
<stop stop-color="#55CDED"/>
<stop offset="1" stop-color="#003CCF"/>
</linearGradient>
<linearGradient id="paint67_linear_546_1263" x1="26.414" y1="24.9223" x2="37.4018" y2="37.8099" gradientUnits="userSpaceOnUse">
<stop stop-color="#55CDED"/>
<stop offset="1" stop-color="#003CCF"/>
</linearGradient>
<linearGradient id="paint68_linear_546_1263" x1="25.1286" y1="26.0174" x2="36.1164" y2="38.905" gradientUnits="userSpaceOnUse">
<stop stop-color="#55CDED"/>
<stop offset="1" stop-color="#003CCF"/>
</linearGradient>
<linearGradient id="paint69_linear_546_1263" x1="31.0665" y1="20.9553" x2="42.0543" y2="33.8429" gradientUnits="userSpaceOnUse">
<stop stop-color="#55CDED"/>
<stop offset="1" stop-color="#003CCF"/>
</linearGradient>
<linearGradient id="paint70_linear_546_1263" x1="31.6532" y1="20.4555" x2="42.6398" y2="33.3431" gradientUnits="userSpaceOnUse">
<stop stop-color="#55CDED"/>
<stop offset="1" stop-color="#003CCF"/>
</linearGradient>
<linearGradient id="paint71_linear_546_1263" x1="29.3128" y1="22.4515" x2="40.2994" y2="35.3391" gradientUnits="userSpaceOnUse">
<stop stop-color="#55CDED"/>
<stop offset="1" stop-color="#003CCF"/>
</linearGradient>
<linearGradient id="paint72_linear_546_1263" x1="25.4564" y1="25.7391" x2="36.4431" y2="38.6267" gradientUnits="userSpaceOnUse">
<stop stop-color="#55CDED"/>
<stop offset="1" stop-color="#003CCF"/>
</linearGradient>
<linearGradient id="paint73_linear_546_1263" x1="31.9799" y1="20.1759" x2="42.9677" y2="33.0647" gradientUnits="userSpaceOnUse">
<stop stop-color="#55CDED"/>
<stop offset="1" stop-color="#003CCF"/>
</linearGradient>
<linearGradient id="paint74_linear_546_1263" x1="28.3538" y1="23.2671" x2="39.3416" y2="36.1547" gradientUnits="userSpaceOnUse">
<stop stop-color="#55CDED"/>
<stop offset="1" stop-color="#003CCF"/>
</linearGradient>
<linearGradient id="paint75_linear_546_1263" x1="27.0682" y1="24.3634" x2="38.056" y2="37.251" gradientUnits="userSpaceOnUse">
<stop stop-color="#55CDED"/>
<stop offset="1" stop-color="#003CCF"/>
</linearGradient>
<linearGradient id="paint76_linear_546_1263" x1="25.7831" y1="25.4596" x2="36.7709" y2="38.3472" gradientUnits="userSpaceOnUse">
<stop stop-color="#55CDED"/>
<stop offset="1" stop-color="#003CCF"/>
</linearGradient>
<linearGradient id="paint77_linear_546_1263" x1="31.2521" y1="20.7963" x2="42.24" y2="33.6851" gradientUnits="userSpaceOnUse">
<stop stop-color="#55CDED"/>
<stop offset="1" stop-color="#003CCF"/>
</linearGradient>
<linearGradient id="paint78_linear_546_1263" x1="32.3072" y1="19.8977" x2="43.295" y2="32.7853" gradientUnits="userSpaceOnUse">
<stop stop-color="#55CDED"/>
<stop offset="1" stop-color="#003CCF"/>
</linearGradient>
<linearGradient id="paint79_linear_546_1263" x1="29.9665" y1="21.8926" x2="40.9544" y2="34.7802" gradientUnits="userSpaceOnUse">
<stop stop-color="#55CDED"/>
<stop offset="1" stop-color="#003CCF"/>
</linearGradient>
<linearGradient id="paint80_linear_546_1263" x1="28.6814" y1="22.9888" x2="39.6692" y2="35.8764" gradientUnits="userSpaceOnUse">
<stop stop-color="#55CDED"/>
<stop offset="1" stop-color="#003CCF"/>
</linearGradient>
<linearGradient id="paint81_linear_546_1263" x1="27.3958" y1="24.0851" x2="38.3836" y2="36.9727" gradientUnits="userSpaceOnUse">
<stop stop-color="#55CDED"/>
<stop offset="1" stop-color="#003CCF"/>
</linearGradient>
<linearGradient id="paint82_linear_546_1263" x1="31.58" y1="20.518" x2="42.5678" y2="33.4056" gradientUnits="userSpaceOnUse">
<stop stop-color="#55CDED"/>
<stop offset="1" stop-color="#003CCF"/>
</linearGradient>
<linearGradient id="paint83_linear_546_1263" x1="30.2944" y1="21.6143" x2="41.281" y2="34.5019" gradientUnits="userSpaceOnUse">
<stop stop-color="#55CDED"/>
<stop offset="1" stop-color="#003CCF"/>
</linearGradient>
<linearGradient id="paint84_linear_546_1263" x1="29.0092" y1="22.7093" x2="39.9959" y2="35.5969" gradientUnits="userSpaceOnUse">
<stop stop-color="#55CDED"/>
<stop offset="1" stop-color="#003CCF"/>
</linearGradient>
<linearGradient id="paint85_linear_546_1263" x1="27.7239" y1="23.8056" x2="38.7105" y2="36.6932" gradientUnits="userSpaceOnUse">
<stop stop-color="#55CDED"/>
<stop offset="1" stop-color="#003CCF"/>
</linearGradient>
<linearGradient id="paint86_linear_546_1263" x1="26.4385" y1="24.9019" x2="37.4251" y2="37.7895" gradientUnits="userSpaceOnUse">
<stop stop-color="#55CDED"/>
<stop offset="1" stop-color="#003CCF"/>
</linearGradient>
<linearGradient id="paint87_linear_546_1263" x1="30.6207" y1="21.3348" x2="41.6086" y2="34.2224" gradientUnits="userSpaceOnUse">
<stop stop-color="#55CDED"/>
<stop offset="1" stop-color="#003CCF"/>
</linearGradient>
<linearGradient id="paint88_linear_546_1263" x1="29.3354" y1="22.4311" x2="40.3232" y2="35.3187" gradientUnits="userSpaceOnUse">
<stop stop-color="#55CDED"/>
<stop offset="1" stop-color="#003CCF"/>
</linearGradient>
<linearGradient id="paint89_linear_546_1263" x1="28.05" y1="23.5261" x2="39.0378" y2="36.4137" gradientUnits="userSpaceOnUse">
<stop stop-color="#55CDED"/>
<stop offset="1" stop-color="#003CCF"/>
</linearGradient>
<linearGradient id="paint90_linear_546_1263" x1="29.6629" y1="22.1516" x2="40.6508" y2="35.0392" gradientUnits="userSpaceOnUse">
<stop stop-color="#55CDED"/>
<stop offset="1" stop-color="#003CCF"/>
</linearGradient>
<linearGradient id="paint91_linear_546_1263" x1="28.3778" y1="23.2478" x2="39.3657" y2="36.1355" gradientUnits="userSpaceOnUse">
<stop stop-color="#55CDED"/>
<stop offset="1" stop-color="#003CCF"/>
</linearGradient>
<linearGradient id="paint92_linear_546_1263" x1="27.0922" y1="24.3441" x2="38.0801" y2="37.2317" gradientUnits="userSpaceOnUse">
<stop stop-color="#55CDED"/>
<stop offset="1" stop-color="#003CCF"/>
</linearGradient>
<linearGradient id="paint93_linear_546_1263" x1="28.7057" y1="22.9684" x2="39.6923" y2="35.856" gradientUnits="userSpaceOnUse">
<stop stop-color="#55CDED"/>
<stop offset="1" stop-color="#003CCF"/>
</linearGradient>
<linearGradient id="paint94_linear_546_1263" x1="27.4201" y1="24.0646" x2="38.4067" y2="36.9522" gradientUnits="userSpaceOnUse">
<stop stop-color="#55CDED"/>
<stop offset="1" stop-color="#003CCF"/>
</linearGradient>
<linearGradient id="paint95_linear_546_1263" x1="27.7464" y1="23.7851" x2="38.7343" y2="36.6727" gradientUnits="userSpaceOnUse">
<stop stop-color="#55CDED"/>
<stop offset="1" stop-color="#003CCF"/>
</linearGradient>
<linearGradient id="paint96_linear_546_1263" x1="17.2921" y1="35.5981" x2="46.0718" y2="35.5981" gradientUnits="userSpaceOnUse">
<stop stop-color="#55CDED"/>
<stop offset="1" stop-color="#003CCF"/>
</linearGradient>
<clipPath id="clip0_546_1263">
<rect width="40.0723" height="60" fill="white" transform="translate(13.3335 10.5)"/>
</clipPath>
</defs>
</svg>
