<svg width="48" height="48" viewBox="0 0 48 48" fill="none" xmlns="http://www.w3.org/2000/svg">
<path d="M26.744 12.1288C25.8482 11.9292 24.9342 11.8232 24.0165 11.8125C23.0773 11.8233 22.1602 11.9288 21.2652 12.1288C21.0743 12.1711 20.9014 12.272 20.7708 12.4175C20.6401 12.563 20.5582 12.7457 20.5365 12.94L20.324 14.8475C20.2938 15.117 20.2008 15.3756 20.0525 15.6026C19.9042 15.8295 19.7047 16.0186 19.4701 16.1545C19.2355 16.2904 18.9722 16.3694 18.7015 16.3851C18.4309 16.4008 18.1603 16.3528 17.9115 16.245L16.1615 15.4763C15.9837 15.3979 15.7859 15.3768 15.5956 15.4158C15.4053 15.4547 15.2317 15.5519 15.099 15.6937C13.8339 17.0452 12.8915 18.6658 12.3427 20.4338C12.2851 20.6198 12.2869 20.8193 12.3478 21.0043C12.4088 21.1893 12.5258 21.3508 12.6827 21.4662L14.2365 22.6088C14.455 22.769 14.6328 22.9784 14.7553 23.2201C14.8778 23.4618 14.9417 23.729 14.9417 24C14.9417 24.271 14.8778 24.5382 14.7553 24.7799C14.6328 25.0216 14.455 25.231 14.2365 25.3912L12.6827 26.5363C12.5258 26.6517 12.4088 26.8132 12.3478 26.9982C12.2869 27.1832 12.2851 27.3827 12.3427 27.5687C12.8905 29.3384 13.8324 30.9607 15.0977 32.3137C15.2302 32.4556 15.4035 32.5528 15.5936 32.592C15.7836 32.6312 15.9812 32.6104 16.159 32.5325L17.9165 31.7612C18.1642 31.6528 18.4339 31.6041 18.7038 31.619C18.9738 31.634 19.2365 31.7122 19.4707 31.8474C19.7048 31.9825 19.904 32.1708 20.052 32.3971C20.2 32.6234 20.2927 32.8813 20.3227 33.15L20.5352 35.055C20.5565 35.2469 20.6364 35.4276 20.7642 35.5723C20.8919 35.7171 21.0612 35.8188 21.249 35.8637C21.8143 35.9986 22.3888 36.0918 22.9677 36.1425L23.519 34.33C23.0126 33.2491 22.7505 32.0699 22.7515 30.8762C22.7515 29.75 22.9802 28.6763 23.3952 27.7013C22.7145 27.5896 22.0777 27.2923 21.555 26.8422C21.0323 26.392 20.6439 25.8064 20.4326 25.1497C20.2212 24.4931 20.195 23.7908 20.357 23.1203C20.519 22.4497 20.8627 21.8368 21.3505 21.349C21.8383 20.8613 22.4512 20.5175 23.1218 20.3555C23.7923 20.1936 24.4946 20.2197 25.1512 20.4311C25.8079 20.6424 26.3935 21.0308 26.8437 21.5535C27.2938 22.0763 27.5911 22.713 27.7027 23.3938C28.7071 22.9682 29.7869 22.7493 30.8777 22.75C31.7014 22.7495 32.5203 22.8743 33.3065 23.12C33.424 22.9225 33.5815 22.7475 33.769 22.6075L35.3215 21.465C35.4784 21.3496 35.5955 21.1881 35.6564 21.0031C35.7173 20.818 35.7191 20.6186 35.6615 20.4325C35.1127 18.6645 34.1703 17.0439 32.9052 15.6925C32.7725 15.5506 32.599 15.4535 32.4086 15.4145C32.2183 15.3756 32.0205 15.3967 31.8427 15.475L30.0927 16.2438C29.8444 16.3517 29.5742 16.3998 29.3039 16.3842C29.0335 16.3686 28.7706 16.2898 28.5363 16.1541C28.302 16.0184 28.1028 15.8296 27.9548 15.6029C27.8067 15.3762 27.714 15.1179 27.684 14.8487L27.4715 12.94C27.4499 12.7458 27.3681 12.5633 27.2377 12.4178C27.1073 12.2724 26.9347 12.1713 26.744 12.1288ZM33.1065 24.3687C32.3882 24.1235 31.6342 23.9989 30.8752 24C29.678 23.9993 28.5013 24.3114 27.4617 24.9052C26.422 25.499 25.5555 26.354 24.9478 27.3856C24.3401 28.4172 24.0124 29.5896 23.997 30.7868C23.9817 31.984 24.2792 33.1644 24.8602 34.2113L24.0277 36.9437C23.9944 37.0522 23.9913 37.1677 24.0186 37.2778C24.0459 37.3879 24.1027 37.4885 24.1829 37.5688C24.2631 37.6491 24.3636 37.7061 24.4737 37.7336C24.5837 37.7611 24.6992 37.7581 24.8077 37.725L27.5415 36.8925C28.3757 37.3509 29.2961 37.6311 30.2442 37.7153C31.1924 37.7996 32.1477 37.686 33.0497 37.3819C33.9517 37.0778 34.7807 36.5897 35.4843 35.9486C36.1879 35.3074 36.7507 34.5272 37.1371 33.6572C37.5235 32.7873 37.725 31.8466 37.729 30.8947C37.733 29.9429 37.5393 29.0005 37.1601 28.1274C36.781 27.2543 36.2248 26.4694 35.5266 25.8224C34.8284 25.1754 34.0034 24.6804 33.104 24.3687M28.3752 31.5012H30.8752C31.041 31.5012 31.2 31.5671 31.3172 31.6843C31.4344 31.8015 31.5002 31.9605 31.5002 32.1262C31.5002 32.292 31.4344 32.451 31.3172 32.5682C31.2 32.6854 31.041 32.7512 30.8752 32.7512H28.3752C28.2095 32.7512 28.0505 32.6854 27.9333 32.5682C27.8161 32.451 27.7502 32.292 27.7502 32.1262C27.7502 31.9605 27.8161 31.8015 27.9333 31.6843C28.0505 31.5671 28.2095 31.5012 28.3752 31.5012ZM33.3752 30.2512H28.3752C28.2095 30.2512 28.0505 30.1854 27.9333 30.0682C27.8161 29.951 27.7502 29.792 27.7502 29.6262C27.7502 29.4605 27.8161 29.3015 27.9333 29.1843C28.0505 29.0671 28.2095 29.0012 28.3752 29.0012H33.3752C33.541 29.0012 33.7 29.0671 33.8172 29.1843C33.9344 29.3015 34.0002 29.4605 34.0002 29.6262C34.0002 29.792 33.9344 29.951 33.8172 30.0682C33.7 30.1854 33.541 30.2512 33.3752 30.2512Z" fill="#A8A8A8"/>
</svg>
