<svg width="27" height="6" viewBox="0 0 27 6" fill="none" xmlns="http://www.w3.org/2000/svg">
<path d="M6 3C6 3.79565 5.68393 4.55871 5.12132 5.12132C4.55871 5.68393 3.79565 6 3 6C2.20435 6 1.44129 5.68393 0.87868 5.12132C0.31607 4.55871 0 3.79565 0 3C0 2.20435 0.31607 1.44129 0.87868 0.87868C1.44129 0.316071 2.20435 0 3 0C3.79565 0 4.55871 0.316071 5.12132 0.87868C5.68393 1.44129 6 2.20435 6 3ZM16.5 3C16.5 3.79565 16.1839 4.55871 15.6213 5.12132C15.0587 5.68393 14.2956 6 13.5 6C12.7044 6 11.9413 5.68393 11.3787 5.12132C10.8161 4.55871 10.5 3.79565 10.5 3C10.5 2.20435 10.8161 1.44129 11.3787 0.87868C11.9413 0.316071 12.7044 0 13.5 0C14.2956 0 15.0587 0.316071 15.6213 0.87868C16.1839 1.44129 16.5 2.20435 16.5 3ZM27 3C27 3.79565 26.6839 4.55871 26.1213 5.12132C25.5587 5.68393 24.7956 6 24 6C23.2044 6 22.4413 5.68393 21.8787 5.12132C21.3161 4.55871 21 3.79565 21 3C21 2.20435 21.3161 1.44129 21.8787 0.87868C22.4413 0.316071 23.2044 0 24 0C24.7956 0 25.5587 0.316071 26.1213 0.87868C26.6839 1.44129 27 2.20435 27 3Z" fill="#383838"/>
</svg>
