<svg width="90" height="80" viewBox="0 0 90 80" fill="none" xmlns="http://www.w3.org/2000/svg">
<g clip-path="url(#clip0_1962_9613)">
<path d="M38.7411 32.2452C42.1727 32.2452 44.6415 29.9837 45.6366 28.2016C45.9216 27.6567 47.1049 25.8747 49.7513 25.8747C52.3061 25.842 54.5706 27.8801 54.4146 30.594C54.2209 34.1199 51.182 36.654 49.7943 37.4659C47.4761 38.812 44.5285 39.951 41.9145 40.1417H41.9253C42.1028 40.1417 42.2803 40.1417 42.4578 40.1417C43.598 40.1417 44.7007 40.1635 45.771 40.2071C49.5791 39.8801 52.532 38.3597 54.7911 36.0218C57.6256 33.0899 59.1908 29.2316 59.1908 25.0736C59.1801 16.8774 52.8494 10 44.8728 10C38.0418 10 30.9258 15.4605 30.9258 24.1635C30.9258 28.5014 34.4327 32.2452 38.7411 32.2452Z" fill="#8DC63F"/>
<path opacity="0.3" d="M52.1663 12.1087C51.7091 11.8907 43.9423 8.00515 37.2243 13.8635C30.6623 19.5801 31.7165 28.5992 34.5941 30.9752C35.7989 31.7708 37.2189 32.2395 38.7411 32.2395C42.1727 32.2395 44.6415 29.9779 45.6366 28.1959C45.9216 27.6509 47.1049 25.8689 49.7512 25.8689C52.3061 25.8362 54.5706 27.8744 54.4146 30.5883C54.2209 34.1141 51.182 36.6482 49.7943 37.4602C47.4761 38.8062 44.5285 39.9452 41.9145 40.1359H41.9253C42.1028 40.1359 42.2802 40.1359 42.4577 40.1359C43.598 40.1359 44.7007 40.1577 45.771 40.2013C49.5791 39.8744 52.532 38.3539 54.7911 36.016C57.6256 33.0842 59.1908 29.2259 59.1908 25.0678C59.1908 19.6237 56.3939 14.7572 52.177 12.1032L52.1663 12.1087Z" fill="#0E8537"/>
<path d="M55.9152 15.5097C55.8238 15.3953 55.7323 15.2808 55.6409 15.1664C53.9251 13.0465 50.983 11.4443 46.7499 11.4443C40.4891 11.4443 33.9594 16.2073 33.556 24.8503C33.357 29.0574 36.0517 31.7441 39.0799 32.24C39.9782 32.2018 40.8119 32.0056 41.5649 31.7059C42.0113 31.5261 42.4255 31.3135 42.8181 31.0792C44.1359 30.2727 45.1041 29.1664 45.6419 28.2018C45.927 27.6569 47.1103 25.8749 49.7566 25.8749C52.3115 25.8422 54.5759 27.8803 54.4199 30.5942C54.2263 34.1201 51.1874 36.6541 49.7997 37.4661C47.4814 38.8122 44.5339 39.9511 41.9199 40.1419H41.9306C42.1081 40.1419 42.2856 40.1419 42.4631 40.1419C43.6034 40.1419 44.706 40.1637 45.7764 40.2073C49.5845 39.8803 52.5374 38.3599 54.7965 36.022C57.631 33.0901 59.1962 29.2318 59.1962 25.0738C59.1962 21.477 57.9753 18.131 55.9314 15.5097H55.9152Z" fill="#EF3F6B"/>
<path opacity="0.3" d="M56.7005 16.6159C55.6409 15.1663 53.3765 14.2726 51.8167 14.0437C46.4487 13.248 42.3932 15.09 39.0692 19.4551C36.9392 22.2562 36.4982 25.4279 37.3265 28.1472C38.3377 31.4606 41.5272 31.5151 42.8181 31.0791C44.1359 30.2726 45.1041 29.1663 45.6419 28.2017C45.927 27.6568 47.1103 25.8747 49.7566 25.8747C52.3115 25.842 54.5759 27.8802 54.42 30.5941C54.2263 34.12 51.1874 36.654 49.7997 37.466C47.4814 38.8121 44.5339 39.951 41.9199 40.1418H41.9306C42.1081 40.1418 42.2856 40.1418 42.4631 40.1418C43.6034 40.1418 44.706 40.1636 45.7764 40.2072C49.5845 39.8802 52.5374 38.3598 54.7965 36.0219C57.631 33.09 59.1962 29.2317 59.1962 25.0737C59.1962 23.1281 58.8359 21.357 58.3034 19.842C58.1958 19.5423 58.0775 19.2426 57.9645 18.9701C57.8784 18.7685 57.7924 18.5832 57.7063 18.3925C57.5342 18.0328 57.3567 17.6895 57.1792 17.3734C57.0286 17.1009 56.878 16.8448 56.722 16.6159H56.7005Z" fill="#C0151B"/>
<path d="M58.6745 21.1117C57.7978 18.485 55.3289 16.0054 51.5692 15.4495C46.8898 14.7574 43.3452 16.3651 40.4515 20.1689C38.5905 22.6157 38.2086 25.3787 38.9293 27.7493C39.9782 31.1989 43.7271 30.594 44.152 30.0544C44.8029 29.4495 45.3084 28.801 45.6419 28.2016C45.927 27.6566 47.1103 25.8746 49.7566 25.8746C52.3115 25.8419 54.5759 27.8801 54.4199 30.594C54.2263 34.1198 51.1874 36.6539 49.7997 37.4659C47.4814 38.8119 44.5339 39.9509 41.9199 40.1416H41.9306C42.1081 40.1416 42.2856 40.1416 42.4631 40.1416C43.6034 40.1416 44.706 40.1634 45.7764 40.207C49.5845 39.8801 52.5374 38.3596 54.7965 36.0217C57.631 33.0899 59.1962 29.2316 59.1962 25.0735C59.1962 23.7057 58.9865 22.1307 58.6852 21.1117H58.6745Z" fill="#009DA5"/>
<path d="M54.463 23.7769C50.0417 21.063 46.7446 25.6788 45.6903 28.1039C46.325 27.0575 47.6105 25.8804 49.7512 25.8804C52.3061 25.8477 54.5705 27.8859 54.4146 30.5998C54.2209 34.1257 51.182 36.6597 49.7943 37.4717C47.4761 38.8177 44.5285 39.9567 41.9145 40.1474H41.9252C42.1027 40.1474 42.2802 40.1474 42.4577 40.1474C43.598 40.1474 44.7006 40.1692 45.771 40.2128C49.5791 39.8859 52.532 38.3654 54.7911 36.0276C54.9148 35.9022 55.0331 35.7714 55.1514 35.6406C56.367 34.4744 60.3634 27.3954 54.4683 23.7823L54.463 23.7769Z" fill="#B62079"/>
<path opacity="0.2" d="M34.5027 29.0511C30.9581 27.3835 31.1302 21.9884 31.1517 21.5361C31.1195 21.7214 31.0926 21.9067 31.0657 22.0974C31.0549 22.1574 31.0495 22.2119 31.0442 22.2718C31.0227 22.4244 31.0065 22.5825 30.9904 22.735C30.9796 22.8495 30.9742 22.9639 30.9635 23.0838C30.9581 23.1983 30.9473 23.3127 30.942 23.4271C30.9312 23.6724 30.9205 23.9122 30.9205 24.1628C30.9205 28.5007 34.4274 32.2446 38.7357 32.2446C38.8486 32.2446 38.9562 32.2446 39.0692 32.2391C37.2297 31.9394 35.5139 30.8222 34.4973 29.0566L34.5027 29.0511Z" fill="#2E3192"/>
<path opacity="0.2" d="M39.833 29.3624C38.8971 29.5422 37.7783 29.6131 36.439 29.5313C35.6967 29.4823 35.0567 29.3133 34.5027 29.0518C35.5192 30.8174 37.235 31.9346 39.0799 32.2343C39.0799 32.2343 39.0853 32.2343 39.0907 32.2343C39.9836 32.1907 40.8119 32 41.5595 31.7057C42.0059 31.5259 42.4255 31.3133 42.8127 31.079C42.9741 30.9809 43.1355 30.8719 43.2861 30.7684C43.2861 30.7684 43.2968 30.7575 43.3022 30.7575C43.4421 30.6594 43.5765 30.5558 43.711 30.4469C43.7271 30.436 43.754 30.4142 43.7702 30.3978C43.8777 30.3106 43.9745 30.2234 44.0821 30.1308C43.555 30.5395 41.2691 30.8774 39.8383 29.3678L39.833 29.3624Z" fill="#2E3192"/>
<path opacity="0.2" d="M54.463 23.7761C59.9008 27.1113 56.921 33.3946 55.4688 35.2584C55.4849 35.2366 55.5064 35.2148 55.5226 35.193C55.7162 34.9587 55.9045 34.7243 56.082 34.49C56.082 34.49 56.082 34.4846 56.0927 34.4791C56.5768 33.7816 57.9107 31.5908 58.3249 27.9886C59.0026 22.0976 54.1779 18.8224 49.2456 20.6862C45.4106 22.1358 44.3833 25.7543 44.3833 25.7543C43.9907 27.0241 42.9149 28.7788 39.8383 29.3674C41.269 30.8769 43.5604 30.539 44.0821 30.1303C44.0929 30.1194 44.1466 30.0704 44.1628 30.0595C44.2381 29.9886 44.3887 29.8361 44.3994 29.8306C44.6038 29.629 44.7921 29.4164 44.9588 29.2039C45.0019 29.1494 45.0449 29.0949 45.0879 29.0404C45.1256 28.9968 45.1578 28.9532 45.1847 28.9096C45.217 28.866 45.2708 28.7897 45.3246 28.708C45.3837 28.6208 45.4375 28.539 45.4429 28.5281C45.5128 28.4192 45.5774 28.3102 45.6365 28.2012C45.6527 28.1739 45.6742 28.1358 45.6957 28.0976C46.7446 25.678 50.0417 21.0622 54.4684 23.7707L54.463 23.7761Z" fill="#2E3192"/>
<path opacity="0.2" d="M51.7091 24.9322C47.6858 24.1583 45.9593 27.5316 45.7226 28.0384C45.7118 28.0602 45.7011 28.082 45.6903 28.1038C46.325 27.0575 47.6105 25.8804 49.7512 25.8804C52.3061 25.8477 54.5705 27.8859 54.4146 30.5998C54.2209 34.1256 51.182 36.6597 49.7943 37.4717C47.4761 38.8177 44.5285 39.9567 41.9145 40.1474H41.9252C42.1027 40.1474 42.2802 40.1474 42.4577 40.1474C42.9472 40.1474 43.4259 40.1529 43.8992 40.1638C45.4698 39.8423 48.7992 38.9976 51.4993 37.172C57.2438 33.281 56.0604 25.7714 51.7145 24.9322H51.7091Z" fill="#262262"/>
<path d="M47.3524 44.1254C38.4022 42.4524 29.6565 42.3053 29.6565 42.3053C29.6565 42.3053 37.2028 41.4061 48.2452 43.1717C53.7315 44.0546 57.6525 45.3679 59.6642 46.1527C65.0321 44.4415 69.5556 44.2835 69.5556 44.2835C66.9953 43.4061 57.5557 40.1745 42.4524 40.1418C28.6076 40.1145 20.2222 43.5042 20.2222 43.5042C20.2222 43.5042 28.7797 44.763 36.4713 48.7848C42.2211 51.7875 45.0557 54.8829 45.0557 54.8829C45.0557 54.8829 45.9647 53.6132 48.5195 51.7766C47.2555 50.6813 45.2439 49.2262 42.3233 47.8638C35.9818 44.9047 26.4454 43.5423 26.4454 43.5423C26.4454 43.5423 35.7398 43.8693 42.5653 46.0818C47.2609 47.6023 49.9664 49.0137 51.3917 49.9183C52.5589 49.2317 53.9144 48.5123 55.4849 47.7821C55.9367 47.575 56.3832 47.3788 56.835 47.1935C55.3451 46.3488 52.4352 45.0791 47.3524 44.1309V44.1254Z" fill="#B62079"/>
<path d="M69.1629 44.1529C69.1629 44.1529 47.9171 40.0929 29.6565 42.3055C29.6565 42.3055 37.2028 41.4063 48.2452 43.1719C53.7315 44.0548 57.6525 45.3681 59.6642 46.1529C63.6605 44.8777 67.189 44.4689 68.7273 44.3382C69.2544 44.2946 69.5556 44.2837 69.5556 44.2837C69.4372 44.2455 69.3028 44.1965 69.1629 44.1529V44.1529Z" fill="#009DA5"/>
<path d="M26.4454 43.5418C26.4454 43.5418 35.7398 43.8687 42.5653 46.0813C47.2609 47.6017 49.9664 49.0132 51.3917 49.9178C52.5589 49.2311 53.9144 48.5118 55.4849 47.7815C55.9367 47.5745 56.3832 47.3783 56.835 47.193C56.835 47.193 38.8325 42.6535 26.4454 43.5472V43.5418Z" fill="#009DA5"/>
<path d="M36.4713 48.7904C42.2211 51.7931 45.0556 54.8885 45.0556 54.8885C45.0556 54.8885 45.9646 53.6188 48.5195 51.7822C48.5195 51.7822 34.6102 44.6487 20.2222 43.5098C20.2222 43.5098 28.7797 44.7686 36.4713 48.7904Z" fill="#009DA5"/>
<path opacity="0.2" d="M54.463 23.7769C50.0417 21.063 46.7446 25.6788 45.6903 28.1039C46.325 27.0575 47.6105 25.8804 49.7512 25.8804C52.3061 25.8477 54.5705 27.8859 54.4146 30.5998C54.2209 34.1257 51.182 36.6597 49.7943 37.4717C47.4761 38.8177 44.5285 39.9567 41.9145 40.1474H41.9252C42.1027 40.1474 42.2802 40.1474 42.4577 40.1474C43.598 40.1474 44.7006 40.1692 45.771 40.2128C49.5791 39.8859 52.532 38.3654 54.7911 36.0276C54.9148 35.9022 55.0331 35.7714 55.1514 35.6406C56.367 34.4744 60.3634 27.3954 54.4683 23.7823L54.463 23.7769Z" fill="#2E3192"/>
<path d="M33.4861 65.0246C33.8787 64.9646 34.2499 64.8774 34.5726 64.763L34.6156 64.7466L34.4704 63.9728L34.4166 63.9837C34.1369 64.0436 33.755 64.0927 33.2871 64.1199C33.3301 63.7821 33.3516 63.3624 33.3516 62.8774V60.7957H34.2929V59.793H28.3817V60.7957H29.3337V62.8338C29.3337 63.357 29.3553 63.8039 29.3983 64.1581H28.2957V65.1499H31.7165C32.3619 65.1499 32.959 65.1118 33.4861 65.03V65.0246ZM32.0769 60.7957V63.2371C32.0769 63.6077 32.0715 63.9183 32.0607 64.1581H30.63C30.6192 63.9183 30.6139 63.6186 30.6139 63.2371V60.7957H32.0823H32.0769Z" fill="#4D4D4F"/>
<path d="M35.8689 61.2157H34.0401V62.1421H35.8689V62.6925H34.0401V63.6135H35.8689V65.4827H37.1544V59.668H35.8689V61.2157Z" fill="#4D4D4F"/>
<path d="M36.1808 66.1855C35.6214 65.7604 34.8469 65.5479 33.8734 65.5479C32.8998 65.5479 32.1145 65.7604 31.5551 66.1855C31.0227 66.5833 30.7537 67.1173 30.7537 67.7822C30.7537 68.447 31.0227 68.9702 31.5551 69.368C32.1092 69.7931 32.8891 70.0056 33.8734 70.0056C34.8577 70.0056 35.6214 69.7931 36.1808 69.368C36.7187 68.9702 36.993 68.4361 36.993 67.7822C36.993 67.1282 36.7187 66.5833 36.1808 66.1855ZM35.1589 68.6759C34.8361 68.9048 34.4059 69.0247 33.8787 69.0247C33.3516 69.0247 32.916 68.9102 32.5932 68.6759C32.2705 68.447 32.1145 68.1528 32.1145 67.7822C32.1145 67.4116 32.2705 67.1064 32.5932 66.8776C32.916 66.6487 33.3516 66.5288 33.8787 66.5288C34.4059 66.5288 34.8415 66.6432 35.1589 66.8776C35.4762 67.1064 35.6322 67.4062 35.6322 67.7876C35.6322 68.1691 35.4762 68.4525 35.1589 68.6868V68.6759Z" fill="#4D4D4F"/>
<path d="M44.7007 64.97C45.2762 64.8392 45.7011 64.6594 45.9593 64.4305V65.4496H47.1802V62.8447H48.3851V65.4659H49.606V59.6621H48.3851V61.8092H47.1802V59.6621H45.9593V62.9918C45.9593 63.4986 45.5881 63.8201 44.8297 63.9673C44.55 64.0218 44.152 64.0545 43.6357 64.0545C43.1516 64.0599 42.7751 64.0436 42.5223 64.0054C42.291 63.9673 42.1834 63.8365 42.1834 63.5913V62.8665H44.6738V61.8964H42.1834V60.7956H44.8082V59.8038H40.8979V63.9073C40.8979 64.2779 40.9678 64.5613 41.1131 64.7466C41.2583 64.9373 41.5057 65.0518 41.8553 65.1008C42.1135 65.1281 42.4201 65.1444 42.7697 65.1444C43.5496 65.1444 44.2004 65.0845 44.706 64.97H44.7007Z" fill="#4D4D4F"/>
<path d="M49.5253 66.1422C49.4231 66.0277 49.2456 65.9678 48.9982 65.9678H42.5008V67.0032H47.9924C48.2452 67.0032 48.3635 67.1285 48.3635 67.3901V69.7007H49.6544V66.698C49.6544 66.4092 49.6168 66.2512 49.5253 66.1422Z" fill="#4D4D4F"/>
<path d="M61.5144 59.668H60.2182V69.7007H61.5144V59.668Z" fill="#4D4D4F"/>
<path d="M56.4639 61.2589V59.793H55.1246V61.2589C55.1246 62.387 54.9363 63.3516 54.5652 64.1308C54.1672 64.9592 53.5002 65.7058 52.5858 66.3543L52.5374 66.387L53.3227 67.3134L53.3604 67.2916C53.8982 66.981 54.4092 66.5396 54.8825 65.9783C55.3451 65.4387 55.6624 64.9101 55.8399 64.4033C56.0336 64.8992 56.367 65.4224 56.8404 65.9565C57.3406 66.5123 57.8354 66.9265 58.3195 67.1826L58.3625 67.2044L59.1102 66.2289L59.0618 66.1962C57.3406 65.0082 56.4692 63.3461 56.4692 61.2535L56.4639 61.2589Z" fill="#4D4D4F"/>
</g>
<defs>
<clipPath id="clip0_1962_9613">
<rect width="49.3333" height="60" fill="white" transform="translate(20.2222 10)"/>
</clipPath>
</defs>
</svg>
