<svg width="100" height="90" viewBox="0 0 100 90" fill="none" xmlns="http://www.w3.org/2000/svg">
<g clip-path="url(#clip0_1_4068)">
<path d="M46.4587 35.8146L47.6331 32.0059H41.2304C41.2304 32.0059 40.7214 33.6772 40.0742 35.8146H46.4587V35.8146Z" fill="#00C0F3"/>
<path d="M22.6333 54.6621L21.4517 58.5H27.8289C27.8289 58.5 28.3416 56.8141 28.9997 54.6621H22.6369H22.6333Z" fill="#00C0F3"/>
<path d="M24.1345 39.9477H17.3209C17.3136 39.0374 17.0046 38.331 16.3974 37.8322C15.7902 37.337 15.0049 37.0857 14.0414 37.0857C12.1762 37.0857 10.6164 38.0106 9.36207 39.8567C8.35858 41.3423 7.69685 43.1084 7.37326 45.1475C6.87515 48.3336 7.97318 49.9248 10.671 49.9248C12.4707 49.9248 13.9759 49.0691 15.1867 47.3504H12.0053L13.5178 42.6459H23.5091L19.6915 54.8842H15.0303L15.1394 53.1655C13.2633 54.7495 11.0382 55.536 8.46765 55.536C5.38446 55.536 3.09025 54.5165 1.58865 52.4773C0.170676 50.5329 -0.301983 48.0059 0.185219 44.9071C0.799675 41.0001 2.39217 37.8176 4.96271 35.3525C7.6605 32.7854 10.9364 31.5 14.7904 31.5C17.7863 31.5 20.0951 32.1591 21.7094 33.4772C23.4727 34.9446 24.2763 37.1003 24.1308 39.9477H24.1345Z" fill="#03428E"/>
<path d="M70.0987 32.1006L68.1971 37.8829H61.9617L56.817 54.8913H49.4908L54.7009 37.8793H48.1782L50.0507 32.1006H70.0987V32.1006Z" fill="#03428E"/>
<path d="M73.3091 49.5392C73.4909 48.9056 73.6945 48.1337 73.8108 47.7404H81.3115L82.904 42.7847H75.367C75.5524 42.2094 75.8651 41.2772 75.9741 40.9276H84.4638L86.089 35.7061H70.9421L64.9976 54.8446H80.7371L82.3405 49.5429H73.3091V49.5392Z" fill="#03428E"/>
<path d="M91.6705 49.1897C92.0014 48.1373 95.899 35.7061 95.899 35.7061H89.0818L83.1372 54.8446H98.2841L99.9966 49.1897H91.6669H91.6705Z" fill="#03428E"/>
<path d="M40.1106 35.6914C38.9908 39.3727 37.4201 44.547 37.2892 44.9621C36.7656 43.2215 34.5042 35.7023 34.5042 35.7023H28.4759L22.5786 54.8226H28.945C30.0393 51.236 31.5664 46.2329 31.7409 45.6539C32.3663 47.7367 34.5042 54.8408 34.5042 54.8408H40.5833L46.4988 35.6914H40.1142H40.1106Z" fill="#03428E"/>
</g>
<defs>
<clipPath id="clip0_1_4068">
<rect width="100" height="27" fill="white" transform="translate(0 31.5)"/>
</clipPath>
</defs>
</svg>
