<svg width="130" height="90" viewBox="0 0 130 90" fill="none" xmlns="http://www.w3.org/2000/svg">
<g clip-path="url(#clip0_1_4090)">
<path d="M62.8519 60.4357C61.7193 60.774 60.8759 60.7936 60.263 60.7936C58.4783 60.7936 56.4189 59.7345 56.4189 56.7534C56.4189 53.7723 58.1939 52.6445 60.6455 52.6445C61.0868 52.6445 62.0184 52.7034 62.6705 52.9976L62.5283 54.7137C61.9742 54.3312 61.3172 54.2086 60.8955 54.2086C59.4491 54.2086 58.2576 54.9196 58.2576 56.7583C58.2576 58.3028 59.1892 59.2393 60.4935 59.2393C60.7337 59.2393 60.9642 59.1952 61.126 59.102V57.5428H60.0816V56.0522H62.8519V60.4308V60.4357Z" fill="#231F20"/>
<path d="M65.9898 57.6952L63.5137 52.7871H65.5681L66.8821 55.9447L68.1766 52.7871H70.231L67.7745 57.6952V60.6616H65.9898V57.6952Z" fill="#231F20"/>
<path d="M70.8193 52.7871H75.5362V54.2777H72.6041V55.9006H75.3744V57.3912H72.6041V59.1759H75.6441V60.6665H70.8193V52.792V52.7871Z" fill="#231F20"/>
<path d="M78.2186 56.7239C78.2186 55.3609 78.65 54.2086 79.7336 54.2086C80.8172 54.2086 81.2487 55.3609 81.2487 56.7239C81.2487 58.087 80.8172 59.2393 79.7336 59.2393C78.65 59.2393 78.2186 58.0184 78.2186 56.7239ZM76.3799 56.7239C76.3799 59.2295 77.5517 60.7985 79.7385 60.7985C81.9254 60.7985 83.0923 59.2295 83.0923 56.7239C83.0923 54.2184 81.9401 52.6494 79.7385 52.6494C77.537 52.6494 76.3799 54.1939 76.3799 56.7239Z" fill="#231F20"/>
<path d="M84.019 52.7871H86.2941L88.5545 58.1365H88.5741L88.5447 52.7871H90.1774V60.6616H87.9612L85.6224 55.2779H85.6028L85.6616 60.6616H84.024V52.7871H84.019Z" fill="#231F20"/>
<path d="M97.5418 60.4357C96.4092 60.774 95.5659 60.7936 94.953 60.7936C93.1682 60.7936 91.1089 59.7345 91.1089 56.7534C91.1089 53.7723 92.8838 52.6445 95.3354 52.6445C95.7767 52.6445 96.7083 52.7034 97.3555 52.9976L97.2133 54.7137C96.6593 54.3312 96.0071 54.2086 95.5806 54.2086C94.1341 54.2086 92.9427 54.9196 92.9427 56.7583C92.9427 58.3028 93.8743 59.2393 95.1785 59.2393C95.4188 59.2393 95.6492 59.1952 95.811 59.102V57.5428H94.7666V56.0522H97.5369V60.4308L97.5418 60.4357Z" fill="#231F20"/>
<path d="M98.748 52.7871H101.018L103.283 58.1365H103.303L103.274 52.7871H104.902V60.6616H102.685L100.346 55.2779H100.327L100.386 60.6616H98.748V52.7871Z" fill="#231F20"/>
<path d="M109.966 57.4941H108.289L109.152 54.4149H109.172L109.966 57.4941ZM105.534 60.6665H107.343L107.873 58.9847H110.383L110.883 60.6665H112.839L110.26 52.792H108.074L105.534 60.6665Z" fill="#231F20"/>
<path d="M113.403 52.7871H116.213L117.63 58.0188H117.649L119.135 52.7871H121.837V60.6616H120.091L120.121 54.616H120.101L118.395 60.6616H116.752L115.124 54.616H115.105L115.144 60.6616H113.398V52.7871H113.403Z" fill="#231F20"/>
<path d="M100.42 37.1208H94.4675V31.5508H92.0747V39.0085H100.42V37.1208Z" fill="#231F20"/>
<path d="M67.4462 40.1657H69.8488V31.3105H67.4462V33.0168H64.8721V34.9046H67.4462V36.1451H64.8721V38.0377H67.4462V40.1657Z" fill="#231F20"/>
<path d="M116.728 45.2351V40.6703H120.773V38.7826H112.138V33.7568H120.773V31.874H109.741V40.6703H114.33V45.2351H108.579V47.1278H121.935V45.2351H116.728Z" fill="#231F20"/>
<path d="M104.23 31.3105H101.837V39.9009H104.23V35.8999H106.328V34.0122H104.23V31.3105Z" fill="#231F20"/>
<path d="M94.7617 40.9551V47.8636H104.23V40.9551H94.7617ZM97.1594 45.9759V42.8428H101.832V45.9759H97.1594Z" fill="#231F20"/>
<path d="M64.7788 39.9404C62.1164 39.9404 59.959 41.8968 59.959 44.3042C59.959 46.7117 62.1164 48.6681 64.7788 48.6681C67.4412 48.6681 69.5986 46.7166 69.5986 44.3042C69.5986 41.8919 67.4412 39.9404 64.7788 39.9404ZM64.7788 46.6431C63.4893 46.6431 62.4449 45.5987 62.4449 44.3042C62.4449 43.0098 63.4893 41.9654 64.7788 41.9654C66.0683 41.9654 67.1078 43.0147 67.1078 44.3042C67.1078 45.5938 66.0634 46.6431 64.7788 46.6431Z" fill="#231F20"/>
<path d="M81.5473 39.9404C78.8898 39.9404 76.7324 41.8968 76.7324 44.3042C76.7324 46.7117 78.8898 48.6681 81.5473 48.6681C84.2048 48.6681 86.3622 46.7166 86.3622 44.3042C86.3622 41.8919 84.2048 39.9404 81.5473 39.9404ZM81.5473 46.6431C80.2578 46.6431 79.2183 45.5987 79.2183 44.3042C79.2183 43.0098 80.2627 41.9654 81.5473 41.9654C82.832 41.9654 83.8763 43.0147 83.8763 44.3042C83.8763 45.5938 82.832 46.6431 81.5473 46.6431Z" fill="#231F20"/>
<path d="M63.7245 35.4979C63.7245 35.4979 64.3619 33.8211 64.3227 31.7568H56.4188V33.6887H61.4396C61.4396 33.6887 61.6162 37.5377 56.1001 38.3467L57.0562 40.0089C58.8066 39.8618 62.3271 38.9743 63.7245 35.4979Z" fill="#231F20"/>
<path d="M81.8861 39.5132L82.8618 37.9C79.1158 36.6546 79.1354 32.8939 79.1354 32.4967V31.6338H76.1935V32.5164C76.1935 32.8645 76.3357 36.9194 72.5161 38.3609L73.5458 39.9103C73.5458 39.9103 76.2131 39.1503 77.7478 36.5075C79.0814 38.8463 81.891 39.5181 81.891 39.5181L81.8861 39.5132Z" fill="#231F20"/>
<path d="M86.6911 31.3105H84.2935V40.1608H86.6911V35.8999H88.7847V34.0122H86.6911V31.3105Z" fill="#231F20"/>
<path d="M28.3872 24.9997C21.361 24.8673 15.1144 28.3731 11.4419 33.7862C11.5105 33.8646 11.5694 33.9382 11.6233 34.0068C11.6625 34.051 11.6969 34.1 11.7312 34.1343C11.7508 34.1343 11.7704 34.1392 11.7851 34.1441C12.045 34.1931 12.4372 34.2618 12.7756 34.5658C12.9864 34.757 13.1237 34.9727 13.2315 35.1395C13.2757 35.213 13.3443 35.3111 13.3737 35.3405C13.4326 35.3944 13.5208 35.4631 13.614 35.5366C13.766 35.6494 13.9376 35.7818 14.1043 35.9534C14.2465 36.0956 14.374 36.2378 14.4966 36.38C14.5799 36.4829 14.6633 36.5761 14.7466 36.6643C14.8104 36.733 14.8986 36.8114 14.9918 36.8948C15.1291 37.0174 15.286 37.1596 15.4331 37.3312C15.6243 37.5469 15.7371 37.7725 15.8204 37.9539C15.8547 38.0225 15.9087 38.1206 15.9283 38.1549C16.0656 38.3118 16.1931 38.4785 16.3156 38.6354L16.5118 38.8806C16.5461 38.9247 16.6294 38.9933 16.7079 39.0571C16.855 39.1846 17.0413 39.3415 17.2031 39.5572C17.3257 39.719 17.4287 39.8759 17.5267 40.0279C17.6003 40.1407 17.6689 40.2436 17.7327 40.3368C17.8896 40.5525 17.9827 40.7683 18.0661 40.9497C18.1102 41.0478 18.1494 41.1458 18.1886 41.1949C18.223 41.2439 18.2965 41.3174 18.375 41.3959C18.5024 41.5283 18.6643 41.6901 18.8015 41.9009C18.9486 42.1216 19.0369 42.3471 19.1055 42.5236C19.1301 42.5923 19.1595 42.6658 19.184 42.7197C19.2085 42.7394 19.2428 42.759 19.2722 42.7786C19.4537 42.9012 19.7331 43.0875 19.9293 43.4062C20.0371 43.5827 20.1107 43.7641 20.1695 43.9161L20.552 44.176C21.1747 44.5977 21.4394 44.377 21.1354 43.6906L17.615 35.669C17.3159 34.9777 17.4385 34.909 17.8896 35.5072L23.1359 42.4501C23.5919 43.0483 23.9057 42.9306 23.842 42.1804L23.1065 33.4724C23.0428 32.7222 23.185 32.6928 23.4252 33.4086L25.9651 41.6312C26.2053 42.3471 26.5191 42.3275 26.6662 41.5871L28.0881 33.1095C28.2352 32.3692 28.3823 32.3839 28.4166 33.1341L28.7795 41.8029C28.8138 42.553 29.1423 42.6364 29.5199 41.9843L33.8542 34.4824C34.2318 33.8303 34.3642 33.8891 34.1484 34.6099L31.6969 42.8914C31.4811 43.6121 31.7753 43.7984 32.3392 43.3032L38.8408 37.6597C39.4046 37.1645 39.5174 37.2674 39.081 37.8754L35.3399 43.1218C35.5311 43.1169 35.7224 43.1071 35.8694 43.0286C36.1734 42.8668 36.35 42.4501 36.6638 42.2932C36.9776 42.1412 37.3894 42.1951 37.7081 42.0578C38.0268 41.9156 38.2475 41.543 38.5662 41.4106C38.8849 41.2831 39.2232 41.19 39.5419 41.0723C39.8949 40.9448 40.2235 40.7389 40.5667 40.6261C40.9148 40.5084 41.2874 40.4594 41.6307 40.3515C41.9739 40.2436 42.3907 40.3956 42.7241 40.2976C43.0918 40.1946 43.3713 39.8024 43.7243 39.7141C44.0822 39.6209 44.4647 39.6749 44.803 39.5964C45.1707 39.5082 45.5434 39.5229 45.8866 39.4493C46.2593 39.3709 46.5829 39.1748 46.9212 39.111C46.9849 39.0963 47.0536 39.0914 47.1222 39.0914C44.6314 31.0796 37.2423 25.1762 28.3872 24.9997Z" fill="#F15A38"/>
<path d="M25.3572 63.7349C25.3572 63.7349 25.367 63.6957 25.3719 63.6761C25.3572 63.6516 25.3425 63.6172 25.3229 63.5927C25.2297 63.426 25.0973 63.1907 25.0336 62.8965C25.0091 62.7837 24.9747 62.6562 24.9306 62.5189C24.8816 62.3669 24.8326 62.2002 24.7884 62.0188C24.7345 61.7835 24.7296 61.5628 24.7198 61.3863C24.7198 61.2784 24.71 61.1657 24.7002 61.1117C24.656 60.9254 24.6266 60.7489 24.607 60.5871C24.5874 60.4547 24.5727 60.3272 24.5433 60.2242C24.5237 60.136 24.4746 60.0281 24.4305 59.9104C24.3717 59.7584 24.2981 59.5819 24.2442 59.3809L24.1902 59.1897L24.0186 58.5327C23.9892 58.4297 23.9451 58.3071 23.896 58.1845C23.8421 58.0423 23.7833 57.8805 23.7342 57.7089C23.646 57.4049 23.6558 57.1205 23.6656 56.9146C23.6656 56.8509 23.6656 56.7822 23.6656 56.743C23.6264 56.6253 23.5822 56.4978 23.5283 56.3655C23.4744 56.2233 23.4204 56.0811 23.3665 55.9242C23.3518 55.8948 23.3028 55.8261 23.2635 55.7722C23.1459 55.6153 22.989 55.3946 22.8909 55.1102C22.8664 55.0318 22.8125 54.9239 22.7536 54.8112C22.6801 54.6641 22.5918 54.4925 22.5232 54.2963C22.4692 54.1443 22.4104 53.9923 22.3466 53.8305L22.2094 53.4726C22.0819 53.1294 22.1064 52.8009 22.1211 52.59C22.1211 52.5606 22.126 52.5263 22.126 52.4969C22.0917 52.4233 22.0476 52.34 21.9936 52.2468C21.9152 52.0997 21.8171 51.9281 21.7387 51.7369C21.719 51.6829 21.6553 51.5947 21.5965 51.5015C21.4984 51.3544 21.3758 51.173 21.2778 50.9475C21.1993 50.7611 21.1454 50.5846 21.0963 50.4277C21.0571 50.3052 21.0228 50.1875 20.9885 50.1041C20.9247 49.957 20.8708 49.8148 20.812 49.6775C20.7531 49.5403 20.7041 49.4079 20.6453 49.2902L20.4785 48.9274C20.405 48.7607 20.3364 48.6038 20.2628 48.4567C20.2383 48.4027 20.1647 48.3096 20.101 48.2213C19.9931 48.084 19.8607 47.9124 19.7529 47.6967C19.6352 47.4613 19.5764 47.2358 19.5273 47.0544C19.5126 46.9955 19.493 46.922 19.4783 46.8778C19.4489 46.8533 19.4146 46.8239 19.3851 46.7994C19.2184 46.667 18.988 46.4807 18.8262 46.1865C18.6644 45.9021 18.6202 45.6128 18.581 45.4069C18.5712 45.353 18.5614 45.2794 18.5516 45.2451C18.4437 45.0588 18.3751 44.8724 18.3162 44.7204C18.2868 44.642 18.2574 44.5635 18.228 44.5047C18.1986 44.4851 18.1643 44.4606 18.1348 44.441C17.9485 44.3184 17.6935 44.1468 17.5023 43.8477C17.365 43.6368 17.2817 43.4211 17.2179 43.2495C17.1836 43.1612 17.1444 43.0534 17.115 43.0191C17.0757 42.9602 16.9973 42.8818 16.9188 42.7984C16.7963 42.6709 16.6541 42.5287 16.5266 42.3424C16.3844 42.1316 16.2912 41.9256 16.2128 41.7589C16.1736 41.6707 16.1245 41.5628 16.1 41.5236C15.9971 41.3814 15.9039 41.2392 15.8254 41.1166C15.747 40.994 15.6685 40.8764 15.595 40.7832C15.5607 40.7342 15.4724 40.6606 15.3842 40.5871C15.2518 40.4694 15.0851 40.3272 14.9331 40.1409L14.7271 39.881C14.6046 39.729 14.4918 39.5868 14.379 39.4495C14.1976 39.2338 14.0897 39.0181 14.0064 38.8416C13.972 38.7778 13.9328 38.6896 13.9083 38.665C13.8299 38.5768 13.7318 38.4885 13.6239 38.3954C13.5112 38.2924 13.3837 38.1747 13.2562 38.0423C13.1483 37.9247 13.0503 37.8168 12.9571 37.704C12.8492 37.5814 12.7512 37.4638 12.658 37.3706C12.5894 37.302 12.4864 37.2235 12.3785 37.1402C12.251 37.0421 12.1088 36.9342 11.9667 36.8018C11.7656 36.6057 11.6332 36.3998 11.5254 36.238C11.5058 36.2037 11.4812 36.1693 11.4616 36.135C11.442 36.135 11.4224 36.1301 11.4028 36.1252C11.1625 36.0811 10.7997 36.0173 10.4957 35.7526C10.4369 35.7035 10.3829 35.6545 10.3339 35.6055C8.91689 38.2826 8.06864 41.3471 8 44.6126C7.79897 54.8896 15.3891 63.4996 25.3376 64.8234C25.318 64.7548 25.2984 64.6861 25.2885 64.6126C25.2248 64.2546 25.2984 63.9457 25.3523 63.7349H25.3572Z" fill="#00AC6C"/>
<path d="M23.5969 50.982C23.6312 51.0653 23.6852 51.1634 23.744 51.2762C23.8323 51.438 23.9352 51.6194 24.0235 51.8351C24.1559 52.1832 24.1313 52.5118 24.1166 52.7324C24.1166 52.7667 24.1117 52.8109 24.1117 52.8403L24.2147 53.105C24.2784 53.2718 24.3471 53.4434 24.4108 53.6248C24.4402 53.6983 24.4893 53.8013 24.5432 53.9092C24.6217 54.071 24.7148 54.2524 24.7884 54.4681C24.7835 54.4534 24.7786 54.4485 24.7786 54.4485C24.7933 54.473 24.8472 54.5466 24.8815 54.6005C25.0041 54.7672 25.1659 54.9928 25.264 55.2919C25.2983 55.3997 25.3473 55.5174 25.3915 55.6449C25.4552 55.8116 25.5238 55.9832 25.5827 56.1744C25.6758 56.4833 25.666 56.7726 25.6611 56.9883C25.6562 57.0472 25.6562 57.1256 25.6562 57.1649C25.6856 57.258 25.7249 57.361 25.7641 57.4738C25.8229 57.6307 25.8916 57.8072 25.9455 57.9984L26.1269 58.6799L26.176 58.8761C26.1956 58.9545 26.2348 59.0575 26.2838 59.1703C26.3476 59.337 26.426 59.5233 26.48 59.7439C26.529 59.9401 26.5535 60.1313 26.5829 60.298C26.6025 60.4255 26.6173 60.5529 26.6418 60.651C26.6957 60.8913 26.7055 61.1168 26.7153 61.3031C26.7153 61.411 26.7251 61.5189 26.7398 61.5826C26.7643 61.6905 26.7987 61.8082 26.8379 61.9307C26.8869 62.0876 26.9409 62.2642 26.9801 62.4554C26.9899 62.4848 27.0291 62.5485 27.0536 62.5976C27.1517 62.7692 27.289 63.0094 27.3527 63.3183C27.4263 63.6763 27.3478 63.995 27.2939 64.2058C27.2841 64.2352 27.2792 64.2695 27.2694 64.3039C27.289 64.3676 27.3086 64.4461 27.338 64.5294C27.387 64.6667 27.4312 64.8187 27.4704 64.9903C27.5194 64.9903 27.5636 64.9952 27.6126 64.9952C33.5258 65.1129 38.8899 62.6466 42.6261 58.6407C35.6832 53.3061 27.1615 51.438 23.543 50.8545C23.5626 50.8986 23.5822 50.9378 23.6018 50.982H23.5969Z" fill="#005BAA"/>
<path d="M47.8871 45.3973C47.9166 43.8773 47.7695 42.3965 47.4753 40.9697C47.3527 40.9893 47.2252 41.009 47.1026 41.0335C46.7594 41.0972 46.4554 41.3179 46.1318 41.3816C45.7984 41.4502 45.4797 41.5532 45.1561 41.6268C44.8031 41.7101 44.4451 41.7199 44.1068 41.8082C43.7636 41.8964 43.3958 41.867 43.0673 41.9602C42.7339 42.0582 42.4544 42.3181 42.1406 42.4162C41.7925 42.5289 41.4248 42.5534 41.0963 42.6711C40.7579 42.7888 40.3804 42.7741 40.0617 42.8967C39.743 43.0242 39.4782 43.284 39.1791 43.4115C38.8457 43.5537 38.478 43.5929 38.174 43.74C37.8357 43.9018 37.5856 44.2058 37.2816 44.3725C36.9629 44.5392 36.6491 44.6765 36.3598 44.8432C36.046 45.0246 35.7028 45.1423 35.4233 45.3188C35.1144 45.515 34.8987 45.819 34.6339 46.0102C34.325 46.2308 34.0945 46.5103 33.8347 46.7162C33.5356 46.9565 33.1728 47.0693 32.9423 47.285C32.707 47.4958 32.452 47.6478 32.2559 47.8047L31.8097 48.5255C31.7165 48.8638 31.7165 49.1139 31.5743 48.903L30.6084 50.4524C34.6584 51.6929 39.5125 53.7376 43.8273 57.0962C46.3034 53.8405 47.8136 49.7954 47.8969 45.3924L47.8871 45.3973Z" fill="#FAA61A"/>
</g>
<defs>
<clipPath id="clip0_1_4090">
<rect width="113.935" height="40" fill="white" transform="translate(8 25)"/>
</clipPath>
</defs>
</svg>
