<svg width="90" height="80" viewBox="0 0 90 80" fill="none" xmlns="http://www.w3.org/2000/svg">
<g clip-path="url(#clip0_1962_9641)">
<path d="M36.2067 20.8464C35.7887 20.969 35.4376 21.1028 35.1534 21.2477C34.2951 21.6601 33.6097 22.3734 33.2753 23.2595C31.7594 26.6257 31.7315 38.9032 33.1917 42.6038C33.2418 42.771 33.3031 42.927 33.3812 43.0831C37.0538 37.8611 41.9526 28.4258 36.2067 20.8408V20.8464Z" fill="#00A0B0"/>
<path d="M39.4558 45.8087C44.1205 46.3214 50.7525 46.0818 53.5669 45.0731C54.8432 44.7275 55.8463 43.7411 56.1919 42.4927C56.504 41.6289 56.7492 40.3582 56.9219 38.859C53.6115 38.6083 45.8761 38.9148 39.4558 45.8087V45.8087Z" fill="#00A0B0"/>
<path d="M36.7473 45.3629C36.3683 45.2737 36.0284 45.1734 35.733 45.0675C35.4711 44.9951 35.2258 44.8892 34.9973 44.7666C43.853 33.4365 43.9979 24.9654 42.7328 20.0332C47.13 19.8771 52.0176 20.2561 54.0016 21.1645C55.0382 21.5881 55.8407 22.4463 56.164 23.5164C56.9498 25.5617 57.2953 30.0982 57.2061 34.3449C47.2916 34.2557 40.0689 41.3224 36.7473 45.3629ZM48.7685 33.4253C50.6633 33.5312 52.2851 32.0878 52.3966 30.1929C52.5025 28.2925 51.059 26.6763 49.1642 26.5648C47.2693 26.459 45.6475 27.9024 45.5361 29.7972C45.4302 31.6921 46.8736 33.3139 48.7685 33.4253V33.4253Z" fill="#00A0B0"/>
<path d="M23.0096 56.4926H14.6667V55.417H20.942C21.0144 55.1495 21.0646 54.8819 21.098 54.6089C21.1259 54.3581 21.1371 54.0293 21.1371 53.628V52.597H15.0902V51.5381H22.5805V53.3661C22.5805 53.8063 22.5638 54.1742 22.5303 54.4751C22.4913 54.8039 22.4244 55.1216 22.3353 55.417H23.0096V56.4926V56.4926ZM16.5337 59.5801H22.5805V60.639H16.3665C15.9039 60.639 15.5751 60.5554 15.3745 60.3937C15.185 60.2321 15.0902 59.9646 15.0902 59.6024V57.479H16.5281V59.5856L16.5337 59.5801Z" fill="#636466"/>
<path d="M28.3542 58.9893V57.022H29.7921V58.9893H33.3087V60.0482H24.8599V58.9893H28.3487H28.3542ZM32.6511 51.5381V54.5866H26.777V55.7625H32.9186V56.8047H26.6489C26.203 56.8047 25.8742 56.7155 25.6568 56.5316C25.4451 56.3588 25.3336 56.0913 25.3336 55.7402V53.55H31.2077V52.5803H25.3336V51.5381H32.6455H32.6511Z" fill="#636466"/>
<path d="M36.9925 51.415V52.0504H41.6015V51.415H43.0393V55.0654H40.1135V55.6896H43.5242V56.7485H35.0754V55.6896H38.6756V55.0654H36.8699C36.4073 55.0654 36.073 54.9763 35.8556 54.8035C35.655 54.6307 35.5547 54.3576 35.5547 53.9954V51.4206H36.9925V51.415ZM43.0393 57.4897V60.711H41.6015V58.5653H35.5547V57.4897H43.0393ZM36.9925 53.087V54.0065H41.6015V53.087H36.9925Z" fill="#636466"/>
<path d="M50.7135 51.5378V52.5633H48.9022V54.7089C48.9022 55.8458 49.153 56.8211 49.6546 57.6348C50.0837 58.3259 50.6578 58.8442 51.3767 59.1953L50.5407 60.0424C49.9611 59.7136 49.4874 59.3457 49.1196 58.9389C48.6905 58.4763 48.3784 57.958 48.1889 57.3896C48.005 57.9469 47.6873 58.4652 47.2359 58.9389C46.8625 59.329 46.3943 59.6968 45.8203 60.0424L45.0902 59.1953C45.759 58.8386 46.2996 58.3147 46.7176 57.6237C47.2192 56.8044 47.47 55.8347 47.47 54.7201V52.5689H45.6476V51.5434H50.7191L50.7135 51.5378ZM53.3551 51.3428V60.7223H51.9173V51.3428H53.3551V51.3428Z" fill="#636466"/>
<path d="M63.9942 56.2864H55.5565V55.2275H58.3319V53.6169H59.7698V55.2275H61.8374C61.9154 54.9432 61.9767 54.6144 62.0157 54.241C62.0548 53.9067 62.0715 53.5388 62.0715 53.1376V52.597H56.0247V51.5381H63.5093V52.5412C63.5093 52.9927 63.487 53.4441 63.4425 53.9067C63.3979 54.4361 63.331 54.8764 63.2474 55.2275H63.9886V56.2864H63.9942ZM62.6288 57.4846C63.2753 57.8747 63.6041 58.3484 63.6041 58.9057C63.6041 59.463 63.2808 59.9312 62.6288 60.3213C61.9154 60.756 60.9624 60.9733 59.7754 60.9733C58.5883 60.9733 57.6297 60.756 56.9219 60.3213C56.2866 59.9312 55.9634 59.4575 55.9634 58.9057C55.9634 58.354 56.281 57.8747 56.9219 57.4846C57.6353 57.0555 58.5883 56.8381 59.7754 56.8381C60.9624 56.8381 61.9154 57.0555 62.6288 57.4846ZM58.0087 58.2147C57.613 58.4041 57.4179 58.6326 57.4179 58.9057C57.4179 59.1788 57.613 59.4073 58.0087 59.5968C58.4434 59.803 59.0341 59.9089 59.7754 59.9089C60.5166 59.9089 61.1018 59.803 61.5476 59.5968C61.9544 59.4017 62.1606 59.1677 62.1606 58.9057C62.1606 58.6438 61.9544 58.3986 61.5476 58.2147C61.1018 58.0085 60.511 57.9026 59.7754 57.9026C59.0397 57.9026 58.4434 58.0085 58.0087 58.2147Z" fill="#636466"/>
<path d="M71.0609 52.58H67.5554V55.5059H72.2368V51.3428H73.6747V54.1962H74.6667V55.3052H73.6747V58.142H72.2368V56.5258H67.3158C66.9089 56.5258 66.6024 56.4254 66.4018 56.2248C66.2123 56.0353 66.1176 55.7511 66.1176 55.3777V51.5378H71.0609V52.58V52.58ZM68.018 59.5798H73.7304V60.6387H67.8564C67.3938 60.6387 67.065 60.5551 66.8644 60.3935C66.6749 60.2319 66.5801 59.9644 66.5801 59.6021V57.5624H68.018V59.5798V59.5798Z" fill="#636466"/>
</g>
<defs>
<clipPath id="clip0_1962_9641">
<rect width="60" height="40.9734" fill="white" transform="translate(14.6667 20)"/>
</clipPath>
</defs>
</svg>
