<svg width="100" height="90" viewBox="0 0 100 90" fill="none" xmlns="http://www.w3.org/2000/svg">
<g clip-path="url(#clip0_1_4055)">
<path d="M37.5425 16.2406C36.9304 16.4201 36.4162 16.616 36 16.8282C34.7432 17.4321 33.7394 18.4767 33.2497 19.7743C31.0299 24.7036 30.9891 42.6824 33.1273 48.1013C33.2008 48.3461 33.2905 48.5746 33.4048 48.8032C38.7829 41.1563 45.9565 27.3396 37.5425 16.2324V16.2406Z" fill="#00A0B0"/>
<path d="M42.3003 52.7935C49.1311 53.5443 58.8427 53.1934 62.9641 51.7162C64.8329 51.2102 66.3019 49.7657 66.8079 47.9376C67.2649 46.6727 67.624 44.812 67.877 42.6166C63.0294 42.2494 51.7018 42.6983 42.3003 52.7935Z" fill="#00A0B0"/>
<path d="M38.3341 52.141C37.7791 52.0104 37.2813 51.8635 36.8487 51.7084C36.4652 51.6024 36.1061 51.4473 35.7715 51.2677C48.7394 34.6763 48.9516 22.2716 47.099 15.049C53.5381 14.8205 60.6953 15.3755 63.6007 16.7057C65.1186 17.326 66.2938 18.5828 66.7671 20.1497C67.9178 23.1448 68.4238 29.7879 68.2933 36.0066C53.7748 35.876 43.198 46.2242 38.3341 52.141ZM55.9374 34.66C58.7122 34.8151 61.087 32.7014 61.2503 29.9266C61.4053 27.1437 59.2916 24.777 56.5169 24.6138C53.7421 24.4587 51.3672 26.5724 51.204 29.3472C51.049 32.1219 53.1627 34.4968 55.9374 34.66Z" fill="#00A0B0"/>
<path d="M18.2171 68.4378H6V66.8627H15.1893C15.2954 66.471 15.3689 66.0792 15.4178 65.6794C15.4587 65.3121 15.475 64.8306 15.475 64.243V62.7332H6.62024V61.1826H17.5887V63.8594C17.5887 64.5042 17.5642 65.0428 17.5152 65.4835C17.4581 65.965 17.3602 66.4302 17.2296 66.8627H18.2171V68.4378ZM8.73395 72.959H17.5887V74.5096H8.48912C7.81175 74.5096 7.33025 74.3872 7.03645 74.1505C6.75898 73.9138 6.62024 73.5221 6.62024 72.9916V69.8823H8.72579V72.9672L8.73395 72.959Z" fill="#636466"/>
<path d="M26.0437 72.0939V69.2131H28.1493V72.0939H33.2989V73.6445H20.9268V72.0939H26.0356H26.0437ZM32.3359 61.1826V65.6467H23.7342V67.3687H32.7276V68.8948H23.5465C22.8936 68.8948 22.4121 68.7642 22.0938 68.4949C21.7837 68.2419 21.6204 67.8502 21.6204 67.336V64.1288H30.2222V62.7087H21.6204V61.1826H32.3277H32.3359Z" fill="#636466"/>
<path d="M38.6931 61.0039V61.9343H45.4423V61.0039H47.5479V66.3494H43.2633V67.2634H48.2579V68.814H35.8857V67.2634H41.1578V66.3494H38.5136C37.8362 66.3494 37.3466 66.2188 37.0283 65.9658C36.7345 65.7128 36.5876 65.3129 36.5876 64.7825V61.0121H38.6931V61.0039ZM47.5479 69.8994V74.6165H45.4423V71.4745H36.5876V69.8994H47.5479ZM38.6931 63.4522V64.7988H45.4423V63.4522H38.6931Z" fill="#636466"/>
<path d="M58.7858 61.1831V62.6847H56.1334V65.8267C56.1334 67.4916 56.5007 68.9198 57.2352 70.1113C57.8636 71.1232 58.7042 71.8822 59.7569 72.3964L58.5328 73.6368C57.684 73.1553 56.9903 72.6167 56.4517 72.021C55.8233 71.3436 55.3663 70.5846 55.0888 69.7522C54.8195 70.5683 54.3543 71.3273 53.6933 72.021C53.1465 72.5922 52.461 73.1309 51.6204 73.6368L50.5513 72.3964C51.5306 71.8741 52.3222 71.1069 52.9343 70.095C53.6688 68.8953 54.036 67.4753 54.036 65.8431V62.6929H51.3674V61.1913H58.7939L58.7858 61.1831ZM62.6541 60.8975V74.6325H60.5485V60.8975H62.6541Z" fill="#636466"/>
<path d="M78.2333 68.1358H65.8774V66.5852H69.9416V64.2267H72.0472V66.5852H75.0749C75.1892 66.169 75.279 65.6875 75.3361 65.1407C75.3932 64.6511 75.4177 64.1124 75.4177 63.5248V62.7332H66.563V61.1826H77.5233V62.6516C77.5233 63.3126 77.4906 63.9737 77.4253 64.6511C77.36 65.4264 77.2621 66.0711 77.1397 66.5852H78.2251V68.1358H78.2333ZM76.2338 69.8905C77.1805 70.4617 77.662 71.1554 77.662 71.9715C77.662 72.7876 77.1886 73.4732 76.2338 74.0444C75.1892 74.681 73.7937 74.9993 72.0554 74.9993C70.3171 74.9993 68.9133 74.681 67.8769 74.0444C66.9465 73.4732 66.4732 72.7795 66.4732 71.9715C66.4732 71.1636 66.9384 70.4617 67.8769 69.8905C68.9215 69.2621 70.3171 68.9438 72.0554 68.9438C73.7937 68.9438 75.1892 69.2621 76.2338 69.8905ZM69.4683 70.9595C68.8889 71.237 68.6032 71.5716 68.6032 71.9715C68.6032 72.3714 68.8889 72.706 69.4683 72.9835C70.1049 73.2854 70.9699 73.4405 72.0554 73.4405C73.1408 73.4405 73.9977 73.2854 74.6506 72.9835C75.2463 72.6979 75.5483 72.3551 75.5483 71.9715C75.5483 71.5879 75.2463 71.2289 74.6506 70.9595C73.9977 70.6576 73.1326 70.5025 72.0554 70.5025C70.9781 70.5025 70.1049 70.6576 69.4683 70.9595Z" fill="#636466"/>
<path d="M88.5816 62.7092H83.4483V66.9938H90.3036V60.8975H92.4092V65.0759H93.8618V66.7H92.4092V70.8539H90.3036V68.4872H83.0974C82.5016 68.4872 82.0528 68.3403 81.759 68.0465C81.4815 67.7691 81.3428 67.3528 81.3428 66.8061V61.1831H88.5816V62.7092ZM84.1257 72.9595H92.4908V74.5101H83.889C83.2117 74.5101 82.7302 74.3877 82.4364 74.151C82.1589 73.9143 82.0201 73.5226 82.0201 72.9921V70.0052H84.1257V72.9595Z" fill="#636466"/>
</g>
<defs>
<clipPath id="clip0_1_4055">
<rect width="87.8618" height="60" fill="white" transform="translate(6 15)"/>
</clipPath>
</defs>
</svg>
