<svg width="90" height="80" viewBox="0 0 90 80" fill="none" xmlns="http://www.w3.org/2000/svg">
<g clip-path="url(#clip0_1962_9704)">
<path d="M18.4504 19.8353H44.9113V16.9468H18.3992V16.9404C16.8312 16.9404 15.5555 18.2161 15.5555 19.7862H15.5577V24.9401H15.5555C15.5555 26.5124 16.8312 27.7838 18.3992 27.7838V27.7752V27.788H25.2213V47.5975C25.2192 49.1654 26.4906 50.4411 28.0628 50.4411V50.4304H36.0604V47.5441H28.1098V24.9017H18.4461V19.8417L18.4504 19.8331V19.8353Z" fill="#ED1C24"/>
<path d="M75.5556 33.689C75.5556 23.9208 67.6369 16 57.8666 16C48.0963 16 40.1733 23.9208 40.1733 33.689C40.1733 43.4572 48.0941 51.3822 57.8666 51.3822C61.6723 51.3822 65.1964 50.1748 68.0827 48.129L70.3568 50.9556L72.6159 49.138L70.3077 46.2645C73.5482 43.0582 75.5556 38.6104 75.5556 33.689V33.689ZM57.8644 48.5023C49.6834 48.5023 43.0511 41.87 43.0511 33.689C43.0511 25.5079 49.6834 18.8799 57.8666 18.8799C66.0498 18.8799 72.6778 25.5101 72.6778 33.6911C72.6778 37.7016 71.0778 41.3367 68.4859 44.0011L67.3126 42.5399L65.0514 44.3574L66.2737 45.8805C63.8845 47.5338 60.9918 48.5044 57.8666 48.5044L57.8644 48.5023Z" fill="#2E3192"/>
<path d="M66.7558 33.7085C66.7558 38.5979 62.7922 42.5636 57.9028 42.5636C53.0134 42.5636 49.0477 38.5979 49.0477 33.7085C49.0477 28.8191 53.0134 24.8555 57.9028 24.8555C62.7922 24.8555 66.7558 28.8191 66.7558 33.7085V33.7085Z" fill="url(#paint0_radial_1962_9704)"/>
<path d="M31.2392 54.1662H24.8267C25.0827 54.5118 25.232 55.0814 25.232 55.7597V62.4091C25.232 63.0661 25.1637 63.8299 24.9099 64.2736H30.723C34.9511 64.2736 38.0166 62.0614 38.0166 59.013C38.0166 55.1774 33.5837 54.1641 31.2371 54.1641L31.2392 54.1662ZM35.8748 59.2775C35.8748 59.2775 35.862 59.3607 35.8705 59.3479C35.8172 62.7248 32.1587 63.6187 30.2345 63.6187C28.9822 63.6187 27.4719 63.5056 27.457 63.5056L27.2223 63.4864V55.043L27.4548 55.028C27.4698 55.0238 28.978 54.915 30.2345 54.915C32.9608 54.915 35.8748 56.0563 35.8748 59.2562V59.2775V59.2775Z" fill="#231F20"/>
<path d="M47.8722 55.2536V54.1465H37.6625V55.2536C39.4608 55.0808 41.9397 55.0531 41.9397 55.0531V60.5121C41.9397 63.3131 41.8245 63.6544 41.7925 64.2752H44.0473C44.011 63.4966 43.9044 63.2491 43.9044 60.5121V55.0617C43.9044 55.0617 45.8883 55.0318 47.8722 55.2536V55.2536Z" fill="#231F20"/>
<path d="M54.2187 63.3559C54.2443 63.3921 54.6496 64.3457 55.7717 64.3457C56.6122 64.3457 57.0538 64.0172 57.1903 63.8956V63.7548C56.9727 63.7548 56.6869 63.7207 56.4416 63.5799C56.1536 63.4092 56.0085 63.1361 56.0085 62.7692V58.443C56.0085 57.0628 54.5302 55.8916 52.783 55.8916C51.0359 55.8916 50.0034 56.3972 48.7426 57.323C48.7554 57.3358 49.2248 57.8222 49.3101 57.8883C49.613 57.5513 50.7564 56.6126 51.9895 56.6126C53.5638 56.6126 54.0736 57.3998 54.0736 58.0462C54.0736 58.5112 53.4422 58.9635 52.4694 59.2024C51.6993 59.388 48.7618 60.1091 48.316 61.5447C48.0984 62.2508 48.2392 63.1169 48.8685 63.6887C49.3805 64.1558 50.0781 64.4246 50.7756 64.4246C52.3734 64.4246 53.8113 63.3644 53.8625 63.3217L54.0758 63.1468L54.223 63.3601L54.2187 63.3559ZM54.08 61.7687C54.08 62.8567 52.9558 63.4049 52.0129 63.4049C50.5452 63.4049 49.8861 62.7714 49.8861 61.8391C49.8861 61.3165 50.3746 60.4034 51.7228 60.0131C53.0049 59.6419 53.7238 59.484 53.7281 59.484L53.9713 59.4264L54.08 59.4051V61.7666V61.7687Z" fill="#231F20"/>
<path d="M65.0386 64.3778H65.0962L65.9068 64.35C68.5179 64.3031 71.6176 64.5911 72.2895 64.6594C72.3322 64.5975 73.2346 63.3239 73.3882 63.1085C72.601 63.1682 71.592 63.2151 70.3632 63.2429L69.7509 63.2578L70.2096 62.9165C71.513 61.948 72.2319 60.572 72.2319 59.0425C72.2319 55.9002 69.2966 53.7051 65.0898 53.7051C60.883 53.7051 57.9498 55.9002 57.9498 59.0425C57.9498 62.1848 60.8659 64.3671 65.0364 64.3799L65.0386 64.3778ZM65.0919 54.3664C68.0891 54.3664 70.1819 56.2906 70.1819 59.0404C70.1819 61.7901 68.0891 63.7122 65.0919 63.7122C62.0947 63.7122 60.0062 61.7901 60.0062 59.0404C60.0062 56.2906 62.0968 54.3664 65.0919 54.3664V54.3664Z" fill="#231F20"/>
<path d="M63.9079 45.4388C63.9079 46.0553 61.2392 46.5523 57.9455 46.5523C54.6517 46.5523 51.983 46.0531 51.983 45.4388C51.983 44.8244 54.6517 44.3252 57.9455 44.3252C61.2392 44.3252 63.9079 44.8244 63.9079 45.4388Z" fill="url(#paint1_radial_1962_9704)"/>
</g>
<defs>
<radialGradient id="paint0_radial_1962_9704" cx="0" cy="0" r="1" gradientUnits="userSpaceOnUse" gradientTransform="translate(55.5469 29.4133) scale(11.9673 11.9673)">
<stop stop-color="white"/>
<stop offset="0.51" stop-color="#00AEEF"/>
<stop offset="1" stop-color="#2E3192"/>
</radialGradient>
<radialGradient id="paint1_radial_1962_9704" cx="0" cy="0" r="1" gradientUnits="userSpaceOnUse" gradientTransform="translate(57.9626 44.3646) scale(11.9462 2.26979)">
<stop stop-color="#034EA2"/>
<stop offset="0.7" stop-color="white"/>
</radialGradient>
<clipPath id="clip0_1962_9704">
<rect width="60" height="48.6596" fill="white" transform="translate(15.5555 16)"/>
</clipPath>
</defs>
</svg>
