<svg width="58" height="90" viewBox="0 0 58 90" fill="none" xmlns="http://www.w3.org/2000/svg">
<g clip-path="url(#clip0_110_3838)">
<path d="M37.6367 48.9901L22.8319 40.4321C22.3634 40.1666 21.6138 40.1666 21.1453 40.4321L6.43417 48.9901C5.96567 49.2556 5.98128 49.6929 6.43417 49.9584L21.239 58.5164C21.7075 58.7819 22.4571 58.7819 22.9256 58.5164L37.6367 49.9584C38.1052 49.6929 38.1052 49.2556 37.6367 48.9901Z" fill="white"/>
<path d="M37.4336 49.0214L22.6288 40.4633C22.1603 40.1978 21.4107 40.1978 20.9422 40.4633L6.23114 49.0214C5.76263 49.2869 5.77825 49.7241 6.23114 49.9896L21.0359 58.5477C21.5044 58.8132 22.254 58.8132 22.7225 58.5477L37.4336 49.9896C37.9021 49.7241 37.9021 49.3025 37.4336 49.0214Z" fill="#FEFDFD"/>
<path d="M57.5169 43.3368C57.5169 43.3993 57.5169 43.4461 57.5013 43.5086C57.5013 43.5555 57.4857 43.6023 57.4857 43.6648C57.4701 43.7272 57.4701 43.7741 57.4545 43.8366C57.4388 43.8834 57.4388 43.9303 57.4232 43.9927C57.4076 44.0552 57.392 44.102 57.3764 44.1645C57.3608 44.2114 57.3451 44.2582 57.3295 44.3207C57.3139 44.3831 57.2983 44.43 57.2827 44.4925C57.2671 44.5393 57.2514 44.5862 57.2202 44.633C57.2046 44.6955 57.1734 44.7423 57.1421 44.8048C57.1265 44.8517 57.0953 44.8985 57.0797 44.9454C57.0484 45.0078 57.0172 45.0547 56.9859 45.1171C56.9547 45.164 56.9391 45.2108 56.9079 45.2577C56.861 45.3202 56.8298 45.3982 56.7829 45.4607C56.7517 45.5076 56.7361 45.5388 56.7048 45.5856C56.658 45.6637 56.5955 45.7262 56.5487 45.8043C56.5174 45.8355 56.5018 45.8668 56.4706 45.9136C56.455 45.9292 56.4394 45.9448 56.4394 45.9605C56.3769 46.0385 56.3144 46.101 56.252 46.1791C56.2363 46.1947 56.2207 46.2259 56.2051 46.2416C56.127 46.3196 56.0489 46.4133 55.9709 46.4914C55.9552 46.507 55.9396 46.5227 55.924 46.5383C55.8615 46.6007 55.7991 46.6632 55.721 46.7257C55.6741 46.7725 55.6117 46.8194 55.5648 46.8662C55.518 46.9131 55.4555 46.9599 55.4086 46.9912C55.3462 47.038 55.2837 47.0849 55.2369 47.1317C55.1744 47.1786 55.1275 47.2098 55.0651 47.2567C55.0026 47.3035 54.9401 47.3504 54.8777 47.3972C54.8152 47.4441 54.7527 47.4753 54.6903 47.5221C54.6278 47.569 54.5497 47.6158 54.4872 47.6471C54.3935 47.6939 54.3155 47.7564 54.2218 47.8032C54.05 47.8969 53.8782 47.9906 53.6908 48.0843C53.6439 48.1156 53.5815 48.1312 53.5346 48.1624C53.3941 48.2249 53.2535 48.303 53.113 48.3655C53.0661 48.3811 53.0193 48.4123 52.9724 48.4279C52.785 48.506 52.5976 48.5841 52.4102 48.6622C52.379 48.6778 52.3477 48.6934 52.3009 48.6934C52.1447 48.7559 51.9729 48.8183 51.8012 48.8652C51.7387 48.8808 51.6606 48.912 51.5981 48.9277C51.5044 48.9589 51.4107 48.9901 51.317 49.0057C51.2389 49.0214 51.1609 49.0526 51.0828 49.0682C50.9891 49.0994 50.8954 49.1151 50.8017 49.1463C50.7236 49.1619 50.6455 49.1931 50.5674 49.2088C50.4737 49.2244 50.38 49.2556 50.2707 49.2712C50.1926 49.2868 50.1145 49.3025 50.0208 49.3181C49.9271 49.3337 49.8178 49.3649 49.7241 49.3805C49.646 49.3962 49.5679 49.4118 49.4899 49.4274C49.2712 49.4586 49.0682 49.5055 48.8496 49.5367C48.8183 49.5367 48.7871 49.5367 48.7559 49.5523C48.5685 49.5836 48.3811 49.5992 48.1937 49.6148C48.1156 49.6148 48.0531 49.6304 47.975 49.6304C47.8501 49.646 47.7251 49.646 47.6158 49.6617C47.5377 49.6617 47.4597 49.6773 47.3816 49.6773C47.2566 49.6929 47.1317 49.6929 46.9912 49.6929C46.9131 49.6929 46.8506 49.6929 46.7725 49.7085C46.6632 49.7085 46.5539 49.7085 46.4446 49.7085C46.3665 49.7085 46.2884 49.7085 46.2103 49.7085C46.0854 49.7085 45.9761 49.7085 45.8511 49.7085C45.7887 49.7085 45.7106 49.7085 45.6481 49.7085C45.5388 49.7085 45.4295 49.6929 45.3202 49.6929C45.2421 49.6929 45.164 49.6929 45.0859 49.6773C44.9766 49.6773 44.8516 49.6616 44.7423 49.646C44.6799 49.646 44.6018 49.6304 44.5393 49.6304C44.3988 49.6148 44.2582 49.5992 44.1177 49.5836C44.0708 49.5836 44.024 49.5679 43.9927 49.5679C43.8053 49.5523 43.6335 49.5211 43.4461 49.5055C43.4149 49.5055 43.3837 49.4899 43.3524 49.4899C43.1963 49.4742 43.0401 49.443 42.8839 49.4118C42.8215 49.3962 42.759 49.3805 42.6965 49.3805C42.5716 49.3649 42.4623 49.3337 42.3373 49.3181C42.2749 49.3025 42.2124 49.2868 42.1499 49.2712C42.025 49.24 41.9001 49.2088 41.7595 49.1775C41.6814 49.1619 41.619 49.1463 41.5409 49.1307C41.4316 49.0994 41.3066 49.0682 41.1973 49.037C41.1348 49.0214 41.0724 49.0057 41.0099 48.9745C40.8225 48.9277 40.6507 48.8652 40.4789 48.8027C40.4477 48.7871 40.4165 48.7871 40.3852 48.7715C40.1822 48.709 39.9792 48.6309 39.7762 48.5529C39.6981 48.5216 39.62 48.4904 39.5419 48.4591C39.4794 48.4279 39.417 48.4123 39.3545 48.3811C39.2608 48.3498 39.1827 48.303 39.089 48.2561C39.0266 48.2249 38.9797 48.2093 38.9172 48.178C38.8235 48.1312 38.7298 48.0843 38.6361 48.0375C38.5893 48.0063 38.5424 47.9906 38.4956 47.9594C38.355 47.8813 38.2145 47.8189 38.0895 47.7408C35.8407 46.4446 34.7163 44.7423 34.7319 43.0401L34.5757 83.0974C34.5757 84.7996 35.6845 86.5018 37.9334 87.798C38.0739 87.8761 38.1989 87.9542 38.3394 88.0167C38.3863 88.0479 38.4331 88.0635 38.48 88.0791C38.5737 88.126 38.6674 88.1728 38.7611 88.2197C38.8235 88.2509 38.8704 88.2665 38.9329 88.2978C39.0266 88.3446 39.1046 88.3759 39.1983 88.4227C39.2608 88.4539 39.3233 88.4696 39.3857 88.5008C39.4482 88.532 39.5107 88.5477 39.5731 88.5789C39.5888 88.5789 39.6044 88.5945 39.6356 88.5945C39.8386 88.6726 40.026 88.7507 40.2447 88.8131C40.2759 88.8288 40.3071 88.8288 40.3384 88.8444C40.5102 88.9068 40.6976 88.9537 40.8693 89.0162C40.9006 89.0318 40.9318 89.0318 40.963 89.0474C40.9943 89.063 41.0255 89.063 41.0724 89.0786C41.1817 89.1099 41.3066 89.1411 41.4159 89.1723C41.4784 89.1879 41.5565 89.2036 41.6346 89.2192C41.7595 89.2504 41.8844 89.2816 42.025 89.3129C42.0718 89.3285 42.1187 89.3285 42.1655 89.3441C42.1812 89.3441 42.1968 89.3441 42.1968 89.3441C42.3217 89.3753 42.431 89.391 42.556 89.4066C42.6184 89.4222 42.6809 89.4378 42.7434 89.4378C42.8995 89.469 43.0557 89.4847 43.1963 89.5159C43.2275 89.5159 43.2587 89.5315 43.29 89.5315C43.4774 89.5627 43.6491 89.5784 43.8365 89.594C43.8678 89.594 43.9146 89.594 43.9459 89.6096C44.0864 89.6252 44.2426 89.6408 44.3831 89.6564C44.3831 89.6564 44.3831 89.6564 44.3988 89.6564C44.4612 89.6564 44.5237 89.6721 44.5862 89.6721C44.7111 89.6877 44.8204 89.6877 44.9453 89.7033C45.0234 89.7033 45.1015 89.7033 45.164 89.7189C45.2733 89.7189 45.3826 89.7345 45.4919 89.7345C45.5076 89.7345 45.5076 89.7345 45.5232 89.7345C45.5856 89.7345 45.6481 89.7345 45.7106 89.7345C45.8355 89.7345 45.9448 89.7345 46.0698 89.7345C46.1478 89.7345 46.2259 89.7345 46.304 89.7345C46.4133 89.7345 46.5226 89.7345 46.632 89.7345C46.6476 89.7345 46.6788 89.7345 46.6944 89.7345C46.7413 89.7345 46.8038 89.7345 46.8506 89.7345C46.9755 89.7345 47.1005 89.7189 47.241 89.7189C47.3191 89.7189 47.3972 89.7033 47.4753 89.7033C47.6002 89.6877 47.7251 89.6877 47.8345 89.6721C47.8813 89.6721 47.9282 89.6721 47.9594 89.6564C47.9906 89.6564 48.0219 89.6564 48.0531 89.6408C48.2405 89.6252 48.4279 89.594 48.6153 89.5784C48.6465 89.5784 48.6778 89.5784 48.709 89.5627C48.9276 89.5315 49.1463 89.5003 49.3493 89.4534C49.3649 89.4534 49.3962 89.4534 49.4118 89.4378C49.4742 89.4222 49.5211 89.4222 49.5836 89.4066C49.6773 89.391 49.7866 89.3753 49.8803 89.3441C49.9584 89.3285 50.0364 89.3129 50.1145 89.2973C50.2082 89.2816 50.3019 89.2504 50.4112 89.2348C50.4893 89.2192 50.5674 89.1879 50.6455 89.1723C50.7392 89.1411 50.8329 89.1255 50.9266 89.0942C51.0047 89.0786 51.0828 89.0474 51.1609 89.0318C51.2546 89.0005 51.3483 88.9693 51.442 88.9537C51.4888 88.9381 51.52 88.9225 51.5669 88.9225C51.5981 88.9068 51.6294 88.9068 51.645 88.8912C51.8168 88.8288 51.9729 88.7819 52.1447 88.7194C52.176 88.7038 52.2072 88.6882 52.254 88.6882C52.4414 88.6101 52.6288 88.532 52.8162 88.454C52.8631 88.4383 52.9099 88.4071 52.9568 88.3915C53.0974 88.329 53.2379 88.2665 53.3785 88.1885C53.4253 88.1572 53.4878 88.1416 53.5346 88.1104C53.7064 88.0167 53.8938 87.923 54.0656 87.8293C54.1124 87.798 54.1593 87.7824 54.2061 87.7512C54.253 87.72 54.2842 87.7043 54.3311 87.6731C54.3935 87.6263 54.4716 87.5794 54.5341 87.5482C54.5966 87.5013 54.659 87.4701 54.7215 87.4232C54.784 87.3764 54.8464 87.3295 54.9089 87.2827C54.9714 87.2358 55.0182 87.2046 55.0807 87.1577C55.1432 87.1109 55.2056 87.064 55.2525 87.0172C55.2993 86.9703 55.3618 86.9235 55.4086 86.8923C55.4711 86.8454 55.518 86.7986 55.5804 86.7517C55.596 86.7361 55.6273 86.7205 55.6429 86.6892C55.6897 86.6424 55.721 86.6112 55.7678 86.5643C55.7835 86.5487 55.7991 86.5331 55.8147 86.5175C55.8928 86.4394 55.9709 86.3457 56.0489 86.2676C56.0646 86.252 56.0802 86.2207 56.0958 86.2051C56.1583 86.127 56.2207 86.0646 56.2832 85.9865C56.2988 85.9709 56.3144 85.9552 56.3144 85.9396L56.33 85.924C56.3457 85.8928 56.3613 85.8772 56.3925 85.8459C56.455 85.7678 56.5018 85.7054 56.5487 85.6273C56.5799 85.5804 56.5955 85.5492 56.6268 85.5024C56.6736 85.4399 56.7048 85.3618 56.7517 85.2993C56.7673 85.2837 56.7829 85.2681 56.7829 85.2369C56.7985 85.2056 56.8142 85.1744 56.8298 85.1588C56.861 85.0963 56.8922 85.0495 56.9235 84.987C56.9391 84.9402 56.9703 84.8933 56.9859 84.8465C57.0172 84.784 57.0328 84.7371 57.064 84.6747C57.0796 84.6434 57.0797 84.6278 57.0953 84.5966C57.1109 84.581 57.1109 84.5497 57.1109 84.5341C57.1265 84.4716 57.1421 84.4248 57.1577 84.3623C57.1734 84.3155 57.189 84.2686 57.2046 84.2062C57.2202 84.1437 57.2358 84.0968 57.2514 84.0344C57.2514 84.0031 57.2671 83.9719 57.2671 83.9407C57.2671 83.9251 57.2671 83.8938 57.2827 83.8782C57.2983 83.8157 57.2983 83.7689 57.3139 83.7064C57.3139 83.6596 57.3295 83.6127 57.3295 83.5503C57.3295 83.4878 57.3451 83.4409 57.3451 83.3785C57.3451 83.3472 57.3451 83.316 57.3451 83.2848C57.3451 83.2535 57.3451 83.2223 57.3451 83.1911L57.5013 43.1338C57.5169 43.2119 57.5169 43.2744 57.5169 43.3368Z" fill="url(#paint0_linear_110_3838)"/>
<path d="M54.1593 38.6361C49.6928 36.0594 42.4935 36.0594 38.0583 38.6361C33.6231 41.2129 33.6543 45.3826 38.1051 47.9594C42.5716 50.5362 49.7709 50.5362 54.2061 47.9594C58.6413 45.3826 58.6257 41.2129 54.1593 38.6361Z" fill="#2BBBE6"/>
<path d="M54.1593 78.2718C49.6928 75.695 42.4935 75.695 38.0583 78.2718C33.6231 80.8485 33.6543 85.0182 38.1051 87.595C42.5716 90.1718 49.7709 90.1718 54.2061 87.595C58.6413 85.0182 58.6257 80.8485 54.1593 78.2718Z" fill="url(#paint1_linear_110_3838)"/>
<path d="M46.0541 90C45.9448 90 45.8511 90 45.7418 90H45.5232H45.4919C45.3982 90 45.3045 90 45.2108 89.9844L44.9297 89.9688C44.8204 89.9688 44.7111 89.9532 44.6018 89.9532L44.3831 89.9376C44.227 89.9219 44.0708 89.9063 43.9302 89.8907L43.8209 89.8751C43.6335 89.8595 43.4461 89.8282 43.2743 89.8126H43.2587L43.1806 89.797C43.0245 89.7814 42.8683 89.7502 42.7121 89.7189L42.4935 89.6721C42.3842 89.6565 42.2748 89.6252 42.1499 89.6096H42.1031L41.9625 89.5784C41.8376 89.5471 41.697 89.5159 41.5721 89.4847L41.3535 89.4378C41.2285 89.4066 41.1192 89.3754 41.0099 89.3441L40.8069 89.2817C40.6195 89.2348 40.4321 89.1723 40.2603 89.1099L40.1666 89.0786C39.9636 89.0162 39.7605 88.9381 39.5575 88.86L39.495 88.8444C39.4482 88.8288 39.417 88.8131 39.3701 88.7975L39.2608 88.7507C39.2139 88.7351 39.1671 88.7038 39.1202 88.6882C39.0265 88.657 38.9485 88.6101 38.8548 88.5789L38.7767 88.5477C38.7298 88.532 38.6986 88.5164 38.6674 88.5008C38.5737 88.454 38.48 88.4071 38.3706 88.3603L38.2301 88.2822C38.0895 88.2041 37.949 88.126 37.8084 88.0479C35.5596 86.7517 34.3259 85.0026 34.3259 83.1442L34.482 43.087C34.482 43.0557 34.482 43.0245 34.4977 42.9933C34.6226 41.2598 35.8251 39.6512 37.9021 38.4487C42.3998 35.8407 49.7241 35.8407 54.2374 38.4487C56.3769 39.6825 57.595 41.3223 57.7043 43.087C57.7043 43.1026 57.7199 43.1338 57.7199 43.165V43.3212L57.5638 83.2223C57.5638 83.2535 57.5638 83.2848 57.5638 83.3316C57.5638 83.3629 57.5638 83.3785 57.5638 83.4097V83.4409C57.5638 83.5034 57.5638 83.5659 57.5481 83.6283C57.5481 83.6752 57.5325 83.7377 57.5325 83.7845C57.5169 83.847 57.5169 83.9095 57.5013 83.9719C57.5013 84.0032 57.5013 84.0188 57.4857 84.0344C57.4857 84.05 57.4701 84.0812 57.4701 84.0969V84.1281C57.4544 84.1906 57.4388 84.2374 57.4232 84.2999C57.4076 84.3467 57.392 84.4092 57.3764 84.456C57.3607 84.5185 57.3451 84.5654 57.3139 84.6278V84.6434C57.3139 84.6591 57.2983 84.6747 57.2983 84.6903C57.2983 84.7059 57.2827 84.7215 57.2827 84.7371L57.267 84.7684C57.2358 84.8308 57.2202 84.8933 57.189 84.9558C57.1733 85.0026 57.1421 85.0495 57.1109 85.1119C57.0796 85.1744 57.0484 85.2369 57.0172 85.2837L57.0016 85.315C56.9859 85.3306 56.9859 85.3462 56.9703 85.3774L56.9391 85.4243C56.8922 85.518 56.8454 85.5805 56.7985 85.6585L56.7829 85.6898C56.7673 85.721 56.7361 85.7522 56.7205 85.7835C56.6736 85.8616 56.6111 85.9396 56.5487 86.0177L56.533 86.049C56.5174 86.0646 56.5018 86.0802 56.4862 86.0958C56.4862 86.0958 56.4706 86.1114 56.4706 86.127L56.4237 86.1739C56.3613 86.252 56.2988 86.3301 56.2363 86.3925L56.1739 86.455C56.0958 86.5331 56.0177 86.6268 55.924 86.7049L55.8615 86.7673C55.8303 86.7986 55.7834 86.8454 55.7522 86.8767L55.6897 86.9391C55.6273 86.986 55.5804 87.0328 55.518 87.0953C55.4711 87.1421 55.4086 87.189 55.3618 87.2358C55.2993 87.2827 55.2368 87.3295 55.1744 87.3764C55.1119 87.4232 55.0651 87.4701 55.0026 87.5013C54.9401 87.5482 54.8777 87.595 54.7996 87.6419C54.7371 87.6887 54.6746 87.7356 54.6122 87.7668C54.5497 87.8137 54.4716 87.8605 54.3935 87.9074L54.3467 87.9386C54.3155 87.9542 54.2998 87.9698 54.2686 87.9855C54.2218 88.0167 54.1749 88.0479 54.1281 88.0635C53.9719 88.1572 53.8001 88.2509 53.5971 88.3603C53.5502 88.3915 53.4878 88.4071 53.4409 88.4383C53.3004 88.5008 53.1598 88.5789 53.0036 88.6414L52.8631 88.7038C52.6757 88.7819 52.4883 88.86 52.2853 88.9381L52.1759 88.9693C52.0042 89.0318 51.848 89.0942 51.6762 89.1411L51.4732 89.2036C51.3795 89.2348 51.2858 89.266 51.1921 89.2817C51.114 89.3129 51.0359 89.3285 50.9578 89.3441C50.8641 89.3754 50.7704 89.391 50.6767 89.4222C50.5986 89.4378 50.5206 89.4691 50.4269 89.4847C50.3332 89.5159 50.2238 89.5315 50.1301 89.5471H50.0989C50.0208 89.5628 49.9583 89.5784 49.8803 89.594C49.7866 89.6096 49.6772 89.6408 49.5835 89.6565L49.3649 89.7033C49.1307 89.7502 48.912 89.7814 48.6934 89.8126L48.5997 89.8282C48.4123 89.8595 48.2249 89.8751 48.0219 89.8907L47.8032 89.9063C47.6783 89.9219 47.5534 89.9219 47.4284 89.9376C47.3503 89.9376 47.2722 89.9532 47.1942 89.9532C47.0692 89.9532 46.9287 89.9688 46.8037 89.9688L46.6007 89.9844C46.4758 89.9844 46.3821 89.9844 46.2728 89.9844H46.0073C46.0541 90 46.0541 90 46.0541 90ZM43.3368 89.3441C43.5086 89.3754 43.696 89.391 43.8678 89.4066L43.9771 89.4222C44.1176 89.4378 44.2582 89.4534 44.4144 89.4691L44.6486 89.4847C44.7579 89.4847 44.8672 89.5003 44.961 89.5003L45.2264 89.5159C45.3201 89.5159 45.4138 89.5315 45.5075 89.5315L45.5232 89.7658V89.5315H45.7418C45.8511 89.5315 45.9604 89.5315 46.0697 89.5315H46.3352C46.4289 89.5315 46.5383 89.5315 46.632 89.5315L46.8506 89.5159C46.9755 89.5159 47.1005 89.5003 47.2254 89.5003C47.3035 89.5003 47.3816 89.4847 47.4596 89.4847C47.5846 89.4691 47.6939 89.4691 47.8188 89.4534L48.0375 89.4378C48.2249 89.4222 48.4123 89.391 48.5997 89.3754L48.6934 89.3597C48.912 89.3285 49.115 89.2973 49.3337 89.2504L49.5679 89.2036C49.6616 89.188 49.7709 89.1723 49.8646 89.1411C49.9271 89.1255 50.0052 89.1099 50.0677 89.0942H50.0989C50.1926 89.0786 50.2863 89.0474 50.38 89.0318C50.4581 89.0162 50.5362 88.9849 50.6143 88.9693C50.708 88.9381 50.8017 88.9225 50.8954 88.8912C50.9734 88.8756 51.0515 88.8444 51.1296 88.8288C51.2233 88.7975 51.317 88.7819 51.4107 88.7507L51.6137 88.6882C51.7699 88.6414 51.9417 88.5789 52.0979 88.5164L52.1916 88.4852C52.379 88.4071 52.5664 88.329 52.7538 88.2509L52.8943 88.1885C53.0349 88.126 53.1754 88.0635 53.316 88.0011C53.3628 87.9698 53.4253 87.9542 53.4721 87.923C53.6752 87.8137 53.8313 87.7356 53.9875 87.6419C54.0344 87.6106 54.0812 87.595 54.1281 87.5638C54.1437 87.5482 54.1749 87.5326 54.1905 87.517L54.253 87.4857C54.3155 87.4389 54.3935 87.4076 54.456 87.3608C54.5185 87.3295 54.5653 87.2827 54.6278 87.2515C54.6903 87.2046 54.7683 87.1578 54.8152 87.1109C54.8777 87.0641 54.9245 87.0328 54.987 86.986C55.0494 86.9391 55.1119 86.8923 55.1588 86.8454C55.2056 86.7986 55.2681 86.7673 55.3149 86.7205C55.3618 86.6736 55.4243 86.6268 55.4711 86.5799L55.5336 86.5175C55.5648 86.4862 55.6117 86.455 55.6429 86.4238L55.6585 86.4081L55.6741 86.3925L55.7054 86.3613C55.7834 86.2832 55.8615 86.2051 55.9396 86.127L55.9865 86.0802C56.0489 86.0021 56.1114 85.9396 56.1739 85.8616L56.2051 85.8147L56.4081 85.9396L56.2207 85.7991L56.2832 85.721C56.33 85.6585 56.3925 85.5805 56.4393 85.518C56.455 85.4868 56.4706 85.4711 56.4862 85.4399L56.5174 85.4087C56.5643 85.3462 56.5955 85.2837 56.6424 85.2213L56.7205 85.0963C56.7517 85.0495 56.7829 84.987 56.7985 84.9402C56.8142 84.8933 56.8454 84.8465 56.861 84.7996C56.8922 84.7371 56.9079 84.6903 56.9235 84.6278L56.9703 84.4873C56.9859 84.4404 57.0016 84.378 57.0172 84.3311C57.0328 84.2843 57.0484 84.2374 57.064 84.1906C57.0796 84.1437 57.0953 84.0812 57.0953 84.0344L57.1265 83.8938C57.1421 83.847 57.1421 83.7845 57.1577 83.7377C57.1577 83.6908 57.1733 83.644 57.1733 83.5971C57.1733 83.5503 57.189 83.4878 57.189 83.4409V83.3941C57.189 83.3785 57.189 83.3629 57.189 83.3472C57.189 83.316 57.189 83.2848 57.189 83.2535L57.3451 43.3524C57.3451 43.3368 57.3451 43.3212 57.3451 43.3056C57.3139 41.6502 56.1582 40.0729 54.1124 38.886C49.7241 36.3561 42.6028 36.3561 38.2457 38.886C36.2311 40.0573 35.1067 41.6034 35.0599 43.2431C35.0599 43.2587 35.0599 43.29 35.0442 43.3056L34.8881 83.1911C34.8881 84.8777 36.0281 86.4706 38.1364 87.6887C38.2613 87.7668 38.4019 87.8449 38.5424 87.9074L38.683 87.9698C38.7767 88.0167 38.8704 88.0635 38.9641 88.1104C38.9953 88.126 39.0422 88.1416 39.0734 88.1572L39.1359 88.1885C39.2296 88.2353 39.3076 88.2666 39.4013 88.2978C39.4482 88.3134 39.495 88.329 39.5419 88.3603L39.6668 88.4071C39.6981 88.4227 39.7449 88.4383 39.7762 88.454L39.8386 88.4696C40.026 88.5477 40.229 88.6101 40.4321 88.6882L40.5258 88.7194C40.6975 88.7819 40.8693 88.8288 41.0567 88.8912L41.2441 88.9381C41.3535 88.9693 41.4628 89.0005 41.5877 89.0318L41.7907 89.0786C41.9157 89.1099 42.0406 89.1411 42.1655 89.1567L42.3529 89.2036C42.4623 89.2192 42.5716 89.2504 42.6809 89.266L42.8839 89.3129C43.0401 89.3441 43.1806 89.3597 43.3368 89.391V89.3441Z" fill="#444444"/>
<path d="M25.0494 46.632L16.9443 41.9469C16.507 41.6971 15.8199 41.6971 15.3826 41.9469L7.33992 46.632C6.91827 46.8819 6.91827 47.2879 7.33992 47.5378L15.4451 52.2228C15.8823 52.4727 16.5695 52.4727 17.0068 52.2228L25.0494 47.5378C25.4711 47.2879 25.4711 46.8819 25.0494 46.632Z" fill="white"/>
<path d="M32.1395 47.319C32.1395 47.3347 32.1395 47.3659 32.1395 47.3815C32.1395 47.3971 32.1239 47.4127 32.1239 47.4284C32.1239 47.444 32.1083 47.4596 32.1083 47.4908C32.1083 47.5064 32.0927 47.5221 32.0927 47.5377C32.077 47.5533 32.077 47.5845 32.0614 47.6001C32.0614 47.6158 32.0458 47.6314 32.0302 47.647C32.0146 47.6626 31.999 47.6938 31.9833 47.7095C31.9677 47.7251 31.9677 47.7407 31.9521 47.7407C31.9209 47.7719 31.9053 47.8032 31.874 47.8344C31.8584 47.85 31.8584 47.85 31.8428 47.8656C31.8272 47.8813 31.8116 47.8969 31.7803 47.9125C31.7647 47.9281 31.7491 47.9437 31.7335 47.9593C31.7179 47.975 31.6866 47.9906 31.671 48.0062C31.6398 48.0218 31.6242 48.0374 31.5929 48.053L17.6002 56.1894C17.5377 56.2207 17.4753 56.2519 17.4128 56.2831C17.3972 56.2987 17.3816 56.2987 17.3503 56.2987C17.3035 56.3144 17.2566 56.3456 17.1942 56.3612C17.1786 56.3612 17.1629 56.3768 17.1317 56.3768C17.1005 56.3924 17.0692 56.3924 17.038 56.4081C17.0068 56.4081 16.9912 56.4237 16.9599 56.4237C16.9287 56.4393 16.8818 56.4393 16.8506 56.4393C16.8194 56.4393 16.8037 56.4549 16.7725 56.4549C16.6944 56.4705 16.632 56.4705 16.5539 56.4861C16.5383 56.4861 16.507 56.4861 16.4914 56.4861C16.4446 56.4861 16.4133 56.4861 16.3665 56.5018C16.3352 56.5018 16.304 56.5018 16.2884 56.5018C16.2572 56.5018 16.2259 56.5018 16.1791 56.5018C16.1478 56.5018 16.1166 56.5018 16.0854 56.5018C16.0541 56.5018 16.0229 56.5018 15.9917 56.5018C15.9604 56.5018 15.9292 56.5018 15.898 56.5018C15.8667 56.5018 15.8355 56.5018 15.8043 56.4861C15.773 56.4861 15.7418 56.4861 15.7262 56.4705C15.695 56.4705 15.6637 56.4549 15.6325 56.4549C15.6012 56.4549 15.5856 56.4393 15.5544 56.4393C15.5075 56.4237 15.4763 56.4237 15.4295 56.4081C15.4138 56.4081 15.3826 56.3924 15.367 56.3924C15.3045 56.3768 15.2264 56.3456 15.164 56.33C15.1327 56.3144 15.1015 56.2987 15.0703 56.2831C15.0547 56.2831 15.039 56.2675 15.0234 56.2675C14.9766 56.2519 14.9297 56.2207 14.8829 56.1894L0.812077 48.0687C0.437272 47.85 0.24987 47.5689 0.24987 47.2878L0.234253 49.9114C0.234253 50.1925 0.421655 50.4893 0.79646 50.6923L14.8673 58.8131C14.9141 58.8443 14.961 58.8599 15.0078 58.8911C15.0234 58.8911 15.039 58.9068 15.0547 58.9068C15.0859 58.9224 15.1171 58.938 15.1484 58.938C15.1484 58.938 15.1484 58.938 15.164 58.938C15.2264 58.9692 15.3045 58.9848 15.367 59.0005H15.3826C15.3982 59.0005 15.4138 59.0005 15.4295 59.0161C15.4763 59.0317 15.5075 59.0317 15.5544 59.0473C15.57 59.0473 15.57 59.0473 15.5856 59.0473C15.6013 59.0473 15.6169 59.0473 15.6325 59.0629C15.6637 59.0629 15.695 59.0785 15.7262 59.0785C15.7418 59.0785 15.7574 59.0785 15.773 59.0785C15.7887 59.0785 15.8043 59.0785 15.8199 59.0785C15.8511 59.0785 15.8824 59.0785 15.9136 59.0942C15.9292 59.0942 15.9448 59.0942 15.9604 59.0942C15.9761 59.0942 15.9917 59.0942 16.0073 59.0942C16.0385 59.0942 16.0698 59.0942 16.101 59.0942C16.1166 59.0942 16.1322 59.0942 16.1478 59.0942C16.1635 59.0942 16.1791 59.0942 16.1791 59.0942C16.2103 59.0942 16.2415 59.0942 16.2884 59.0942C16.304 59.0942 16.3196 59.0942 16.3352 59.0942C16.3509 59.0942 16.3509 59.0942 16.3665 59.0942C16.4133 59.0942 16.4602 59.0942 16.4914 59.0785C16.507 59.0785 16.5226 59.0785 16.5383 59.0785H16.5539C16.632 59.0785 16.6944 59.0629 16.7725 59.0473C16.7725 59.0473 16.7725 59.0473 16.7881 59.0473C16.8037 59.0473 16.835 59.0317 16.8506 59.0317C16.8818 59.0317 16.9287 59.0161 16.9599 59.0161C16.9912 59.0161 17.0068 59.0005 17.038 59.0005C17.0692 58.9848 17.1005 58.9848 17.1317 58.9692H17.1473C17.1629 58.9692 17.1629 58.9536 17.1786 58.9536C17.2254 58.938 17.2879 58.9224 17.3347 58.8911C17.3503 58.8911 17.366 58.8755 17.3816 58.8755C17.444 58.8443 17.5065 58.8131 17.569 58.7818L31.5617 50.6454C31.5773 50.6454 31.5773 50.6298 31.5773 50.6298C31.5929 50.6142 31.6085 50.6142 31.6242 50.5986C31.6398 50.583 31.671 50.5674 31.6866 50.5517C31.7022 50.5361 31.7179 50.5205 31.7335 50.5049C31.7491 50.4893 31.7803 50.4737 31.7959 50.458C31.7959 50.458 31.8116 50.458 31.8116 50.4424L31.8272 50.4268C31.8584 50.3956 31.8896 50.3643 31.9053 50.3331L31.9209 50.3175L31.9365 50.3019C31.9521 50.2862 31.9677 50.255 31.9833 50.2394C31.9833 50.2238 31.999 50.2238 31.999 50.2082V50.1925C32.0146 50.1769 32.0146 50.1457 32.0302 50.1301C32.0302 50.1145 32.0458 50.1145 32.0458 50.0988V50.0832C32.0458 50.0676 32.0614 50.052 32.0614 50.0208C32.0614 50.0051 32.077 49.9895 32.077 49.9895C32.077 49.9895 32.077 49.9895 32.077 49.9739C32.077 49.9583 32.077 49.9271 32.077 49.9114C32.077 49.8958 32.077 49.8802 32.077 49.8646V49.849L32.0927 47.2253C32.1395 47.2878 32.1395 47.3034 32.1395 47.319Z" fill="url(#paint2_linear_110_3838)"/>
<path d="M31.5773 46.4758L17.5065 38.355C16.7569 37.9177 15.5544 37.9177 14.8048 38.355L0.812089 46.4758C0.0624795 46.913 0.0780964 47.6158 0.827706 48.0374L14.8985 56.1582C15.6481 56.5955 16.8506 56.5955 17.6002 56.1582L31.5929 48.0218C32.3269 47.6158 32.3269 46.913 31.5773 46.4758Z" fill="white"/>
<path d="M16.2259 59.3597C16.2103 59.3597 16.1947 59.3597 16.1791 59.3597H16.1322H16.101C16.0541 59.3597 16.0229 59.3597 15.976 59.3597H15.9292H15.898C15.8511 59.3597 15.8043 59.3441 15.773 59.3441L15.6949 59.3285C15.6481 59.3285 15.6169 59.3128 15.57 59.3128C15.5388 59.3128 15.5232 59.3128 15.5232 59.2972C15.5232 59.2972 15.5075 59.2972 15.4919 59.2972C15.4451 59.2816 15.3982 59.2816 15.3514 59.266L15.3045 59.2504H15.2889C15.2108 59.2347 15.1484 59.2035 15.0703 59.1723C15.039 59.1567 15.0078 59.1411 14.9766 59.1411L15.039 58.9068L14.9453 59.1254L14.8985 59.1098C14.8516 59.0786 14.7892 59.063 14.7423 59.0317L0.671517 50.911C0.234245 50.6611 -0.015625 50.3019 -0.015625 49.9115L-8.13417e-06 47.2722C-8.13417e-06 47.2722 -8.13417e-06 47.2722 -8.13417e-06 47.2566C-8.13417e-06 46.8818 0.249862 46.5382 0.671517 46.2884L14.6642 38.1676C15.4919 37.6835 16.7725 37.6835 17.6002 38.1676L31.671 46.2884C32.0927 46.5382 32.3425 46.8818 32.3581 47.241C32.3581 47.2566 32.3581 47.2722 32.3581 47.2722L32.3425 49.8959C32.3425 49.9271 32.3425 49.9583 32.3425 49.9739C32.3425 50.0052 32.3425 50.0364 32.3269 50.052C32.3269 50.0833 32.3113 50.0989 32.3113 50.1145C32.2957 50.1457 32.2957 50.177 32.2801 50.1926C32.2644 50.2238 32.2644 50.2394 32.2488 50.255C32.2332 50.2863 32.2176 50.3175 32.2176 50.3331C32.202 50.3644 32.1864 50.38 32.1864 50.3956C32.1707 50.4268 32.1551 50.4581 32.1239 50.4737C32.1239 50.4737 32.1239 50.4893 32.1083 50.4893C32.1083 50.5049 32.0927 50.5205 32.077 50.5205C32.0458 50.5518 32.0146 50.583 31.9833 50.6142C31.9833 50.6142 31.9677 50.6299 31.9521 50.6455L31.9365 50.6611C31.9209 50.6767 31.9052 50.6923 31.8896 50.7079L31.7178 50.5518L31.8584 50.7392C31.8428 50.7548 31.8272 50.7704 31.8115 50.7704C31.7959 50.786 31.7647 50.8016 31.7491 50.8173L31.7178 50.8329C31.7022 50.8485 31.6866 50.8485 31.671 50.8641L31.6398 50.8797L17.647 59.0005C17.5846 59.0317 17.5221 59.0786 17.444 59.1098L17.3816 59.1411C17.3347 59.1567 17.2722 59.1879 17.2098 59.2035L17.1785 59.2191C17.1785 59.2191 17.1629 59.2191 17.1473 59.2191C17.1161 59.2348 17.0848 59.2347 17.0692 59.2504L17.0224 59.0317L17.0848 59.2504L17.0224 59.266C16.9911 59.2816 16.9443 59.2816 16.9131 59.2972L16.8506 59.3128C16.7569 59.3284 16.6788 59.3441 16.6007 59.3441C16.5695 59.3441 16.5539 59.3441 16.5383 59.3441C16.4758 59.3441 16.4289 59.3597 16.3821 59.3597H16.3508H16.3196C16.2728 59.3597 16.2571 59.3597 16.2259 59.3597ZM0.484115 47.2722L0.468498 49.8959C0.468498 50.0989 0.624667 50.3175 0.921387 50.4737L14.9922 58.5945C15.039 58.6101 15.0703 58.6413 15.1171 58.6569L15.1327 58.6725L15.1484 58.6882L15.164 58.7038C15.1796 58.7194 15.1952 58.7194 15.2264 58.735C15.2889 58.7662 15.3514 58.7819 15.4295 58.7975H15.4451L15.4763 58.8131C15.5075 58.8287 15.5544 58.8287 15.5856 58.8443H15.6169H15.6637C15.6949 58.8443 15.7262 58.8599 15.7574 58.8599H15.773H15.8043C15.8043 58.8599 15.8199 58.8599 15.8355 58.8599C15.8667 58.8599 15.898 58.8599 15.9292 58.8756H15.9604H15.9917C15.9917 58.8756 16.0073 58.8756 16.0229 58.8756C16.0541 58.8756 16.0854 58.8756 16.1166 58.8756H16.1478L16.1634 59.1098L16.1791 58.8756H16.2103C16.2415 58.8756 16.2728 58.8756 16.304 58.8756H16.3352L16.3665 59.1098V58.8756H16.3977C16.4446 58.8756 16.4758 58.8756 16.5226 58.8599H16.5539H16.5851C16.6632 58.8599 16.7257 58.8443 16.7881 58.8287L16.8506 58.8131C16.8818 58.8131 16.9131 58.7975 16.9443 58.7975L16.9911 58.7819L17.0224 58.7662C17.038 58.7662 17.0692 58.7506 17.0848 58.7506L17.1317 58.735C17.1785 58.7194 17.2254 58.7038 17.2722 58.6882L17.3191 58.6725C17.3659 58.6413 17.4284 58.6257 17.4753 58.5945L31.5304 50.4268C31.5617 50.4112 31.5773 50.3956 31.5929 50.3956L31.6241 50.38L31.6398 50.3644C31.6554 50.3488 31.671 50.3331 31.6866 50.3175C31.6866 50.3175 31.7022 50.3019 31.7178 50.2863C31.7335 50.2707 31.7647 50.2394 31.7803 50.2238L31.7959 50.2082V50.1926C31.8115 50.177 31.8272 50.1614 31.8272 50.1457L31.8428 50.1301V50.1145C31.8428 50.0989 31.8584 50.0833 31.8584 50.0833C31.8584 50.0833 31.874 50.0676 31.874 50.052C31.874 50.052 31.874 50.052 31.874 50.0364C31.874 50.0208 31.874 50.0208 31.8896 50.0052L31.9052 49.9739V49.9583C31.9052 49.9583 31.9052 49.9427 31.9052 49.9271V49.8802L31.9209 47.3347C31.9209 47.3191 31.9209 47.2878 31.9209 47.2722C31.9365 47.0536 31.7803 46.8193 31.4836 46.6476L17.4128 38.5268C16.7413 38.1364 15.6169 38.1364 14.9453 38.5268L0.952621 46.6476C0.640283 46.8506 0.484115 47.0536 0.484115 47.2722C0.484115 47.2566 0.484115 47.2566 0.484115 47.2722Z" fill="#444444"/>
<path d="M20.1614 42.2905L20.1458 46.7413L16.1947 49.037L16.2103 44.5861L20.1614 42.2905Z" fill="#FDA80E"/>
<path d="M16.2103 44.5861L16.1947 49.037L12.2124 46.7413L12.228 42.2905L16.2103 44.5861Z" fill="#FDC800"/>
<path d="M20.1614 42.2905L16.2103 44.5862L12.228 42.2905L16.1791 39.9948L20.1614 42.2905Z" fill="#FDF21C"/>
<path d="M16.1947 49.2712C16.1478 49.2712 16.1166 49.2556 16.0698 49.24L12.0875 46.9443C12.0094 46.8975 11.9625 46.8194 11.9625 46.7413L11.9781 42.2905C11.9781 42.2124 12.025 42.1343 12.0875 42.0875L16.0385 39.7918C16.1166 39.7449 16.1947 39.7449 16.2728 39.7918L20.2551 42.0875C20.3332 42.1343 20.38 42.2124 20.38 42.2905L20.3644 46.7413C20.3644 46.8194 20.3175 46.8975 20.2551 46.9443L16.304 49.24C16.2728 49.2556 16.2259 49.2712 16.1947 49.2712ZM12.4466 46.6007L16.1947 48.7559L19.9115 46.6007L19.9271 42.431L16.1791 40.2759L12.4623 42.431L12.4466 46.6007Z" fill="#444444"/>
<path d="M9.94794 4.37274L9.93232 7.98024L6.73087 9.83864V6.24677L9.94794 4.37274Z" fill="url(#paint3_linear_110_3838)"/>
<path d="M6.73086 6.24677V9.83864L3.49817 7.98024L3.51379 4.37274L6.73086 6.24677Z" fill="url(#paint4_linear_110_3838)"/>
<path d="M9.94794 4.37275L6.73087 6.24677L3.51379 4.37275L6.71525 2.51434L9.94794 4.37275Z" fill="white"/>
<path d="M6.73086 10.0729C6.68401 10.0729 6.65278 10.0573 6.60593 10.0417L3.38885 8.18326C3.31077 8.13641 3.26392 8.05833 3.26392 7.98024L3.27953 4.37275C3.27953 4.29466 3.32638 4.21658 3.38885 4.16973L6.59031 2.31132C6.66839 2.26447 6.74648 2.26447 6.82456 2.31132L10.0573 4.16973C10.1353 4.21658 10.1822 4.29466 10.1822 4.37275L10.1666 7.98024C10.1666 8.05833 10.1197 8.13641 10.0573 8.18326L6.84018 10.0417C6.80894 10.0729 6.76209 10.0729 6.73086 10.0729ZM3.73242 7.85531L6.71524 9.58878L9.68245 7.85531L9.69806 4.52892L6.71524 2.79544L3.74804 4.5133L3.73242 7.85531Z" fill="#444444"/>
<path d="M3.49818 8.21446C3.4201 8.21446 3.32639 8.16761 3.29516 8.08952C3.23269 7.9802 3.27954 7.83965 3.38886 7.77719L6.44977 6.13741C6.63717 6.04371 6.85581 6.04371 7.02759 6.13741L10.0416 7.77719C10.151 7.83965 10.1978 7.9802 10.1353 8.08952C10.0729 8.19884 9.93233 8.24569 9.82301 8.18322L6.80896 6.54345C6.7621 6.51222 6.71525 6.51222 6.6684 6.54345L3.6075 8.18322C3.57626 8.21446 3.54503 8.21446 3.49818 8.21446Z" fill="#444444"/>
<path d="M6.73086 10.0729C6.65278 10.0729 6.57469 10.026 6.52784 9.96355L3.31077 4.49765C3.2483 4.38833 3.27953 4.24778 3.38885 4.1697C3.49817 4.10723 3.63872 4.13846 3.71681 4.24778L6.73086 9.37011L9.74492 4.24778C9.80739 4.13846 9.94794 4.09161 10.0729 4.1697C10.1822 4.23216 10.229 4.37271 10.151 4.49765L6.93388 9.96355C6.88703 10.0416 6.80895 10.0729 6.73086 10.0729Z" fill="#444444"/>
<path d="M20.1614 36.7152L20.1458 41.166L16.1947 43.4617L16.2103 39.0109L20.1614 36.7152Z" fill="#FDA80E"/>
<path d="M16.2103 39.0109L16.1947 43.4617L12.2124 41.166L12.228 36.7152L16.2103 39.0109Z" fill="#FDC800"/>
<path d="M20.1614 36.7152L16.2103 39.0109L12.228 36.7152L16.1791 34.4196L20.1614 36.7152Z" fill="#FDF21C"/>
<path d="M16.1947 43.696C16.1478 43.696 16.1166 43.6804 16.0698 43.6647L12.0875 41.3691C12.0094 41.3222 11.9625 41.2441 11.9625 41.166L11.9781 36.7152C11.9781 36.6371 12.025 36.5591 12.0875 36.5122L16.0385 34.2165C16.1166 34.1697 16.1947 34.1697 16.2728 34.2165L20.2551 36.5122C20.3332 36.5591 20.38 36.6371 20.38 36.7152L20.3644 41.166C20.3644 41.2441 20.3175 41.3222 20.2551 41.3691L16.304 43.6647C16.2728 43.696 16.2259 43.696 16.1947 43.696ZM12.4466 41.0255L16.1947 43.1806L19.9115 41.0255L19.9271 36.8558L16.1791 34.7007L12.4623 36.8558L12.4466 41.0255Z" fill="#444444"/>
<path d="M20.1614 31.2806L20.1458 35.7314L16.1947 38.0271L16.2103 33.5763L20.1614 31.2806Z" fill="#FDA80E"/>
<path d="M16.2103 33.5763L16.1947 38.0271L12.2124 35.7314L12.228 31.2806L16.2103 33.5763Z" fill="#FDC800"/>
<path d="M20.1614 31.2806L16.2103 33.5763L12.228 31.2806L16.1791 28.9849L20.1614 31.2806Z" fill="#FDF21C"/>
<path d="M16.1947 38.2613C16.1478 38.2613 16.1166 38.2457 16.0698 38.2301L12.0875 35.9344C12.0094 35.8876 11.9625 35.8095 11.9625 35.7314L11.9781 31.2806C11.9781 31.2025 12.025 31.1244 12.0875 31.0776L16.0385 28.7819C16.1166 28.7351 16.1947 28.7351 16.2728 28.7819L20.2551 31.0776C20.3332 31.1244 20.38 31.2025 20.38 31.2806L20.3644 35.7314C20.3644 35.8095 20.3175 35.8876 20.2551 35.9344L16.304 38.2301C16.2728 38.2457 16.2259 38.2613 16.1947 38.2613ZM12.4466 35.5909L16.1947 37.746L19.9115 35.5909L19.9271 31.4212L16.1791 29.266L12.4623 31.4212L12.4466 35.5909Z" fill="#444444"/>
<path d="M20.1614 25.8459L20.1458 30.2967L16.1947 32.5924L16.2103 28.1416L20.1614 25.8459Z" fill="#FDA80E"/>
<path d="M16.2103 28.1416L16.1947 32.5924L12.2124 30.2967L12.228 25.8459L16.2103 28.1416Z" fill="#FDC800"/>
<path d="M20.1614 25.8459L16.2103 28.1416L12.228 25.8459L16.1791 23.5502L20.1614 25.8459Z" fill="#FDF21C"/>
<path d="M16.1947 32.8266C16.1478 32.8266 16.1166 32.811 16.0698 32.7954L12.0875 30.4997C12.0094 30.4529 11.9625 30.3748 11.9625 30.2967L11.9781 25.8459C11.9781 25.7678 12.025 25.6897 12.0875 25.6429L16.0385 23.3472C16.1166 23.3004 16.1947 23.3004 16.2728 23.3472L20.2551 25.6429C20.3332 25.6897 20.38 25.7678 20.38 25.8459L20.3644 30.2967C20.3644 30.3748 20.3175 30.4529 20.2551 30.4997L16.304 32.7954C16.2728 32.811 16.2259 32.8266 16.1947 32.8266ZM12.4466 30.1562L16.1947 32.3113L19.9115 30.1562L19.9271 25.9865L16.1791 23.8313L12.4623 25.9865L12.4466 30.1562Z" fill="#444444"/>
<path d="M20.1614 20.4112L20.1458 24.862L16.1947 27.1577L16.2103 22.7069L20.1614 20.4112Z" fill="#FDA80E"/>
<path d="M16.2103 22.7069L16.1947 27.1577L12.2124 24.862L12.228 20.4112L16.2103 22.7069Z" fill="#FDC800"/>
<path d="M20.1614 20.4112L16.2103 22.7069L12.228 20.4112L16.1791 18.1155L20.1614 20.4112Z" fill="#FDF21C"/>
<path d="M16.1947 27.392C16.1478 27.392 16.1166 27.3763 16.0698 27.3607L12.0875 25.065C12.0094 25.0182 11.9625 24.9401 11.9625 24.862L11.9781 20.4112C11.9781 20.3331 12.025 20.255 12.0875 20.2082L16.0385 17.9125C16.1166 17.8657 16.1947 17.8657 16.2728 17.9125L20.2551 20.2082C20.3332 20.255 20.38 20.3331 20.38 20.4112L20.3644 24.862C20.3644 24.9401 20.3175 25.0182 20.2551 25.065L16.304 27.3607C16.2728 27.3763 16.2259 27.392 16.1947 27.392ZM12.4466 24.7215L16.1947 26.8766L19.9115 24.7215L19.9271 20.5518L16.1791 18.3966L12.4623 20.5518L12.4466 24.7215Z" fill="#444444"/>
<path d="M15.3358 11.291L7.26184 6.59033V9.12026L15.3358 13.8209V11.291Z" fill="#FDC800"/>
<path d="M9.47944 5.30975L7.26184 6.59034L15.3358 11.291L17.5377 10.0104L9.47944 5.30975Z" fill="#FDF21C"/>
<path d="M17.5377 10.0104L17.5534 12.556L15.3358 13.821V11.291L17.5377 10.0104Z" fill="#47836F"/>
<path d="M15.3358 14.0552C15.2889 14.0552 15.2577 14.0396 15.2108 14.024L7.15252 9.32328C7.07444 9.29204 7.02759 9.21396 7.02759 9.12026V6.57471C7.02759 6.49663 7.07444 6.41854 7.15252 6.37169L9.37012 5.09111C9.4482 5.04426 9.52629 5.04426 9.60437 5.09111L17.6783 9.79178C17.7564 9.83863 17.7876 9.91672 17.7876 9.9948V12.5404C17.7876 12.6184 17.7408 12.6965 17.6627 12.7434L15.4607 14.024C15.4138 14.0552 15.3826 14.0552 15.3358 14.0552ZM7.49609 8.99532L15.3358 13.5554L17.3035 12.4154V10.151L9.46382 5.57523L7.49609 6.71526V8.99532Z" fill="#444444"/>
<path d="M20.1614 14.9766L20.1458 19.4118L16.1947 21.7074L16.2103 17.2722L20.1614 14.9766Z" fill="#FDA80E"/>
<path d="M16.2103 17.2722L16.1947 21.7074L12.2124 19.4118L12.228 14.9766L16.2103 17.2722Z" fill="#FDC800"/>
<path d="M20.1614 14.9766L16.2103 17.2723L12.228 14.9766L16.1791 12.6653L20.1614 14.9766Z" fill="#FDF21C"/>
<path d="M16.1947 21.9417C16.1478 21.9417 16.1166 21.9261 16.0698 21.9105L12.0875 19.6148C12.0094 19.5679 11.9625 19.4899 11.9625 19.4118L11.9781 14.961C11.9781 14.8829 12.025 14.8048 12.0875 14.7579L16.0385 12.4623C16.1166 12.4154 16.1947 12.4154 16.2728 12.4623L20.2551 14.7579C20.3332 14.8048 20.38 14.8829 20.38 14.961L20.3644 19.4118C20.3644 19.4899 20.3175 19.5679 20.2551 19.6148L16.304 21.9105C16.2728 21.9417 16.2259 21.9417 16.1947 21.9417ZM12.4466 19.2868L16.1947 21.442L19.9115 19.2868L19.9271 15.1171L16.1791 12.962L12.4623 15.1015L12.4466 19.2868Z" fill="#444444"/>
<path d="M20.1614 9.52625L20.1457 13.9771L16.1947 16.2727L16.2103 11.8375L20.1614 9.52625Z" fill="#FDA80E"/>
<path d="M16.2103 11.8375L16.1947 16.2727L12.2124 13.9771L12.228 9.52625L16.2103 11.8375Z" fill="#FDC800"/>
<path d="M20.1614 9.52627L16.2103 11.8376L12.228 9.52627L16.1791 7.23059L20.1614 9.52627Z" fill="#FDF21C"/>
<path d="M16.1947 16.507C16.1478 16.507 16.1166 16.4914 16.0697 16.4758L12.1031 14.1801C12.025 14.1332 11.9781 14.0552 11.9781 13.9771L11.9937 9.52627C11.9937 9.44818 12.0406 9.3701 12.1031 9.32325L16.0541 7.02757C16.1322 6.98072 16.2103 6.98072 16.2884 7.02757L20.2707 9.32325C20.3488 9.3701 20.3956 9.44818 20.3956 9.52627L20.38 13.9771C20.38 14.0552 20.3331 14.1332 20.2707 14.1801L16.3196 16.4758C16.2728 16.507 16.2259 16.507 16.1947 16.507ZM12.4466 13.8365L16.1947 15.9917L19.9115 13.8365L19.9271 9.66682L16.1791 7.51169L12.4622 9.66682L12.4466 13.8365Z" fill="#444444"/>
<path d="M16.2103 1.24933L13.5242 7.82403L16.2103 9.3701L18.8964 7.82403L16.2103 1.24933Z" fill="white"/>
<path d="M16.2103 1.24933V9.3701L18.8964 7.82403L16.2103 1.24933Z" fill="url(#paint5_linear_110_3838)"/>
<path d="M16.2103 9.61997C16.1634 9.61997 16.1322 9.60435 16.0854 9.58873L13.3836 8.02705C13.2743 7.96458 13.2431 7.83965 13.2899 7.73033L15.976 1.15563C16.0073 1.06193 16.101 1.01508 16.1947 1.01508C16.2884 1.01508 16.3821 1.07754 16.4133 1.15563L19.0994 7.73033C19.1463 7.83965 19.0994 7.96458 19.0057 8.02705L16.3352 9.58873C16.2884 9.60435 16.2571 9.61997 16.2103 9.61997ZM13.8209 7.71471L16.2259 9.10461L18.6153 7.71471L16.2259 1.85839L13.8209 7.71471Z" fill="#444444"/>
<path d="M45.7262 28.9068L16.9755 12.1968L16.9911 14.7423L45.7418 31.4524L45.7262 28.9068Z" fill="#FDC800"/>
<path d="M45.7262 28.9068L16.9755 12.1968L19.1931 10.9162L47.9438 27.6262L45.7262 28.9068Z" fill="#FDF21C"/>
<path d="M47.9438 27.6262V30.1718L45.7418 31.4524L45.7262 28.9068L47.9438 27.6262Z" fill="#FDA80E"/>
<path d="M45.7418 31.6866C45.695 31.6866 45.6637 31.671 45.6169 31.6554L16.8662 14.9453C16.7881 14.8985 16.7569 14.8204 16.7569 14.7423V12.1968C16.7569 12.1187 16.8037 12.0406 16.8818 11.9938L19.0994 10.7132C19.1775 10.6663 19.2556 10.6663 19.3337 10.7132L48.0843 27.4232C48.1624 27.4701 48.1937 27.5482 48.1937 27.6262V30.1718C48.1937 30.2499 48.1468 30.328 48.0687 30.3748L45.8511 31.6554C45.8199 31.671 45.7887 31.6866 45.7418 31.6866ZM17.2254 14.6018L45.7418 31.1713L47.7095 30.0312V27.7668L19.1931 11.1973L17.2098 12.3373L17.2254 14.6018Z" fill="#444444"/>
<path d="M45.7418 42.0094C45.6169 42.0094 45.5076 41.9001 45.5076 41.7751V31.4524C45.5076 31.4055 45.5232 31.3743 45.5388 31.3275L47.7408 27.5169C47.8033 27.4076 47.9438 27.3608 48.0687 27.4232C48.1781 27.4857 48.2249 27.6263 48.1624 27.7512L45.9917 31.5149V41.7751C45.9761 41.9001 45.8668 42.0094 45.7418 42.0094Z" fill="#444444"/>
<path d="M47.9438 30.4061C47.897 30.4061 47.8657 30.3905 47.8345 30.3749L45.7262 29.1724C45.6169 29.1099 45.5701 28.9693 45.6325 28.8444C45.695 28.7351 45.8356 28.6882 45.9449 28.7507L48.0531 29.9532C48.1625 30.0157 48.2093 30.1562 48.1468 30.2811C48.1156 30.3592 48.0375 30.4061 47.9438 30.4061Z" fill="#444444"/>
<path d="M43.6023 30.406C43.4774 30.406 43.368 30.2967 43.368 30.1718V27.6262C43.368 27.5481 43.4149 27.47 43.493 27.4232L45.57 26.2207C45.6793 26.1582 45.8199 26.1895 45.898 26.3144C45.9604 26.4237 45.9292 26.5643 45.8043 26.6423L43.8365 27.7824V30.1874C43.8365 30.2967 43.7272 30.406 43.6023 30.406Z" fill="#444444"/>
<path d="M41.2129 29.0005C41.088 29.0005 40.9786 28.8912 40.9786 28.7662V26.2207C40.9786 26.1426 41.0255 26.0645 41.1036 26.0177L43.1806 24.8152C43.2899 24.7527 43.4305 24.7839 43.5086 24.9089C43.571 25.0182 43.5398 25.1587 43.4149 25.2368L41.4471 26.3769V28.7819C41.4628 28.8912 41.3534 29.0005 41.2129 29.0005Z" fill="#444444"/>
<path d="M38.8391 27.595C38.7142 27.595 38.6049 27.4857 38.6049 27.3607V24.8152C38.6049 24.7371 38.6517 24.659 38.7298 24.6122L40.8068 23.4097C40.9162 23.3472 41.0567 23.3784 41.1348 23.5034C41.1973 23.6127 41.166 23.7532 41.0411 23.8313L39.0734 24.9713V27.3763C39.0734 27.4857 38.9797 27.595 38.8391 27.595Z" fill="#444444"/>
<path d="M36.4654 26.1895C36.3405 26.1895 36.2311 26.0801 36.2311 25.9552V23.4097C36.2311 23.3316 36.278 23.2535 36.3561 23.2066L38.4331 22.0041C38.5424 21.9417 38.683 21.9729 38.7611 22.0978C38.8235 22.2072 38.7923 22.3477 38.6674 22.4258L36.6996 23.5658V25.9708C36.6996 26.0801 36.5903 26.1895 36.4654 26.1895Z" fill="#444444"/>
<path d="M34.0916 24.7839C33.9667 24.7839 33.8574 24.6746 33.8574 24.5497V22.0041C33.8574 21.926 33.9042 21.848 33.9823 21.8011L36.0593 20.5986C36.1687 20.5361 36.3092 20.5674 36.3873 20.6923C36.4498 20.8016 36.4185 20.9422 36.2936 21.0203L34.3259 22.1603V24.5653C34.3259 24.6746 34.2165 24.7839 34.0916 24.7839Z" fill="#444444"/>
<path d="M31.7178 23.3784C31.5929 23.3784 31.4836 23.2691 31.4836 23.1442V20.5986C31.4836 20.5205 31.5304 20.4424 31.6085 20.3956L33.6856 19.1931C33.7949 19.1306 33.9354 19.1619 34.0135 19.2868C34.076 19.3961 34.0447 19.5367 33.9198 19.6148L31.9521 20.7548V23.1598C31.9521 23.2691 31.8428 23.3784 31.7178 23.3784Z" fill="#444444"/>
<path d="M29.3441 21.9729C29.2192 21.9729 29.1098 21.8636 29.1098 21.7386V19.1931C29.1098 19.115 29.1567 19.0369 29.2348 18.9901L31.3118 17.7876C31.4211 17.7251 31.5617 17.7563 31.6398 17.8813C31.7022 17.9906 31.671 18.1312 31.5461 18.2092L29.5783 19.3493V21.7543C29.5783 21.8636 29.469 21.9729 29.3441 21.9729Z" fill="#444444"/>
<path d="M26.9235 20.7392C26.7985 20.7392 26.6892 20.6299 26.6892 20.5049V17.9594C26.6892 17.8813 26.7361 17.8032 26.8141 17.7564L28.8912 16.5539C29.0005 16.4914 29.1411 16.5226 29.2191 16.6476C29.2816 16.7569 29.2504 16.8974 29.1254 16.9755L27.1577 18.1156V20.5206C27.1577 20.6299 27.0484 20.7392 26.9235 20.7392Z" fill="#444444"/>
<path d="M24.5029 19.3024C24.3779 19.3024 24.2686 19.1931 24.2686 19.0682V16.5226C24.2686 16.4445 24.3155 16.3665 24.3936 16.3196L26.4706 15.1171C26.5799 15.0546 26.7205 15.0859 26.7986 15.2108C26.861 15.3201 26.8298 15.4607 26.7048 15.5388L24.7371 16.6788V19.0838C24.7371 19.1931 24.6278 19.3024 24.5029 19.3024Z" fill="#444444"/>
<path d="M22.0354 17.7563C21.9105 17.7563 21.8011 17.647 21.8011 17.5221V14.9765C21.8011 14.8985 21.848 14.8204 21.9261 14.7735L24.0031 13.571C24.1124 13.5086 24.253 13.5398 24.3311 13.6647C24.3935 13.774 24.3623 13.9146 24.2374 13.9927L22.2697 15.1327V17.5377C22.2697 17.647 22.176 17.7563 22.0354 17.7563Z" fill="#444444"/>
<path d="M19.4898 16.3353C19.3649 16.3353 19.2556 16.2259 19.2556 16.101V13.5555C19.2556 13.4774 19.3024 13.3993 19.3805 13.3524L21.4576 12.1499C21.5669 12.0875 21.7074 12.1187 21.7855 12.2436C21.848 12.353 21.8167 12.4935 21.6918 12.5716L19.7241 13.7116V16.1166C19.7397 16.2416 19.6304 16.3353 19.4898 16.3353C19.5055 16.3353 19.5055 16.3353 19.4898 16.3353Z" fill="#444444"/>
<path d="M9.93231 10.8537C9.80738 10.8537 9.69806 10.7444 9.69806 10.6194V8.0739C9.69806 7.99581 9.74491 7.91773 9.82299 7.87088L11.9 6.66838C12.0094 6.60591 12.1499 6.63715 12.228 6.76208C12.2905 6.8714 12.2592 7.01195 12.1343 7.09004L10.1666 8.23007V10.6351C10.1666 10.7444 10.0729 10.8537 9.93231 10.8537Z" fill="#444444"/>
<path d="M43.3837 26.33C43.3212 26.33 43.2587 26.3144 43.2119 26.2676L16.1947 1.63977L9.63561 6.79334C9.52629 6.88704 9.35451 6.85581 9.2608 6.74649C9.1671 6.63717 9.19834 6.46538 9.30765 6.37168L16.0385 1.09318C16.1322 1.0151 16.2884 1.0151 16.3821 1.1088L43.5554 25.8771C43.6648 25.9709 43.6648 26.1426 43.5711 26.252C43.5242 26.2988 43.4617 26.33 43.3837 26.33Z" fill="white"/>
<path d="M43.3836 26.4706C43.2899 26.4706 43.1806 26.4393 43.1182 26.3612L16.1947 1.82715L9.71368 6.90263C9.54189 7.04318 9.27641 7.01195 9.15147 6.84017C9.01092 6.66838 9.04215 6.41851 9.21394 6.27796L15.9448 0.983841C16.101 0.858906 16.3196 0.874523 16.4602 0.999458L43.6335 25.7678C43.7116 25.8459 43.7585 25.9396 43.7585 26.0489C43.7585 26.1582 43.7272 26.2675 43.6491 26.3456C43.6023 26.4237 43.493 26.4706 43.3836 26.4706ZM16.1947 1.4992C16.2259 1.4992 16.2571 1.51481 16.2884 1.53043L43.3056 26.1582C43.3524 26.2051 43.4305 26.2051 43.4773 26.1426C43.493 26.1114 43.5086 26.0801 43.5086 26.0489C43.5086 26.0177 43.493 25.9864 43.4617 25.9708L16.2884 1.20248C16.2415 1.15563 16.1791 1.15563 16.1322 1.20248L9.40134 6.49659C9.35449 6.54344 9.33888 6.62153 9.38573 6.66838C9.43258 6.71523 9.51066 6.73085 9.55751 6.684L16.1166 1.53043C16.1322 1.4992 16.1634 1.4992 16.1947 1.4992Z" fill="#444444"/>
<path d="M17.2566 1.2962C17.2566 1.87402 16.7881 2.35815 16.1947 2.35815C15.6169 2.35815 15.1328 1.88964 15.1328 1.2962C15.1328 0.718376 15.6013 0.234253 16.1947 0.234253C16.7881 0.234253 17.2566 0.702759 17.2566 1.2962Z" fill="url(#paint6_radial_110_3838)"/>
<path d="M16.2103 2.5924C15.4919 2.5924 14.9141 2.01458 14.9141 1.2962C14.9141 0.577824 15.4919 0 16.2103 0C16.9287 0 17.5065 0.577824 17.5065 1.2962C17.5065 2.01458 16.9131 2.5924 16.2103 2.5924ZM16.2103 0.468506C15.7574 0.468506 15.3826 0.843311 15.3826 1.2962C15.3826 1.74909 15.7574 2.12389 16.2103 2.12389C16.6632 2.12389 17.038 1.74909 17.038 1.2962C17.0224 0.843311 16.6632 0.468506 16.2103 0.468506Z" fill="#444444"/>
<path d="M16.0385 29.5784C16.0385 29.5628 16.0385 29.5471 16.0385 29.5471C16.0385 29.5159 16.0385 29.5003 16.0385 29.4691C16.0385 29.4378 16.0385 29.4066 16.0385 29.3754C16.0385 29.3597 16.0385 29.3285 16.0385 29.3129C16.0385 29.2817 16.0385 29.266 16.0385 29.2348C16.0385 29.2192 16.0385 29.2036 16.0385 29.188C16.0385 29.1411 16.0229 29.1099 16.0229 29.063C16.0229 29.0474 16.0229 29.0162 16.0229 29.0005V28.9849C16.0073 28.9068 16.0073 28.8444 15.9917 28.7663C15.9917 28.7507 15.9917 28.7507 15.9917 28.7351C15.9761 28.6726 15.9761 28.6101 15.9605 28.5633C15.9605 28.5477 15.9605 28.5477 15.9605 28.532C15.9605 28.5008 15.9448 28.4696 15.9448 28.454C15.9448 28.4227 15.9292 28.3915 15.9292 28.3446C15.9292 28.329 15.9136 28.3134 15.9136 28.2822C15.9136 28.2509 15.898 28.2197 15.898 28.1885C15.898 28.1572 15.8824 28.1416 15.8824 28.1104C15.8824 28.0792 15.8668 28.0479 15.8668 28.0323C15.8511 28.0011 15.8511 27.9698 15.8355 27.9386C15.8355 27.923 15.8199 27.9074 15.8199 27.8918C15.8043 27.8449 15.7887 27.8137 15.7887 27.7668C15.7887 27.7356 15.7731 27.72 15.7731 27.6887V27.6731C15.7574 27.595 15.7262 27.5326 15.7106 27.4545V27.4389C15.695 27.3764 15.6637 27.3139 15.6481 27.2515C15.6481 27.2358 15.6481 27.2358 15.6325 27.2202C15.6169 27.189 15.6169 27.1734 15.6013 27.1421C15.5857 27.1109 15.57 27.0797 15.57 27.0328C15.5544 27.0172 15.5544 26.986 15.5388 26.9704C15.5232 26.9391 15.5232 26.9235 15.5076 26.8923C15.492 26.8767 15.492 26.8454 15.4763 26.8298C15.4607 26.7986 15.4451 26.7517 15.4295 26.7205C15.4139 26.7049 15.4139 26.6736 15.3983 26.658C15.3983 26.658 15.3983 26.6424 15.3826 26.6424C15.3514 26.5799 15.3202 26.5019 15.2889 26.4394C15.2889 26.4394 15.2889 26.4394 15.2889 26.4238C15.2733 26.4081 15.2733 26.3925 15.2577 26.3613C15.2265 26.3144 15.2109 26.252 15.1796 26.2051C15.1796 26.1895 15.164 26.1895 15.164 26.1739C15.1484 26.127 15.1172 26.0958 15.1015 26.049C15.0859 26.0177 15.0703 25.9865 15.0547 25.9396C15.0547 25.9396 15.0547 25.924 15.0391 25.924C14.9766 25.8147 14.9141 25.7054 14.8517 25.5961C14.8517 25.5805 14.836 25.5805 14.836 25.5648C14.836 25.5492 14.8204 25.5492 14.8204 25.5336C14.7267 25.3774 14.633 25.2369 14.5393 25.0807C14.5393 25.0651 14.5237 25.0651 14.5237 25.0495C14.5081 25.0339 14.5081 25.0182 14.4925 25.0026C14.3519 24.7996 14.2114 24.6122 14.0708 24.4248C14.0708 24.4248 14.0708 24.4248 14.0552 24.4092C14.0084 24.3467 13.9615 24.2999 13.9147 24.2374C13.899 24.2218 13.899 24.2218 13.899 24.2062C13.8522 24.1437 13.7897 24.0812 13.7429 24.0188C13.7429 24.0188 13.7429 24.0188 13.7273 24.0032C13.7116 23.9875 13.696 23.9719 13.6804 23.9407C13.6492 23.9095 13.6179 23.8626 13.5711 23.8314L13.5555 23.8157C13.5242 23.7845 13.5086 23.7689 13.4774 23.7377C13.4461 23.7064 13.4305 23.6752 13.3993 23.6596C13.3837 23.644 13.3837 23.644 13.3681 23.6283C13.3368 23.5971 13.3212 23.5815 13.29 23.5503C13.2744 23.5346 13.2431 23.5034 13.2275 23.4878C13.2119 23.4722 13.1963 23.4566 13.1807 23.4566C13.1494 23.4253 13.1182 23.4097 13.087 23.3785C13.0713 23.3629 13.0401 23.3472 13.0245 23.316C13.0089 23.3004 12.9933 23.2848 12.9776 23.2692C12.9464 23.2379 12.9152 23.2223 12.8839 23.1911C12.8683 23.1755 12.8527 23.1598 12.8371 23.1442C12.8215 23.1286 12.8059 23.113 12.7746 23.0974C12.7434 23.0661 12.7122 23.0505 12.6965 23.0349C12.6809 23.0193 12.6653 23.0037 12.6497 23.0037C12.6185 22.9881 12.6028 22.9724 12.5716 22.9412C12.5404 22.9256 12.5248 22.8944 12.4935 22.8787C12.4779 22.8631 12.4779 22.8631 12.4623 22.8475C12.4311 22.8163 12.3998 22.8007 12.3686 22.7694C12.353 22.7538 12.3217 22.7382 12.3061 22.7226L12.2905 22.707C12.228 22.6601 12.1656 22.6289 12.1031 22.582C12.1031 22.582 12.0875 22.582 12.0875 22.5664C12.0406 22.5352 11.9782 22.5039 11.9157 22.4727C11.9001 22.4571 11.8845 22.4571 11.8688 22.4415C11.822 22.4102 11.7751 22.3946 11.7283 22.3634C11.7127 22.3478 11.6971 22.3478 11.6814 22.3321C11.6658 22.3165 11.6346 22.3009 11.619 22.3009C11.6034 22.2853 11.5877 22.2853 11.5721 22.2697C11.5409 22.2541 11.5097 22.2384 11.494 22.2228C11.4784 22.2072 11.4472 22.2072 11.4316 22.1916C11.416 22.1916 11.416 22.176 11.4003 22.176C11.3379 22.1447 11.291 22.1291 11.2286 22.0979C11.1661 22.0823 11.1192 22.051 11.0568 22.0354H11.0411C11.0255 22.0354 10.9943 22.0198 10.9787 22.0198C10.9474 22.0042 10.9162 22.0042 10.885 21.9886C10.8694 21.9886 10.8537 21.9886 10.8381 21.973C10.8069 21.973 10.7913 21.9573 10.76 21.9573C10.7444 21.9573 10.7288 21.9417 10.6976 21.9417C10.682 21.9417 10.6507 21.9261 10.6351 21.9261C10.6039 21.9261 10.5883 21.9105 10.557 21.9105C10.5414 21.9105 10.5258 21.9105 10.5102 21.8949C10.4946 21.8949 10.4633 21.8949 10.4477 21.8793C10.4165 21.8793 10.3852 21.8636 10.3696 21.8636C10.354 21.8636 10.354 21.8636 10.3384 21.8636C10.3072 21.8636 10.2915 21.8636 10.2759 21.8636C10.2447 21.8636 10.2135 21.8636 10.1822 21.848C10.1666 21.848 10.1666 21.848 10.151 21.848C10.1354 21.848 10.1041 21.848 10.0885 21.848C10.0573 21.848 10.0104 21.848 9.9792 21.848C9.96359 21.848 9.96359 21.848 9.94797 21.848C9.93235 21.848 9.91673 21.848 9.90112 21.848C9.85427 21.848 9.80742 21.848 9.76057 21.848C9.74495 21.848 9.72933 21.848 9.71372 21.848C9.6981 21.848 9.6981 21.848 9.68248 21.848C9.62001 21.848 9.54193 21.8636 9.47946 21.8793H9.46385C9.44823 21.8793 9.43261 21.8793 9.41699 21.8949C9.37014 21.9105 9.33891 21.9105 9.29206 21.9261C9.27644 21.9261 9.26083 21.9417 9.22959 21.9417C9.19836 21.9573 9.18274 21.9573 9.15151 21.973H9.13589C9.10466 21.9886 9.05781 22.0042 9.02657 22.0198C9.01096 22.0354 8.99534 22.0354 8.97972 22.0354C8.93287 22.0667 8.8704 22.0823 8.82355 22.1135L7.13693 23.0974C7.18378 23.0661 7.24625 23.0349 7.2931 23.0193C7.30872 23.0037 7.32433 23.0037 7.33995 23.0037C7.37119 22.9881 7.41804 22.9724 7.44927 22.9568C7.4805 22.9412 7.51174 22.9412 7.54297 22.9256C7.55859 22.9256 7.5742 22.91 7.60544 22.91C7.65229 22.8944 7.68352 22.8944 7.73037 22.8787C7.74599 22.8787 7.76161 22.8787 7.76161 22.8631H7.77722C7.83969 22.8475 7.90216 22.8475 7.98024 22.8319C7.99586 22.8319 8.02709 22.8319 8.04271 22.8319C8.08956 22.8319 8.13641 22.8319 8.18326 22.8319C8.2145 22.8319 8.23011 22.8319 8.26135 22.8319C8.29258 22.8319 8.33943 22.8319 8.37066 22.8319C8.4019 22.8319 8.43313 22.8319 8.46437 22.8319C8.4956 22.8319 8.52683 22.8319 8.55807 22.8475C8.5893 22.8475 8.62053 22.8475 8.65177 22.8631C8.683 22.8631 8.71424 22.8787 8.72985 22.8787C8.76109 22.8787 8.80794 22.8944 8.83917 22.8944C8.8704 22.8944 8.88602 22.91 8.91725 22.91C8.94849 22.9256 8.99534 22.9256 9.04219 22.9412C9.07342 22.9412 9.08904 22.9568 9.12027 22.9568C9.16713 22.9724 9.21398 22.9881 9.24521 23.0037C9.26083 23.0037 9.29206 23.0193 9.30768 23.0193C9.43261 23.0661 9.55755 23.113 9.6981 23.1755C9.71372 23.1911 9.74495 23.1911 9.76057 23.2067C9.80742 23.2223 9.85427 23.2535 9.90112 23.2692C9.91673 23.2848 9.94797 23.2848 9.96359 23.3004C10.0261 23.3316 10.0885 23.3629 10.151 23.4097C10.2135 23.4566 10.2915 23.4878 10.354 23.5346H10.3696C10.4321 23.5815 10.5102 23.6283 10.5726 23.6596C10.5883 23.6752 10.6195 23.6908 10.6351 23.7064C10.682 23.7377 10.7288 23.7689 10.76 23.8001C10.7913 23.8157 10.8069 23.847 10.8381 23.8626C10.885 23.8938 10.9162 23.9251 10.9631 23.9563C10.9943 23.9719 11.0255 24.0032 11.0411 24.0188C11.0724 24.05 11.1192 24.0812 11.1505 24.1125C11.1817 24.1437 11.2129 24.1593 11.2442 24.1906C11.2754 24.2218 11.3223 24.253 11.3535 24.2843C11.3847 24.3155 11.416 24.3311 11.4316 24.3623C11.4628 24.3936 11.5097 24.4248 11.5409 24.4717C11.5721 24.5029 11.5877 24.5185 11.619 24.5497C11.6502 24.581 11.6971 24.6278 11.7283 24.6591C11.7595 24.6903 11.7751 24.7059 11.8064 24.7371C11.8532 24.784 11.8845 24.8308 11.9313 24.8777C11.9469 24.8933 11.9625 24.9089 11.9782 24.9402C12.0406 25.0026 12.0875 25.0807 12.1499 25.1432C12.1656 25.1588 12.1656 25.1588 12.1812 25.1744C12.228 25.2369 12.2749 25.2994 12.3217 25.3462C12.3842 25.4243 12.4467 25.5024 12.4935 25.5805C12.5716 25.6898 12.6497 25.7991 12.7278 25.924C12.7434 25.9396 12.759 25.9709 12.7746 25.9865C12.8683 26.127 12.962 26.2832 13.0557 26.4394C13.0713 26.455 13.0713 26.4706 13.087 26.5018C13.1494 26.6112 13.2119 26.7205 13.2744 26.8298C13.29 26.8767 13.3212 26.9079 13.3368 26.9547C13.3524 27.0016 13.3837 27.0328 13.3993 27.0797C13.4305 27.1421 13.4618 27.2046 13.493 27.2671C13.5086 27.2827 13.5086 27.2983 13.5242 27.3295C13.5555 27.4076 13.6023 27.4857 13.6335 27.5638C13.6492 27.5794 13.6492 27.6106 13.6648 27.6263C13.696 27.6887 13.7116 27.7512 13.7429 27.798C13.7585 27.8293 13.7585 27.8449 13.7741 27.8761C13.7897 27.9386 13.821 27.9855 13.8366 28.0479C13.8522 28.0792 13.8522 28.0948 13.8678 28.126C13.899 28.2041 13.9147 28.2822 13.9459 28.3446V28.3603C13.9771 28.4383 13.9927 28.5164 14.024 28.6101C14.0396 28.6414 14.0396 28.657 14.0396 28.6882C14.0552 28.7507 14.0708 28.7975 14.0864 28.86C14.1021 28.8912 14.1021 28.9225 14.1177 28.9537C14.1333 29.0005 14.1489 29.063 14.1489 29.1099C14.1489 29.1411 14.1645 29.1723 14.1645 29.2036C14.1801 29.2504 14.1958 29.3129 14.1958 29.3597C14.1958 29.391 14.2114 29.4222 14.2114 29.4378C14.227 29.5003 14.2426 29.5784 14.2426 29.6408C14.2426 29.6565 14.2426 29.6565 14.2426 29.6721C14.2582 29.7502 14.2738 29.8282 14.2738 29.9063C14.2738 29.9219 14.2738 29.9532 14.2738 29.9688C14.2738 30.0313 14.2895 30.0781 14.2895 30.1406C14.2895 30.1718 14.2895 30.1874 14.2895 30.2187C14.2895 30.2655 14.2895 30.328 14.3051 30.3748C14.3051 30.4061 14.3051 30.4217 14.3051 30.4529C14.3051 30.531 14.3051 30.6091 14.3051 30.6872C14.3051 30.7653 14.3051 30.8433 14.3051 30.9214C14.3051 30.937 14.3051 30.9683 14.3051 30.9839C14.3051 31.0307 14.3051 31.0932 14.2895 31.1401C14.2895 31.1713 14.2895 31.2025 14.2738 31.2338C14.2738 31.2806 14.2582 31.3275 14.2582 31.3587C14.2582 31.3899 14.2426 31.4212 14.2426 31.4524C14.2426 31.4836 14.227 31.5305 14.227 31.5617C14.227 31.5929 14.2114 31.6242 14.2114 31.6554C14.2114 31.6866 14.1958 31.7179 14.1958 31.7491C14.1801 31.796 14.1801 31.8272 14.1645 31.8584C14.1489 31.8897 14.1489 31.9209 14.1333 31.9521C14.1177 31.999 14.1021 32.0458 14.0864 32.0927C14.0708 32.1239 14.0708 32.1395 14.0552 32.1708C14.024 32.2489 13.9927 32.3113 13.9615 32.3894C13.9615 32.3894 13.9615 32.405 13.9459 32.405C13.899 32.4987 13.8522 32.5768 13.8053 32.6705C13.8053 32.6705 13.8053 32.6861 13.7897 32.6861C13.7429 32.7486 13.696 32.8111 13.6492 32.8735C13.6335 32.8891 13.6335 32.9048 13.6179 32.9204C13.5711 32.9829 13.5242 33.0297 13.4774 33.0766C13.4774 33.0766 13.4774 33.0765 13.4618 33.0922C13.4149 33.139 13.3524 33.1859 13.29 33.2327C13.2744 33.2483 13.2587 33.2483 13.2431 33.264C13.1807 33.3108 13.1182 33.3577 13.0557 33.3889L14.7423 32.405C14.8048 32.3738 14.8673 32.3269 14.9297 32.2801C14.9454 32.2645 14.961 32.2645 14.9766 32.2489C15.0391 32.202 15.0859 32.1552 15.1484 32.1083C15.1484 32.1083 15.1484 32.1083 15.164 32.0927C15.2109 32.0458 15.2577 31.9834 15.3046 31.9365C15.3202 31.9209 15.3358 31.9053 15.3358 31.8897C15.3826 31.8272 15.4295 31.7647 15.4763 31.7023C15.4763 31.7023 15.4763 31.6866 15.492 31.6866C15.5388 31.6086 15.5857 31.5149 15.6325 31.4212C15.6325 31.4212 15.6325 31.4055 15.6481 31.4055C15.6794 31.3431 15.7106 31.265 15.7418 31.1869V31.1713C15.7418 31.1557 15.7574 31.1401 15.7574 31.1244C15.7731 31.0776 15.7887 31.0307 15.8043 30.9839C15.8043 30.9683 15.8199 30.9527 15.8199 30.9527C15.8199 30.937 15.8355 30.9214 15.8355 30.9058C15.8511 30.8746 15.8511 30.8277 15.8668 30.7965C15.8668 30.7809 15.8824 30.7653 15.8824 30.7496C15.8824 30.734 15.8824 30.7184 15.898 30.7028C15.898 30.6716 15.9136 30.6403 15.9136 30.6091C15.9136 30.5935 15.9136 30.5779 15.9292 30.5622C15.9292 30.5466 15.9292 30.5154 15.9448 30.4998C15.9448 30.4685 15.9605 30.4373 15.9605 30.4061C15.9605 30.3904 15.9605 30.3748 15.9605 30.3592C15.9605 30.328 15.9605 30.3124 15.9761 30.2811C15.9761 30.2499 15.9761 30.2187 15.9917 30.1874C15.9917 30.1718 15.9917 30.1718 15.9917 30.1562C15.9917 30.1093 15.9917 30.0781 15.9917 30.0313C15.9917 30.0156 15.9917 29.9844 15.9917 29.9688V29.9532C15.9917 29.8907 15.9917 29.8126 15.9917 29.7502V29.7345C16.0385 29.7033 16.0385 29.6408 16.0385 29.5784Z" fill="url(#paint7_linear_110_3838)"/>
<path d="M13.133 33.453C14.781 32.4951 14.7748 29.4094 13.1192 26.5608C11.4636 23.7121 8.78552 22.1793 7.13749 23.1372C5.48946 24.095 5.4956 27.1807 7.15121 30.0294C8.80681 32.878 11.4849 34.4108 13.133 33.453Z" fill="white"/>
<path d="M12.0094 33.9823C11.3847 33.9823 10.6976 33.7793 9.99482 33.3732C7.60544 31.9833 5.65333 28.6257 5.66895 25.8615C5.66895 24.4872 6.15307 23.4565 7.012 22.9568C7.012 22.9568 7.012 22.9568 7.02761 22.9568L8.71424 21.9729C8.7767 21.9417 8.82355 21.9105 8.88602 21.8792L8.93287 21.8636C8.99534 21.8324 9.02657 21.8168 9.07342 21.8011C9.12027 21.7855 9.13589 21.7855 9.15151 21.7699L9.24521 21.7387C9.29206 21.7231 9.33891 21.7231 9.37014 21.7074H9.40138C9.417 21.7074 9.417 21.7074 9.43261 21.7074C9.5107 21.6918 9.58878 21.6762 9.65125 21.6762C9.66686 21.6762 9.66686 21.6762 9.68248 21.6762H9.71372C9.77618 21.6762 9.82303 21.6762 9.86988 21.6762C9.90112 21.6762 9.90112 21.6762 9.91673 21.6762H9.94797C9.99482 21.6762 10.0261 21.6762 10.0729 21.6762H10.1354C10.1354 21.6762 10.151 21.6762 10.1666 21.6762C10.1978 21.6762 10.2291 21.6762 10.2603 21.6918H10.2915C10.3072 21.6918 10.3228 21.6918 10.3384 21.6918H10.3696C10.4009 21.6918 10.4165 21.6918 10.4477 21.7074H10.4789L10.557 21.7231H10.5883L10.9318 21.8011C10.9474 21.8011 10.9787 21.8168 11.0099 21.8168L11.1036 21.848H11.1192C11.1817 21.8636 11.2442 21.8948 11.3066 21.9105C11.3691 21.9417 11.4316 21.9573 11.4784 21.9885C11.4784 21.9885 11.494 22.0042 11.5097 22.0042L11.6971 22.0979L11.7127 22.1135L11.8376 22.1759C11.8845 22.2072 11.9313 22.2228 11.9782 22.254L12.025 22.2853C12.0875 22.3165 12.1343 22.3477 12.1968 22.3946C12.1968 22.3946 12.2124 22.3946 12.2124 22.4102C12.2749 22.4571 12.3373 22.4883 12.3998 22.5351L12.4154 22.5508L12.5872 22.6757L12.6028 22.6913L13.0245 23.0349C13.0557 23.0661 13.087 23.0817 13.1182 23.113L13.696 23.6752L13.7116 23.6908L13.8678 23.8626C13.9303 23.9407 13.9927 24.0031 14.0396 24.0656L14.0552 24.0812C14.1177 24.1437 14.1645 24.2061 14.2114 24.2686C14.3675 24.4716 14.5081 24.659 14.6486 24.8777L14.6799 24.9245C14.6799 24.9245 14.6955 24.9401 14.6955 24.9558C14.7892 25.1119 14.8829 25.2525 14.9766 25.4086L14.9922 25.4399L15.0078 25.4711C15.0703 25.5804 15.1328 25.6897 15.1952 25.7991L15.3202 26.0489L15.3358 26.0802C15.367 26.127 15.3826 26.1739 15.3983 26.2207L15.4295 26.2988C15.4607 26.3769 15.492 26.4394 15.5232 26.5174L15.5388 26.5331L15.7731 27.1109L15.7887 27.1421C15.8199 27.2046 15.8355 27.267 15.8511 27.3451V27.3607C15.8824 27.4388 15.898 27.5169 15.9292 27.595V27.6106L16.1479 28.5008C16.1635 28.5632 16.1635 28.6257 16.1791 28.6882V28.7194C16.1947 28.7975 16.1947 28.86 16.2103 28.9381V28.9693L16.2572 29.5783C16.2572 29.6408 16.2572 29.7033 16.2572 29.7814C16.2572 29.8594 16.2572 29.9375 16.2572 30V30.1093C16.2572 30.1406 16.2572 30.1718 16.2572 30.203C16.2572 30.203 16.2572 30.2186 16.2572 30.2343L16.1947 30.6715C16.1791 30.7184 16.1791 30.7652 16.1635 30.7965L16.1479 30.8902C16.1322 30.9526 16.1166 30.9839 16.1166 31.0307L16.101 31.0932L16.0854 31.1244C16.0698 31.1869 16.0542 31.2337 16.0385 31.2806L16.0229 31.343C16.0229 31.343 16.0073 31.3587 16.0073 31.3743C15.9761 31.4524 15.9448 31.5304 15.9136 31.6085L15.898 31.6398C15.8511 31.7335 15.8043 31.8272 15.7418 31.9053L15.7262 31.9365C15.6794 31.999 15.6325 32.0614 15.5857 32.1395L15.5388 32.1864C15.492 32.2488 15.4295 32.3113 15.3826 32.3581C15.3046 32.4362 15.2421 32.4831 15.1796 32.5299L15.1328 32.5612C15.0703 32.608 14.9922 32.6549 14.9297 32.7017L13.2431 33.6856C13.2431 33.6856 13.2275 33.6856 13.2275 33.7012C12.8527 33.873 12.4467 33.9823 12.0094 33.9823ZM7.26187 23.3472C6.54349 23.7689 6.13745 24.659 6.13745 25.8615C6.13745 28.4695 7.96463 31.6554 10.2291 32.9516C11.291 33.5763 12.2905 33.67 13.0245 33.2327C13.0401 33.2327 13.0401 33.2171 13.0557 33.2171L14.6955 32.2644C14.758 32.2332 14.8048 32.1864 14.8673 32.1551L14.9141 32.1239C14.961 32.077 15.0234 32.0458 15.0703 31.999C15.1328 31.9365 15.164 31.8896 15.2109 31.8428L15.2421 31.7959C15.2889 31.7491 15.3202 31.6866 15.367 31.6242L15.3826 31.6085C15.4295 31.5304 15.4763 31.4524 15.5076 31.3743C15.5076 31.3743 15.5076 31.3587 15.5232 31.3587C15.5544 31.2806 15.5857 31.2181 15.6013 31.1556L15.6169 31.14L15.6325 31.0932C15.6481 31.0463 15.6637 31.0151 15.6794 30.9682C15.6794 30.9682 15.6794 30.937 15.695 30.937L15.7106 30.8745C15.7262 30.8433 15.7262 30.7965 15.7418 30.7652V30.734L15.7574 30.6715C15.7574 30.6403 15.7731 30.6091 15.7731 30.5778V30.5466V30.531L15.7887 30.3904V30.3592L15.8043 30.1874L16.0385 30.1718L15.8043 30.1562L15.8199 29.9844C15.8199 29.9063 15.8199 29.8438 15.8199 29.7814C15.8199 29.7033 15.8199 29.6408 15.8199 29.594H16.0542H15.8199L15.7731 29.0318C15.7731 29.0318 15.7731 29.0161 15.7731 29.0005C15.7574 28.9381 15.7574 28.86 15.7418 28.7975L15.9605 28.7194L15.7262 28.7506C15.7106 28.6882 15.7106 28.6413 15.695 28.5789L15.9136 28.5008L15.6794 28.5476L15.5388 27.9698L15.5232 27.923L15.4607 27.7356C15.4295 27.6419 15.4139 27.5638 15.3826 27.5013C15.3514 27.4232 15.3358 27.3607 15.3046 27.2983L15.5076 27.189L15.2889 27.267L15.2733 27.2202L15.2577 27.2046L15.0703 26.7205L15.2733 26.6111L15.0547 26.7048C15.0234 26.6424 14.9922 26.5643 14.961 26.5018L14.9297 26.4394C14.8985 26.3769 14.8829 26.33 14.8517 26.2832L15.0547 26.1582L14.8517 26.2676L14.7423 26.0489C14.6799 25.924 14.6174 25.8147 14.5549 25.7054L14.7423 25.5648L14.5393 25.6897L14.5237 25.6585C14.43 25.518 14.3519 25.3618 14.2582 25.2212L14.2426 25.2056L14.2114 25.1744C14.0708 24.9714 13.9459 24.784 13.8053 24.6122C13.7585 24.5497 13.7116 24.4872 13.6648 24.4404L13.821 24.2686L13.6335 24.4248C13.5867 24.3623 13.5242 24.2998 13.4774 24.2374L12.962 23.6908L12.9464 23.6752L12.759 23.5034C12.7278 23.4721 12.6965 23.4565 12.6809 23.4253L12.2905 23.113L12.2749 23.0973L12.1656 23.0193L12.1499 23.0036L12.1031 22.9724C12.025 22.9256 11.9782 22.8787 11.9157 22.8475C11.8532 22.8006 11.8064 22.7694 11.7439 22.7382L11.6971 22.7225C11.6502 22.6913 11.6034 22.6757 11.5721 22.6445L11.2754 22.4883L11.3535 22.2696L11.2598 22.4883C11.1973 22.4571 11.1505 22.4414 11.1036 22.4258C11.0568 22.4102 10.9943 22.379 10.9474 22.3633L10.7913 22.3165L10.7444 22.3009L10.682 22.2853H10.6507L10.4946 22.254C10.4946 22.254 10.4789 22.254 10.4633 22.254L10.3072 22.2228V21.9885L10.2759 22.2228H10.2135C10.1822 22.2228 10.151 22.2228 10.1354 22.2072H10.1041H10.0417C10.0104 22.2072 9.9792 22.2072 9.94797 22.2072C9.94797 22.2072 9.93235 22.2072 9.91673 22.2072H9.86988C9.82303 22.2072 9.7918 22.2072 9.74495 22.2072H9.71372H9.68248C9.62001 22.2072 9.55755 22.2228 9.5107 22.2384H9.49508L9.46385 22.254C9.43261 22.254 9.40138 22.2696 9.35453 22.2853H9.32329L9.29206 22.3009L9.22959 22.3165C9.18274 22.3321 9.15151 22.3477 9.12027 22.3633C9.12027 22.3633 9.10466 22.379 9.08904 22.379L9.05781 22.3946C9.01096 22.4102 8.96411 22.4414 8.91725 22.4727L7.26187 23.3472C7.26187 23.3472 7.26187 23.3316 7.26187 23.3472Z" fill="#444444"/>
<path d="M10.1353 25.7835C8.93284 25.0807 7.94897 25.6429 7.94897 27.0328C7.94897 28.4227 8.91722 30.1093 10.1197 30.8121C11.3222 31.5149 12.3061 30.9526 12.3061 29.5627C12.3217 28.1728 11.3378 26.4862 10.1353 25.7835Z" fill="url(#paint8_linear_110_3838)"/>
</g>
<defs>
<linearGradient id="paint0_linear_110_3838" x1="34.5945" y1="66.4201" x2="57.5205" y2="66.4201" gradientUnits="userSpaceOnUse">
<stop stop-color="#2BBBE6"/>
<stop offset="0.9944" stop-color="#3281C4"/>
</linearGradient>
<linearGradient id="paint1_linear_110_3838" x1="34.7455" y1="82.9355" x2="57.5205" y2="82.9355" gradientUnits="userSpaceOnUse">
<stop stop-color="#2BBBE6"/>
<stop offset="0.9944" stop-color="#3281C4"/>
</linearGradient>
<linearGradient id="paint2_linear_110_3838" x1="0.234753" y1="53.1933" x2="32.1379" y2="53.1933" gradientUnits="userSpaceOnUse">
<stop stop-color="#EDE0E3"/>
<stop offset="1" stop-color="#DCC2B6"/>
</linearGradient>
<linearGradient id="paint3_linear_110_3838" x1="6.72587" y1="7.11242" x2="9.94019" y2="7.11242" gradientUnits="userSpaceOnUse">
<stop stop-color="#EDE0E3"/>
<stop offset="1" stop-color="#DCC2B6"/>
</linearGradient>
<linearGradient id="paint4_linear_110_3838" x1="3.50081" y1="7.11244" x2="6.73609" y2="7.11244" gradientUnits="userSpaceOnUse">
<stop stop-color="#EDE0E3"/>
<stop offset="1" stop-color="#DCC2B6"/>
</linearGradient>
<linearGradient id="paint5_linear_110_3838" x1="16.2055" y1="5.31084" x2="18.8922" y2="5.31084" gradientUnits="userSpaceOnUse">
<stop stop-color="#EDE0E3"/>
<stop offset="1" stop-color="#DCC2B6"/>
</linearGradient>
<radialGradient id="paint6_radial_110_3838" cx="0" cy="0" r="1" gradientUnits="userSpaceOnUse" gradientTransform="translate(15.8783 0.895815) scale(1.05846)">
<stop stop-color="white"/>
<stop offset="1" stop-color="#FDF21C"/>
</radialGradient>
<linearGradient id="paint7_linear_110_3838" x1="7.13525" y1="27.6684" x2="16.0408" y2="27.6684" gradientUnits="userSpaceOnUse">
<stop stop-color="#EDE0E3"/>
<stop offset="1" stop-color="#DCC2B6"/>
</linearGradient>
<linearGradient id="paint8_linear_110_3838" x1="7.94607" y1="28.2994" x2="12.3155" y2="28.2994" gradientUnits="userSpaceOnUse">
<stop stop-color="#EDE0E3"/>
<stop offset="1" stop-color="#DCC2B6"/>
</linearGradient>
<clipPath id="clip0_110_3838">
<rect width="57.7512" height="90" fill="white"/>
</clipPath>
</defs>
</svg>
