<svg width="90" height="80" viewBox="0 0 90 80" fill="none" xmlns="http://www.w3.org/2000/svg">
<g clip-path="url(#clip0_1962_9725)">
<path d="M43.8859 47.6606C43.2894 47.8387 42.8453 47.849 42.5225 47.849C41.5826 47.849 40.4982 47.2913 40.4982 45.7214C40.4982 44.1515 41.4329 43.5576 42.7239 43.5576C42.9563 43.5576 43.4469 43.5886 43.7903 43.7435L43.7155 44.6473C43.4237 44.4459 43.0777 44.3813 42.8556 44.3813C42.0939 44.3813 41.4665 44.7557 41.4665 45.724C41.4665 46.5373 41.957 47.0305 42.6439 47.0305C42.7704 47.0305 42.8918 47.0073 42.977 46.9582V46.1371H42.427V45.3522H43.8859V47.658V47.6606Z" fill="#231F20"/>
<path d="M45.5384 46.2175L44.2344 43.6328H45.3163L46.0083 45.2957L46.69 43.6328H47.7719L46.4783 46.2175V47.7796H45.5384V46.2175Z" fill="#231F20"/>
<path d="M48.0818 43.6328H50.5658V44.4178H49.0217V45.2724H50.4806V46.0574H49.0217V46.9973H50.6226V47.7822H48.0818V43.6354V43.6328Z" fill="#231F20"/>
<path d="M51.9781 45.7063C51.9781 44.9884 52.2053 44.3817 52.776 44.3817C53.3466 44.3817 53.5738 44.9884 53.5738 45.7063C53.5738 46.4241 53.3466 47.0309 52.776 47.0309C52.2053 47.0309 51.9781 46.3879 51.9781 45.7063ZM51.0098 45.7063C51.0098 47.0257 51.6269 47.852 52.7786 47.852C53.9302 47.852 54.5447 47.0257 54.5447 45.7063C54.5447 44.3868 53.9379 43.5605 52.7786 43.5605C51.6192 43.5605 51.0098 44.3739 51.0098 45.7063Z" fill="#231F20"/>
<path d="M55.0328 43.6328H56.2309L57.4212 46.4499H57.4315L57.416 43.6328H58.2759V47.7796H57.1088L55.8771 44.9445H55.8668L55.8978 47.7796H55.0354V43.6328H55.0328Z" fill="#231F20"/>
<path d="M62.1542 47.6606C61.5577 47.8387 61.1136 47.849 60.7908 47.849C59.851 47.849 58.7665 47.2913 58.7665 45.7214C58.7665 44.1515 59.7012 43.5576 60.9922 43.5576C61.2246 43.5576 61.7152 43.5886 62.0561 43.7435L61.9812 44.6473C61.6894 44.4459 61.346 44.3813 61.1213 44.3813C60.3596 44.3813 59.7322 44.7557 59.7322 45.724C59.7322 46.5373 60.2228 47.0305 60.9096 47.0305C61.0361 47.0305 61.1575 47.0073 61.2427 46.9582V46.1371H60.6927V45.3522H62.1516V47.658L62.1542 47.6606Z" fill="#231F20"/>
<path d="M62.7894 43.6328H63.9849L65.1778 46.4499H65.1881L65.1726 43.6328H66.0299V47.7796H64.8628L63.6311 44.9445H63.6208L63.6518 47.7796H62.7894V43.6328V43.6328Z" fill="#231F20"/>
<path d="M68.6972 46.111H67.8141L68.2686 44.4894H68.2789L68.6972 46.111ZM66.363 47.7816H67.3158L67.5946 46.8959H68.9167L69.18 47.7816H70.2103L68.8521 43.6348H67.7005L66.363 47.7816V47.7816Z" fill="#231F20"/>
<path d="M70.5072 43.6328H71.9868L72.733 46.3879H72.7433L73.5257 43.6328H74.9484V47.7796H74.0292L74.0447 44.5959H74.0344L73.1358 47.7796H72.2708L71.4135 44.5959H71.4032L71.4239 47.7796H70.5046V43.6328H70.5072Z" fill="#231F20"/>
<path d="M63.6698 35.3834H60.5351V32.4502H59.2751V36.3776H63.6698V35.3834Z" fill="#231F20"/>
<path d="M46.3053 36.9865H47.5705V32.3232H46.3053V33.2218H44.9497V34.2159H46.3053V34.8692H44.9497V35.8659H46.3053V36.9865Z" fill="#231F20"/>
<path d="M72.2579 39.6563V37.2524H74.3881V36.2583H69.841V33.6116H74.3881V32.6201H68.5784V37.2524H70.9952V39.6563H67.9664V40.653H75V39.6563H72.2579Z" fill="#231F20"/>
<path d="M65.6761 32.3232H64.4161V36.8471H65.6761V34.7401H66.7813V33.746H65.6761V32.3232Z" fill="#231F20"/>
<path d="M60.6901 37.4023V41.0405H65.6761V37.4023H60.6901V37.4023ZM61.9527 40.0464V38.3964H64.4134V40.0464H61.9527Z" fill="#231F20"/>
<path d="M44.9006 36.8682C43.4985 36.8682 42.3624 37.8984 42.3624 39.1662C42.3624 40.434 43.4985 41.4643 44.9006 41.4643C46.3027 41.4643 47.4388 40.4366 47.4388 39.1662C47.4388 37.8958 46.3027 36.8682 44.9006 36.8682ZM44.9006 40.3979C44.2215 40.3979 43.6715 39.8479 43.6715 39.1662C43.6715 38.4846 44.2215 37.9346 44.9006 37.9346C45.5797 37.9346 46.1271 38.4871 46.1271 39.1662C46.1271 39.8453 45.5771 40.3979 44.9006 40.3979Z" fill="#231F20"/>
<path d="M53.7314 36.8682C52.3319 36.8682 51.1957 37.8984 51.1957 39.1662C51.1957 40.434 52.3319 41.4643 53.7314 41.4643C55.1308 41.4643 56.267 40.4366 56.267 39.1662C56.267 37.8958 55.1308 36.8682 53.7314 36.8682ZM53.7314 40.3979C53.0523 40.3979 52.5049 39.8479 52.5049 39.1662C52.5049 38.4846 53.0548 37.9346 53.7314 37.9346C54.4079 37.9346 54.9578 38.4871 54.9578 39.1662C54.9578 39.8453 54.4079 40.3979 53.7314 40.3979Z" fill="#231F20"/>
<path d="M44.3455 34.5287C44.3455 34.5287 44.6811 33.6457 44.6605 32.5586H40.4982V33.5759H43.1422C43.1422 33.5759 43.2352 35.6029 40.3303 36.0289L40.8338 36.9042C41.7556 36.8268 43.6096 36.3594 44.3455 34.5287V34.5287Z" fill="#231F20"/>
<path d="M53.9095 36.6436L54.4234 35.7941C52.4506 35.1382 52.461 33.1577 52.461 32.9486V32.4941H50.9117V32.9589C50.9117 33.1422 50.9866 35.2776 48.9752 36.0368L49.5174 36.8527C49.5174 36.8527 50.9221 36.4525 51.7302 35.0607C52.4326 36.2924 53.9121 36.6461 53.9121 36.6461L53.9095 36.6436Z" fill="#231F20"/>
<path d="M56.4399 32.3232H55.1773V36.9839H56.4399V34.7401H57.5425V33.746H56.4399V32.3232Z" fill="#231F20"/>
<path d="M25.7363 29C22.0362 28.9302 18.7466 30.7764 16.8126 33.6271C16.8488 33.6684 16.8798 33.7071 16.9082 33.7433C16.9288 33.7665 16.9469 33.7923 16.965 33.8104C16.9753 33.8104 16.9856 33.813 16.9934 33.8156C17.1302 33.8414 17.3368 33.8775 17.515 34.0376C17.626 34.1383 17.6983 34.2519 17.7551 34.3397C17.7783 34.3784 17.8145 34.4301 17.83 34.4456C17.861 34.474 17.9074 34.5101 17.9565 34.5489C18.0365 34.6083 18.1269 34.678 18.2147 34.7683C18.2896 34.8432 18.3567 34.9181 18.4213 34.993C18.4652 35.0472 18.5091 35.0963 18.5529 35.1427C18.5865 35.1789 18.633 35.2202 18.6821 35.2641C18.7544 35.3287 18.837 35.4035 18.9144 35.4939C19.0151 35.6075 19.0745 35.7263 19.1184 35.8218C19.1365 35.858 19.1649 35.9096 19.1752 35.9277C19.2475 36.0103 19.3147 36.0981 19.3792 36.1807L19.4825 36.3098C19.5006 36.3331 19.5445 36.3692 19.5858 36.4028C19.6632 36.4699 19.7614 36.5526 19.8466 36.6662C19.9111 36.7514 19.9654 36.834 20.017 36.9141C20.0557 36.9734 20.0919 37.0277 20.1254 37.0767C20.2081 37.1903 20.2571 37.304 20.301 37.3995C20.3243 37.4511 20.3449 37.5028 20.3656 37.5286C20.3837 37.5544 20.4224 37.5931 20.4637 37.6345C20.5308 37.7042 20.616 37.7894 20.6883 37.9004C20.7658 38.0166 20.8123 38.1354 20.8484 38.2283C20.8613 38.2645 20.8768 38.3032 20.8897 38.3316C20.9027 38.342 20.9207 38.3523 20.9362 38.3626C21.0318 38.4272 21.1789 38.5253 21.2822 38.6931C21.339 38.7861 21.3778 38.8816 21.4087 38.9617L21.6101 39.0985C21.9381 39.3206 22.0775 39.2044 21.9174 38.8429L20.0635 34.6186C19.906 34.2545 19.9705 34.2184 20.2081 34.5334L22.9709 38.1896C23.211 38.5046 23.3763 38.4427 23.3427 38.0476L22.9554 33.4618C22.9218 33.0667 22.9967 33.0513 23.1232 33.4282L24.4608 37.7584C24.5873 38.1354 24.7525 38.1251 24.83 37.7352L25.5788 33.2707C25.6563 32.8808 25.7337 32.8886 25.7518 33.2836L25.9429 37.8488C25.961 38.2438 26.134 38.2877 26.3328 37.9443L28.6153 33.9937C28.8142 33.6503 28.8839 33.6813 28.7703 34.0608L27.4792 38.422C27.3656 38.8016 27.5205 38.8997 27.8175 38.6389L31.2413 35.6669C31.5383 35.4061 31.5977 35.4603 31.3679 35.7805L29.3977 38.5434C29.4984 38.5408 29.5991 38.5356 29.6766 38.4943C29.8367 38.4091 29.9296 38.1896 30.0949 38.107C30.2601 38.0269 30.477 38.0553 30.6449 37.983C30.8127 37.9082 30.9289 37.7119 31.0967 37.6422C31.2646 37.5751 31.4427 37.526 31.6106 37.464C31.7965 37.3969 31.9695 37.2885 32.1502 37.2291C32.3336 37.1671 32.5298 37.1413 32.7105 37.0845C32.8913 37.0277 33.1108 37.1077 33.2863 37.0561C33.48 37.0018 33.6272 36.7953 33.8131 36.7488C34.0016 36.6997 34.203 36.7281 34.3812 36.6868C34.5748 36.6404 34.771 36.6481 34.9518 36.6094C35.148 36.5681 35.3185 36.4648 35.4966 36.4312C35.5302 36.4235 35.5663 36.4209 35.6025 36.4209C34.2908 32.2017 30.3996 29.0929 25.7363 29Z" fill="#F15A38"/>
<path d="M24.1406 49.3984C24.1406 49.3984 24.1457 49.3777 24.1483 49.3674C24.1406 49.3545 24.1328 49.3364 24.1225 49.3235C24.0734 49.2357 24.0037 49.1118 23.9702 48.9569C23.9572 48.8975 23.9392 48.8303 23.9159 48.758C23.8901 48.678 23.8643 48.5902 23.8411 48.4947C23.8126 48.3707 23.8101 48.2545 23.8049 48.1616C23.8049 48.1048 23.7997 48.0454 23.7946 48.017C23.7713 47.9189 23.7558 47.8259 23.7455 47.7407C23.7352 47.671 23.7274 47.6039 23.7119 47.5496C23.7016 47.5032 23.6758 47.4463 23.6526 47.3844C23.6216 47.3043 23.5828 47.2114 23.5544 47.1055L23.526 47.0048L23.4357 46.6588C23.4202 46.6046 23.3969 46.54 23.3711 46.4755C23.3427 46.4006 23.3117 46.3154 23.2859 46.225C23.2394 46.0649 23.2446 45.9152 23.2498 45.8067C23.2498 45.7732 23.2498 45.737 23.2498 45.7163C23.2291 45.6544 23.2059 45.5872 23.1775 45.5175C23.1491 45.4426 23.1206 45.3678 23.0922 45.2851C23.0845 45.2696 23.0587 45.2335 23.038 45.2051C22.9761 45.1225 22.8934 45.0063 22.8418 44.8565C22.8289 44.8152 22.8005 44.7584 22.7695 44.699C22.7308 44.6215 22.6843 44.5312 22.6481 44.4279C22.6197 44.3478 22.5887 44.2678 22.5552 44.1826L22.4829 43.9941C22.4157 43.8133 22.4286 43.6403 22.4364 43.5293C22.4364 43.5138 22.439 43.4958 22.439 43.4803C22.4209 43.4415 22.3977 43.3976 22.3693 43.3486C22.3279 43.2711 22.2763 43.1807 22.235 43.08C22.2247 43.0516 22.1911 43.0052 22.1601 42.9561C22.1085 42.8786 22.0439 42.7831 21.9923 42.6643C21.951 42.5662 21.9226 42.4732 21.8967 42.3906C21.8761 42.3261 21.858 42.2641 21.8399 42.2202C21.8064 42.1427 21.778 42.0679 21.747 41.9956C21.716 41.9233 21.6902 41.8535 21.6592 41.7916L21.5714 41.6005C21.5327 41.5127 21.4965 41.4301 21.4578 41.3526C21.4449 41.3242 21.4061 41.2752 21.3726 41.2287C21.3158 41.1564 21.2461 41.066 21.1892 40.9524C21.1273 40.8285 21.0963 40.7097 21.0705 40.6141C21.0627 40.5832 21.0524 40.5444 21.0446 40.5212C21.0292 40.5083 21.0111 40.4928 20.9956 40.4799C20.9078 40.4102 20.7864 40.312 20.7012 40.1571C20.616 40.0073 20.5928 39.855 20.5721 39.7466C20.567 39.7182 20.5618 39.6794 20.5566 39.6613C20.4998 39.5632 20.4637 39.4651 20.4327 39.3851C20.4172 39.3438 20.4017 39.3024 20.3862 39.2715C20.3707 39.2611 20.3527 39.2482 20.3372 39.2379C20.239 39.1733 20.1048 39.083 20.0041 38.9255C19.9318 38.8144 19.8879 38.7008 19.8543 38.6104C19.8362 38.564 19.8156 38.5072 19.8001 38.4891C19.7794 38.4581 19.7381 38.4168 19.6968 38.3729C19.6322 38.3058 19.5574 38.2309 19.4902 38.1328C19.4154 38.0217 19.3663 37.9133 19.325 37.8255C19.3043 37.779 19.2785 37.7222 19.2656 37.7015C19.2114 37.6267 19.1623 37.5518 19.121 37.4872C19.0797 37.4227 19.0384 37.3607 18.9996 37.3116C18.9816 37.2858 18.9351 37.2471 18.8886 37.2084C18.8189 37.1464 18.7311 37.0715 18.6511 36.9734L18.5426 36.8365C18.4781 36.7565 18.4187 36.6816 18.3593 36.6093C18.2637 36.4957 18.2069 36.3821 18.163 36.2891C18.145 36.2556 18.1243 36.2091 18.1114 36.1962C18.0701 36.1497 18.0184 36.1032 17.9616 36.0542C17.9022 35.9999 17.8351 35.938 17.768 35.8683C17.7112 35.8063 17.6595 35.7495 17.6105 35.6901C17.5537 35.6255 17.502 35.5636 17.453 35.5145C17.4168 35.4784 17.3626 35.4371 17.3058 35.3932C17.2387 35.3415 17.1638 35.2847 17.0889 35.215C16.983 35.1117 16.9133 35.0033 16.8565 34.9181C16.8462 34.9 16.8333 34.8819 16.8229 34.8638C16.8126 34.8638 16.8023 34.8612 16.7919 34.8587C16.6654 34.8354 16.4744 34.8019 16.3143 34.6624C16.2833 34.6366 16.2549 34.6108 16.2291 34.585C15.4828 35.9948 15.0361 37.6086 15 39.3283C14.8941 44.7403 18.8912 49.2745 24.1302 49.9716C24.1199 49.9355 24.1096 49.8993 24.1044 49.8606C24.0709 49.6721 24.1096 49.5094 24.138 49.3984H24.1406Z" fill="#00AC6C"/>
<path d="M23.2136 42.6824C23.2317 42.7263 23.2601 42.7779 23.291 42.8373C23.3375 42.9225 23.3917 43.018 23.4382 43.1317C23.5079 43.315 23.495 43.488 23.4873 43.6042C23.4873 43.6222 23.4847 43.6455 23.4847 43.661L23.5389 43.8004C23.5725 43.8882 23.6086 43.9786 23.6422 44.0741C23.6577 44.1128 23.6835 44.1671 23.7119 44.2239C23.7532 44.3091 23.8023 44.4046 23.841 44.5182C23.8384 44.5105 23.8359 44.5079 23.8359 44.5079C23.8436 44.5208 23.872 44.5595 23.8901 44.588C23.9546 44.6757 24.0399 44.7945 24.0915 44.952C24.1096 45.0088 24.1354 45.0708 24.1586 45.1379C24.1922 45.2257 24.2283 45.3161 24.2593 45.4168C24.3084 45.5795 24.3032 45.7318 24.3006 45.8454C24.2981 45.8764 24.2981 45.9177 24.2981 45.9384C24.3136 45.9874 24.3342 46.0417 24.3549 46.1011C24.3859 46.1837 24.422 46.2766 24.4504 46.3773L24.5459 46.7362L24.5718 46.8395C24.5821 46.8808 24.6027 46.9351 24.6286 46.9945C24.6621 47.0822 24.7034 47.1804 24.7319 47.2966C24.7577 47.3998 24.7706 47.5005 24.7861 47.5883C24.7964 47.6555 24.8042 47.7226 24.8171 47.7742C24.8455 47.9008 24.8506 48.0195 24.8558 48.1177C24.8558 48.1745 24.861 48.2313 24.8687 48.2648C24.8816 48.3217 24.8997 48.3836 24.9203 48.4482C24.9462 48.5308 24.9746 48.6238 24.9952 48.7245C25.0004 48.7399 25.021 48.7735 25.034 48.7993C25.0856 48.8897 25.1579 49.0162 25.1915 49.1789C25.2302 49.3674 25.1889 49.5352 25.1605 49.6463C25.1553 49.6618 25.1527 49.6798 25.1476 49.6979C25.1579 49.7315 25.1682 49.7728 25.1837 49.8167C25.2095 49.889 25.2328 49.969 25.2534 50.0594C25.2793 50.0594 25.3025 50.062 25.3283 50.062C28.4423 50.1239 31.2671 48.8252 33.2347 46.7156C29.5784 43.9063 25.0908 42.9225 23.1852 42.6152C23.1955 42.6385 23.2058 42.6591 23.2162 42.6824H23.2136Z" fill="#005BAA"/>
<path d="M36.0053 39.7418C36.0208 38.9413 35.9433 38.1615 35.7884 37.4102C35.7238 37.4205 35.6567 37.4308 35.5922 37.4437C35.4114 37.4773 35.2513 37.5935 35.0809 37.6271C34.9053 37.6632 34.7375 37.7174 34.5671 37.7562C34.3812 37.8001 34.1927 37.8052 34.0145 37.8517C33.8338 37.8982 33.6401 37.8827 33.4671 37.9317C33.2915 37.9834 33.1443 38.1202 32.9791 38.1719C32.7958 38.2313 32.6021 38.2442 32.4291 38.3061C32.2509 38.3681 32.0521 38.3604 31.8843 38.4249C31.7164 38.4921 31.577 38.6289 31.4195 38.696C31.2439 38.7709 31.0503 38.7916 30.8902 38.869C30.712 38.9542 30.5803 39.1143 30.4202 39.2021C30.2524 39.2899 30.0871 39.3622 29.9348 39.45C29.7695 39.5455 29.5888 39.6075 29.4416 39.7005C29.2789 39.8038 29.1653 39.9638 29.0259 40.0645C28.8632 40.1807 28.7419 40.3279 28.605 40.4364C28.4475 40.5629 28.2564 40.6223 28.1351 40.7359C28.0111 40.8469 27.8769 40.927 27.7736 41.0096L27.5386 41.3892C27.4896 41.5673 27.4896 41.699 27.4147 41.588L26.906 42.4039C29.0388 43.0572 31.5951 44.1339 33.8673 45.9026C35.1713 44.1881 35.9666 42.0579 36.0105 39.7392L36.0053 39.7418Z" fill="#FAA61A"/>
</g>
<defs>
<clipPath id="clip0_1962_9725">
<rect width="60" height="21.0647" fill="white" transform="translate(15 29)"/>
</clipPath>
</defs>
</svg>
