<svg width="100" height="90" viewBox="0 0 100 90" fill="none" xmlns="http://www.w3.org/2000/svg">
<g clip-path="url(#clip0_1_4079)">
<path d="M16.5695 19.7296H49.1973V16.168H16.5064V16.1602C14.573 16.1602 13 17.7332 13 19.6691H13.0026V26.0242H13C13 27.9629 14.573 29.5306 16.5064 29.5306V29.5201V29.5359H24.9185V53.962C24.9158 55.8954 26.4836 57.4683 28.4222 57.4683V57.4552H38.2836V53.8962H28.4801V25.9769H16.5642V19.7375L16.5695 19.727V19.7296Z" fill="#ED1C24"/>
<path d="M86.9832 36.8115C86.9832 24.7668 77.2191 15 65.1717 15C53.1244 15 43.355 24.7668 43.355 36.8115C43.355 48.8562 53.1217 58.6282 65.1717 58.6282C69.8644 58.6282 74.2099 57.1394 77.7688 54.6168L80.5729 58.1021L83.3585 55.861L80.5124 52.3178C84.508 48.3643 86.9832 42.8799 86.9832 36.8115ZM65.1691 55.0772C55.0814 55.0772 46.9034 46.8992 46.9034 36.8115C46.9034 26.7238 55.0814 18.5511 65.1717 18.5511C75.262 18.5511 83.4348 26.7264 83.4348 36.8141C83.4348 41.7593 81.4619 46.2416 78.266 49.527L76.8192 47.7251L74.031 49.9662L75.5382 51.8444C72.5922 53.8829 69.0253 55.0798 65.1717 55.0798L65.1691 55.0772Z" fill="#2E3192"/>
<path d="M76.133 36.8352C76.133 42.8641 71.2457 47.7541 65.2167 47.7541C59.1878 47.7541 54.2979 42.8641 54.2979 36.8352C54.2979 30.8063 59.1878 25.9189 65.2167 25.9189C71.2457 25.9189 76.133 30.8063 76.133 36.8352Z" fill="url(#paint0_radial_1_4079)"/>
<path d="M32.3387 62.0612H24.4316C24.7473 62.4874 24.9314 63.1897 24.9314 64.0262V72.2252C24.9314 73.0354 24.8472 73.977 24.5342 74.5242H31.7021C36.9156 74.5242 40.6956 71.7964 40.6956 68.0376C40.6956 63.308 35.2295 62.0586 32.3361 62.0586L32.3387 62.0612ZM38.0546 68.3637C38.0546 68.3637 38.0388 68.4663 38.0494 68.4505C37.9836 72.6145 33.4724 73.7166 31.0998 73.7166C29.5557 73.7166 27.6934 73.5772 27.675 73.5772L27.3856 73.5536V63.1423L27.6723 63.1239C27.6907 63.1187 29.5504 62.9845 31.0998 62.9845C34.4614 62.9845 38.0546 64.3918 38.0546 68.3374V68.3637Z" fill="#231F20"/>
<path d="M52.848 63.4033V62.0381H40.2588V63.4033C42.4762 63.1902 45.5328 63.156 45.5328 63.156V69.8873C45.5328 73.341 45.3907 73.7619 45.3513 74.5273H48.1317C48.0869 73.5672 47.9554 73.2621 47.9554 69.8873V63.1665C47.9554 63.1665 50.4017 63.1297 52.848 63.4033Z" fill="#231F20"/>
<path d="M60.6737 73.3933C60.7053 73.438 61.2051 74.6138 62.5887 74.6138C63.6251 74.6138 64.1696 74.2087 64.3379 74.0588V73.8852C64.0696 73.8852 63.7171 73.8431 63.4147 73.6695C63.0595 73.4591 62.8807 73.1224 62.8807 72.6699V67.3354C62.8807 65.6336 61.0578 64.1895 58.9035 64.1895C56.7492 64.1895 55.476 64.8129 53.9214 65.9545C53.9372 65.9703 54.5159 66.57 54.6211 66.6515C54.9947 66.2359 56.4046 65.0785 57.925 65.0785C59.8662 65.0785 60.4949 66.0492 60.4949 66.8462C60.4949 67.4196 59.7163 67.9773 58.5168 68.2719C57.5672 68.5007 53.9451 69.3898 53.3954 71.1601C53.1271 72.0308 53.3007 73.0987 54.0766 73.8037C54.7079 74.3797 55.5681 74.7112 56.4282 74.7112C58.3984 74.7112 60.1713 73.4038 60.2345 73.3512L60.4975 73.1355L60.679 73.3986L60.6737 73.3933ZM60.5028 71.4363C60.5028 72.7778 59.1165 73.4538 57.9539 73.4538C56.1442 73.4538 55.3314 72.6726 55.3314 71.5231C55.3314 70.8786 55.9337 69.7528 57.5961 69.2714C59.177 68.8137 60.0635 68.6191 60.0688 68.6191L60.3686 68.5481L60.5028 68.5218V71.4336V71.4363Z" fill="#231F20"/>
<path d="M74.0153 74.6532H74.0863L75.0859 74.619C78.3055 74.5611 82.1276 74.9162 82.9561 75.0004C83.0087 74.9241 84.1214 73.3538 84.3108 73.0881C83.3402 73.1617 82.096 73.2196 80.5809 73.2538L79.8259 73.2722L80.3915 72.8513C81.9987 71.6571 82.8851 69.9605 82.8851 68.0745C82.8851 64.1999 79.2656 61.4932 74.0784 61.4932C68.8912 61.4932 65.2744 64.1999 65.2744 68.0745C65.2744 71.9491 68.8702 74.64 74.0127 74.6558L74.0153 74.6532ZM74.0811 62.3086C77.7768 62.3086 80.3573 64.6812 80.3573 68.0719C80.3573 71.4625 77.7768 73.8325 74.0811 73.8325C70.3853 73.8325 67.8101 71.4625 67.8101 68.0719C67.8101 64.6812 70.388 62.3086 74.0811 62.3086Z" fill="#231F20"/>
<path d="M72.6211 51.2998C72.6211 52.06 69.3304 52.6729 65.269 52.6729C61.2077 52.6729 57.917 52.0574 57.917 51.2998C57.917 50.5423 61.2077 49.9268 65.269 49.9268C69.3304 49.9268 72.6211 50.5423 72.6211 51.2998Z" fill="url(#paint1_radial_1_4079)"/>
</g>
<defs>
<radialGradient id="paint0_radial_1_4079" cx="0" cy="0" r="1" gradientUnits="userSpaceOnUse" gradientTransform="translate(62.3118 31.5391) scale(14.7563 14.7563)">
<stop stop-color="white"/>
<stop offset="0.51" stop-color="#00AEEF"/>
<stop offset="1" stop-color="#2E3192"/>
</radialGradient>
<radialGradient id="paint1_radial_1_4079" cx="0" cy="0" r="1" gradientUnits="userSpaceOnUse" gradientTransform="translate(65.2901 49.9754) scale(14.7304 2.79877)">
<stop stop-color="#034EA2"/>
<stop offset="0.7" stop-color="white"/>
</radialGradient>
<clipPath id="clip0_1_4079">
<rect width="73.9833" height="60" fill="white" transform="translate(13 15)"/>
</clipPath>
</defs>
</svg>
