<svg width="89" height="80" viewBox="0 0 89 80" fill="none" xmlns="http://www.w3.org/2000/svg">
<g clip-path="url(#clip0_1962_9681)">
<path d="M41.9863 34.5856L42.6909 32.3037H38.8493C38.8493 32.3037 38.5439 33.305 38.1556 34.5856H41.9863V34.5856Z" fill="#00C0F3"/>
<path d="M27.691 45.877L26.982 48.1763H30.8083C30.8083 48.1763 31.1159 47.1662 31.5108 45.877H27.6931H27.691Z" fill="#00C0F3"/>
<path d="M28.5919 37.0611H24.5038C24.4994 36.5157 24.314 36.0925 23.9497 35.7936C23.5854 35.4969 23.1142 35.3464 22.5361 35.3464C21.4169 35.3464 20.4811 35.9005 19.7285 37.0065C19.1264 37.8966 18.7293 38.9546 18.5352 40.1763C18.2363 42.0851 18.8951 43.0384 20.5138 43.0384C21.5936 43.0384 22.4968 42.5257 23.2232 41.4961H21.3144L22.2219 38.6776H28.2167L25.9261 46.0096H23.1294L23.1949 44.9799C22.0692 45.9289 20.7341 46.4001 19.1918 46.4001C17.3419 46.4001 15.9654 45.7893 15.0644 44.5676C14.2136 43.4027 13.93 41.8887 14.2224 40.0323C14.591 37.6915 15.5465 35.7849 17.0888 34.308C18.7075 32.7701 20.6731 32 22.9854 32C24.783 32 26.1683 32.3949 27.1368 33.1846C28.1949 34.0637 28.677 35.3551 28.5897 37.0611H28.5919Z" fill="#03428E"/>
<path d="M56.1705 32.3604L55.0295 35.8246H51.2883L48.2014 46.0144H43.8057L46.9318 35.8224H43.0182L44.1417 32.3604H56.1705V32.3604Z" fill="#03428E"/>
<path d="M58.0967 42.8071C58.2058 42.4275 58.328 41.965 58.3978 41.7294H62.8982L63.8537 38.7604H59.3314C59.4427 38.4157 59.6303 37.8572 59.6958 37.6478H64.7896L65.7647 34.5195H56.6766L53.1098 45.9855H62.5535L63.5156 42.8092H58.0967V42.8071Z" fill="#03428E"/>
<path d="M69.1133 42.5976C69.3118 41.9672 71.6504 34.5195 71.6504 34.5195H67.5601L63.9933 45.9855H73.0815L74.1089 42.5976H69.1111H69.1133Z" fill="#03428E"/>
<path d="M38.1774 34.5107C37.5055 36.7162 36.5631 39.8162 36.4846 40.0648C36.1704 39.0221 34.8136 34.5173 34.8136 34.5173H31.1966L27.6582 45.9723H31.478C32.1347 43.8236 33.0509 40.8262 33.1556 40.4793C33.5308 41.7271 34.8136 45.9833 34.8136 45.9833H38.461L42.0103 34.5107H38.1796H38.1774Z" fill="#03428E"/>
</g>
<defs>
<clipPath id="clip0_1962_9681">
<rect width="60" height="16.1758" fill="white" transform="translate(14.1111 32)"/>
</clipPath>
</defs>
</svg>
