<svg width="100" height="90" viewBox="0 0 100 90" fill="none" xmlns="http://www.w3.org/2000/svg">
<g clip-path="url(#clip0_1_4027)">
<path d="M42.4674 37.055C46.641 37.055 49.6436 34.3044 50.8538 32.1371C51.2005 31.4743 52.6397 29.307 55.8582 29.307C58.9655 29.2673 61.7195 31.7461 61.5298 35.0468C61.2943 39.335 57.5982 42.417 55.9105 43.4045C53.0911 45.0416 49.5062 46.4268 46.327 46.6588H46.3401C46.5559 46.6588 46.7718 46.6588 46.9877 46.6588C48.3745 46.6588 49.7156 46.6853 51.0173 46.7383C55.6488 46.3407 59.2402 44.4915 61.9877 41.6481C65.4351 38.0823 67.3388 33.3898 67.3388 28.3327C67.3257 18.3644 59.6262 10 49.9249 10C41.617 10 32.9624 16.6411 32.9624 27.2259C32.9624 32.5017 37.2276 37.055 42.4674 37.055Z" fill="#8DC63F"/>
<path opacity="0.3" d="M58.7954 12.5649C58.2393 12.2998 48.7932 7.57412 40.6227 14.6991C32.6419 21.6517 33.924 32.6209 37.4238 35.5106C38.8892 36.4783 40.6161 37.0483 42.4674 37.0483C46.641 37.0483 49.6436 34.2977 50.8538 32.1304C51.2005 31.4676 52.6397 29.3003 55.8582 29.3003C58.9655 29.2605 61.7195 31.7394 61.5298 35.0401C61.2943 39.3283 57.5983 42.4103 55.9105 43.3978C53.0911 45.0349 49.5062 46.4201 46.327 46.6521H46.3401C46.556 46.6521 46.7718 46.6521 46.9877 46.6521C48.3745 46.6521 49.7156 46.6786 51.0174 46.7316C55.6489 46.334 59.2402 44.4848 61.9877 41.6414C65.4352 38.0756 67.3388 33.3831 67.3388 28.326C67.3388 21.7048 63.9371 15.7861 58.8085 12.5583L58.7954 12.5649Z" fill="#0E8537"/>
<path d="M63.3547 16.7012C63.2435 16.562 63.1323 16.4229 63.0211 16.2837C60.9343 13.7054 57.356 11.7568 52.2077 11.7568C44.5932 11.7568 36.6517 17.5496 36.1611 28.0614C35.919 33.1781 39.1964 36.4457 42.8793 37.0488C43.9718 37.0024 44.9857 36.7638 45.9016 36.3993C46.4445 36.1806 46.9482 35.9221 47.4258 35.6371C49.0285 34.6562 50.206 33.3107 50.8601 32.1376C51.2068 31.4748 52.646 29.3075 55.8645 29.3075C58.9718 29.2677 61.7258 31.7465 61.5361 35.0472C61.3006 39.3355 57.6046 42.4174 55.9168 43.405C53.0974 45.0421 49.5126 46.4273 46.3333 46.6593H46.3464C46.5623 46.6593 46.7781 46.6593 46.994 46.6593C48.3808 46.6593 49.7219 46.6858 51.0237 46.7388C55.6552 46.3411 59.2465 44.4919 61.994 41.6486C65.4415 38.0828 67.3451 33.3902 67.3451 28.3332C67.3451 23.9588 65.8601 19.8892 63.3743 16.7012H63.3547Z" fill="#EF3F6B"/>
<path opacity="0.3" d="M64.3096 18.046C63.0209 16.283 60.2669 15.196 58.3698 14.9176C51.8413 13.95 46.9089 16.1902 42.8661 21.4991C40.2756 24.9059 39.7392 28.7633 40.7466 32.0706C41.9765 36.1004 45.8557 36.1666 47.4256 35.6364C49.0284 34.6555 50.2058 33.31 50.86 32.1369C51.2067 31.4741 52.6459 29.3068 55.8644 29.3068C58.9717 29.267 61.7257 31.7458 61.536 35.0465C61.3005 39.3348 57.6045 42.4167 55.9167 43.4043C53.0973 45.0414 49.5124 46.4266 46.3332 46.6586H46.3463C46.5622 46.6586 46.778 46.6586 46.9939 46.6586C48.3807 46.6586 49.7218 46.6851 51.0236 46.7381C55.655 46.3404 59.2464 44.4912 61.9939 41.6479C65.4413 38.0821 67.345 33.3895 67.345 28.3325C67.345 25.9663 66.9067 23.8123 66.2591 21.9697C66.1282 21.6052 65.9843 21.2406 65.8469 20.9093C65.7423 20.664 65.6376 20.4387 65.5329 20.2067C65.3236 19.7693 65.1077 19.3517 64.8918 18.9673C64.7087 18.6359 64.5255 18.3244 64.3358 18.046H64.3096Z" fill="#C0151B"/>
<path d="M66.7106 23.5143C65.6443 20.3197 62.6417 17.304 58.0691 16.6279C52.3778 15.7862 48.0669 17.7414 44.5475 22.3677C42.2841 25.3436 41.8196 28.7039 42.6962 31.587C43.9718 35.7825 48.5314 35.0468 49.0481 34.3906C49.8397 33.6549 50.4546 32.8662 50.8602 32.1372C51.2069 31.4744 52.6461 29.3071 55.8645 29.3071C58.9718 29.2673 61.7259 31.7461 61.5362 35.0468C61.3007 39.335 57.6046 42.417 55.9169 43.4046C53.0974 45.0416 49.5126 46.4269 46.3334 46.6589H46.3464C46.5623 46.6589 46.7782 46.6589 46.9941 46.6589C48.3809 46.6589 49.7219 46.6854 51.0237 46.7384C55.6552 46.3407 59.2466 44.4915 61.9941 41.6482C65.4415 38.0824 67.3451 33.3898 67.3451 28.3328C67.3451 26.6692 67.09 24.7537 66.7237 23.5143H66.7106Z" fill="#009DA5"/>
<path d="M61.5883 26.7549C56.2111 23.4542 52.2011 29.068 50.9189 32.0174C51.6908 30.7449 53.2543 29.3132 55.8578 29.3132C58.9651 29.2735 61.7192 31.7523 61.5294 35.053C61.294 39.3412 57.5979 42.4232 55.9102 43.4107C53.0907 45.0478 49.5059 46.433 46.3267 46.665H46.3397C46.5556 46.665 46.7715 46.665 46.9874 46.665C48.3742 46.665 49.7152 46.6915 51.017 46.7446C55.6485 46.3469 59.2399 44.4977 61.9874 41.6543C62.1378 41.5019 62.2817 41.3428 62.4257 41.1838C63.9041 39.7654 68.7645 31.1558 61.5949 26.7615L61.5883 26.7549Z" fill="#B62079"/>
<path opacity="0.2" d="M37.3123 33.1711C33.0014 31.143 33.2107 24.5814 33.2369 24.0312C33.1976 24.2566 33.1649 24.4819 33.1322 24.7139C33.1191 24.7868 33.1126 24.8531 33.106 24.926C33.0799 25.1116 33.0602 25.3038 33.0406 25.4894C33.0275 25.6286 33.021 25.7678 33.0079 25.9136C33.0014 26.0528 32.9883 26.1919 32.9817 26.3311C32.9687 26.6294 32.9556 26.921 32.9556 27.2259C32.9556 32.5017 37.2207 37.055 42.4606 37.055C42.598 37.055 42.7288 37.055 42.8662 37.0484C40.6289 36.6839 38.5421 35.3252 37.3058 33.1777L37.3123 33.1711Z" fill="#2E3192"/>
<path opacity="0.2" d="M43.7953 33.5487C42.657 33.7674 41.2964 33.8536 39.6675 33.7542C38.7647 33.6945 37.9863 33.489 37.3125 33.1709C38.5489 35.3183 40.6357 36.677 42.8794 37.0416C42.8794 37.0416 42.886 37.0416 42.8925 37.0416C43.9784 36.9886 44.9859 36.7566 45.8951 36.3987C46.4381 36.18 46.9483 35.9215 47.4193 35.6365C47.6156 35.5172 47.8118 35.3846 47.995 35.2587C47.995 35.2587 48.0081 35.2454 48.0146 35.2454C48.1847 35.1261 48.3483 35.0002 48.5118 34.8676C48.5314 34.8544 48.5641 34.8279 48.5838 34.808C48.7146 34.7019 48.8323 34.5959 48.9632 34.4832C48.3221 34.9803 45.5419 35.3912 43.8018 33.5553L43.7953 33.5487Z" fill="#2E3192"/>
<path opacity="0.2" d="M61.5885 26.7555C68.2021 30.8118 64.578 38.4538 62.8118 40.7205C62.8314 40.694 62.8576 40.6675 62.8772 40.641C63.1127 40.356 63.3417 40.071 63.5575 39.786C63.5575 39.786 63.5575 39.7793 63.5706 39.7727C64.1594 38.9243 65.7817 36.2599 66.2854 31.8789C67.1096 24.7142 61.2418 20.7308 55.2431 22.9975C50.5789 24.7605 49.3294 29.1615 49.3294 29.1615C48.8519 30.7058 47.5436 32.8399 43.8018 33.5557C45.5418 35.3917 48.3286 34.9807 48.9631 34.4836C48.9762 34.4704 49.0416 34.4107 49.0612 34.3975C49.1528 34.3113 49.336 34.1257 49.3491 34.1191C49.5977 33.8739 49.8266 33.6154 50.0294 33.3569C50.0817 33.2906 50.1341 33.2244 50.1864 33.1581C50.2322 33.1051 50.2714 33.052 50.3042 32.999C50.3434 32.946 50.4088 32.8532 50.4742 32.7538C50.5462 32.6477 50.6116 32.5483 50.6182 32.5351C50.7032 32.4025 50.7817 32.2699 50.8537 32.1374C50.8733 32.1042 50.8994 32.0578 50.9256 32.0114C52.2012 29.0687 56.2113 23.4549 61.595 26.7489L61.5885 26.7555Z" fill="#2E3192"/>
<path opacity="0.2" d="M58.239 28.1601C53.3458 27.219 51.246 31.3216 50.9581 31.938C50.9451 31.9645 50.932 31.991 50.9189 32.0176C51.6908 30.745 53.2543 29.3134 55.8578 29.3134C58.9651 29.2736 61.7192 31.7524 61.5294 35.0531C61.2939 39.3414 57.5979 42.4233 55.9102 43.4109C53.0907 45.048 49.5059 46.4332 46.3267 46.6652H46.3397C46.5556 46.6652 46.7715 46.6652 46.9874 46.6652C47.5827 46.6652 48.1649 46.6718 48.7405 46.6851C50.6507 46.294 54.7 45.2667 57.9839 43.0463C64.9704 38.314 63.5312 29.1808 58.2455 28.1601H58.239Z" fill="#262262"/>
<path d="M52.9404 51.5034C42.0551 49.4686 31.4184 49.2897 31.4184 49.2897C31.4184 49.2897 40.5963 48.1961 54.0263 50.3435C60.6988 51.4172 65.4677 53.0145 67.9142 53.969C74.4428 51.8878 79.9443 51.6956 79.9443 51.6956C76.8305 50.6285 65.3499 46.6982 46.981 46.6584C30.1428 46.6253 19.9443 50.7478 19.9443 50.7478C19.9443 50.7478 30.3521 52.2788 39.7067 57.1702C46.6997 60.8222 50.1471 64.5868 50.1471 64.5868C50.1471 64.5868 51.2527 63.0425 54.36 60.8089C52.8227 59.4767 50.3761 57.7071 46.824 56.0501C39.1114 52.4512 27.513 50.7942 27.513 50.7942C27.513 50.7942 38.817 51.1919 47.1183 53.8828C52.8292 55.732 56.1197 57.4486 57.8532 58.5488C59.2727 57.7137 60.9212 56.8388 62.8314 55.9507C63.3809 55.6988 63.9238 55.4602 64.4733 55.2349C62.6613 54.2076 59.1223 52.6633 52.9404 51.51V51.5034Z" fill="#B62079"/>
<path d="M79.4669 51.5368C79.4669 51.5368 53.6274 46.599 31.4185 49.2899C31.4185 49.2899 40.5964 48.1963 54.0264 50.3438C60.6989 51.4175 65.4677 53.0148 67.9143 53.9692C72.7748 52.4183 77.0661 51.9212 78.937 51.7621C79.5781 51.7091 79.9444 51.6959 79.9444 51.6959C79.8005 51.6495 79.6369 51.5898 79.4669 51.5368Z" fill="#009DA5"/>
<path d="M27.5132 50.7943C27.5132 50.7943 38.8172 51.192 47.1185 53.8829C52.8294 55.7321 56.1198 57.4487 57.8533 58.5489C59.2729 57.7138 60.9214 56.8389 62.8315 55.9508C63.381 55.6989 63.924 55.4603 64.4735 55.235C64.4735 55.235 42.5786 49.714 27.5132 50.8009V50.7943Z" fill="#009DA5"/>
<path d="M39.7067 57.1773C46.6997 60.8293 50.1471 64.5939 50.1471 64.5939C50.1471 64.5939 51.2527 63.0496 54.3599 60.816C54.3599 60.816 37.4432 52.1401 19.9443 50.7549C19.9443 50.7549 30.3521 52.2859 39.7067 57.1773Z" fill="#009DA5"/>
<path opacity="0.2" d="M61.5883 26.7549C56.2111 23.4542 52.2011 29.068 50.9189 32.0174C51.6908 30.7449 53.2543 29.3132 55.8578 29.3132C58.9651 29.2735 61.7192 31.7523 61.5294 35.053C61.294 39.3412 57.5979 42.4232 55.9102 43.4107C53.0907 45.0478 49.5059 46.433 46.3267 46.665H46.3397C46.5556 46.665 46.7715 46.665 46.9874 46.665C48.3742 46.665 49.7152 46.6915 51.017 46.7446C55.6485 46.3469 59.2399 44.4977 61.9874 41.6543C62.1378 41.5019 62.2817 41.3428 62.4257 41.1838C63.9041 39.7654 68.7645 31.1558 61.5949 26.7615L61.5883 26.7549Z" fill="#2E3192"/>
<path d="M36.0759 76.9214C36.5534 76.8485 37.0048 76.7424 37.3973 76.6032L37.4496 76.5833L37.273 75.6422L37.2076 75.6554C36.8674 75.7283 36.403 75.788 35.8338 75.8211C35.8862 75.4102 35.9123 74.8999 35.9123 74.31V71.7781H37.0571V70.5586H29.8678V71.7781H31.0257V74.2569C31.0257 74.8932 31.0519 75.4367 31.1042 75.8675H29.7632V77.0738H33.9237C34.7087 77.0738 35.4348 77.0274 36.0759 76.928V76.9214ZM34.362 71.7781V74.7474C34.362 75.1981 34.3554 75.5759 34.3423 75.8675H32.6023C32.5892 75.5759 32.5826 75.2114 32.5826 74.7474V71.7781H34.3685H34.362Z" fill="#4D4D4F"/>
<path d="M38.9737 72.2886H36.7495V73.4153H38.9737V74.0847H36.7495V75.2048H38.9737V77.4782H40.5371V70.4062H38.9737V72.2886Z" fill="#4D4D4F"/>
<path d="M39.3535 78.3331C38.6731 77.8161 37.7311 77.5576 36.5471 77.5576C35.363 77.5576 34.408 77.8161 33.7276 78.3331C33.08 78.8169 32.7529 79.4664 32.7529 80.275C32.7529 81.0836 33.08 81.7199 33.7276 82.2038C34.4014 82.7207 35.35 82.9792 36.5471 82.9792C37.7442 82.9792 38.6731 82.7207 39.3535 82.2038C40.0076 81.7199 40.3412 81.0704 40.3412 80.275C40.3412 79.4797 40.0076 78.8169 39.3535 78.3331ZM38.1105 81.362C37.718 81.6404 37.1947 81.7862 36.5536 81.7862C35.9125 81.7862 35.3827 81.647 34.9902 81.362C34.5977 81.0836 34.408 80.7257 34.408 80.275C34.408 79.8244 34.5977 79.4532 34.9902 79.1748C35.3827 78.8965 35.9125 78.7506 36.5536 78.7506C37.1947 78.7506 37.7246 78.8898 38.1105 79.1748C38.4965 79.4532 38.6862 79.8177 38.6862 80.2817C38.6862 80.7456 38.4965 81.0903 38.1105 81.3753V81.362Z" fill="#4D4D4F"/>
<path d="M49.7153 76.855C50.4152 76.6959 50.932 76.4772 51.246 76.1988V77.4382H52.731V74.2701H54.1963V77.4581H55.6813V70.3994H54.1963V73.0108H52.731V70.3994H51.246V74.449C51.246 75.0654 50.7947 75.4565 49.8723 75.6354C49.5321 75.7017 49.048 75.7415 48.42 75.7415C47.8313 75.7481 47.3734 75.7282 47.0659 75.6818C46.7846 75.6354 46.6538 75.4764 46.6538 75.1781V74.2966H49.6826V73.1168H46.6538V71.778H49.8461V70.5717H45.0903V75.5625C45.0903 76.0132 45.1754 76.3579 45.352 76.5832C45.5286 76.8152 45.8295 76.9544 46.2547 77.014C46.5687 77.0472 46.9416 77.0671 47.3668 77.0671C48.3154 77.0671 49.1069 76.9942 49.7218 76.855H49.7153Z" fill="#4D4D4F"/>
<path d="M55.5829 78.2795C55.4587 78.1403 55.2428 78.0674 54.9419 78.0674H47.0396V79.3267H53.7186C54.026 79.3267 54.1699 79.4791 54.1699 79.7973V82.6075H55.7399V78.9555C55.7399 78.6042 55.6942 78.412 55.5829 78.2795Z" fill="#4D4D4F"/>
<path d="M70.1644 70.4062H68.5879V82.6082H70.1644V70.4062Z" fill="#4D4D4F"/>
<path d="M64.022 72.3415V70.5586H62.3931V72.3415C62.3931 73.7135 62.1642 74.8866 61.7128 75.8344C61.2287 76.8418 60.4175 77.7498 59.3055 78.5386L59.2466 78.5783L60.2017 79.7051L60.2475 79.6786C60.9016 79.3008 61.5231 78.7639 62.0987 78.0812C62.6613 77.4251 63.0473 76.7822 63.2632 76.1658C63.4987 76.7689 63.9042 77.4052 64.4799 78.0547C65.0883 78.7308 65.6901 79.2345 66.2789 79.546L66.3312 79.5725L67.2405 78.3861L67.1816 78.3464C65.0883 76.9015 64.0285 74.88 64.0285 72.3349L64.022 72.3415Z" fill="#4D4D4F"/>
</g>
<defs>
<clipPath id="clip0_1_4027">
<rect width="60" height="72.973" fill="white" transform="translate(19.9443 10)"/>
</clipPath>
</defs>
</svg>
