<svg width="348" height="48" viewBox="0 0 348 48" fill="none" xmlns="http://www.w3.org/2000/svg">
<g clip-path="url(#clip0_1405_3312)">
<path d="M102.02 24.4799H62.3604V19.3699H92.2104C92.5504 18.0999 92.8003 16.8199 92.9503 15.5199C93.0703 14.3199 93.1303 12.7599 93.1303 10.8499V5.93991H64.3704V0.909912H99.9704V9.60991C99.9704 11.6999 99.8904 13.4599 99.7403 14.8799C99.5504 16.4499 99.2503 17.9499 98.8103 19.3699H102.01V24.4799H102.02ZM71.2204 39.1499H99.9804V44.1699H70.4604C68.2604 44.1699 66.6904 43.7899 65.7304 43.0099C64.8304 42.2299 64.3803 40.9799 64.3803 39.2399V29.1399H71.2204V39.1499Z" fill="#636466"/>
<path d="M127.45 36.3399V26.9699H134.29V36.3399H151.02V41.3699H110.85V36.3399H127.45ZM147.88 0.909912V15.4099H119.94V21.0099H149.14V25.9499H119.34C117.22 25.9499 115.64 25.5199 114.63 24.6499C113.61 23.8199 113.11 22.5599 113.11 20.8899V10.4699H141.04V5.84991H113.11V0.909912H147.88Z" fill="#636466"/>
<path d="M168.53 0.330078V3.35008H190.45V0.330078H197.29V17.6801H183.36V20.6501H199.59V25.6801H159.42V20.6501H176.53V17.6801H167.95C165.75 17.6801 164.15 17.2701 163.13 16.4301C162.17 15.6001 161.69 14.3101 161.69 12.5801V0.330078H168.53ZM197.29 29.2201V44.5301H190.45V34.3301H161.69V29.2201H197.29ZM168.53 8.29008V12.6501H190.45V8.29008H168.53Z" fill="#636466"/>
<path d="M233.77 0.93V5.79H225.15V15.99C225.15 21.4 226.34 26.04 228.72 29.89C230.76 33.17 233.49 35.64 236.93 37.31L232.94 41.34C230.19 39.77 227.94 38.02 226.17 36.1C224.13 33.91 222.66 31.45 221.73 28.73C220.87 31.38 219.35 33.84 217.2 36.1C215.44 37.95 213.2 39.7 210.48 41.34L207.01 37.31C210.19 35.61 212.77 33.12 214.75 29.85C217.13 25.95 218.32 21.35 218.32 16.03V5.79H209.65V0.93H233.78H233.77ZM246.33 0V44.59H239.49V0H246.33Z" fill="#636466"/>
<path d="M296.93 23.4899H256.81V18.4499H270.02V10.8099H276.86V18.4499H286.7C287.07 17.0899 287.35 15.5199 287.53 13.7499C287.72 12.1699 287.81 10.4199 287.81 8.48991V5.92991H259.07V0.909912H294.65V5.68991C294.65 7.82991 294.54 9.98991 294.33 12.1899C294.11 14.6999 293.8 16.7899 293.4 18.4599H296.92V23.4999L296.93 23.4899ZM290.45 29.1799C293.54 31.0399 295.08 33.2899 295.08 35.9499C295.08 38.6099 293.53 40.8199 290.45 42.6699C287.05 44.7399 282.52 45.7799 276.87 45.7799C271.22 45.7799 266.66 44.7399 263.29 42.6699C260.26 40.8199 258.74 38.5699 258.74 35.9499C258.74 33.3299 260.26 31.0299 263.29 29.1799C266.68 27.1399 271.21 26.1199 276.87 26.1199C282.53 26.1199 287.05 27.1399 290.45 29.1799ZM268.47 32.6599C266.59 33.5599 265.65 34.6599 265.65 35.9599C265.65 37.2599 266.59 38.3499 268.47 39.2499C270.54 40.2499 273.34 40.7399 276.86 40.7399C280.38 40.7399 283.16 40.2399 285.3 39.2499C287.25 38.3199 288.22 37.2299 288.22 35.9599C288.22 34.6899 287.24 33.5599 285.3 32.6599C283.17 31.6699 280.36 31.1799 276.86 31.1799C273.36 31.1799 270.54 31.6799 268.47 32.6599Z" fill="#636466"/>
<path d="M330.55 5.87H313.86V19.79H336.11V0H342.94V13.58H347.67V18.86H342.94V32.35H336.11V24.65H312.7C310.76 24.65 309.31 24.17 308.35 23.21C307.45 22.32 307.01 20.97 307.01 19.18V0.93H330.53V5.87H330.55ZM316.09 39.16H343.25V44.19H315.3C313.11 44.19 311.54 43.8 310.58 43.03C309.69 42.25 309.24 40.99 309.24 39.26V29.57H316.08V39.17L316.09 39.16Z" fill="#636466"/>
<path d="M7.39981 1.75C6.64981 1.97 6.00981 2.22 5.49981 2.48C3.93981 3.22 2.70981 4.52 2.09981 6.12C-0.650192 12.21 -0.690192 34.42 1.94981 41.11C2.03981 41.41 2.15981 41.69 2.28981 41.98C8.92981 32.54 17.7798 15.46 7.39981 1.75Z" fill="#00A0B0"/>
<path d="M13.2803 46.8898C21.7203 47.8198 33.7203 47.3898 38.8003 45.5598C41.1103 44.9398 42.9203 43.1498 43.5503 40.8898C44.1203 39.3298 44.5603 37.0298 44.8703 34.3198C38.8803 33.8698 24.8903 34.4198 13.2803 46.8898Z" fill="#00A0B0"/>
<path d="M8.37996 46.0799C7.69996 45.9199 7.07996 45.7399 6.53996 45.5499C6.06996 45.4099 5.62996 45.2299 5.20996 45.0099C21.24 24.5199 21.5 9.18993 19.21 0.269926C27.16 -7.37011e-05 36 0.679926 39.59 2.31993C41.47 3.07993 42.92 4.63993 43.5 6.57993C44.92 10.2799 45.54 18.4799 45.39 26.1599C27.46 25.9999 14.39 38.7799 8.38996 46.0899L8.37996 46.0799ZM30.13 24.4899C33.55 24.6899 36.49 22.0699 36.69 18.6399C36.89 15.2099 34.27 12.2799 30.84 12.0799C27.41 11.8799 24.48 14.4999 24.28 17.9199C24.08 21.3499 26.7 24.2799 30.13 24.4899Z" fill="#00A0B0"/>
</g>
<defs>
<clipPath id="clip0_1405_3312">
<rect width="347.68" height="47.37" fill="white"/>
</clipPath>
</defs>
</svg>
