<svg width="92" height="111" viewBox="0 0 92 111" fill="none" xmlns="http://www.w3.org/2000/svg">
<g clip-path="url(#clip0_621_1649)">
<path d="M34.4304 40.82C40.8104 40.82 45.4004 36.67 47.2504 33.4C47.7804 32.4 49.9804 29.13 54.9004 29.13C59.6504 29.07 63.8604 32.81 63.5704 37.79C63.2104 44.26 57.5604 48.91 54.9804 50.4C50.6704 52.87 45.1904 54.96 40.3304 55.31H40.3504C40.6804 55.31 41.0104 55.31 41.3404 55.31C43.4604 55.31 45.5104 55.35 47.5004 55.43C54.5804 54.83 60.0704 52.04 64.2704 47.75C69.5404 42.37 72.4504 35.29 72.4504 27.66C72.4304 12.62 60.6604 0 45.8304 0C33.1304 0 19.9004 10.02 19.9004 25.99C19.9004 33.95 26.4204 40.82 34.4304 40.82Z" fill="#8DC63F"/>
<path opacity="0.3" d="M59.39 3.87C58.54 3.47 44.1 -3.66 31.61 7.09C19.41 17.58 21.37 34.13 26.72 38.49C28.96 39.95 31.6 40.81 34.43 40.81C40.81 40.81 45.4 36.66 47.25 33.39C47.78 32.39 49.98 29.12 54.9 29.12C59.65 29.06 63.86 32.8 63.57 37.78C63.21 44.25 57.56 48.9 54.98 50.39C50.67 52.86 45.19 54.95 40.33 55.3H40.35C40.68 55.3 41.01 55.3 41.34 55.3C43.46 55.3 45.51 55.34 47.5 55.42C54.58 54.82 60.07 52.03 64.27 47.74C69.54 42.36 72.45 35.28 72.45 27.65C72.45 17.66 67.25 8.73 59.41 3.86L59.39 3.87Z" fill="#0E8537"/>
<path d="M66.3598 10.11C66.1898 9.9 66.0198 9.69 65.8498 9.48C62.6598 5.59 57.1898 2.65 49.3198 2.65C37.6798 2.65 25.5398 11.39 24.7898 27.25C24.4198 34.97 29.4298 39.9 35.0598 40.81C36.7298 40.74 38.2798 40.38 39.6798 39.83C40.5098 39.5 41.2798 39.11 42.0098 38.68C44.4598 37.2 46.2598 35.17 47.2598 33.4C47.7898 32.4 49.9898 29.13 54.9098 29.13C59.6598 29.07 63.8698 32.81 63.5798 37.79C63.2198 44.26 57.5698 48.91 54.9898 50.4C50.6798 52.87 45.1998 54.96 40.3398 55.31H40.3598C40.6898 55.31 41.0198 55.31 41.3498 55.31C43.4698 55.31 45.5198 55.35 47.5098 55.43C54.5898 54.83 60.0798 52.04 64.2798 47.75C69.5498 42.37 72.4598 35.29 72.4598 27.66C72.4598 21.06 70.1898 14.92 66.3898 10.11H66.3598Z" fill="#EF3F6B"/>
<path opacity="0.3" d="M67.8199 12.14C65.8499 9.48 61.6399 7.84 58.7399 7.42C48.7599 5.96 41.2199 9.34 35.0399 17.35C31.0799 22.49 30.2599 28.31 31.7999 33.3C33.6799 39.38 39.6099 39.48 42.0099 38.68C44.4599 37.2 46.2599 35.17 47.2599 33.4C47.7899 32.4 49.9899 29.13 54.9099 29.13C59.6599 29.07 63.8699 32.81 63.5799 37.79C63.2199 44.26 57.5699 48.91 54.9899 50.4C50.6799 52.87 45.1999 54.96 40.3399 55.31H40.3599C40.6899 55.31 41.0199 55.31 41.3499 55.31C43.4699 55.31 45.5199 55.35 47.5099 55.43C54.5899 54.83 60.0799 52.04 64.2799 47.75C69.5499 42.37 72.4599 35.29 72.4599 27.66C72.4599 24.09 71.7899 20.84 70.7999 18.06C70.5999 17.51 70.3799 16.96 70.1699 16.46C70.0099 16.09 69.8499 15.75 69.6899 15.4C69.3699 14.74 69.0399 14.11 68.7099 13.53C68.4299 13.03 68.1499 12.56 67.8599 12.14H67.8199Z" fill="#C0151B"/>
<path d="M71.4898 20.39C69.8598 15.57 65.2698 11.02 58.2798 10C49.5798 8.73 42.9898 11.68 37.6098 18.66C34.1498 23.15 33.4398 28.22 34.7798 32.57C36.7298 38.9 43.6998 37.79 44.4898 36.8C45.6998 35.69 46.6398 34.5 47.2598 33.4C47.7898 32.4 49.9898 29.13 54.9098 29.13C59.6598 29.07 63.8698 32.81 63.5798 37.79C63.2198 44.26 57.5698 48.91 54.9898 50.4C50.6798 52.87 45.1998 54.96 40.3398 55.31H40.3598C40.6898 55.31 41.0198 55.31 41.3498 55.31C43.4698 55.31 45.5198 55.35 47.5098 55.43C54.5898 54.83 60.0798 52.04 64.2798 47.75C69.5498 42.37 72.4598 35.29 72.4598 27.66C72.4598 25.15 72.0698 22.26 71.5098 20.39H71.4898Z" fill="#009DA5"/>
<path d="M63.6601 25.28C55.4401 20.3 49.3101 28.77 47.3501 33.22C48.5301 31.3 50.9201 29.14 54.9001 29.14C59.6501 29.08 63.8601 32.82 63.5701 37.8C63.2101 44.27 57.5601 48.92 54.9801 50.41C50.6701 52.88 45.1901 54.97 40.3301 55.32H40.3501C40.6801 55.32 41.0101 55.32 41.3401 55.32C43.4601 55.32 45.5101 55.36 47.5001 55.44C54.5801 54.84 60.0701 52.05 64.2701 47.76C64.5001 47.53 64.7201 47.29 64.9401 47.05C67.2001 44.91 74.6301 31.92 63.6701 25.29L63.6601 25.28Z" fill="#B62079"/>
<path opacity="0.2" d="M26.5496 34.96C19.9596 31.9 20.2796 22 20.3196 21.17C20.2596 21.51 20.2096 21.85 20.1596 22.2C20.1396 22.31 20.1296 22.41 20.1196 22.52C20.0796 22.8 20.0496 23.09 20.0196 23.37C19.9996 23.58 19.9896 23.79 19.9696 24.01C19.9596 24.22 19.9396 24.43 19.9296 24.64C19.9096 25.09 19.8896 25.53 19.8896 25.99C19.8896 33.95 26.4096 40.82 34.4196 40.82C34.6296 40.82 34.8296 40.82 35.0396 40.81C31.6196 40.26 28.4297 38.21 26.5396 34.97L26.5496 34.96Z" fill="#2E3192"/>
<path opacity="0.2" d="M36.4598 35.53C34.7198 35.86 32.6398 35.99 30.1498 35.84C28.7698 35.75 27.5798 35.44 26.5498 34.96C28.4398 38.2 31.6298 40.25 35.0598 40.8C35.0598 40.8 35.0698 40.8 35.0798 40.8C36.7398 40.72 38.2798 40.37 39.6698 39.83C40.4998 39.5 41.2798 39.11 41.9998 38.68C42.2998 38.5 42.5998 38.3 42.8798 38.11C42.8798 38.11 42.8998 38.09 42.9098 38.09C43.1698 37.91 43.4198 37.72 43.6698 37.52C43.6998 37.5 43.7498 37.46 43.7798 37.43C43.9798 37.27 44.1598 37.11 44.3598 36.94C43.3798 37.69 39.1298 38.31 36.4698 35.54L36.4598 35.53Z" fill="#2E3192"/>
<path opacity="0.2" d="M63.6597 25.28C73.7697 31.4 68.2297 42.93 65.5297 46.35C65.5597 46.31 65.5997 46.27 65.6297 46.23C65.9897 45.8 66.3397 45.37 66.6697 44.94C66.6697 44.94 66.6697 44.93 66.6897 44.92C67.5897 43.64 70.0697 39.62 70.8397 33.01C72.0997 22.2 63.1297 16.19 53.9597 19.61C46.8297 22.27 44.9197 28.91 44.9197 28.91C44.1897 31.24 42.1897 34.46 36.4697 35.54C39.1297 38.31 43.3897 37.69 44.3597 36.94C44.3797 36.92 44.4797 36.83 44.5097 36.81C44.6497 36.68 44.9297 36.4 44.9497 36.39C45.3297 36.02 45.6797 35.63 45.9897 35.24C46.0697 35.14 46.1497 35.04 46.2297 34.94C46.2997 34.86 46.3597 34.78 46.4097 34.7C46.4697 34.62 46.5697 34.48 46.6697 34.33C46.7797 34.17 46.8797 34.02 46.8897 34C47.0197 33.8 47.1397 33.6 47.2497 33.4C47.2797 33.35 47.3197 33.28 47.3597 33.21C49.3097 28.77 55.4397 20.3 63.6697 25.27L63.6597 25.28Z" fill="#2E3192"/>
<path opacity="0.2" d="M58.5401 27.4C51.0601 25.98 47.8501 32.17 47.4101 33.1C47.3901 33.14 47.3701 33.18 47.3501 33.22C48.5301 31.3 50.9201 29.14 54.9001 29.14C59.6501 29.08 63.8601 32.82 63.5701 37.8C63.2101 44.27 57.5601 48.92 54.9801 50.41C50.6701 52.88 45.1901 54.97 40.3301 55.32H40.3501C40.6801 55.32 41.0101 55.32 41.3401 55.32C42.2501 55.32 43.1401 55.33 44.0201 55.35C46.9401 54.76 53.1301 53.21 58.1501 49.86C68.8301 42.72 66.6301 28.94 58.5501 27.4H58.5401Z" fill="#262262"/>
<path d="M50.44 62.62C33.8 59.55 17.54 59.28 17.54 59.28C17.54 59.28 31.57 57.63 52.1 60.87C62.3 62.49 69.59 64.9 73.33 66.34C83.31 63.2 91.72 62.91 91.72 62.91C86.96 61.3 69.41 55.37 41.33 55.31C15.59 55.26 0 61.48 0 61.48C0 61.48 15.91 63.79 30.21 71.17C40.9 76.68 46.17 82.36 46.17 82.36C46.17 82.36 47.86 80.03 52.61 76.66C50.26 74.65 46.52 71.98 41.09 69.48C29.3 64.05 11.57 61.55 11.57 61.55C11.57 61.55 28.85 62.15 41.54 66.21C50.27 69 55.3 71.59 57.95 73.25C60.12 71.99 62.64 70.67 65.56 69.33C66.4 68.95 67.23 68.59 68.07 68.25C65.3 66.7 59.89 64.37 50.44 62.63V62.62Z" fill="#B62079"/>
<path d="M90.99 62.67C90.99 62.67 51.49 55.22 17.54 59.28C17.54 59.28 31.57 57.63 52.1 60.87C62.3 62.49 69.59 64.9 73.33 66.34C80.76 64 87.32 63.25 90.18 63.01C91.16 62.93 91.72 62.91 91.72 62.91C91.5 62.84 91.25 62.75 90.99 62.67Z" fill="#009DA5"/>
<path d="M11.5703 61.55C11.5703 61.55 28.8503 62.15 41.5403 66.21C50.2703 69 55.3003 71.59 57.9503 73.25C60.1203 71.99 62.6403 70.67 65.5603 69.33C66.4003 68.95 67.2303 68.59 68.0703 68.25C68.0703 68.25 34.6003 59.92 11.5703 61.56V61.55Z" fill="#009DA5"/>
<path d="M30.21 71.18C40.9 76.69 46.17 82.37 46.17 82.37C46.17 82.37 47.86 80.04 52.61 76.67C52.61 76.67 26.75 63.58 0 61.49C0 61.49 15.91 63.8 30.21 71.18Z" fill="#009DA5"/>
<path opacity="0.2" d="M63.6601 25.28C55.4401 20.3 49.3101 28.77 47.3501 33.22C48.5301 31.3 50.9201 29.14 54.9001 29.14C59.6501 29.08 63.8601 32.82 63.5701 37.8C63.2101 44.27 57.5601 48.92 54.9801 50.41C50.6701 52.88 45.1901 54.97 40.3301 55.32H40.3501C40.6801 55.32 41.0101 55.32 41.3401 55.32C43.4601 55.32 45.5101 55.36 47.5001 55.44C54.5801 54.84 60.0701 52.05 64.2701 47.76C64.5001 47.53 64.7201 47.29 64.9401 47.05C67.2001 44.91 74.6301 31.92 63.6701 25.29L63.6601 25.28Z" fill="#2E3192"/>
<path d="M24.6598 100.97C25.3898 100.86 26.0798 100.7 26.6798 100.49L26.7598 100.46L26.4898 99.04L26.3898 99.06C25.8698 99.17 25.1598 99.26 24.2898 99.31C24.3698 98.69 24.4098 97.92 24.4098 97.03V93.21H26.1598V91.37H15.1698V93.21H16.9398V96.95C16.9398 97.91 16.9798 98.73 17.0598 99.38H15.0098V101.2H21.3698C22.5698 101.2 23.6798 101.13 24.6598 100.98V100.97ZM22.0398 93.21V97.69C22.0398 98.37 22.0298 98.94 22.0098 99.38H19.3498C19.3298 98.94 19.3198 98.39 19.3198 97.69V93.21H22.0498H22.0398Z" fill="#4D4D4F"/>
<path d="M29.0895 93.98H25.6895V95.68H29.0895V96.69H25.6895V98.38H29.0895V101.81H31.4795V91.14H29.0895V93.98Z" fill="#4D4D4F"/>
<path d="M29.6701 103.1C28.6301 102.32 27.1901 101.93 25.3801 101.93C23.5701 101.93 22.1101 102.32 21.0701 103.1C20.0801 103.83 19.5801 104.81 19.5801 106.03C19.5801 107.25 20.0801 108.21 21.0701 108.94C22.1001 109.72 23.5501 110.11 25.3801 110.11C27.2101 110.11 28.6301 109.72 29.6701 108.94C30.6701 108.21 31.1801 107.23 31.1801 106.03C31.1801 104.83 30.6701 103.83 29.6701 103.1ZM27.7701 107.67C27.1701 108.09 26.3701 108.31 25.3901 108.31C24.4101 108.31 23.6001 108.1 23.0001 107.67C22.4001 107.25 22.1101 106.71 22.1101 106.03C22.1101 105.35 22.4001 104.79 23.0001 104.37C23.6001 103.95 24.4101 103.73 25.3901 103.73C26.3701 103.73 27.1801 103.94 27.7701 104.37C28.3601 104.79 28.6501 105.34 28.6501 106.04C28.6501 106.74 28.3601 107.26 27.7701 107.69V107.67Z" fill="#4D4D4F"/>
<path d="M45.5095 100.87C46.5795 100.63 47.3695 100.3 47.8495 99.88V101.75H50.1195V96.97H52.3595V101.78H54.6295V91.13H52.3595V95.07H50.1195V91.13H47.8495V97.24C47.8495 98.17 47.1595 98.76 45.7495 99.03C45.2295 99.13 44.4895 99.19 43.5295 99.19C42.6295 99.2 41.9295 99.17 41.4595 99.1C41.0295 99.03 40.8295 98.79 40.8295 98.34V97.01H45.4595V95.23H40.8295V93.21H45.7095V91.39H38.4395V98.92C38.4395 99.6 38.5695 100.12 38.8395 100.46C39.1095 100.81 39.5695 101.02 40.2195 101.11C40.6995 101.16 41.2695 101.19 41.9195 101.19C43.3695 101.19 44.5795 101.08 45.5195 100.87H45.5095Z" fill="#4D4D4F"/>
<path d="M54.4799 103.02C54.2899 102.81 53.9599 102.7 53.4999 102.7H41.4199V104.6H51.6299C52.0999 104.6 52.3199 104.83 52.3199 105.31V109.55H54.7199V104.04C54.7199 103.51 54.6499 103.22 54.4799 103.02Z" fill="#4D4D4F"/>
<path d="M76.7694 91.14H74.3594V109.55H76.7694V91.14Z" fill="#4D4D4F"/>
<path d="M67.3801 94.06V91.37H64.8901V94.06C64.8901 96.13 64.5401 97.9 63.8501 99.33C63.1101 100.85 61.8701 102.22 60.1701 103.41L60.0801 103.47L61.5401 105.17L61.6101 105.13C62.6101 104.56 63.5601 103.75 64.4401 102.72C65.3001 101.73 65.8901 100.76 66.2201 99.83C66.5801 100.74 67.2001 101.7 68.0801 102.68C69.0101 103.7 69.9301 104.46 70.8301 104.93L70.9101 104.97L72.3001 103.18L72.2101 103.12C69.0101 100.94 67.3901 97.89 67.3901 94.05L67.3801 94.06Z" fill="#4D4D4F"/>
</g>
<defs>
<clipPath id="clip0_621_1649">
<rect width="91.72" height="110.1" fill="white"/>
</clipPath>
</defs>
</svg>
