<svg width="231" height="40" viewBox="0 0 231 40" fill="none" xmlns="http://www.w3.org/2000/svg">
<g clip-path="url(#clip0_621_1838)">
<path d="M3.55861 33.4464C4.78741 33.4464 4.92821 34.2656 4.96661 34.56V34.6752H6.29781V34.5344C6.13141 32.5632 4.18581 32.3968 3.58421 32.3968C1.19061 32.3968 0.333008 34.3808 0.333008 36.2496C0.333008 37.1072 0.563408 39.9488 3.46901 39.9488C4.65941 39.9488 6.10581 39.4112 6.27221 37.8624L6.29781 37.7216H4.95381L4.92821 37.824C4.90261 37.9776 4.85141 38.2464 4.62101 38.5024C4.37781 38.7584 4.01941 38.8864 3.55861 38.8864C2.31701 38.8864 1.67701 38.0032 1.67701 36.2496C1.67701 35.2128 1.92021 33.4592 3.57141 33.4592" fill="#0054A5"/>
<path d="M11.6481 35.5328H8.52491V32.4864H7.27051V39.8208H8.52491V36.6336H11.6481V39.8208H12.9025V32.4864H11.6481V35.5328Z" fill="#0054A5"/>
<path d="M19.328 36.9664C19.328 37.4784 19.328 38.8352 17.5232 38.8352C16.832 38.8352 16.32 38.6176 16 38.1952C15.8592 37.9904 15.7056 37.696 15.7056 37.0048V32.4864H14.4512V36.928C14.4512 37.952 14.6304 38.4128 14.8864 38.7968C15.6416 39.8592 16.9728 39.9744 17.5232 39.9744C18.112 39.9744 19.2128 39.8464 19.9296 38.9504C20.544 38.1952 20.544 37.3376 20.544 36.9792V32.4864H19.3152V36.9664H19.328Z" fill="#0054A5"/>
<path d="M27.0462 37.9904L23.7566 32.4864H22.1694V39.8208H23.3342V34.176L26.7518 39.8208H28.2366V32.4864H27.0462V37.9904Z" fill="#0054A5"/>
<path d="M33.1263 36.8768H34.7519V38.7328C34.4959 38.8096 34.0223 38.9248 33.3311 38.9248C32.5119 38.9248 31.9103 38.7072 31.5263 38.272C31.0655 37.7344 30.8991 36.8128 30.8991 36.1344C30.8991 35.5072 31.0271 34.6112 31.6287 33.9456C31.9615 33.5744 32.4607 33.3952 33.1391 33.3952C33.9839 33.3952 34.5087 33.7408 34.6239 34.3936V34.5088H35.9807V34.3552C35.9551 34.0864 35.9167 33.6256 35.4687 33.1392C34.7519 32.4352 33.8687 32.3456 33.2671 32.3456C32.6655 32.3456 31.8591 32.4352 31.2063 32.8704C29.7343 33.8432 29.6191 35.712 29.6191 36.2496C29.6191 37.376 29.9903 38.3616 30.6559 39.04C31.2575 39.6544 32.1407 39.9616 33.3439 39.9616C34.5471 39.9616 35.5199 39.6544 35.9295 39.5136L36.0191 39.488V35.776H33.1391V36.8512L33.1263 36.8768Z" fill="#0054A5"/>
<path d="M42.4447 37.9904L39.1423 32.4864H37.5679V39.8208H38.7199V34.176L42.1503 39.8208H43.6223V32.4864H42.4447V37.9904Z" fill="#0054A5"/>
<path d="M47.4626 32.4864L44.3394 39.8208H45.6578L46.4258 37.9776H49.5618L50.3298 39.8208H51.6994L48.7042 32.4864H47.4626ZM49.1522 36.9152H46.8482L48.0258 33.9584L49.1522 36.9152Z" fill="#0054A5"/>
<path d="M56.2434 38.0544L54.3234 32.4864H52.3394V39.8208H53.5682V34.1504L55.5906 39.8208H56.7298L58.8418 34.0736V39.8208H60.0706V32.4864H58.2146L56.2434 38.0544Z" fill="#0054A5"/>
<path d="M71.3217 37.9904L68.0193 32.4864H66.4321V39.8208H67.6097V34.176L71.0273 39.8208H72.4993V32.4864H71.3217V37.9904Z" fill="#0054A5"/>
<path d="M77.5678 32.4864H76.3262L73.2158 39.8208H74.5214L75.2894 37.9776H78.4254L79.1934 39.8208H80.563L77.6062 32.576L77.5678 32.4864ZM78.0286 36.9152H75.7118L76.8894 33.9584L78.0158 36.9152H78.0286Z" fill="#0054A5"/>
<path d="M79.7954 33.6H82.189V39.8208H83.4434V33.6H85.837V32.4864H79.7954V33.6Z" fill="#0054A5"/>
<path d="M87.9614 32.4864H86.707V39.8208H87.9614V32.4864Z" fill="#0054A5"/>
<path d="M92.5954 32.3072C91.8914 32.3072 90.8802 32.4736 90.1122 33.3056C89.485 33.984 89.165 34.9568 89.165 36.2112C89.165 38.656 90.3554 40 92.5186 40C94.6818 40 95.9618 38.5792 95.9618 36.096C95.9618 33.6128 94.733 32.3072 92.5954 32.3072ZM92.5442 38.8992C91.8786 38.8992 91.3794 38.6944 91.0594 38.2976C90.6626 37.8112 90.4578 37.0816 90.4578 36.1472C90.4578 34.3168 91.1746 33.3952 92.6082 33.3952C94.0418 33.3952 94.6306 34.2784 94.6306 36.0832C94.6306 36.6336 94.5538 37.6576 94.0162 38.2976C93.6834 38.6944 93.1714 38.8992 92.5442 38.8992Z" fill="#0054A5"/>
<path d="M102.093 37.9904L98.803 32.4864H97.2158V39.8208H98.3806V34.176L101.798 39.8208H103.27V32.4864H102.093V37.9904Z" fill="#0054A5"/>
<path d="M108.339 32.4864H107.111L103.987 39.8208H105.293L106.061 37.9776H109.197L109.965 39.8208H111.335L108.378 32.576L108.339 32.4864ZM108.8 36.9152H106.496L107.687 33.9584L108.813 36.9152H108.8Z" fill="#0054A5"/>
<path d="M113.28 32.4864H112.025V39.8208H116.595V38.6816H113.28V32.4864Z" fill="#0054A5"/>
<path d="M125.146 36.9664C125.146 37.4784 125.146 38.8352 123.354 38.8352C122.663 38.8352 122.151 38.6176 121.831 38.1952C121.69 37.9904 121.536 37.696 121.536 37.0048V32.4864H120.282V36.928C120.282 37.952 120.448 38.4128 120.717 38.7968C121.498 39.8976 122.931 39.9744 123.354 39.9744C123.943 39.9744 125.043 39.8464 125.76 38.9504C126.375 38.1952 126.375 37.3376 126.375 36.9792V32.4864H125.146V36.9664Z" fill="#0054A5"/>
<path d="M132.685 37.9904L129.383 32.4864H127.795V39.8208H128.96V34.176L132.378 39.8208H133.85V32.4864H132.685V37.9904Z" fill="#0054A5"/>
<path d="M136.666 32.4864H135.411V39.8208H136.666V32.4864Z" fill="#0054A5"/>
<path d="M140.698 38.2592L138.765 32.4864H137.382L139.981 39.744L140.019 39.8208H141.286L144.026 32.4864H142.733L140.698 38.2592Z" fill="#0054A5"/>
<path d="M145.907 36.6208H149.223V35.5328H145.907V33.6H149.389V32.4864H144.64V39.8208H149.466V38.6944H145.907V36.6208Z" fill="#0054A5"/>
<path d="M155.789 37.4912V37.4528C155.712 36.7232 155.482 36.3392 154.97 36.1088C155.136 36.032 155.315 35.9296 155.494 35.7504C155.853 35.4048 156.045 34.9312 156.045 34.4064C156.045 33.7536 155.725 33.1904 155.187 32.8576C154.637 32.4992 153.856 32.4992 153.472 32.4992H150.797V39.8336H152.038V36.6464H153.152C154.291 36.6464 154.47 36.8896 154.586 37.8496L154.611 38.016C154.675 38.5664 154.778 39.296 154.918 39.7312L154.944 39.8208H156.288L156.224 39.6544C155.955 38.8992 155.891 38.3104 155.789 37.4912ZM152.026 33.5744H153.446C154.086 33.5744 154.739 33.6896 154.739 34.5856C154.739 35.0976 154.445 35.328 154.317 35.392C154.163 35.4816 153.843 35.5328 153.446 35.5328H152.026V33.5744Z" fill="#0054A5"/>
<path d="M162.035 36.1344C161.613 35.8528 161.421 35.8016 159.923 35.4304L159.693 35.3792C158.784 35.1616 158.515 34.9568 158.515 34.4576C158.515 33.8304 159.053 33.4464 159.962 33.4464C160.871 33.4464 161.306 33.7536 161.331 34.4064V34.5344H162.496L162.637 34.5088V34.368C162.611 34.0608 162.573 33.5616 162.163 33.1008C161.562 32.4608 160.589 32.3712 160.051 32.3712C158.631 32.3712 157.197 33.0496 157.197 34.5728C157.197 35.2128 157.466 35.712 158.003 36.0704C158.387 36.3264 158.899 36.4544 159.987 36.7104C161.05 36.9792 161.523 37.1072 161.523 37.7728C161.523 38.0416 161.408 38.8992 159.987 38.8992C158.451 38.8992 158.426 38.1056 158.4 37.6192V37.4912H157.107V37.6192C157.107 37.952 157.107 38.5664 157.543 39.1424C158.131 39.8848 159.245 39.9872 159.872 39.9872C161.664 39.9872 162.816 39.0656 162.816 37.6448C162.816 36.9792 162.547 36.4544 162.048 36.1216" fill="#0054A5"/>
<path d="M165.261 32.4864H164.006V39.8208H165.261V32.4864Z" fill="#0054A5"/>
<path d="M175.45 35.84L173.427 32.4864H172.301H171.878H166.093V33.6H168.474V39.8208H169.728V33.6H172.301V33.1392L174.784 36.9536V39.8208H176.051V37.0048L178.944 32.4864H177.51L175.45 35.84Z" fill="#0054A5"/>
<path d="M187.686 35.5328H184.563V32.4864H183.309V39.8208H184.563V36.6336H187.686V39.8208H188.941V32.4864H187.686V35.5328Z" fill="#0054A5"/>
<path d="M193.6 32.3072C192.896 32.3072 191.885 32.4736 191.117 33.3056C190.489 33.984 190.169 34.9568 190.169 36.2112C190.169 38.656 191.36 40 193.523 40C195.686 40 196.953 38.5792 196.953 36.096C196.953 33.6128 195.737 32.3072 193.6 32.3072ZM193.549 38.8992C192.883 38.8992 192.384 38.6944 192.064 38.2976C191.667 37.8112 191.462 37.0816 191.462 36.1472C191.462 34.3168 192.179 33.3952 193.6 33.3952C195.021 33.3952 195.635 34.2784 195.635 36.0832C195.635 36.6336 195.545 37.6576 195.021 38.2976C194.688 38.6944 194.189 38.8992 193.549 38.8992Z" fill="#0054A5"/>
<path d="M202.765 36.1344C202.342 35.8528 202.15 35.8016 200.64 35.4304L200.409 35.3792C199.488 35.1616 199.219 34.9568 199.219 34.4576C199.219 33.8304 199.757 33.4464 200.665 33.4464C201.574 33.4464 201.997 33.7536 202.035 34.4064V34.5344H203.2L203.341 34.5088V34.3552C203.315 34.048 203.277 33.5488 202.867 33.1008C202.265 32.4608 201.293 32.3712 200.768 32.3712C199.347 32.3712 197.913 33.0496 197.913 34.5728C197.913 35.2128 198.182 35.712 198.707 36.0704C199.091 36.3264 199.603 36.4544 200.691 36.7232C201.766 36.992 202.227 37.12 202.227 37.7856C202.227 38.0544 202.112 38.912 200.691 38.912C199.155 38.912 199.117 38.08 199.104 37.632V37.504H197.811V37.632C197.811 37.9648 197.811 38.5792 198.259 39.1552C198.848 39.8976 199.961 40 200.576 40C202.368 40 203.533 39.0784 203.533 37.6576C203.533 36.992 203.264 36.4672 202.765 36.1344Z" fill="#0054A5"/>
<path d="M207.257 32.4864H204.736V39.8208H205.99V36.6848H207.014C208.345 36.6848 208.857 36.4416 209.267 36.0448C209.664 35.648 209.869 35.1488 209.869 34.5728C209.869 33.9968 209.677 33.4848 209.305 33.1136C208.781 32.5376 208.128 32.4992 207.257 32.4992M207.04 35.6096H206.003V33.5616H207.257C207.923 33.5616 208.563 33.6384 208.563 34.5344C208.563 35.52 207.782 35.6096 207.053 35.6096" fill="#0054A5"/>
<path d="M212.045 32.4864H210.778V39.8208H212.045V32.4864Z" fill="#0054A5"/>
<path d="M218.893 32.4864H212.864V33.6H215.258V39.8208H216.499V33.6H218.893V32.4864Z" fill="#0054A5"/>
<path d="M222.336 32.4864H221.094L217.971 39.8208H219.277L220.045 37.9776H223.181L223.949 39.8208H225.318L222.349 32.576L222.31 32.4864H222.336ZM222.797 36.9152H220.493L221.67 33.9584L222.797 36.9152Z" fill="#0054A5"/>
<path d="M227.264 38.6816V32.4864H226.022V39.8208H230.592V38.6816H227.264Z" fill="#0054A5"/>
<path d="M102.899 20.6464H125.082V27.5712H129.843V16.9984H102.899V20.6464Z" fill="#0054A5"/>
<path d="M35.7886 25.1264C35.7886 25.984 36.0446 26.6112 36.531 27.0208C36.979 27.392 37.6574 27.584 38.5534 27.584H59.4942C60.403 27.584 61.0558 27.4048 61.4654 27.0336C61.9902 26.6496 62.259 26.0096 62.259 25.1392V16.6912H35.7886V25.1392V25.1264ZM40.5502 20.3392H57.5102V23.9104H40.5502V20.3392Z" fill="#0054A5"/>
<path d="M210.419 20.6336H215.155V14.9504H225.344V17.088H218.342V20.6464H229.325C229.709 20.6464 230.067 20.3008 230.067 19.904V1.98403H225.344V11.4048H220.531C221.363 10.4064 221.811 9.26723 221.811 7.94883C221.811 6.25923 221.107 4.78723 219.737 3.59683C218.483 2.52163 216.883 1.80483 215.001 1.47203C214.336 1.34403 213.619 1.28003 212.877 1.28003C211.699 1.28003 210.867 1.43363 210.829 1.43363C208.87 1.79203 207.245 2.52163 205.965 3.59683C204.582 4.80003 203.878 6.25923 203.878 7.94883C203.878 9.28003 204.326 10.4192 205.158 11.4048H200.742V14.9632H210.419V20.6464V20.6336ZM209.459 5.61923C210.419 4.97923 211.558 4.64643 212.838 4.64643C214.118 4.64643 215.181 4.97923 216.153 5.61923C217.139 6.25923 217.638 7.05283 217.638 7.96163C217.638 8.87043 217.139 9.62563 216.153 10.2656C215.193 10.9312 214.067 11.264 212.851 11.264C211.635 11.264 210.445 10.9312 209.472 10.2656C208.499 9.63843 207.987 8.85763 207.987 7.96163C207.987 7.06563 208.499 6.25923 209.472 5.61923" fill="#0054A5"/>
<path d="M103.949 10.7264C104.333 12.1216 105.177 13.2992 106.406 14.1312C107.072 14.592 107.853 14.9504 108.697 15.1936C109.542 15.424 110.438 15.5776 111.347 15.6288C111.769 15.6544 112.192 15.6672 112.627 15.6672C113.293 15.6672 113.945 15.6288 114.547 15.5648C115.712 15.424 116.608 15.1936 117.376 14.8736C117.888 14.656 118.349 14.4128 118.745 14.144C119.961 13.312 120.819 12.1344 121.19 10.7392C121.638 9.13918 121.305 7.57758 120.32 6.41278H123.43V2.75198H114.931V0.435181H110.182V2.76478H101.696V6.41278H104.806C103.833 7.57758 103.501 9.13918 103.936 10.7392M115.968 11.6864C115.136 12.3008 113.984 12.608 112.563 12.608C111.142 12.608 109.99 12.3008 109.158 11.6864C108.288 11.0592 107.609 9.80478 107.955 8.65278C108.352 7.33438 109.696 6.29758 111.283 6.09278C111.283 6.09278 111.833 6.00318 112.576 6.00318C113.024 6.00318 113.446 6.04158 113.856 6.09278C115.187 6.29758 116.723 7.16798 117.184 8.65278C117.542 9.81758 116.851 11.0592 115.981 11.6992" fill="#0054A5"/>
<path d="M158.502 1.9712H138.214V5.6448H157.696C157.696 5.6448 159.629 5.76 159.629 7.7824V22.6176H154.739V12.48H149.978V22.6176H146.01V12.48H141.274V22.6176H136.422V26.2528H164.352V7.744C164.352 1.7408 158.502 1.9712 158.502 1.9712Z" fill="#0054A5"/>
<path d="M191.949 4.13441H186.317V1.98401H181.594V5.03041H173.12V1.98401H168.384V12.1856C168.384 12.1856 168.179 14.8992 171.11 14.8992H186.304V12.4544H191.936V15.7312H196.659V1.98401H191.936V4.13441H191.949ZM181.606 11.4944H173.146V8.44801H181.606V11.4944ZM191.949 9.06241H186.317V7.51361H191.949V9.06241Z" fill="#0054A5"/>
<path d="M208 23.9616V17.7792H203.277V25.1008C203.277 25.1008 202.995 27.5712 206.054 27.5712H230.464V23.9616H208.013H208Z" fill="#0054A5"/>
<path d="M86.6817 2.62401V18.112H76.3777C74.1889 18.112 74.3553 16.1536 74.3553 16.1536V5.64481H83.1361V1.98401H69.5809V15.8976C69.5809 15.8976 69.2481 21.7728 75.9169 21.7728H86.6689V27.584H91.0465V5.64481H93.4657V27.5712H97.8689V1.98401H87.4369C87.0529 1.98401 86.6689 2.26561 86.6689 2.62401" fill="#0054A5"/>
<path d="M125.082 2.66241V14.6048H129.843V5.64481H133.99V1.98401H125.798C125.427 1.98401 125.082 2.29121 125.082 2.67521" fill="#0054A5"/>
<path d="M57.5233 2.72641V10.9312H40.5889C38.5281 10.9312 38.7201 9.12641 38.7201 9.12641V1.98401H33.9585V9.26721C33.9585 9.26721 33.7793 14.6304 39.9745 14.6304H62.2721V5.64481H66.4193V1.98401H58.2401C57.8177 1.98401 57.5105 2.32961 57.5105 2.73921" fill="#0054A5"/>
<path d="M8.52459 6.6304C7.62859 6.7456 6.02859 6.8992 4.28779 6.9504C3.26379 6.976 2.50859 6.9376 1.33099 6.9504V10.1632C2.52139 10.1504 3.46859 10.1888 4.55659 10.1632C6.32299 10.112 7.88459 9.984 8.92139 9.8688C11.8526 9.536 14.1694 8.5376 15.1806 7.68C16.1918 8.5248 18.5086 9.536 21.4526 9.8688C22.4894 9.984 24.0382 10.1248 25.8046 10.1632C26.9054 10.1888 27.8526 10.1504 29.043 10.1632V6.9504C27.8654 6.9376 27.1102 6.976 26.0862 6.9504C24.3454 6.8992 22.7582 6.7584 21.8494 6.6304C20.2238 6.4384 19.059 5.9392 18.6238 5.504H29.2734V2.24H17.5614V0H12.8254V2.24H1.10059V5.504H11.7502C11.315 5.9392 10.163 6.4384 8.52459 6.6304Z" fill="#0054A5"/>
<path d="M0 14.1952H12.8256V15.808C10.8288 16.1536 9.152 16.8448 7.8464 17.8432C6.3616 19.008 5.6192 20.416 5.6192 22.0416C5.6192 23.9872 6.6176 25.5104 8.64 26.7392C10.4576 27.8528 12.6976 28.416 15.2832 28.416C17.8688 28.416 19.9296 27.8528 21.76 26.7392C23.7824 25.4976 24.7808 23.9616 24.7808 22.0416C24.7808 20.416 24.0384 18.9952 22.5536 17.8432C21.2352 16.8192 19.5584 16.1408 17.5744 15.7952V14.1824H30.4V10.752H0V14.1824V14.1952ZM19.968 22.0544C19.968 22.848 19.4688 23.5264 18.4832 24.0896C17.5104 24.6784 16.3968 24.9728 15.168 24.9728C13.9392 24.9728 12.7616 24.6784 11.7888 24.0896C10.8032 23.5392 10.304 22.848 10.304 22.0672C10.304 21.2864 10.8032 20.5696 11.7888 19.9936C12.7616 19.4304 13.888 19.136 15.168 19.136C16.448 19.136 17.5104 19.4304 18.4832 19.9936C19.4688 20.5696 19.968 21.2736 19.968 22.0672" fill="#0054A5"/>
<path d="M193.997 17.8432C192.653 16.8064 190.95 16.1152 188.954 15.7824C188.25 15.6672 187.469 15.6032 186.675 15.6032C185.421 15.6032 184.525 15.7568 184.487 15.7568C182.4 16.1024 180.647 16.8064 179.29 17.8432C177.818 19.008 177.062 20.416 177.062 22.0544C177.062 23.9872 178.048 25.5232 180.083 26.752C181.901 27.8656 184.141 28.4288 186.727 28.4288C189.312 28.4288 191.373 27.8656 193.19 26.752C195.226 25.5104 196.198 23.9744 196.198 22.0544C196.198 20.4288 195.456 19.008 193.984 17.8432M189.927 24.0768C188.954 24.6656 187.84 24.96 186.611 24.96C185.382 24.96 184.205 24.6656 183.232 24.0768C182.259 23.5264 181.747 22.8352 181.747 22.0544C181.747 21.2736 182.246 20.5568 183.232 19.9808C184.205 19.4176 185.331 19.1232 186.611 19.1232C187.891 19.1232 188.967 19.4176 189.927 19.9808C190.912 20.5568 191.411 21.2608 191.411 22.0544C191.411 22.848 190.912 23.5264 189.927 24.0896" fill="#0054A5"/>
</g>
<defs>
<clipPath id="clip0_621_1838">
<rect width="230.592" height="40" fill="white"/>
</clipPath>
</defs>
</svg>
