<svg width="260" height="50" viewBox="0 0 260 50" fill="none" xmlns="http://www.w3.org/2000/svg">
<g clip-path="url(#clip0_1405_3224)">
<path d="M118.155 29.2372C116.638 27.862 114.788 27.1643 112.648 27.1643C110.507 27.1643 108.658 27.862 107.14 29.2372C105.616 30.6191 104.844 32.3059 104.844 34.2501C104.844 36.1943 105.616 37.881 107.14 39.2697C108.658 40.6381 110.507 41.3291 112.648 41.3291C114.788 41.3291 116.644 40.6381 118.155 39.2697C119.679 37.881 120.451 36.1943 120.451 34.2501C120.451 32.3059 119.679 30.6191 118.155 29.2372ZM115.039 37.3052C114.389 38.0978 113.582 38.5042 112.648 38.5042C111.713 38.5042 110.913 38.0978 110.27 37.3052C109.62 36.4991 109.288 35.4694 109.288 34.2501C109.288 33.0307 109.62 32.0011 110.27 31.2017C110.913 30.4024 111.72 29.9959 112.648 29.9959C113.576 29.9959 114.389 30.4024 115.039 31.2017C115.703 32.0011 116.035 33.0239 116.035 34.2501C116.035 35.4762 115.703 36.5059 115.039 37.3052Z" fill="#231F20"/>
<path d="M120.241 10.7168H114.375V12.241H115.032C115.384 12.241 115.642 12.3765 115.811 12.6474C115.987 12.9319 116.075 13.2232 116.075 13.5213V25.349C116.089 26.7309 117.024 27.8486 118.162 27.8486C119.3 27.8486 120.241 26.7241 120.241 25.3354C120.241 25.3354 120.241 20.2616 120.241 19.7535H123.927V17.159H120.241V10.7168Z" fill="#231F20"/>
<path d="M142.602 10.7168V12.241H143.26C143.612 12.241 143.869 12.3765 144.039 12.6474C144.215 12.9319 144.303 13.2232 144.303 13.5213V38.8498C144.31 40.2318 145.244 41.3631 146.389 41.3631C147.534 41.3631 148.469 40.2318 148.469 38.8498V10.7168H142.596H142.602Z" fill="#231F20"/>
<path d="M126.833 12.6541V15.235H135.558C135.558 17.4298 135.287 19.645 134.853 21.0269L134.731 21.413C134.318 22.7475 133.959 23.8991 133.248 24.8611C132.171 26.3311 131.229 27.4014 129.861 28.1669C128.452 28.9527 126.989 29.542 125.491 29.901L125.085 30.0026L126.941 32.3872L127.056 32.3601C128.58 32.0755 130.166 31.493 131.771 30.6326C133.417 29.7452 134.907 28.4988 136.195 26.9272C137.292 25.5588 138.2 23.9059 138.877 22.0092C139.561 20.1124 139.907 17.8905 139.907 15.4111V12.6541H126.826H126.833Z" fill="#231F20"/>
<path d="M152.581 19.7805L154.491 22.7611L154.566 22.8831L154.694 22.8695C159.402 22.3411 162.674 19.7195 164.036 17.6399C164.036 17.6399 164.111 17.5315 164.185 17.4095C164.239 17.4841 164.307 17.5653 164.388 17.667C164.815 18.3512 168.331 22.3479 173.723 22.8695H173.845L176.128 19.3199L175.66 19.2928C174.922 19.2928 174.062 19.2182 173.113 19.0828C172.145 18.9473 171.183 18.7034 170.255 18.3579C169.137 17.9312 168.446 17.3012 167.667 16.5221C166.874 15.7363 166.481 14.6863 166.481 13.3925V10.2493H160.683V11.7735H161.055C161.32 11.7735 161.523 11.8818 161.685 12.1054C161.855 12.3357 161.936 12.6134 161.936 12.9522V13.0741C161.936 14.456 161.55 15.716 160.9 16.4408C160.195 17.2334 159.606 17.8363 158.556 18.2631C157.648 18.6424 156.659 18.9134 155.616 19.0692C154.573 19.2115 153.617 19.286 152.764 19.2928H152.459L152.534 19.5705L152.581 19.7805Z" fill="#231F20"/>
<path d="M203.17 20.0514H199.952V14.1579H203.17V11.5769H182.306V14.1579H185.435V20.0514H182.306V22.6526H203.17V20.0514ZM195.8 14.1579V20.0514H189.581V14.1579H195.8Z" fill="#231F20"/>
<path d="M216.799 20.8914C217.87 22.9846 220.979 26.0533 223.323 26.2904H223.431L225.511 23.7772L225.05 23.6959C223.513 23.4588 219.123 21.3047 219.123 14.7134V14.3747C219.123 14.3747 219.123 14.2663 219.123 14.1579H223.702V11.6921H209.91V14.1579H214.483V14.3679V14.7134C214.483 21.3047 210.093 23.4656 208.555 23.6959L208.088 23.7704L210.174 26.2972H210.283C212.627 26.0533 215.736 22.9846 216.806 20.8914H216.799Z" fill="#231F20"/>
<path d="M227.591 12.6474C227.761 12.9319 227.856 13.2232 227.856 13.5213V24.5361L227.849 24.6038C227.849 25.979 228.797 27.1035 229.956 27.1035C231.114 27.1035 232.022 25.9857 232.028 24.6106V10.7168H231.798H226.148V12.241H226.806C227.158 12.241 227.415 12.3765 227.585 12.6474H227.591Z" fill="#231F20"/>
<path d="M239.839 21.4538C241.126 22.6799 242.718 23.3031 244.574 23.3031C246.43 23.3031 248.029 22.6799 249.329 21.4538C250.63 20.2141 251.287 18.6764 251.287 16.8745C251.287 15.0725 250.63 13.528 249.329 12.3019C248.035 11.069 246.43 10.4458 244.574 10.4458C242.718 10.4458 241.126 11.069 239.839 12.3019C238.545 13.5348 237.888 15.0793 237.888 16.8745C237.888 18.6696 238.545 20.2209 239.839 21.4538ZM242.819 14.1648C243.3 13.4332 243.89 13.0674 244.581 13.0674C245.272 13.0674 245.868 13.4332 246.355 14.1513C246.85 14.8761 247.094 15.7838 247.094 16.8338C247.094 17.8838 246.85 18.8119 246.355 19.5638C245.868 20.309 245.272 20.6815 244.581 20.6815C243.89 20.6815 243.307 20.3157 242.819 19.5841C242.338 18.8457 242.094 17.9312 242.094 16.8745C242.094 15.8177 242.338 14.91 242.819 14.1716V14.1648Z" fill="#231F20"/>
<path d="M254.674 12.5728C254.85 12.8505 254.938 13.1418 254.938 13.4399V27.6385H249.851V30.2398H254.938V32.2585C254.938 33.6539 255.886 34.7785 257.045 34.7785C258.203 34.7785 259.124 33.6539 259.124 32.2652V32.2517C259.124 32.2517 259.124 32.2314 259.124 32.2178V10.7031H253.238V12.1663H253.895C254.247 12.1663 254.498 12.3018 254.674 12.5796V12.5728Z" fill="#231F20"/>
<path d="M242.799 28.8647C242.799 30.3279 243.72 31.466 244.885 31.466C246.051 31.466 246.979 30.3211 246.979 28.8647L246.965 28.7495V26.5683H253.733V23.9873H235.971V26.5683H242.792V28.8647H242.799Z" fill="#231F20"/>
<path d="M91.9184 20.424C92.0674 19.7736 92.1487 18.744 92.1487 17.3553V12.1188L92.0878 11.7734L91.8033 11.6853H72.2598V14.2866H87.4543C87.6507 14.2866 87.7862 14.3204 87.8471 14.3882C87.9013 14.4492 87.9284 14.5846 87.9284 14.7879V16.373C87.9284 17.572 87.881 19.2249 87.7726 20.0311C87.7252 20.3833 87.5355 21.5688 87.1155 22.3275H69.5908V24.9288H80.1178V30.0839H72.7408V32.6784H87.5084C87.6439 32.6784 87.7523 32.8071 87.7523 32.9629V38.7887C87.7523 40.1842 88.6939 41.3154 89.8387 41.3154C90.9836 41.3154 91.9252 40.1909 91.9252 38.8022V38.5855C91.9252 37.2645 91.9116 30.3684 91.9116 30.3684V30.0907C91.9116 30.0907 84.7175 30.0907 84.2839 30.0907V24.9355H94.7568V22.3343H91.2681C91.5052 21.9075 91.722 21.291 91.9252 20.4172L91.9184 20.424Z" fill="#231F20"/>
<path d="M111.834 24.9152C112.248 24.4546 112.458 23.7704 112.458 22.883V11.6853H106.991V13.3314H107.39C107.655 13.3314 107.865 13.4127 108.027 13.5821C108.19 13.7446 108.264 13.975 108.264 14.2866V16.1359H102.865V12.0037H97.4189V13.6837H97.8186C98.076 13.6837 98.2928 13.7717 98.4554 13.9343C98.6112 14.0969 98.6925 14.3272 98.6925 14.6388V22.8694C98.6925 23.7568 98.9025 24.441 99.3157 24.9017C99.7289 25.3555 100.305 25.5926 101.023 25.5926H110.134C110.852 25.5926 111.428 25.3623 111.841 24.9017L111.834 24.9152ZM108.264 18.7372V22.7543C108.264 22.8965 108.17 23.0117 108.048 23.0252H103.069C102.967 23.0117 102.872 22.8897 102.872 22.7407C102.872 22.7407 102.872 19.2249 102.872 18.7372H108.271H108.264Z" fill="#231F20"/>
<path d="M245.963 38.0706C245.827 38.0706 245.719 37.9419 245.719 37.7861V32.0823H239.839V33.5997H240.496C240.848 33.5997 241.112 33.7148 241.282 33.9519C241.458 34.189 241.539 34.4736 241.539 34.819V37.9555C241.539 38.8835 241.742 39.5745 242.135 40.0216C242.528 40.4619 243.131 40.6787 243.924 40.6787H259.409V38.0706H245.963Z" fill="#231F20"/>
<path d="M219.13 38.0775C219.002 38.0775 218.9 37.9556 218.893 37.793C218.893 37.793 218.893 35.9843 218.893 35.5372H231.324C231.703 35.5372 232.022 35.1578 232.028 34.6972V28.8376C232.028 28.3701 231.71 27.9976 231.324 27.9976H213.813H213.582V30.5785H227.849V32.9495H213.298V34.3924H213.677C214.029 34.3924 214.287 34.5075 214.456 34.7514C214.632 34.9817 214.714 35.273 214.714 35.6049V37.8607C214.714 38.8768 214.897 39.6017 215.256 40.0217C215.608 40.4349 216.218 40.6449 217.078 40.6449H232.306V38.0775H219.13Z" fill="#231F20"/>
<path d="M179.637 24.7256V27.3065H190.651V29.9552H181.879V31.791H182.536C182.882 31.791 183.146 31.9062 183.322 32.1433C183.498 32.3804 183.579 32.6649 183.579 33.0036V37.7861C183.579 38.6871 183.81 39.3781 184.277 39.8997C184.738 40.4145 185.334 40.6719 186.059 40.6719H200.217C200.941 40.6719 201.538 40.4145 201.998 39.8997C202.459 39.3848 202.689 38.6736 202.689 37.7861V30.3685L202.649 30.0568L202.486 29.9959L202.337 29.962H194.824V27.3133H205.805V24.7324H179.637V24.7256ZM187.982 32.5497H198.3C198.428 32.5497 198.53 32.6717 198.537 32.8275V37.82C198.537 37.9555 198.428 38.0774 198.306 38.0842H187.969C187.847 38.0842 187.745 37.9487 187.745 37.7929L187.732 32.841C187.745 32.6784 187.847 32.5497 187.982 32.5497Z" fill="#231F20"/>
<path d="M151.578 24.1294V26.7239H162.051V28.8239H154.41V31.4319H169.401V33.4303H154.125V34.9545H154.498C154.85 34.9545 155.107 35.0696 155.277 35.3067C155.446 35.5438 155.534 35.8351 155.534 36.1738V37.8877C155.534 38.9038 155.717 39.6286 156.076 40.0486C156.428 40.4619 157.045 40.6786 157.898 40.6786H173.838V38.0841H159.944C159.815 38.0841 159.707 37.9554 159.707 37.7929V36.0113H172.896C173.282 35.9571 173.553 35.6048 173.553 35.178V28.8307H166.224V26.7307H176.703V24.1362H151.571L151.578 24.1294Z" fill="#231F20"/>
<path d="M2.97385 3.94266H30.1653V0.975586H2.92643C1.31419 0.975586 0 2.283 0 3.89524V9.19263C0 10.8049 1.30741 12.1191 2.92643 12.1191H9.93768V32.4686C9.93768 34.0876 11.2451 35.395 12.8573 35.395V35.3815H21.0744V32.4212H12.9048V9.15199H2.97385V3.94944V3.94266Z" fill="#ED1C24"/>
<path d="M61.6517 18.1818C61.6517 8.14253 53.5092 0 43.4699 0C33.4306 0 25.2881 8.14253 25.2881 18.1818C25.2881 28.2211 33.4306 36.3636 43.4699 36.3636C47.3786 36.3636 51.0028 35.124 53.9698 33.024L56.3069 35.9301L58.6305 34.0604L56.2595 31.1069C59.5856 27.8079 61.6585 23.2421 61.6585 18.1818H61.6517ZM43.4699 33.4033C35.0632 33.4033 28.2484 26.5885 28.2484 18.1818C28.2484 9.7751 35.07 2.9603 43.4767 2.9603C51.8834 2.9603 58.6914 9.7751 58.6914 18.1818C58.6914 22.3073 57.0453 26.0398 54.3831 28.7834L53.1773 27.2795L50.8537 29.1492L52.1069 30.714C49.6547 32.4143 46.6808 33.4101 43.4699 33.4101V33.4033Z" fill="#2E3192"/>
<path d="M52.6085 18.2022C52.6085 23.2286 48.5372 27.2999 43.5108 27.2999C38.4844 27.2999 34.4131 23.2286 34.4131 18.2022C34.4131 13.1758 38.4844 9.10449 43.5108 9.10449C48.5372 9.10449 52.6085 13.1758 52.6085 18.2022Z" fill="url(#paint0_radial_1405_3224)"/>
<path d="M16.1157 39.2155H9.52441C9.78861 39.5745 9.93764 40.1571 9.93764 40.8549V47.6832C9.93764 48.3606 9.8699 49.1464 9.6057 49.6003H15.5805C19.9227 49.6003 23.0727 47.3242 23.0727 44.1945C23.0727 40.252 18.5205 39.2087 16.1089 39.2087L16.1157 39.2155ZM20.8847 44.4655C20.8847 44.4655 20.8711 44.5535 20.8847 44.54C20.8305 48.0084 17.0708 48.9229 15.0928 48.9229C13.8057 48.9229 12.2544 48.8077 12.2408 48.8077L11.997 48.7942V40.1165L12.2408 40.1029C12.2408 40.1029 13.8057 39.9878 15.0928 39.9878C17.8905 39.9878 20.8914 41.1597 20.8914 44.4452V44.4655H20.8847Z" fill="#231F20"/>
<path d="M33.207 40.34V39.2019H22.7139V40.34C24.5632 40.1638 27.1103 40.1367 27.1103 40.1367V45.7457C27.1103 48.618 26.9951 48.977 26.9613 49.607H29.278C29.2374 48.8077 29.129 48.5502 29.129 45.7457V40.1435C29.129 40.1435 31.168 40.1096 33.207 40.34Z" fill="#231F20"/>
<path d="M39.7299 48.6654C39.757 48.6993 40.1702 49.6815 41.3218 49.6815C42.1889 49.6815 42.6428 49.3496 42.785 49.2209V49.0719C42.5615 49.0719 42.2634 49.038 42.0128 48.8957C41.7147 48.7196 41.5657 48.4419 41.5657 48.0625V43.6187C41.5657 42.1961 40.0483 40.9971 38.2531 40.9971C36.458 40.9971 35.3944 41.5119 34.1006 42.4671C34.1141 42.4806 34.5951 42.9751 34.6831 43.0496C34.9948 42.7042 36.1667 41.7422 37.4334 41.7422C39.0525 41.7422 39.5741 42.5484 39.5741 43.2122C39.5741 43.6932 38.9238 44.1538 37.928 44.3977C37.1354 44.5874 34.1209 45.3257 33.6602 46.8025C33.4367 47.5273 33.579 48.4148 34.2293 49.0041C34.7577 49.4851 35.4689 49.756 36.187 49.756C37.8264 49.756 39.3031 48.6654 39.3573 48.6248L39.5809 48.4486L39.7299 48.6722V48.6654ZM39.5876 47.0328C39.5876 48.1506 38.4293 48.7128 37.4605 48.7128C35.9499 48.7128 35.2725 48.0625 35.2725 47.1074C35.2725 46.5722 35.7738 45.6306 37.1625 45.2309C38.4767 44.8448 39.2218 44.689 39.2218 44.689L39.4725 44.628L39.5876 44.6077V47.0328Z" fill="#231F20"/>
<path d="M50.8467 49.7154C50.8467 49.7154 50.9009 49.7154 50.9076 49.7154L51.7409 49.6883C54.4234 49.6409 57.6073 49.9389 58.2982 50.0067C58.3389 49.9457 59.2669 48.6315 59.4227 48.4148C58.6166 48.4757 57.5734 48.5231 56.3134 48.5502L55.6834 48.5638L56.1576 48.2115C57.4989 47.2157 58.2373 45.7999 58.2373 44.2283C58.2373 41.0038 55.2228 38.748 50.9009 38.748C46.579 38.748 43.5645 41.0038 43.5645 44.2283C43.5645 47.4528 46.5586 49.7018 50.8467 49.7222V49.7154ZM50.9009 39.4255C53.9763 39.4255 56.1305 41.4035 56.1305 44.2216C56.1305 47.0396 53.9763 49.0244 50.9009 49.0244C47.8254 49.0244 45.6712 47.0464 45.6712 44.2216C45.6712 41.3967 47.8254 39.4255 50.9009 39.4255Z" fill="#231F20"/>
<path d="M49.6817 30.2669C49.6817 30.9037 46.9314 31.4185 43.5308 31.4185C40.1302 31.4185 37.3799 30.9037 37.3799 30.2669C37.3799 29.6301 40.1302 29.1221 43.5308 29.1221C46.9314 29.1221 49.6817 29.6369 49.6817 30.2669Z" fill="url(#paint1_radial_1405_3224)"/>
</g>
<defs>
<radialGradient id="paint0_radial_1405_3224" cx="0" cy="0" r="1" gradientUnits="userSpaceOnUse" gradientTransform="translate(40.4399 13.0744) scale(12.2788 12.2788)">
<stop stop-color="white"/>
<stop offset="0.51" stop-color="#00AEEF"/>
<stop offset="1" stop-color="#2E3192"/>
</radialGradient>
<radialGradient id="paint1_radial_1405_3224" cx="0" cy="0" r="1" gradientUnits="userSpaceOnUse" gradientTransform="translate(43.4961 29.6339) scale(14.8338 2.78133)">
<stop stop-color="#034EA2"/>
<stop offset="0.7" stop-color="white"/>
</radialGradient>
<clipPath id="clip0_1405_3224">
<rect width="259.409" height="50" fill="white"/>
</clipPath>
</defs>
</svg>
