<svg width="96" height="90" viewBox="0 0 96 90" fill="none" xmlns="http://www.w3.org/2000/svg">
<g clip-path="url(#clip0_621_2017)">
<path d="M69.8193 5.98498V49.0489H78.6652V2.82709C76.3983 4.31581 73.3306 5.43235 69.8193 5.98498Z" fill="#00A0B0"/>
<path d="M64.8006 6.37595C61.8682 6.37595 59.1051 5.99249 56.6577 5.3158V49.0489H65.5036V6.36467C65.2705 6.37219 65.0337 6.37595 64.8006 6.37595Z" fill="#007D9B"/>
<path d="M17.1729 2.78949V49.0489H26.015V5.97746C22.4999 5.41731 19.4323 4.28949 17.1729 2.78949Z" fill="#00A0B0"/>
<path d="M47.9397 0C46.9848 1.40602 45.4547 2.65789 43.4961 3.67293V49.0639L47.8908 50.8872L52.3382 49.0526V3.64662C50.4059 2.63534 48.8833 1.39474 47.9359 0H47.9397Z" fill="#004F72"/>
<path d="M31.0901 6.37592C30.8382 6.37592 30.5826 6.3684 30.3345 6.36465V49.0489H39.1803V5.33081C36.748 5.99622 34.0036 6.37592 31.0901 6.37592Z" fill="#007D9B"/>
<path d="M45.7856 62.7669H43.2367V65.5564H38.0262V62.7368H29.8081V65.2894H35.4735L35.481 70.921H31.0261V78.6842H46.748V70.921H45.7893V62.7631L45.7856 62.7669ZM38.0262 68.109H43.2367V70.921H38.0262V68.109ZM33.575 76.1315V73.4699H44.1953V76.1315H33.575Z" fill="#231F20"/>
<path d="M51.6955 76.2218V75.1504H64.9586V69.5789H63.9248V67.703H65.9248V65.1504H63.9248V62.8045H61.3722V69.5789H58.6917L59.8684 67.624L56.4662 65.6804H59.5714V63.124H55.3684V61.4699H52.812V63.124H48.8647V65.6804H51.7895L48.4624 67.6729L49.8233 69.8346L54.1053 67.1391L58.1504 69.5789H50.6466V71.8496H62.1241V72.9098H48.8647V78.7068H66.0038V76.2218H51.6955Z" fill="#231F20"/>
<path d="M0 89.8985V83.8647H2.27068C3.34211 83.8647 3.87594 84.4662 3.87594 85.6692C3.87594 86.8722 3.31579 87.4399 2.19549 87.4399H1.2594V89.8985H0ZM1.2594 84.7933V86.5151H1.96241C2.14662 86.5151 2.30075 86.4286 2.42105 86.2557C2.53759 86.1015 2.59774 85.9173 2.59774 85.703C2.59774 85.094 2.36466 84.7933 1.89474 84.7933H1.2594Z" fill="#231F20"/>
<path d="M6.70701 87.4023V89.9023H5.44385V83.8685H7.77467C8.21452 83.8685 8.56039 84.0038 8.80851 84.2782C9.06039 84.5527 9.18445 84.9437 9.18445 85.4549C9.18445 86.3234 8.81227 86.8196 8.06415 86.9437C8.79347 87.0339 9.15813 87.4286 9.15813 88.1316C9.15813 89.1128 9.20325 89.7031 9.30099 89.9023H8.06415C7.99272 89.7482 7.95137 89.5527 7.94009 89.3271C7.93633 89.282 7.93257 89.0865 7.93257 88.7331C7.93257 88.2482 7.90625 87.9361 7.84986 87.797C7.73332 87.5339 7.45889 87.4061 7.03031 87.4061H6.70325L6.70701 87.4023ZM6.70701 84.797V86.4775H7.26716C7.49648 86.4775 7.66565 86.376 7.77843 86.1767C7.86866 86.0226 7.91377 85.8271 7.91377 85.5903C7.91377 85.0602 7.69949 84.797 7.27092 84.797H6.71077H6.70701Z" fill="#231F20"/>
<path d="M12.9735 90C12.0487 90 11.4396 89.6767 11.1539 89.0301C10.981 88.6467 10.8945 87.9286 10.8945 86.8835C10.8945 85.8384 10.981 85.1128 11.1539 84.7294C11.4434 84.0903 12.0487 83.767 12.9735 83.767C13.8983 83.767 14.5036 84.0865 14.7968 84.7294C14.9697 85.1128 15.0562 85.8309 15.0562 86.8835C15.0562 87.9361 14.9697 88.6467 14.7968 89.0301C14.5073 89.6767 13.902 90 12.9735 90ZM12.9735 89.0978C13.3081 89.0978 13.5299 88.9211 13.6427 88.5715C13.7329 88.282 13.7742 87.7181 13.7742 86.8835C13.7742 86.0489 13.7291 85.485 13.6427 85.1955C13.5299 84.8459 13.3081 84.6692 12.9735 84.6692C12.6389 84.6692 12.4171 84.8459 12.3043 85.1955C12.2141 85.485 12.169 86.0489 12.169 86.8835C12.169 87.7181 12.2141 88.282 12.3043 88.5715C12.4171 88.9211 12.6389 89.0978 12.9735 89.0978Z" fill="#231F20"/>
<path d="M20.6392 88.2519C20.6392 88.9474 20.4061 89.4361 19.9475 89.7143C19.6242 89.9023 19.1543 89.9963 18.5377 89.9963C17.3385 89.9963 16.7407 89.4286 16.7407 88.2933C16.7407 88.2106 16.7407 88.1241 16.7482 88.0339H18.0114C18.0114 88.3948 18.0452 88.6429 18.1129 88.7782C18.2144 88.9887 18.4174 89.094 18.7294 89.094C19.1505 89.094 19.3648 88.8647 19.3648 88.4098C19.3648 88.1203 19.1467 87.8346 18.7031 87.5564C17.9137 87.0602 17.5039 86.8008 17.4813 86.7782C17.0415 86.4098 16.8197 85.97 16.8197 85.4587C16.8197 84.3271 17.4813 83.7632 18.8084 83.7632C20.0565 83.7632 20.6392 84.3684 20.564 85.5752H19.3347C19.3347 84.9662 19.1392 84.6654 18.7482 84.6654C18.3122 84.6654 18.0979 84.8797 18.0979 85.3083C18.0979 85.6166 18.3159 85.8985 18.7595 86.1617C19.5452 86.6316 19.9513 86.876 19.9813 86.8985C20.4212 87.2594 20.643 87.7106 20.643 88.2519H20.6392Z" fill="#231F20"/>
<path d="M25.733 89.8985H22.3721V83.8647H25.6653V84.7933H23.6352V86.282H25.5074V87.2105H23.6352V88.9737H25.733V89.9023V89.8985Z" fill="#231F20"/>
<path d="M29.4099 90C28.485 90 27.876 89.6767 27.5865 89.0301C27.4136 88.6467 27.3271 87.9286 27.3271 86.8835C27.3271 85.8384 27.4136 85.1128 27.5865 84.7294C27.876 84.0903 28.485 83.767 29.4099 83.767C30.6279 83.767 31.2144 84.4361 31.1655 85.7707H29.9287C29.9287 85.3685 29.8911 85.0865 29.8121 84.9173C29.7332 84.7519 29.6016 84.6655 29.4099 84.6655C29.0753 84.6655 28.8535 84.8422 28.7407 85.1918C28.6505 85.4813 28.6053 86.0452 28.6053 86.8797C28.6053 87.7143 28.6505 88.2782 28.7407 88.5677C28.8535 88.9173 29.0753 89.094 29.4099 89.094C29.658 89.094 29.8271 88.9512 29.9099 88.6579C29.9437 88.5301 29.97 88.267 29.985 87.8647H31.2294C31.2294 88.6467 31.0753 89.2031 30.7595 89.5376C30.4738 89.8422 30.0226 89.9963 29.4061 89.9963L29.4099 90Z" fill="#231F20"/>
<path d="M35.6844 83.8685H36.9475V88.1467C36.9475 88.6655 36.8009 89.0865 36.5039 89.4098C36.143 89.8046 35.6092 90.0038 34.8987 90.0038C34.1882 90.0038 33.7032 89.8384 33.3536 89.5038C33.0152 89.188 32.8423 88.7369 32.8423 88.1504V83.8722H34.1054V88.0677C34.1054 88.7594 34.3648 89.1016 34.8836 89.1016C35.4024 89.1016 35.6844 88.7557 35.6844 88.0677V83.8722V83.8685Z" fill="#231F20"/>
<path d="M38.3345 83.8685H42.4021V84.8722H40.9961V89.9023H39.7367V84.8722H38.3345V83.8685Z" fill="#231F20"/>
<path d="M45.0864 89.8985H43.8232V83.8647H45.0864V89.8985Z" fill="#231F20"/>
<path d="M49.0038 90C48.0789 90 47.4737 89.6767 47.1842 89.0301C47.0113 88.6467 46.9248 87.9286 46.9248 86.8835C46.9248 85.8384 47.0113 85.1128 47.1842 84.7294C47.4737 84.0903 48.0789 83.767 49.0038 83.767C49.9286 83.767 50.5376 84.0865 50.8271 84.7294C51 85.1128 51.0865 85.8309 51.0865 86.8835C51.0865 87.9361 51 88.6467 50.8271 89.0301C50.5376 89.6767 49.9323 90 49.0038 90ZM49.0038 89.0978C49.3383 89.0978 49.5601 88.9211 49.6729 88.5715C49.7632 88.282 49.8045 87.7181 49.8045 86.8835C49.8045 86.0489 49.7594 85.485 49.6729 85.1955C49.5601 84.8459 49.3383 84.6692 49.0038 84.6692C48.6692 84.6692 48.4474 84.8459 48.3346 85.1955C48.2444 85.485 48.1992 86.0489 48.1992 86.8835C48.1992 87.7181 48.2444 88.282 48.3346 88.5715C48.4436 88.9211 48.6692 89.0978 49.0038 89.0978Z" fill="#231F20"/>
<path d="M54.1013 89.8985H52.9321V83.8647H54.6464L56.2592 88.0414V83.8647H57.4284V89.8985H55.7592L54.1051 85.485V89.8985H54.1013Z" fill="#231F20"/>
<path d="M65.955 88.2519C65.955 88.9474 65.7219 89.4361 65.2633 89.7143C64.94 89.9023 64.47 89.9963 63.8497 89.9963C62.6505 89.9963 62.0527 89.4286 62.0527 88.2933C62.0527 88.2106 62.0527 88.1241 62.0603 88.0339H63.3234C63.3234 88.3948 63.3572 88.6429 63.4249 88.7782C63.5264 88.9887 63.7332 89.094 64.0452 89.094C64.47 89.094 64.6806 88.8647 64.6806 88.4098C64.6806 88.1203 64.4587 87.8346 64.0189 87.5564C63.2294 87.0602 62.8197 86.8008 62.8009 86.7782C62.361 86.4098 62.143 85.97 62.143 85.4587C62.143 84.3271 62.8046 83.7632 64.1317 83.7632C65.3798 83.7632 65.9625 84.3684 65.8873 85.5752H64.658C64.658 84.9662 64.4625 84.6654 64.0715 84.6654C63.6354 84.6654 63.4212 84.8797 63.4212 85.3083C63.4212 85.6166 63.6392 85.8985 64.079 86.1617C64.8648 86.6316 65.2708 86.876 65.2971 86.8985C65.7369 87.2594 65.9587 87.7106 65.9587 88.2519H65.955Z" fill="#231F20"/>
<path d="M71.049 89.8985H67.6919V83.8647H70.9814V84.7933H68.9513V86.282H70.8235V87.2105H68.9513V88.9737H71.049V89.9023V89.8985Z" fill="#231F20"/>
<path d="M73.9399 87.4023V89.9023H72.6768V83.8685H75.0076C75.4474 83.8685 75.7933 84.0038 76.0452 84.2782C76.2933 84.5527 76.4211 84.9437 76.4211 85.4549C76.4211 86.3234 76.0489 86.8196 75.3008 86.9437C76.0301 87.0339 76.3948 87.4286 76.3948 88.1316C76.3948 89.1128 76.4437 89.7031 76.5377 89.9023H75.3008C75.2294 89.7482 75.188 89.5527 75.1768 89.3271C75.1692 89.282 75.1692 89.0865 75.1692 88.7331C75.1692 88.2482 75.1392 87.9361 75.0865 87.797C74.97 87.5339 74.6956 87.4061 74.267 87.4061H73.9399V87.4023ZM73.9399 84.797V86.4775H74.5001C74.7294 86.4775 74.8986 86.376 75.0076 86.1767C75.0978 86.0226 75.1429 85.8271 75.1429 85.5903C75.1429 85.0602 74.9286 84.797 74.5001 84.797H73.9399Z" fill="#231F20"/>
<path d="M79.1879 89.8985L77.6992 83.8647H79.0113L79.9473 88.2519H79.9624L81.015 83.8647H82.2594L80.6616 89.8985H79.1842H79.1879Z" fill="#231F20"/>
<path d="M84.9287 89.8985H83.6655V83.8647H84.9287V89.8985Z" fill="#231F20"/>
<path d="M88.8459 90C87.9211 90 87.3158 89.6767 87.0226 89.0301C86.8497 88.6467 86.7632 87.9286 86.7632 86.8835C86.7632 85.8384 86.8497 85.1128 87.0226 84.7294C87.3121 84.0903 87.9211 83.767 88.8459 83.767C90.0677 83.767 90.6504 84.4361 90.6015 85.7707H89.3647C89.3647 85.3685 89.3271 85.0865 89.2481 84.9173C89.1692 84.7519 89.0376 84.6655 88.8459 84.6655C88.5113 84.6655 88.2895 84.8422 88.1767 85.1918C88.0865 85.4813 88.0414 86.0452 88.0414 86.8797C88.0414 87.7143 88.0865 88.2782 88.1767 88.5677C88.2857 88.9173 88.5113 89.094 88.8459 89.094C89.0978 89.094 89.2632 88.9512 89.3459 88.6579C89.3797 88.5301 89.406 88.267 89.4211 87.8647H90.6654C90.6654 88.6467 90.5113 89.2031 90.1993 89.5376C89.9136 89.8422 89.4662 89.9963 88.8459 89.9963V90Z" fill="#231F20"/>
<path d="M95.6656 89.8985H92.3047V83.8647H95.5979V84.7933H93.5678V86.282H95.44V87.2105H93.5678V88.9737H95.6656V89.9023V89.8985Z" fill="#231F20"/>
</g>
<defs>
<clipPath id="clip0_621_2017">
<rect width="95.6654" height="90" fill="white"/>
</clipPath>
</defs>
</svg>
