<svg width="100%" height="100%" viewBox="0 0 397 96" fill="none" xmlns="http://www.w3.org/2000/svg">
<g clip-path="url(#clip0_1331_2117)">
<path d="M41.3171 40.2978C45.8371 51.2478 40.6071 63.7978 29.6471 68.3178C18.6871 72.8378 6.14711 67.6178 1.62711 56.6578C-2.89289 45.6978 2.32711 33.1578 13.2871 28.6378C24.2371 24.1178 36.7871 29.3378 41.3171 40.2978Z" fill="url(#paint0_radial_1331_2117)"/>
<path style="mix-blend-mode:multiply" opacity="0.2" d="M41.3171 40.2978C45.8371 51.2478 40.6071 63.7978 29.6471 68.3178C18.6871 72.8378 6.14711 67.6178 1.62711 56.6578C-2.89289 45.6978 2.32711 33.1578 13.2871 28.6378C24.2371 24.1178 36.7871 29.3378 41.3171 40.2978Z" fill="url(#paint1_radial_1331_2117)"/>
<path d="M27.1272 37.5984C26.7872 37.5684 26.4672 37.5984 26.1472 37.6484C26.1072 37.6484 26.0672 37.6584 26.0272 37.6784C25.9672 37.6784 25.8972 37.7084 25.8472 37.7184C24.2972 38.1484 23.1372 39.3884 22.7972 41.2184C22.3972 43.5884 20.5172 45.3084 17.9872 45.3784C15.1972 45.2884 13.2672 43.2384 13.2572 40.5584C13.3972 38.1884 14.9672 36.4784 17.1872 35.9784C19.5072 35.5584 21.0772 33.8384 21.0872 32.2084C20.9472 30.4184 19.2272 29.4984 17.0372 29.6684C15.2172 29.8584 13.1072 31.1084 12.6672 32.8484C12.5872 33.2084 12.5972 33.5284 12.6672 33.8584C12.7372 34.1384 12.7572 34.4184 12.7072 34.7884C12.3972 36.4584 10.7972 38.0984 9.17721 38.4184C8.81721 38.4684 8.56721 38.4584 8.28721 38.3984C8.08721 38.3384 7.67721 38.3284 7.31721 38.3984C5.61721 38.8284 4.35721 40.8384 4.19721 42.7084C4.05721 44.9184 4.92721 46.6384 6.68721 46.7884C7.02721 46.7984 7.52721 46.6784 7.74721 46.5884C8.04721 46.4384 8.37721 46.3684 8.78721 46.3884C10.6072 46.4884 12.0872 48.1484 12.2472 50.2584C12.2672 50.7284 12.1672 51.1784 12.0572 51.5784C11.9972 51.8284 11.8072 52.5784 11.8372 53.1084C12.1072 55.6284 14.0772 57.3584 16.6872 57.5484C19.2972 57.5884 21.2872 55.9684 21.4272 53.3784C21.4272 52.8184 21.3172 52.3484 21.1572 51.8384C21.0372 51.4584 20.8372 50.8984 20.8272 50.4084C20.8372 48.0484 22.2572 46.5384 24.6172 46.4784C25.0872 46.4784 25.4772 46.5684 25.8972 46.6784C26.3872 46.8084 26.8472 46.9284 27.3672 46.9184C29.8572 46.7884 31.4172 44.8584 31.3872 42.3184C31.2172 39.7784 29.5672 37.8584 27.1372 37.6084" fill="url(#paint2_linear_1331_2117)"/>
<path d="M13.2868 28.6283C2.32683 33.1483 -2.88317 45.6983 1.62683 56.6483C2.68683 59.2183 4.18683 61.4583 5.99683 63.3383C10.9468 63.9083 16.4568 63.1883 21.8368 60.9783C33.2868 56.2883 40.4468 46.4083 39.7968 37.2983C34.3968 28.4183 23.1868 24.5383 13.2868 28.6283Z" fill="url(#paint3_linear_1331_2117)"/>
<path d="M223 35.5686H202.05V39.3586H222.16C222.16 39.3586 224.15 39.4686 224.15 41.5686V56.8886H219.11V46.4186H214.19V56.8886H210.1V46.4186H205.21V56.8886H200.2V60.6386H229.04V41.5286C229.04 35.3286 223 35.5686 223 35.5686Z" fill="#0054A6"/>
<path d="M276.39 54.8389H281.28V48.9789H291.8V51.1889H284.57V54.8589H295.92C296.32 54.8589 296.68 54.4989 296.68 54.0989V35.5889H291.8V45.3089H286.87C287.72 44.2789 288.15 43.0989 288.15 41.7389C288.15 39.9889 287.43 38.4789 286.01 37.2389C284.71 36.1289 283.07 35.3889 281.12 35.0389C280.44 34.9089 279.7 34.8389 278.92 34.8389C277.71 34.8389 276.84 34.9989 276.81 34.9989C274.79 35.3689 273.1 36.1189 271.79 37.2289C270.36 38.4689 269.64 39.9789 269.64 41.7289C269.64 43.0989 270.06 44.2789 270.91 45.2989H266.4V48.9689H276.4V54.8289L276.39 54.8389ZM275.38 44.1389C274.37 43.4889 273.85 42.6889 273.85 41.7689C273.85 40.8489 274.36 40.0089 275.38 39.3389C276.38 38.6789 277.55 38.3489 278.86 38.3489C280.17 38.3489 281.28 38.6789 282.28 39.3389C283.3 40.0089 283.81 40.8289 283.81 41.7689C283.81 42.7089 283.3 43.4889 282.28 44.1389C281.28 44.8189 280.13 45.1689 278.86 45.1689C277.59 45.1689 276.38 44.8189 275.37 44.1389H275.38Z" fill="#0054A6"/>
<path d="M273.891 58.2784V51.8984H269.001V59.4584C269.001 59.4584 268.721 62.0084 271.861 62.0084H297.071V58.2784H273.891Z" fill="#0054A6"/>
<path d="M148.84 36.2481V52.2481H138.2C135.93 52.2481 136.11 50.2181 136.11 50.2181V39.3581H145.19V35.5881H131.19V49.9581C131.19 49.9581 130.85 56.0181 137.73 56.0181H148.84V62.0081H153.36V39.3581H155.85V62.0081H160.39V35.5781H149.62C149.23 35.5781 148.83 35.8681 148.83 36.2381" fill="#0054A6"/>
<path d="M165.59 54.8589H188.48V62.0089H193.4V51.0889H165.59V54.8589Z" fill="#0054A6"/>
<path d="M166.67 44.6185C167.06 46.0585 167.94 47.2685 169.2 48.1285C169.89 48.6085 170.69 48.9685 171.57 49.2285C172.45 49.4685 173.36 49.6185 174.31 49.6785C174.75 49.7085 175.19 49.7285 175.63 49.7285C176.32 49.7285 176.99 49.6885 177.62 49.6085C178.82 49.4685 179.74 49.2385 180.54 48.8985C181.07 48.6685 181.55 48.4185 181.95 48.1385C183.22 47.2785 184.09 46.0585 184.48 44.6185C184.94 42.9685 184.6 41.3485 183.58 40.1485H186.79V36.3785H178.01V33.9785H173.12V36.3785H164.34V40.1485H167.56C166.55 41.3385 166.21 42.9685 166.66 44.6185H166.67ZM170.81 42.4485C171.22 41.0785 172.6 40.0185 174.25 39.8085C174.25 39.8085 174.82 39.7085 175.59 39.7085C176.05 39.7085 176.49 39.7385 176.91 39.8085C178.28 40.0185 179.87 40.9085 180.34 42.4485C180.71 43.6485 180 44.9285 179.1 45.5885C178.23 46.2185 177.05 46.5385 175.58 46.5385C174.11 46.5385 172.93 46.2185 172.06 45.5885C171.17 44.9385 170.45 43.6485 170.82 42.4485H170.81Z" fill="#0054A6"/>
<path d="M189.24 35.5781C188.85 35.5781 188.49 35.8981 188.49 36.2781V48.6081H193.41V39.3481H197.7V35.5781H189.25H189.24Z" fill="#0054A6"/>
<path d="M96.6106 59.4883C96.6106 60.3683 96.8706 61.0183 97.3806 61.4383C97.8506 61.8283 98.5506 62.0183 99.4706 62.0183H120.781C121.721 62.0183 122.391 61.8283 122.821 61.4483C123.361 61.0483 123.631 60.3983 123.631 59.4983V50.7783H96.6006V59.4983L96.6106 59.4883ZM101.531 54.5383H118.731V58.2383H101.531V54.5383Z" fill="#0054A6"/>
<path d="M119.49 35.5784C119.05 35.5784 118.74 35.9384 118.74 36.3484V44.8184H101.57C99.4402 44.8184 99.6402 42.9484 99.6402 42.9484V35.5684H94.7202V43.0984C94.7202 43.0984 94.5402 48.6384 100.94 48.6384H123.64V39.3484H127.93V35.5784H119.48H119.49Z" fill="#0054A6"/>
<path d="M257.32 35.5889V37.8089H251.5V35.5889H246.63V38.7289H238.11V35.5889H233.22V46.1289C233.22 46.1289 233.01 48.9289 236.04 48.9289H251.5V46.4089H257.32V49.7889H262.19V35.5989H257.32V35.5889ZM246.63 45.4089H238.11V42.2689H246.63V45.4089ZM257.32 42.9089H251.5V41.3089H257.32V42.9089Z" fill="#0054A6"/>
<path d="M259.429 52.0385C258.049 50.9685 256.289 50.2485 254.209 49.9185C253.479 49.7985 252.689 49.7285 251.859 49.7285C250.559 49.7285 249.639 49.8785 249.599 49.8885C247.439 50.2485 245.639 50.9685 244.239 52.0485C242.719 53.2385 241.939 54.7085 241.939 56.3885C241.939 58.3885 242.959 59.9785 245.059 61.2385C246.949 62.3885 249.249 62.9685 251.919 62.9685C254.589 62.9685 256.719 62.3885 258.599 61.2385C260.699 59.9485 261.719 58.3585 261.719 56.3885C261.719 54.7085 260.949 53.2385 259.429 52.0485V52.0385ZM255.239 58.4685C254.229 59.0685 253.079 59.3685 251.819 59.3685C250.559 59.3685 249.339 59.0685 248.319 58.4585C247.309 57.8885 246.789 57.1785 246.789 56.3585C246.789 55.5385 247.309 54.8085 248.319 54.2185C249.319 53.6385 250.499 53.3385 251.819 53.3385C253.139 53.3385 254.249 53.6285 255.239 54.2185C256.259 54.8085 256.779 55.5285 256.779 56.3585C256.779 57.1885 256.259 57.8785 255.239 58.4585V58.4685Z" fill="#0054A6"/>
<path d="M64.4402 40.6383C61.8302 40.6383 61.6002 40.6183 60.3802 40.6383V43.9583C61.6102 43.9483 63.4501 43.9583 64.7301 43.9583C71.8601 43.9583 73.9302 42.2683 74.9702 41.3983C76.0102 42.2683 78.0802 43.9583 85.2102 43.9583C86.4902 43.9583 88.3302 43.9483 89.5602 43.9583V40.6383C88.3402 40.6183 88.1002 40.6383 85.5002 40.6383C82.9002 40.6383 79.5701 40.4483 78.2901 39.2283H89.8002V35.8583H77.4302V33.9883H72.5302V35.8583H60.1602V39.2283H71.6702C70.3902 40.4583 67.0702 40.6383 64.4602 40.6383H64.4402Z" fill="#0054A6"/>
<path d="M90.93 48.6679V45.1279H59V48.6679H72.52V49.9479C68.13 50.6179 64.63 53.0379 64.63 56.3579C64.63 60.2879 69.15 62.9579 74.98 62.9579C80.81 62.9579 85.33 60.3979 85.33 56.3579C85.33 52.9279 81.82 50.5779 77.42 49.9379V48.6679H90.94H90.93ZM80.35 56.3579C80.35 58.0179 78.16 59.3579 74.97 59.3579C71.78 59.3579 69.59 58.0079 69.59 56.3579C69.59 54.7079 72.05 53.3579 74.97 53.3579C77.89 53.3579 80.35 54.6979 80.35 56.3579Z" fill="#0054A6"/>
</g>
<defs>
<radialGradient id="paint0_radial_1331_2117" cx="0" cy="0" r="1" gradientUnits="userSpaceOnUse" gradientTransform="translate(23.2971 52.5392) scale(31.3157)">
<stop stop-color="#7DCEF1"/>
<stop offset="0.16" stop-color="#50B4E4"/>
<stop offset="0.43" stop-color="#0087CD"/>
<stop offset="0.51" stop-color="#0078BF"/>
<stop offset="0.7" stop-color="#005AA2"/>
<stop offset="0.87" stop-color="#004891"/>
<stop offset="0.99" stop-color="#00428B"/>
</radialGradient>
<radialGradient id="paint1_radial_1331_2117" cx="0" cy="0" r="1" gradientUnits="userSpaceOnUse" gradientTransform="translate(23.7703 38.8671) scale(25.1641)">
<stop offset="0.61" stop-color="white"/>
<stop offset="0.71" stop-color="#FCFCFC"/>
<stop offset="0.77" stop-color="#F4F4F4"/>
<stop offset="0.81" stop-color="#E7E6E6"/>
<stop offset="0.85" stop-color="#D3D2D3"/>
<stop offset="0.88" stop-color="#BAB9B9"/>
<stop offset="0.92" stop-color="#9B999A"/>
<stop offset="0.95" stop-color="#767475"/>
<stop offset="0.98" stop-color="#4D4A4B"/>
<stop offset="1" stop-color="#231F20"/>
</radialGradient>
<linearGradient id="paint2_linear_1331_2117" x1="2.74721" y1="33.8184" x2="33.3472" y2="54.5784" gradientUnits="userSpaceOnUse">
<stop stop-color="#7DCEF1"/>
<stop offset="0.03" stop-color="#8DD4F2"/>
<stop offset="0.09" stop-color="#AFE1F6"/>
<stop offset="0.16" stop-color="#CCECF9"/>
<stop offset="0.24" stop-color="#E3F4FB"/>
<stop offset="0.32" stop-color="#F2FAFD"/>
<stop offset="0.41" stop-color="#FCFDFE"/>
<stop offset="0.54" stop-color="white"/>
</linearGradient>
<linearGradient id="paint3_linear_1331_2117" x1="3.62683" y1="61.4883" x2="33.4468" y2="27.8383" gradientUnits="userSpaceOnUse">
<stop offset="0.62" stop-color="white" stop-opacity="0"/>
<stop offset="0.66" stop-color="white" stop-opacity="0.06"/>
<stop offset="0.73" stop-color="white" stop-opacity="0.21"/>
<stop offset="0.82" stop-color="white" stop-opacity="0.46"/>
<stop offset="0.94" stop-color="white" stop-opacity="0.8"/>
<stop offset="1" stop-color="white"/>
</linearGradient>
<clipPath id="clip0_1331_2117">
<rect width="396.71" height="95" fill="white" transform="translate(0 0.5)"/>
</clipPath>
</defs>
</svg>
