<svg width="111" height="90" viewBox="0 0 111 90" fill="none" xmlns="http://www.w3.org/2000/svg">
<g clip-path="url(#clip0_1189_1689)">
<path d="M5.35423 7.09422H54.2959V1.75183H5.25953V1.73999C2.35949 1.73999 0 4.09948 0 7.00347H0.00394564V16.5361H0C0 19.4441 2.35949 21.7957 5.25953 21.7957V21.7799V21.8036H17.8777V58.4427C17.8737 61.3428 20.2253 63.7023 23.1333 63.7023V63.6826H37.9255V58.3441H23.2201V16.4651H5.34634V7.10606L5.35423 7.09027V7.09422Z" fill="#ED1C24"/>
<path d="M110.975 32.7172C110.975 14.6502 96.3284 0 78.2573 0C60.1863 0 45.5322 14.6502 45.5322 32.7172C45.5322 50.7843 60.1824 65.4423 78.2573 65.4423C85.2964 65.4423 91.8146 63.2091 97.153 59.4252L101.359 64.6532L105.537 61.2915L101.268 55.9768C107.262 50.0465 110.975 41.8198 110.975 32.7172ZM78.2534 60.1157C63.1219 60.1157 50.8549 47.8487 50.8549 32.7172C50.8549 17.5857 63.1219 5.32661 78.2573 5.32661C93.3928 5.32661 105.652 17.5897 105.652 32.7212C105.652 40.139 102.693 46.8623 97.8987 51.7904L95.7286 49.0877L91.5463 52.4494L93.8071 55.2665C89.388 58.3244 84.0377 60.1197 78.2573 60.1197L78.2534 60.1157Z" fill="#2E3192"/>
<path d="M94.699 32.7527C94.699 41.7961 87.368 49.131 78.3246 49.131C69.2812 49.131 61.9463 41.7961 61.9463 32.7527C61.9463 23.7093 69.2812 16.3783 78.3246 16.3783C87.368 16.3783 94.699 23.7093 94.699 32.7527Z" fill="url(#paint0_radial_1189_1689)"/>
<path d="M29.008 70.5914H17.1475C17.6209 71.2305 17.8971 72.284 17.8971 73.5387V85.8373C17.8971 87.0526 17.7709 88.4651 17.3013 89.2858H28.0532C35.8735 89.2858 41.5433 85.1942 41.5433 79.5558C41.5433 72.4616 33.3443 70.5874 29.0041 70.5874L29.008 70.5914ZM37.5819 80.0451C37.5819 80.0451 37.5582 80.199 37.574 80.1753C37.4754 86.4212 30.7086 88.0745 27.1497 88.0745C24.8336 88.0745 22.0401 87.8654 22.0124 87.8654L21.5784 87.8298V72.213L22.0085 72.1854C22.0361 72.1775 24.8257 71.9763 27.1497 71.9763C32.1922 71.9763 37.5819 74.0872 37.5819 80.0056V80.0451Z" fill="#231F20"/>
<path d="M59.7725 72.6037V70.5559H40.8887V72.6037C44.2148 72.2841 48.7997 72.2328 48.7997 72.2328V82.3297C48.7997 87.5103 48.5866 88.1416 48.5274 89.2898H52.698C52.6309 87.8496 52.4336 87.3919 52.4336 82.3297V72.2486C52.4336 72.2486 56.1031 72.1933 59.7725 72.6037Z" fill="#231F20"/>
<path d="M71.5106 87.5892C71.558 87.6563 72.3076 89.42 74.383 89.42C75.9376 89.42 76.7544 88.8124 77.0069 88.5875V88.3271C76.6044 88.3271 76.0757 88.2639 75.622 88.0035C75.0893 87.6879 74.821 87.1828 74.821 86.5042V78.5024C74.821 75.9496 72.0867 73.7834 68.8552 73.7834C65.6237 73.7834 63.714 74.7186 61.3822 76.431C61.4058 76.4546 62.2739 77.3542 62.4317 77.4766C62.992 76.8532 65.1068 75.1171 67.3874 75.1171C70.2993 75.1171 71.2423 76.573 71.2423 77.7685C71.2423 78.6287 70.0744 79.4652 68.2752 79.9071C66.8508 80.2503 61.4177 81.584 60.593 84.2394C60.1906 85.5454 60.451 87.1473 61.615 88.2048C62.5619 89.0688 63.8521 89.566 65.1424 89.566C68.0976 89.566 70.757 87.605 70.8517 87.5261L71.2463 87.2026L71.5185 87.5971L71.5106 87.5892ZM71.2542 84.6537C71.2542 86.666 69.1748 87.68 67.4308 87.68C64.7162 87.68 63.497 86.5081 63.497 84.7839C63.497 83.8172 64.4006 82.1285 66.8942 81.4064C69.2656 80.7199 70.5952 80.4279 70.6031 80.4279L71.0529 80.3214L71.2542 80.2819V84.6497V84.6537Z" fill="#231F20"/>
<path d="M91.5225 89.4792H91.629L93.1284 89.4279C97.9578 89.3411 103.691 89.8737 104.934 90C105.013 89.8856 106.682 87.53 106.966 87.1315C105.51 87.242 103.643 87.3288 101.371 87.3801L100.238 87.4077L101.087 86.7764C103.498 84.9851 104.827 82.4401 104.827 79.6111C104.827 73.7992 99.398 69.7391 91.6172 69.7391C83.8364 69.7391 78.4111 73.7992 78.4111 79.6111C78.4111 85.423 83.8048 89.4594 91.5185 89.4831L91.5225 89.4792ZM91.6211 70.9623C97.1648 70.9623 101.035 74.5212 101.035 79.6072C101.035 84.6931 97.1648 88.2481 91.6211 88.2481C86.0775 88.2481 82.2147 84.6931 82.2147 79.6072C82.2147 74.5212 86.0815 70.9623 91.6211 70.9623Z" fill="#231F20"/>
<path d="M89.4321 54.4498C89.4321 55.59 84.4961 56.5094 78.404 56.5094C72.312 56.5094 67.376 55.5861 67.376 54.4498C67.376 53.3134 72.312 52.3901 78.404 52.3901C84.4961 52.3901 89.4321 53.3134 89.4321 54.4498Z" fill="url(#paint1_radial_1189_1689)"/>
</g>
<defs>
<radialGradient id="paint0_radial_1189_1689" cx="0" cy="0" r="1" gradientUnits="userSpaceOnUse" gradientTransform="translate(73.9671 24.8085) scale(22.1345 22.1345)">
<stop stop-color="white"/>
<stop offset="0.51" stop-color="#00AEEF"/>
<stop offset="1" stop-color="#2E3192"/>
</radialGradient>
<radialGradient id="paint1_radial_1189_1689" cx="0" cy="0" r="1" gradientUnits="userSpaceOnUse" gradientTransform="translate(78.4356 52.4631) scale(22.0956 4.19816)">
<stop stop-color="#034EA2"/>
<stop offset="0.7" stop-color="white"/>
</radialGradient>
<clipPath id="clip0_1189_1689">
<rect width="110.975" height="90" fill="white"/>
</clipPath>
</defs>
</svg>
