<svg width="151" height="103" viewBox="0 0 151 103" fill="none" xmlns="http://www.w3.org/2000/svg">
<g clip-path="url(#clip0_621_1531)">
<path d="M54.3501 2.11778C53.3052 2.4243 52.4274 2.75868 51.7168 3.12094C49.5712 4.15196 47.8574 5.93535 47.0215 8.15066C43.2318 16.566 43.1621 47.2599 46.8125 56.5112C46.9379 56.9292 47.0911 57.3193 47.2862 57.7095C56.4679 44.6545 68.7148 21.0663 54.3501 2.10385V2.11778Z" fill="#00A0B0"/>
<path d="M62.4727 64.5226C74.1344 65.8044 90.7143 65.2053 97.7504 62.6834C100.941 61.8196 103.449 59.3535 104.313 56.2326C105.093 54.073 105.706 50.8963 106.138 47.1484C97.8618 46.5215 78.5232 47.2878 62.4727 64.5226Z" fill="#00A0B0"/>
<path d="M55.702 63.408C54.7546 63.185 53.9047 62.9342 53.1663 62.6695C52.5114 62.4884 51.8984 62.2237 51.3271 61.9171C73.4663 33.5919 73.8285 12.4141 70.6658 0.0835966C81.6587 -0.30652 93.8778 0.640906 98.8378 2.91194C101.429 3.97083 103.436 6.11648 104.244 8.79157C106.208 13.9049 107.072 25.2461 106.849 35.8629C82.0628 35.64 64.006 53.3067 55.702 63.408ZM85.755 33.564C90.4921 33.8287 94.5465 30.2201 94.8252 25.483C95.0899 20.7319 91.4813 16.6914 86.7442 16.4128C82.0071 16.1481 77.9526 19.7566 77.674 24.4938C77.4093 29.2309 81.0178 33.2853 85.755 33.564Z" fill="#00A0B0"/>
<path d="M21.3573 91.2317H0.5V88.5426H16.1883C16.3694 87.8739 16.4948 87.2051 16.5784 86.5224C16.6481 85.8954 16.6759 85.0734 16.6759 84.0702V81.4927H1.55889V78.8454H20.2845V83.4154C20.2845 84.5161 20.2427 85.4356 20.1591 86.188C20.0616 87.01 19.8944 87.8042 19.6715 88.5426H21.3573V91.2317ZM5.16747 98.9504H20.2845V101.598H4.74949C3.59307 101.598 2.77104 101.389 2.26946 100.985C1.79575 100.581 1.55889 99.9118 1.55889 99.0061V93.6977H5.15354V98.9643L5.16747 98.9504Z" fill="#636466"/>
<path d="M34.7192 97.4735V92.5553H38.3139V97.4735H47.1054V100.121H25.9834V97.4735H34.7053H34.7192ZM45.4614 78.8454V86.4667H30.7763V89.4065H46.1302V92.0119H30.4558C29.3412 92.0119 28.5192 91.789 27.9758 91.3292C27.4463 90.8973 27.1677 90.2285 27.1677 89.3507V83.8752H41.8528V81.4509H27.1677V78.8454H45.4474H45.4614Z" fill="#636466"/>
<path d="M56.3144 78.5389V80.1273H67.8367V78.5389H71.4314V87.6649H64.1167V89.2253H72.6435V91.8726H51.5215V89.2253H60.522V87.6649H56.0078C54.8514 87.6649 54.0154 87.4419 53.4721 87.01C52.9705 86.5781 52.7197 85.8954 52.7197 84.9898V78.5529H56.3144V78.5389ZM71.4314 93.7256V101.779H67.8367V96.4146H52.7197V93.7256H71.4314ZM56.3144 82.7187V85.0176H67.8367V82.7187H56.3144Z" fill="#636466"/>
<path d="M90.6167 78.8454V81.4091H86.0886V86.7732C86.0886 89.6155 86.7156 92.0537 87.9695 94.0879C89.0423 95.8155 90.4774 97.1113 92.2747 97.989L90.1848 100.107C88.7358 99.2848 87.5515 98.3652 86.632 97.3481C85.5591 96.1917 84.7789 94.896 84.3052 93.4748C83.8454 94.8681 83.0513 96.1639 81.9227 97.3481C80.9892 98.3234 79.8189 99.243 78.3838 100.107L76.5586 97.989C78.2305 97.0973 79.582 95.7877 80.627 94.06C81.8809 92.0119 82.5079 89.5876 82.5079 86.801V81.423H77.9519V78.8594H90.6307L90.6167 78.8454ZM97.2209 78.3578V101.807H93.6262V78.3578H97.2209Z" fill="#636466"/>
<path d="M123.819 90.7161H102.725V88.0689H109.663V84.0424H113.258V88.0689H118.427C118.622 87.3583 118.775 86.5363 118.873 85.6028C118.97 84.7669 119.012 83.8473 119.012 82.8441V81.4927H103.895V78.8454H122.607V81.3533C122.607 82.4819 122.551 83.6104 122.439 84.7669C122.328 86.0905 122.161 87.1912 121.952 88.0689H123.805V90.7161H123.819ZM120.405 93.7117C122.021 94.687 122.843 95.8713 122.843 97.2645C122.843 98.6578 122.035 99.8282 120.405 100.803C118.622 101.89 116.239 102.434 113.272 102.434C110.304 102.434 107.908 101.89 106.138 100.803C104.55 99.8282 103.742 98.6439 103.742 97.2645C103.742 95.8852 104.536 94.687 106.138 93.7117C107.922 92.6389 110.304 92.0955 113.272 92.0955C116.239 92.0955 118.622 92.6389 120.405 93.7117ZM108.855 95.5369C107.866 96.0106 107.378 96.5818 107.378 97.2645C107.378 97.9472 107.866 98.5185 108.855 98.9922C109.942 99.5077 111.419 99.7724 113.272 99.7724C115.125 99.7724 116.588 99.5077 117.702 98.9922C118.719 98.5046 119.235 97.9194 119.235 97.2645C119.235 96.6097 118.719 95.9967 117.702 95.5369C116.588 95.0214 115.111 94.7566 113.272 94.7566C111.433 94.7566 109.942 95.0214 108.855 95.5369Z" fill="#636466"/>
<path d="M141.485 81.4509H132.722V88.7656H144.425V78.3578H148.02V85.4914H150.5V88.264H148.02V95.3558H144.425V91.3153H132.122C131.105 91.3153 130.339 91.0645 129.838 90.5629C129.364 90.0892 129.127 89.3786 129.127 88.4451V78.8454H141.485V81.4509ZM133.878 98.9504H148.159V101.598H133.474C132.318 101.598 131.496 101.389 130.994 100.985C130.52 100.581 130.283 99.9118 130.283 99.0061V93.9067H133.878V98.9504Z" fill="#636466"/>
</g>
<defs>
<clipPath id="clip0_621_1531">
<rect width="150" height="102.434" fill="white" transform="translate(0.5)"/>
</clipPath>
</defs>
</svg>
