<svg width="153" height="54" viewBox="0 0 153 54" fill="none" xmlns="http://www.w3.org/2000/svg">
<g clip-path="url(#clip0_1399_3185)">
<path d="M84.8693 18.4399H80.0293V20.8599H84.8693V22.2899H80.0293V24.7099H84.8693V29.5899H88.2693V14.3799H84.8693V18.4399Z" fill="#4D4D4F"/>
<path d="M78.5596 28.3997C79.6096 28.2497 80.5796 28.0197 81.4396 27.7097L81.5596 27.6697L81.1696 25.6397L81.0196 25.6697C80.2696 25.8297 79.2696 25.9497 78.0196 26.0297C78.1396 25.1597 78.1996 24.0597 78.1996 22.7797V17.3397H80.6896V14.7197H65.0296V17.3397H67.5496V22.6697C67.5496 24.0197 67.6096 25.1897 67.7296 26.1297H64.8096V28.7197H73.8696C75.5796 28.7197 77.1596 28.6097 78.5596 28.4097V28.3997ZM74.8296 17.3397V23.7197C74.8296 24.6597 74.8096 25.4697 74.7796 26.1197H70.9796C70.9496 25.4797 70.9296 24.6697 70.9296 23.7197V17.3397H74.8296Z" fill="#4D4D4F"/>
<path d="M85.6993 31.4298C84.2193 30.3198 82.1593 29.7598 79.5893 29.7598C77.0193 29.7598 74.9293 30.3198 73.4493 31.4298C72.0393 32.4698 71.3193 33.8698 71.3193 35.5998C71.3193 37.3298 72.0393 38.7098 73.4493 39.7498C74.9293 40.8598 76.9893 41.4198 79.5993 41.4198C82.2093 41.4198 84.2393 40.8598 85.7093 39.7498C87.1393 38.7098 87.8693 37.3098 87.8693 35.5998C87.8693 33.8898 87.1393 32.4698 85.7093 31.4298H85.6993ZM82.9793 37.9398C82.1293 38.5398 80.9893 38.8498 79.5893 38.8498C78.1893 38.8498 77.0393 38.5398 76.1793 37.9398C75.3193 37.3398 74.9093 36.5698 74.9093 35.5998C74.9093 34.6298 75.3293 33.8298 76.1793 33.2298C77.0393 32.6298 78.1793 32.3198 79.5893 32.3198C80.9993 32.3198 82.1293 32.6298 82.9793 33.2298C83.8193 33.8298 84.2393 34.5998 84.2393 35.5998C84.2393 36.5998 83.8293 37.3398 82.9893 37.9398H82.9793Z" fill="#4D4D4F"/>
<path d="M121.039 31.3099C120.779 31.0099 120.309 30.8599 119.649 30.8599H102.439V33.5599H116.989C117.659 33.5599 117.969 33.8799 117.969 34.5799V40.6299H121.389V32.7699C121.389 32.0199 121.289 31.5999 121.049 31.3199L121.039 31.3099Z" fill="#4D4D4F"/>
<path d="M108.269 28.2499C109.819 27.9099 110.919 27.4399 111.599 26.8399V29.4999H114.839V22.6999H118.019V29.5599H121.259V14.3799H118.019V19.9999H114.839V14.3799H111.599V23.0899C111.599 24.4199 110.619 25.2499 108.609 25.6399C107.879 25.7899 106.809 25.8599 105.439 25.8599C104.159 25.8799 103.169 25.8399 102.499 25.7399C101.889 25.6499 101.609 25.2999 101.609 24.6499V22.7599H108.199V20.2199H101.609V17.3399H108.569V14.7499H98.1992V25.4699C98.1992 26.4399 98.3892 27.1799 98.7692 27.6699C99.1492 28.1599 99.8092 28.4699 100.739 28.5899C101.419 28.6699 102.239 28.6999 103.159 28.6999C105.229 28.6999 106.949 28.5499 108.279 28.2399L108.269 28.2499Z" fill="#4D4D4F"/>
<path d="M139.429 18.5497V14.7197H135.879V18.5497C135.879 21.5097 135.379 24.0297 134.399 26.0597C133.339 28.2197 131.579 30.1797 129.159 31.8697L129.029 31.9597L131.109 34.3897L131.219 34.3297C132.639 33.5097 133.999 32.3597 135.249 30.8997C136.469 29.4897 137.319 28.0997 137.779 26.7797C138.289 28.0697 139.179 29.4397 140.429 30.8497C141.749 32.3097 143.069 33.3897 144.349 34.0597L144.459 34.1197L146.439 31.5697L146.309 31.4797C141.749 28.3697 139.439 24.0197 139.439 18.5597L139.429 18.5497Z" fill="#4D4D4F"/>
<path d="M152.809 14.3799H149.369V40.6199H152.809V14.3799Z" fill="#4D4D4F"/>
<path d="M22.1696 26.29C26.2796 26.29 29.2396 23.62 30.4196 21.51C30.7596 20.86 32.1796 18.76 35.3396 18.76C38.3996 18.72 41.1096 21.13 40.9196 24.34C40.6896 28.5 37.0496 31.5 35.3896 32.46C32.6196 34.05 29.0896 35.4 25.9596 35.62H25.9696C26.1796 35.62 26.3996 35.62 26.6096 35.62C27.9696 35.62 29.2896 35.65 30.5796 35.69C35.1396 35.3 38.6696 33.51 41.3796 30.75C44.7696 27.29 46.6496 22.73 46.6496 17.81C46.6396 8.13 39.0596 0 29.5096 0C21.3296 0 12.8096 6.45 12.8096 16.73C12.8096 21.85 17.0096 26.28 22.1696 26.28V26.29Z" fill="#8DC63F"/>
<path opacity="0.3" d="M38.2398 2.4898C37.6898 2.2298 28.3998 -2.3602 20.3498 4.5598C12.4998 11.3098 13.7498 21.9698 17.1998 24.7798C18.6398 25.7198 20.3498 26.2798 22.1698 26.2798C26.2798 26.2798 29.2398 23.6098 30.4198 21.4998C30.7598 20.8498 32.1798 18.7498 35.3398 18.7498C38.3998 18.7098 41.1098 21.1198 40.9198 24.3298C40.6898 28.4898 37.0498 31.4898 35.3898 32.4498C32.6198 34.0398 29.0898 35.3898 25.9598 35.6098H25.9698C26.1798 35.6098 26.3998 35.6098 26.6098 35.6098C27.9698 35.6098 29.2898 35.6398 30.5798 35.6798C35.1398 35.2898 38.6698 33.4998 41.3798 30.7398C44.7698 27.2798 46.6498 22.7198 46.6498 17.7998C46.6498 11.3698 43.2998 5.6198 38.2498 2.4798L38.2398 2.4898Z" fill="#0E8537"/>
<path d="M42.7296 6.50996C42.6196 6.36996 42.5096 6.23996 42.3996 6.10996C40.3496 3.60996 36.8196 1.70996 31.7596 1.70996C24.2596 1.70996 16.4496 7.33996 15.9696 17.55C15.7296 22.52 18.9496 25.69 22.5796 26.28C23.6596 26.23 24.6596 26 25.5496 25.65C26.0796 25.44 26.5796 25.19 27.0496 24.91C28.6296 23.96 29.7796 22.65 30.4296 21.51C30.7696 20.86 32.1896 18.76 35.3496 18.76C38.4096 18.72 41.1196 21.13 40.9296 24.34C40.6996 28.5 37.0596 31.5 35.3996 32.46C32.6296 34.05 29.0996 35.4 25.9696 35.62H25.9796C26.1896 35.62 26.4096 35.62 26.6196 35.62C27.9796 35.62 29.2996 35.65 30.5896 35.69C35.1496 35.3 38.6796 33.51 41.3896 30.75C44.7796 27.29 46.6596 22.73 46.6596 17.81C46.6596 13.56 45.1996 9.60996 42.7496 6.50996H42.7296Z" fill="#EF3F6B"/>
<path opacity="0.3" d="M43.67 7.81981C42.4 6.10981 39.69 5.04981 37.82 4.77981C31.4 3.83981 26.54 6.01981 22.56 11.1698C20.01 14.4798 19.49 18.2298 20.47 21.4398C21.68 25.3598 25.5 25.4198 27.04 24.8998C28.62 23.9498 29.77 22.6398 30.42 21.4998C30.76 20.8498 32.18 18.7498 35.34 18.7498C38.4 18.7098 41.11 21.1198 40.92 24.3298C40.69 28.4898 37.05 31.4898 35.39 32.4498C32.62 34.0398 29.09 35.3898 25.96 35.6098H25.97C26.18 35.6098 26.4 35.6098 26.61 35.6098C27.97 35.6098 29.29 35.6398 30.58 35.6798C35.14 35.2898 38.67 33.4998 41.38 30.7398C44.77 27.2798 46.65 22.7198 46.65 17.7998C46.65 15.4998 46.22 13.4098 45.58 11.6198C45.45 11.2698 45.31 10.9098 45.17 10.5898C45.07 10.3498 44.97 10.1298 44.86 9.90981C44.66 9.47981 44.44 9.07981 44.23 8.70981C44.05 8.38981 43.87 8.08981 43.68 7.81981H43.67Z" fill="#C0151B"/>
<path d="M46.0296 13.1302C44.9796 10.0302 42.0196 7.10021 37.5196 6.44021C31.9196 5.62021 27.6796 7.52021 24.2096 12.0202C21.9796 14.9102 21.5296 18.1802 22.3896 20.9702C23.6496 25.0402 28.1396 24.3302 28.6396 23.7002C29.4196 22.9902 30.0296 22.2202 30.4196 21.5102C30.7596 20.8602 32.1796 18.7602 35.3396 18.7602C38.3996 18.7202 41.1096 21.1302 40.9196 24.3402C40.6896 28.5002 37.0496 31.5002 35.3896 32.4602C32.6196 34.0502 29.0896 35.4002 25.9596 35.6202H25.9696C26.1796 35.6202 26.3996 35.6202 26.6096 35.6202C27.9696 35.6202 29.2896 35.6502 30.5796 35.6902C35.1396 35.3002 38.6696 33.5102 41.3796 30.7502C44.7696 27.2902 46.6496 22.7302 46.6496 17.8102C46.6496 16.1902 46.3996 14.3302 46.0396 13.1302H46.0296Z" fill="#009DA5"/>
<path d="M40.9897 16.2799C35.6897 13.0799 31.7497 18.5299 30.4897 21.3899C31.2497 20.1499 32.7897 18.7599 35.3497 18.7599C38.4097 18.7199 41.1197 21.1299 40.9297 24.3399C40.6997 28.4999 37.0597 31.4999 35.3997 32.4599C32.6297 34.0499 29.0997 35.3999 25.9697 35.6199H25.9797C26.1897 35.6199 26.4097 35.6199 26.6197 35.6199C27.9797 35.6199 29.2997 35.6499 30.5897 35.6899C35.1497 35.2999 38.6797 33.5099 41.3897 30.7499C41.5397 30.5999 41.6797 30.4499 41.8197 30.2899C43.2697 28.9099 48.0597 20.5499 40.9997 16.2799H40.9897Z" fill="#B62079"/>
<path opacity="0.2" d="M17.1003 22.5104C12.8503 20.5404 13.0703 14.1604 13.0903 13.6304C13.0503 13.8504 13.0203 14.0704 12.9903 14.2904C12.9803 14.3604 12.9703 14.4304 12.9603 14.5004C12.9403 14.6804 12.9203 14.8704 12.9003 15.0504C12.8903 15.1804 12.8803 15.3204 12.8703 15.4604C12.8703 15.5904 12.8503 15.7304 12.8403 15.8704C12.8303 16.1604 12.8203 16.4504 12.8203 16.7404C12.8203 21.8604 17.0203 26.2904 22.1803 26.2904C22.3103 26.2904 22.4503 26.2904 22.5803 26.2904C20.3703 25.9304 18.3203 24.6204 17.1103 22.5304L17.1003 22.5104Z" fill="#2E3192"/>
<path opacity="0.2" d="M23.4798 22.8803C22.3598 23.0903 21.0198 23.1803 19.4098 23.0803C18.5198 23.0203 17.7498 22.8203 17.0898 22.5103C18.3098 24.6003 20.3598 25.9203 22.5698 26.2703C22.5698 26.2703 22.5698 26.2703 22.5898 26.2703C23.6598 26.2203 24.6498 25.9903 25.5498 25.6403C26.0798 25.4303 26.5798 25.1803 27.0498 24.9003C27.2398 24.7803 27.4298 24.6603 27.6198 24.5303C27.6198 24.5303 27.6298 24.5303 27.6398 24.5203C27.8098 24.4003 27.9698 24.2803 28.1298 24.1503C28.1498 24.1403 28.1798 24.1103 28.1998 24.0903C28.3298 23.9803 28.4498 23.8803 28.5698 23.7703C27.9398 24.2503 25.1998 24.6503 23.4898 22.8703L23.4798 22.8803Z" fill="#2E3192"/>
<path opacity="0.2" d="M40.9907 16.2802C47.5007 20.2202 43.9307 27.6502 42.2007 29.8502C42.2207 29.8202 42.2407 29.8002 42.2607 29.7702C42.4907 29.5002 42.7207 29.2202 42.9307 28.9402C42.9307 28.9402 42.9307 28.9402 42.9307 28.9302C43.5107 28.1102 45.1107 25.5202 45.6007 21.2602C46.4107 14.3002 40.6307 10.4302 34.7307 12.6302C30.1407 14.3402 28.9107 18.6202 28.9107 18.6202C28.4407 20.1202 27.1507 22.1902 23.4707 22.8902C25.1807 24.6702 27.9207 24.2702 28.5507 23.7902C28.5607 23.7802 28.6307 23.7202 28.6407 23.7002C28.7307 23.6202 28.9107 23.4402 28.9207 23.4302C29.1707 23.1902 29.3907 22.9402 29.5907 22.6902C29.6407 22.6302 29.7007 22.5602 29.7407 22.5002C29.7807 22.4502 29.8207 22.4002 29.8607 22.3402C29.9007 22.2902 29.9707 22.2002 30.0307 22.1002C30.1007 22.0002 30.1607 21.9002 30.1707 21.8902C30.2507 21.7602 30.3307 21.6302 30.4007 21.5102C30.4207 21.4802 30.4407 21.4302 30.4707 21.3902C31.7307 18.5302 35.6707 13.0702 40.9707 16.2802H40.9907Z" fill="#2E3192"/>
<path opacity="0.2" d="M37.69 17.64C32.88 16.72 30.81 20.71 30.52 21.31C30.51 21.33 30.5 21.36 30.48 21.39C31.24 20.15 32.78 18.76 35.34 18.76C38.4 18.72 41.11 21.13 40.92 24.34C40.69 28.5 37.05 31.5 35.39 32.46C32.62 34.05 29.09 35.4 25.96 35.62H25.97C26.18 35.62 26.4 35.62 26.61 35.62C27.2 35.62 27.77 35.62 28.34 35.64C30.22 35.26 34.21 34.26 37.44 32.11C44.32 27.51 42.9 18.64 37.7 17.65L37.69 17.64Z" fill="#262262"/>
<path d="M32.48 40.32C21.77 38.35 11.3 38.17 11.3 38.17C11.3 38.17 20.33 37.11 33.55 39.19C40.12 40.23 44.81 41.79 47.22 42.71C53.65 40.69 59.06 40.5 59.06 40.5C56 39.47 44.69 35.64 26.62 35.61C10.04 35.58 0 39.58 0 39.58C0 39.58 10.24 41.06 19.45 45.82C26.33 49.37 29.73 53.03 29.73 53.03C29.73 53.03 30.82 51.53 33.88 49.36C32.37 48.07 29.96 46.35 26.46 44.73C18.87 41.24 7.45 39.62 7.45 39.62C7.45 39.62 18.57 40.01 26.75 42.62C32.37 44.42 35.61 46.09 37.32 47.15C38.72 46.34 40.34 45.49 42.22 44.62C42.76 44.37 43.3 44.14 43.83 43.92C42.05 42.92 38.56 41.42 32.48 40.3V40.32Z" fill="#B62079"/>
<path d="M58.5898 40.3501C58.5898 40.3501 33.1498 35.5501 11.2998 38.1701C11.2998 38.1701 20.3298 37.1101 33.5498 39.1901C40.1198 40.2301 44.8098 41.7901 47.2198 42.7101C52.0098 41.2001 56.2298 40.7201 58.0698 40.5701C58.6998 40.5201 59.0598 40.5101 59.0598 40.5101C58.9198 40.4601 58.7598 40.4101 58.5898 40.3501Z" fill="#009DA5"/>
<path d="M7.4502 39.6302C7.4502 39.6302 18.5702 40.0202 26.7502 42.6302C32.3702 44.4302 35.6102 46.1002 37.3202 47.1602C38.7202 46.3502 40.3402 45.5002 42.2202 44.6302C42.7602 44.3802 43.3002 44.1502 43.8302 43.9302C43.8302 43.9302 22.2802 38.5702 7.4502 39.6202V39.6302Z" fill="#009DA5"/>
<path d="M19.4498 45.8301C26.3298 49.3801 29.7298 53.0401 29.7298 53.0401C29.7298 53.0401 30.8198 51.5401 33.8798 49.3701C33.8798 49.3701 17.2298 40.9401 0.00976562 39.6001C0.00976562 39.6001 10.2498 41.0801 19.4598 45.8401L19.4498 45.8301Z" fill="#009DA5"/>
<path opacity="0.2" d="M40.9897 16.2799C35.6897 13.0799 31.7497 18.5299 30.4897 21.3899C31.2497 20.1499 32.7897 18.7599 35.3497 18.7599C38.4097 18.7199 41.1197 21.1299 40.9297 24.3399C40.6997 28.4999 37.0597 31.4999 35.3997 32.4599C32.6297 34.0499 29.0997 35.3999 25.9697 35.6199H25.9797C26.1897 35.6199 26.4097 35.6199 26.6197 35.6199C27.9797 35.6199 29.2997 35.6499 30.5897 35.6899C35.1497 35.2999 38.6797 33.5099 41.3897 30.7499C41.5397 30.5999 41.6797 30.4499 41.8197 30.2899C43.2697 28.9099 48.0597 20.5499 40.9997 16.2799H40.9897Z" fill="#2E3192"/>
</g>
<defs>
<clipPath id="clip0_1399_3185">
<rect width="152.81" height="53.04" fill="white"/>
</clipPath>
</defs>
</svg>
