<svg width="186" height="50" viewBox="0 0 186 50" fill="none" xmlns="http://www.w3.org/2000/svg">
<g clip-path="url(#clip0_621_2007)">
<path d="M86.1631 7.99059L88.3411 0.937317H76.4666C76.4666 0.937317 75.5225 4.03239 74.3223 7.99059H86.1631Z" fill="#00C0F3"/>
<path d="M41.9757 42.8928L39.7842 50H51.6116C51.6116 50 52.5623 46.878 53.7828 42.8928H41.9824H41.9757Z" fill="#00C0F3"/>
<path d="M44.7602 15.644H32.1236C32.1101 13.9582 31.537 12.65 30.4109 11.7262C29.2848 10.8092 27.8283 10.3439 26.0414 10.3439C22.5821 10.3439 19.6894 12.0566 17.363 15.4754C15.5019 18.2266 14.2747 21.497 13.6745 25.2731C12.7507 31.1733 14.7871 34.12 19.7905 34.12C23.1283 34.12 25.92 32.5354 28.1654 29.3527H22.2652L25.0703 20.6406H43.6004L36.5201 43.3041H27.8755L28.0778 40.1214C24.5983 43.0546 20.4716 44.5111 15.7042 44.5111C9.98606 44.5111 5.73117 42.6231 2.94627 38.8469C0.316467 35.2461 -0.560134 30.5664 0.34344 24.8281C1.48302 17.5927 4.43649 11.6993 9.20386 7.13419C14.2072 2.38031 20.2828 0 27.4304 0C32.9867 0 37.2686 1.2205 40.2625 3.6615C43.5329 6.37896 45.0232 10.3709 44.7534 15.644H44.7602Z" fill="#03428E"/>
<path d="M130.007 1.11261L126.48 11.8206H114.916L105.374 43.3176H91.7868L101.45 11.8139H89.3525L92.8252 1.11261H130.007Z" fill="#03428E"/>
<path d="M135.961 33.4053C136.298 32.232 136.675 30.8024 136.891 30.0742H150.802L153.756 20.8968H139.777C140.121 19.8314 140.701 18.1052 140.903 17.4579H156.648L159.663 7.78827H131.571L120.546 43.2299H149.737L152.71 33.412H135.961V33.4053Z" fill="#03428E"/>
<path d="M170.014 32.7579C170.627 30.8092 177.856 7.78827 177.856 7.78827H165.212L154.188 43.2299H182.279L185.455 32.7579H170.007H170.014Z" fill="#03428E"/>
<path d="M74.3892 7.76129C72.3123 14.5786 69.3993 24.1605 69.1566 24.9292C68.1856 21.706 63.9914 7.78152 63.9914 7.78152H52.8113L41.874 43.1895H53.6812C55.7108 36.5475 58.5429 27.2825 58.8666 26.2104C60.0264 30.0674 63.9914 43.2232 63.9914 43.2232H75.2658L86.2368 7.76129H74.3959H74.3892Z" fill="#03428E"/>
</g>
<defs>
<clipPath id="clip0_621_2007">
<rect width="185.462" height="50" fill="white"/>
</clipPath>
</defs>
</svg>
