<svg width="58" height="90" viewBox="0 0 58 90" fill="none" xmlns="http://www.w3.org/2000/svg">
<g clip-path="url(#clip0_346_1076)">
<path d="M37.6369 48.9906L22.8321 40.4325C22.3636 40.167 21.614 40.167 21.1455 40.4325L6.43442 48.9906C5.96591 49.256 5.98153 49.6933 6.43442 49.9588L21.2392 58.5168C21.7077 58.7823 22.4573 58.7823 22.9258 58.5168L37.6369 49.9588C38.1054 49.6933 38.1054 49.256 37.6369 48.9906Z" fill="white"/>
<path d="M37.4338 49.0218L22.629 40.4638C22.1605 40.1983 21.4109 40.1983 20.9424 40.4638L6.23129 49.0218C5.76278 49.2873 5.7784 49.7246 6.23129 49.9901L21.0361 58.5481C21.5046 58.8136 22.2542 58.8136 22.7227 58.5481L37.4338 49.9901C37.9023 49.7246 37.9023 49.3029 37.4338 49.0218Z" fill="#FEFDFD"/>
<path d="M57.5169 43.3377C57.5169 43.4002 57.5169 43.4471 57.5012 43.5095C57.5012 43.5564 57.4856 43.6032 57.4856 43.6657C57.47 43.7282 57.47 43.775 57.4544 43.8375C57.4388 43.8843 57.4388 43.9312 57.4232 43.9936C57.4075 44.0561 57.3919 44.103 57.3763 44.1654C57.3607 44.2123 57.3451 44.2591 57.3295 44.3216C57.3138 44.3841 57.2982 44.4309 57.2826 44.4934C57.267 44.5402 57.2514 44.5871 57.2201 44.6339C57.2045 44.6964 57.1733 44.7433 57.1421 44.8057C57.1264 44.8526 57.0952 44.8994 57.0796 44.9463C57.0484 45.0087 57.0171 45.0556 56.9859 45.1181C56.9547 45.1649 56.939 45.2118 56.9078 45.2586C56.861 45.3211 56.8297 45.3992 56.7829 45.4616C56.7516 45.5085 56.736 45.5397 56.7048 45.5866C56.6579 45.6646 56.5955 45.7271 56.5486 45.8052C56.5174 45.8364 56.5018 45.8677 56.4705 45.9145C56.4549 45.9301 56.4393 45.9457 56.4393 45.9614C56.3768 46.0395 56.3144 46.1019 56.2519 46.18C56.2363 46.1956 56.2207 46.2269 56.205 46.2425C56.127 46.3206 56.0489 46.4143 55.9708 46.4923C55.9552 46.508 55.9396 46.5236 55.9239 46.5392C55.8615 46.6017 55.799 46.6641 55.7209 46.7266C55.6741 46.7734 55.6116 46.8203 55.5648 46.8671C55.5179 46.914 55.4554 46.9608 55.4086 46.9921C55.3461 47.0389 55.2837 47.0858 55.2368 47.1326C55.1743 47.1795 55.1275 47.2107 55.065 47.2576C55.0025 47.3044 54.9401 47.3513 54.8776 47.3981C54.8151 47.445 54.7527 47.4762 54.6902 47.5231C54.6277 47.5699 54.5497 47.6168 54.4872 47.648C54.3935 47.6948 54.3154 47.7573 54.2217 47.8042C54.0499 47.8979 53.8781 47.9916 53.6907 48.0853C53.6439 48.1165 53.5814 48.1321 53.5346 48.1633C53.394 48.2258 53.2535 48.3039 53.1129 48.3664C53.0661 48.382 53.0192 48.4132 52.9724 48.4288C52.785 48.5069 52.5975 48.585 52.4101 48.6631C52.3789 48.6787 52.3477 48.6943 52.3008 48.6943C52.1447 48.7568 51.9729 48.8193 51.8011 48.8661C51.7386 48.8817 51.6605 48.913 51.5981 48.9286C51.5044 48.9598 51.4107 48.991 51.317 49.0067C51.2389 49.0223 51.1608 49.0535 51.0827 49.0691C50.989 49.1004 50.8953 49.116 50.8016 49.1472C50.7235 49.1628 50.6454 49.1941 50.5674 49.2097C50.4737 49.2253 50.38 49.2565 50.2706 49.2721C50.1926 49.2878 50.1145 49.3034 50.0208 49.319C49.9271 49.3346 49.8177 49.3658 49.724 49.3815C49.646 49.3971 49.5679 49.4127 49.4898 49.4283C49.2712 49.4595 49.0681 49.5064 48.8495 49.5376C48.8183 49.5376 48.787 49.5376 48.7558 49.5532C48.5684 49.5845 48.381 49.6001 48.1936 49.6157C48.1155 49.6157 48.053 49.6313 47.975 49.6313C47.85 49.6469 47.7251 49.6469 47.6158 49.6626C47.5377 49.6626 47.4596 49.6782 47.3815 49.6782C47.2566 49.6938 47.1316 49.6938 46.9911 49.6938C46.913 49.6938 46.8505 49.6938 46.7725 49.7094C46.6631 49.7094 46.5538 49.7094 46.4445 49.7094C46.3664 49.7094 46.2883 49.7094 46.2102 49.7094C46.0853 49.7094 45.976 49.7094 45.8511 49.7094C45.7886 49.7094 45.7105 49.7094 45.648 49.7094C45.5387 49.7094 45.4294 49.6938 45.3201 49.6938C45.242 49.6938 45.1639 49.6938 45.0858 49.6782C44.9765 49.6782 44.8516 49.6626 44.7423 49.6469C44.6798 49.6469 44.6017 49.6313 44.5392 49.6313C44.3987 49.6157 44.2581 49.6001 44.1176 49.5845C44.0707 49.5845 44.0239 49.5689 43.9927 49.5689C43.8053 49.5532 43.6335 49.522 43.4461 49.5064C43.4148 49.5064 43.3836 49.4908 43.3524 49.4908C43.1962 49.4752 43.04 49.4439 42.8839 49.4127C42.8214 49.3971 42.7589 49.3815 42.6965 49.3815C42.5715 49.3658 42.4622 49.3346 42.3373 49.319C42.2748 49.3034 42.2123 49.2878 42.1499 49.2721C42.0249 49.2409 41.9 49.2097 41.7594 49.1784C41.6814 49.1628 41.6189 49.1472 41.5408 49.1316C41.4315 49.1004 41.3066 49.0691 41.1972 49.0379C41.1348 49.0223 41.0723 49.0067 41.0098 48.9754C40.8224 48.9286 40.6506 48.8661 40.4789 48.8036C40.4476 48.788 40.4164 48.788 40.3852 48.7724C40.1821 48.7099 39.9791 48.6319 39.7761 48.5538C39.698 48.5225 39.6199 48.4913 39.5418 48.4601C39.4794 48.4288 39.4169 48.4132 39.3544 48.382C39.2607 48.3507 39.1827 48.3039 39.089 48.257C39.0265 48.2258 38.9796 48.2102 38.9172 48.179C38.8235 48.1321 38.7298 48.0853 38.6361 48.0384C38.5892 48.0072 38.5424 47.9916 38.4955 47.9603C38.355 47.8822 38.2144 47.8198 38.0895 47.7417C35.8406 46.4455 34.7162 44.7433 34.7319 43.041L34.5757 83.0983C34.5757 84.8005 35.6845 86.5028 37.9333 87.799C38.0739 87.877 38.1988 87.9551 38.3393 88.0176C38.3862 88.0488 38.433 88.0644 38.4799 88.0801C38.5736 88.1269 38.6673 88.1738 38.761 88.2206C38.8235 88.2519 38.8703 88.2675 38.9328 88.2987C39.0265 88.3456 39.1046 88.3768 39.1983 88.4236C39.2607 88.4549 39.3232 88.4705 39.3857 88.5017C39.4481 88.533 39.5106 88.5486 39.5731 88.5798C39.5887 88.5798 39.6043 88.5954 39.6356 88.5954C39.8386 88.6735 40.026 88.7516 40.2446 88.8141C40.2758 88.8297 40.3071 88.8297 40.3383 88.8453C40.5101 88.9078 40.6975 88.9546 40.8693 89.0171C40.9005 89.0327 40.9317 89.0327 40.963 89.0483C40.9942 89.0639 41.0255 89.0639 41.0723 89.0795C41.1816 89.1108 41.3066 89.142 41.4159 89.1732C41.4783 89.1889 41.5564 89.2045 41.6345 89.2201C41.7594 89.2513 41.8844 89.2826 42.0249 89.3138C42.0718 89.3294 42.1186 89.3294 42.1655 89.345C42.1811 89.345 42.1967 89.345 42.1967 89.345C42.3217 89.3763 42.431 89.3919 42.5559 89.4075C42.6184 89.4231 42.6808 89.4387 42.7433 89.4387C42.8995 89.47 43.0556 89.4856 43.1962 89.5168C43.2274 89.5168 43.2587 89.5324 43.2899 89.5324C43.4773 89.5637 43.6491 89.5793 43.8365 89.5949C43.8677 89.5949 43.9146 89.5949 43.9458 89.6105C44.0864 89.6261 44.2425 89.6417 44.3831 89.6574C44.3831 89.6574 44.3831 89.6574 44.3987 89.6574C44.4612 89.6574 44.5236 89.673 44.5861 89.673C44.711 89.6886 44.8203 89.6886 44.9453 89.7042C45.0234 89.7042 45.1015 89.7042 45.1639 89.7198C45.2732 89.7198 45.3826 89.7354 45.4919 89.7354C45.5075 89.7354 45.5075 89.7354 45.5231 89.7354C45.5856 89.7354 45.648 89.7354 45.7105 89.7354C45.8354 89.7354 45.9448 89.7354 46.0697 89.7354C46.1478 89.7354 46.2259 89.7354 46.304 89.7354C46.4133 89.7354 46.5226 89.7354 46.6319 89.7354C46.6475 89.7354 46.6788 89.7354 46.6944 89.7354C46.7412 89.7354 46.8037 89.7354 46.8505 89.7354C46.9755 89.7354 47.1004 89.7198 47.241 89.7198C47.319 89.7198 47.3971 89.7042 47.4752 89.7042C47.6002 89.6886 47.7251 89.6886 47.8344 89.673C47.8813 89.673 47.9281 89.673 47.9593 89.6574C47.9906 89.6574 48.0218 89.6574 48.053 89.6417C48.2404 89.6261 48.4278 89.5949 48.6152 89.5793C48.6465 89.5793 48.6777 89.5793 48.7089 89.5637C48.9276 89.5324 49.1462 89.5012 49.3492 89.4543C49.3649 89.4543 49.3961 89.4543 49.4117 89.4387C49.4742 89.4231 49.521 89.4231 49.5835 89.4075C49.6772 89.3919 49.7865 89.3763 49.8802 89.345C49.9583 89.3294 50.0364 89.3138 50.1145 89.2982C50.2082 89.2826 50.3019 89.2513 50.4112 89.2357C50.4893 89.2201 50.5674 89.1889 50.6454 89.1732C50.7391 89.142 50.8328 89.1264 50.9265 89.0952C51.0046 89.0795 51.0827 89.0483 51.1608 89.0327C51.2545 89.0014 51.3482 88.9702 51.4419 88.9546C51.4888 88.939 51.52 88.9234 51.5668 88.9234C51.5981 88.9078 51.6293 88.9078 51.6449 88.8921C51.8167 88.8297 51.9729 88.7828 52.1447 88.7203C52.1759 88.7047 52.2071 88.6891 52.254 88.6891C52.4414 88.611 52.6288 88.533 52.8162 88.4549C52.863 88.4393 52.9099 88.408 52.9567 88.3924C53.0973 88.3299 53.2378 88.2675 53.3784 88.1894C53.4252 88.1581 53.4877 88.1425 53.5346 88.1113C53.7063 88.0176 53.8938 87.9239 54.0655 87.8302C54.1124 87.799 54.1592 87.7833 54.2061 87.7521C54.2529 87.7209 54.2842 87.7053 54.331 87.674C54.3935 87.6272 54.4716 87.5803 54.534 87.5491C54.5965 87.5022 54.659 87.471 54.7214 87.4241C54.7839 87.3773 54.8464 87.3305 54.9088 87.2836C54.9713 87.2368 55.0182 87.2055 55.0806 87.1587C55.1431 87.1118 55.2056 87.065 55.2524 87.0181C55.2993 86.9713 55.3617 86.9244 55.4086 86.8932C55.4711 86.8463 55.5179 86.7995 55.5804 86.7526C55.596 86.737 55.6272 86.7214 55.6428 86.6902C55.6897 86.6433 55.7209 86.6121 55.7678 86.5652C55.7834 86.5496 55.799 86.534 55.8146 86.5184C55.8927 86.4403 55.9708 86.3466 56.0489 86.2685C56.0645 86.2529 56.0801 86.2217 56.0957 86.206C56.1582 86.1279 56.2207 86.0655 56.2831 85.9874C56.2987 85.9718 56.3144 85.9562 56.3144 85.9405L56.33 85.9249C56.3456 85.8937 56.3612 85.8781 56.3924 85.8468C56.4549 85.7688 56.5018 85.7063 56.5486 85.6282C56.5799 85.5814 56.5955 85.5501 56.6267 85.5033C56.6736 85.4408 56.7048 85.3627 56.7516 85.3003C56.7673 85.2846 56.7829 85.269 56.7829 85.2378C56.7985 85.2066 56.8141 85.1753 56.8297 85.1597C56.861 85.0972 56.8922 85.0504 56.9234 84.9879C56.939 84.9411 56.9703 84.8942 56.9859 84.8474C57.0171 84.7849 57.0327 84.7381 57.064 84.6756C57.0796 84.6444 57.0796 84.6287 57.0952 84.5975C57.1108 84.5819 57.1108 84.5506 57.1108 84.535C57.1264 84.4726 57.1421 84.4257 57.1577 84.3632C57.1733 84.3164 57.1889 84.2695 57.2045 84.2071C57.2201 84.1446 57.2358 84.0978 57.2514 84.0353C57.2514 84.0041 57.267 83.9728 57.267 83.9416C57.267 83.926 57.267 83.8947 57.2826 83.8791C57.2982 83.8167 57.2982 83.7698 57.3138 83.7073C57.3138 83.6605 57.3295 83.6136 57.3295 83.5512C57.3295 83.4887 57.3451 83.4419 57.3451 83.3794C57.3451 83.3482 57.3451 83.3169 57.3451 83.2857C57.3451 83.2544 57.3451 83.2232 57.3451 83.192L57.5012 43.1347C57.5169 43.2128 57.5169 43.2753 57.5169 43.3377Z" fill="url(#paint0_linear_346_1076)"/>
<path d="M54.1594 38.6367C49.693 36.0599 42.4936 36.0599 38.0584 38.6367C33.6232 41.2135 33.6544 45.3832 38.1053 47.96C42.5717 50.5367 49.7711 50.5367 54.2062 47.96C58.6414 45.3832 58.6258 41.2135 54.1594 38.6367Z" fill="#2BBBE6"/>
<path d="M54.1589 78.2724C49.6925 75.6956 42.4931 75.6956 38.0579 78.2724C33.6227 80.8492 33.654 85.0189 38.1048 87.5957C42.5712 90.1725 49.7706 90.1725 54.2058 87.5957C58.6409 85.0189 58.6253 80.8492 54.1589 78.2724Z" fill="url(#paint1_linear_346_1076)"/>
<path d="M46.0539 90.0005C45.9446 90.0005 45.8509 90.0005 45.7416 90.0005H45.523H45.4917C45.398 90.0005 45.3043 90.0005 45.2106 89.9848L44.9295 89.9692C44.8202 89.9692 44.7109 89.9536 44.6016 89.9536L44.3829 89.938C44.2268 89.9224 44.0706 89.9067 43.9301 89.8911L43.8207 89.8755C43.6333 89.8599 43.4459 89.8287 43.2741 89.813H43.2585L43.1804 89.7974C43.0243 89.7818 42.8681 89.7506 42.7119 89.7194L42.4933 89.6725C42.384 89.6569 42.2747 89.6256 42.1497 89.61H42.1029L41.9623 89.5788C41.8374 89.5476 41.6968 89.5163 41.5719 89.4851L41.3533 89.4383C41.2283 89.407 41.119 89.3758 41.0097 89.3445L40.8067 89.2821C40.6193 89.2352 40.4319 89.1728 40.2601 89.1103L40.1664 89.0791C39.9634 89.0166 39.7604 88.9385 39.5573 88.8604L39.4949 88.8448C39.448 88.8292 39.4168 88.8136 39.3699 88.798L39.2606 88.7511C39.2138 88.7355 39.1669 88.7043 39.1201 88.6886C39.0264 88.6574 38.9483 88.6106 38.8546 88.5793L38.7765 88.5481C38.7296 88.5325 38.6984 88.5169 38.6672 88.5012C38.5735 88.4544 38.4798 88.4075 38.3705 88.3607L38.2299 88.2826C38.0893 88.2045 37.9488 88.1264 37.8082 88.0483C35.5594 86.7521 34.3257 85.0031 34.3257 83.1447L34.4819 43.0874C34.4819 43.0562 34.4819 43.0249 34.4975 42.9937C34.6224 41.2602 35.8249 39.6517 37.9019 38.4492C42.3996 35.8412 49.7239 35.8412 54.2372 38.4492C56.3767 39.6829 57.5948 41.3227 57.7041 43.0874C57.7041 43.103 57.7197 43.1342 57.7197 43.1655V43.3216L57.5636 83.2227C57.5636 83.254 57.5636 83.2852 57.5636 83.3321C57.5636 83.3633 57.5636 83.3789 57.5636 83.4101V83.4414C57.5636 83.5038 57.5636 83.5663 57.548 83.6288C57.548 83.6756 57.5323 83.7381 57.5323 83.7849C57.5167 83.8474 57.5167 83.9099 57.5011 83.9723C57.5011 84.0036 57.5011 84.0192 57.4855 84.0348C57.4855 84.0504 57.4699 84.0817 57.4699 84.0973V84.1285C57.4543 84.191 57.4386 84.2378 57.423 84.3003C57.4074 84.3471 57.3918 84.4096 57.3762 84.4565C57.3606 84.5189 57.3449 84.5658 57.3137 84.6283V84.6439C57.3137 84.6595 57.2981 84.6751 57.2981 84.6907C57.2981 84.7063 57.2825 84.722 57.2825 84.7376L57.2669 84.7688C57.2356 84.8313 57.22 84.8937 57.1888 84.9562C57.1732 85.0031 57.1419 85.0499 57.1107 85.1124C57.0795 85.1748 57.0482 85.2373 57.017 85.2842L57.0014 85.3154C56.9858 85.331 56.9858 85.3466 56.9701 85.3779L56.9389 85.4247C56.8921 85.5184 56.8452 85.5809 56.7984 85.659L56.7827 85.6902C56.7671 85.7214 56.7359 85.7527 56.7203 85.7839C56.6734 85.862 56.611 85.9401 56.5485 86.0182L56.5329 86.0494C56.5172 86.065 56.5016 86.0806 56.486 86.0962C56.486 86.0962 56.4704 86.1119 56.4704 86.1275L56.4235 86.1743C56.3611 86.2524 56.2986 86.3305 56.2361 86.393L56.1737 86.4554C56.0956 86.5335 56.0175 86.6272 55.9238 86.7053L55.8613 86.7678C55.8301 86.799 55.7833 86.8458 55.752 86.8771L55.6896 86.9396C55.6271 86.9864 55.5802 87.0333 55.5178 87.0957C55.4709 87.1426 55.4085 87.1894 55.3616 87.2363C55.2991 87.2831 55.2367 87.33 55.1742 87.3768C55.1117 87.4237 55.0649 87.4705 55.0024 87.5018C54.9399 87.5486 54.8775 87.5955 54.7994 87.6423C54.7369 87.6892 54.6745 87.736 54.612 87.7672C54.5495 87.8141 54.4714 87.861 54.3934 87.9078L54.3465 87.939C54.3153 87.9546 54.2997 87.9703 54.2684 87.9859C54.2216 88.0171 54.1747 88.0484 54.1279 88.064C53.9717 88.1577 53.7999 88.2514 53.5969 88.3607C53.55 88.3919 53.4876 88.4075 53.4407 88.4388C53.3002 88.5012 53.1596 88.5793 53.0035 88.6418L52.8629 88.7043C52.6755 88.7823 52.4881 88.8604 52.2851 88.9385L52.1758 88.9697C52.004 89.0322 51.8478 89.0947 51.676 89.1415L51.473 89.204C51.3793 89.2352 51.2856 89.2665 51.1919 89.2821C51.1138 89.3133 51.0357 89.3289 50.9576 89.3445C50.8639 89.3758 50.7702 89.3914 50.6765 89.4226C50.5985 89.4382 50.5204 89.4695 50.4267 89.4851C50.333 89.5163 50.2237 89.532 50.13 89.5476H50.0987C50.0206 89.5632 49.9582 89.5788 49.8801 89.5944C49.7864 89.61 49.6771 89.6413 49.5834 89.6569L49.3647 89.7037C49.1305 89.7506 48.9118 89.7818 48.6932 89.813L48.5995 89.8287C48.4121 89.8599 48.2247 89.8755 48.0217 89.8911L47.803 89.9068C47.6781 89.9224 47.5532 89.9224 47.4282 89.938C47.3502 89.938 47.2721 89.9536 47.194 89.9536C47.069 89.9536 46.9285 89.9692 46.8036 89.9692L46.6005 89.9848C46.4756 89.9848 46.3819 89.9848 46.2726 89.9848H46.0071C46.054 90.0005 46.0539 90.0005 46.0539 90.0005ZM43.3366 89.3445C43.5084 89.3758 43.6958 89.3914 43.8676 89.407L43.9769 89.4226C44.1175 89.4382 44.258 89.4539 44.4142 89.4695L44.6484 89.4851C44.7577 89.4851 44.8671 89.5007 44.9608 89.5007L45.2263 89.5163C45.32 89.5163 45.4137 89.5319 45.5074 89.5319L45.523 89.7662V89.5319H45.7416C45.8509 89.5319 45.9602 89.5319 46.0696 89.5319H46.3351C46.4288 89.5319 46.5381 89.5319 46.6318 89.5319L46.8504 89.5163C46.9753 89.5163 47.1003 89.5007 47.2252 89.5007C47.3033 89.5007 47.3814 89.4851 47.4595 89.4851C47.5844 89.4695 47.6937 89.4695 47.8187 89.4539L48.0373 89.4383C48.2247 89.4226 48.4121 89.3914 48.5995 89.3758L48.6932 89.3602C48.9118 89.3289 49.1149 89.2977 49.3335 89.2508L49.5677 89.204C49.6614 89.1884 49.7708 89.1728 49.8645 89.1415C49.9269 89.1259 50.005 89.1103 50.0675 89.0947H50.0987C50.1924 89.0791 50.2861 89.0478 50.3798 89.0322C50.4579 89.0166 50.536 88.9854 50.6141 88.9697C50.7078 88.9385 50.8015 88.9229 50.8952 88.8917C50.9733 88.876 51.0513 88.8448 51.1294 88.8292C51.2231 88.798 51.3168 88.7823 51.4105 88.7511L51.6136 88.6886C51.7697 88.6418 51.9415 88.5793 52.0977 88.5169L52.1914 88.4856C52.3788 88.4075 52.5662 88.3294 52.7536 88.2514L52.8941 88.1889C53.0347 88.1264 53.1752 88.064 53.3158 88.0015C53.3626 87.9703 53.4251 87.9546 53.472 87.9234C53.675 87.8141 53.8312 87.736 53.9873 87.6423C54.0342 87.6111 54.081 87.5955 54.1279 87.5642C54.1435 87.5486 54.1747 87.533 54.1903 87.5174L54.2528 87.4861C54.3153 87.4393 54.3934 87.4081 54.4558 87.3612C54.5183 87.33 54.5651 87.2831 54.6276 87.2519C54.6901 87.205 54.7682 87.1582 54.815 87.1113C54.8775 87.0645 54.9243 87.0333 54.9868 86.9864C55.0493 86.9396 55.1117 86.8927 55.1586 86.8458C55.2054 86.799 55.2679 86.7678 55.3148 86.7209C55.3616 86.6741 55.4241 86.6272 55.4709 86.5804L55.5334 86.5179C55.5646 86.4867 55.6115 86.4554 55.6427 86.4242L55.6583 86.4086L55.6739 86.393L55.7052 86.3617C55.7833 86.2836 55.8613 86.2056 55.9394 86.1275L55.9863 86.0806C56.0487 86.0025 56.1112 85.9401 56.1737 85.862L56.2049 85.8151L56.4079 85.9401L56.2205 85.7995L56.283 85.7214C56.3298 85.659 56.3923 85.5809 56.4392 85.5184C56.4548 85.4872 56.4704 85.4716 56.486 85.4403L56.5172 85.4091C56.5641 85.3466 56.5953 85.2842 56.6422 85.2217L56.7203 85.0968C56.7515 85.0499 56.7827 84.9874 56.7984 84.9406C56.814 84.8937 56.8452 84.8469 56.8608 84.8C56.8921 84.7376 56.9077 84.6907 56.9233 84.6283L56.9701 84.4877C56.9858 84.4409 57.0014 84.3784 57.017 84.3315C57.0326 84.2847 57.0482 84.2378 57.0638 84.191C57.0795 84.1441 57.0951 84.0817 57.0951 84.0348L57.1263 83.8943C57.1419 83.8474 57.1419 83.7849 57.1575 83.7381C57.1575 83.6912 57.1732 83.6444 57.1732 83.5975C57.1732 83.5507 57.1888 83.4882 57.1888 83.4414V83.3945C57.1888 83.3789 57.1888 83.3633 57.1888 83.3477C57.1888 83.3164 57.1888 83.2852 57.1888 83.254L57.3449 43.3529C57.3449 43.3373 57.3449 43.3216 57.3449 43.306C57.3137 41.6506 56.1581 40.0733 54.1123 38.8864C49.7239 36.3565 42.6026 36.3565 38.2455 38.8864C36.2309 40.0577 35.1065 41.6038 35.0597 43.2436C35.0597 43.2592 35.0597 43.2904 35.0441 43.306L34.8879 83.1915C34.8879 84.8781 36.0279 86.471 38.1362 87.6892C38.2611 87.7672 38.4017 87.8453 38.5422 87.9078L38.6828 87.9703C38.7765 88.0171 38.8702 88.064 38.9639 88.1108C38.9951 88.1264 39.042 88.142 39.0732 88.1577L39.1357 88.1889C39.2294 88.2358 39.3075 88.267 39.4012 88.2982C39.448 88.3138 39.4949 88.3294 39.5417 88.3607L39.6667 88.4075C39.6979 88.4231 39.7447 88.4388 39.776 88.4544L39.8384 88.47C40.0258 88.5481 40.2289 88.6106 40.4319 88.6886L40.5256 88.7199C40.6974 88.7823 40.8691 88.8292 41.0566 88.8917L41.244 88.9385C41.3533 88.9697 41.4626 89.001 41.5875 89.0322L41.7905 89.0791C41.9155 89.1103 42.0404 89.1415 42.1653 89.1572L42.3528 89.204C42.4621 89.2196 42.5714 89.2508 42.6807 89.2665L42.8837 89.3133C43.0399 89.3446 43.1804 89.3602 43.3366 89.3914V89.3445Z" fill="#444444"/>
<path d="M25.0492 46.6322L16.9441 41.9472C16.5068 41.6973 15.8196 41.6973 15.3824 41.9472L7.33968 46.6322C6.91802 46.8821 6.91802 47.2881 7.33968 47.538L15.4448 52.2231C15.8821 52.4729 16.5692 52.4729 17.0065 52.2231L25.0492 47.538C25.4709 47.2881 25.4709 46.8821 25.0492 46.6322Z" fill="white"/>
<path d="M32.1396 47.3193C32.1396 47.3349 32.1396 47.3661 32.1396 47.3818C32.1396 47.3974 32.124 47.413 32.124 47.4286C32.124 47.4442 32.1084 47.4598 32.1084 47.4911C32.1084 47.5067 32.0928 47.5223 32.0928 47.5379C32.0772 47.5535 32.0772 47.5848 32.0616 47.6004C32.0616 47.616 32.0459 47.6316 32.0303 47.6472C32.0147 47.6629 31.9991 47.6941 31.9835 47.7097C31.9678 47.7253 31.9678 47.7409 31.9522 47.7409C31.921 47.7722 31.9054 47.8034 31.8741 47.8346C31.8585 47.8503 31.8585 47.8503 31.8429 47.8659C31.8273 47.8815 31.8117 47.8971 31.7804 47.9127C31.7648 47.9283 31.7492 47.944 31.7336 47.9596C31.718 47.9752 31.6867 47.9908 31.6711 48.0064C31.6399 48.022 31.6243 48.0377 31.593 48.0533L17.6003 56.1897C17.5379 56.2209 17.4754 56.2521 17.4129 56.2834C17.3973 56.299 17.3817 56.299 17.3505 56.299C17.3036 56.3146 17.2568 56.3458 17.1943 56.3615C17.1787 56.3615 17.1631 56.3771 17.1318 56.3771C17.1006 56.3927 17.0694 56.3927 17.0381 56.4083C17.0069 56.4083 16.9913 56.4239 16.96 56.4239C16.9288 56.4395 16.882 56.4395 16.8507 56.4395C16.8195 56.4395 16.8039 56.4552 16.7726 56.4552C16.6946 56.4708 16.6321 56.4708 16.554 56.4864C16.5384 56.4864 16.5072 56.4864 16.4915 56.4864C16.4447 56.4864 16.4135 56.4864 16.3666 56.502C16.3354 56.502 16.3041 56.502 16.2885 56.502C16.2573 56.502 16.226 56.502 16.1792 56.502C16.148 56.502 16.1167 56.502 16.0855 56.502C16.0543 56.502 16.023 56.502 15.9918 56.502C15.9606 56.502 15.9293 56.502 15.8981 56.502C15.8669 56.502 15.8356 56.502 15.8044 56.4864C15.7732 56.4864 15.7419 56.4864 15.7263 56.4708C15.6951 56.4708 15.6638 56.4552 15.6326 56.4552C15.6014 56.4552 15.5858 56.4395 15.5545 56.4395C15.5077 56.4239 15.4764 56.4239 15.4296 56.4083C15.414 56.4083 15.3827 56.3927 15.3671 56.3927C15.3047 56.3771 15.2266 56.3458 15.1641 56.3302C15.1329 56.3146 15.1016 56.299 15.0704 56.2834C15.0548 56.2834 15.0392 56.2677 15.0235 56.2677C14.9767 56.2521 14.9298 56.2209 14.883 56.1897L0.812199 48.0689C0.437394 47.8503 0.249992 47.5692 0.249992 47.2881L0.234375 49.9117C0.234375 50.1928 0.421777 50.4895 0.796582 50.6925L14.8674 58.8133C14.9142 58.8445 14.9611 58.8602 15.0079 58.8914C15.0235 58.8914 15.0392 58.907 15.0548 58.907C15.086 58.9226 15.1172 58.9382 15.1485 58.9382C15.1485 58.9382 15.1485 58.9382 15.1641 58.9382C15.2266 58.9695 15.3047 58.9851 15.3671 59.0007H15.3827C15.3984 59.0007 15.414 59.0007 15.4296 59.0163C15.4764 59.0319 15.5077 59.0319 15.5545 59.0476C15.5701 59.0476 15.5701 59.0476 15.5858 59.0476C15.6014 59.0476 15.617 59.0476 15.6326 59.0632C15.6638 59.0632 15.6951 59.0788 15.7263 59.0788C15.7419 59.0788 15.7575 59.0788 15.7732 59.0788C15.7888 59.0788 15.8044 59.0788 15.82 59.0788C15.8512 59.0788 15.8825 59.0788 15.9137 59.0944C15.9293 59.0944 15.9449 59.0944 15.9606 59.0944C15.9762 59.0944 15.9918 59.0944 16.0074 59.0944C16.0386 59.0944 16.0699 59.0944 16.1011 59.0944C16.1167 59.0944 16.1323 59.0944 16.148 59.0944C16.1636 59.0944 16.1792 59.0944 16.1792 59.0944C16.2104 59.0944 16.2417 59.0944 16.2885 59.0944C16.3041 59.0944 16.3197 59.0944 16.3354 59.0944C16.351 59.0944 16.351 59.0944 16.3666 59.0944C16.4135 59.0944 16.4603 59.0944 16.4915 59.0788C16.5072 59.0788 16.5228 59.0788 16.5384 59.0788H16.554C16.6321 59.0788 16.6946 59.0632 16.7726 59.0476C16.7726 59.0476 16.7726 59.0476 16.7883 59.0476C16.8039 59.0476 16.8351 59.0319 16.8507 59.0319C16.882 59.0319 16.9288 59.0163 16.96 59.0163C16.9913 59.0163 17.0069 59.0007 17.0381 59.0007C17.0694 58.9851 17.1006 58.9851 17.1318 58.9695H17.1474C17.1631 58.9695 17.1631 58.9539 17.1787 58.9539C17.2255 58.9382 17.288 58.9226 17.3348 58.8914C17.3505 58.8914 17.3661 58.8758 17.3817 58.8758C17.4442 58.8445 17.5066 58.8133 17.5691 58.7821L31.5618 50.6457C31.5774 50.6457 31.5774 50.6301 31.5774 50.6301C31.593 50.6144 31.6087 50.6144 31.6243 50.5988C31.6399 50.5832 31.6711 50.5676 31.6867 50.552C31.7024 50.5364 31.718 50.5207 31.7336 50.5051C31.7492 50.4895 31.7804 50.4739 31.7961 50.4583C31.7961 50.4583 31.8117 50.4583 31.8117 50.4427L31.8273 50.427C31.8585 50.3958 31.8898 50.3646 31.9054 50.3333L31.921 50.3177L31.9366 50.3021C31.9522 50.2865 31.9678 50.2553 31.9835 50.2396C31.9835 50.224 31.9991 50.224 31.9991 50.2084V50.1928C32.0147 50.1772 32.0147 50.1459 32.0303 50.1303C32.0303 50.1147 32.0459 50.1147 32.0459 50.0991V50.0835C32.0459 50.0679 32.0616 50.0522 32.0616 50.021C32.0616 50.0054 32.0772 49.9898 32.0772 49.9898C32.0772 49.9898 32.0772 49.9898 32.0772 49.9742C32.0772 49.9585 32.0772 49.9273 32.0772 49.9117C32.0772 49.8961 32.0772 49.8805 32.0772 49.8648V49.8492L32.0928 47.2256C32.1396 47.2881 32.1396 47.3037 32.1396 47.3193Z" fill="url(#paint2_linear_346_1076)"/>
<path d="M31.5775 46.4761L17.5067 38.3553C16.7571 37.918 15.5546 37.918 14.805 38.3553L0.812272 46.4761C0.0626626 46.9133 0.0782795 47.6161 0.827889 48.0378L14.8987 56.1585C15.6483 56.5958 16.8508 56.5958 17.6004 56.1585L31.5931 48.0221C32.3271 47.6161 32.3271 46.9133 31.5775 46.4761Z" fill="white"/>
<path d="M16.2259 59.3599C16.2103 59.3599 16.1947 59.3599 16.1791 59.3599H16.1322H16.101C16.0541 59.3599 16.0229 59.3599 15.976 59.3599H15.9292H15.898C15.8511 59.3599 15.8043 59.3443 15.773 59.3443L15.6949 59.3286C15.6481 59.3286 15.6169 59.313 15.57 59.313C15.5388 59.313 15.5232 59.313 15.5232 59.2974C15.5232 59.2974 15.5075 59.2974 15.4919 59.2974C15.4451 59.2818 15.3982 59.2818 15.3514 59.2662L15.3045 59.2505H15.2889C15.2108 59.2349 15.1484 59.2037 15.0703 59.1725C15.039 59.1568 15.0078 59.1412 14.9766 59.1412L15.039 58.907L14.9453 59.1256L14.8985 59.11C14.8516 59.0788 14.7892 59.0631 14.7423 59.0319L0.671517 50.9111C0.234245 50.6613 -0.015625 50.3021 -0.015625 49.9117L-8.13417e-06 47.2724C-8.13417e-06 47.2724 -8.13417e-06 47.2724 -8.13417e-06 47.2568C-8.13417e-06 46.882 0.249862 46.5384 0.671517 46.2886L14.6642 38.1678C15.4919 37.6837 16.7725 37.6837 17.6002 38.1678L31.671 46.2886C32.0927 46.5384 32.3425 46.882 32.3581 47.2412C32.3581 47.2568 32.3581 47.2724 32.3581 47.2724L32.3425 49.896C32.3425 49.9273 32.3425 49.9585 32.3425 49.9741C32.3425 50.0054 32.3425 50.0366 32.3269 50.0522C32.3269 50.0834 32.3113 50.0991 32.3113 50.1147C32.2957 50.1459 32.2957 50.1771 32.2801 50.1928C32.2644 50.224 32.2644 50.2396 32.2488 50.2552C32.2332 50.2865 32.2176 50.3177 32.2176 50.3333C32.202 50.3646 32.1864 50.3802 32.1864 50.3958C32.1707 50.427 32.1551 50.4583 32.1239 50.4739C32.1239 50.4739 32.1239 50.4895 32.1083 50.4895C32.1083 50.5051 32.0927 50.5207 32.077 50.5207C32.0458 50.552 32.0146 50.5832 31.9833 50.6144C31.9833 50.6144 31.9677 50.63 31.9521 50.6457L31.9365 50.6613C31.9209 50.6769 31.9052 50.6925 31.8896 50.7081L31.7178 50.552L31.8584 50.7394C31.8428 50.755 31.8272 50.7706 31.8115 50.7706C31.7959 50.7862 31.7647 50.8018 31.7491 50.8174L31.7178 50.8331C31.7022 50.8487 31.6866 50.8487 31.671 50.8643L31.6398 50.8799L17.647 59.0007C17.5846 59.0319 17.5221 59.0788 17.444 59.11L17.3816 59.1412C17.3347 59.1569 17.2722 59.1881 17.2098 59.2037L17.1785 59.2193C17.1785 59.2193 17.1629 59.2193 17.1473 59.2193C17.1161 59.2349 17.0848 59.2349 17.0692 59.2505L17.0224 59.0319L17.0848 59.2505L17.0224 59.2662C16.9911 59.2818 16.9443 59.2818 16.9131 59.2974L16.8506 59.313C16.7569 59.3286 16.6788 59.3443 16.6007 59.3443C16.5695 59.3443 16.5539 59.3443 16.5383 59.3443C16.4758 59.3443 16.4289 59.3599 16.3821 59.3599H16.3508H16.3196C16.2728 59.3599 16.2571 59.3599 16.2259 59.3599ZM0.484115 47.2724L0.468498 49.896C0.468498 50.0991 0.624667 50.3177 0.921387 50.4739L14.9922 58.5946C15.039 58.6103 15.0703 58.6415 15.1171 58.6571L15.1327 58.6727L15.1484 58.6883L15.164 58.704C15.1796 58.7196 15.1952 58.7196 15.2264 58.7352C15.2889 58.7664 15.3514 58.782 15.4295 58.7977H15.4451L15.4763 58.8133C15.5075 58.8289 15.5544 58.8289 15.5856 58.8445H15.6169H15.6637C15.6949 58.8445 15.7262 58.8601 15.7574 58.8601H15.773H15.8043C15.8043 58.8601 15.8199 58.8601 15.8355 58.8601C15.8667 58.8601 15.898 58.8601 15.9292 58.8757H15.9604H15.9917C15.9917 58.8757 16.0073 58.8757 16.0229 58.8757C16.0541 58.8757 16.0854 58.8757 16.1166 58.8757H16.1478L16.1634 59.11L16.1791 58.8757H16.2103C16.2415 58.8757 16.2728 58.8757 16.304 58.8757H16.3352L16.3665 59.11V58.8757H16.3977C16.4446 58.8757 16.4758 58.8757 16.5226 58.8601H16.5539H16.5851C16.6632 58.8601 16.7257 58.8445 16.7881 58.8289L16.8506 58.8133C16.8818 58.8133 16.9131 58.7977 16.9443 58.7977L16.9911 58.782L17.0224 58.7664C17.038 58.7664 17.0692 58.7508 17.0848 58.7508L17.1317 58.7352C17.1785 58.7196 17.2254 58.704 17.2722 58.6883L17.3191 58.6727C17.3659 58.6415 17.4284 58.6259 17.4753 58.5946L31.5304 50.427C31.5617 50.4114 31.5773 50.3958 31.5929 50.3958L31.6241 50.3802L31.6398 50.3646C31.6554 50.3489 31.671 50.3333 31.6866 50.3177C31.6866 50.3177 31.7022 50.3021 31.7178 50.2865C31.7335 50.2709 31.7647 50.2396 31.7803 50.224L31.7959 50.2084V50.1928C31.8115 50.1771 31.8272 50.1615 31.8272 50.1459L31.8428 50.1303V50.1147C31.8428 50.0991 31.8584 50.0835 31.8584 50.0835C31.8584 50.0835 31.874 50.0678 31.874 50.0522C31.874 50.0522 31.874 50.0522 31.874 50.0366C31.874 50.021 31.874 50.021 31.8896 50.0054L31.9052 49.9741V49.9585C31.9052 49.9585 31.9052 49.9429 31.9052 49.9273V49.8804L31.9209 47.3349C31.9209 47.3193 31.9209 47.288 31.9209 47.2724C31.9365 47.0538 31.7803 46.8195 31.4836 46.6477L17.4128 38.527C16.7413 38.1365 15.6169 38.1365 14.9453 38.527L0.952621 46.6477C0.640283 46.8508 0.484115 47.0538 0.484115 47.2724C0.484115 47.2568 0.484115 47.2568 0.484115 47.2724Z" fill="#444444"/>
<path d="M20.1615 42.291L20.1459 46.7418L16.1948 49.0375L16.2104 44.5867L20.1615 42.291Z" fill="#FDA80E"/>
<path d="M16.2103 44.5867L16.1947 49.0375L12.2124 46.7418L12.228 42.291L16.2103 44.5867Z" fill="#FDC800"/>
<path d="M20.1614 42.2908L16.2103 44.5865L12.228 42.2908L16.1791 39.9951L20.1614 42.2908Z" fill="#FDF21C"/>
<path d="M16.1946 49.2714C16.1477 49.2714 16.1165 49.2558 16.0696 49.2402L12.0873 46.9445C12.0093 46.8976 11.9624 46.8196 11.9624 46.7415L11.978 42.2907C11.978 42.2126 12.0249 42.1345 12.0873 42.0877L16.0384 39.792C16.1165 39.7451 16.1946 39.7451 16.2727 39.792L20.255 42.0877C20.333 42.1345 20.3799 42.2126 20.3799 42.2907L20.3643 46.7415C20.3643 46.8196 20.3174 46.8976 20.255 46.9445L16.3039 49.2402C16.2727 49.2558 16.2258 49.2714 16.1946 49.2714ZM12.4465 46.6009L16.1946 48.7561L19.9114 46.6009L19.927 42.4312L16.179 40.2761L12.4621 42.4312L12.4465 46.6009Z" fill="#444444"/>
<path d="M9.94852 4.37305L9.9329 7.98054L6.73145 9.83895V6.24707L9.94852 4.37305Z" fill="url(#paint3_linear_346_1076)"/>
<path d="M6.73123 6.24707V9.83895L3.49854 7.98054L3.51415 4.37305L6.73123 6.24707Z" fill="url(#paint4_linear_346_1076)"/>
<path d="M9.94831 4.37306L6.73123 6.24708L3.51416 4.37306L6.71562 2.51465L9.94831 4.37306Z" fill="white"/>
<path d="M6.7311 10.0731C6.68425 10.0731 6.65302 10.0575 6.60617 10.0419L3.3891 8.18345C3.31101 8.1366 3.26416 8.05851 3.26416 7.98043L3.27978 4.37293C3.27978 4.29485 3.32663 4.21676 3.3891 4.16991L6.59055 2.31151C6.66864 2.26465 6.74672 2.26465 6.82481 2.31151L10.0575 4.16991C10.1356 4.21676 10.1824 4.29485 10.1824 4.37293L10.1668 7.98043C10.1668 8.05851 10.12 8.1366 10.0575 8.18345L6.84042 10.0419C6.80919 10.0731 6.76234 10.0731 6.7311 10.0731ZM3.73267 7.85549L6.71549 9.58897L9.68269 7.85549L9.69831 4.5291L6.71549 2.79563L3.74828 4.51348L3.73267 7.85549Z" fill="#444444"/>
<path d="M3.49809 8.2147C3.42 8.2147 3.3263 8.16785 3.29507 8.08977C3.2326 7.98045 3.27945 7.8399 3.38877 7.77743L6.44968 6.13766C6.63708 6.04396 6.85571 6.04396 7.0275 6.13766L10.0416 7.77743C10.1509 7.8399 10.1977 7.98045 10.1353 8.08977C10.0728 8.19909 9.93224 8.24594 9.82292 8.18347L6.80886 6.5437C6.76201 6.51246 6.71516 6.51246 6.66831 6.5437L3.60741 8.18347C3.57617 8.2147 3.54494 8.2147 3.49809 8.2147Z" fill="#444444"/>
<path d="M6.73074 10.0728C6.65266 10.0728 6.57457 10.026 6.52772 9.96349L3.31065 4.49759C3.24818 4.38827 3.27941 4.24772 3.38873 4.16963C3.49805 4.10717 3.6386 4.1384 3.71668 4.24772L6.73074 9.37005L9.7448 4.24772C9.80726 4.1384 9.94781 4.09155 10.0727 4.16963C10.1821 4.2321 10.2289 4.37265 10.1508 4.49759L6.93376 9.96349C6.88691 10.0416 6.80882 10.0728 6.73074 10.0728Z" fill="#444444"/>
<path d="M20.1615 36.7158L20.1459 41.1666L16.1948 43.4623L16.2104 39.0115L20.1615 36.7158Z" fill="#FDA80E"/>
<path d="M16.2103 39.0115L16.1947 43.4623L12.2124 41.1666L12.228 36.7158L16.2103 39.0115Z" fill="#FDC800"/>
<path d="M20.1614 36.7156L16.2103 39.0113L12.228 36.7156L16.1791 34.4199L20.1614 36.7156Z" fill="#FDF21C"/>
<path d="M16.1946 43.6962C16.1477 43.6962 16.1165 43.6806 16.0696 43.665L12.0873 41.3693C12.0093 41.3225 11.9624 41.2444 11.9624 41.1663L11.978 36.7155C11.978 36.6374 12.0249 36.5593 12.0873 36.5125L16.0384 34.2168C16.1165 34.1699 16.1946 34.1699 16.2727 34.2168L20.255 36.5125C20.333 36.5593 20.3799 36.6374 20.3799 36.7155L20.3643 41.1663C20.3643 41.2444 20.3174 41.3225 20.255 41.3693L16.3039 43.665C16.2727 43.6962 16.2258 43.6962 16.1946 43.6962ZM12.4465 41.0257L16.1946 43.1809L19.9114 41.0257L19.927 36.856L16.179 34.7009L12.4621 36.856L12.4465 41.0257Z" fill="#444444"/>
<path d="M20.1615 31.2812L20.1459 35.7321L16.1948 38.0277L16.2104 33.5769L20.1615 31.2812Z" fill="#FDA80E"/>
<path d="M16.2103 33.5769L16.1947 38.0277L12.2124 35.7321L12.228 31.2812L16.2103 33.5769Z" fill="#FDC800"/>
<path d="M20.1614 31.281L16.2103 33.5767L12.228 31.281L16.1791 28.9854L20.1614 31.281Z" fill="#FDF21C"/>
<path d="M16.1946 38.2616C16.1477 38.2616 16.1165 38.246 16.0696 38.2304L12.0873 35.9347C12.0093 35.8879 11.9624 35.8098 11.9624 35.7317L11.978 31.2809C11.978 31.2028 12.0249 31.1247 12.0873 31.0779L16.0384 28.7822C16.1165 28.7354 16.1946 28.7354 16.2727 28.7822L20.255 31.0779C20.333 31.1247 20.3799 31.2028 20.3799 31.2809L20.3643 35.7317C20.3643 35.8098 20.3174 35.8879 20.255 35.9347L16.3039 38.2304C16.2727 38.246 16.2258 38.2616 16.1946 38.2616ZM12.4465 35.5912L16.1946 37.7463L19.9114 35.5912L19.927 31.4215L16.179 29.2663L12.4621 31.4215L12.4465 35.5912Z" fill="#444444"/>
<path d="M20.1615 25.8467L20.1459 30.2975L16.1948 32.5932L16.2104 28.1424L20.1615 25.8467Z" fill="#FDA80E"/>
<path d="M16.2103 28.1424L16.1947 32.5932L12.2124 30.2975L12.228 25.8467L16.2103 28.1424Z" fill="#FDC800"/>
<path d="M20.1614 25.8465L16.2103 28.1421L12.228 25.8465L16.1791 23.5508L20.1614 25.8465Z" fill="#FDF21C"/>
<path d="M16.1946 32.8271C16.1477 32.8271 16.1165 32.8115 16.0696 32.7958L12.0873 30.5002C12.0093 30.4533 11.9624 30.3752 11.9624 30.2971L11.978 25.8463C11.978 25.7683 12.0249 25.6902 12.0873 25.6433L16.0384 23.3476C16.1165 23.3008 16.1946 23.3008 16.2727 23.3476L20.255 25.6433C20.333 25.6902 20.3799 25.7683 20.3799 25.8463L20.3643 30.2971C20.3643 30.3752 20.3174 30.4533 20.255 30.5002L16.3039 32.7958C16.2727 32.8115 16.2258 32.8271 16.1946 32.8271ZM12.4465 30.1566L16.1946 32.3117L19.9114 30.1566L19.927 25.9869L16.179 23.8318L12.4621 25.9869L12.4465 30.1566Z" fill="#444444"/>
<path d="M20.1615 20.4111L20.1459 24.8619L16.1948 27.1576L16.2104 22.7068L20.1615 20.4111Z" fill="#FDA80E"/>
<path d="M16.2103 22.7068L16.1947 27.1576L12.2124 24.8619L12.228 20.4111L16.2103 22.7068Z" fill="#FDC800"/>
<path d="M20.1614 20.4109L16.2103 22.7066L12.228 20.4109L16.1791 18.1152L20.1614 20.4109Z" fill="#FDF21C"/>
<path d="M16.1946 27.3915C16.1477 27.3915 16.1165 27.3759 16.0696 27.3603L12.0873 25.0646C12.0093 25.0178 11.9624 24.9397 11.9624 24.8616L11.978 20.4108C11.978 20.3327 12.0249 20.2546 12.0873 20.2078L16.0384 17.9121C16.1165 17.8652 16.1946 17.8652 16.2727 17.9121L20.255 20.2078C20.333 20.2546 20.3799 20.3327 20.3799 20.4108L20.3643 24.8616C20.3643 24.9397 20.3174 25.0178 20.255 25.0646L16.3039 27.3603C16.2727 27.3759 16.2258 27.3915 16.1946 27.3915ZM12.4465 24.721L16.1946 26.8762L19.9114 24.721L19.927 20.5513L16.179 18.3962L12.4621 20.5513L12.4465 24.721Z" fill="#444444"/>
<path d="M15.3356 11.2905L7.26172 6.58984V9.11978L15.3356 13.8205V11.2905Z" fill="#FDC800"/>
<path d="M9.47931 5.30957L7.26172 6.59015L15.3356 11.2908L17.5376 10.0102L9.47931 5.30957Z" fill="#FDF21C"/>
<path d="M17.5374 10.0098L17.553 12.5553L15.3354 13.8203V11.2903L17.5374 10.0098Z" fill="#47836F"/>
<path d="M15.3355 14.0549C15.2887 14.0549 15.2574 14.0393 15.2106 14.0236L7.15228 9.32297C7.07419 9.29174 7.02734 9.21365 7.02734 9.11995V6.5744C7.02734 6.49632 7.07419 6.41824 7.15228 6.37139L9.36987 5.0908C9.44796 5.04395 9.52604 5.04395 9.60413 5.0908L17.678 9.79148C17.7561 9.83833 17.7874 9.91641 17.7874 9.9945V12.54C17.7874 12.6181 17.7405 12.6962 17.6624 12.7431L15.4605 14.0236C15.4136 14.0549 15.3824 14.0549 15.3355 14.0549ZM7.49585 8.99502L15.3355 13.5551L17.3032 12.4151V10.1507L9.46357 5.57493L7.49585 6.71496V8.99502Z" fill="#444444"/>
<path d="M20.1615 14.9766L20.1459 19.4118L16.1948 21.7074L16.2104 17.2722L20.1615 14.9766Z" fill="#FDA80E"/>
<path d="M16.2103 17.2722L16.1947 21.7074L12.2124 19.4118L12.228 14.9766L16.2103 17.2722Z" fill="#FDC800"/>
<path d="M20.1614 14.9763L16.2103 17.272L12.228 14.9763L16.1791 12.665L20.1614 14.9763Z" fill="#FDF21C"/>
<path d="M16.1946 21.9413C16.1477 21.9413 16.1165 21.9257 16.0696 21.9101L12.0873 19.6144C12.0093 19.5676 11.9624 19.4895 11.9624 19.4114L11.978 14.9606C11.978 14.8825 12.0249 14.8044 12.0873 14.7576L16.0384 12.4619C16.1165 12.415 16.1946 12.415 16.2727 12.4619L20.255 14.7576C20.333 14.8044 20.3799 14.8825 20.3799 14.9606L20.3643 19.4114C20.3643 19.4895 20.3174 19.5676 20.255 19.6144L16.3039 21.9101C16.2727 21.9413 16.2258 21.9413 16.1946 21.9413ZM12.4465 19.2865L16.1946 21.4416L19.9114 19.2865L19.927 15.1168L16.179 12.9616L12.4621 15.1011L12.4465 19.2865Z" fill="#444444"/>
<path d="M20.1615 9.52637L20.1459 13.9772L16.1948 16.2729L16.2104 11.8377L20.1615 9.52637Z" fill="#FDA80E"/>
<path d="M16.2103 11.8377L16.1947 16.2729L12.2124 13.9772L12.228 9.52637L16.2103 11.8377Z" fill="#FDC800"/>
<path d="M20.1614 9.52615L16.2103 11.8374L12.228 9.52615L16.1791 7.23047L20.1614 9.52615Z" fill="#FDF21C"/>
<path d="M16.1946 16.5068C16.1477 16.5068 16.1165 16.4911 16.0696 16.4755L12.103 14.1799C12.0249 14.133 11.978 14.0549 11.978 13.9768L11.9936 9.52602C11.9936 9.44794 12.0405 9.36986 12.103 9.323L16.054 7.02733C16.1321 6.98047 16.2102 6.98047 16.2883 7.02733L20.2706 9.323C20.3487 9.36986 20.3955 9.44794 20.3955 9.52602L20.3799 13.9768C20.3799 14.0549 20.3331 14.133 20.2706 14.1799L16.3195 16.4755C16.2727 16.5068 16.2258 16.5068 16.1946 16.5068ZM12.4465 13.8363L16.1946 15.9914L19.9114 13.8363L19.927 9.66658L16.179 7.51145L12.4622 9.66658L12.4465 13.8363Z" fill="#444444"/>
<path d="M16.2105 1.24902L13.5244 7.82372L16.2105 9.36979L18.8966 7.82372L16.2105 1.24902Z" fill="white"/>
<path d="M16.2104 1.24902V9.36979L18.8965 7.82372L16.2104 1.24902Z" fill="url(#paint5_linear_346_1076)"/>
<path d="M16.2105 9.61954C16.1636 9.61954 16.1324 9.60392 16.0855 9.58831L13.3838 8.02662C13.2745 7.96415 13.2433 7.83922 13.2901 7.7299L15.9762 1.1552C16.0075 1.0615 16.1012 1.01465 16.1949 1.01465C16.2886 1.01465 16.3823 1.07712 16.4135 1.1552L19.0996 7.7299C19.1465 7.83922 19.0996 7.96415 19.0059 8.02662L16.3354 9.58831C16.2886 9.60392 16.2573 9.61954 16.2105 9.61954ZM13.8211 7.71428L16.2261 9.10418L18.6155 7.71428L16.2261 1.85796L13.8211 7.71428Z" fill="#444444"/>
<path d="M45.7262 28.9063L16.9756 12.1963L16.9912 14.7418L45.7419 31.4519L45.7262 28.9063Z" fill="#FDC800"/>
<path d="M45.7262 28.9066L16.9756 12.1966L19.1932 10.916L47.9438 27.6261L45.7262 28.9066Z" fill="#FDF21C"/>
<path d="M47.9437 27.626V30.1715L45.7417 31.4521L45.7261 28.9066L47.9437 27.626Z" fill="#FDA80E"/>
<path d="M45.7417 31.6863C45.6949 31.6863 45.6637 31.6707 45.6168 31.6551L16.8662 14.945C16.7881 14.8982 16.7568 14.8201 16.7568 14.742V12.1965C16.7568 12.1184 16.8037 12.0403 16.8818 11.9935L19.0994 10.7129C19.1775 10.666 19.2555 10.666 19.3336 10.7129L48.0843 27.4229C48.1624 27.4698 48.1936 27.5479 48.1936 27.6259V30.1715C48.1936 30.2496 48.1467 30.3277 48.0687 30.3745L45.8511 31.6551C45.8198 31.6707 45.7886 31.6863 45.7417 31.6863ZM17.2253 14.6015L45.7417 31.171L47.7095 30.0309V27.7665L19.1931 11.197L17.2097 12.337L17.2253 14.6015Z" fill="#444444"/>
<path d="M45.7416 42.0096C45.6166 42.0096 45.5073 41.9003 45.5073 41.7754V31.4526C45.5073 31.4058 45.5229 31.3746 45.5386 31.3277L47.7405 27.5172C47.803 27.4079 47.9436 27.361 48.0685 27.4235C48.1778 27.486 48.2247 27.6265 48.1622 27.7514L45.9914 31.5151V41.7754C45.9758 41.9003 45.8665 42.0096 45.7416 42.0096Z" fill="#444444"/>
<path d="M47.9438 30.406C47.8969 30.406 47.8657 30.3904 47.8344 30.3748L45.7262 29.1723C45.6169 29.1098 45.57 28.9693 45.6325 28.8443C45.6949 28.735 45.8355 28.6882 45.9448 28.7506L48.0531 29.9531C48.1624 30.0156 48.2093 30.1562 48.1468 30.2811C48.1156 30.3592 48.0375 30.406 47.9438 30.406Z" fill="#444444"/>
<path d="M43.6024 30.406C43.4775 30.406 43.3682 30.2967 43.3682 30.1718V27.6262C43.3682 27.5481 43.415 27.47 43.4931 27.4232L45.5701 26.2207C45.6795 26.1582 45.82 26.1895 45.8981 26.3144C45.9606 26.4237 45.9293 26.5643 45.8044 26.6423L43.8367 27.7824V30.1874C43.8367 30.2967 43.7274 30.406 43.6024 30.406Z" fill="#444444"/>
<path d="M41.2128 29.0007C41.0878 29.0007 40.9785 28.8914 40.9785 28.7665V26.2209C40.9785 26.1428 41.0254 26.0648 41.1035 26.0179L43.1805 24.8154C43.2898 24.7529 43.4304 24.7842 43.5085 24.9091C43.5709 25.0184 43.5397 25.159 43.4147 25.2371L41.447 26.3771V28.7821C41.4626 28.8914 41.3533 29.0007 41.2128 29.0007Z" fill="#444444"/>
<path d="M38.8392 27.5955C38.7143 27.5955 38.605 27.4861 38.605 27.3612V24.8157C38.605 24.7376 38.6518 24.6595 38.7299 24.6126L40.807 23.4101C40.9163 23.3477 41.0568 23.3789 41.1349 23.5038C41.1974 23.6132 41.1661 23.7537 41.0412 23.8318L39.0735 24.9718V27.3768C39.0735 27.4861 38.9798 27.5955 38.8392 27.5955Z" fill="#444444"/>
<path d="M36.4652 26.1892C36.3403 26.1892 36.231 26.0799 36.231 25.955V23.4094C36.231 23.3313 36.2778 23.2532 36.3559 23.2064L38.4329 22.0039C38.5423 21.9414 38.6828 21.9727 38.7609 22.0976C38.8234 22.2069 38.7921 22.3475 38.6672 22.4255L36.6995 23.5656V25.9706C36.6995 26.0799 36.5901 26.1892 36.4652 26.1892Z" fill="#444444"/>
<path d="M34.0917 24.7839C33.9667 24.7839 33.8574 24.6746 33.8574 24.5497V22.0041C33.8574 21.926 33.9043 21.848 33.9824 21.8011L36.0594 20.5986C36.1687 20.5361 36.3093 20.5674 36.3874 20.6923C36.4498 20.8016 36.4186 20.9422 36.2937 21.0203L34.3259 22.1603V24.5653C34.3259 24.6746 34.2166 24.7839 34.0917 24.7839Z" fill="#444444"/>
<path d="M31.7177 23.3787C31.5927 23.3787 31.4834 23.2693 31.4834 23.1444V20.5989C31.4834 20.5208 31.5302 20.4427 31.6083 20.3958L33.6854 19.1933C33.7947 19.1309 33.9352 19.1621 34.0133 19.287C34.0758 19.3964 34.0446 19.5369 33.9196 19.615L31.9519 20.755V23.16C31.9519 23.2693 31.8426 23.3787 31.7177 23.3787Z" fill="#444444"/>
<path d="M29.3441 21.9734C29.2192 21.9734 29.1099 21.8641 29.1099 21.7391V19.1936C29.1099 19.1155 29.1567 19.0374 29.2348 18.9906L31.3118 17.7881C31.4212 17.7256 31.5617 17.7568 31.6398 17.8818C31.7023 17.9911 31.671 18.1316 31.5461 18.2097L29.5784 19.3498V21.7548C29.5784 21.8641 29.4691 21.9734 29.3441 21.9734Z" fill="#444444"/>
<path d="M26.9237 20.739C26.7988 20.739 26.6895 20.6297 26.6895 20.5048V17.9592C26.6895 17.8811 26.7363 17.803 26.8144 17.7562L28.8914 16.5537C29.0008 16.4912 29.1413 16.5225 29.2194 16.6474C29.2819 16.7567 29.2506 16.8973 29.1257 16.9753L27.158 18.1154V20.5204C27.158 20.6297 27.0486 20.739 26.9237 20.739Z" fill="#444444"/>
<path d="M24.5028 19.3025C24.3779 19.3025 24.2686 19.1932 24.2686 19.0682V16.5227C24.2686 16.4446 24.3154 16.3665 24.3935 16.3197L26.4705 15.1172C26.5799 15.0547 26.7204 15.0859 26.7985 15.2109C26.861 15.3202 26.8297 15.4607 26.7048 15.5388L24.7371 16.6789V19.0839C24.7371 19.1932 24.6277 19.3025 24.5028 19.3025Z" fill="#444444"/>
<path d="M22.0355 17.7566C21.9106 17.7566 21.8013 17.6473 21.8013 17.5223V14.9768C21.8013 14.8987 21.8481 14.8206 21.9262 14.7738L24.0032 13.5713C24.1126 13.5088 24.2531 13.54 24.3312 13.665C24.3937 13.7743 24.3624 13.9148 24.2375 13.9929L22.2698 15.133V17.538C22.2698 17.6473 22.1761 17.7566 22.0355 17.7566Z" fill="#444444"/>
<path d="M19.4896 16.3357C19.3647 16.3357 19.2554 16.2264 19.2554 16.1014V13.5559C19.2554 13.4778 19.3022 13.3997 19.3803 13.3529L21.4573 12.1504C21.5667 12.0879 21.7072 12.1191 21.7853 12.2441C21.8478 12.3534 21.8165 12.4939 21.6916 12.572L19.7239 13.7121V16.1171C19.7395 16.242 19.6302 16.3357 19.4896 16.3357C19.5052 16.3357 19.5052 16.3357 19.4896 16.3357Z" fill="#444444"/>
<path d="M9.9325 10.8533C9.80756 10.8533 9.69824 10.744 9.69824 10.619V8.07347C9.69824 7.99539 9.74509 7.9173 9.82318 7.87045L11.9002 6.66795C12.0095 6.60549 12.1501 6.63672 12.2282 6.76165C12.2906 6.87097 12.2594 7.01152 12.1345 7.08961L10.1667 8.22964V10.6346C10.1667 10.744 10.073 10.8533 9.9325 10.8533Z" fill="#444444"/>
<path d="M43.3839 26.3297C43.3214 26.3297 43.259 26.3141 43.2121 26.2673L16.1949 1.63947L9.63585 6.79303C9.52654 6.88673 9.35475 6.8555 9.26105 6.74618C9.16735 6.63687 9.19858 6.46508 9.3079 6.37138L16.0388 1.09288C16.1325 1.01479 16.2886 1.01479 16.3823 1.10849L43.5557 25.8768C43.665 25.9705 43.665 26.1423 43.5713 26.2517C43.5245 26.2985 43.462 26.3297 43.3839 26.3297Z" fill="white"/>
<path d="M43.3837 26.4704C43.29 26.4704 43.1807 26.4392 43.1182 26.3611L16.1947 1.82703L9.71371 6.90251C9.54193 7.04306 9.27644 7.01183 9.1515 6.84004C9.01095 6.66826 9.04219 6.41839 9.21397 6.27784L15.9448 0.983719C16.101 0.858784 16.3196 0.874401 16.4602 0.999336L43.6335 25.7677C43.7116 25.8458 43.7585 25.9395 43.7585 26.0488C43.7585 26.1581 43.7272 26.2674 43.6492 26.3455C43.6023 26.4236 43.493 26.4704 43.3837 26.4704ZM16.1947 1.49908C16.2259 1.49908 16.2572 1.51469 16.2884 1.53031L43.3056 26.1581C43.3524 26.205 43.4305 26.205 43.4774 26.1425C43.493 26.1113 43.5086 26.08 43.5086 26.0488C43.5086 26.0176 43.493 25.9863 43.4618 25.9707L16.2884 1.20235C16.2416 1.1555 16.1791 1.1555 16.1322 1.20235L9.40137 6.49647C9.35452 6.54332 9.33891 6.62141 9.38576 6.66826C9.43261 6.71511 9.51069 6.73073 9.55754 6.68387L16.1166 1.53031C16.1322 1.49908 16.1635 1.49908 16.1947 1.49908Z" fill="#444444"/>
<path d="M17.2567 1.29632C17.2567 1.87415 16.7882 2.35827 16.1948 2.35827C15.6169 2.35827 15.1328 1.88976 15.1328 1.29632C15.1328 0.718498 15.6013 0.234375 16.1948 0.234375C16.7882 0.234375 17.2567 0.702881 17.2567 1.29632Z" fill="url(#paint6_radial_346_1076)"/>
<path d="M16.2103 2.5924C15.4919 2.5924 14.9141 2.01458 14.9141 1.2962C14.9141 0.577824 15.4919 0 16.2103 0C16.9286 0 17.5065 0.577824 17.5065 1.2962C17.5065 2.01458 16.913 2.5924 16.2103 2.5924ZM16.2103 0.468506C15.7574 0.468506 15.3826 0.843311 15.3826 1.2962C15.3826 1.74909 15.7574 2.12389 16.2103 2.12389C16.6632 2.12389 17.038 1.74909 17.038 1.2962C17.0223 0.843311 16.6632 0.468506 16.2103 0.468506Z" fill="#444444"/>
<path d="M16.0383 29.579C16.0383 29.5634 16.0383 29.5477 16.0383 29.5477C16.0383 29.5165 16.0383 29.5009 16.0383 29.4697C16.0383 29.4384 16.0383 29.4072 16.0383 29.376C16.0383 29.3603 16.0383 29.3291 16.0383 29.3135C16.0383 29.2823 16.0383 29.2666 16.0383 29.2354C16.0383 29.2198 16.0383 29.2042 16.0383 29.1886C16.0383 29.1417 16.0227 29.1105 16.0227 29.0636C16.0227 29.048 16.0227 29.0168 16.0227 29.0012V28.9855C16.0071 28.9075 16.0071 28.845 15.9915 28.7669C15.9915 28.7513 15.9915 28.7513 15.9915 28.7357C15.9759 28.6732 15.9759 28.6107 15.9602 28.5639C15.9602 28.5483 15.9602 28.5483 15.9602 28.5327C15.9602 28.5014 15.9446 28.4702 15.9446 28.4546C15.9446 28.4233 15.929 28.3921 15.929 28.3453C15.929 28.3296 15.9134 28.314 15.9134 28.2828C15.9134 28.2516 15.8978 28.2203 15.8978 28.1891C15.8978 28.1578 15.8822 28.1422 15.8822 28.111C15.8822 28.0798 15.8665 28.0485 15.8665 28.0329C15.8509 28.0017 15.8509 27.9704 15.8353 27.9392C15.8353 27.9236 15.8197 27.908 15.8197 27.8924C15.8041 27.8455 15.7885 27.8143 15.7885 27.7674C15.7885 27.7362 15.7728 27.7206 15.7728 27.6893V27.6737C15.7572 27.5956 15.726 27.5332 15.7104 27.4551V27.4395C15.6948 27.377 15.6635 27.3145 15.6479 27.2521C15.6479 27.2365 15.6479 27.2365 15.6323 27.2208C15.6167 27.1896 15.6167 27.174 15.6011 27.1428C15.5854 27.1115 15.5698 27.0803 15.5698 27.0334C15.5542 27.0178 15.5542 26.9866 15.5386 26.971C15.523 26.9397 15.523 26.9241 15.5074 26.8929C15.4917 26.8773 15.4917 26.846 15.4761 26.8304C15.4605 26.7992 15.4449 26.7523 15.4293 26.7211C15.4137 26.7055 15.4137 26.6742 15.398 26.6586C15.398 26.6586 15.398 26.643 15.3824 26.643C15.3512 26.5805 15.32 26.5025 15.2887 26.44C15.2887 26.44 15.2887 26.44 15.2887 26.4244C15.2731 26.4088 15.2731 26.3931 15.2575 26.3619C15.2263 26.3151 15.2106 26.2526 15.1794 26.2057C15.1794 26.1901 15.1638 26.1901 15.1638 26.1745C15.1482 26.1277 15.1169 26.0964 15.1013 26.0496C15.0857 26.0183 15.0701 25.9871 15.0545 25.9403C15.0545 25.9403 15.0545 25.9246 15.0389 25.9246C14.9764 25.8153 14.9139 25.706 14.8515 25.5967C14.8515 25.5811 14.8358 25.5811 14.8358 25.5654C14.8358 25.5498 14.8202 25.5498 14.8202 25.5342C14.7265 25.378 14.6328 25.2375 14.5391 25.0813C14.5391 25.0657 14.5235 25.0657 14.5235 25.0501C14.5079 25.0345 14.5079 25.0189 14.4923 25.0032C14.3517 24.8002 14.2112 24.6128 14.0706 24.4254C14.0706 24.4254 14.0706 24.4254 14.055 24.4098C14.0081 24.3473 13.9613 24.3005 13.9144 24.238C13.8988 24.2224 13.8988 24.2224 13.8988 24.2068C13.852 24.1443 13.7895 24.0818 13.7427 24.0194C13.7427 24.0194 13.7427 24.0194 13.727 24.0038C13.7114 23.9881 13.6958 23.9725 13.6802 23.9413C13.649 23.9101 13.6177 23.8632 13.5709 23.832L13.5553 23.8164C13.524 23.7851 13.5084 23.7695 13.4772 23.7383C13.4459 23.707 13.4303 23.6758 13.3991 23.6602C13.3835 23.6446 13.3835 23.6446 13.3678 23.629C13.3366 23.5977 13.321 23.5821 13.2898 23.5509C13.2741 23.5353 13.2429 23.504 13.2273 23.4884C13.2117 23.4728 13.1961 23.4572 13.1804 23.4572C13.1492 23.4259 13.118 23.4103 13.0867 23.3791C13.0711 23.3635 13.0399 23.3479 13.0243 23.3166C13.0087 23.301 12.993 23.2854 12.9774 23.2698C12.9462 23.2385 12.915 23.2229 12.8837 23.1917C12.8681 23.1761 12.8525 23.1605 12.8369 23.1448C12.8213 23.1292 12.8056 23.1136 12.7744 23.098C12.7432 23.0667 12.7119 23.0511 12.6963 23.0355C12.6807 23.0199 12.6651 23.0043 12.6495 23.0043C12.6182 22.9887 12.6026 22.973 12.5714 22.9418C12.5402 22.9262 12.5245 22.895 12.4933 22.8793C12.4777 22.8637 12.4777 22.8637 12.4621 22.8481C12.4308 22.8169 12.3996 22.8013 12.3684 22.77C12.3528 22.7544 12.3215 22.7388 12.3059 22.7232L12.2903 22.7076C12.2278 22.6607 12.1653 22.6295 12.1029 22.5826C12.1029 22.5826 12.0873 22.5826 12.0873 22.567C12.0404 22.5358 11.9779 22.5045 11.9155 22.4733C11.8999 22.4577 11.8842 22.4577 11.8686 22.4421C11.8218 22.4108 11.7749 22.3952 11.7281 22.364C11.7125 22.3484 11.6968 22.3484 11.6812 22.3328C11.6656 22.3171 11.6344 22.3015 11.6188 22.3015C11.6031 22.2859 11.5875 22.2859 11.5719 22.2703C11.5407 22.2547 11.5094 22.2391 11.4938 22.2234C11.4782 22.2078 11.447 22.2078 11.4314 22.1922C11.4157 22.1922 11.4157 22.1766 11.4001 22.1766C11.3377 22.1454 11.2908 22.1297 11.2283 22.0985C11.1659 22.0829 11.119 22.0517 11.0566 22.036H11.0409C11.0253 22.036 10.9941 22.0204 10.9785 22.0204C10.9472 22.0048 10.916 22.0048 10.8848 21.9892C10.8691 21.9892 10.8535 21.9892 10.8379 21.9736C10.8067 21.9736 10.7911 21.958 10.7598 21.958C10.7442 21.958 10.7286 21.9423 10.6974 21.9423C10.6817 21.9423 10.6505 21.9267 10.6349 21.9267C10.6037 21.9267 10.588 21.9111 10.5568 21.9111C10.5412 21.9111 10.5256 21.9111 10.51 21.8955C10.4943 21.8955 10.4631 21.8955 10.4475 21.8799C10.4163 21.8799 10.385 21.8643 10.3694 21.8643C10.3538 21.8643 10.3538 21.8643 10.3382 21.8643C10.3069 21.8643 10.2913 21.8643 10.2757 21.8643C10.2445 21.8643 10.2132 21.8642 10.182 21.8486C10.1664 21.8486 10.1664 21.8486 10.1508 21.8486C10.1352 21.8486 10.1039 21.8486 10.0883 21.8486C10.0571 21.8486 10.0102 21.8486 9.97899 21.8486C9.96337 21.8486 9.96337 21.8486 9.94775 21.8486C9.93214 21.8486 9.91652 21.8486 9.9009 21.8486C9.85405 21.8486 9.8072 21.8486 9.76035 21.8486C9.74474 21.8486 9.72912 21.8486 9.7135 21.8486C9.69789 21.8486 9.69788 21.8486 9.68227 21.8486C9.6198 21.8486 9.54172 21.8643 9.47925 21.8799H9.46363C9.44801 21.8799 9.4324 21.8799 9.41678 21.8955C9.36993 21.9111 9.3387 21.9111 9.29185 21.9267C9.27623 21.9267 9.26061 21.9423 9.22938 21.9423C9.19814 21.958 9.18253 21.958 9.15129 21.9736H9.13568C9.10444 21.9892 9.05759 22.0048 9.02636 22.0204C9.01074 22.036 8.99513 22.036 8.97951 22.036C8.93266 22.0673 8.87019 22.0829 8.82334 22.1141L7.13672 23.098C7.18357 23.0667 7.24604 23.0355 7.29289 23.0199C7.3085 23.0043 7.32412 23.0043 7.33974 23.0043C7.37097 22.9887 7.41782 22.973 7.44906 22.9574C7.48029 22.9418 7.51152 22.9418 7.54276 22.9262C7.55837 22.9262 7.57399 22.9106 7.60522 22.9106C7.65208 22.895 7.68331 22.895 7.73016 22.8793C7.74578 22.8793 7.76139 22.8793 7.76139 22.8637H7.77701C7.83948 22.8481 7.90194 22.8481 7.98003 22.8325C7.99565 22.8325 8.02688 22.8325 8.0425 22.8325C8.08935 22.8325 8.1362 22.8325 8.18305 22.8325C8.21428 22.8325 8.2299 22.8325 8.26113 22.8325C8.29237 22.8325 8.33922 22.8325 8.37045 22.8325C8.40168 22.8325 8.43292 22.8325 8.46415 22.8325C8.49539 22.8325 8.52662 22.8325 8.55785 22.8481C8.58909 22.8481 8.62032 22.8481 8.65155 22.8637C8.68279 22.8637 8.71402 22.8793 8.72964 22.8793C8.76087 22.8793 8.80772 22.895 8.83896 22.895C8.87019 22.895 8.88581 22.9106 8.91704 22.9106C8.94827 22.9262 8.99513 22.9262 9.04198 22.9418C9.07321 22.9418 9.08883 22.9574 9.12006 22.9574C9.16691 22.973 9.21376 22.9887 9.245 23.0043C9.26061 23.0043 9.29185 23.0199 9.30746 23.0199C9.4324 23.0667 9.55733 23.1136 9.69788 23.1761C9.7135 23.1917 9.74474 23.1917 9.76035 23.2073C9.8072 23.2229 9.85405 23.2542 9.9009 23.2698C9.91652 23.2854 9.94775 23.2854 9.96337 23.301C10.0258 23.3322 10.0883 23.3635 10.1508 23.4103C10.2132 23.4572 10.2913 23.4884 10.3538 23.5353H10.3694C10.4319 23.5821 10.51 23.629 10.5724 23.6602C10.588 23.6758 10.6193 23.6914 10.6349 23.707C10.6817 23.7383 10.7286 23.7695 10.7598 23.8007C10.7911 23.8164 10.8067 23.8476 10.8379 23.8632C10.8848 23.8944 10.916 23.9257 10.9629 23.9569C10.9941 23.9725 11.0253 24.0038 11.0409 24.0194C11.0722 24.0506 11.119 24.0818 11.1503 24.1131C11.1815 24.1443 11.2127 24.1599 11.244 24.1912C11.2752 24.2224 11.322 24.2536 11.3533 24.2849C11.3845 24.3161 11.4157 24.3317 11.4314 24.3629C11.4626 24.3942 11.5094 24.4254 11.5407 24.4723C11.5719 24.5035 11.5875 24.5191 11.6188 24.5504C11.65 24.5816 11.6968 24.6284 11.7281 24.6597C11.7593 24.6909 11.7749 24.7065 11.8062 24.7378C11.853 24.7846 11.8842 24.8315 11.9311 24.8783C11.9467 24.8939 11.9623 24.9095 11.9779 24.9408C12.0404 25.0032 12.0873 25.0813 12.1497 25.1438C12.1654 25.1594 12.1653 25.1594 12.181 25.175C12.2278 25.2375 12.2747 25.3 12.3215 25.3468C12.384 25.4249 12.4465 25.503 12.4933 25.5811C12.5714 25.6904 12.6495 25.7997 12.7276 25.9246C12.7432 25.9403 12.7588 25.9715 12.7744 25.9871C12.8681 26.1277 12.9618 26.2838 13.0555 26.44C13.0711 26.4556 13.0711 26.4712 13.0867 26.5025C13.1492 26.6118 13.2117 26.7211 13.2741 26.8304C13.2898 26.8773 13.321 26.9085 13.3366 26.9554C13.3522 27.0022 13.3835 27.0334 13.3991 27.0803C13.4303 27.1428 13.4615 27.2052 13.4928 27.2677C13.5084 27.2833 13.5084 27.2989 13.524 27.3302C13.5553 27.4082 13.6021 27.4863 13.6333 27.5644C13.649 27.58 13.649 27.6113 13.6646 27.6269C13.6958 27.6893 13.7114 27.7518 13.7427 27.7987C13.7583 27.8299 13.7583 27.8455 13.7739 27.8767C13.7895 27.9392 13.8207 27.9861 13.8364 28.0485C13.852 28.0798 13.852 28.0954 13.8676 28.1266C13.8988 28.2047 13.9144 28.2828 13.9457 28.3453V28.3609C13.9769 28.439 13.9925 28.517 14.0238 28.6107C14.0394 28.642 14.0394 28.6576 14.0394 28.6888C14.055 28.7513 14.0706 28.7981 14.0862 28.8606C14.1018 28.8918 14.1018 28.9231 14.1175 28.9543C14.1331 29.0012 14.1487 29.0636 14.1487 29.1105C14.1487 29.1417 14.1643 29.1729 14.1643 29.2042C14.1799 29.251 14.1955 29.3135 14.1955 29.3603C14.1955 29.3916 14.2112 29.4228 14.2112 29.4384C14.2268 29.5009 14.2424 29.579 14.2424 29.6415C14.2424 29.6571 14.2424 29.6571 14.2424 29.6727C14.258 29.7508 14.2736 29.8289 14.2736 29.9069C14.2736 29.9226 14.2736 29.9538 14.2736 29.9694C14.2736 30.0319 14.2892 30.0787 14.2892 30.1412C14.2892 30.1724 14.2892 30.188 14.2892 30.2193C14.2892 30.2661 14.2892 30.3286 14.3049 30.3754C14.3049 30.4067 14.3049 30.4223 14.3049 30.4535C14.3049 30.5316 14.3049 30.6097 14.3049 30.6878C14.3049 30.7659 14.3049 30.8439 14.3049 30.922C14.3049 30.9377 14.3049 30.9689 14.3049 30.9845C14.3049 31.0314 14.3049 31.0938 14.2892 31.1407C14.2892 31.1719 14.2892 31.2031 14.2736 31.2344C14.2736 31.2812 14.258 31.3281 14.258 31.3593C14.258 31.3905 14.2424 31.4218 14.2424 31.453C14.2424 31.4842 14.2268 31.5311 14.2268 31.5623C14.2268 31.5936 14.2112 31.6248 14.2112 31.656C14.2112 31.6873 14.1955 31.7185 14.1955 31.7497C14.1799 31.7966 14.1799 31.8278 14.1643 31.859C14.1487 31.8903 14.1487 31.9215 14.1331 31.9527C14.1175 31.9996 14.1018 32.0464 14.0862 32.0933C14.0706 32.1245 14.0706 32.1401 14.055 32.1714C14.0238 32.2495 13.9925 32.3119 13.9613 32.39C13.9613 32.39 13.9613 32.4056 13.9457 32.4056C13.8988 32.4993 13.852 32.5774 13.8051 32.6711C13.8051 32.6711 13.8051 32.6867 13.7895 32.6867C13.7427 32.7492 13.6958 32.8117 13.649 32.8741C13.6333 32.8898 13.6333 32.9054 13.6177 32.921C13.5709 32.9835 13.524 33.0303 13.4772 33.0772C13.4772 33.0772 13.4772 33.0772 13.4615 33.0928C13.4147 33.1396 13.3522 33.1865 13.2898 33.2333C13.2741 33.2489 13.2585 33.2489 13.2429 33.2646C13.1804 33.3114 13.118 33.3583 13.0555 33.3895L14.7421 32.4056C14.8046 32.3744 14.8671 32.3276 14.9295 32.2807C14.9452 32.2651 14.9608 32.2651 14.9764 32.2495C15.0389 32.2026 15.0857 32.1558 15.1482 32.1089C15.1482 32.1089 15.1482 32.1089 15.1638 32.0933C15.2106 32.0464 15.2575 31.984 15.3043 31.9371C15.32 31.9215 15.3356 31.9059 15.3356 31.8903C15.3824 31.8278 15.4293 31.7653 15.4761 31.7029C15.4761 31.7029 15.4761 31.6873 15.4917 31.6873C15.5386 31.6092 15.5854 31.5155 15.6323 31.4218C15.6323 31.4218 15.6323 31.4062 15.6479 31.4062C15.6791 31.3437 15.7104 31.2656 15.7416 31.1875V31.1719C15.7416 31.1563 15.7572 31.1407 15.7572 31.1251C15.7728 31.0782 15.7885 31.0314 15.8041 30.9845C15.8041 30.9689 15.8197 30.9533 15.8197 30.9533C15.8197 30.9376 15.8353 30.922 15.8353 30.9064C15.8509 30.8752 15.8509 30.8283 15.8665 30.7971C15.8665 30.7815 15.8822 30.7659 15.8822 30.7502C15.8822 30.7346 15.8822 30.719 15.8978 30.7034C15.8978 30.6722 15.9134 30.6409 15.9134 30.6097C15.9134 30.5941 15.9134 30.5785 15.929 30.5628C15.929 30.5472 15.929 30.516 15.9446 30.5004C15.9446 30.4691 15.9602 30.4379 15.9602 30.4067C15.9602 30.3911 15.9602 30.3754 15.9602 30.3598C15.9602 30.3286 15.9602 30.313 15.9759 30.2817C15.9759 30.2505 15.9759 30.2193 15.9915 30.188C15.9915 30.1724 15.9915 30.1724 15.9915 30.1568C15.9915 30.11 15.9915 30.0787 15.9915 30.0319C15.9915 30.0163 15.9915 29.985 15.9915 29.9694V29.9538C15.9915 29.8913 15.9915 29.8132 15.9915 29.7508V29.7352C16.0383 29.7039 16.0383 29.6414 16.0383 29.579Z" fill="url(#paint7_linear_346_1076)"/>
<path d="M13.1328 33.4536C14.7808 32.4957 14.7747 29.41 13.1191 26.5614C11.4635 23.7128 8.78537 22.18 7.13734 23.1378C5.48931 24.0956 5.49545 27.1813 7.15106 30.03C8.80666 32.8786 11.4848 34.4114 13.1328 33.4536Z" fill="white"/>
<path d="M12.009 33.9828C11.3843 33.9828 10.6972 33.7798 9.99442 33.3738C7.60504 31.9839 5.65293 28.6263 5.66855 25.8621C5.66855 24.4878 6.15267 23.4571 7.0116 22.9573C7.0116 22.9573 7.0116 22.9573 7.02722 22.9573L8.71384 21.9735C8.77631 21.9422 8.82316 21.911 8.88562 21.8798L8.93248 21.8642C8.99494 21.8329 9.02618 21.8173 9.07303 21.8017C9.11988 21.7861 9.13549 21.7861 9.15111 21.7705L9.24481 21.7392C9.29166 21.7236 9.33851 21.7236 9.36975 21.708H9.40098C9.4166 21.708 9.4166 21.708 9.43222 21.708C9.5103 21.6924 9.58838 21.6768 9.65085 21.6768C9.66647 21.6768 9.66647 21.6768 9.68209 21.6768H9.71332C9.77579 21.6768 9.82264 21.6768 9.86949 21.6768C9.90072 21.6768 9.90072 21.6768 9.91634 21.6768H9.94757C9.99442 21.6768 10.0257 21.6768 10.0725 21.6768H10.135C10.135 21.6768 10.1506 21.6768 10.1662 21.6768C10.1974 21.6768 10.2287 21.6768 10.2599 21.6924H10.2911C10.3068 21.6924 10.3224 21.6924 10.338 21.6924H10.3692C10.4005 21.6924 10.4161 21.6924 10.4473 21.708H10.4785L10.5566 21.7236H10.5879L10.9314 21.8017C10.9471 21.8017 10.9783 21.8173 11.0095 21.8173L11.1032 21.8485H11.1188C11.1813 21.8642 11.2438 21.8954 11.3062 21.911C11.3687 21.9422 11.4312 21.9579 11.478 21.9891C11.478 21.9891 11.4936 22.0047 11.5093 22.0047L11.6967 22.0984L11.7123 22.114L11.8372 22.1765C11.8841 22.2077 11.9309 22.2233 11.9778 22.2546L12.0246 22.2858C12.0871 22.317 12.1339 22.3483 12.1964 22.3951C12.1964 22.3951 12.212 22.3951 12.212 22.4108C12.2745 22.4576 12.337 22.4888 12.3994 22.5357L12.415 22.5513L12.5868 22.6762L12.6024 22.6919L13.0241 23.0354C13.0553 23.0667 13.0866 23.0823 13.1178 23.1135L13.6956 23.6757L13.7112 23.6913L13.8674 23.8631C13.9299 23.9412 13.9923 24.0037 14.0392 24.0661L14.0548 24.0818C14.1173 24.1442 14.1641 24.2067 14.211 24.2692C14.3671 24.4722 14.5077 24.6596 14.6482 24.8782L14.6795 24.9251C14.6795 24.9251 14.6951 24.9407 14.6951 24.9563C14.7888 25.1125 14.8825 25.253 14.9762 25.4092L14.9918 25.4404L15.0074 25.4717C15.0699 25.581 15.1324 25.6903 15.1948 25.7996L15.3198 26.0495L15.3354 26.0807C15.3666 26.1276 15.3822 26.1744 15.3979 26.2213L15.4291 26.2993C15.4603 26.3774 15.4916 26.4399 15.5228 26.518L15.5384 26.5336L15.7727 27.1114L15.7883 27.1427C15.8195 27.2051 15.8351 27.2676 15.8507 27.3457V27.3613C15.882 27.4394 15.8976 27.5175 15.9288 27.5955V27.6112L16.1475 28.5013C16.1631 28.5638 16.1631 28.6263 16.1787 28.6887V28.72C16.1943 28.798 16.1943 28.8605 16.2099 28.9386V28.9698L16.2568 29.5789C16.2568 29.6414 16.2568 29.7038 16.2568 29.7819C16.2568 29.86 16.2568 29.9381 16.2568 30.0005V30.1099C16.2568 30.1411 16.2568 30.1723 16.2568 30.2036C16.2568 30.2036 16.2568 30.2192 16.2568 30.2348L16.1943 30.6721C16.1787 30.7189 16.1787 30.7658 16.1631 30.797L16.1475 30.8907C16.1319 30.9532 16.1162 30.9844 16.1162 31.0313L16.1006 31.0937L16.085 31.125C16.0694 31.1874 16.0538 31.2343 16.0381 31.2811L16.0225 31.3436C16.0225 31.3436 16.0069 31.3592 16.0069 31.3748C15.9757 31.4529 15.9444 31.531 15.9132 31.6091L15.8976 31.6403C15.8507 31.734 15.8039 31.8277 15.7414 31.9058L15.7258 31.937C15.679 31.9995 15.6321 32.062 15.5853 32.1401L15.5384 32.1869C15.4916 32.2494 15.4291 32.3118 15.3822 32.3587C15.3042 32.4368 15.2417 32.4836 15.1792 32.5305L15.1324 32.5617C15.0699 32.6086 14.9918 32.6554 14.9294 32.7023L13.2427 33.6861C13.2427 33.6861 13.2271 33.6861 13.2271 33.7017C12.8523 33.8735 12.4463 33.9828 12.009 33.9828ZM7.26147 23.3478C6.54309 23.7694 6.13706 24.6596 6.13706 25.8621C6.13706 28.4701 7.96423 31.6559 10.2287 32.9521C11.2906 33.5768 12.2901 33.6705 13.0241 33.2332C13.0397 33.2332 13.0397 33.2176 13.0553 33.2176L14.6951 32.265C14.7576 32.2338 14.8044 32.1869 14.8669 32.1557L14.9137 32.1244C14.9606 32.0776 15.0231 32.0464 15.0699 31.9995C15.1324 31.937 15.1636 31.8902 15.2105 31.8433L15.2417 31.7965C15.2885 31.7496 15.3198 31.6872 15.3666 31.6247L15.3822 31.6091C15.4291 31.531 15.4759 31.4529 15.5072 31.3748C15.5072 31.3748 15.5072 31.3592 15.5228 31.3592C15.554 31.2811 15.5853 31.2187 15.6009 31.1562L15.6165 31.1406L15.6321 31.0937C15.6477 31.0469 15.6633 31.0156 15.679 30.9688C15.679 30.9688 15.679 30.9376 15.6946 30.9376L15.7102 30.8751C15.7258 30.8439 15.7258 30.797 15.7414 30.7658V30.7345L15.757 30.6721C15.757 30.6408 15.7727 30.6096 15.7727 30.5784V30.5471V30.5315L15.7883 30.391V30.3597L15.8039 30.188L16.0381 30.1723L15.8039 30.1567L15.8195 29.9849C15.8195 29.9068 15.8195 29.8444 15.8195 29.7819C15.8195 29.7038 15.8195 29.6414 15.8195 29.5945H16.0538H15.8195L15.7727 29.0323C15.7727 29.0323 15.7727 29.0167 15.7727 29.0011C15.757 28.9386 15.757 28.8605 15.7414 28.798L15.9601 28.72L15.7258 28.7512C15.7102 28.6887 15.7102 28.6419 15.6946 28.5794L15.9132 28.5013L15.679 28.5482L15.5384 27.9704L15.5228 27.9235L15.4603 27.7361C15.4291 27.6424 15.4135 27.5643 15.3822 27.5018C15.351 27.4238 15.3354 27.3613 15.3042 27.2988L15.5072 27.1895L15.2885 27.2676L15.2729 27.2207L15.2573 27.2051L15.0699 26.721L15.2729 26.6117L15.0543 26.7054C15.0231 26.6429 14.9918 26.5648 14.9606 26.5024L14.9294 26.4399C14.8981 26.3774 14.8825 26.3306 14.8513 26.2837L15.0543 26.1588L14.8513 26.2681L14.742 26.0495C14.6795 25.9245 14.617 25.8152 14.5545 25.7059L14.742 25.5654L14.5389 25.6903L14.5233 25.6591C14.4296 25.5185 14.3515 25.3623 14.2578 25.2218L14.2422 25.2062L14.211 25.1749C14.0704 24.9719 13.9455 24.7845 13.8049 24.6127C13.7581 24.5503 13.7112 24.4878 13.6644 24.4409L13.8206 24.2692L13.6332 24.4253C13.5863 24.3629 13.5238 24.3004 13.477 24.2379L12.9616 23.6913L12.946 23.6757L12.7586 23.5039C12.7274 23.4727 12.6961 23.4571 12.6805 23.4258L12.2901 23.1135L12.2745 23.0979L12.1652 23.0198L12.1496 23.0042L12.1027 22.973C12.0246 22.9261 11.9778 22.8793 11.9153 22.848C11.8528 22.8012 11.806 22.7699 11.7435 22.7387L11.6967 22.7231C11.6498 22.6919 11.603 22.6762 11.5717 22.645L11.275 22.4888L11.3531 22.2702L11.2594 22.4888C11.1969 22.4576 11.1501 22.442 11.1032 22.4264C11.0564 22.4108 10.9939 22.3795 10.9471 22.3639L10.7909 22.317L10.744 22.3014L10.6816 22.2858H10.6503L10.4942 22.2546C10.4942 22.2546 10.4785 22.2546 10.4629 22.2546L10.3068 22.2233V21.9891L10.2755 22.2233H10.2131C10.1818 22.2233 10.1506 22.2233 10.135 22.2077H10.1037H10.0413C10.01 22.2077 9.97881 22.2077 9.94757 22.2077C9.94757 22.2077 9.93195 22.2077 9.91634 22.2077H9.86949C9.82264 22.2077 9.7914 22.2077 9.74455 22.2077H9.71332H9.68209C9.61962 22.2077 9.55715 22.2233 9.5103 22.239H9.49468L9.46345 22.2546C9.43221 22.2546 9.40098 22.2702 9.35413 22.2858H9.3229L9.29166 22.3014L9.2292 22.317C9.18234 22.3327 9.15111 22.3483 9.11988 22.3639C9.11988 22.3639 9.10426 22.3795 9.08864 22.3795L9.05741 22.3951C9.01056 22.4107 8.96371 22.442 8.91686 22.4732L7.26147 23.3478C7.26147 23.3321 7.26147 23.3478 7.26147 23.3478Z" fill="#444444"/>
<path d="M10.1356 25.7834C8.93308 25.0806 7.94922 25.6429 7.94922 27.0328C7.94922 28.4227 8.91746 30.1093 10.12 30.812C11.3225 31.5148 12.3063 30.9526 12.3063 29.5627C12.3219 28.1728 11.3381 26.4862 10.1356 25.7834Z" fill="url(#paint8_linear_346_1076)"/>
</g>
<defs>
<linearGradient id="paint0_linear_346_1076" x1="34.5944" y1="66.421" x2="57.5205" y2="66.421" gradientUnits="userSpaceOnUse">
<stop stop-color="#2BBBE6"/>
<stop offset="0.9944" stop-color="#3281C4"/>
</linearGradient>
<linearGradient id="paint1_linear_346_1076" x1="34.7451" y1="82.9362" x2="57.5202" y2="82.9362" gradientUnits="userSpaceOnUse">
<stop stop-color="#2BBBE6"/>
<stop offset="0.9944" stop-color="#3281C4"/>
</linearGradient>
<linearGradient id="paint2_linear_346_1076" x1="0.234875" y1="53.1935" x2="32.138" y2="53.1935" gradientUnits="userSpaceOnUse">
<stop stop-color="#EDE0E3"/>
<stop offset="1" stop-color="#DCC2B6"/>
</linearGradient>
<linearGradient id="paint3_linear_346_1076" x1="6.72645" y1="7.11273" x2="9.94077" y2="7.11273" gradientUnits="userSpaceOnUse">
<stop stop-color="#EDE0E3"/>
<stop offset="1" stop-color="#DCC2B6"/>
</linearGradient>
<linearGradient id="paint4_linear_346_1076" x1="3.50117" y1="7.11274" x2="6.73646" y2="7.11274" gradientUnits="userSpaceOnUse">
<stop stop-color="#EDE0E3"/>
<stop offset="1" stop-color="#DCC2B6"/>
</linearGradient>
<linearGradient id="paint5_linear_346_1076" x1="16.2057" y1="5.31053" x2="18.8924" y2="5.31053" gradientUnits="userSpaceOnUse">
<stop stop-color="#EDE0E3"/>
<stop offset="1" stop-color="#DCC2B6"/>
</linearGradient>
<radialGradient id="paint6_radial_346_1076" cx="0" cy="0" r="1" gradientUnits="userSpaceOnUse" gradientTransform="translate(15.8784 0.895937) scale(1.05846)">
<stop stop-color="white"/>
<stop offset="1" stop-color="#FDF21C"/>
</radialGradient>
<linearGradient id="paint7_linear_346_1076" x1="7.13503" y1="27.669" x2="16.0406" y2="27.669" gradientUnits="userSpaceOnUse">
<stop stop-color="#EDE0E3"/>
<stop offset="1" stop-color="#DCC2B6"/>
</linearGradient>
<linearGradient id="paint8_linear_346_1076" x1="7.94631" y1="28.2994" x2="12.3157" y2="28.2994" gradientUnits="userSpaceOnUse">
<stop stop-color="#EDE0E3"/>
<stop offset="1" stop-color="#DCC2B6"/>
</linearGradient>
<clipPath id="clip0_346_1076">
<rect width="57.7512" height="90" fill="white"/>
</clipPath>
</defs>
</svg>
