<svg width="492" height="550" viewBox="0 0 492 550" fill="none" xmlns="http://www.w3.org/2000/svg">
<g clip-path="url(#clip0_410_1843)">
<path style="mix-blend-mode:multiply" d="M328.845 296.831L269.597 331.414L237.645 312.504L117.518 382.278L149.76 401.362L64.7515 450.981C60.9302 453.21 60.9157 458.724 64.7225 460.975L212.376 548.383C215.991 550.521 220.482 550.536 224.112 548.419L488.216 394.248C492.037 392.019 492.052 386.504 488.245 384.253L340.58 296.864C336.965 294.725 332.474 294.711 328.845 296.828V296.831Z" fill="url(#paint0_linear_410_1843)"/>
<path style="mix-blend-mode:multiply" d="M194.743 440.75L361.503 344.47L442.082 390.549L274.837 487.112L194.743 440.75Z" fill="url(#paint1_linear_410_1843)"/>
<path d="M195.984 423.197L362.74 326.92L443.32 372.999L276.075 469.558L195.984 423.197Z" fill="url(#paint2_linear_410_1843)"/>
<path d="M214.048 422.722L361.155 337.79C363.182 336.621 365.679 336.618 367.705 337.79L424.322 370.401C425.418 371.031 425.418 372.612 424.322 373.242L276.947 458.333C274.913 459.509 272.405 459.506 270.375 458.322L214.041 425.563C212.951 424.93 212.955 423.356 214.044 422.726L214.048 422.722Z" fill="#B6CBEA"/>
<path d="M276.075 469.558V474.885L438.713 381.181C440.067 380.399 441.029 379.082 441.358 377.555L443.32 372.999L276.075 469.558Z" fill="#9EB6DF"/>
<path d="M195.984 423.196V428.526L276.075 474.885V469.558L195.984 423.196Z" fill="#E8EFF9"/>
<path d="M215.586 423.023L228.114 415.789L240.641 423.023L228.117 430.253L215.586 423.023Z" fill="url(#paint3_linear_410_1843)"/>
<path d="M228.117 430.252L215.586 423.022V424.474L228.117 431.707L228.146 431.689V430.234L228.117 430.252Z" fill="#9EB6DF"/>
<path d="M240.641 423.022L228.146 430.234V431.689L240.641 424.474V423.022Z" fill="#434483"/>
<path d="M230.263 431.707L242.791 424.474L255.318 431.707L242.794 438.941L230.263 431.707Z" fill="url(#paint4_linear_410_1843)"/>
<path d="M242.794 438.941L230.263 431.707V433.162L242.794 440.392L242.823 440.374V438.919L242.794 438.941Z" fill="#9EB6DF"/>
<path d="M255.318 431.707L242.823 438.919V440.374L255.318 433.162V431.707Z" fill="#434483"/>
<path d="M244.94 440.392L257.468 433.162L269.995 440.392L257.471 447.622L244.94 440.392Z" fill="url(#paint5_linear_410_1843)"/>
<path d="M257.471 447.622L244.94 440.392V441.846L257.471 449.076L257.5 449.058V447.603L257.471 447.622Z" fill="#9EB6DF"/>
<path d="M269.995 440.392L257.5 447.603V449.058L269.995 441.846V440.392Z" fill="#434483"/>
<path d="M259.617 449.077L272.148 441.847L284.669 449.077L272.148 456.307L259.617 449.077Z" fill="url(#paint6_linear_410_1843)"/>
<path d="M272.148 456.306L259.617 449.076V450.527L272.148 457.761L272.177 457.743V456.292L272.148 456.306Z" fill="#9EB6DF"/>
<path d="M284.669 449.076L272.177 456.292V457.743L284.669 450.527V449.076Z" fill="#434483"/>
<path d="M230.701 414.338L243.236 407.104L255.756 414.338L243.236 421.572L230.701 414.338Z" fill="url(#paint7_linear_410_1843)"/>
<path d="M243.236 421.571L230.701 414.338V415.789L243.236 423.023L243.261 423.004V421.55L243.236 421.571Z" fill="#9EB6DF"/>
<path d="M255.756 414.338L243.261 421.55V423.004L255.756 415.789V414.338Z" fill="#434483"/>
<path d="M245.381 423.023L257.909 415.789L270.437 423.023L257.909 430.253L245.381 423.023Z" fill="url(#paint8_linear_410_1843)"/>
<path d="M257.909 430.252L245.381 423.022V424.474L257.909 431.707L257.942 431.689V430.234L257.909 430.252Z" fill="#9EB6DF"/>
<path d="M270.436 423.022L257.941 430.234V431.689L270.436 424.474V423.022Z" fill="#434483"/>
<path d="M260.059 431.707L272.586 424.474L285.11 431.707L272.586 438.941L260.059 431.707Z" fill="url(#paint9_linear_410_1843)"/>
<path d="M272.586 438.941L260.059 431.707V433.162L272.586 440.392L272.615 440.374V438.919L272.586 438.941Z" fill="#9EB6DF"/>
<path d="M285.11 431.707L272.615 438.919V440.374L285.11 433.162V431.707Z" fill="#434483"/>
<path d="M274.736 440.392L287.263 433.162L299.791 440.392L287.267 447.622L274.736 440.392Z" fill="url(#paint10_linear_410_1843)"/>
<path d="M287.267 447.622L274.736 440.392V441.846L287.267 449.076L287.296 449.058V447.603L287.267 447.622Z" fill="#9EB6DF"/>
<path d="M299.791 440.392L287.296 447.603V449.058L299.791 441.846V440.392Z" fill="#434483"/>
<path d="M245.819 405.654L258.347 398.424L270.878 405.654L258.351 412.884L245.819 405.654Z" fill="url(#paint11_linear_410_1843)"/>
<path d="M258.351 412.884L245.819 405.654V407.105L258.351 414.339L258.38 414.321V412.866L258.351 412.884Z" fill="#9EB6DF"/>
<path d="M270.878 405.654L258.379 412.866V414.321L270.878 407.105V405.654Z" fill="#434483"/>
<path d="M260.497 414.338L273.028 407.104L285.552 414.338L273.028 421.572L260.497 414.338Z" fill="url(#paint12_linear_410_1843)"/>
<path d="M273.028 421.571L260.497 414.338V415.789L273.028 423.023L273.057 423.004V421.55L273.028 421.571Z" fill="#9EB6DF"/>
<path d="M285.552 414.338L273.057 421.55V423.004L285.552 415.789V414.338Z" fill="#434483"/>
<path d="M275.173 423.023L287.705 415.789L300.229 423.023L287.705 430.253L275.173 423.023Z" fill="url(#paint13_linear_410_1843)"/>
<path d="M287.705 430.252L275.173 423.022V424.474L287.705 431.707L287.734 431.689V430.234L287.705 430.252Z" fill="#9EB6DF"/>
<path d="M300.228 423.022L287.733 430.234V431.689L300.228 424.474V423.022Z" fill="#434483"/>
<path d="M289.851 431.707L302.378 424.474L314.906 431.707L302.378 438.941L289.851 431.707Z" fill="url(#paint14_linear_410_1843)"/>
<path d="M302.378 438.941L289.851 431.707V433.162L302.378 440.392L302.411 440.374V438.919L302.378 438.941Z" fill="#9EB6DF"/>
<path d="M314.906 431.707L302.411 438.919V440.374L314.906 433.162V431.707Z" fill="#434483"/>
<path d="M260.938 396.969L273.466 389.739L285.99 396.969L273.466 404.203L260.938 396.969Z" fill="url(#paint15_linear_410_1843)"/>
<path d="M273.466 404.202L260.938 396.969V398.423L273.466 405.653L273.495 405.635V404.184L273.466 404.202Z" fill="#9EB6DF"/>
<path d="M285.99 396.969L273.495 404.184V405.635L285.99 398.423V396.969Z" fill="#434483"/>
<path d="M275.615 405.654L288.143 398.424L300.671 405.654L288.143 412.884L275.615 405.654Z" fill="url(#paint16_linear_410_1843)"/>
<path d="M288.143 412.884L275.615 405.654V407.105L288.143 414.339L288.175 414.321V412.866L288.143 412.884Z" fill="#9EB6DF"/>
<path d="M300.67 405.654L288.175 412.866V414.321L300.67 407.105V405.654Z" fill="#434483"/>
<path d="M290.289 414.338L302.82 407.104L315.344 414.338L302.82 421.572L290.289 414.338Z" fill="url(#paint17_linear_410_1843)"/>
<path d="M302.82 421.571L290.289 414.338V415.789L302.82 423.023L302.852 423.004V421.55L302.82 421.571Z" fill="#9EB6DF"/>
<path d="M315.344 414.338L302.853 421.55V423.004L315.344 415.789V414.338Z" fill="#434483"/>
<path d="M317.501 430.253L304.966 423.023V424.475L317.501 431.708L317.526 431.69V430.235L317.501 430.253Z" fill="#9EB6DF"/>
<path d="M276.053 388.284L288.58 381.051L301.112 388.284L288.588 395.518L276.053 388.284Z" fill="url(#paint18_linear_410_1843)"/>
<path d="M288.588 395.518L276.053 388.284V389.739L288.588 396.969L288.613 396.951V395.496L288.588 395.518Z" fill="#9EB6DF"/>
<path d="M301.111 388.284L288.613 395.496V396.951L301.111 389.739V388.284Z" fill="#434483"/>
<path d="M290.73 396.969L303.261 389.739L315.785 396.969L303.261 404.203L290.73 396.969Z" fill="url(#paint19_linear_410_1843)"/>
<path d="M303.261 404.202L290.73 396.969V398.423L303.261 405.653L303.29 405.635V404.184L303.261 404.202Z" fill="#9EB6DF"/>
<path d="M315.785 396.969L303.29 404.184V405.635L315.785 398.423V396.969Z" fill="#434483"/>
<path d="M305.407 405.654L317.938 398.424L330.462 405.654L317.938 412.884L305.407 405.654Z" fill="url(#paint20_linear_410_1843)"/>
<path d="M317.938 412.884L305.407 405.654V407.105L317.938 414.339L317.967 414.321V412.866L317.938 412.884Z" fill="#9EB6DF"/>
<path d="M330.462 405.654L317.967 412.866V414.321L330.462 407.105V405.654Z" fill="#434483"/>
<path d="M291.168 379.6L303.699 372.37L316.223 379.6L303.699 386.83L291.168 379.6Z" fill="url(#paint21_linear_410_1843)"/>
<path d="M303.699 386.83L291.168 379.6V381.051L303.699 388.284L303.728 388.266V386.815L303.699 386.83Z" fill="#9EB6DF"/>
<path d="M316.223 379.6L303.728 386.815V388.266L316.223 381.051V379.6Z" fill="#434483"/>
<path d="M305.849 388.284L318.376 381.051L330.904 388.284L318.376 395.518L305.849 388.284Z" fill="url(#paint22_linear_410_1843)"/>
<path d="M318.376 395.518L305.849 388.284V389.739L318.376 396.969L318.412 396.951V395.496L318.376 395.518Z" fill="#9EB6DF"/>
<path d="M330.904 388.284L318.413 395.496V396.951L330.904 389.739V388.284Z" fill="#434483"/>
<path d="M320.522 396.969L333.053 389.739L345.577 396.969L333.053 404.203L320.522 396.969Z" fill="url(#paint23_linear_410_1843)"/>
<path d="M333.053 404.202L320.522 396.969V398.423L333.053 405.653L333.086 405.635V404.184L333.053 404.202Z" fill="#9EB6DF"/>
<path d="M345.577 396.969L333.086 404.184V405.635L345.577 398.423V396.969Z" fill="#434483"/>
<path d="M306.286 370.915L318.817 363.682L331.341 370.915L318.817 378.149L306.286 370.915Z" fill="url(#paint24_linear_410_1843)"/>
<path d="M318.817 378.149L306.286 370.915V372.37L318.817 379.6L318.846 379.582V378.127L318.817 378.149Z" fill="#9EB6DF"/>
<path d="M331.341 370.915L318.846 378.127V379.582L331.341 372.37V370.915Z" fill="#434483"/>
<path d="M320.963 379.6L333.495 372.37L346.019 379.6L333.498 386.83L320.963 379.6Z" fill="url(#paint25_linear_410_1843)"/>
<path d="M333.498 386.83L320.963 379.6V381.051L333.498 388.284L333.524 388.266V386.815L333.498 386.83Z" fill="#9EB6DF"/>
<path d="M346.018 379.6L333.523 386.815V388.266L346.018 381.051V379.6Z" fill="#434483"/>
<path d="M335.641 388.284L348.172 381.051L360.696 388.284L348.172 395.518L335.641 388.284Z" fill="url(#paint26_linear_410_1843)"/>
<path d="M348.172 395.518L335.641 388.284V389.739L348.172 396.969L348.201 396.951V395.496L348.172 395.518Z" fill="#9EB6DF"/>
<path d="M360.696 388.284L348.201 395.496V396.951L360.696 389.739V388.284Z" fill="#434483"/>
<path d="M321.405 362.226L333.932 355L346.46 362.226L333.932 369.46L321.405 362.226Z" fill="url(#paint27_linear_410_1843)"/>
<path d="M333.932 369.46L321.405 362.227V363.681L333.932 370.915L333.961 370.897V369.442L333.932 369.46Z" fill="#9EB6DF"/>
<path d="M346.46 362.227L333.961 369.442V370.897L346.46 363.681V362.227Z" fill="#434483"/>
<path d="M336.082 370.915L348.613 363.682L361.137 370.915L348.613 378.149L336.082 370.915Z" fill="url(#paint28_linear_410_1843)"/>
<path d="M348.613 378.149L336.082 370.915V372.37L348.613 379.6L348.646 379.582V378.127L348.613 378.149Z" fill="#9EB6DF"/>
<path d="M361.137 370.915L348.646 378.127V379.582L361.137 372.37V370.915Z" fill="#434483"/>
<path d="M350.759 379.6L363.287 372.37L375.815 379.6L363.287 386.83L350.759 379.6Z" fill="url(#paint29_linear_410_1843)"/>
<path d="M363.287 386.83L350.759 379.6V381.051L363.287 388.284L363.319 388.266V386.815L363.287 386.83Z" fill="#9EB6DF"/>
<path d="M375.814 379.6L363.319 386.815V388.266L375.814 381.051V379.6Z" fill="#434483"/>
<path d="M365.436 388.284L377.964 381.051L390.488 388.284L377.967 395.518L365.436 388.284Z" fill="url(#paint30_linear_410_1843)"/>
<path d="M377.967 395.518L365.436 388.284V389.739L377.967 396.969L377.996 396.951V395.496L377.967 395.518Z" fill="#9EB6DF"/>
<path d="M390.488 388.284L377.996 395.496V396.951L390.488 389.739V388.284Z" fill="#434483"/>
<path d="M336.523 353.546L349.051 346.312L361.579 353.546L349.051 360.78L336.523 353.546Z" fill="url(#paint31_linear_410_1843)"/>
<path d="M349.051 360.779L336.523 353.546V355.001L349.051 362.227L349.084 362.212V360.761L349.051 360.779Z" fill="#9EB6DF"/>
<path d="M361.579 353.546L349.083 360.761V362.212L361.579 355.001V353.546Z" fill="#434483"/>
<path d="M351.197 362.226L363.728 355L376.252 362.226L363.728 369.46L351.197 362.226Z" fill="url(#paint32_linear_410_1843)"/>
<path d="M363.728 369.46L351.197 362.227V363.681L363.728 370.915L363.757 370.897V369.442L363.728 369.46Z" fill="#9EB6DF"/>
<path d="M376.252 362.227L363.757 369.442V370.897L376.252 363.685V362.227Z" fill="#434483"/>
<path d="M365.874 370.915L378.405 363.685L390.929 370.915L378.405 378.148L365.874 370.915Z" fill="url(#paint33_linear_410_1843)"/>
<path d="M378.405 378.149L365.874 370.915V372.37L378.405 379.6L378.441 379.582V378.127L378.405 378.149Z" fill="#9EB6DF"/>
<path d="M390.929 370.915L378.441 378.127V379.582L390.929 372.37V370.915Z" fill="#434483"/>
<path d="M380.551 379.6L393.083 372.37L405.607 379.6L393.083 386.83L380.551 379.6Z" fill="url(#paint34_linear_410_1843)"/>
<path d="M393.083 386.83L380.551 379.6V381.051L393.083 388.284L393.115 388.266V386.815L393.083 386.83Z" fill="#9EB6DF"/>
<path d="M405.607 379.6L393.115 386.815V388.266L405.607 381.051V379.6Z" fill="#434483"/>
<path d="M351.639 344.857L364.166 337.627L376.698 344.857L364.166 352.091L351.639 344.857Z" fill="url(#paint35_linear_410_1843)"/>
<path d="M364.166 352.09L351.639 344.856V346.311L364.166 353.545L364.199 353.527V352.072L364.166 352.09Z" fill="#9EB6DF"/>
<path d="M376.697 344.856L364.199 352.072V353.527L376.697 346.311V344.856Z" fill="#434483"/>
<path d="M366.319 353.546L378.847 346.312L391.371 353.546L378.847 360.78L366.319 353.546Z" fill="url(#paint36_linear_410_1843)"/>
<path d="M378.847 360.779L366.319 353.546V355.001L378.847 362.227L378.88 362.212V360.761L378.847 360.779Z" fill="#9EB6DF"/>
<path d="M391.371 353.546L378.879 360.761V362.212L391.371 355.001V353.546Z" fill="#434483"/>
<path d="M380.993 362.226L393.52 355L406.048 362.226L393.52 369.46L380.993 362.226Z" fill="url(#paint37_linear_410_1843)"/>
<path d="M393.52 369.46L380.993 362.227V363.685L393.52 370.915L393.553 370.897V369.442L393.52 369.46Z" fill="#9EB6DF"/>
<path d="M406.048 362.227L393.553 369.442V370.897L406.048 363.685V362.227Z" fill="#434483"/>
<path d="M395.67 370.915L408.198 363.685L420.722 370.915L408.198 378.148L395.67 370.915Z" fill="url(#paint38_linear_410_1843)"/>
<path d="M408.198 378.149L395.67 370.915V372.37L408.198 379.6L408.23 379.582V378.127L408.198 378.149Z" fill="#9EB6DF"/>
<path d="M420.721 370.915L408.23 378.127V379.582L420.721 372.37V370.915Z" fill="#434483"/>
<path d="M304.966 423.023L362.842 389.735L375.366 396.965L317.501 430.253L304.966 423.023Z" fill="url(#paint39_linear_410_1843)"/>
<path d="M317.526 430.235V431.689L375.373 398.423V396.969L317.526 430.235Z" fill="#434483"/>
<path d="M263.316 334.07L263.287 344.159C263.247 357.294 254.613 370.412 237.359 380.446C202.65 400.609 146.196 400.616 111.24 380.432C93.6607 370.285 84.8783 356.961 84.9181 343.652L84.9434 333.563C84.9073 346.862 93.6896 360.186 111.269 370.339C146.228 390.52 202.682 390.52 237.388 370.347C254.642 360.327 263.279 347.206 263.316 334.07Z" fill="url(#paint40_linear_410_1843)"/>
<path d="M236.976 297.283C271.935 317.464 272.116 350.169 237.388 370.343C202.682 390.517 146.228 390.517 111.269 370.336C76.3313 350.169 76.1503 317.464 110.856 297.294C145.584 277.113 202.038 277.113 236.976 297.283Z" fill="#E0E9F6"/>
<path d="M154.189 298.712L154.2 327.31L169.268 336.009L178.973 313.017L178.955 284.419L154.189 298.712Z" fill="#282861"/>
<path d="M169.257 307.408L169.268 336.01L194.041 321.72L194.023 293.122L169.257 307.408Z" fill="#434481"/>
<path d="M333.05 6.53518L323.218 0.976997C321.745 -0.119442 319.675 -0.390838 317.855 0.658559L36.2803 163.232C31.1817 166.177 28.0371 171.62 28.0371 177.507L28.048 380.584C28.048 382.451 29.0539 383.971 30.4652 384.796C30.4833 384.807 30.5014 384.818 30.5231 384.828L40.04 390.195L42.3596 380.768L316.933 222.255C322.031 219.31 325.176 213.867 325.176 207.98V10.7038L333.05 6.53518Z" fill="url(#paint41_linear_410_1843)"/>
<path d="M45.2507 390.408L326.819 227.857C331.917 224.911 335.062 219.469 335.062 213.581V10.4831C335.062 6.72698 330.994 4.3785 327.741 6.25656L46.1626 168.83C41.064 171.775 37.9194 177.218 37.9194 183.105L37.9303 386.182C37.9303 389.938 41.9976 392.286 45.2507 390.408Z" fill="url(#paint42_linear_410_1843)"/>
<path d="M322.556 18.6173V195.473L330.647 199.479V13.9385L322.556 18.6173Z" fill="#9EB6DF"/>
<path d="M322.556 195.474L42.3271 356.129V364.785L330.647 199.479L322.556 195.474Z" fill="url(#paint43_linear_410_1843)"/>
<path d="M322.556 18.5703L48.0952 177.04C44.5273 179.099 42.3271 182.91 42.3271 187.028V356.129L322.556 195.473V18.5703Z" fill="#DDE9FA"/>
<path d="M322.556 18.5703L48.0952 177.04C44.5273 179.099 42.3271 182.91 42.3271 187.028V356.129L322.556 195.473V18.5703Z" fill="#0286D8"/>
<path d="M316.002 491.429L309.073 487.405L332.909 473.832L339.835 477.86L316.002 491.429Z" fill="#DFEBFC"/>
<path d="M339.835 477.867V477.859L316.002 491.429V499.705L339.835 486.164V477.867Z" fill="#9EB6DF"/>
<path d="M309.073 479.13L302.146 475.102L325.982 461.532L332.908 465.556L309.073 479.13Z" fill="#DFEBFC"/>
<path d="M332.909 465.567V465.557L309.073 479.13V487.406L332.909 473.865V465.567Z" fill="#9EB6DF"/>
<path d="M302.147 466.83L295.221 462.802L319.053 449.232L325.983 453.256L302.147 466.83Z" fill="#DFEBFC"/>
<path d="M325.982 453.267V453.256L302.146 466.829V475.101L325.982 461.564V453.267Z" fill="#9EB6DF"/>
<g style="mix-blend-mode:overlay">
<path style="mix-blend-mode:overlay" d="M296.596 109.427L300.645 107.075L199.559 48.5908L195.506 50.9429L296.596 109.427Z" fill="url(#paint44_linear_410_1843)"/>
<path style="mix-blend-mode:overlay" d="M195.506 50.9434L195.452 66.3297L294.168 201.192L296.581 200.305L296.596 109.427L195.506 50.9434Z" fill="url(#paint45_linear_410_1843)"/>
<g style="mix-blend-mode:overlay">
<g style="mix-blend-mode:overlay">
<path d="M271.964 177.146L276.013 174.79L263.778 167.727L259.726 170.082L271.964 177.146Z" fill="#F54970"/>
</g>
<g style="mix-blend-mode:overlay">
<path d="M259.726 170.082L263.778 167.726L263.905 122.739L259.856 125.091L259.726 170.082Z" fill="#F54970"/>
</g>
<g style="mix-blend-mode:overlay">
<path d="M241.553 97.6413L245.606 95.2855L245.624 87.6611L241.575 90.0168L241.553 97.6413Z" fill="white"/>
</g>
<g style="mix-blend-mode:overlay">
<path d="M272.09 132.159L276.14 129.803L263.905 122.739L259.856 125.091L272.09 132.159Z" fill="#9EB6DF"/>
</g>
<path style="mix-blend-mode:overlay" d="M243.293 86.8869L247.317 84.5855C248.432 83.8328 249.941 83.6736 251.269 84.4407L295.85 110.18L291.747 112.536L247.545 87.0136L247.697 88.6636L243.293 86.8869Z" fill="url(#paint46_linear_410_1843)"/>
<path style="mix-blend-mode:overlay" d="M191.399 148.678L291.957 206.735L291.638 150.017L291.703 126.597L291.743 112.539L283.435 107.741L247.162 86.7996C244.68 85.3667 241.578 87.1542 241.571 90.0166L241.549 97.641L198.369 72.7124L191.396 68.6885V148.682L191.399 148.678Z" fill="url(#paint47_linear_410_1843)"/>
<path style="mix-blend-mode:overlay" d="M241.553 97.6409L191.399 68.6848L195.507 66.3291L241.568 92.9223L241.553 97.6409Z" fill="url(#paint48_linear_410_1843)"/>
</g>
<path style="mix-blend-mode:overlay" d="M292.68 206.492C292.145 206.8 291.479 206.409 291.479 205.794L291.504 196.411L291.638 150.017L291.703 126.597L291.743 112.539L295.796 110.187L295.756 124.245L295.691 147.668L295.561 198.85C295.561 199.172 295.912 199.374 296.19 199.212C296.433 199.07 296.581 198.81 296.581 198.528L296.592 109.434L300.641 107.078L300.63 191.084V200.616C300.63 201.441 300.189 202.201 299.473 202.613L292.68 206.499V206.492Z" fill="url(#paint49_linear_410_1843)"/>
</g>
<g style="mix-blend-mode:overlay">
<path style="mix-blend-mode:overlay" d="M200.503 168.074L204.552 165.718L103.466 107.234L99.4136 109.59L200.503 168.074Z" fill="url(#paint50_linear_410_1843)"/>
<path style="mix-blend-mode:overlay" d="M99.4137 109.59L99.3594 124.976L198.075 259.835L200.489 258.952L200.503 168.074L99.4137 109.59Z" fill="url(#paint51_linear_410_1843)"/>
<g style="mix-blend-mode:overlay">
<g style="mix-blend-mode:overlay">
<path d="M175.871 235.79L179.921 233.438L167.686 226.374L163.633 228.726L175.871 235.79Z" fill="#F54970"/>
</g>
<g style="mix-blend-mode:overlay">
<path d="M163.633 228.725L167.686 226.373L167.813 181.387L163.764 183.739L163.633 228.725Z" fill="#F54970"/>
</g>
<g style="mix-blend-mode:overlay">
<path d="M145.46 156.285L149.513 153.933L149.531 146.309L145.482 148.661L145.46 156.285Z" fill="white"/>
</g>
<g style="mix-blend-mode:overlay">
<path d="M175.998 190.802L180.051 188.45L167.813 181.387L163.764 183.739L175.998 190.802Z" fill="#9EB6DF"/>
</g>
<path style="mix-blend-mode:overlay" d="M147.201 145.534L151.225 143.233C152.34 142.48 153.849 142.321 155.177 143.088L199.758 168.827L195.654 171.183L151.453 145.661L151.605 147.311L147.201 145.534Z" fill="url(#paint52_linear_410_1843)"/>
<path style="mix-blend-mode:overlay" d="M95.3103 207.321L195.868 265.378L195.549 208.66L195.615 185.241L195.654 171.182L187.346 166.384L151.073 145.443C148.591 144.01 145.49 145.798 145.482 148.66L145.461 156.285L102.28 131.356L95.3066 127.332V207.325L95.3103 207.321Z" fill="url(#paint53_linear_410_1843)"/>
<path style="mix-blend-mode:overlay" d="M145.461 156.285L95.3105 127.332L99.4141 124.977L145.475 151.57L145.461 156.285Z" fill="url(#paint54_linear_410_1843)"/>
</g>
<path style="mix-blend-mode:overlay" d="M196.588 265.14C196.053 265.447 195.387 265.056 195.387 264.441L195.412 255.058L195.546 208.664L195.611 185.244L195.651 171.186L199.704 168.834L199.664 182.892L199.599 206.316L199.469 257.497C199.469 257.819 199.82 258.022 200.098 257.859C200.341 257.718 200.489 257.457 200.489 257.175L200.5 168.081L204.549 165.726L204.538 249.732V259.263C204.538 260.088 204.097 260.848 203.38 261.261L196.588 265.147V265.14Z" fill="url(#paint55_linear_410_1843)"/>
</g>
<g style="mix-blend-mode:overlay">
<path style="mix-blend-mode:overlay" d="M105.193 232.228L109.242 229.873L8.15616 171.389L4.10693 173.744L105.193 232.228Z" fill="url(#paint56_linear_410_1843)"/>
<path style="mix-blend-mode:overlay" d="M4.10701 173.744L4.05273 189.127L102.765 323.989L105.178 323.106L105.193 232.228L4.10701 173.744Z" fill="url(#paint57_linear_410_1843)"/>
<g style="mix-blend-mode:overlay">
<g style="mix-blend-mode:overlay">
<path d="M80.5607 299.944L84.6135 297.592L72.3754 290.524L68.3262 292.88L80.5607 299.944Z" fill="#F54970"/>
</g>
<g style="mix-blend-mode:overlay">
<path d="M68.3262 292.879L72.3754 290.524L72.502 245.537L68.4528 247.893L68.3262 292.879Z" fill="#F54970"/>
</g>
<g style="mix-blend-mode:overlay">
<path d="M50.1499 220.438L54.2027 218.083L54.2245 210.462L50.1752 212.814L50.1499 220.438Z" fill="white"/>
</g>
<g style="mix-blend-mode:overlay">
<path d="M80.6876 254.956L84.7405 252.601L72.5024 245.537L68.4531 247.893L80.6876 254.956Z" fill="#9EB6DF"/>
</g>
<path style="mix-blend-mode:overlay" d="M51.8906 209.685L55.9145 207.383C57.0291 206.631 58.538 206.471 59.866 207.239L104.447 232.978L100.344 235.333L56.1425 209.811L56.2945 211.461L51.8906 209.685Z" fill="url(#paint58_linear_410_1843)"/>
<path style="mix-blend-mode:overlay" d="M-0.000287638 271.476L100.557 329.533L100.239 272.815L100.304 249.395L100.344 235.337L92.0355 230.538L55.7625 209.597C53.2802 208.165 50.179 209.952 50.1718 212.814L50.15 220.439L6.96916 195.51L-0.00390625 191.486V271.479L-0.000287638 271.476Z" fill="url(#paint59_linear_410_1843)"/>
<path style="mix-blend-mode:overlay" d="M50.1503 220.439L0 191.483L4.10351 189.127L50.1648 215.72L50.1503 220.439Z" fill="url(#paint60_linear_410_1843)"/>
</g>
<path style="mix-blend-mode:overlay" d="M101.281 329.29C100.745 329.598 100.08 329.207 100.08 328.592L100.105 319.209L100.239 272.814L100.304 249.395L100.344 235.336L104.397 232.984L104.357 247.043L104.292 270.466L104.161 321.648C104.161 321.97 104.512 322.172 104.791 322.009C105.033 321.868 105.182 321.608 105.182 321.326L105.193 232.232L109.242 229.876L109.231 313.882V323.413C109.231 324.239 108.79 324.998 108.073 325.411L101.281 329.297V329.29Z" fill="url(#paint61_linear_410_1843)"/>
</g>
<path d="M399.886 169.844L403.935 167.488L302.849 109.004L298.8 111.36L399.886 169.844Z" fill="url(#paint62_linear_410_1843)"/>
<path d="M298.8 111.359L298.742 126.742L397.457 261.604L399.871 260.721L399.885 169.843L298.8 111.359Z" fill="url(#paint63_linear_410_1843)"/>
<path d="M375.254 237.559L379.303 235.207L367.068 228.14L363.019 230.495L375.254 237.559Z" fill="#434483"/>
<path d="M363.019 230.495L367.068 228.139L367.195 183.152L363.146 185.508L363.019 230.495Z" fill="#434483"/>
<path d="M344.843 158.054L348.896 155.698L348.917 148.077L344.865 150.429L344.843 158.054Z" fill="white"/>
<path d="M375.381 192.572L379.433 190.216L367.195 183.152L363.146 185.508L375.381 192.572Z" fill="#9EB6DF"/>
<path d="M346.583 147.3L350.607 144.999C351.722 144.246 353.231 144.087 354.559 144.854L399.14 170.593L395.037 172.949L350.835 147.427L350.987 149.077L346.583 147.3Z" fill="url(#paint64_linear_410_1843)"/>
<path d="M294.693 209.091L395.25 267.148L394.932 210.43L394.997 187.01L395.037 172.952L386.728 168.154L350.455 147.213C347.973 145.78 344.872 147.567 344.865 150.43L344.843 158.054L301.662 133.125L294.689 129.102V209.095L294.693 209.091Z" fill="url(#paint65_linear_410_1843)"/>
<path d="M344.843 158.054L294.693 129.098L298.796 126.742L344.858 153.335L344.843 158.054Z" fill="url(#paint66_linear_410_1843)"/>
<path d="M395.974 266.905C395.438 267.213 394.772 266.822 394.772 266.207L394.798 256.824L394.932 210.43L394.997 187.01L395.037 172.952L399.089 170.6L399.05 184.658L398.985 208.081L398.854 259.263C398.854 259.585 399.205 259.788 399.484 259.625C399.726 259.484 399.875 259.223 399.875 258.941L399.886 169.847L403.935 167.491L403.924 251.497V261.029C403.924 261.854 403.482 262.614 402.766 263.026L395.974 266.913V266.905Z" fill="url(#paint67_linear_410_1843)"/>
<path d="M303.793 228.486L307.843 226.134L206.757 167.65L202.708 170.002L303.793 228.486Z" fill="url(#paint68_linear_410_1843)"/>
<path d="M202.707 170.003L202.649 185.389L301.365 320.251L303.779 319.365L303.793 228.487L202.707 170.003Z" fill="url(#paint69_linear_410_1843)"/>
<path d="M279.161 296.205L283.211 293.85L270.976 286.786L266.927 289.142L279.161 296.205Z" fill="#434483"/>
<path d="M266.927 289.141L270.976 286.785L271.103 241.799L267.053 244.151L266.927 289.141Z" fill="#434483"/>
<path d="M248.75 216.701L252.803 214.345L252.825 206.721L248.772 209.076L248.75 216.701Z" fill="white"/>
<path d="M279.288 251.218L283.341 248.862L271.103 241.799L267.054 244.151L279.288 251.218Z" fill="#9EB6DF"/>
<path d="M250.491 205.946L254.515 203.645C255.63 202.892 257.139 202.733 258.467 203.5L303.048 229.239L298.944 231.595L254.743 206.073L254.895 207.723L250.491 205.946Z" fill="url(#paint70_linear_410_1843)"/>
<path d="M198.6 267.737L299.158 325.794L298.839 269.076L298.905 245.657L298.944 231.598L290.636 226.8L254.363 205.859C251.881 204.426 248.78 206.214 248.772 209.076L248.751 216.701L205.57 191.772L198.597 187.748V267.741L198.6 267.737Z" fill="url(#paint71_linear_410_1843)"/>
<path d="M248.751 216.701L198.601 187.744L202.704 185.389L248.765 211.982L248.751 216.701Z" fill="url(#paint72_linear_410_1843)"/>
<path d="M299.882 325.552C299.346 325.859 298.68 325.469 298.68 324.853L298.705 315.47L298.839 269.076L298.905 245.656L298.944 231.598L302.997 229.246L302.957 243.304L302.892 266.728L302.762 317.909C302.762 318.231 303.113 318.434 303.392 318.271C303.634 318.13 303.782 317.87 303.782 317.587L303.793 228.493L307.842 226.138L307.832 310.144V319.675C307.832 320.5 307.39 321.26 306.674 321.673L299.882 325.559V325.552Z" fill="url(#paint73_linear_410_1843)"/>
<path d="M208.486 292.64L212.536 290.285L111.446 231.801L107.397 234.157L208.486 292.64Z" fill="url(#paint74_linear_410_1843)"/>
<path d="M107.397 234.156L107.343 249.543L206.055 384.401L208.468 383.518L208.487 292.64L107.397 234.156Z" fill="url(#paint75_linear_410_1843)"/>
<path d="M183.854 360.36L187.904 358.004L175.669 350.94L171.616 353.293L183.854 360.36Z" fill="#434483"/>
<path d="M171.616 353.292L175.669 350.94L175.796 305.953L171.746 308.305L171.616 353.292Z" fill="#434483"/>
<path d="M153.444 280.852L157.493 278.499L157.515 270.875L153.466 273.227L153.444 280.852Z" fill="white"/>
<path d="M183.981 315.369L188.03 313.017L175.796 305.953L171.747 308.305L183.981 315.369Z" fill="#9EB6DF"/>
<path d="M155.184 270.101L159.208 267.799C160.323 267.047 161.831 266.887 163.16 267.655L207.741 293.394L203.637 295.749L159.436 270.227L159.588 271.878L155.184 270.101Z" fill="url(#paint76_linear_410_1843)"/>
<path d="M103.29 331.888L203.847 389.945L203.529 333.227L203.594 309.807L203.634 295.749L195.326 290.95L159.053 270.01C156.57 268.577 153.469 270.364 153.462 273.227L153.44 280.851L110.259 255.922L103.286 251.898V331.891L103.29 331.888Z" fill="url(#paint77_linear_410_1843)"/>
<path d="M153.444 280.851L103.29 251.899L107.397 249.543L153.458 276.136L153.444 280.851Z" fill="url(#paint78_linear_410_1843)"/>
<path d="M204.571 389.706C204.035 390.014 203.37 389.623 203.37 389.008L203.395 379.625L203.529 333.23L203.594 309.811L203.634 295.752L207.687 293.4L207.647 307.459L207.582 330.882L207.451 382.064C207.451 382.386 207.802 382.588 208.081 382.425C208.324 382.284 208.472 382.024 208.472 381.742L208.483 292.648L212.532 290.292L212.521 374.298V383.829C212.521 384.655 212.08 385.414 211.363 385.827L204.571 389.713V389.706Z" fill="url(#paint79_linear_410_1843)"/>
<path d="M178.455 367.202L140.369 442.542" stroke="#282861" stroke-width="7" stroke-miterlimit="10" stroke-linecap="round"/>
<path d="M153.592 353.937L115.506 429.276" stroke="#282861" stroke-width="7" stroke-miterlimit="10" stroke-linecap="round"/>
<path d="M172.962 376.868L149.463 363.45" stroke="#282861" stroke-width="4" stroke-miterlimit="10" stroke-linecap="round"/>
<path d="M165.226 391.939L141.727 378.521" stroke="#282861" stroke-width="4" stroke-miterlimit="10" stroke-linecap="round"/>
<path d="M157.489 407.011L133.99 393.593" stroke="#282861" stroke-width="4" stroke-miterlimit="10" stroke-linecap="round"/>
<path d="M149.753 422.079L126.253 408.661" stroke="#282861" stroke-width="4" stroke-miterlimit="10" stroke-linecap="round"/>
<path d="M142.019 437.15L118.517 423.732" stroke="#282861" stroke-width="4" stroke-miterlimit="10" stroke-linecap="round"/>
<path d="M376.397 157.283L391.697 150.205C393.998 149.142 396.643 150.763 396.737 153.299L397.049 163.641L390.633 159.9L379.73 165.986C377.812 167.065 375.435 166.916 373.665 165.606L369.779 162.73C367.658 161.159 366.435 158.651 366.511 156.013L366.66 150.553L376.397 157.28V157.283Z" fill="#282861"/>
<path d="M383.269 146.489C385.57 145.425 388.215 147.046 388.309 149.583L388.621 159.925L382.205 156.183L377.49 158.817L375.568 150.049L383.269 146.489Z" fill="#282861"/>
<path d="M403.928 147.874L391.241 155.246L374.226 145.425L386.956 138.075L403.928 147.874Z" fill="#9EB6DF"/>
<g style="mix-blend-mode:multiply">
<path d="M380.627 142.888L386.956 139.291L401.829 147.878L395.533 151.493L380.627 142.888Z" fill="#E8EFF9"/>
</g>
<path d="M403.927 135.057V147.925L386.956 138.126V125.262L403.927 135.057Z" fill="#FAFCFF"/>
<path d="M403.486 135.315L387.401 126.033V137.87L403.486 147.155V135.315Z" fill="#DFEBFC"/>
<path d="M365.288 122.754C365.295 120.685 366.496 119.624 368.139 120.001C377.15 121.578 382.31 129.203 382.31 129.203C383.309 130.618 383.96 132.347 383.956 133.874C383.956 134.323 383.265 158.141 383.265 158.141C383.265 158.141 382.78 161.897 377.635 161.727C372.492 161.557 363.725 150.784 363.725 150.784C363.725 150.784 367.05 146.558 367.198 143.996C366.833 139.961 365.291 123.029 365.295 122.754H365.288Z" fill="#DFEBFC"/>
<path d="M380.826 114.113C380.888 114.554 380.2 116.371 380.2 116.371C380.283 119.458 378.991 121.676 377.027 121.737C376.831 122.146 376.107 123.793 376.107 123.793C375.688 125.262 371.096 123.384 372.12 121.383L372.977 119.273C372.977 119.273 380.714 113.425 380.833 114.113H380.826Z" fill="#FEA972"/>
<path d="M373.014 109.811C379.075 104.65 386.359 110.712 379.379 116.244C378.952 116.581 378.843 117.377 378.861 118.206L378.308 118.593L378.188 117.091C377.085 116.581 375.42 121.321 375.42 121.321L372.641 120.08C372.641 120.08 367.206 112.163 373.01 109.811H373.014Z" fill="#282861"/>
<path d="M378.185 118.021C378.185 118.021 378.84 116.302 378.369 116.248C377.899 116.194 377.023 118.206 377.486 119.197C377.949 120.189 378.185 118.021 378.185 118.021Z" fill="#F3925F"/>
<path d="M380.468 132.55C381.814 132.264 383.135 133.122 383.421 134.468L386.457 148.747L397.732 143.496C398.286 143.239 398.959 143.428 399.288 143.96C399.647 144.535 399.473 145.288 398.898 145.649L385.939 153.741C385.766 153.849 385.563 153.936 385.353 153.99C384.249 154.269 383.128 153.603 382.849 152.499L382.806 152.333L378.572 135.597C378.565 135.568 378.557 135.532 378.55 135.503C378.264 134.157 379.122 132.836 380.468 132.55Z" fill="#FEA972"/>
<path d="M385.01 141.535L383.685 133.571C383.606 133.118 383.233 132.717 382.574 132.471C381.264 131.979 379.328 132.301 378.257 133.191C377.722 133.636 377.501 134.139 377.577 134.591L378.901 142.556C378.981 143.008 379.357 143.41 380.012 143.656C381.326 144.148 383.258 143.826 384.333 142.936C384.872 142.491 385.089 141.988 385.013 141.535H385.01Z" fill="#FAFCFF"/>
<path d="M144.216 219.831L139.91 235.167C139.577 236.354 140.268 237.588 141.455 237.92C142.548 238.228 143.677 237.667 144.111 236.654L150.404 222.02C151.121 220.352 150.35 218.42 148.682 217.703C147.014 216.987 145.081 217.758 144.365 219.426C144.31 219.556 144.256 219.704 144.22 219.835L144.216 219.831Z" fill="#434483"/>
<path d="M126.977 277.812C126.977 277.812 124.365 280.66 123.489 281.235C122.613 281.811 124.52 283.294 129.474 279.238C129.474 279.238 130.23 278.778 130.039 277.584L126.981 277.812H126.977Z" fill="#282861"/>
<path d="M134.052 255.496C134.045 253.234 132.449 252.326 130.48 253.462C128.519 254.595 126.938 257.334 126.945 259.599V277.812C126.945 278.051 127.1 278.29 127.412 278.47C128.038 278.832 129.054 278.832 129.681 278.47C129.995 278.29 130.155 278.051 130.155 277.812H130.165L131.689 260.718C133.068 259.357 134.048 257.269 134.048 255.5L134.052 255.496Z" fill="#F3925F"/>
<path d="M130.371 279.882C130.371 279.882 127.759 282.73 126.883 283.305C126.007 283.881 127.914 285.364 132.868 281.308C132.868 281.308 133.624 280.848 133.433 279.654L130.375 279.886L130.371 279.882Z" fill="#282861"/>
<path d="M140.294 259.386L137.442 258.145C137.464 257.949 137.475 257.754 137.475 257.566C137.467 255.304 135.872 254.392 133.903 255.532C131.942 256.665 130.36 259.404 130.368 261.669V279.882C130.368 280.121 130.523 280.36 130.835 280.54C131.461 280.906 132.477 280.906 133.107 280.54C133.422 280.36 133.581 280.121 133.581 279.882H133.592L135.09 263.052L140.29 259.39L140.294 259.386Z" fill="#FEA972"/>
<path d="M129.221 254.132C130.737 252.754 141.618 243.704 144.191 241.569C144.253 237.089 144.51 218.641 144.51 218.399C144.513 216.575 145.573 215.641 147.021 215.971C154.96 217.36 159.505 224.076 159.505 224.076C160.384 225.321 160.96 226.848 160.956 228.194C160.956 228.592 160.804 229.276 160.804 229.276C160.793 229.305 157.337 246.942 157.337 246.942H157.323C157.276 248.907 157.07 251.44 156.36 252.182C153.1 255.594 141.133 262.01 138 263.259C134.866 264.507 127.498 255.699 129.221 254.132Z" fill="#434483"/>
<path d="M153.115 218.269C151.761 217.462 145.606 220.063 145.606 220.063L146.529 231.668L155.915 222.857C155.915 222.857 154.982 219.383 153.111 218.269H153.115Z" fill="#9EB6DF"/>
<path d="M147.231 222.639L146.532 231.668C146.532 231.668 154.236 221.767 153.621 219.632C153.006 217.497 147.231 222.639 147.231 222.639Z" fill="#B6CBEA"/>
<path d="M149.105 221.553L151.425 224.734C151.425 224.734 154.873 220.334 153.274 218.532C151.674 216.73 148.009 219.451 147.227 222.639L149.105 221.553Z" fill="white"/>
<path d="M144.151 213.861C145.288 217.555 144.958 221.246 144.958 221.246C144.958 221.246 148.132 221.065 149.178 219.021C152.062 213.383 144.151 213.861 144.151 213.861Z" fill="#282861"/>
<path d="M151.226 215.981C151.226 215.981 151.117 218.001 152.771 219.007C153.111 220.432 149.105 221.554 149.105 221.554C148.436 220.552 149.579 220.309 148.132 218.742C150.14 217.878 151.226 215.981 151.226 215.981Z" fill="#F3925F"/>
<path d="M146.409 209.867C146.409 209.867 146.409 209.862 146.413 209.858V209.867H146.409Z" fill="#282861"/>
<path d="M151.189 215.572C151.189 215.572 151.504 214.606 152.05 215.084C152.593 215.558 151.927 217.255 151.486 216.969C151.044 216.683 151.189 215.572 151.189 215.572Z" fill="#F3925F"/>
<path d="M151.768 212.761C151.472 211.625 149.934 211.437 149.934 211.437C146.782 212.204 143.949 211.505 143.818 211.473C143.818 211.903 143.851 212.359 143.949 212.862C144.85 217.505 146.362 221.38 149.301 219.303C150.216 218.652 151.095 217.657 151.815 216.499C151.917 215.862 152.105 214.288 151.768 212.757V212.761Z" fill="#FEA972"/>
<path d="M152.734 252.279L139.302 260.088L121.278 249.688L134.761 241.904L152.734 252.279Z" fill="white"/>
<path d="M125.367 248.595L134.761 243.192L150.512 252.282L141.155 257.707L125.367 248.595Z" fill="#DFEBFC"/>
<path d="M138.629 257.374L149.604 250.994" stroke="white" stroke-miterlimit="10"/>
<path d="M136.805 256.502L147.78 250.126" stroke="white" stroke-miterlimit="10"/>
<path d="M134.978 255.634L144.321 250.188" stroke="white" stroke-miterlimit="10"/>
<path d="M133.154 254.762L142.668 249.232" stroke="white" stroke-miterlimit="10"/>
<path d="M131.327 253.889L140.934 248.31" stroke="white" stroke-miterlimit="10"/>
<path d="M129.503 253.02L139.255 247.354" stroke="white" stroke-miterlimit="10"/>
<path d="M127.675 252.149L137.652 246.352" stroke="white" stroke-miterlimit="10"/>
<path d="M125.852 251.276L136.827 244.9" stroke="white" stroke-miterlimit="10"/>
<path d="M124.024 250.408L135 244.028" stroke="white" stroke-miterlimit="10"/>
<path d="M125.975 247.169L143.192 257.109" stroke="white" stroke-miterlimit="10"/>
<path d="M127.509 246.16L144.727 256.104" stroke="white" stroke-miterlimit="10"/>
<path d="M129.043 245.153L146.261 255.094" stroke="white" stroke-miterlimit="10"/>
<path d="M130.581 244.147L147.798 254.088" stroke="white" stroke-miterlimit="10"/>
<path d="M132.116 243.139L149.333 253.079" stroke="white" stroke-miterlimit="10"/>
<path d="M154.164 228.7L155.253 246.225C155.332 247.499 156.429 248.469 157.703 248.389C158.879 248.317 159.794 247.372 159.867 246.225L160.956 228.7C161.072 226.826 159.646 225.208 157.771 225.093C155.897 224.977 154.279 226.402 154.164 228.277C154.156 228.414 154.156 228.566 154.164 228.7Z" fill="#434483"/>
<path d="M143.692 249.12L140.163 250.604C139.295 250.969 138.886 251.971 139.252 252.84C139.595 253.658 140.511 254.063 141.339 253.806L144.737 252.731C146.337 252.225 145.269 248.458 143.688 249.124L143.692 249.12Z" fill="#FEA972"/>
<path d="M159.704 245.353C159.284 244.028 157.873 243.297 156.548 243.717C156.476 243.739 156.4 243.768 156.331 243.797L143.691 249.12C145.273 248.454 146.34 252.221 144.741 252.727L158.068 248.508C159.393 248.088 160.124 246.677 159.704 245.353Z" fill="#434483"/>
<path d="M132.325 241.336L130.321 243.128C129.648 243.732 129.59 244.77 130.191 245.443C130.751 246.069 131.685 246.164 132.358 245.693L134.797 243.978C135.76 243.298 133.371 240.395 132.322 241.336H132.325Z" fill="#FEA972"/>
<path d="M143.771 234.718C143.004 233.625 141.495 233.364 140.406 234.132C140.333 234.186 140.25 234.247 140.185 234.309L132.329 241.336C133.378 240.395 135.767 243.301 134.804 243.978L143.185 238.083C144.278 237.316 144.538 235.807 143.771 234.718Z" fill="#434483"/>
<path d="M139.255 246.463V260.088L121.278 249.709V236.089L139.255 246.463Z" fill="#B6CBEA"/>
<path d="M154.844 213.863C154.479 212.76 153.657 209.868 152.814 208.497C150.875 205.338 148.208 206.315 147.397 206.478C147.35 206.489 147.296 206.503 147.234 206.521C147.216 206.525 147.194 206.532 147.176 206.543C147.133 206.557 147.086 206.572 147.035 206.594C147.006 206.604 146.977 206.615 146.948 206.626C146.894 206.648 146.836 206.673 146.775 206.702C146.709 206.735 146.641 206.767 146.568 206.803C146.543 206.818 146.518 206.829 146.492 206.843C146.427 206.879 146.358 206.916 146.286 206.959C146.279 206.959 146.275 206.966 146.268 206.97C145.479 207.448 144.535 208.302 144.082 209.677C144.082 209.68 144.079 209.687 144.079 209.687C143.909 210.205 143.818 210.806 143.822 211.479C143.822 211.479 143.695 211.815 144.043 213.331C144.043 213.331 147.042 214.265 149.445 213.512C150.469 214.732 150.585 219.07 150.925 221.329C153.733 219.28 155.105 215.408 154.844 213.867V213.863Z" fill="#282861"/>
</g>
<defs>
<linearGradient id="paint0_linear_410_1843" x1="219.092" y1="323.215" x2="317.866" y2="494.292" gradientUnits="userSpaceOnUse">
<stop offset="0.01" stop-color="#9CB4DD"/>
<stop offset="1" stop-color="#E6ECF7"/>
</linearGradient>
<linearGradient id="paint1_linear_410_1843" x1="194.743" y1="415.789" x2="442.082" y2="415.789" gradientUnits="userSpaceOnUse">
<stop offset="0.01" stop-color="#9CB4DD"/>
<stop offset="1" stop-color="#E6ECF7"/>
</linearGradient>
<linearGradient id="paint2_linear_410_1843" x1="195.984" y1="398.239" x2="443.32" y2="398.239" gradientUnits="userSpaceOnUse">
<stop offset="0.02" stop-color="white"/>
<stop offset="1" stop-color="#E6ECF7"/>
</linearGradient>
<linearGradient id="paint3_linear_410_1843" x1="215.586" y1="423.023" x2="240.641" y2="423.023" gradientUnits="userSpaceOnUse">
<stop stop-color="white"/>
<stop offset="1" stop-color="#DFEBFC"/>
</linearGradient>
<linearGradient id="paint4_linear_410_1843" x1="230.263" y1="431.707" x2="255.318" y2="431.707" gradientUnits="userSpaceOnUse">
<stop stop-color="white"/>
<stop offset="1" stop-color="#DFEBFC"/>
</linearGradient>
<linearGradient id="paint5_linear_410_1843" x1="244.94" y1="440.392" x2="269.995" y2="440.392" gradientUnits="userSpaceOnUse">
<stop stop-color="white"/>
<stop offset="1" stop-color="#DFEBFC"/>
</linearGradient>
<linearGradient id="paint6_linear_410_1843" x1="259.617" y1="449.077" x2="284.669" y2="449.077" gradientUnits="userSpaceOnUse">
<stop stop-color="white"/>
<stop offset="1" stop-color="#DFEBFC"/>
</linearGradient>
<linearGradient id="paint7_linear_410_1843" x1="230.701" y1="414.338" x2="255.756" y2="414.338" gradientUnits="userSpaceOnUse">
<stop stop-color="white"/>
<stop offset="1" stop-color="#DFEBFC"/>
</linearGradient>
<linearGradient id="paint8_linear_410_1843" x1="245.381" y1="423.023" x2="270.437" y2="423.023" gradientUnits="userSpaceOnUse">
<stop stop-color="white"/>
<stop offset="1" stop-color="#DFEBFC"/>
</linearGradient>
<linearGradient id="paint9_linear_410_1843" x1="260.059" y1="431.707" x2="285.11" y2="431.707" gradientUnits="userSpaceOnUse">
<stop stop-color="white"/>
<stop offset="1" stop-color="#DFEBFC"/>
</linearGradient>
<linearGradient id="paint10_linear_410_1843" x1="274.736" y1="440.392" x2="299.791" y2="440.392" gradientUnits="userSpaceOnUse">
<stop stop-color="white"/>
<stop offset="1" stop-color="#DFEBFC"/>
</linearGradient>
<linearGradient id="paint11_linear_410_1843" x1="245.819" y1="405.654" x2="270.878" y2="405.654" gradientUnits="userSpaceOnUse">
<stop stop-color="white"/>
<stop offset="1" stop-color="#DFEBFC"/>
</linearGradient>
<linearGradient id="paint12_linear_410_1843" x1="260.497" y1="414.338" x2="285.552" y2="414.338" gradientUnits="userSpaceOnUse">
<stop stop-color="white"/>
<stop offset="1" stop-color="#DFEBFC"/>
</linearGradient>
<linearGradient id="paint13_linear_410_1843" x1="275.173" y1="423.023" x2="300.229" y2="423.023" gradientUnits="userSpaceOnUse">
<stop stop-color="white"/>
<stop offset="1" stop-color="#DFEBFC"/>
</linearGradient>
<linearGradient id="paint14_linear_410_1843" x1="289.851" y1="431.707" x2="314.906" y2="431.707" gradientUnits="userSpaceOnUse">
<stop stop-color="white"/>
<stop offset="1" stop-color="#DFEBFC"/>
</linearGradient>
<linearGradient id="paint15_linear_410_1843" x1="260.938" y1="396.969" x2="285.99" y2="396.969" gradientUnits="userSpaceOnUse">
<stop stop-color="white"/>
<stop offset="1" stop-color="#DFEBFC"/>
</linearGradient>
<linearGradient id="paint16_linear_410_1843" x1="275.615" y1="405.654" x2="300.671" y2="405.654" gradientUnits="userSpaceOnUse">
<stop stop-color="white"/>
<stop offset="1" stop-color="#DFEBFC"/>
</linearGradient>
<linearGradient id="paint17_linear_410_1843" x1="290.289" y1="414.338" x2="315.344" y2="414.338" gradientUnits="userSpaceOnUse">
<stop stop-color="white"/>
<stop offset="1" stop-color="#DFEBFC"/>
</linearGradient>
<linearGradient id="paint18_linear_410_1843" x1="276.053" y1="388.284" x2="301.112" y2="388.284" gradientUnits="userSpaceOnUse">
<stop stop-color="white"/>
<stop offset="1" stop-color="#DFEBFC"/>
</linearGradient>
<linearGradient id="paint19_linear_410_1843" x1="290.73" y1="396.969" x2="315.785" y2="396.969" gradientUnits="userSpaceOnUse">
<stop stop-color="white"/>
<stop offset="1" stop-color="#DFEBFC"/>
</linearGradient>
<linearGradient id="paint20_linear_410_1843" x1="305.407" y1="405.654" x2="330.462" y2="405.654" gradientUnits="userSpaceOnUse">
<stop stop-color="white"/>
<stop offset="1" stop-color="#DFEBFC"/>
</linearGradient>
<linearGradient id="paint21_linear_410_1843" x1="291.168" y1="379.6" x2="316.223" y2="379.6" gradientUnits="userSpaceOnUse">
<stop stop-color="white"/>
<stop offset="1" stop-color="#DFEBFC"/>
</linearGradient>
<linearGradient id="paint22_linear_410_1843" x1="305.849" y1="388.284" x2="330.904" y2="388.284" gradientUnits="userSpaceOnUse">
<stop stop-color="white"/>
<stop offset="1" stop-color="#DFEBFC"/>
</linearGradient>
<linearGradient id="paint23_linear_410_1843" x1="320.522" y1="396.969" x2="345.577" y2="396.969" gradientUnits="userSpaceOnUse">
<stop stop-color="white"/>
<stop offset="1" stop-color="#DFEBFC"/>
</linearGradient>
<linearGradient id="paint24_linear_410_1843" x1="306.286" y1="370.915" x2="331.341" y2="370.915" gradientUnits="userSpaceOnUse">
<stop stop-color="white"/>
<stop offset="1" stop-color="#DFEBFC"/>
</linearGradient>
<linearGradient id="paint25_linear_410_1843" x1="320.963" y1="379.6" x2="346.019" y2="379.6" gradientUnits="userSpaceOnUse">
<stop stop-color="white"/>
<stop offset="1" stop-color="#DFEBFC"/>
</linearGradient>
<linearGradient id="paint26_linear_410_1843" x1="335.641" y1="388.284" x2="360.696" y2="388.284" gradientUnits="userSpaceOnUse">
<stop stop-color="white"/>
<stop offset="1" stop-color="#DFEBFC"/>
</linearGradient>
<linearGradient id="paint27_linear_410_1843" x1="321.405" y1="362.23" x2="346.46" y2="362.23" gradientUnits="userSpaceOnUse">
<stop stop-color="white"/>
<stop offset="1" stop-color="#DFEBFC"/>
</linearGradient>
<linearGradient id="paint28_linear_410_1843" x1="336.082" y1="370.915" x2="361.137" y2="370.915" gradientUnits="userSpaceOnUse">
<stop stop-color="white"/>
<stop offset="1" stop-color="#DFEBFC"/>
</linearGradient>
<linearGradient id="paint29_linear_410_1843" x1="350.759" y1="379.6" x2="375.815" y2="379.6" gradientUnits="userSpaceOnUse">
<stop stop-color="white"/>
<stop offset="1" stop-color="#DFEBFC"/>
</linearGradient>
<linearGradient id="paint30_linear_410_1843" x1="365.436" y1="388.284" x2="390.488" y2="388.284" gradientUnits="userSpaceOnUse">
<stop stop-color="white"/>
<stop offset="1" stop-color="#DFEBFC"/>
</linearGradient>
<linearGradient id="paint31_linear_410_1843" x1="336.523" y1="353.546" x2="361.579" y2="353.546" gradientUnits="userSpaceOnUse">
<stop stop-color="white"/>
<stop offset="1" stop-color="#DFEBFC"/>
</linearGradient>
<linearGradient id="paint32_linear_410_1843" x1="351.197" y1="362.23" x2="376.252" y2="362.23" gradientUnits="userSpaceOnUse">
<stop stop-color="white"/>
<stop offset="1" stop-color="#DFEBFC"/>
</linearGradient>
<linearGradient id="paint33_linear_410_1843" x1="365.874" y1="370.915" x2="390.929" y2="370.915" gradientUnits="userSpaceOnUse">
<stop stop-color="white"/>
<stop offset="1" stop-color="#DFEBFC"/>
</linearGradient>
<linearGradient id="paint34_linear_410_1843" x1="380.551" y1="379.6" x2="405.607" y2="379.6" gradientUnits="userSpaceOnUse">
<stop stop-color="white"/>
<stop offset="1" stop-color="#DFEBFC"/>
</linearGradient>
<linearGradient id="paint35_linear_410_1843" x1="351.639" y1="344.857" x2="376.698" y2="344.857" gradientUnits="userSpaceOnUse">
<stop stop-color="white"/>
<stop offset="1" stop-color="#DFEBFC"/>
</linearGradient>
<linearGradient id="paint36_linear_410_1843" x1="366.319" y1="353.546" x2="391.371" y2="353.546" gradientUnits="userSpaceOnUse">
<stop stop-color="white"/>
<stop offset="1" stop-color="#DFEBFC"/>
</linearGradient>
<linearGradient id="paint37_linear_410_1843" x1="380.993" y1="362.23" x2="406.048" y2="362.23" gradientUnits="userSpaceOnUse">
<stop stop-color="white"/>
<stop offset="1" stop-color="#DFEBFC"/>
</linearGradient>
<linearGradient id="paint38_linear_410_1843" x1="395.67" y1="370.915" x2="420.722" y2="370.915" gradientUnits="userSpaceOnUse">
<stop stop-color="white"/>
<stop offset="1" stop-color="#DFEBFC"/>
</linearGradient>
<linearGradient id="paint39_linear_410_1843" x1="304.966" y1="409.992" x2="375.366" y2="409.992" gradientUnits="userSpaceOnUse">
<stop stop-color="white"/>
<stop offset="1" stop-color="#DFEBFC"/>
</linearGradient>
<linearGradient id="paint40_linear_410_1843" x1="84.9181" y1="364.564" x2="263.316" y2="364.564" gradientUnits="userSpaceOnUse">
<stop offset="0.02" stop-color="#434481"/>
<stop offset="0.74" stop-color="#9CB4DD"/>
<stop offset="1" stop-color="#434481"/>
</linearGradient>
<linearGradient id="paint41_linear_410_1843" x1="-14.9773" y1="307.394" x2="376.318" y2="81.4767" gradientUnits="userSpaceOnUse">
<stop stop-color="#434481"/>
<stop offset="0.28" stop-color="#DDE9FA"/>
<stop offset="0.29" stop-color="#D7E4F7"/>
<stop offset="0.35" stop-color="#C1D2ED"/>
<stop offset="0.43" stop-color="#B0C4E6"/>
<stop offset="0.52" stop-color="#A4BBE0"/>
<stop offset="0.65" stop-color="#9DB5DD"/>
<stop offset="1" stop-color="#9CB4DD"/>
</linearGradient>
<linearGradient id="paint42_linear_410_1843" x1="37.9231" y1="198.332" x2="335.062" y2="198.332" gradientUnits="userSpaceOnUse">
<stop offset="0.02" stop-color="white"/>
<stop offset="1" stop-color="#E6ECF7"/>
</linearGradient>
<linearGradient id="paint43_linear_410_1843" x1="42.3271" y1="280.131" x2="330.647" y2="280.131" gradientUnits="userSpaceOnUse">
<stop stop-color="#434481"/>
<stop offset="1" stop-color="#9CB4DD"/>
</linearGradient>
<linearGradient id="paint44_linear_410_1843" x1="300.645" y1="79.0089" x2="195.51" y2="79.0089" gradientUnits="userSpaceOnUse">
<stop stop-color="#F3925F"/>
<stop offset="0.39" stop-color="#F5B87C"/>
<stop offset="0.78" stop-color="#F8DB96"/>
<stop offset="1" stop-color="#F9E8A0"/>
</linearGradient>
<linearGradient id="paint45_linear_410_1843" x1="296.596" y1="126.066" x2="195.452" y2="126.066" gradientUnits="userSpaceOnUse">
<stop stop-color="#994868"/>
<stop offset="0.21" stop-color="#A55266"/>
<stop offset="0.59" stop-color="#C86E63"/>
<stop offset="1" stop-color="#F3925F"/>
</linearGradient>
<linearGradient id="paint46_linear_410_1843" x1="295.85" y1="98.2385" x2="243.293" y2="98.2385" gradientUnits="userSpaceOnUse">
<stop stop-color="#F3925F"/>
<stop offset="0.39" stop-color="#F5B87C"/>
<stop offset="0.78" stop-color="#F8DB96"/>
<stop offset="1" stop-color="#F9E8A0"/>
</linearGradient>
<linearGradient id="paint47_linear_410_1843" x1="291.96" y1="137.71" x2="191.403" y2="137.71" gradientUnits="userSpaceOnUse">
<stop stop-color="#FEA972"/>
<stop offset="1" stop-color="#F3925F"/>
</linearGradient>
<linearGradient id="paint48_linear_410_1843" x1="241.568" y1="81.9832" x2="191.403" y2="81.9832" gradientUnits="userSpaceOnUse">
<stop stop-color="#F3925F"/>
<stop offset="0.39" stop-color="#F5B87C"/>
<stop offset="0.78" stop-color="#F8DB96"/>
<stop offset="1" stop-color="#F9E8A0"/>
</linearGradient>
<linearGradient id="paint49_linear_410_1843" x1="318.872" y1="117.594" x2="273.632" y2="195.955" gradientUnits="userSpaceOnUse">
<stop stop-color="#E0A68C"/>
<stop offset="0.09" stop-color="#D09180"/>
<stop offset="0.19" stop-color="#C48077"/>
<stop offset="0.32" stop-color="#BC7471"/>
<stop offset="0.5" stop-color="#B76D6D"/>
<stop offset="1" stop-color="#B66C6D"/>
</linearGradient>
<linearGradient id="paint50_linear_410_1843" x1="204.552" y1="137.656" x2="99.4172" y2="137.656" gradientUnits="userSpaceOnUse">
<stop stop-color="#F3925F"/>
<stop offset="0.39" stop-color="#F5B87C"/>
<stop offset="0.78" stop-color="#F8DB96"/>
<stop offset="1" stop-color="#F9E8A0"/>
</linearGradient>
<linearGradient id="paint51_linear_410_1843" x1="200.503" y1="184.712" x2="99.363" y2="184.712" gradientUnits="userSpaceOnUse">
<stop stop-color="#994868"/>
<stop offset="0.21" stop-color="#A55266"/>
<stop offset="0.59" stop-color="#C86E63"/>
<stop offset="1" stop-color="#F3925F"/>
</linearGradient>
<linearGradient id="paint52_linear_410_1843" x1="199.758" y1="156.882" x2="147.201" y2="156.882" gradientUnits="userSpaceOnUse">
<stop stop-color="#F3925F"/>
<stop offset="0.39" stop-color="#F5B87C"/>
<stop offset="0.78" stop-color="#F8DB96"/>
<stop offset="1" stop-color="#F9E8A0"/>
</linearGradient>
<linearGradient id="paint53_linear_410_1843" x1="195.868" y1="196.353" x2="95.3103" y2="196.353" gradientUnits="userSpaceOnUse">
<stop stop-color="#FEA972"/>
<stop offset="1" stop-color="#F3925F"/>
</linearGradient>
<linearGradient id="paint54_linear_410_1843" x1="145.475" y1="140.631" x2="95.3105" y2="140.631" gradientUnits="userSpaceOnUse">
<stop stop-color="#F3925F"/>
<stop offset="0.39" stop-color="#F5B87C"/>
<stop offset="0.78" stop-color="#F8DB96"/>
<stop offset="1" stop-color="#F9E8A0"/>
</linearGradient>
<linearGradient id="paint55_linear_410_1843" x1="222.78" y1="176.241" x2="177.54" y2="254.599" gradientUnits="userSpaceOnUse">
<stop stop-color="#E0A68C"/>
<stop offset="0.09" stop-color="#D09180"/>
<stop offset="0.19" stop-color="#C48077"/>
<stop offset="0.32" stop-color="#BC7471"/>
<stop offset="0.5" stop-color="#B76D6D"/>
<stop offset="1" stop-color="#B66C6D"/>
</linearGradient>
<linearGradient id="paint56_linear_410_1843" x1="109.246" y1="201.807" x2="4.10693" y2="201.807" gradientUnits="userSpaceOnUse">
<stop stop-color="#F3925F"/>
<stop offset="0.39" stop-color="#F5B87C"/>
<stop offset="0.78" stop-color="#F8DB96"/>
<stop offset="1" stop-color="#F9E8A0"/>
</linearGradient>
<linearGradient id="paint57_linear_410_1843" x1="105.197" y1="248.867" x2="4.05273" y2="248.867" gradientUnits="userSpaceOnUse">
<stop stop-color="#994868"/>
<stop offset="0.21" stop-color="#A55266"/>
<stop offset="0.59" stop-color="#C86E63"/>
<stop offset="1" stop-color="#F3925F"/>
</linearGradient>
<linearGradient id="paint58_linear_410_1843" x1="104.451" y1="221.036" x2="51.8942" y2="221.036" gradientUnits="userSpaceOnUse">
<stop stop-color="#F3925F"/>
<stop offset="0.39" stop-color="#F5B87C"/>
<stop offset="0.78" stop-color="#F8DB96"/>
<stop offset="1" stop-color="#F9E8A0"/>
</linearGradient>
<linearGradient id="paint59_linear_410_1843" x1="100.557" y1="260.508" x2="-0.000286055" y2="260.508" gradientUnits="userSpaceOnUse">
<stop stop-color="#FEA972"/>
<stop offset="1" stop-color="#F3925F"/>
</linearGradient>
<linearGradient id="paint60_linear_410_1843" x1="50.1684" y1="204.785" x2="0" y2="204.785" gradientUnits="userSpaceOnUse">
<stop stop-color="#F3925F"/>
<stop offset="0.39" stop-color="#F5B87C"/>
<stop offset="0.78" stop-color="#F8DB96"/>
<stop offset="1" stop-color="#F9E8A0"/>
</linearGradient>
<linearGradient id="paint61_linear_410_1843" x1="127.469" y1="240.395" x2="82.229" y2="318.753" gradientUnits="userSpaceOnUse">
<stop stop-color="#E0A68C"/>
<stop offset="0.09" stop-color="#D09180"/>
<stop offset="0.19" stop-color="#C48077"/>
<stop offset="0.32" stop-color="#BC7471"/>
<stop offset="0.5" stop-color="#B76D6D"/>
<stop offset="1" stop-color="#B66C6D"/>
</linearGradient>
<linearGradient id="paint62_linear_410_1843" x1="403.939" y1="139.422" x2="298.8" y2="139.422" gradientUnits="userSpaceOnUse">
<stop stop-color="#B6CBEA"/>
<stop offset="0.05" stop-color="#B8CDEA"/>
<stop offset="0.67" stop-color="#DBE5F5"/>
<stop offset="1" stop-color="#E8EFF9"/>
</linearGradient>
<linearGradient id="paint63_linear_410_1843" x1="399.889" y1="186.482" x2="298.745" y2="186.482" gradientUnits="userSpaceOnUse">
<stop stop-color="#282861"/>
<stop offset="0.13" stop-color="#33346B"/>
<stop offset="0.37" stop-color="#515788"/>
<stop offset="0.69" stop-color="#818EB7"/>
<stop offset="1" stop-color="#B6CBEA"/>
</linearGradient>
<linearGradient id="paint64_linear_410_1843" x1="399.144" y1="158.652" x2="346.587" y2="158.652" gradientUnits="userSpaceOnUse">
<stop stop-color="#B6CBEA"/>
<stop offset="0.05" stop-color="#B8CDEA"/>
<stop offset="0.67" stop-color="#DBE5F5"/>
<stop offset="1" stop-color="#E8EFF9"/>
</linearGradient>
<linearGradient id="paint65_linear_410_1843" x1="395.25" y1="198.123" x2="294.693" y2="198.123" gradientUnits="userSpaceOnUse">
<stop stop-color="#FAFCFF"/>
<stop offset="1" stop-color="#B6CBEA"/>
</linearGradient>
<linearGradient id="paint66_linear_410_1843" x1="344.858" y1="142.4" x2="294.693" y2="142.4" gradientUnits="userSpaceOnUse">
<stop stop-color="#B6CBEA"/>
<stop offset="0.05" stop-color="#B8CDEA"/>
<stop offset="0.67" stop-color="#DBE5F5"/>
<stop offset="1" stop-color="#E8EFF9"/>
</linearGradient>
<linearGradient id="paint67_linear_410_1843" x1="422.162" y1="178.011" x2="376.922" y2="256.368" gradientUnits="userSpaceOnUse">
<stop stop-color="#C1D3ED"/>
<stop offset="0.07" stop-color="#CADAF1"/>
<stop offset="0.22" stop-color="#D6E4F7"/>
<stop offset="0.43" stop-color="#DDE9FB"/>
<stop offset="1" stop-color="#DFEBFC"/>
</linearGradient>
<linearGradient id="paint68_linear_410_1843" x1="307.846" y1="198.068" x2="202.708" y2="198.068" gradientUnits="userSpaceOnUse">
<stop stop-color="#B6CBEA"/>
<stop offset="0.05" stop-color="#B8CDEA"/>
<stop offset="0.67" stop-color="#DBE5F5"/>
<stop offset="1" stop-color="#E8EFF9"/>
</linearGradient>
<linearGradient id="paint69_linear_410_1843" x1="303.797" y1="245.125" x2="202.653" y2="245.125" gradientUnits="userSpaceOnUse">
<stop stop-color="#282861"/>
<stop offset="0.13" stop-color="#33346B"/>
<stop offset="0.37" stop-color="#515788"/>
<stop offset="0.69" stop-color="#818EB7"/>
<stop offset="1" stop-color="#B6CBEA"/>
</linearGradient>
<linearGradient id="paint70_linear_410_1843" x1="303.052" y1="217.298" x2="250.495" y2="217.298" gradientUnits="userSpaceOnUse">
<stop stop-color="#B6CBEA"/>
<stop offset="0.05" stop-color="#B8CDEA"/>
<stop offset="0.67" stop-color="#DBE5F5"/>
<stop offset="1" stop-color="#E8EFF9"/>
</linearGradient>
<linearGradient id="paint71_linear_410_1843" x1="299.158" y1="256.769" x2="198.6" y2="256.769" gradientUnits="userSpaceOnUse">
<stop stop-color="#FAFCFF"/>
<stop offset="1" stop-color="#B6CBEA"/>
</linearGradient>
<linearGradient id="paint72_linear_410_1843" x1="248.769" y1="201.043" x2="198.601" y2="201.043" gradientUnits="userSpaceOnUse">
<stop stop-color="#B6CBEA"/>
<stop offset="0.05" stop-color="#B8CDEA"/>
<stop offset="0.67" stop-color="#DBE5F5"/>
<stop offset="1" stop-color="#E8EFF9"/>
</linearGradient>
<linearGradient id="paint73_linear_410_1843" x1="326.069" y1="236.657" x2="280.829" y2="315.014" gradientUnits="userSpaceOnUse">
<stop stop-color="#C1D3ED"/>
<stop offset="0.07" stop-color="#CADAF1"/>
<stop offset="0.22" stop-color="#D6E4F7"/>
<stop offset="0.43" stop-color="#DDE9FB"/>
<stop offset="1" stop-color="#DFEBFC"/>
</linearGradient>
<linearGradient id="paint74_linear_410_1843" x1="212.536" y1="262.222" x2="107.401" y2="262.222" gradientUnits="userSpaceOnUse">
<stop stop-color="#B6CBEA"/>
<stop offset="0.05" stop-color="#B8CDEA"/>
<stop offset="0.67" stop-color="#DBE5F5"/>
<stop offset="1" stop-color="#E8EFF9"/>
</linearGradient>
<linearGradient id="paint75_linear_410_1843" x1="208.487" y1="309.279" x2="107.343" y2="309.279" gradientUnits="userSpaceOnUse">
<stop stop-color="#282861"/>
<stop offset="0.13" stop-color="#33346B"/>
<stop offset="0.37" stop-color="#515788"/>
<stop offset="0.69" stop-color="#818EB7"/>
<stop offset="1" stop-color="#B6CBEA"/>
</linearGradient>
<linearGradient id="paint76_linear_410_1843" x1="207.741" y1="281.449" x2="155.184" y2="281.449" gradientUnits="userSpaceOnUse">
<stop stop-color="#B6CBEA"/>
<stop offset="0.05" stop-color="#B8CDEA"/>
<stop offset="0.67" stop-color="#DBE5F5"/>
<stop offset="1" stop-color="#E8EFF9"/>
</linearGradient>
<linearGradient id="paint77_linear_410_1843" x1="203.851" y1="320.92" x2="103.293" y2="320.92" gradientUnits="userSpaceOnUse">
<stop stop-color="#FAFCFF"/>
<stop offset="1" stop-color="#B6CBEA"/>
</linearGradient>
<linearGradient id="paint78_linear_410_1843" x1="153.458" y1="265.197" x2="103.294" y2="265.197" gradientUnits="userSpaceOnUse">
<stop stop-color="#B6CBEA"/>
<stop offset="0.05" stop-color="#B8CDEA"/>
<stop offset="0.67" stop-color="#DBE5F5"/>
<stop offset="1" stop-color="#E8EFF9"/>
</linearGradient>
<linearGradient id="paint79_linear_410_1843" x1="230.763" y1="300.808" x2="185.523" y2="379.165" gradientUnits="userSpaceOnUse">
<stop stop-color="#C1D3ED"/>
<stop offset="0.07" stop-color="#CADAF1"/>
<stop offset="0.22" stop-color="#D6E4F7"/>
<stop offset="0.43" stop-color="#DDE9FB"/>
<stop offset="1" stop-color="#DFEBFC"/>
</linearGradient>
<clipPath id="clip0_410_1843">
<rect width="491.089" height="550" fill="white"/>
</clipPath>
</defs>
</svg>
