<svg width="181" height="70" viewBox="0 0 181 70" fill="none" xmlns="http://www.w3.org/2000/svg">
<g clip-path="url(#clip0_621_1706)">
<path d="M89.8223 35.565H116.333V38.5714H89.8223V35.565ZM91.6346 40.6041H114.2V50.5899H110.611V43.6105H91.6346V40.6041ZM91.9616 33.6247V22.1819H114.172V25.1244H95.4513V26.6098H114.172V29.2964H95.4513V30.8173H114.236V33.6318H91.9616V33.6247Z" fill="#575756"/>
<path d="M140.696 25.5579V28.6283H122.431V25.5579H129.765V22.1606H133.682V25.5579H140.696ZM139.211 37.548C139.211 38.543 139.012 39.4598 138.614 40.2985C138.216 41.1372 137.683 41.8976 137.015 42.5586C136.347 43.2054 135.558 43.7171 134.634 44.0938C133.717 44.4705 132.75 44.6553 131.741 44.6553C130.732 44.6553 129.758 44.4634 128.849 44.0938C127.932 43.7171 127.143 43.2054 126.475 42.5586C125.785 41.8905 125.238 41.1372 124.84 40.2985C124.442 39.4598 124.243 38.543 124.243 37.548C124.243 36.5529 124.442 35.6716 124.84 34.8188C125.238 33.9659 125.785 33.2054 126.475 32.5373C127.143 31.8905 127.932 31.3788 128.849 31.0021C129.765 30.6254 130.725 30.4335 131.741 30.4335C132.758 30.4335 133.717 30.6254 134.634 31.0021C135.551 31.3788 136.34 31.8905 137.015 32.5373C137.683 33.2054 138.216 33.9659 138.614 34.8188C139.012 35.6716 139.211 36.5814 139.211 37.548ZM135.814 37.548C135.814 36.4321 135.416 35.4726 134.62 34.6908C133.817 33.9019 132.857 33.511 131.741 33.511C130.625 33.511 129.659 33.9019 128.863 34.6908C128.067 35.4726 127.662 36.4321 127.662 37.548C127.662 38.6638 128.06 39.6517 128.863 40.4264C129.659 41.2011 130.618 41.592 131.741 41.592C132.864 41.592 133.817 41.2011 134.62 40.4264C135.416 39.6517 135.814 38.6922 135.814 37.548ZM144.449 21.7057H148.038V50.5402H144.449V37.0291H140.76V33.6674H144.449V21.7129V21.7057Z" fill="#575756"/>
<path d="M155.358 27.1144V24.108H162.117V21.3575H165.934V24.108H172.366V27.1144H165.351L172.622 34.4847L170.298 36.6809L164.029 30.1492L157.825 37.1997L155.437 34.968L162.743 27.1144H155.373H155.358ZM178.379 44.4136C178.379 45.3873 178.18 46.2971 177.782 47.1499C177.384 47.9957 176.851 48.7491 176.183 49.3959C175.515 50.0426 174.726 50.5544 173.809 50.931C172.892 51.3077 171.918 51.4925 170.881 51.4925C169.843 51.4925 168.898 51.3006 167.974 50.931C167.043 50.5544 166.254 50.0426 165.579 49.3959C164.911 48.7491 164.378 48.0028 163.98 47.1499C163.582 46.2971 163.383 45.3873 163.383 44.4136C163.383 43.4399 163.582 42.5302 163.98 41.6844C164.378 40.8315 164.911 40.0853 165.579 39.4385C166.247 38.7917 167.043 38.28 167.974 37.9033C168.905 37.5266 169.872 37.3418 170.881 37.3418C171.89 37.3418 172.892 37.5266 173.809 37.9033C174.726 38.28 175.515 38.7917 176.183 39.4385C176.851 40.0853 177.384 40.8315 177.782 41.6844C178.18 42.5302 178.379 43.447 178.379 44.4136ZM174.854 44.3852C174.854 43.312 174.463 42.3809 173.674 41.6062C172.885 40.8315 171.94 40.4406 170.845 40.4406C169.751 40.4406 168.841 40.8315 168.066 41.6062C167.292 42.3809 166.901 43.312 166.901 44.3852C166.901 45.4584 167.292 46.4179 168.066 47.1784C168.841 47.9389 169.772 48.3227 170.845 48.3227C171.918 48.3227 172.885 47.9389 173.674 47.1784C174.456 46.4108 174.854 45.4797 174.854 44.3852ZM177.249 37.0789V31.5849H172.203V28.5146H177.249V21.7271H180.838V37.0789H177.249Z" fill="#575756"/>
<path d="M54.0441 33.4044C47.9673 29.2751 40.1777 30.9595 36.091 37.1713C32.6724 42.3596 27.5195 43.0064 25.5224 43.0064C19.0192 43.0064 14.57 38.4293 13.248 33.6958C13.2338 33.6461 13.2267 33.6105 13.2125 33.5679C13.1983 33.511 13.1841 33.4613 13.1699 33.4044C12.651 31.4286 12.5231 30.4833 12.5231 28.3866C12.5231 17.0647 24.1365 4.45629 40.8671 4.45629C57.5977 4.45629 67.7967 17.4982 70.3269 24.7477C70.2843 24.6198 70.2417 24.4918 70.199 24.3639C65.3376 10.1919 51.8977 0 36.0697 0C16.1549 0 0 16.1478 0 36.0697C0 53.8806 12.8429 69.1187 30.661 69.1187C44.8685 69.1187 54.4208 61.1514 58.7989 50.1706C61.2011 44.1649 59.4954 37.1073 54.0441 33.3973V33.4044Z" fill="#003863"/>
<path d="M70.5544 25.4584C68.4507 18.3867 58.5715 4.46341 40.8743 4.46341C24.1436 4.46341 12.5303 17.0718 12.5303 28.3938C12.5303 30.4904 12.6582 31.4357 13.177 33.4115C12.9638 32.5444 12.843 31.6773 12.843 30.8387C12.843 19.0476 24.6483 10.8813 36.7805 10.8813C53.2055 10.8813 66.5246 24.2004 66.5246 40.6255C66.5246 53.5039 59.1188 64.6482 48.3441 70C62.2247 64.9822 72.1323 51.6916 72.1323 36.0768C72.1323 32.381 71.6348 29.1258 70.5473 25.4584H70.5544Z" fill="#E4032E"/>
</g>
<defs>
<clipPath id="clip0_621_1706">
<rect width="180.832" height="70" fill="white"/>
</clipPath>
</defs>
</svg>
