<svg width="233" height="82" viewBox="0 0 233 82" fill="none" xmlns="http://www.w3.org/2000/svg">
<g clip-path="url(#clip0_621_1676)">
<path d="M111.87 72.27C109.56 72.96 107.84 73 106.59 73C102.95 73 98.75 70.84 98.75 64.76C98.75 58.68 102.37 56.38 107.37 56.38C108.27 56.38 110.17 56.5 111.5 57.1L111.21 60.6C110.08 59.82 108.74 59.57 107.88 59.57C104.93 59.57 102.5 61.02 102.5 64.77C102.5 67.92 104.4 69.83 107.06 69.83C107.55 69.83 108.02 69.74 108.35 69.55V66.37H106.22V63.33H111.87V72.26V72.27Z" fill="#231F20"/>
<path d="M118.27 66.68L113.22 56.67H117.41L120.09 63.11L122.73 56.67H126.92L121.91 66.68V72.73H118.27V66.68Z" fill="#231F20"/>
<path d="M128.12 56.67H137.74V59.71H131.76V63.02H137.41V66.06H131.76V69.7H137.96V72.74H128.12V56.68V56.67Z" fill="#231F20"/>
<path d="M143.21 64.7C143.21 61.92 144.09 59.57 146.3 59.57C148.51 59.57 149.39 61.92 149.39 64.7C149.39 67.48 148.51 69.83 146.3 69.83C144.09 69.83 143.21 67.34 143.21 64.7ZM139.46 64.7C139.46 69.81 141.85 73.01 146.31 73.01C150.77 73.01 153.15 69.81 153.15 64.7C153.15 59.59 150.8 56.39 146.31 56.39C141.82 56.39 139.46 59.54 139.46 64.7Z" fill="#231F20"/>
<path d="M155.04 56.67H159.68L164.29 67.58H164.33L164.27 56.67H167.6V72.73H163.08L158.31 61.75H158.27L158.39 72.73H155.05V56.67H155.04Z" fill="#231F20"/>
<path d="M182.62 72.27C180.31 72.96 178.59 73 177.34 73C173.7 73 169.5 70.84 169.5 64.76C169.5 58.68 173.12 56.38 178.12 56.38C179.02 56.38 180.92 56.5 182.24 57.1L181.95 60.6C180.82 59.82 179.49 59.57 178.62 59.57C175.67 59.57 173.24 61.02 173.24 64.77C173.24 67.92 175.14 69.83 177.8 69.83C178.29 69.83 178.76 69.74 179.09 69.55V66.37H176.96V63.33H182.61V72.26L182.62 72.27Z" fill="#231F20"/>
<path d="M185.08 56.67H189.71L194.33 67.58H194.37L194.31 56.67H197.63V72.73H193.11L188.34 61.75H188.3L188.42 72.73H185.08V56.67Z" fill="#231F20"/>
<path d="M207.96 66.27H204.54L206.3 59.99H206.34L207.96 66.27ZM198.92 72.74H202.61L203.69 69.31H208.81L209.83 72.74H213.82L208.56 56.68H204.1L198.92 72.74Z" fill="#231F20"/>
<path d="M214.97 56.67H220.7L223.59 67.34H223.63L226.66 56.67H232.17V72.73H228.61L228.67 60.4H228.63L225.15 72.73H221.8L218.48 60.4H218.44L218.52 72.73H214.96V56.67H214.97Z" fill="#231F20"/>
<path d="M188.49 24.72H176.35V13.36H171.47V28.57H188.49V24.72Z" fill="#231F20"/>
<path d="M121.24 30.93H126.14V12.87H121.24V16.35H115.99V20.2H121.24V22.73H115.99V26.59H121.24V30.93Z" fill="#231F20"/>
<path d="M221.75 41.27V31.96H230V28.11H212.39V17.86H230V14.02H207.5V31.96H216.86V41.27H205.13V45.13H232.37V41.27H221.75Z" fill="#231F20"/>
<path d="M196.26 12.87H191.38V30.39H196.26V22.23H200.54V18.38H196.26V12.87Z" fill="#231F20"/>
<path d="M176.95 32.54V46.63H196.26V32.54H176.95ZM181.84 42.78V36.39H191.37V42.78H181.84Z" fill="#231F20"/>
<path d="M115.8 30.47C110.37 30.47 105.97 34.46 105.97 39.37C105.97 44.28 110.37 48.27 115.8 48.27C121.23 48.27 125.63 44.29 125.63 39.37C125.63 34.45 121.23 30.47 115.8 30.47ZM115.8 44.14C113.17 44.14 111.04 42.01 111.04 39.37C111.04 36.73 113.17 34.6 115.8 34.6C118.43 34.6 120.55 36.74 120.55 39.37C120.55 42 118.42 44.14 115.8 44.14Z" fill="#231F20"/>
<path d="M150 30.47C144.58 30.47 140.18 34.46 140.18 39.37C140.18 44.28 144.58 48.27 150 48.27C155.42 48.27 159.82 44.29 159.82 39.37C159.82 34.45 155.42 30.47 150 30.47ZM150 44.14C147.37 44.14 145.25 42.01 145.25 39.37C145.25 36.73 147.38 34.6 150 34.6C152.62 34.6 154.75 36.74 154.75 39.37C154.75 42 152.62 44.14 150 44.14Z" fill="#231F20"/>
<path d="M113.65 21.41C113.65 21.41 114.95 17.99 114.87 13.78H98.7501V17.72H108.99C108.99 17.72 109.35 25.57 98.1001 27.22L100.05 30.61C103.62 30.31 110.8 28.5 113.65 21.41Z" fill="#231F20"/>
<path d="M150.69 29.6L152.68 26.31C145.04 23.77 145.08 16.1 145.08 15.29V13.53H139.08V15.33C139.08 16.04 139.37 24.31 131.58 27.25L133.68 30.41C133.68 30.41 139.12 28.86 142.25 23.47C144.97 28.24 150.7 29.61 150.7 29.61L150.69 29.6Z" fill="#231F20"/>
<path d="M160.49 12.87H155.6V30.92H160.49V22.23H164.76V18.38H160.49V12.87Z" fill="#231F20"/>
<path d="M41.58 4.74416e-06C27.25 -0.269995 14.51 6.88 7.02002 17.92C7.16002 18.08 7.28002 18.23 7.39002 18.37C7.47002 18.46 7.54002 18.56 7.61002 18.63C7.65002 18.63 7.69002 18.64 7.72002 18.65C8.25002 18.75 9.05002 18.89 9.74002 19.51C10.17 19.9 10.45 20.34 10.67 20.68C10.76 20.83 10.9 21.03 10.96 21.09C11.08 21.2 11.26 21.34 11.45 21.49C11.76 21.72 12.11 21.99 12.45 22.34C12.74 22.63 13 22.92 13.25 23.21C13.42 23.42 13.59 23.61 13.76 23.79C13.89 23.93 14.07 24.09 14.26 24.26C14.54 24.51 14.86 24.8 15.16 25.15C15.55 25.59 15.78 26.05 15.95 26.42C16.02 26.56 16.13 26.76 16.17 26.83C16.45 27.15 16.71 27.49 16.96 27.81L17.36 28.31C17.43 28.4 17.6 28.54 17.76 28.67C18.06 28.93 18.44 29.25 18.77 29.69C19.02 30.02 19.23 30.34 19.43 30.65C19.58 30.88 19.72 31.09 19.85 31.28C20.17 31.72 20.36 32.16 20.53 32.53C20.62 32.73 20.7 32.93 20.78 33.03C20.85 33.13 21 33.28 21.16 33.44C21.42 33.71 21.75 34.04 22.03 34.47C22.33 34.92 22.51 35.38 22.65 35.74C22.7 35.88 22.76 36.03 22.81 36.14C22.86 36.18 22.93 36.22 22.99 36.26C23.36 36.51 23.93 36.89 24.33 37.54C24.55 37.9 24.7 38.27 24.82 38.58L25.6 39.11C26.87 39.97 27.41 39.52 26.79 38.12L19.61 21.76C19 20.35 19.25 20.21 20.17 21.43L30.87 35.59C31.8 36.81 32.44 36.57 32.31 35.04L30.81 17.28C30.68 15.75 30.97 15.69 31.46 17.15L36.64 33.92C37.13 35.38 37.77 35.34 38.07 33.83L40.97 16.54C41.27 15.03 41.57 15.06 41.64 16.59L42.38 34.27C42.45 35.8 43.12 35.97 43.89 34.64L52.73 19.34C53.5 18.01 53.77 18.13 53.33 19.6L48.33 36.49C47.89 37.96 48.49 38.34 49.64 37.33L62.9 25.82C64.05 24.81 64.28 25.02 63.39 26.26L55.76 36.96C56.15 36.95 56.54 36.93 56.84 36.77C57.46 36.44 57.82 35.59 58.46 35.27C59.1 34.96 59.94 35.07 60.59 34.79C61.24 34.5 61.69 33.74 62.34 33.47C62.99 33.21 63.68 33.02 64.33 32.78C65.05 32.52 65.72 32.1 66.42 31.87C67.13 31.63 67.89 31.53 68.59 31.31C69.29 31.09 70.14 31.4 70.82 31.2C71.57 30.99 72.14 30.19 72.86 30.01C73.59 29.82 74.37 29.93 75.06 29.77C75.81 29.59 76.57 29.62 77.27 29.47C78.03 29.31 78.69 28.91 79.38 28.78C79.51 28.75 79.65 28.74 79.79 28.74C74.71 12.4 59.64 0.360005 41.58 4.74416e-06Z" fill="#F15A38"/>
<path d="M35.4001 79C35.4001 79 35.4201 78.92 35.4301 78.88C35.4001 78.83 35.3701 78.76 35.3301 78.71C35.1401 78.37 34.8701 77.89 34.7401 77.29C34.6901 77.06 34.6201 76.8 34.5301 76.52C34.4301 76.21 34.3301 75.87 34.2401 75.5C34.1301 75.02 34.1201 74.57 34.1001 74.21C34.1001 73.99 34.0801 73.76 34.0601 73.65C33.9701 73.27 33.9101 72.91 33.8701 72.58C33.8301 72.31 33.8001 72.05 33.7401 71.84C33.7001 71.66 33.6001 71.44 33.5101 71.2C33.3901 70.89 33.2401 70.53 33.1301 70.12L33.0201 69.73L32.6701 68.39C32.6101 68.18 32.5201 67.93 32.4201 67.68C32.3101 67.39 32.1901 67.06 32.0901 66.71C31.9101 66.09 31.9301 65.51 31.9501 65.09C31.9501 64.96 31.9501 64.82 31.9501 64.74C31.8701 64.5 31.7801 64.24 31.6701 63.97C31.5601 63.68 31.4501 63.39 31.3401 63.07C31.3101 63.01 31.2101 62.87 31.1301 62.76C30.8901 62.44 30.5701 61.99 30.3701 61.41C30.3201 61.25 30.2101 61.03 30.0901 60.8C29.9401 60.5 29.7601 60.15 29.6201 59.75C29.5101 59.44 29.3901 59.13 29.2601 58.8L28.9801 58.07C28.7201 57.37 28.7701 56.7 28.8001 56.27C28.8001 56.21 28.8101 56.14 28.8101 56.08C28.7401 55.93 28.6501 55.76 28.5401 55.57C28.3801 55.27 28.1801 54.92 28.0201 54.53C27.9801 54.42 27.8501 54.24 27.7301 54.05C27.5301 53.75 27.2801 53.38 27.0801 52.92C26.9201 52.54 26.8101 52.18 26.7101 51.86C26.6301 51.61 26.5601 51.37 26.4901 51.2C26.3601 50.9 26.2501 50.61 26.1301 50.33C26.0101 50.05 25.9101 49.78 25.7901 49.54L25.4501 48.8C25.3001 48.46 25.1601 48.14 25.0101 47.84C24.9601 47.73 24.8101 47.54 24.6801 47.36C24.4601 47.08 24.1901 46.73 23.9701 46.29C23.7301 45.81 23.6101 45.35 23.5101 44.98C23.4801 44.86 23.4401 44.71 23.4101 44.62C23.3501 44.57 23.2801 44.51 23.2201 44.46C22.8801 44.19 22.4101 43.81 22.0801 43.21C21.7501 42.63 21.6601 42.04 21.5801 41.62C21.5601 41.51 21.5401 41.36 21.5201 41.29C21.3001 40.91 21.1601 40.53 21.0401 40.22C20.9801 40.06 20.9201 39.9 20.8601 39.78C20.8001 39.74 20.7301 39.69 20.6701 39.65C20.2901 39.4 19.7701 39.05 19.3801 38.44C19.1001 38.01 18.9301 37.57 18.8001 37.22C18.7301 37.04 18.6501 36.82 18.5901 36.75C18.5101 36.63 18.3501 36.47 18.1901 36.3C17.9401 36.04 17.6501 35.75 17.3901 35.37C17.1001 34.94 16.9101 34.52 16.7501 34.18C16.6701 34 16.5701 33.78 16.5201 33.7C16.3101 33.41 16.1201 33.12 15.9601 32.87C15.8001 32.62 15.6401 32.38 15.4901 32.19C15.4201 32.09 15.2401 31.94 15.0601 31.79C14.7901 31.55 14.4501 31.26 14.1401 30.88L13.7201 30.35C13.4701 30.04 13.2401 29.75 13.0101 29.47C12.6401 29.03 12.4201 28.59 12.2501 28.23C12.1801 28.1 12.1001 27.92 12.0501 27.87C11.8901 27.69 11.6901 27.51 11.4701 27.32C11.2401 27.11 10.9801 26.87 10.7201 26.6C10.5001 26.36 10.3001 26.14 10.1101 25.91C9.89015 25.66 9.69015 25.42 9.50015 25.23C9.36015 25.09 9.15015 24.93 8.93015 24.76C8.67015 24.56 8.38015 24.34 8.09015 24.07C7.68015 23.67 7.41015 23.25 7.19015 22.92C7.15015 22.85 7.10015 22.78 7.06015 22.71C7.02015 22.71 6.98015 22.7 6.94015 22.69C6.45015 22.6 5.71015 22.47 5.09015 21.93C4.97015 21.83 4.86015 21.73 4.76015 21.63C1.87015 27.09 0.140146 33.34 0.00014569 40C-0.409854 60.96 15.0701 78.52 35.3601 81.22C35.3201 81.08 35.2801 80.94 35.2601 80.79C35.1301 80.06 35.2801 79.43 35.3901 79H35.4001Z" fill="#00AC6C"/>
<path d="M31.8102 52.99C31.8802 53.16 31.9902 53.36 32.1102 53.59C32.2902 53.92 32.5002 54.29 32.6802 54.73C32.9502 55.44 32.9002 56.11 32.8702 56.56C32.8702 56.63 32.8602 56.72 32.8602 56.78L33.0702 57.32C33.2002 57.66 33.3402 58.01 33.4702 58.38C33.5302 58.53 33.6302 58.74 33.7402 58.96C33.9002 59.29 34.0902 59.66 34.2402 60.1C34.2302 60.07 34.2202 60.06 34.2202 60.06C34.2502 60.11 34.3602 60.26 34.4302 60.37C34.6802 60.71 35.0102 61.17 35.2102 61.78C35.2802 62 35.3802 62.24 35.4702 62.5C35.6002 62.84 35.7402 63.19 35.8602 63.58C36.0502 64.21 36.0302 64.8 36.0202 65.24C36.0102 65.36 36.0102 65.52 36.0102 65.6C36.0702 65.79 36.1502 66 36.2302 66.23C36.3502 66.55 36.4902 66.91 36.6002 67.3L36.9702 68.69L37.0702 69.09C37.1102 69.25 37.1902 69.46 37.2902 69.69C37.4202 70.03 37.5802 70.41 37.6902 70.86C37.7902 71.26 37.8402 71.65 37.9002 71.99C37.9402 72.25 37.9702 72.51 38.0202 72.71C38.1302 73.2 38.1502 73.66 38.1702 74.04C38.1702 74.26 38.1902 74.48 38.2202 74.61C38.2702 74.83 38.3402 75.07 38.4202 75.32C38.5202 75.64 38.6302 76 38.7102 76.39C38.7302 76.45 38.8102 76.58 38.8602 76.68C39.0602 77.03 39.3402 77.52 39.4702 78.15C39.6202 78.88 39.4602 79.53 39.3502 79.96C39.3302 80.02 39.3202 80.09 39.3002 80.16C39.3402 80.29 39.3802 80.45 39.4402 80.62C39.5402 80.9 39.6302 81.21 39.7102 81.56C39.8102 81.56 39.9002 81.57 40.0002 81.57C52.0602 81.81 63.0002 76.78 70.6202 68.61C56.4602 57.73 39.0802 53.92 31.7002 52.73C31.7402 52.82 31.7802 52.9 31.8202 52.99H31.8102Z" fill="#005BAA"/>
<path d="M81.3503 41.6C81.4104 38.5 81.1104 35.48 80.5104 32.57C80.2604 32.61 80.0004 32.65 79.7504 32.7C79.0504 32.83 78.4303 33.28 77.7703 33.41C77.0903 33.55 76.4403 33.76 75.7803 33.91C75.0604 34.08 74.3304 34.1 73.6404 34.28C72.9403 34.46 72.1903 34.4 71.5203 34.59C70.8403 34.79 70.2703 35.32 69.6303 35.52C68.9203 35.75 68.1704 35.8 67.5004 36.04C66.8104 36.28 66.0403 36.25 65.3904 36.5C64.7404 36.76 64.2004 37.29 63.5904 37.55C62.9104 37.84 62.1604 37.92 61.5404 38.22C60.8504 38.55 60.3404 39.17 59.7204 39.51C59.0704 39.85 58.4304 40.13 57.8404 40.47C57.2004 40.84 56.5004 41.08 55.9304 41.44C55.3004 41.84 54.8604 42.46 54.3204 42.85C53.6904 43.3 53.2203 43.87 52.6903 44.29C52.0803 44.78 51.3403 45.01 50.8703 45.45C50.3903 45.88 49.8704 46.19 49.4704 46.51L48.5604 47.98C48.3704 48.67 48.3704 49.18 48.0804 48.75L46.1104 51.91C54.3704 54.44 64.2704 58.61 73.0704 65.46C78.1203 58.82 81.2004 50.57 81.3704 41.59L81.3503 41.6Z" fill="#FAA61A"/>
</g>
<defs>
<clipPath id="clip0_621_1676">
<rect width="232.37" height="81.58" fill="white"/>
</clipPath>
</defs>
</svg>
