<svg width="221" height="50" viewBox="0 0 221 50" fill="none" xmlns="http://www.w3.org/2000/svg">
<path d="M24.4529 11.5561L3.49316 25L24.4529 38.4615V30.4517L16.2313 25L24.4529 19.566V11.5561Z" fill="#3B58A1"/>
<path d="M25.5645 38.4615L46.5242 25L25.5645 11.5561V19.566L33.786 25L25.5645 30.4517V38.4615Z" fill="#3B58A1"/>
<path d="M25 0C11.2032 0 0 11.2032 0 25C0 38.7968 11.2032 50 25 50C38.7968 50 50 38.7968 50 25C50 11.2032 38.8144 0 25 0ZM42.8193 29.1284C42.8193 29.1284 40.7198 45.1482 25 46.8066C25 46.8066 16.5138 47.8652 9.98589 42.2548L13.8673 37.7205C13.8673 37.7205 9.63303 32.8864 8.76852 29.8694L1.41143 25L7.19831 20.8716C7.19831 20.8716 9.28017 4.8518 25 3.21101C25 3.21101 33.4862 2.15243 40.0141 7.76288L36.1327 12.2971C36.1327 12.2971 40.367 17.1313 41.2315 20.1482L48.5886 25.0176L42.8017 29.1461L42.8193 29.1284Z" fill="#3B58A1"/>
<path d="M74.287 13.42V34.18H78.277V13.42H74.287ZM77.137 21.88V25.15H81.967V21.88H77.137ZM56.407 16.3V19.42H72.757V16.3H56.407ZM64.597 20.41C60.577 20.41 57.757 22.6 57.757 25.78C57.757 28.96 60.577 31.12 64.597 31.12C68.587 31.12 71.407 28.96 71.407 25.78C71.407 22.6 68.587 20.41 64.597 20.41ZM64.597 23.44C66.367 23.44 67.597 24.28 67.597 25.78C67.597 27.28 66.367 28.09 64.597 28.09C62.827 28.09 61.597 27.28 61.597 25.78C61.597 24.28 62.827 23.44 64.597 23.44ZM62.587 13.36V17.83H66.577V13.36H62.587ZM60.367 37.51V40.69H79.267V37.51H60.367ZM60.367 32.62V38.89H64.357V32.62H60.367ZM87.0947 14.56V17.74H104.705V14.56H87.0947ZM84.0347 24.16V27.34H109.175V24.16H84.0347ZM94.5647 26.41V32.23H98.5547V26.41H94.5647ZM102.305 14.56V16.78C102.305 19.12 102.305 21.67 101.435 25.24L105.365 25.63C106.235 21.97 106.235 19.18 106.235 16.78V14.56H102.305ZM86.5547 31.24V34.39H102.275V41.17H106.265V31.24H86.5547ZM122.552 22.72V25.96H127.142V22.72H122.552ZM116.612 15.79V20.47C116.612 25.18 115.172 30.13 111.092 32.65L113.492 35.65C117.932 32.92 119.672 26.77 119.672 20.47V15.79H116.612ZM117.482 15.79V20.29C117.482 26.29 118.862 32.29 123.272 35.02L125.432 31.9C121.652 29.44 120.482 24.82 120.482 20.29V15.79H117.482ZM131.672 13.39V41.17H135.482V13.39H131.672ZM126.032 13.81V39.91H129.752V13.81H126.032ZM139.2 28.93V32.11H164.37V28.93H139.2ZM149.7 30.97V41.17H153.66V30.97H149.7ZM142.11 14.74V25.96H161.37V14.74H142.11ZM157.44 17.89V22.81H146.04V17.89H157.44ZM173.038 15.52V19.57C173.038 24.73 170.908 30.07 166.228 32.26L168.628 35.47C173.878 32.89 176.278 26.44 176.278 19.57V15.52H173.038ZM173.848 15.52V19.57C173.848 26.23 176.038 32.41 181.048 34.96L183.448 31.78C179.008 29.62 177.028 24.55 177.028 19.57V15.52H173.848ZM184.558 13.39V41.17H188.578V13.39H184.558ZM187.678 24.07V27.4H192.598V24.07H187.678ZM201.445 30.28V34.78H205.435V30.28H201.445ZM213.595 13.39V41.17H217.585V13.39H213.595ZM195.025 36.55C199.945 36.55 206.395 36.52 212.425 35.41L212.155 32.53C206.305 33.31 199.585 33.31 194.545 33.34L195.025 36.55ZM195.085 16.45V19.57H211.795V16.45H195.085ZM203.425 20.68C199.375 20.68 196.525 22.78 196.525 25.87C196.525 28.99 199.375 31.09 203.425 31.09C207.535 31.09 210.385 28.99 210.385 25.87C210.385 22.78 207.535 20.68 203.425 20.68ZM203.425 23.68C205.285 23.68 206.575 24.46 206.575 25.87C206.575 27.31 205.285 28.09 203.425 28.09C201.625 28.09 200.335 27.31 200.335 25.87C200.335 24.46 201.625 23.68 203.425 23.68ZM201.445 13.51V18.25H205.435V13.51H201.445Z" fill="black"/>
</svg>
