<svg width="58" height="90" viewBox="0 0 58 90" fill="none" xmlns="http://www.w3.org/2000/svg">
<g clip-path="url(#clip0_424_1303)">
<path d="M37.6369 48.9901L22.8321 40.432C22.3636 40.1665 21.614 40.1665 21.1455 40.432L6.43442 48.9901C5.96591 49.2556 5.98153 49.6928 6.43442 49.9583L21.2392 58.5164C21.7077 58.7818 22.4573 58.7818 22.9258 58.5164L37.6369 49.9583C38.1054 49.6928 38.1054 49.2556 37.6369 48.9901Z" fill="white"/>
<path d="M37.4338 49.0213L22.629 40.4633C22.1605 40.1978 21.4109 40.1978 20.9424 40.4633L6.23129 49.0213C5.76278 49.2868 5.7784 49.7241 6.23129 49.9896L21.0361 58.5476C21.5046 58.8131 22.2542 58.8131 22.7227 58.5476L37.4338 49.9896C37.9023 49.7241 37.9023 49.3024 37.4338 49.0213Z" fill="#FEFDFD"/>
<path d="M57.5169 43.3368C57.5169 43.3992 57.5169 43.4461 57.5012 43.5085C57.5012 43.5554 57.4856 43.6022 57.4856 43.6647C57.47 43.7272 57.47 43.774 57.4544 43.8365C57.4388 43.8834 57.4388 43.9302 57.4232 43.9927C57.4075 44.0551 57.3919 44.102 57.3763 44.1645C57.3607 44.2113 57.3451 44.2582 57.3295 44.3206C57.3138 44.3831 57.2982 44.4299 57.2826 44.4924C57.267 44.5393 57.2514 44.5861 57.2201 44.633C57.2045 44.6954 57.1733 44.7423 57.1421 44.8047C57.1264 44.8516 57.0952 44.8984 57.0796 44.9453C57.0484 45.0078 57.0171 45.0546 56.9859 45.1171C56.9547 45.1639 56.939 45.2108 56.9078 45.2576C56.861 45.3201 56.8297 45.3982 56.7829 45.4607C56.7516 45.5075 56.736 45.5387 56.7048 45.5856C56.6579 45.6637 56.5955 45.7261 56.5486 45.8042C56.5174 45.8355 56.5018 45.8667 56.4705 45.9135C56.4549 45.9292 56.4393 45.9448 56.4393 45.9604C56.3768 46.0385 56.3144 46.1009 56.2519 46.179C56.2363 46.1946 56.2207 46.2259 56.205 46.2415C56.127 46.3196 56.0489 46.4133 55.9708 46.4914C55.9552 46.507 55.9396 46.5226 55.9239 46.5382C55.8615 46.6007 55.799 46.6632 55.7209 46.7256C55.6741 46.7725 55.6116 46.8193 55.5648 46.8662C55.5179 46.913 55.4554 46.9599 55.4086 46.9911C55.3461 47.038 55.2837 47.0848 55.2368 47.1317C55.1743 47.1785 55.1275 47.2097 55.065 47.2566C55.0025 47.3034 54.9401 47.3503 54.8776 47.3971C54.8151 47.444 54.7527 47.4752 54.6902 47.5221C54.6277 47.5689 54.5497 47.6158 54.4872 47.647C54.3935 47.6939 54.3154 47.7563 54.2217 47.8032C54.0499 47.8969 53.8781 47.9906 53.6907 48.0843C53.6439 48.1155 53.5814 48.1311 53.5346 48.1624C53.394 48.2248 53.2535 48.3029 53.1129 48.3654C53.0661 48.381 53.0192 48.4122 52.9724 48.4279C52.785 48.5059 52.5975 48.584 52.4101 48.6621C52.3789 48.6777 52.3477 48.6933 52.3008 48.6933C52.1447 48.7558 51.9729 48.8183 51.8011 48.8651C51.7386 48.8807 51.6605 48.912 51.5981 48.9276C51.5044 48.9588 51.4107 48.9901 51.317 49.0057C51.2389 49.0213 51.1608 49.0525 51.0827 49.0682C50.989 49.0994 50.8953 49.115 50.8016 49.1462C50.7235 49.1619 50.6454 49.1931 50.5674 49.2087C50.4737 49.2243 50.38 49.2556 50.2706 49.2712C50.1926 49.2868 50.1145 49.3024 50.0208 49.318C49.9271 49.3336 49.8177 49.3649 49.724 49.3805C49.646 49.3961 49.5679 49.4117 49.4898 49.4273C49.2712 49.4586 49.0681 49.5054 48.8495 49.5367C48.8183 49.5367 48.787 49.5367 48.7558 49.5523C48.5684 49.5835 48.381 49.5991 48.1936 49.6147C48.1155 49.6147 48.053 49.6304 47.975 49.6304C47.85 49.646 47.7251 49.646 47.6158 49.6616C47.5377 49.6616 47.4596 49.6772 47.3815 49.6772C47.2566 49.6928 47.1316 49.6928 46.9911 49.6928C46.913 49.6928 46.8505 49.6928 46.7725 49.7084C46.6631 49.7084 46.5538 49.7084 46.4445 49.7084C46.3664 49.7084 46.2883 49.7084 46.2102 49.7084C46.0853 49.7084 45.976 49.7084 45.8511 49.7084C45.7886 49.7084 45.7105 49.7084 45.648 49.7084C45.5387 49.7084 45.4294 49.6928 45.3201 49.6928C45.242 49.6928 45.1639 49.6928 45.0858 49.6772C44.9765 49.6772 44.8516 49.6616 44.7423 49.646C44.6798 49.646 44.6017 49.6304 44.5392 49.6304C44.3987 49.6147 44.2581 49.5991 44.1176 49.5835C44.0707 49.5835 44.0239 49.5679 43.9927 49.5679C43.8053 49.5523 43.6335 49.521 43.4461 49.5054C43.4148 49.5054 43.3836 49.4898 43.3524 49.4898C43.1962 49.4742 43.04 49.443 42.8839 49.4117C42.8214 49.3961 42.7589 49.3805 42.6965 49.3805C42.5715 49.3649 42.4622 49.3336 42.3373 49.318C42.2748 49.3024 42.2123 49.2868 42.1499 49.2712C42.0249 49.2399 41.9 49.2087 41.7594 49.1775C41.6814 49.1618 41.6189 49.1462 41.5408 49.1306C41.4315 49.0994 41.3066 49.0681 41.1972 49.0369C41.1348 49.0213 41.0723 49.0057 41.0098 48.9744C40.8224 48.9276 40.6506 48.8651 40.4789 48.8027C40.4476 48.787 40.4164 48.787 40.3852 48.7714C40.1821 48.709 39.9791 48.6309 39.7761 48.5528C39.698 48.5216 39.6199 48.4903 39.5418 48.4591C39.4794 48.4279 39.4169 48.4122 39.3544 48.381C39.2607 48.3498 39.1827 48.3029 39.089 48.2561C39.0265 48.2248 38.9796 48.2092 38.9172 48.178C38.8235 48.1311 38.7298 48.0843 38.6361 48.0374C38.5892 48.0062 38.5424 47.9906 38.4955 47.9594C38.355 47.8813 38.2144 47.8188 38.0895 47.7407C35.8406 46.4445 34.7162 44.7423 34.7319 43.04L34.5757 83.0973C34.5757 84.7995 35.6845 86.5018 37.9333 87.798C38.0739 87.8761 38.1988 87.9541 38.3393 88.0166C38.3862 88.0478 38.433 88.0635 38.4799 88.0791C38.5736 88.1259 38.6673 88.1728 38.761 88.2196C38.8235 88.2509 38.8703 88.2665 38.9328 88.2977C39.0265 88.3446 39.1046 88.3758 39.1983 88.4227C39.2607 88.4539 39.3232 88.4695 39.3857 88.5007C39.4481 88.532 39.5106 88.5476 39.5731 88.5788C39.5887 88.5788 39.6043 88.5944 39.6356 88.5944C39.8386 88.6725 40.026 88.7506 40.2446 88.8131C40.2758 88.8287 40.3071 88.8287 40.3383 88.8443C40.5101 88.9068 40.6975 88.9536 40.8693 89.0161C40.9005 89.0317 40.9317 89.0317 40.963 89.0473C40.9942 89.0629 41.0255 89.063 41.0723 89.0786C41.1816 89.1098 41.3066 89.141 41.4159 89.1723C41.4783 89.1879 41.5564 89.2035 41.6345 89.2191C41.7594 89.2503 41.8844 89.2816 42.0249 89.3128C42.0718 89.3284 42.1186 89.3284 42.1655 89.344C42.1811 89.344 42.1967 89.344 42.1967 89.344C42.3217 89.3753 42.431 89.3909 42.5559 89.4065C42.6184 89.4221 42.6808 89.4378 42.7433 89.4378C42.8995 89.469 43.0556 89.4846 43.1962 89.5158C43.2274 89.5158 43.2587 89.5314 43.2899 89.5314C43.4773 89.5627 43.6491 89.5783 43.8365 89.5939C43.8677 89.5939 43.9146 89.5939 43.9458 89.6095C44.0864 89.6251 44.2425 89.6408 44.3831 89.6564C44.3831 89.6564 44.3831 89.6564 44.3987 89.6564C44.4612 89.6564 44.5236 89.672 44.5861 89.672C44.711 89.6876 44.8203 89.6876 44.9453 89.7032C45.0234 89.7032 45.1015 89.7032 45.1639 89.7189C45.2732 89.7189 45.3826 89.7345 45.4919 89.7345C45.5075 89.7345 45.5075 89.7345 45.5231 89.7345C45.5856 89.7345 45.648 89.7345 45.7105 89.7345C45.8354 89.7345 45.9448 89.7345 46.0697 89.7345C46.1478 89.7345 46.2259 89.7345 46.304 89.7345C46.4133 89.7345 46.5226 89.7345 46.6319 89.7345C46.6475 89.7345 46.6788 89.7345 46.6944 89.7345C46.7412 89.7345 46.8037 89.7345 46.8505 89.7345C46.9755 89.7345 47.1004 89.7189 47.241 89.7189C47.319 89.7189 47.3971 89.7032 47.4752 89.7032C47.6002 89.6876 47.7251 89.6876 47.8344 89.672C47.8813 89.672 47.9281 89.672 47.9593 89.6564C47.9906 89.6564 48.0218 89.6564 48.053 89.6408C48.2404 89.6252 48.4278 89.5939 48.6152 89.5783C48.6465 89.5783 48.6777 89.5783 48.7089 89.5627C48.9276 89.5315 49.1462 89.5002 49.3492 89.4534C49.3649 89.4534 49.3961 89.4534 49.4117 89.4378C49.4742 89.4221 49.521 89.4221 49.5835 89.4065C49.6772 89.3909 49.7865 89.3753 49.8802 89.344C49.9583 89.3284 50.0364 89.3128 50.1145 89.2972C50.2082 89.2816 50.3019 89.2504 50.4112 89.2347C50.4893 89.2191 50.5674 89.1879 50.6454 89.1723C50.7391 89.141 50.8328 89.1254 50.9265 89.0942C51.0046 89.0786 51.0827 89.0473 51.1608 89.0317C51.2545 89.0005 51.3482 88.9692 51.4419 88.9536C51.4888 88.938 51.52 88.9224 51.5668 88.9224C51.5981 88.9068 51.6293 88.9068 51.6449 88.8912C51.8167 88.8287 51.9729 88.7818 52.1447 88.7194C52.1759 88.7038 52.2071 88.6881 52.254 88.6881C52.4414 88.6101 52.6288 88.532 52.8162 88.4539C52.863 88.4383 52.9099 88.407 52.9567 88.3914C53.0973 88.329 53.2378 88.2665 53.3784 88.1884C53.4252 88.1572 53.4877 88.1416 53.5346 88.1103C53.7063 88.0166 53.8938 87.9229 54.0655 87.8292C54.1124 87.798 54.1592 87.7824 54.2061 87.7511C54.2529 87.7199 54.2842 87.7043 54.331 87.673C54.3935 87.6262 54.4716 87.5793 54.534 87.5481C54.5965 87.5013 54.659 87.47 54.7214 87.4232C54.7839 87.3763 54.8464 87.3295 54.9088 87.2826C54.9713 87.2358 55.0182 87.2045 55.0806 87.1577C55.1431 87.1108 55.2056 87.064 55.2524 87.0171C55.2993 86.9703 55.3617 86.9234 55.4086 86.8922C55.4711 86.8454 55.5179 86.7985 55.5804 86.7516C55.596 86.736 55.6272 86.7204 55.6428 86.6892C55.6897 86.6423 55.7209 86.6111 55.7678 86.5642C55.7834 86.5486 55.799 86.533 55.8146 86.5174C55.8927 86.4393 55.9708 86.3456 56.0489 86.2675C56.0645 86.2519 56.0801 86.2207 56.0957 86.2051C56.1582 86.127 56.2207 86.0645 56.2831 85.9864C56.2987 85.9708 56.3144 85.9552 56.3144 85.9396L56.33 85.924C56.3456 85.8927 56.3612 85.8771 56.3924 85.8459C56.4549 85.7678 56.5018 85.7053 56.5486 85.6272C56.5799 85.5804 56.5955 85.5491 56.6267 85.5023C56.6736 85.4398 56.7048 85.3617 56.7516 85.2993C56.7673 85.2837 56.7829 85.268 56.7829 85.2368C56.7985 85.2056 56.8141 85.1743 56.8297 85.1587C56.861 85.0963 56.8922 85.0494 56.9234 84.9869C56.939 84.9401 56.9703 84.8932 56.9859 84.8464C57.0171 84.7839 57.0327 84.7371 57.064 84.6746C57.0796 84.6434 57.0796 84.6278 57.0952 84.5965C57.1108 84.5809 57.1108 84.5497 57.1108 84.534C57.1264 84.4716 57.1421 84.4247 57.1577 84.3623C57.1733 84.3154 57.1889 84.2686 57.2045 84.2061C57.2201 84.1436 57.2358 84.0968 57.2514 84.0343C57.2514 84.0031 57.267 83.9718 57.267 83.9406C57.267 83.925 57.267 83.8938 57.2826 83.8781C57.2982 83.8157 57.2982 83.7688 57.3138 83.7064C57.3138 83.6595 57.3295 83.6127 57.3295 83.5502C57.3295 83.4877 57.3451 83.4409 57.3451 83.3784C57.3451 83.3472 57.3451 83.3159 57.3451 83.2847C57.3451 83.2535 57.3451 83.2222 57.3451 83.191L57.5012 43.1337C57.5169 43.2118 57.5169 43.2743 57.5169 43.3368Z" fill="url(#paint0_linear_424_1303)"/>
<path d="M54.1594 38.6362C49.693 36.0594 42.4936 36.0594 38.0584 38.6362C33.6232 41.213 33.6544 45.3827 38.1053 47.9595C42.5717 50.5363 49.7711 50.5363 54.2062 47.9595C58.6414 45.3827 58.6258 41.213 54.1594 38.6362Z" fill="#2BBBE6"/>
<path d="M54.1589 78.2715C49.6925 75.6947 42.4931 75.6947 38.0579 78.2715C33.6227 80.8482 33.654 85.0179 38.1048 87.5947C42.5712 90.1715 49.7706 90.1715 54.2058 87.5947C58.6409 85.0179 58.6253 80.8482 54.1589 78.2715Z" fill="url(#paint1_linear_424_1303)"/>
<path d="M46.0539 90C45.9446 90 45.8509 90 45.7416 90H45.523H45.4917C45.398 90 45.3043 90 45.2106 89.9844L44.9295 89.9687C44.8202 89.9687 44.7109 89.9531 44.6016 89.9531L44.3829 89.9375C44.2268 89.9219 44.0706 89.9063 43.9301 89.8906L43.8207 89.875C43.6333 89.8594 43.4459 89.8282 43.2741 89.8126H43.2585L43.1804 89.7969C43.0243 89.7813 42.8681 89.7501 42.7119 89.7189L42.4933 89.672C42.384 89.6564 42.2747 89.6252 42.1497 89.6095H42.1029L41.9623 89.5783C41.8374 89.5471 41.6968 89.5158 41.5719 89.4846L41.3533 89.4378C41.2283 89.4065 41.119 89.3753 41.0097 89.3441L40.8067 89.2816C40.6193 89.2347 40.4319 89.1723 40.2601 89.1098L40.1664 89.0786C39.9634 89.0161 39.7604 88.938 39.5573 88.8599L39.4949 88.8443C39.448 88.8287 39.4168 88.8131 39.3699 88.7975L39.2606 88.7506C39.2138 88.735 39.1669 88.7038 39.1201 88.6882C39.0264 88.6569 38.9483 88.6101 38.8546 88.5788L38.7765 88.5476C38.7296 88.532 38.6984 88.5164 38.6672 88.5008C38.5735 88.4539 38.4798 88.407 38.3705 88.3602L38.2299 88.2821C38.0893 88.204 37.9488 88.1259 37.8082 88.0479C35.5594 86.7517 34.3257 85.0026 34.3257 83.1442L34.4819 43.0869C34.4819 43.0557 34.4819 43.0244 34.4975 42.9932C34.6224 41.2597 35.8249 39.6512 37.9019 38.4487C42.3996 35.8407 49.7239 35.8407 54.2372 38.4487C56.3767 39.6824 57.5948 41.3222 57.7041 43.0869C57.7041 43.1025 57.7197 43.1337 57.7197 43.165V43.3212L57.5636 83.2223C57.5636 83.2535 57.5636 83.2847 57.5636 83.3316C57.5636 83.3628 57.5636 83.3784 57.5636 83.4096V83.4409C57.5636 83.5033 57.5636 83.5658 57.548 83.6283C57.548 83.6751 57.5323 83.7376 57.5323 83.7845C57.5167 83.8469 57.5167 83.9094 57.5011 83.9719C57.5011 84.0031 57.5011 84.0187 57.4855 84.0343C57.4855 84.0499 57.4699 84.0812 57.4699 84.0968V84.128C57.4543 84.1905 57.4386 84.2373 57.423 84.2998C57.4074 84.3467 57.3918 84.4091 57.3762 84.456C57.3606 84.5184 57.3449 84.5653 57.3137 84.6278V84.6434C57.3137 84.659 57.2981 84.6746 57.2981 84.6902C57.2981 84.7058 57.2825 84.7215 57.2825 84.7371L57.2669 84.7683C57.2356 84.8308 57.22 84.8933 57.1888 84.9557C57.1732 85.0026 57.1419 85.0494 57.1107 85.1119C57.0795 85.1744 57.0482 85.2368 57.017 85.2837L57.0014 85.3149C56.9858 85.3305 56.9858 85.3461 56.9701 85.3774L56.9389 85.4242C56.8921 85.5179 56.8452 85.5804 56.7984 85.6585L56.7827 85.6897C56.7671 85.7209 56.7359 85.7522 56.7203 85.7834C56.6734 85.8615 56.611 85.9396 56.5485 86.0177L56.5329 86.0489C56.5172 86.0645 56.5016 86.0801 56.486 86.0957C56.486 86.0957 56.4704 86.1114 56.4704 86.127L56.4235 86.1738C56.3611 86.2519 56.2986 86.33 56.2361 86.3925L56.1737 86.4549C56.0956 86.533 56.0175 86.6267 55.9238 86.7048L55.8613 86.7673C55.8301 86.7985 55.7833 86.8454 55.752 86.8766L55.6896 86.9391C55.6271 86.9859 55.5802 87.0328 55.5178 87.0952C55.4709 87.1421 55.4085 87.1889 55.3616 87.2358C55.2991 87.2826 55.2367 87.3295 55.1742 87.3763C55.1117 87.4232 55.0649 87.47 55.0024 87.5013C54.9399 87.5481 54.8775 87.595 54.7994 87.6418C54.7369 87.6887 54.6745 87.7355 54.612 87.7668C54.5495 87.8136 54.4714 87.8605 54.3934 87.9073L54.3465 87.9385C54.3153 87.9542 54.2997 87.9698 54.2684 87.9854C54.2216 88.0166 54.1747 88.0479 54.1279 88.0635C53.9717 88.1572 53.7999 88.2509 53.5969 88.3602C53.55 88.3914 53.4876 88.407 53.4407 88.4383C53.3002 88.5007 53.1596 88.5788 53.0035 88.6413L52.8629 88.7038C52.6755 88.7819 52.4881 88.8599 52.2851 88.938L52.1758 88.9693C52.004 89.0317 51.8478 89.0942 51.676 89.141L51.473 89.2035C51.3793 89.2347 51.2856 89.266 51.1919 89.2816C51.1138 89.3128 51.0357 89.3284 50.9576 89.3441C50.8639 89.3753 50.7702 89.3909 50.6765 89.4221C50.5985 89.4378 50.5204 89.469 50.4267 89.4846C50.333 89.5158 50.2237 89.5315 50.13 89.5471H50.0987C50.0206 89.5627 49.9582 89.5783 49.8801 89.5939C49.7864 89.6095 49.6771 89.6408 49.5834 89.6564L49.3647 89.7033C49.1305 89.7501 48.9118 89.7813 48.6932 89.8126L48.5995 89.8282C48.4121 89.8594 48.2247 89.875 48.0217 89.8906L47.803 89.9063C47.6781 89.9219 47.5532 89.9219 47.4282 89.9375C47.3502 89.9375 47.2721 89.9531 47.194 89.9531C47.069 89.9531 46.9285 89.9687 46.8036 89.9687L46.6005 89.9844C46.4756 89.9844 46.3819 89.9844 46.2726 89.9844H46.0071C46.054 90 46.0539 90 46.0539 90ZM43.3366 89.3441C43.5084 89.3753 43.6958 89.3909 43.8676 89.4065L43.9769 89.4221C44.1175 89.4378 44.258 89.4534 44.4142 89.469L44.6484 89.4846C44.7577 89.4846 44.8671 89.5002 44.9608 89.5002L45.2263 89.5158C45.32 89.5158 45.4137 89.5315 45.5074 89.5315L45.523 89.7657V89.5315H45.7416C45.8509 89.5315 45.9602 89.5315 46.0696 89.5315H46.3351C46.4288 89.5315 46.5381 89.5315 46.6318 89.5315L46.8504 89.5158C46.9753 89.5158 47.1003 89.5002 47.2252 89.5002C47.3033 89.5002 47.3814 89.4846 47.4595 89.4846C47.5844 89.469 47.6937 89.469 47.8187 89.4534L48.0373 89.4378C48.2247 89.4221 48.4121 89.3909 48.5995 89.3753L48.6932 89.3597C48.9118 89.3284 49.1149 89.2972 49.3335 89.2504L49.5677 89.2035C49.6614 89.1879 49.7708 89.1723 49.8645 89.141C49.9269 89.1254 50.005 89.1098 50.0675 89.0942H50.0987C50.1924 89.0786 50.2861 89.0473 50.3798 89.0317C50.4579 89.0161 50.536 88.9849 50.6141 88.9693C50.7078 88.938 50.8015 88.9224 50.8952 88.8912C50.9733 88.8756 51.0513 88.8443 51.1294 88.8287C51.2231 88.7975 51.3168 88.7818 51.4105 88.7506L51.6136 88.6882C51.7697 88.6413 51.9415 88.5788 52.0977 88.5164L52.1914 88.4851C52.3788 88.407 52.5662 88.329 52.7536 88.2509L52.8941 88.1884C53.0347 88.1259 53.1752 88.0635 53.3158 88.001C53.3626 87.9698 53.4251 87.9542 53.472 87.9229C53.675 87.8136 53.8312 87.7355 53.9873 87.6418C54.0342 87.6106 54.081 87.595 54.1279 87.5637C54.1435 87.5481 54.1747 87.5325 54.1903 87.5169L54.2528 87.4857C54.3153 87.4388 54.3934 87.4076 54.4558 87.3607C54.5183 87.3295 54.5651 87.2826 54.6276 87.2514C54.6901 87.2046 54.7682 87.1577 54.815 87.1108C54.8775 87.064 54.9243 87.0328 54.9868 86.9859C55.0493 86.9391 55.1117 86.8922 55.1586 86.8454C55.2054 86.7985 55.2679 86.7673 55.3148 86.7204C55.3616 86.6736 55.4241 86.6267 55.4709 86.5799L55.5334 86.5174C55.5646 86.4862 55.6115 86.4549 55.6427 86.4237L55.6583 86.4081L55.6739 86.3925L55.7052 86.3612C55.7833 86.2832 55.8613 86.2051 55.9394 86.127L55.9863 86.0801C56.0487 86.0021 56.1112 85.9396 56.1737 85.8615L56.2049 85.8146L56.4079 85.9396L56.2205 85.799L56.283 85.721C56.3298 85.6585 56.3923 85.5804 56.4392 85.5179C56.4548 85.4867 56.4704 85.4711 56.486 85.4398L56.5172 85.4086C56.5641 85.3461 56.5953 85.2837 56.6422 85.2212L56.7203 85.0963C56.7515 85.0494 56.7827 84.987 56.7984 84.9401C56.814 84.8933 56.8452 84.8464 56.8608 84.7996C56.8921 84.7371 56.9077 84.6902 56.9233 84.6278L56.9701 84.4872C56.9858 84.4404 57.0014 84.3779 57.017 84.331C57.0326 84.2842 57.0482 84.2373 57.0638 84.1905C57.0795 84.1436 57.0951 84.0812 57.0951 84.0343L57.1263 83.8938C57.1419 83.8469 57.1419 83.7845 57.1575 83.7376C57.1575 83.6908 57.1732 83.6439 57.1732 83.597C57.1732 83.5502 57.1888 83.4877 57.1888 83.4409V83.394C57.1888 83.3784 57.1888 83.3628 57.1888 83.3472C57.1888 83.316 57.1888 83.2847 57.1888 83.2535L57.3449 43.3524C57.3449 43.3368 57.3449 43.3211 57.3449 43.3055C57.3137 41.6501 56.1581 40.0728 54.1123 38.886C49.7239 36.356 42.6026 36.356 38.2455 38.886C36.2309 40.0572 35.1065 41.6033 35.0597 43.2431C35.0597 43.2587 35.0597 43.2899 35.0441 43.3055L34.8879 83.191C34.8879 84.8776 36.0279 86.4706 38.1362 87.6887C38.2611 87.7668 38.4017 87.8448 38.5422 87.9073L38.6828 87.9698C38.7765 88.0166 38.8702 88.0635 38.9639 88.1103C38.9951 88.1259 39.042 88.1416 39.0732 88.1572L39.1357 88.1884C39.2294 88.2353 39.3075 88.2665 39.4012 88.2977C39.448 88.3134 39.4949 88.329 39.5417 88.3602L39.6667 88.407C39.6979 88.4227 39.7447 88.4383 39.776 88.4539L39.8384 88.4695C40.0258 88.5476 40.2289 88.6101 40.4319 88.6882L40.5256 88.7194C40.6974 88.7818 40.8691 88.8287 41.0566 88.8912L41.244 88.938C41.3533 88.9693 41.4626 89.0005 41.5875 89.0317L41.7905 89.0786C41.9155 89.1098 42.0404 89.141 42.1653 89.1567L42.3528 89.2035C42.4621 89.2191 42.5714 89.2504 42.6807 89.266L42.8837 89.3128C43.0399 89.3441 43.1804 89.3597 43.3366 89.3909V89.3441Z" fill="#444444"/>
<path d="M25.0492 46.6317L16.9441 41.9467C16.5068 41.6968 15.8196 41.6968 15.3824 41.9467L7.33968 46.6317C6.91802 46.8816 6.91802 47.2876 7.33968 47.5375L15.4448 52.2226C15.8821 52.4724 16.5692 52.4724 17.0065 52.2226L25.0492 47.5375C25.4709 47.2876 25.4709 46.8816 25.0492 46.6317Z" fill="white"/>
<path d="M32.1396 47.3193C32.1396 47.3349 32.1396 47.3661 32.1396 47.3818C32.1396 47.3974 32.124 47.413 32.124 47.4286C32.124 47.4442 32.1084 47.4598 32.1084 47.4911C32.1084 47.5067 32.0928 47.5223 32.0928 47.5379C32.0772 47.5535 32.0772 47.5848 32.0616 47.6004C32.0616 47.616 32.0459 47.6316 32.0303 47.6472C32.0147 47.6629 31.9991 47.6941 31.9835 47.7097C31.9678 47.7253 31.9678 47.7409 31.9522 47.7409C31.921 47.7722 31.9054 47.8034 31.8741 47.8346C31.8585 47.8503 31.8585 47.8503 31.8429 47.8659C31.8273 47.8815 31.8117 47.8971 31.7804 47.9127C31.7648 47.9283 31.7492 47.944 31.7336 47.9596C31.718 47.9752 31.6867 47.9908 31.6711 48.0064C31.6399 48.022 31.6243 48.0377 31.593 48.0533L17.6003 56.1897C17.5379 56.2209 17.4754 56.2521 17.4129 56.2834C17.3973 56.299 17.3817 56.299 17.3505 56.299C17.3036 56.3146 17.2568 56.3458 17.1943 56.3615C17.1787 56.3615 17.1631 56.3771 17.1318 56.3771C17.1006 56.3927 17.0694 56.3927 17.0381 56.4083C17.0069 56.4083 16.9913 56.4239 16.96 56.4239C16.9288 56.4395 16.882 56.4395 16.8507 56.4395C16.8195 56.4395 16.8039 56.4552 16.7726 56.4552C16.6946 56.4708 16.6321 56.4708 16.554 56.4864C16.5384 56.4864 16.5072 56.4864 16.4915 56.4864C16.4447 56.4864 16.4135 56.4864 16.3666 56.502C16.3354 56.502 16.3041 56.502 16.2885 56.502C16.2573 56.502 16.226 56.502 16.1792 56.502C16.148 56.502 16.1167 56.502 16.0855 56.502C16.0543 56.502 16.023 56.502 15.9918 56.502C15.9606 56.502 15.9293 56.502 15.8981 56.502C15.8669 56.502 15.8356 56.502 15.8044 56.4864C15.7732 56.4864 15.7419 56.4864 15.7263 56.4708C15.6951 56.4708 15.6638 56.4552 15.6326 56.4552C15.6014 56.4552 15.5858 56.4395 15.5545 56.4395C15.5077 56.4239 15.4764 56.4239 15.4296 56.4083C15.414 56.4083 15.3827 56.3927 15.3671 56.3927C15.3047 56.3771 15.2266 56.3458 15.1641 56.3302C15.1329 56.3146 15.1016 56.299 15.0704 56.2834C15.0548 56.2834 15.0392 56.2677 15.0235 56.2677C14.9767 56.2521 14.9298 56.2209 14.883 56.1897L0.812199 48.0689C0.437394 47.8503 0.249992 47.5692 0.249992 47.2881L0.234375 49.9117C0.234375 50.1928 0.421777 50.4895 0.796582 50.6925L14.8674 58.8133C14.9142 58.8445 14.9611 58.8602 15.0079 58.8914C15.0235 58.8914 15.0392 58.907 15.0548 58.907C15.086 58.9226 15.1172 58.9382 15.1485 58.9382C15.1485 58.9382 15.1485 58.9382 15.1641 58.9382C15.2266 58.9695 15.3047 58.9851 15.3671 59.0007H15.3827C15.3984 59.0007 15.414 59.0007 15.4296 59.0163C15.4764 59.0319 15.5077 59.0319 15.5545 59.0476C15.5701 59.0476 15.5701 59.0476 15.5858 59.0476C15.6014 59.0476 15.617 59.0476 15.6326 59.0632C15.6638 59.0632 15.6951 59.0788 15.7263 59.0788C15.7419 59.0788 15.7575 59.0788 15.7732 59.0788C15.7888 59.0788 15.8044 59.0788 15.82 59.0788C15.8512 59.0788 15.8825 59.0788 15.9137 59.0944C15.9293 59.0944 15.9449 59.0944 15.9606 59.0944C15.9762 59.0944 15.9918 59.0944 16.0074 59.0944C16.0386 59.0944 16.0699 59.0944 16.1011 59.0944C16.1167 59.0944 16.1323 59.0944 16.148 59.0944C16.1636 59.0944 16.1792 59.0944 16.1792 59.0944C16.2104 59.0944 16.2417 59.0944 16.2885 59.0944C16.3041 59.0944 16.3197 59.0944 16.3354 59.0944C16.351 59.0944 16.351 59.0944 16.3666 59.0944C16.4135 59.0944 16.4603 59.0944 16.4915 59.0788C16.5072 59.0788 16.5228 59.0788 16.5384 59.0788H16.554C16.6321 59.0788 16.6946 59.0632 16.7726 59.0476C16.7726 59.0476 16.7726 59.0476 16.7883 59.0476C16.8039 59.0476 16.8351 59.0319 16.8507 59.0319C16.882 59.0319 16.9288 59.0163 16.96 59.0163C16.9913 59.0163 17.0069 59.0007 17.0381 59.0007C17.0694 58.9851 17.1006 58.9851 17.1318 58.9695H17.1474C17.1631 58.9695 17.1631 58.9539 17.1787 58.9539C17.2255 58.9382 17.288 58.9226 17.3348 58.8914C17.3505 58.8914 17.3661 58.8758 17.3817 58.8758C17.4442 58.8445 17.5066 58.8133 17.5691 58.7821L31.5618 50.6457C31.5774 50.6457 31.5774 50.6301 31.5774 50.6301C31.593 50.6144 31.6087 50.6144 31.6243 50.5988C31.6399 50.5832 31.6711 50.5676 31.6867 50.552C31.7024 50.5364 31.718 50.5207 31.7336 50.5051C31.7492 50.4895 31.7804 50.4739 31.7961 50.4583C31.7961 50.4583 31.8117 50.4583 31.8117 50.4427L31.8273 50.427C31.8585 50.3958 31.8898 50.3646 31.9054 50.3333L31.921 50.3177L31.9366 50.3021C31.9522 50.2865 31.9678 50.2553 31.9835 50.2396C31.9835 50.224 31.9991 50.224 31.9991 50.2084V50.1928C32.0147 50.1772 32.0147 50.1459 32.0303 50.1303C32.0303 50.1147 32.0459 50.1147 32.0459 50.0991V50.0835C32.0459 50.0679 32.0616 50.0522 32.0616 50.021C32.0616 50.0054 32.0772 49.9898 32.0772 49.9898C32.0772 49.9898 32.0772 49.9898 32.0772 49.9742C32.0772 49.9585 32.0772 49.9273 32.0772 49.9117C32.0772 49.8961 32.0772 49.8805 32.0772 49.8648V49.8492L32.0928 47.2256C32.1396 47.2881 32.1396 47.3037 32.1396 47.3193Z" fill="url(#paint2_linear_424_1303)"/>
<path d="M31.5775 46.4761L17.5067 38.3553C16.7571 37.918 15.5546 37.918 14.805 38.3553L0.812272 46.4761C0.0626626 46.9133 0.0782795 47.6161 0.827889 48.0378L14.8987 56.1585C15.6483 56.5958 16.8508 56.5958 17.6004 56.1585L31.5931 48.0221C32.3271 47.6161 32.3271 46.9133 31.5775 46.4761Z" fill="white"/>
<path d="M16.2259 59.3599C16.2103 59.3599 16.1947 59.3599 16.1791 59.3599H16.1322H16.101C16.0541 59.3599 16.0229 59.3599 15.976 59.3599H15.9292H15.898C15.8511 59.3599 15.8043 59.3443 15.773 59.3443L15.6949 59.3286C15.6481 59.3286 15.6169 59.313 15.57 59.313C15.5388 59.313 15.5232 59.313 15.5232 59.2974C15.5232 59.2974 15.5075 59.2974 15.4919 59.2974C15.4451 59.2818 15.3982 59.2818 15.3514 59.2662L15.3045 59.2505H15.2889C15.2108 59.2349 15.1484 59.2037 15.0703 59.1725C15.039 59.1568 15.0078 59.1412 14.9766 59.1412L15.039 58.907L14.9453 59.1256L14.8985 59.11C14.8516 59.0788 14.7892 59.0631 14.7423 59.0319L0.671517 50.9111C0.234245 50.6613 -0.015625 50.3021 -0.015625 49.9117L-8.13417e-06 47.2724C-8.13417e-06 47.2724 -8.13417e-06 47.2724 -8.13417e-06 47.2568C-8.13417e-06 46.882 0.249862 46.5384 0.671517 46.2886L14.6642 38.1678C15.4919 37.6837 16.7725 37.6837 17.6002 38.1678L31.671 46.2886C32.0927 46.5384 32.3425 46.882 32.3581 47.2412C32.3581 47.2568 32.3581 47.2724 32.3581 47.2724L32.3425 49.896C32.3425 49.9273 32.3425 49.9585 32.3425 49.9741C32.3425 50.0054 32.3425 50.0366 32.3269 50.0522C32.3269 50.0834 32.3113 50.0991 32.3113 50.1147C32.2957 50.1459 32.2957 50.1771 32.2801 50.1928C32.2644 50.224 32.2644 50.2396 32.2488 50.2552C32.2332 50.2865 32.2176 50.3177 32.2176 50.3333C32.202 50.3646 32.1864 50.3802 32.1864 50.3958C32.1707 50.427 32.1551 50.4583 32.1239 50.4739C32.1239 50.4739 32.1239 50.4895 32.1083 50.4895C32.1083 50.5051 32.0927 50.5207 32.077 50.5207C32.0458 50.552 32.0146 50.5832 31.9833 50.6144C31.9833 50.6144 31.9677 50.63 31.9521 50.6457L31.9365 50.6613C31.9209 50.6769 31.9052 50.6925 31.8896 50.7081L31.7178 50.552L31.8584 50.7394C31.8428 50.755 31.8272 50.7706 31.8115 50.7706C31.7959 50.7862 31.7647 50.8018 31.7491 50.8174L31.7178 50.8331C31.7022 50.8487 31.6866 50.8487 31.671 50.8643L31.6398 50.8799L17.647 59.0007C17.5846 59.0319 17.5221 59.0788 17.444 59.11L17.3816 59.1412C17.3347 59.1569 17.2722 59.1881 17.2098 59.2037L17.1785 59.2193C17.1785 59.2193 17.1629 59.2193 17.1473 59.2193C17.1161 59.2349 17.0848 59.2349 17.0692 59.2505L17.0224 59.0319L17.0848 59.2505L17.0224 59.2662C16.9911 59.2818 16.9443 59.2818 16.9131 59.2974L16.8506 59.313C16.7569 59.3286 16.6788 59.3443 16.6007 59.3443C16.5695 59.3443 16.5539 59.3443 16.5383 59.3443C16.4758 59.3443 16.4289 59.3599 16.3821 59.3599H16.3508H16.3196C16.2728 59.3599 16.2571 59.3599 16.2259 59.3599ZM0.484115 47.2724L0.468498 49.896C0.468498 50.0991 0.624667 50.3177 0.921387 50.4739L14.9922 58.5946C15.039 58.6103 15.0703 58.6415 15.1171 58.6571L15.1327 58.6727L15.1484 58.6883L15.164 58.704C15.1796 58.7196 15.1952 58.7196 15.2264 58.7352C15.2889 58.7664 15.3514 58.782 15.4295 58.7977H15.4451L15.4763 58.8133C15.5075 58.8289 15.5544 58.8289 15.5856 58.8445H15.6169H15.6637C15.6949 58.8445 15.7262 58.8601 15.7574 58.8601H15.773H15.8043C15.8043 58.8601 15.8199 58.8601 15.8355 58.8601C15.8667 58.8601 15.898 58.8601 15.9292 58.8757H15.9604H15.9917C15.9917 58.8757 16.0073 58.8757 16.0229 58.8757C16.0541 58.8757 16.0854 58.8757 16.1166 58.8757H16.1478L16.1634 59.11L16.1791 58.8757H16.2103C16.2415 58.8757 16.2728 58.8757 16.304 58.8757H16.3352L16.3665 59.11V58.8757H16.3977C16.4446 58.8757 16.4758 58.8757 16.5226 58.8601H16.5539H16.5851C16.6632 58.8601 16.7257 58.8445 16.7881 58.8289L16.8506 58.8133C16.8818 58.8133 16.9131 58.7977 16.9443 58.7977L16.9911 58.782L17.0224 58.7664C17.038 58.7664 17.0692 58.7508 17.0848 58.7508L17.1317 58.7352C17.1785 58.7196 17.2254 58.704 17.2722 58.6883L17.3191 58.6727C17.3659 58.6415 17.4284 58.6259 17.4753 58.5946L31.5304 50.427C31.5617 50.4114 31.5773 50.3958 31.5929 50.3958L31.6241 50.3802L31.6398 50.3646C31.6554 50.3489 31.671 50.3333 31.6866 50.3177C31.6866 50.3177 31.7022 50.3021 31.7178 50.2865C31.7335 50.2709 31.7647 50.2396 31.7803 50.224L31.7959 50.2084V50.1928C31.8115 50.1771 31.8272 50.1615 31.8272 50.1459L31.8428 50.1303V50.1147C31.8428 50.0991 31.8584 50.0835 31.8584 50.0835C31.8584 50.0835 31.874 50.0678 31.874 50.0522C31.874 50.0522 31.874 50.0522 31.874 50.0366C31.874 50.021 31.874 50.021 31.8896 50.0054L31.9052 49.9741V49.9585C31.9052 49.9585 31.9052 49.9429 31.9052 49.9273V49.8804L31.9209 47.3349C31.9209 47.3193 31.9209 47.288 31.9209 47.2724C31.9365 47.0538 31.7803 46.8195 31.4836 46.6477L17.4128 38.527C16.7413 38.1365 15.6169 38.1365 14.9453 38.527L0.952621 46.6477C0.640283 46.8508 0.484115 47.0538 0.484115 47.2724C0.484115 47.2568 0.484115 47.2568 0.484115 47.2724Z" fill="#444444"/>
<path d="M20.1615 42.291L20.1459 46.7418L16.1948 49.0375L16.2104 44.5867L20.1615 42.291Z" fill="#FDA80E"/>
<path d="M16.2103 44.5867L16.1947 49.0375L12.2124 46.7418L12.228 42.291L16.2103 44.5867Z" fill="#FDC800"/>
<path d="M20.1614 42.2908L16.2103 44.5865L12.228 42.2908L16.1791 39.9951L20.1614 42.2908Z" fill="#FDF21C"/>
<path d="M16.1946 49.2714C16.1477 49.2714 16.1165 49.2558 16.0696 49.2402L12.0873 46.9445C12.0093 46.8976 11.9624 46.8196 11.9624 46.7415L11.978 42.2907C11.978 42.2126 12.0249 42.1345 12.0873 42.0877L16.0384 39.792C16.1165 39.7451 16.1946 39.7451 16.2727 39.792L20.255 42.0877C20.333 42.1345 20.3799 42.2126 20.3799 42.2907L20.3643 46.7415C20.3643 46.8196 20.3174 46.8976 20.255 46.9445L16.3039 49.2402C16.2727 49.2558 16.2258 49.2714 16.1946 49.2714ZM12.4465 46.6009L16.1946 48.7561L19.9114 46.6009L19.927 42.4312L16.179 40.2761L12.4621 42.4312L12.4465 46.6009Z" fill="#444444"/>
<path d="M9.94852 4.37305L9.9329 7.98054L6.73145 9.83895V6.24707L9.94852 4.37305Z" fill="url(#paint3_linear_424_1303)"/>
<path d="M6.73123 6.24707V9.83895L3.49854 7.98054L3.51415 4.37305L6.73123 6.24707Z" fill="url(#paint4_linear_424_1303)"/>
<path d="M9.94831 4.37306L6.73123 6.24708L3.51416 4.37306L6.71562 2.51465L9.94831 4.37306Z" fill="white"/>
<path d="M6.7311 10.0731C6.68425 10.0731 6.65302 10.0575 6.60617 10.0419L3.3891 8.18345C3.31101 8.1366 3.26416 8.05851 3.26416 7.98043L3.27978 4.37293C3.27978 4.29485 3.32663 4.21676 3.3891 4.16991L6.59055 2.31151C6.66864 2.26465 6.74672 2.26465 6.82481 2.31151L10.0575 4.16991C10.1356 4.21676 10.1824 4.29485 10.1824 4.37293L10.1668 7.98043C10.1668 8.05851 10.12 8.1366 10.0575 8.18345L6.84042 10.0419C6.80919 10.0731 6.76234 10.0731 6.7311 10.0731ZM3.73267 7.85549L6.71549 9.58897L9.68269 7.85549L9.69831 4.5291L6.71549 2.79563L3.74828 4.51348L3.73267 7.85549Z" fill="#444444"/>
<path d="M3.49809 8.2147C3.42 8.2147 3.3263 8.16785 3.29507 8.08977C3.2326 7.98045 3.27945 7.8399 3.38877 7.77743L6.44968 6.13766C6.63708 6.04396 6.85571 6.04396 7.0275 6.13766L10.0416 7.77743C10.1509 7.8399 10.1977 7.98045 10.1353 8.08977C10.0728 8.19909 9.93224 8.24594 9.82292 8.18347L6.80886 6.5437C6.76201 6.51246 6.71516 6.51246 6.66831 6.5437L3.60741 8.18347C3.57617 8.2147 3.54494 8.2147 3.49809 8.2147Z" fill="#444444"/>
<path d="M6.73074 10.0728C6.65266 10.0728 6.57457 10.026 6.52772 9.96349L3.31065 4.49759C3.24818 4.38827 3.27941 4.24772 3.38873 4.16963C3.49805 4.10717 3.6386 4.1384 3.71668 4.24772L6.73074 9.37005L9.7448 4.24772C9.80726 4.1384 9.94781 4.09155 10.0727 4.16963C10.1821 4.2321 10.2289 4.37265 10.1508 4.49759L6.93376 9.96349C6.88691 10.0416 6.80882 10.0728 6.73074 10.0728Z" fill="#444444"/>
<path d="M20.1615 36.7158L20.1459 41.1666L16.1948 43.4623L16.2104 39.0115L20.1615 36.7158Z" fill="#FDA80E"/>
<path d="M16.2103 39.0115L16.1947 43.4623L12.2124 41.1666L12.228 36.7158L16.2103 39.0115Z" fill="#FDC800"/>
<path d="M20.1614 36.7156L16.2103 39.0113L12.228 36.7156L16.1791 34.4199L20.1614 36.7156Z" fill="#FDF21C"/>
<path d="M16.1946 43.6962C16.1477 43.6962 16.1165 43.6806 16.0696 43.665L12.0873 41.3693C12.0093 41.3225 11.9624 41.2444 11.9624 41.1663L11.978 36.7155C11.978 36.6374 12.0249 36.5593 12.0873 36.5125L16.0384 34.2168C16.1165 34.1699 16.1946 34.1699 16.2727 34.2168L20.255 36.5125C20.333 36.5593 20.3799 36.6374 20.3799 36.7155L20.3643 41.1663C20.3643 41.2444 20.3174 41.3225 20.255 41.3693L16.3039 43.665C16.2727 43.6962 16.2258 43.6962 16.1946 43.6962ZM12.4465 41.0257L16.1946 43.1809L19.9114 41.0257L19.927 36.856L16.179 34.7009L12.4621 36.856L12.4465 41.0257Z" fill="#444444"/>
<path d="M20.1615 31.2808L20.1459 35.7316L16.1948 38.0272L16.2104 33.5764L20.1615 31.2808Z" fill="#FDA80E"/>
<path d="M16.2103 33.5764L16.1947 38.0272L12.2124 35.7316L12.228 31.2808L16.2103 33.5764Z" fill="#FDC800"/>
<path d="M20.1614 31.2805L16.2103 33.5762L12.228 31.2805L16.1791 28.9849L20.1614 31.2805Z" fill="#FDF21C"/>
<path d="M16.1946 38.2612C16.1477 38.2612 16.1165 38.2455 16.0696 38.2299L12.0873 35.9342C12.0093 35.8874 11.9624 35.8093 11.9624 35.7312L11.978 31.2804C11.978 31.2023 12.0249 31.1242 12.0873 31.0774L16.0384 28.7817C16.1165 28.7349 16.1946 28.7349 16.2727 28.7817L20.255 31.0774C20.333 31.1242 20.3799 31.2023 20.3799 31.2804L20.3643 35.7312C20.3643 35.8093 20.3174 35.8874 20.255 35.9342L16.3039 38.2299C16.2727 38.2455 16.2258 38.2612 16.1946 38.2612ZM12.4465 35.5907L16.1946 37.7458L19.9114 35.5907L19.927 31.421L16.179 29.2658L12.4621 31.421L12.4465 35.5907Z" fill="#444444"/>
<path d="M20.1615 25.8462L20.1459 30.297L16.1948 32.5927L16.2104 28.1419L20.1615 25.8462Z" fill="#FDA80E"/>
<path d="M16.2103 28.1419L16.1947 32.5927L12.2124 30.297L12.228 25.8462L16.2103 28.1419Z" fill="#FDC800"/>
<path d="M20.1614 25.846L16.2103 28.1417L12.228 25.846L16.1791 23.5503L20.1614 25.846Z" fill="#FDF21C"/>
<path d="M16.1946 32.8266C16.1477 32.8266 16.1165 32.811 16.0696 32.7954L12.0873 30.4997C12.0093 30.4528 11.9624 30.3747 11.9624 30.2967L11.978 25.8458C11.978 25.7678 12.0249 25.6897 12.0873 25.6428L16.0384 23.3471C16.1165 23.3003 16.1946 23.3003 16.2727 23.3471L20.255 25.6428C20.333 25.6897 20.3799 25.7678 20.3799 25.8458L20.3643 30.2967C20.3643 30.3747 20.3174 30.4528 20.255 30.4997L16.3039 32.7954C16.2727 32.811 16.2258 32.8266 16.1946 32.8266ZM12.4465 30.1561L16.1946 32.3112L19.9114 30.1561L19.927 25.9864L16.179 23.8313L12.4621 25.9864L12.4465 30.1561Z" fill="#444444"/>
<path d="M20.1615 20.4116L20.1459 24.8624L16.1948 27.1581L16.2104 22.7073L20.1615 20.4116Z" fill="#FDA80E"/>
<path d="M16.2103 22.7073L16.1947 27.1581L12.2124 24.8624L12.228 20.4116L16.2103 22.7073Z" fill="#FDC800"/>
<path d="M20.1614 20.4114L16.2103 22.7071L12.228 20.4114L16.1791 18.1157L20.1614 20.4114Z" fill="#FDF21C"/>
<path d="M16.1946 27.392C16.1477 27.392 16.1165 27.3764 16.0696 27.3608L12.0873 25.0651C12.0093 25.0183 11.9624 24.9402 11.9624 24.8621L11.978 20.4113C11.978 20.3332 12.0249 20.2551 12.0873 20.2083L16.0384 17.9126C16.1165 17.8657 16.1946 17.8657 16.2727 17.9126L20.255 20.2083C20.333 20.2551 20.3799 20.3332 20.3799 20.4113L20.3643 24.8621C20.3643 24.9402 20.3174 25.0183 20.255 25.0651L16.3039 27.3608C16.2727 27.3764 16.2258 27.392 16.1946 27.392ZM12.4465 24.7215L16.1946 26.8767L19.9114 24.7215L19.927 20.5518L16.179 18.3967L12.4621 20.5518L12.4465 24.7215Z" fill="#444444"/>
<path d="M15.3356 11.2915L7.26172 6.59082V9.12075L15.3356 13.8214V11.2915Z" fill="#FDC800"/>
<path d="M9.47931 5.31006L7.26172 6.59064L15.3356 11.2913L17.5376 10.0107L9.47931 5.31006Z" fill="#FDF21C"/>
<path d="M17.5374 10.0107L17.553 12.5563L15.3354 13.8213V11.2913L17.5374 10.0107Z" fill="#47836F"/>
<path d="M15.3355 14.0554C15.2887 14.0554 15.2574 14.0398 15.2106 14.0241L7.15228 9.32346C7.07419 9.29223 7.02734 9.21414 7.02734 9.12044V6.57489C7.02734 6.49681 7.07419 6.41872 7.15228 6.37187L9.36987 5.09129C9.44796 5.04444 9.52604 5.04444 9.60413 5.09129L17.678 9.79197C17.7561 9.83882 17.7874 9.9169 17.7874 9.99499V12.5405C17.7874 12.6186 17.7405 12.6967 17.6624 12.7436L15.4605 14.0241C15.4136 14.0554 15.3824 14.0554 15.3355 14.0554ZM7.49585 8.99551L15.3355 13.5556L17.3032 12.4156V10.1512L9.46357 5.57541L7.49585 6.71544V8.99551Z" fill="#444444"/>
<path d="M20.1615 14.9771L20.1459 19.4122L16.1948 21.7079L16.2104 17.2727L20.1615 14.9771Z" fill="#FDA80E"/>
<path d="M16.2103 17.2727L16.1947 21.7079L12.2124 19.4122L12.228 14.9771L16.2103 17.2727Z" fill="#FDC800"/>
<path d="M20.1614 14.9768L16.2103 17.2725L12.228 14.9768L16.1791 12.6655L20.1614 14.9768Z" fill="#FDF21C"/>
<path d="M16.1946 21.9418C16.1477 21.9418 16.1165 21.9262 16.0696 21.9106L12.0873 19.6149C12.0093 19.5681 11.9624 19.49 11.9624 19.4119L11.978 14.9611C11.978 14.883 12.0249 14.8049 12.0873 14.7581L16.0384 12.4624C16.1165 12.4155 16.1946 12.4155 16.2727 12.4624L20.255 14.7581C20.333 14.8049 20.3799 14.883 20.3799 14.9611L20.3643 19.4119C20.3643 19.49 20.3174 19.5681 20.255 19.6149L16.3039 21.9106C16.2727 21.9418 16.2258 21.9418 16.1946 21.9418ZM12.4465 19.287L16.1946 21.4421L19.9114 19.287L19.927 15.1173L16.179 12.9621L12.4621 15.1016L12.4465 19.287Z" fill="#444444"/>
<path d="M20.1615 9.52686L20.1459 13.9777L16.1948 16.2733L16.2104 11.8382L20.1615 9.52686Z" fill="#FDA80E"/>
<path d="M16.2103 11.8382L16.1947 16.2733L12.2124 13.9777L12.228 9.52686L16.2103 11.8382Z" fill="#FDC800"/>
<path d="M20.1614 9.52664L16.2103 11.8379L12.228 9.52664L16.1791 7.23096L20.1614 9.52664Z" fill="#FDF21C"/>
<path d="M16.1946 16.5073C16.1477 16.5073 16.1165 16.4916 16.0696 16.476L12.103 14.1803C12.0249 14.1335 11.978 14.0554 11.978 13.9773L11.9936 9.52651C11.9936 9.44843 12.0405 9.37034 12.103 9.32349L16.054 7.02781C16.1321 6.98096 16.2102 6.98096 16.2883 7.02781L20.2706 9.32349C20.3487 9.37034 20.3955 9.44843 20.3955 9.52651L20.3799 13.9773C20.3799 14.0554 20.3331 14.1335 20.2706 14.1803L16.3195 16.476C16.2727 16.5073 16.2258 16.5073 16.1946 16.5073ZM12.4465 13.8368L16.1946 15.9919L19.9114 13.8368L19.927 9.66706L16.179 7.51194L12.4622 9.66706L12.4465 13.8368Z" fill="#444444"/>
<path d="M16.2105 1.24951L13.5244 7.82421L16.2105 9.37028L18.8966 7.82421L16.2105 1.24951Z" fill="white"/>
<path d="M16.2104 1.24951V9.37028L18.8965 7.82421L16.2104 1.24951Z" fill="url(#paint5_linear_424_1303)"/>
<path d="M16.2105 9.62003C16.1636 9.62003 16.1324 9.60441 16.0855 9.5888L13.3838 8.02711C13.2745 7.96464 13.2433 7.83971 13.2901 7.73039L15.9762 1.15569C16.0075 1.06199 16.1012 1.01514 16.1949 1.01514C16.2886 1.01514 16.3823 1.0776 16.4135 1.15569L19.0996 7.73039C19.1465 7.83971 19.0996 7.96464 19.0059 8.02711L16.3354 9.5888C16.2886 9.60441 16.2573 9.62003 16.2105 9.62003ZM13.8211 7.71477L16.2261 9.10467L18.6155 7.71477L16.2261 1.85845L13.8211 7.71477Z" fill="#444444"/>
<path d="M45.7262 28.9073L16.9756 12.1973L16.9912 14.7428L45.7419 31.4529L45.7262 28.9073Z" fill="#FDC800"/>
<path d="M45.7262 28.9071L16.9756 12.1971L19.1932 10.9165L47.9438 27.6266L45.7262 28.9071Z" fill="#FDF21C"/>
<path d="M47.9437 27.6265V30.172L45.7417 31.4526L45.7261 28.907L47.9437 27.6265Z" fill="#FDA80E"/>
<path d="M45.7417 31.6868C45.6949 31.6868 45.6637 31.6712 45.6168 31.6556L16.8662 14.9455C16.7881 14.8987 16.7568 14.8206 16.7568 14.7425V12.197C16.7568 12.1189 16.8037 12.0408 16.8818 11.9939L19.0994 10.7134C19.1775 10.6665 19.2555 10.6665 19.3336 10.7134L48.0843 27.4234C48.1624 27.4703 48.1936 27.5483 48.1936 27.6264V30.172C48.1936 30.2501 48.1467 30.3281 48.0687 30.375L45.8511 31.6556C45.8198 31.6712 45.7886 31.6868 45.7417 31.6868ZM17.2253 14.602L45.7417 31.1715L47.7095 30.0314V27.767L19.1931 11.1975L17.2097 12.3375L17.2253 14.602Z" fill="#444444"/>
<path d="M45.7416 42.0092C45.6166 42.0092 45.5073 41.8998 45.5073 41.7749V31.4521C45.5073 31.4053 45.5229 31.3741 45.5386 31.3272L47.7405 27.5167C47.803 27.4074 47.9436 27.3605 48.0685 27.423C48.1778 27.4855 48.2247 27.626 48.1622 27.751L45.9914 31.5146V41.7749C45.9758 41.8998 45.8665 42.0092 45.7416 42.0092Z" fill="#444444"/>
<path d="M47.9438 30.406C47.8969 30.406 47.8657 30.3904 47.8344 30.3748L45.7262 29.1723C45.6169 29.1098 45.57 28.9693 45.6325 28.8443C45.6949 28.735 45.8355 28.6882 45.9448 28.7506L48.0531 29.9531C48.1624 30.0156 48.2093 30.1562 48.1468 30.2811C48.1156 30.3592 48.0375 30.406 47.9438 30.406Z" fill="#444444"/>
<path d="M43.6024 30.406C43.4775 30.406 43.3682 30.2967 43.3682 30.1718V27.6262C43.3682 27.5481 43.415 27.47 43.4931 27.4232L45.5701 26.2207C45.6795 26.1582 45.82 26.1895 45.8981 26.3144C45.9606 26.4237 45.9293 26.5643 45.8044 26.6423L43.8367 27.7824V30.1874C43.8367 30.2967 43.7274 30.406 43.6024 30.406Z" fill="#444444"/>
<path d="M41.2128 29.0007C41.0878 29.0007 40.9785 28.8914 40.9785 28.7665V26.2209C40.9785 26.1428 41.0254 26.0648 41.1035 26.0179L43.1805 24.8154C43.2898 24.7529 43.4304 24.7842 43.5085 24.9091C43.5709 25.0184 43.5397 25.159 43.4147 25.2371L41.447 26.3771V28.7821C41.4626 28.8914 41.3533 29.0007 41.2128 29.0007Z" fill="#444444"/>
<path d="M38.8392 27.595C38.7143 27.595 38.605 27.4857 38.605 27.3607V24.8152C38.605 24.7371 38.6518 24.659 38.7299 24.6122L40.807 23.4097C40.9163 23.3472 41.0568 23.3784 41.1349 23.5034C41.1974 23.6127 41.1661 23.7532 41.0412 23.8313L39.0735 24.9713V27.3763C39.0735 27.4857 38.9798 27.595 38.8392 27.595Z" fill="#444444"/>
<path d="M36.4652 26.1897C36.3403 26.1897 36.231 26.0804 36.231 25.9554V23.4099C36.231 23.3318 36.2778 23.2537 36.3559 23.2069L38.4329 22.0044C38.5423 21.9419 38.6828 21.9731 38.7609 22.0981C38.8234 22.2074 38.7921 22.348 38.6672 22.426L36.6995 23.5661V25.9711C36.6995 26.0804 36.5901 26.1897 36.4652 26.1897Z" fill="#444444"/>
<path d="M34.0917 24.7839C33.9667 24.7839 33.8574 24.6746 33.8574 24.5497V22.0041C33.8574 21.926 33.9043 21.848 33.9824 21.8011L36.0594 20.5986C36.1687 20.5361 36.3093 20.5674 36.3874 20.6923C36.4498 20.8016 36.4186 20.9422 36.2937 21.0203L34.3259 22.1603V24.5653C34.3259 24.6746 34.2166 24.7839 34.0917 24.7839Z" fill="#444444"/>
<path d="M31.7177 23.3787C31.5927 23.3787 31.4834 23.2693 31.4834 23.1444V20.5989C31.4834 20.5208 31.5302 20.4427 31.6083 20.3958L33.6854 19.1933C33.7947 19.1309 33.9352 19.1621 34.0133 19.287C34.0758 19.3964 34.0446 19.5369 33.9196 19.615L31.9519 20.755V23.16C31.9519 23.2693 31.8426 23.3787 31.7177 23.3787Z" fill="#444444"/>
<path d="M29.3441 21.9729C29.2192 21.9729 29.1099 21.8636 29.1099 21.7386V19.1931C29.1099 19.115 29.1567 19.0369 29.2348 18.9901L31.3118 17.7876C31.4212 17.7251 31.5617 17.7563 31.6398 17.8813C31.7023 17.9906 31.671 18.1312 31.5461 18.2092L29.5784 19.3493V21.7543C29.5784 21.8636 29.4691 21.9729 29.3441 21.9729Z" fill="#444444"/>
<path d="M26.9237 20.739C26.7988 20.739 26.6895 20.6297 26.6895 20.5048V17.9592C26.6895 17.8811 26.7363 17.803 26.8144 17.7562L28.8914 16.5537C29.0008 16.4912 29.1413 16.5225 29.2194 16.6474C29.2819 16.7567 29.2506 16.8973 29.1257 16.9753L27.158 18.1154V20.5204C27.158 20.6297 27.0486 20.739 26.9237 20.739Z" fill="#444444"/>
<path d="M24.5028 19.3025C24.3779 19.3025 24.2686 19.1932 24.2686 19.0682V16.5227C24.2686 16.4446 24.3154 16.3665 24.3935 16.3197L26.4705 15.1172C26.5799 15.0547 26.7204 15.0859 26.7985 15.2109C26.861 15.3202 26.8297 15.4607 26.7048 15.5388L24.7371 16.6789V19.0839C24.7371 19.1932 24.6277 19.3025 24.5028 19.3025Z" fill="#444444"/>
<path d="M22.0355 17.7566C21.9106 17.7566 21.8013 17.6473 21.8013 17.5223V14.9768C21.8013 14.8987 21.8481 14.8206 21.9262 14.7738L24.0032 13.5713C24.1126 13.5088 24.2531 13.54 24.3312 13.665C24.3937 13.7743 24.3624 13.9148 24.2375 13.9929L22.2698 15.133V17.538C22.2698 17.6473 22.1761 17.7566 22.0355 17.7566Z" fill="#444444"/>
<path d="M19.4896 16.3352C19.3647 16.3352 19.2554 16.2259 19.2554 16.101V13.5554C19.2554 13.4773 19.3022 13.3992 19.3803 13.3524L21.4573 12.1499C21.5667 12.0874 21.7072 12.1187 21.7853 12.2436C21.8478 12.3529 21.8165 12.4935 21.6916 12.5715L19.7239 13.7116V16.1166C19.7395 16.2415 19.6302 16.3352 19.4896 16.3352C19.5052 16.3352 19.5052 16.3352 19.4896 16.3352Z" fill="#444444"/>
<path d="M9.9325 10.8538C9.80756 10.8538 9.69824 10.7444 9.69824 10.6195V8.07396C9.69824 7.99587 9.74509 7.91779 9.82318 7.87094L11.9002 6.66844C12.0095 6.60597 12.1501 6.63721 12.2282 6.76214C12.2906 6.87146 12.2594 7.01201 12.1345 7.0901L10.1667 8.23013V10.6351C10.1667 10.7444 10.073 10.8538 9.9325 10.8538Z" fill="#444444"/>
<path d="M43.3839 26.3297C43.3214 26.3297 43.259 26.3141 43.2121 26.2673L16.1949 1.63947L9.63585 6.79303C9.52654 6.88673 9.35475 6.8555 9.26105 6.74618C9.16735 6.63687 9.19858 6.46508 9.3079 6.37138L16.0388 1.09288C16.1325 1.01479 16.2886 1.01479 16.3823 1.10849L43.5557 25.8768C43.665 25.9705 43.665 26.1423 43.5713 26.2517C43.5245 26.2985 43.462 26.3297 43.3839 26.3297Z" fill="white"/>
<path d="M43.3837 26.4704C43.29 26.4704 43.1807 26.4392 43.1182 26.3611L16.1947 1.82703L9.71371 6.90251C9.54193 7.04306 9.27644 7.01183 9.1515 6.84004C9.01095 6.66826 9.04219 6.41839 9.21397 6.27784L15.9448 0.983719C16.101 0.858784 16.3196 0.874401 16.4602 0.999336L43.6335 25.7677C43.7116 25.8458 43.7585 25.9395 43.7585 26.0488C43.7585 26.1581 43.7272 26.2674 43.6492 26.3455C43.6023 26.4236 43.493 26.4704 43.3837 26.4704ZM16.1947 1.49908C16.2259 1.49908 16.2572 1.51469 16.2884 1.53031L43.3056 26.1581C43.3524 26.205 43.4305 26.205 43.4774 26.1425C43.493 26.1113 43.5086 26.08 43.5086 26.0488C43.5086 26.0176 43.493 25.9863 43.4618 25.9707L16.2884 1.20235C16.2416 1.1555 16.1791 1.1555 16.1322 1.20235L9.40137 6.49647C9.35452 6.54332 9.33891 6.62141 9.38576 6.66826C9.43261 6.71511 9.51069 6.73073 9.55754 6.68387L16.1166 1.53031C16.1322 1.49908 16.1635 1.49908 16.1947 1.49908Z" fill="#444444"/>
<path d="M17.2567 1.29632C17.2567 1.87415 16.7882 2.35827 16.1948 2.35827C15.6169 2.35827 15.1328 1.88976 15.1328 1.29632C15.1328 0.718498 15.6013 0.234375 16.1948 0.234375C16.7882 0.234375 17.2567 0.702881 17.2567 1.29632Z" fill="url(#paint6_radial_424_1303)"/>
<path d="M16.2103 2.5924C15.4919 2.5924 14.9141 2.01458 14.9141 1.2962C14.9141 0.577824 15.4919 0 16.2103 0C16.9286 0 17.5065 0.577824 17.5065 1.2962C17.5065 2.01458 16.913 2.5924 16.2103 2.5924ZM16.2103 0.468506C15.7574 0.468506 15.3826 0.843311 15.3826 1.2962C15.3826 1.74909 15.7574 2.12389 16.2103 2.12389C16.6632 2.12389 17.038 1.74909 17.038 1.2962C17.0223 0.843311 16.6632 0.468506 16.2103 0.468506Z" fill="#444444"/>
<path d="M16.0383 29.5785C16.0383 29.5629 16.0383 29.5473 16.0383 29.5473C16.0383 29.516 16.0383 29.5004 16.0383 29.4692C16.0383 29.4379 16.0383 29.4067 16.0383 29.3755C16.0383 29.3599 16.0383 29.3286 16.0383 29.313C16.0383 29.2818 16.0383 29.2662 16.0383 29.2349C16.0383 29.2193 16.0383 29.2037 16.0383 29.1881C16.0383 29.1412 16.0227 29.11 16.0227 29.0631C16.0227 29.0475 16.0227 29.0163 16.0227 29.0007V28.9851C16.0071 28.907 16.0071 28.8445 15.9915 28.7664C15.9915 28.7508 15.9915 28.7508 15.9915 28.7352C15.9759 28.6727 15.9759 28.6102 15.9602 28.5634C15.9602 28.5478 15.9602 28.5478 15.9602 28.5322C15.9602 28.5009 15.9446 28.4697 15.9446 28.4541C15.9446 28.4228 15.929 28.3916 15.929 28.3448C15.929 28.3291 15.9134 28.3135 15.9134 28.2823C15.9134 28.2511 15.8978 28.2198 15.8978 28.1886C15.8978 28.1574 15.8822 28.1417 15.8822 28.1105C15.8822 28.0793 15.8665 28.048 15.8665 28.0324C15.8509 28.0012 15.8509 27.97 15.8353 27.9387C15.8353 27.9231 15.8197 27.9075 15.8197 27.8919C15.8041 27.845 15.7885 27.8138 15.7885 27.7669C15.7885 27.7357 15.7728 27.7201 15.7728 27.6889V27.6732C15.7572 27.5952 15.726 27.5327 15.7104 27.4546V27.439C15.6948 27.3765 15.6635 27.314 15.6479 27.2516C15.6479 27.236 15.6479 27.236 15.6323 27.2203C15.6167 27.1891 15.6167 27.1735 15.6011 27.1423C15.5854 27.111 15.5698 27.0798 15.5698 27.0329C15.5542 27.0173 15.5542 26.9861 15.5386 26.9705C15.523 26.9392 15.523 26.9236 15.5074 26.8924C15.4917 26.8768 15.4917 26.8455 15.4761 26.8299C15.4605 26.7987 15.4449 26.7518 15.4293 26.7206C15.4137 26.705 15.4137 26.6738 15.398 26.6581C15.398 26.6581 15.398 26.6425 15.3824 26.6425C15.3512 26.5801 15.32 26.502 15.2887 26.4395C15.2887 26.4395 15.2887 26.4395 15.2887 26.4239C15.2731 26.4083 15.2731 26.3927 15.2575 26.3614C15.2263 26.3146 15.2106 26.2521 15.1794 26.2053C15.1794 26.1896 15.1638 26.1896 15.1638 26.174C15.1482 26.1272 15.1169 26.0959 15.1013 26.0491C15.0857 26.0178 15.0701 25.9866 15.0545 25.9398C15.0545 25.9398 15.0545 25.9241 15.0389 25.9241C14.9764 25.8148 14.9139 25.7055 14.8515 25.5962C14.8515 25.5806 14.8358 25.5806 14.8358 25.565C14.8358 25.5493 14.8202 25.5493 14.8202 25.5337C14.7265 25.3776 14.6328 25.237 14.5391 25.0808C14.5391 25.0652 14.5235 25.0652 14.5235 25.0496C14.5079 25.034 14.5079 25.0184 14.4923 25.0028C14.3517 24.7997 14.2112 24.6123 14.0706 24.4249C14.0706 24.4249 14.0706 24.4249 14.055 24.4093C14.0081 24.3468 13.9613 24.3 13.9144 24.2375C13.8988 24.2219 13.8988 24.2219 13.8988 24.2063C13.852 24.1438 13.7895 24.0814 13.7427 24.0189C13.7427 24.0189 13.7427 24.0189 13.727 24.0033C13.7114 23.9877 13.6958 23.972 13.6802 23.9408C13.649 23.9096 13.6177 23.8627 13.5709 23.8315L13.5553 23.8159C13.524 23.7846 13.5084 23.769 13.4772 23.7378C13.4459 23.7066 13.4303 23.6753 13.3991 23.6597C13.3835 23.6441 13.3835 23.6441 13.3678 23.6285C13.3366 23.5972 13.321 23.5816 13.2898 23.5504C13.2741 23.5348 13.2429 23.5035 13.2273 23.4879C13.2117 23.4723 13.1961 23.4567 13.1804 23.4567C13.1492 23.4254 13.118 23.4098 13.0867 23.3786C13.0711 23.363 13.0399 23.3474 13.0243 23.3161C13.0087 23.3005 12.993 23.2849 12.9774 23.2693C12.9462 23.238 12.915 23.2224 12.8837 23.1912C12.8681 23.1756 12.8525 23.16 12.8369 23.1443C12.8213 23.1287 12.8056 23.1131 12.7744 23.0975C12.7432 23.0663 12.7119 23.0506 12.6963 23.035C12.6807 23.0194 12.6651 23.0038 12.6495 23.0038C12.6182 22.9882 12.6026 22.9726 12.5714 22.9413C12.5402 22.9257 12.5245 22.8945 12.4933 22.8789C12.4777 22.8632 12.4777 22.8632 12.4621 22.8476C12.4308 22.8164 12.3996 22.8008 12.3684 22.7695C12.3528 22.7539 12.3215 22.7383 12.3059 22.7227L12.2903 22.7071C12.2278 22.6602 12.1653 22.629 12.1029 22.5821C12.1029 22.5821 12.0873 22.5821 12.0873 22.5665C12.0404 22.5353 11.9779 22.5041 11.9155 22.4728C11.8999 22.4572 11.8842 22.4572 11.8686 22.4416C11.8218 22.4104 11.7749 22.3947 11.7281 22.3635C11.7125 22.3479 11.6968 22.3479 11.6812 22.3323C11.6656 22.3167 11.6344 22.301 11.6188 22.301C11.6031 22.2854 11.5875 22.2854 11.5719 22.2698C11.5407 22.2542 11.5094 22.2386 11.4938 22.223C11.4782 22.2073 11.447 22.2073 11.4314 22.1917C11.4157 22.1917 11.4157 22.1761 11.4001 22.1761C11.3377 22.1449 11.2908 22.1292 11.2283 22.098C11.1659 22.0824 11.119 22.0512 11.0566 22.0355H11.0409C11.0253 22.0355 10.9941 22.0199 10.9785 22.0199C10.9472 22.0043 10.916 22.0043 10.8848 21.9887C10.8691 21.9887 10.8535 21.9887 10.8379 21.9731C10.8067 21.9731 10.7911 21.9575 10.7598 21.9575C10.7442 21.9575 10.7286 21.9418 10.6974 21.9418C10.6817 21.9418 10.6505 21.9262 10.6349 21.9262C10.6037 21.9262 10.588 21.9106 10.5568 21.9106C10.5412 21.9106 10.5256 21.9106 10.51 21.895C10.4943 21.895 10.4631 21.895 10.4475 21.8794C10.4163 21.8794 10.385 21.8638 10.3694 21.8638C10.3538 21.8638 10.3538 21.8638 10.3382 21.8638C10.3069 21.8638 10.2913 21.8638 10.2757 21.8638C10.2445 21.8638 10.2132 21.8638 10.182 21.8481C10.1664 21.8481 10.1664 21.8481 10.1508 21.8481C10.1352 21.8481 10.1039 21.8481 10.0883 21.8481C10.0571 21.8481 10.0102 21.8481 9.97899 21.8481C9.96337 21.8481 9.96337 21.8481 9.94775 21.8481C9.93214 21.8481 9.91652 21.8481 9.9009 21.8481C9.85405 21.8481 9.8072 21.8481 9.76035 21.8481C9.74474 21.8481 9.72912 21.8481 9.7135 21.8481C9.69789 21.8481 9.69788 21.8481 9.68227 21.8481C9.6198 21.8481 9.54172 21.8638 9.47925 21.8794H9.46363C9.44801 21.8794 9.4324 21.8794 9.41678 21.895C9.36993 21.9106 9.3387 21.9106 9.29185 21.9262C9.27623 21.9262 9.26061 21.9418 9.22938 21.9418C9.19814 21.9575 9.18253 21.9575 9.15129 21.9731H9.13568C9.10444 21.9887 9.05759 22.0043 9.02636 22.0199C9.01074 22.0355 8.99513 22.0355 8.97951 22.0355C8.93266 22.0668 8.87019 22.0824 8.82334 22.1136L7.13672 23.0975C7.18357 23.0663 7.24604 23.035 7.29289 23.0194C7.3085 23.0038 7.32412 23.0038 7.33974 23.0038C7.37097 22.9882 7.41782 22.9726 7.44906 22.9569C7.48029 22.9413 7.51152 22.9413 7.54276 22.9257C7.55837 22.9257 7.57399 22.9101 7.60522 22.9101C7.65208 22.8945 7.68331 22.8945 7.73016 22.8789C7.74578 22.8789 7.76139 22.8789 7.76139 22.8632H7.77701C7.83948 22.8476 7.90194 22.8476 7.98003 22.832C7.99565 22.832 8.02688 22.832 8.0425 22.832C8.08935 22.832 8.1362 22.832 8.18305 22.832C8.21428 22.832 8.2299 22.832 8.26113 22.832C8.29237 22.832 8.33922 22.832 8.37045 22.832C8.40168 22.832 8.43292 22.832 8.46415 22.832C8.49539 22.832 8.52662 22.832 8.55785 22.8476C8.58909 22.8476 8.62032 22.8476 8.65155 22.8632C8.68279 22.8632 8.71402 22.8789 8.72964 22.8789C8.76087 22.8789 8.80772 22.8945 8.83896 22.8945C8.87019 22.8945 8.88581 22.9101 8.91704 22.9101C8.94827 22.9257 8.99513 22.9257 9.04198 22.9413C9.07321 22.9413 9.08883 22.9569 9.12006 22.9569C9.16691 22.9726 9.21376 22.9882 9.245 23.0038C9.26061 23.0038 9.29185 23.0194 9.30746 23.0194C9.4324 23.0663 9.55733 23.1131 9.69788 23.1756C9.7135 23.1912 9.74474 23.1912 9.76035 23.2068C9.8072 23.2224 9.85405 23.2537 9.9009 23.2693C9.91652 23.2849 9.94775 23.2849 9.96337 23.3005C10.0258 23.3317 10.0883 23.363 10.1508 23.4098C10.2132 23.4567 10.2913 23.4879 10.3538 23.5348H10.3694C10.4319 23.5816 10.51 23.6285 10.5724 23.6597C10.588 23.6753 10.6193 23.6909 10.6349 23.7066C10.6817 23.7378 10.7286 23.769 10.7598 23.8003C10.7911 23.8159 10.8067 23.8471 10.8379 23.8627C10.8848 23.894 10.916 23.9252 10.9629 23.9564C10.9941 23.972 11.0253 24.0033 11.0409 24.0189C11.0722 24.0501 11.119 24.0814 11.1503 24.1126C11.1815 24.1438 11.2127 24.1594 11.244 24.1907C11.2752 24.2219 11.322 24.2531 11.3533 24.2844C11.3845 24.3156 11.4157 24.3312 11.4314 24.3625C11.4626 24.3937 11.5094 24.4249 11.5407 24.4718C11.5719 24.503 11.5875 24.5186 11.6188 24.5499C11.65 24.5811 11.6968 24.6279 11.7281 24.6592C11.7593 24.6904 11.7749 24.706 11.8062 24.7373C11.853 24.7841 11.8842 24.831 11.9311 24.8778C11.9467 24.8934 11.9623 24.9091 11.9779 24.9403C12.0404 25.0028 12.0873 25.0808 12.1497 25.1433C12.1654 25.1589 12.1653 25.1589 12.181 25.1745C12.2278 25.237 12.2747 25.2995 12.3215 25.3463C12.384 25.4244 12.4465 25.5025 12.4933 25.5806C12.5714 25.6899 12.6495 25.7992 12.7276 25.9241C12.7432 25.9398 12.7588 25.971 12.7744 25.9866C12.8681 26.1272 12.9618 26.2833 13.0555 26.4395C13.0711 26.4551 13.0711 26.4707 13.0867 26.502C13.1492 26.6113 13.2117 26.7206 13.2741 26.8299C13.2898 26.8768 13.321 26.908 13.3366 26.9549C13.3522 27.0017 13.3835 27.0329 13.3991 27.0798C13.4303 27.1423 13.4615 27.2047 13.4928 27.2672C13.5084 27.2828 13.5084 27.2984 13.524 27.3297C13.5553 27.4078 13.6021 27.4858 13.6333 27.5639C13.649 27.5795 13.649 27.6108 13.6646 27.6264C13.6958 27.6889 13.7114 27.7513 13.7427 27.7982C13.7583 27.8294 13.7583 27.845 13.7739 27.8763C13.7895 27.9387 13.8207 27.9856 13.8364 28.048C13.852 28.0793 13.852 28.0949 13.8676 28.1261C13.8988 28.2042 13.9144 28.2823 13.9457 28.3448V28.3604C13.9769 28.4385 13.9925 28.5165 14.0238 28.6102C14.0394 28.6415 14.0394 28.6571 14.0394 28.6883C14.055 28.7508 14.0706 28.7977 14.0862 28.8601C14.1018 28.8914 14.1018 28.9226 14.1175 28.9538C14.1331 29.0007 14.1487 29.0631 14.1487 29.11C14.1487 29.1412 14.1643 29.1725 14.1643 29.2037C14.1799 29.2505 14.1955 29.313 14.1955 29.3599C14.1955 29.3911 14.2112 29.4223 14.2112 29.4379C14.2268 29.5004 14.2424 29.5785 14.2424 29.641C14.2424 29.6566 14.2424 29.6566 14.2424 29.6722C14.258 29.7503 14.2736 29.8284 14.2736 29.9064C14.2736 29.9221 14.2736 29.9533 14.2736 29.9689C14.2736 30.0314 14.2892 30.0782 14.2892 30.1407C14.2892 30.1719 14.2892 30.1876 14.2892 30.2188C14.2892 30.2656 14.2892 30.3281 14.3049 30.375C14.3049 30.4062 14.3049 30.4218 14.3049 30.453C14.3049 30.5311 14.3049 30.6092 14.3049 30.6873C14.3049 30.7654 14.3049 30.8435 14.3049 30.9215C14.3049 30.9372 14.3049 30.9684 14.3049 30.984C14.3049 31.0309 14.3049 31.0933 14.2892 31.1402C14.2892 31.1714 14.2892 31.2026 14.2736 31.2339C14.2736 31.2807 14.258 31.3276 14.258 31.3588C14.258 31.3901 14.2424 31.4213 14.2424 31.4525C14.2424 31.4838 14.2268 31.5306 14.2268 31.5618C14.2268 31.5931 14.2112 31.6243 14.2112 31.6555C14.2112 31.6868 14.1955 31.718 14.1955 31.7492C14.1799 31.7961 14.1799 31.8273 14.1643 31.8586C14.1487 31.8898 14.1487 31.921 14.1331 31.9523C14.1175 31.9991 14.1018 32.046 14.0862 32.0928C14.0706 32.124 14.0706 32.1397 14.055 32.1709C14.0238 32.249 13.9925 32.3114 13.9613 32.3895C13.9613 32.3895 13.9613 32.4051 13.9457 32.4051C13.8988 32.4988 13.852 32.5769 13.8051 32.6706C13.8051 32.6706 13.8051 32.6863 13.7895 32.6863C13.7427 32.7487 13.6958 32.8112 13.649 32.8737C13.6333 32.8893 13.6333 32.9049 13.6177 32.9205C13.5709 32.983 13.524 33.0298 13.4772 33.0767C13.4772 33.0767 13.4772 33.0767 13.4615 33.0923C13.4147 33.1391 13.3522 33.186 13.2898 33.2328C13.2741 33.2485 13.2585 33.2485 13.2429 33.2641C13.1804 33.3109 13.118 33.3578 13.0555 33.389L14.7421 32.4051C14.8046 32.3739 14.8671 32.3271 14.9295 32.2802C14.9452 32.2646 14.9608 32.2646 14.9764 32.249C15.0389 32.2021 15.0857 32.1553 15.1482 32.1084C15.1482 32.1084 15.1482 32.1084 15.1638 32.0928C15.2106 32.046 15.2575 31.9835 15.3043 31.9366C15.32 31.921 15.3356 31.9054 15.3356 31.8898C15.3824 31.8273 15.4293 31.7649 15.4761 31.7024C15.4761 31.7024 15.4761 31.6868 15.4917 31.6868C15.5386 31.6087 15.5854 31.515 15.6323 31.4213C15.6323 31.4213 15.6323 31.4057 15.6479 31.4057C15.6791 31.3432 15.7104 31.2651 15.7416 31.187V31.1714C15.7416 31.1558 15.7572 31.1402 15.7572 31.1246C15.7728 31.0777 15.7885 31.0309 15.8041 30.984C15.8041 30.9684 15.8197 30.9528 15.8197 30.9528C15.8197 30.9372 15.8353 30.9215 15.8353 30.9059C15.8509 30.8747 15.8509 30.8278 15.8665 30.7966C15.8665 30.781 15.8822 30.7654 15.8822 30.7498C15.8822 30.7341 15.8822 30.7185 15.8978 30.7029C15.8978 30.6717 15.9134 30.6404 15.9134 30.6092C15.9134 30.5936 15.9134 30.578 15.929 30.5624C15.929 30.5467 15.929 30.5155 15.9446 30.4999C15.9446 30.4687 15.9602 30.4374 15.9602 30.4062C15.9602 30.3906 15.9602 30.375 15.9602 30.3593C15.9602 30.3281 15.9602 30.3125 15.9759 30.2813C15.9759 30.25 15.9759 30.2188 15.9915 30.1876C15.9915 30.1719 15.9915 30.1719 15.9915 30.1563C15.9915 30.1095 15.9915 30.0782 15.9915 30.0314C15.9915 30.0158 15.9915 29.9845 15.9915 29.9689V29.9533C15.9915 29.8908 15.9915 29.8127 15.9915 29.7503V29.7347C16.0383 29.7034 16.0383 29.641 16.0383 29.5785Z" fill="url(#paint7_linear_424_1303)"/>
<path d="M13.1328 33.4531C14.7808 32.4953 14.7747 29.4095 13.1191 26.5609C11.4635 23.7123 8.78537 22.1795 7.13734 23.1373C5.48931 24.0951 5.49545 27.1809 7.15106 30.0295C8.80666 32.8781 11.4848 34.4109 13.1328 33.4531Z" fill="white"/>
<path d="M12.009 33.9824C11.3843 33.9824 10.6972 33.7793 9.99442 33.3733C7.60504 31.9834 5.65293 28.6258 5.66855 25.8616C5.66855 24.4873 6.15267 23.4566 7.0116 22.9569C7.0116 22.9569 7.0116 22.9569 7.02722 22.9569L8.71384 21.973C8.77631 21.9418 8.82316 21.9105 8.88562 21.8793L8.93248 21.8637C8.99494 21.8324 9.02618 21.8168 9.07303 21.8012C9.11988 21.7856 9.13549 21.7856 9.15111 21.77L9.24481 21.7387C9.29166 21.7231 9.33851 21.7231 9.36975 21.7075H9.40098C9.4166 21.7075 9.4166 21.7075 9.43222 21.7075C9.5103 21.6919 9.58838 21.6763 9.65085 21.6763C9.66647 21.6763 9.66647 21.6763 9.68209 21.6763H9.71332C9.77579 21.6763 9.82264 21.6763 9.86949 21.6763C9.90072 21.6763 9.90072 21.6763 9.91634 21.6763H9.94757C9.99442 21.6763 10.0257 21.6763 10.0725 21.6763H10.135C10.135 21.6763 10.1506 21.6763 10.1662 21.6763C10.1974 21.6763 10.2287 21.6763 10.2599 21.6919H10.2911C10.3068 21.6919 10.3224 21.6919 10.338 21.6919H10.3692C10.4005 21.6919 10.4161 21.6919 10.4473 21.7075H10.4785L10.5566 21.7231H10.5879L10.9314 21.8012C10.9471 21.8012 10.9783 21.8168 11.0095 21.8168L11.1032 21.8481H11.1188C11.1813 21.8637 11.2438 21.8949 11.3062 21.9105C11.3687 21.9418 11.4312 21.9574 11.478 21.9886C11.478 21.9886 11.4936 22.0042 11.5093 22.0042L11.6967 22.0979L11.7123 22.1135L11.8372 22.176C11.8841 22.2072 11.9309 22.2229 11.9778 22.2541L12.0246 22.2853C12.0871 22.3166 12.1339 22.3478 12.1964 22.3946C12.1964 22.3946 12.212 22.3946 12.212 22.4103C12.2745 22.4571 12.337 22.4883 12.3994 22.5352L12.415 22.5508L12.5868 22.6757L12.6024 22.6914L13.0241 23.0349C13.0553 23.0662 13.0866 23.0818 13.1178 23.113L13.6956 23.6752L13.7112 23.6908L13.8674 23.8626C13.9299 23.9407 13.9923 24.0032 14.0392 24.0657L14.0548 24.0813C14.1173 24.1437 14.1641 24.2062 14.211 24.2687C14.3671 24.4717 14.5077 24.6591 14.6482 24.8777L14.6795 24.9246C14.6795 24.9246 14.6951 24.9402 14.6951 24.9558C14.7888 25.112 14.8825 25.2525 14.9762 25.4087L14.9918 25.4399L15.0074 25.4712C15.0699 25.5805 15.1324 25.6898 15.1948 25.7991L15.3198 26.049L15.3354 26.0802C15.3666 26.1271 15.3822 26.1739 15.3979 26.2208L15.4291 26.2989C15.4603 26.3769 15.4916 26.4394 15.5228 26.5175L15.5384 26.5331L15.7727 27.1109L15.7883 27.1422C15.8195 27.2046 15.8351 27.2671 15.8507 27.3452V27.3608C15.882 27.4389 15.8976 27.517 15.9288 27.5951V27.6107L16.1475 28.5008C16.1631 28.5633 16.1631 28.6258 16.1787 28.6882V28.7195C16.1943 28.7976 16.1943 28.86 16.2099 28.9381V28.9693L16.2568 29.5784C16.2568 29.6409 16.2568 29.7033 16.2568 29.7814C16.2568 29.8595 16.2568 29.9376 16.2568 30.0001V30.1094C16.2568 30.1406 16.2568 30.1718 16.2568 30.2031C16.2568 30.2031 16.2568 30.2187 16.2568 30.2343L16.1943 30.6716C16.1787 30.7184 16.1787 30.7653 16.1631 30.7965L16.1475 30.8902C16.1319 30.9527 16.1162 30.9839 16.1162 31.0308L16.1006 31.0932L16.085 31.1245C16.0694 31.1869 16.0538 31.2338 16.0381 31.2806L16.0225 31.3431C16.0225 31.3431 16.0069 31.3587 16.0069 31.3743C15.9757 31.4524 15.9444 31.5305 15.9132 31.6086L15.8976 31.6398C15.8507 31.7335 15.8039 31.8272 15.7414 31.9053L15.7258 31.9366C15.679 31.999 15.6321 32.0615 15.5853 32.1396L15.5384 32.1864C15.4916 32.2489 15.4291 32.3114 15.3822 32.3582C15.3042 32.4363 15.2417 32.4831 15.1792 32.53L15.1324 32.5612C15.0699 32.6081 14.9918 32.6549 14.9294 32.7018L13.2427 33.6856C13.2427 33.6856 13.2271 33.6856 13.2271 33.7013C12.8523 33.873 12.4463 33.9824 12.009 33.9824ZM7.26147 23.3473C6.54309 23.7689 6.13706 24.6591 6.13706 25.8616C6.13706 28.4696 7.96423 31.6554 10.2287 32.9516C11.2906 33.5763 12.2901 33.67 13.0241 33.2328C13.0397 33.2328 13.0397 33.2171 13.0553 33.2171L14.6951 32.2645C14.7576 32.2333 14.8044 32.1864 14.8669 32.1552L14.9137 32.124C14.9606 32.0771 15.0231 32.0459 15.0699 31.999C15.1324 31.9366 15.1636 31.8897 15.2105 31.8428L15.2417 31.796C15.2885 31.7491 15.3198 31.6867 15.3666 31.6242L15.3822 31.6086C15.4291 31.5305 15.4759 31.4524 15.5072 31.3743C15.5072 31.3743 15.5072 31.3587 15.5228 31.3587C15.554 31.2806 15.5853 31.2182 15.6009 31.1557L15.6165 31.1401L15.6321 31.0932C15.6477 31.0464 15.6633 31.0152 15.679 30.9683C15.679 30.9683 15.679 30.9371 15.6946 30.9371L15.7102 30.8746C15.7258 30.8434 15.7258 30.7965 15.7414 30.7653V30.7341L15.757 30.6716C15.757 30.6403 15.7727 30.6091 15.7727 30.5779V30.5467V30.531L15.7883 30.3905V30.3592L15.8039 30.1875L16.0381 30.1718L15.8039 30.1562L15.8195 29.9844C15.8195 29.9064 15.8195 29.8439 15.8195 29.7814C15.8195 29.7033 15.8195 29.6409 15.8195 29.594H16.0538H15.8195L15.7727 29.0318C15.7727 29.0318 15.7727 29.0162 15.7727 29.0006C15.757 28.9381 15.757 28.86 15.7414 28.7976L15.9601 28.7195L15.7258 28.7507C15.7102 28.6882 15.7102 28.6414 15.6946 28.5789L15.9132 28.5008L15.679 28.5477L15.5384 27.9699L15.5228 27.923L15.4603 27.7356C15.4291 27.6419 15.4135 27.5638 15.3822 27.5014C15.351 27.4233 15.3354 27.3608 15.3042 27.2983L15.5072 27.189L15.2885 27.2671L15.2729 27.2203L15.2573 27.2046L15.0699 26.7205L15.2729 26.6112L15.0543 26.7049C15.0231 26.6424 14.9918 26.5643 14.9606 26.5019L14.9294 26.4394C14.8981 26.3769 14.8825 26.3301 14.8513 26.2832L15.0543 26.1583L14.8513 26.2676L14.742 26.049C14.6795 25.9241 14.617 25.8147 14.5545 25.7054L14.742 25.5649L14.5389 25.6898L14.5233 25.6586C14.4296 25.518 14.3515 25.3618 14.2578 25.2213L14.2422 25.2057L14.211 25.1744C14.0704 24.9714 13.9455 24.784 13.8049 24.6122C13.7581 24.5498 13.7112 24.4873 13.6644 24.4405L13.8206 24.2687L13.6332 24.4248C13.5863 24.3624 13.5238 24.2999 13.477 24.2374L12.9616 23.6908L12.946 23.6752L12.7586 23.5034C12.7274 23.4722 12.6961 23.4566 12.6805 23.4254L12.2901 23.113L12.2745 23.0974L12.1652 23.0193L12.1496 23.0037L12.1027 22.9725C12.0246 22.9256 11.9778 22.8788 11.9153 22.8475C11.8528 22.8007 11.806 22.7695 11.7435 22.7382L11.6967 22.7226C11.6498 22.6914 11.603 22.6757 11.5717 22.6445L11.275 22.4883L11.3531 22.2697L11.2594 22.4883C11.1969 22.4571 11.1501 22.4415 11.1032 22.4259C11.0564 22.4103 10.9939 22.379 10.9471 22.3634L10.7909 22.3166L10.744 22.3009L10.6816 22.2853H10.6503L10.4942 22.2541C10.4942 22.2541 10.4785 22.2541 10.4629 22.2541L10.3068 22.2229V21.9886L10.2755 22.2229H10.2131C10.1818 22.2229 10.1506 22.2229 10.135 22.2072H10.1037H10.0413C10.01 22.2072 9.97881 22.2072 9.94757 22.2072C9.94757 22.2072 9.93195 22.2072 9.91634 22.2072H9.86949C9.82264 22.2072 9.7914 22.2072 9.74455 22.2072H9.71332H9.68209C9.61962 22.2072 9.55715 22.2229 9.5103 22.2385H9.49468L9.46345 22.2541C9.43221 22.2541 9.40098 22.2697 9.35413 22.2853H9.3229L9.29166 22.3009L9.2292 22.3166C9.18234 22.3322 9.15111 22.3478 9.11988 22.3634C9.11988 22.3634 9.10426 22.379 9.08864 22.379L9.05741 22.3946C9.01056 22.4103 8.96371 22.4415 8.91686 22.4727L7.26147 23.3473C7.26147 23.3317 7.26147 23.3473 7.26147 23.3473Z" fill="#444444"/>
<path d="M10.1356 25.7834C8.93308 25.0806 7.94922 25.6429 7.94922 27.0328C7.94922 28.4227 8.91746 30.1093 10.12 30.812C11.3225 31.5148 12.3063 30.9526 12.3063 29.5627C12.3219 28.1728 11.3381 26.4862 10.1356 25.7834Z" fill="url(#paint8_linear_424_1303)"/>
</g>
<defs>
<linearGradient id="paint0_linear_424_1303" x1="34.5944" y1="66.4201" x2="57.5205" y2="66.4201" gradientUnits="userSpaceOnUse">
<stop stop-color="#2BBBE6"/>
<stop offset="0.9944" stop-color="#3281C4"/>
</linearGradient>
<linearGradient id="paint1_linear_424_1303" x1="34.7451" y1="82.9352" x2="57.5202" y2="82.9352" gradientUnits="userSpaceOnUse">
<stop stop-color="#2BBBE6"/>
<stop offset="0.9944" stop-color="#3281C4"/>
</linearGradient>
<linearGradient id="paint2_linear_424_1303" x1="0.234875" y1="53.1935" x2="32.138" y2="53.1935" gradientUnits="userSpaceOnUse">
<stop stop-color="#EDE0E3"/>
<stop offset="1" stop-color="#DCC2B6"/>
</linearGradient>
<linearGradient id="paint3_linear_424_1303" x1="6.72645" y1="7.11273" x2="9.94077" y2="7.11273" gradientUnits="userSpaceOnUse">
<stop stop-color="#EDE0E3"/>
<stop offset="1" stop-color="#DCC2B6"/>
</linearGradient>
<linearGradient id="paint4_linear_424_1303" x1="3.50117" y1="7.11274" x2="6.73646" y2="7.11274" gradientUnits="userSpaceOnUse">
<stop stop-color="#EDE0E3"/>
<stop offset="1" stop-color="#DCC2B6"/>
</linearGradient>
<linearGradient id="paint5_linear_424_1303" x1="16.2057" y1="5.31102" x2="18.8924" y2="5.31102" gradientUnits="userSpaceOnUse">
<stop stop-color="#EDE0E3"/>
<stop offset="1" stop-color="#DCC2B6"/>
</linearGradient>
<radialGradient id="paint6_radial_424_1303" cx="0" cy="0" r="1" gradientUnits="userSpaceOnUse" gradientTransform="translate(15.8784 0.895937) scale(1.05846)">
<stop stop-color="white"/>
<stop offset="1" stop-color="#FDF21C"/>
</radialGradient>
<linearGradient id="paint7_linear_424_1303" x1="7.13503" y1="27.6685" x2="16.0406" y2="27.6685" gradientUnits="userSpaceOnUse">
<stop stop-color="#EDE0E3"/>
<stop offset="1" stop-color="#DCC2B6"/>
</linearGradient>
<linearGradient id="paint8_linear_424_1303" x1="7.94631" y1="28.2994" x2="12.3157" y2="28.2994" gradientUnits="userSpaceOnUse">
<stop stop-color="#EDE0E3"/>
<stop offset="1" stop-color="#DCC2B6"/>
</linearGradient>
<clipPath id="clip0_424_1303">
<rect width="57.7512" height="90" fill="white"/>
</clipPath>
</defs>
</svg>
