<svg width="62" height="62" viewBox="0 0 62 62" fill="none" xmlns="http://www.w3.org/2000/svg">
<path fill-rule="evenodd" clip-rule="evenodd" d="M21.8802 6.88059C22.2435 6.51776 22.7359 6.31396 23.2494 6.31396C23.7628 6.31396 24.2552 6.51776 24.6185 6.88059L29.7852 12.0473C30.0558 12.3182 30.2401 12.6633 30.3147 13.0389C30.3893 13.4145 30.3509 13.8038 30.2044 14.1576C30.0579 14.5115 29.8098 14.8139 29.4915 15.0269C29.1732 15.2398 28.799 15.3536 28.416 15.3539H23.2494C18.9672 15.3539 14.8605 17.055 11.8325 20.0829C8.80459 23.1109 7.10352 27.2176 7.10352 31.4998C7.10352 35.7819 8.80459 39.8887 11.8325 42.9166C14.8605 45.9445 18.9672 47.6456 23.2494 47.6456H24.541C25.0549 47.6456 25.5477 47.8497 25.911 48.2131C26.2744 48.5764 26.4785 49.0692 26.4785 49.5831C26.4785 50.097 26.2744 50.5898 25.911 50.9531C25.5477 51.3165 25.0549 51.5206 24.541 51.5206H23.2494C17.9395 51.5206 12.8471 49.4113 9.09248 45.6566C5.33785 41.902 3.22852 36.8096 3.22852 31.4998C3.22852 26.1899 5.33785 21.0975 9.09248 17.3429C12.8471 13.5883 17.9395 11.4789 23.2494 11.4789H23.7402L21.8802 9.61893C21.5174 9.25564 21.3136 8.7632 21.3136 8.24976C21.3136 7.73632 21.5174 7.24388 21.8802 6.88059ZM35.5202 13.4164C35.5202 12.9026 35.7243 12.4098 36.0877 12.0464C36.451 11.6831 36.9438 11.4789 37.4577 11.4789H38.7494C44.0592 11.4789 49.1516 13.5883 52.9062 17.3429C56.6609 21.0975 58.7702 26.1899 58.7702 31.4998C58.7702 36.8096 56.6609 41.902 52.9062 45.6566C49.1516 49.4113 44.0592 51.5206 38.7494 51.5206H38.2585L40.1185 53.3806C40.3089 53.558 40.4616 53.7719 40.5675 54.0095C40.6733 54.2472 40.7303 54.5038 40.7349 54.7639C40.7395 55.0241 40.6916 55.2825 40.5942 55.5237C40.4967 55.765 40.3517 55.9841 40.1677 56.1681C39.9837 56.3521 39.7646 56.4971 39.5233 56.5946C39.2821 56.692 39.0237 56.7399 38.7635 56.7353C38.5034 56.7307 38.2468 56.6738 38.0091 56.5679C37.7715 56.462 37.5576 56.3093 37.3802 56.1189L32.2135 50.9523C31.9429 50.6813 31.7586 50.3362 31.684 49.9606C31.6094 49.585 31.6478 49.1957 31.7943 48.8419C31.9408 48.4881 32.1889 48.1856 32.5072 47.9727C32.8255 47.7597 33.1997 47.6459 33.5827 47.6456H38.7494C43.0315 47.6456 47.1383 45.9445 50.1662 42.9166C53.1941 39.8887 54.8952 35.7819 54.8952 31.4998C54.8952 27.2176 53.1941 23.1109 50.1662 20.0829C47.1383 17.055 43.0315 15.3539 38.7494 15.3539H37.4577C36.9438 15.3539 36.451 15.1498 36.0877 14.7864C35.7243 14.4231 35.5202 13.9303 35.5202 13.4164ZM31.7408 24.5428C32.0948 24.6895 32.3975 24.9379 32.6104 25.2565C32.8233 25.5752 32.9369 25.9498 32.9369 26.3331V36.6664C32.9369 37.1803 32.7327 37.6731 32.3694 38.0364C32.006 38.3998 31.5132 38.6039 30.9994 38.6039C30.4855 38.6039 29.9927 38.3998 29.6293 38.0364C29.266 37.6731 29.0619 37.1803 29.0619 36.6664V31.0089L28.4935 31.5773C28.3161 31.7676 28.1022 31.9203 27.8646 32.0262C27.6269 32.1321 27.3703 32.189 27.1102 32.1936C26.8501 32.1982 26.5916 32.1504 26.3504 32.0529C26.1091 31.9555 25.89 31.8104 25.706 31.6264C25.522 31.4425 25.377 31.2233 25.2795 30.9821C25.1821 30.7408 25.1342 30.4824 25.1388 30.2222C25.1434 29.9621 25.2004 29.7055 25.3062 29.4679C25.4121 29.2302 25.5648 29.0163 25.7552 28.8389L29.6302 24.9639C29.901 24.693 30.246 24.5083 30.6216 24.4334C30.9973 24.3584 31.3867 24.3965 31.7408 24.5428Z" fill="white"/>
</svg>
