<svg width="62" height="62" viewBox="0 0 62 62" fill="none" xmlns="http://www.w3.org/2000/svg">
<path d="M28.4173 46.0002H27.9173H10.3345C8.41212 45.9982 6.56904 45.2337 5.20973 43.8744C3.85047 42.5152 3.08597 40.6722 3.08398 38.7499V10.3338C3.08597 8.41148 3.85047 6.5685 5.20973 5.20924C6.56899 3.84998 8.41197 3.08548 10.3342 3.0835H51.6671C53.5893 3.08548 55.4323 3.84998 56.7916 5.20924C58.1509 6.56855 58.9154 8.41163 58.9173 10.334V38.7497C58.9154 40.672 58.1509 42.5151 56.7916 43.8744C55.4323 45.2337 53.5892 45.9982 51.6668 46.0002H34.084H33.584H28.4173ZM34.084 54.7502H40.834V58.9168H21.1673V54.7502H27.9173H28.4173H33.584H34.084ZM33.084 47.0002V53.7502H28.9173V47.0002H33.084ZM10.334 7.25016C9.51623 7.25016 8.73198 7.57501 8.15374 8.15325C7.5755 8.73149 7.25065 9.51575 7.25065 10.3335V38.7502C7.25065 39.5679 7.5755 40.3522 8.15374 40.9304C8.73198 41.5086 9.51623 41.8335 10.334 41.8335H51.6673C52.4851 41.8335 53.2693 41.5086 53.8476 40.9304C54.4258 40.3522 54.7506 39.5679 54.7506 38.7502V10.3335C54.7506 9.51575 54.4258 8.73149 53.8476 8.15325C53.2693 7.57501 52.4851 7.25016 51.6673 7.25016H10.334Z" fill="white" stroke="#22366E"/>
<path d="M41.3625 37.1093L36.8671 22.1248L36.3424 20.3757L35.9029 22.1482L33.4519 32.0334L30.6594 25.6335L30.5285 25.3335H30.2011H29.346H28.9879L28.8726 25.6725L25.8751 34.4887L23.3247 25.5236L22.9726 24.2859L22.3966 25.4366L21.1554 27.9168H13.416V26.3335H19.8678H20.1951L20.326 26.0335L23.1525 19.5557L25.5278 27.8136L25.9728 29.3606L26.4826 27.8338L27.8462 23.7502H31.4887L32.6086 25.9875L33.2588 27.2866L33.5458 25.8625L36.2183 12.6043L40.8476 31.1214L41.2736 32.8254L41.8089 31.1525L43.351 26.3335H48.5827V27.9168H44.846H44.4879L44.3726 28.2559L41.3625 37.1093Z" fill="white" stroke="#22366E"/>
</svg>
