<svg width="62" height="63" viewBox="0 0 62 63" fill="none" xmlns="http://www.w3.org/2000/svg">
<path d="M42.4506 18.4375H43.0432L42.9435 17.8534C42.623 15.976 41.8655 14.2004 40.732 12.6699C39.5985 11.1394 38.1209 9.89702 36.4186 9.04308L35.3322 8.49809L35.7207 9.6498C36.6246 12.3298 37.1322 15.1275 37.2273 17.9543L37.2435 18.4375H37.727H42.4506ZM31.0426 31.9981H31.1275L31.2076 31.9701C31.41 31.8993 31.58 31.7482 31.712 31.6042C31.8545 31.4487 32 31.2483 32.145 31.0112C32.4357 30.5358 32.747 29.8759 33.042 29.0408C33.633 27.3681 34.1708 24.9581 34.3377 21.8392L34.3659 21.3125H33.8384H28.1616H27.6341L27.6623 21.8392C27.8292 24.9601 28.3695 27.372 28.9712 29.0462C29.2716 29.882 29.5907 30.5434 29.8927 31.0201C30.0434 31.2579 30.1958 31.4593 30.3467 31.6153C30.4886 31.762 30.6672 31.9087 30.8766 31.9749L30.9501 31.9981H31.0271H31.0426ZM27.6623 17.9108L27.6341 18.4375H28.1616H33.8384H34.3659L34.3377 17.9108C34.1708 14.7899 33.6305 12.378 33.0288 10.7038C32.7284 9.86799 32.4093 9.20662 32.1073 8.72991C31.9566 8.49205 31.8042 8.29069 31.6533 8.1347C31.5114 7.98798 31.3328 7.84126 31.1234 7.77515L31.0499 7.75194H30.9729H30.9574H30.8725L30.7924 7.77994C30.59 7.85068 30.4199 8.00176 30.288 8.14581C30.1455 8.30128 30 8.50171 29.855 8.73884C29.5643 9.21425 29.253 9.87415 28.958 10.7092C28.367 12.3819 27.8292 14.7919 27.6623 17.9108ZM26.2812 9.64991L26.67 8.49825L25.5834 9.04303C23.8807 9.89673 22.4027 11.139 21.2689 12.6695C20.1351 14.2 19.3772 15.9758 19.0565 17.8533L18.9567 18.4375H19.5494H24.273H24.7564L24.7727 17.9544C24.8684 15.1276 25.3766 12.3298 26.2812 9.64991ZM19.5494 21.3125H18.9568L19.0565 21.8966C19.377 23.774 20.1345 25.5496 21.268 27.0801C22.4015 28.6106 23.879 29.853 25.5814 30.7069L26.6682 31.2521L26.2793 30.1001C25.3747 27.4202 24.8665 24.6224 24.7708 21.7956L24.7544 21.3125H24.2711H19.5494ZM35.7188 30.1001L35.33 31.2518L36.4166 30.707C38.1193 29.8533 39.5973 28.611 40.7311 27.0805C41.8649 25.55 42.6228 23.7742 42.9435 21.8967L43.0433 21.3125H42.4506H37.727H37.2436L37.2273 21.7956C37.1316 24.6224 36.6234 27.4202 35.7188 30.1001ZM7.75 42.625H7.25V43.125V54.75V55.25H7.75H54.25H54.75V54.75V43.125V42.625H54.25H7.75ZM22.6664 7.40296C25.1331 5.75479 28.0331 4.87506 30.9997 4.875C34.9765 4.88004 38.7889 6.46205 41.6009 9.27406C44.413 12.0861 45.995 15.8987 46 19.8756C45.9999 22.8421 45.1202 25.742 43.472 28.2086C41.8238 30.6753 39.4811 32.5979 36.7403 33.7332C33.9994 34.8685 30.9834 35.1656 28.0736 34.5868C25.1639 34.008 22.4912 32.5794 20.3934 30.4816C18.2956 28.3838 16.867 25.7111 16.2882 22.8014C15.7094 19.8916 16.0065 16.8756 17.1418 14.1347C18.2771 11.3939 20.1997 9.05118 22.6664 7.40296ZM5.36465 57.1354C4.73187 56.5026 4.37595 55.6446 4.375 54.7497V43.1253C4.37595 42.2304 4.73187 41.3724 5.36465 40.7396C5.99748 40.1068 6.85554 39.7509 7.7505 39.75H54.2495C55.1445 39.7509 56.0025 40.1068 56.6354 40.7396C57.2682 41.3725 57.6241 42.2305 57.625 43.1255V54.7495C57.6241 55.6445 57.2682 56.5025 56.6354 57.1354C56.0025 57.7682 55.1445 58.1241 54.2495 58.125H7.7505C6.85554 58.1241 5.99748 57.7682 5.36465 57.1354Z" fill="white" stroke="#22366E"/>
<path d="M13.5625 50.875C14.6326 50.875 15.5 50.0076 15.5 48.9375C15.5 47.8674 14.6326 47 13.5625 47C12.4924 47 11.625 47.8674 11.625 48.9375C11.625 50.0076 12.4924 50.875 13.5625 50.875Z" fill="white"/>
</svg>
