<svg width="62" height="63" viewBox="0 0 62 63" fill="none" xmlns="http://www.w3.org/2000/svg">
<path d="M9.04102 12.3335C8.41113 12.3335 7.80704 12.5837 7.36164 13.0291C6.91624 13.4745 6.66602 14.0786 6.66602 14.7085V48.2918C6.66602 48.9217 6.91624 49.5258 7.36164 49.9712L7.71519 49.6177L7.36164 49.9712C7.80704 50.4166 8.41113 50.6668 9.04102 50.6668H30.9994C31.8278 50.6668 32.4994 51.3384 32.4994 52.1668C32.4994 52.9953 31.8278 53.6668 30.9994 53.6668H9.04102C7.61548 53.6668 6.24832 53.1005 5.24032 52.0925C4.23231 51.0845 3.66602 49.7174 3.66602 48.2918V14.7085C3.66602 13.283 4.23231 11.9158 5.24032 10.9078C6.24833 9.89979 7.61548 9.3335 9.04102 9.3335H52.9577C54.3832 9.3335 55.7504 9.89979 56.7584 10.9078C57.7664 11.9158 58.3327 13.283 58.3327 14.7085V30.2847C58.3327 31.1131 57.6611 31.7847 56.8327 31.7847C56.0043 31.7847 55.3327 31.1131 55.3327 30.2847V14.7085C55.3327 14.0786 55.0825 13.4745 54.6371 13.0291C54.1917 12.5837 53.5876 12.3335 52.9577 12.3335H9.04102Z" fill="white" stroke="#22366E" stroke-linecap="round" stroke-linejoin="round"/>
<path d="M6.66602 24.3335V24.8335H7.16602H54.8327H55.3327V24.3335V14.7085C55.3327 14.0786 55.0825 13.4745 54.6371 13.0291C54.1917 12.5837 53.5876 12.3335 52.9577 12.3335H9.04102C8.41113 12.3335 7.80704 12.5837 7.36164 13.0291C6.91624 13.4745 6.66602 14.0786 6.66602 14.7085V24.3335ZM5.24032 10.9078C6.24833 9.89979 7.61548 9.3335 9.04102 9.3335H52.9577C54.3832 9.3335 55.7504 9.89979 56.7584 10.9078C57.7664 11.9158 58.3327 13.283 58.3327 14.7085V27.8335H3.66602V14.7085C3.66602 13.283 4.23231 11.9158 5.24032 10.9078Z" fill="white" stroke="#22366E"/>
<path d="M12.9167 16.5003C11.7661 16.5003 10.8333 17.4331 10.8333 18.5837C10.8333 19.7343 11.7661 20.667 12.9167 20.667C14.0673 20.667 15 19.7343 15 18.5837C15 17.4331 14.0673 16.5003 12.9167 16.5003Z" fill="white" stroke="#22366E"/>
<path d="M20.6667 16.5003C19.5161 16.5003 18.5833 17.4331 18.5833 18.5837C18.5833 19.7343 19.5161 20.667 20.6667 20.667C21.8173 20.667 22.75 19.7343 22.75 18.5837C22.75 17.4331 21.8173 16.5003 20.6667 16.5003Z" fill="white" stroke="#22366E"/>
<path d="M47.791 42.042C46.4793 42.042 45.416 43.1053 45.416 44.417C45.416 45.7287 46.4793 46.792 47.791 46.792C49.1027 46.792 50.166 45.7287 50.166 44.417C50.166 43.1053 49.1027 42.042 47.791 42.042ZM42.416 44.417C42.416 41.4485 44.8225 39.042 47.791 39.042C50.7595 39.042 53.166 41.4485 53.166 44.417C53.166 47.3855 50.7595 49.792 47.791 49.792C44.8225 49.792 42.416 47.3855 42.416 44.417Z" fill="white" stroke="#22366E"/>
<path d="M49.2367 40.9449C49.1803 41.1476 49.257 41.3618 49.4244 41.4833C49.2352 41.3991 49.011 41.4399 48.8637 41.5905C48.5908 41.8695 48.2116 42.0417 47.7914 42.0417C47.3711 42.0417 46.9919 41.8695 46.719 41.5905C46.5717 41.4399 46.3475 41.3991 46.1584 41.4833C46.3257 41.3618 46.4024 41.1476 46.346 40.9449C46.3105 40.8172 46.2914 40.6821 46.2914 40.5417V35.375C46.2914 34.5466 46.9629 33.875 47.7914 33.875C48.6198 33.875 49.2914 34.5466 49.2914 35.375V40.5417C49.2914 40.6821 49.2722 40.8172 49.2367 40.9449ZM49.7026 42.0749C49.7594 41.872 49.6827 41.6574 49.5151 41.5357C49.704 41.6199 49.9279 41.5793 50.0753 41.4291C50.1681 41.3344 50.2755 41.2503 50.3971 41.1801L54.8714 38.5968C55.5889 38.1826 56.5062 38.4284 56.9205 39.1458C57.3347 39.8633 57.0889 40.7806 56.3715 41.1949L51.8971 43.7782C51.7755 43.8484 51.6489 43.8994 51.5205 43.9325C51.3172 43.9849 51.1703 44.1577 51.1481 44.3627C51.126 44.1575 50.9787 43.9844 50.7751 43.9323C50.397 43.8355 50.0582 43.5932 49.8481 43.2292C49.6379 42.8652 49.5975 42.4507 49.7026 42.0749ZM50.7751 44.901C50.9787 44.8489 51.126 44.6759 51.1481 44.4706C51.1703 44.6756 51.3172 44.8485 51.5205 44.9009C51.6489 44.9339 51.7755 44.9849 51.8971 45.0551L56.3715 47.6385C57.0889 48.0527 57.3347 48.9701 56.9205 49.6875C56.5062 50.405 55.5889 50.6508 54.8714 50.2365L50.3971 47.6532C50.2755 47.583 50.1681 47.4989 50.0753 47.4043C49.9279 47.2541 49.704 47.2134 49.5151 47.2976C49.6827 47.1759 49.7594 46.9613 49.7026 46.7584C49.5975 46.3826 49.6379 45.9681 49.8481 45.6042C50.0582 45.2401 50.397 44.9979 50.7751 44.901ZM48.8637 47.2428C49.011 47.3934 49.2352 47.4343 49.4244 47.35C49.257 47.4715 49.1803 47.6857 49.2367 47.8884C49.2722 48.0162 49.2914 48.1513 49.2914 48.2917V53.4583C49.2914 54.2868 48.6198 54.9583 47.7914 54.9583C46.9629 54.9583 46.2914 54.2868 46.2914 53.4583V48.2917C46.2914 48.1513 46.3105 48.0162 46.346 47.8884C46.4024 47.6857 46.3257 47.4715 46.1584 47.35C46.3475 47.4343 46.5717 47.3934 46.719 47.2428C46.9919 46.9639 47.3711 46.7917 47.7914 46.7917C48.2116 46.7917 48.5908 46.9639 48.8637 47.2428ZM45.8801 46.7584C45.8233 46.9613 45.9001 47.1759 46.0676 47.2976C45.8787 47.2134 45.6548 47.2541 45.5074 47.4043C45.4146 47.4989 45.3072 47.583 45.1856 47.6532L40.7113 50.2365C39.9939 50.6508 39.0765 50.405 38.6622 49.6875C38.248 48.9701 38.4938 48.0527 39.2113 47.6385L43.6856 45.0551C43.8072 44.9849 43.9338 44.9339 44.0623 44.9009C44.2655 44.8485 44.4124 44.6756 44.4346 44.4706C44.4568 44.6759 44.604 44.8489 44.8076 44.901C45.1857 44.9979 45.5245 45.2401 45.7346 45.6042C45.9448 45.9681 45.9852 46.3826 45.8801 46.7584ZM44.4346 44.3627C44.4124 44.1577 44.2655 43.9849 44.0623 43.9325C43.9338 43.8994 43.8072 43.8484 43.6856 43.7782L39.2113 41.1949C38.4938 40.7806 38.248 39.8633 38.6622 39.1458C39.0765 38.4284 39.9939 38.1826 40.7113 38.5968L45.1856 41.1801C45.3072 41.2503 45.4146 41.3344 45.5074 41.4291C45.6548 41.5793 45.8787 41.6199 46.0676 41.5357C45.9001 41.6574 45.8233 41.872 45.8801 42.0749C45.9852 42.4507 45.9448 42.8652 45.7346 43.2292C45.5245 43.5932 45.1857 43.8355 44.8076 43.9323C44.604 43.9844 44.4568 44.1575 44.4346 44.3627Z" fill="white" stroke="#22366E" stroke-linecap="round" stroke-linejoin="round"/>
</svg>
