<svg width="62" height="62" viewBox="0 0 62 62" fill="none" xmlns="http://www.w3.org/2000/svg">
<g clip-path="url(#clip0_490_14810)">
<path d="M13.9127 57.6978L13.5591 58.0513L13.9127 57.6978C13.6835 57.4686 13.5547 57.1577 13.5547 56.8336C13.5547 56.5094 13.6835 56.1985 13.9127 55.9693C14.1419 55.7401 14.4528 55.6113 14.7769 55.6113H45.7769C46.1011 55.6113 46.4119 55.7401 46.6412 55.9693C46.8704 56.1985 46.9991 56.5094 46.9991 56.8336C46.9991 57.1577 46.8704 57.4686 46.6412 57.6978C46.4119 57.927 46.1011 58.0558 45.7769 58.0558H14.7769C14.4528 58.0558 14.1419 57.927 13.9127 57.6978Z" fill="white" stroke="#22366E"/>
<path d="M30.5701 3.94434L30.5703 3.94434C35.145 3.94216 39.6218 5.26898 43.4566 7.76353C47.2913 10.2581 50.3188 13.8129 52.1709 17.9959C54.0231 22.1789 54.6203 26.8098 53.8897 31.3258C53.1592 35.8418 51.1325 40.0483 48.056 43.434C44.9795 46.8197 40.9857 49.2388 36.5601 50.3971C32.1345 51.5555 27.4677 51.4032 23.127 49.9589C18.7863 48.5145 14.9586 45.8403 12.1093 42.2612C9.26007 38.6822 7.51188 34.3525 7.07728 29.7985L7.07579 29.7829L7.07333 29.7675C6.96001 29.0552 6.95898 28.337 6.95898 27.5555C6.95898 21.2934 9.44658 15.2878 13.8745 10.8599C18.3025 6.43193 24.308 3.94434 30.5701 3.94434ZM45.6057 12.8821V12.6738L45.4578 12.5271C41.4979 8.59956 36.1478 6.39363 30.5705 6.38878L30.5696 6.38878C27.0896 6.39198 23.6647 7.25881 20.6021 8.91154L20.3019 9.07352L20.3432 9.41209C20.4296 10.1206 20.5178 10.7926 20.6774 11.5551C20.8357 12.3114 21.0285 13.0472 21.2371 13.7773L21.3407 14.1399H21.7179H22.0939C22.7228 14.2836 23.3003 14.5979 23.7628 15.0485L23.9854 15.2654L24.2783 15.1619C30.9594 12.8012 38.2428 12.7713 44.943 15.0771L45.6057 15.3052V14.6043V12.8821ZM25.2447 16.5241L24.7913 16.6759L24.9227 17.1356L24.9487 17.2266C25.0184 17.6848 24.9931 18.1526 24.8741 18.6007C24.7526 19.0581 24.5363 19.4849 24.2392 19.8532L24.0226 20.1218L24.1969 20.4196C26.3429 24.0878 29.2942 27.2205 32.828 29.5813C33.3685 29.9937 33.9904 30.3491 34.5774 30.6845L34.5931 30.6935L34.9423 30.893L35.212 30.5948C35.6894 30.067 36.3192 29.701 37.014 29.5475C37.7089 29.394 38.4343 29.4606 39.0896 29.7381L39.4486 29.8902L39.6836 29.579C42.4142 25.9622 44.2781 21.7669 45.1317 17.3163L45.2122 16.8968L44.8104 16.7518C38.5003 14.4741 31.606 14.3939 25.2447 16.5241ZM18.5145 10.2982H18.0145V10.5565C15.8209 12.178 13.9607 14.2088 12.537 16.5377C11.0648 18.9459 10.0891 21.6243 9.66738 24.4152L9.39437 26.2219L10.5492 24.8059C12.5689 22.3297 14.9586 20.1801 17.634 18.433L17.8962 18.2618L17.8566 17.9511C17.7721 17.2877 17.8836 16.6139 18.1774 16.013C18.4711 15.4121 18.9343 14.9104 19.5099 14.5696L19.8397 14.3742L19.7367 14.0049C19.5296 13.2627 19.3281 12.54 19.1773 11.8035C19.1564 11.6943 19.1353 11.5938 19.1156 11.4994C19.0813 11.3364 19.051 11.192 19.0328 11.0538L20.0837 10.2982H18.5318H18.5145ZM15.8451 41.3855H16.2551L16.3354 40.9834C16.4571 40.3742 16.7374 39.808 17.1479 39.3418C17.463 38.984 17.8462 38.695 18.2736 38.4905L18.28 38.5033L18.6935 38.3619C19.486 38.091 20.3489 38.1107 21.1282 38.4174C21.9075 38.7242 22.5524 39.298 22.9476 40.0364L23.1342 40.385L23.5164 40.2838C27.4736 39.2364 31.1714 37.3815 34.3771 34.8359L34.6767 34.5981L34.5255 34.2467C34.2969 33.7153 34.2037 33.1355 34.2543 32.5592L34.2823 32.2402L34.0043 32.0813C33.2862 31.671 32.5733 31.2465 31.8798 30.7899C28.1812 28.3193 25.085 25.0492 22.8198 21.2214L22.6254 20.8928L22.2572 20.9938C21.6526 21.1598 21.0143 21.1593 20.41 20.9923C19.8056 20.8253 19.2576 20.4981 18.824 20.0452L18.5338 19.7421L18.185 19.9753C14.8202 22.2248 11.9524 25.1403 9.75879 28.5417L9.75228 28.5518L9.74627 28.5622L9.55683 28.8894L9.47986 29.0223L9.49081 29.1755C9.80694 33.5984 11.5108 37.8088 14.3597 41.2067L14.5096 41.3855H14.7429H15.8451ZM20.9147 45.0006L20.4592 45.0982L19.1602 45.3766L20.3204 46.0238C23.3081 47.6903 26.655 48.6016 30.0701 48.6819V48.7217L30.5697 48.7221C34.6054 48.7251 38.5578 47.5744 41.9611 45.4055C45.3644 43.2367 48.0768 40.1401 49.7785 36.4807L50.109 35.7699H49.3251L48.4141 35.7699C48.4137 35.7699 48.4133 35.7699 48.413 35.7699C45.9446 35.7612 43.4871 35.4426 41.0981 34.8215L40.7703 34.7363L40.5696 35.0091C40.0655 35.6943 39.3256 36.1686 38.4926 36.3408C37.6596 36.513 36.7923 36.3707 36.0579 35.9415L35.7605 35.7677L35.4922 35.9837C32.0073 38.788 27.9609 40.8112 23.6265 41.9165L23.3178 41.9953L23.2587 42.3084C23.1417 42.9293 22.8602 43.5073 22.4437 43.9823C22.0327 44.4508 21.5051 44.8021 20.9147 45.0006ZM41.2818 32.861L41.282 32.9416L41.3074 33.018L41.3246 33.0697L41.4125 33.3333L41.6828 33.3979C44.5229 34.0761 47.4513 34.3068 50.3625 34.0817L50.702 34.0555L50.8019 33.73C52.2634 28.9716 52.0011 23.8503 50.0611 19.2661L49.9967 19.114L49.8544 19.0302C49.0029 18.5286 48.1391 18.0733 47.2632 17.6646L46.6931 17.3985L46.5626 18.014C45.6005 22.5538 43.6374 26.8217 40.8164 30.5065L40.6102 30.7758L40.7842 31.067C41.1084 31.6094 41.2803 32.2292 41.2818 32.861Z" fill="white" stroke="#003286"/>
</g>
<defs>
<clipPath id="clip0_490_14810">
<rect width="62" height="62" fill="white"/>
</clipPath>
</defs>
</svg>
