<svg width="62" height="63" viewBox="0 0 62 63" fill="none" xmlns="http://www.w3.org/2000/svg">
<path d="M54.2497 42.5832H54.9997V41.8332V10.8332V10.0832H54.2497H7.74967H6.99967V10.8332V41.8332V42.5832H7.74967H54.2497ZM36.1663 46.2498H35.4163V46.9998V52.1665V52.9165H36.1663H40.583V56.5832H21.4163V52.9165H25.833H26.583V52.1665V46.9998V46.2498H25.833H7.74967C6.5783 46.2498 5.45491 45.7845 4.62662 44.9562C3.79833 44.1279 3.33301 43.0045 3.33301 41.8332V10.8332C3.33301 8.37988 5.29639 6.4165 7.74967 6.4165H54.2497C55.421 6.4165 56.5444 6.88183 57.3727 7.71011C58.201 8.5384 58.6663 9.6618 58.6663 10.8332V41.8332C58.6663 43.0045 58.201 44.1279 57.3727 44.9562C56.5444 45.7845 55.421 46.2498 54.2497 46.2498H36.1663ZM13.6663 16.7498H35.4163V28.1665H13.6663V16.7498ZM39.4997 16.7498H48.333V20.4165H39.4997V16.7498ZM48.333 24.4998V35.9165H39.4997V24.4998H48.333ZM13.6663 32.2498H22.4997V35.9165H13.6663V32.2498ZM26.583 32.2498H35.4163V35.9165H26.583V32.2498Z" fill="white" stroke="#22366E" stroke-width="1.5"/>
</svg>
