<svg width="67" height="81" viewBox="0 0 67 81" fill="none" xmlns="http://www.w3.org/2000/svg">
<g clip-path="url(#clip0_313_1646)">
<path d="M55.4666 53.8231C55.4666 53.8439 55.4647 53.8628 55.4628 53.8836C55.4628 53.9007 55.459 53.9196 55.4552 53.9366C55.4533 53.9575 55.4495 53.9764 55.4457 53.9972C55.4419 54.0142 55.4382 54.0332 55.4344 54.0502C55.4306 54.0691 55.4249 54.0899 55.4192 54.1089C55.4136 54.1259 55.4098 54.1448 55.4041 54.1619C55.3984 54.1808 55.3909 54.2016 55.3852 54.2205C55.3795 54.2376 55.3719 54.2546 55.3662 54.2716C55.3587 54.2924 55.3492 54.3133 55.3397 54.3322C55.3322 54.3492 55.3246 54.3662 55.317 54.3833C55.3076 54.4041 55.2962 54.423 55.2868 54.4438C55.2773 54.4609 55.2697 54.476 55.2603 54.4931C55.247 54.5177 55.2319 54.5404 55.2167 54.565C55.2073 54.5801 55.1978 54.5934 55.1883 54.6085C55.1713 54.635 55.1505 54.6615 55.1316 54.6861C55.124 54.6974 55.1145 54.7088 55.107 54.7202C55.0748 54.7618 55.0388 54.8015 55.0029 54.8413C54.9934 54.8507 54.9839 54.8621 54.9745 54.8716C54.9461 54.9018 54.9158 54.9321 54.8836 54.9624C54.8685 54.9757 54.8553 54.9889 54.8401 55.004C54.8212 55.0211 54.8023 55.0381 54.7814 55.0551C54.7625 55.0703 54.7455 55.0854 54.7266 55.1006C54.7057 55.1176 54.6849 55.1327 54.6641 55.1498C54.6452 55.1649 54.6244 55.1801 54.6035 55.1952C54.5808 55.2122 54.5581 55.2274 54.5354 55.2425C54.5146 55.2576 54.4938 55.2709 54.4711 55.286C54.4465 55.3012 54.4219 55.3163 54.3973 55.3315C54.367 55.3504 54.3367 55.3693 54.3045 55.3882L36.6545 65.6459C36.5939 65.68 36.5314 65.7141 36.469 65.7462C36.4501 65.7557 36.433 65.7652 36.4141 65.7727C36.3649 65.7973 36.3157 65.8201 36.2646 65.8428C36.2476 65.8503 36.2305 65.8579 36.2135 65.8655C36.1472 65.8939 36.081 65.9223 36.0129 65.9469C36.0015 65.9506 35.9883 65.9563 35.9769 65.9601C35.9201 65.9809 35.8615 66.0017 35.8028 66.0207C35.7782 66.0282 35.7536 66.0358 35.729 66.0434C35.6968 66.0528 35.6646 66.0642 35.6306 66.0737C35.6022 66.0812 35.5757 66.0907 35.5473 66.0983C35.5132 66.1077 35.4811 66.1172 35.447 66.1248C35.4186 66.1323 35.3902 66.1399 35.3618 66.1456C35.3278 66.1531 35.2937 66.1607 35.2596 66.1702C35.2312 66.1759 35.2029 66.1834 35.1745 66.1891C35.1385 66.1967 35.1044 66.2024 35.0685 66.2099C35.042 66.2156 35.0155 66.2194 34.9871 66.2251C34.9114 66.2383 34.8357 66.2516 34.76 66.261C34.7486 66.261 34.7373 66.2629 34.7278 66.2648C34.6616 66.2743 34.5953 66.2818 34.5272 66.2894C34.5026 66.2913 34.4761 66.2951 34.4515 66.297C34.408 66.3008 34.3644 66.3046 34.3209 66.3083C34.2944 66.3102 34.2679 66.3121 34.2395 66.314C34.1941 66.3159 34.1487 66.3197 34.1033 66.3216C34.0787 66.3216 34.0522 66.3235 34.0276 66.3254C33.9878 66.3254 33.95 66.3254 33.9102 66.3273C33.8837 66.3273 33.8553 66.3273 33.8288 66.3273C33.7872 66.3273 33.7456 66.3273 33.702 66.3273C33.6774 66.3273 33.6528 66.3273 33.6282 66.3273C33.5904 66.3273 33.5525 66.3254 33.5147 66.3235C33.4882 66.3235 33.4598 66.3235 33.4333 66.3197C33.3917 66.3178 33.3519 66.314 33.3103 66.3121C33.2857 66.3121 33.263 66.3083 33.2384 66.3064C33.1892 66.3027 33.14 66.297 33.0907 66.2913C33.0756 66.2913 33.0605 66.2894 33.0453 66.2875C32.981 66.2799 32.9166 66.2724 32.8523 66.2629C32.8428 66.2629 32.8334 66.2591 32.8239 66.2591C32.769 66.2516 32.7122 66.2421 32.6574 66.2326C32.6346 66.2288 32.6119 66.2251 32.5892 66.2194C32.5476 66.2118 32.5059 66.2042 32.4643 66.1967C32.4435 66.1929 32.4208 66.1872 32.4 66.1834C32.3545 66.174 32.3091 66.1645 32.2637 66.1531C32.2391 66.1475 32.2145 66.1399 32.1899 66.1342C32.1483 66.1248 32.1085 66.1134 32.0669 66.102C32.0442 66.0964 32.0215 66.0888 31.9987 66.0831C31.9344 66.0642 31.8719 66.0453 31.8076 66.0245C31.7962 66.0207 31.7849 66.0169 31.7735 66.0131C31.7016 65.9885 31.6316 65.962 31.5616 65.9355C31.5464 65.9298 31.5332 65.9241 31.518 65.9185C31.4272 65.8825 31.3382 65.8428 31.2512 65.803C31.2417 65.7992 31.2341 65.7936 31.2247 65.7898C31.1338 65.7462 31.0449 65.7008 30.9597 65.6516L13.1999 55.3882C12.4069 54.9302 12.0114 54.3303 12.0132 53.7303L12 58.4031C12 59.003 12.3937 59.603 13.1866 60.061L30.9522 70.3187C31.0373 70.3679 31.1263 70.4133 31.2171 70.4568C31.2266 70.4606 31.2341 70.4663 31.2436 70.4701C31.3307 70.5117 31.4196 70.5496 31.5105 70.5855C31.518 70.5893 31.5256 70.5931 31.5332 70.595C31.5407 70.5969 31.5464 70.6007 31.554 70.6026C31.624 70.6291 31.694 70.6556 31.766 70.6802C31.7773 70.6839 31.7887 70.6877 31.7981 70.6915C31.8606 70.7123 31.9249 70.7313 31.9893 70.7502C32.0006 70.754 32.0101 70.7578 32.0215 70.7597C32.0328 70.7634 32.0461 70.7653 32.0574 70.7691C32.0972 70.7805 32.1388 70.7918 32.1804 70.8013C32.205 70.807 32.2296 70.8145 32.2542 70.8202C32.2997 70.8316 32.3451 70.841 32.3905 70.8505C32.4075 70.8543 32.4246 70.8581 32.4416 70.8618C32.4454 70.8618 32.4511 70.8618 32.4548 70.8637C32.4965 70.8713 32.5381 70.8789 32.5798 70.8865C32.6025 70.8902 32.6252 70.8959 32.6479 70.8997C32.7028 70.9092 32.7577 70.9186 32.8144 70.9262C32.8239 70.9262 32.8315 70.93 32.8409 70.93C32.9053 70.9394 32.9696 70.947 33.034 70.9546C33.0491 70.9546 33.0643 70.9584 33.0794 70.9584C33.1286 70.964 33.1778 70.9678 33.227 70.9735H33.2308C33.2535 70.9754 33.2762 70.9773 33.2989 70.9792C33.3406 70.983 33.3803 70.9849 33.4219 70.9868C33.4484 70.9868 33.4768 70.9887 33.5033 70.9905C33.5412 70.9905 33.579 70.9943 33.6169 70.9943H33.6263C33.6491 70.9943 33.6699 70.9943 33.6926 70.9943C33.7342 70.9943 33.7759 70.9943 33.8175 70.9943C33.844 70.9943 33.8724 70.9943 33.8989 70.9943C33.9386 70.9943 33.9765 70.9943 34.0162 70.9924C34.0238 70.9924 34.0314 70.9924 34.037 70.9924C34.056 70.9924 34.073 70.9905 34.0919 70.9905C34.1373 70.9887 34.1828 70.9868 34.2282 70.983C34.2547 70.983 34.2831 70.9792 34.3096 70.9773C34.3531 70.9735 34.3966 70.9697 34.4383 70.9659C34.4534 70.9659 34.4685 70.964 34.4837 70.9622C34.495 70.9622 34.5045 70.9603 34.5159 70.9584C34.5821 70.9508 34.6502 70.9432 34.7165 70.9338C34.7278 70.9338 34.7392 70.9319 34.7486 70.93C34.8243 70.9186 34.9 70.9073 34.9757 70.894C34.9833 70.894 34.9909 70.8921 34.9966 70.8902C35.0174 70.8865 35.0363 70.8827 35.0571 70.8789C35.0931 70.8713 35.1271 70.8656 35.1612 70.8581C35.1896 70.8524 35.218 70.8467 35.2464 70.8391C35.2804 70.8316 35.3145 70.824 35.3486 70.8145C35.377 70.807 35.4054 70.8013 35.4337 70.7937C35.4678 70.7843 35.5 70.7767 35.5341 70.7672C35.5624 70.7596 35.5908 70.7521 35.6173 70.7426C35.6495 70.7332 35.6817 70.7237 35.7138 70.7123C35.729 70.7086 35.7422 70.7048 35.7574 70.6991C35.7668 70.6953 35.7782 70.6915 35.7877 70.6877C35.8463 70.6688 35.905 70.648 35.9618 70.6272C35.9731 70.6234 35.9864 70.6177 35.9977 70.6139C36.0659 70.5874 36.1321 70.5609 36.1983 70.5325C36.2154 70.525 36.2324 70.5174 36.2494 70.5098C36.3005 70.4871 36.3497 70.4644 36.399 70.4398C36.4179 70.4303 36.4349 70.4209 36.4538 70.4133C36.5163 70.3811 36.5787 70.3471 36.6393 70.313L54.2894 60.0553C54.3064 60.0458 54.3216 60.0364 54.3386 60.0269C54.3537 60.0174 54.367 60.008 54.3821 59.9985C54.4067 59.9834 54.4313 59.9682 54.4559 59.9531C54.4786 59.938 54.4995 59.9247 54.5203 59.9096C54.543 59.8944 54.5657 59.8774 54.5884 59.8623C54.6092 59.8471 54.6281 59.832 54.649 59.8168C54.6698 59.7998 54.6906 59.7847 54.7114 59.7676C54.7303 59.7525 54.7493 59.7374 54.7663 59.7222C54.7852 59.7052 54.806 59.6881 54.8231 59.6711C54.8307 59.6635 54.8401 59.6579 54.8477 59.6503C54.8553 59.6446 54.8609 59.637 54.8685 59.6295C54.9007 59.5992 54.931 59.5689 54.9593 59.5386C54.9688 59.5292 54.9802 59.5178 54.9896 59.5083C55.0256 59.4686 55.0615 59.427 55.0937 59.3872L55.0975 59.3815C55.0975 59.3815 55.1107 59.3626 55.1183 59.3532C55.1372 59.3267 55.1581 59.3021 55.1751 59.2756C55.1846 59.2604 55.194 59.2472 55.2035 59.232C55.2186 59.2093 55.2338 59.1847 55.247 59.1601C55.2508 59.1544 55.2546 59.1469 55.2584 59.1412C55.264 59.1317 55.2678 59.1223 55.2735 59.1128C55.2849 59.092 55.2943 59.0731 55.3038 59.0522C55.3114 59.0352 55.3208 59.0182 55.3284 59.0011C55.3379 58.9803 55.3454 58.9614 55.3549 58.9406C55.3587 58.9311 55.3625 58.9217 55.3662 58.9141C55.37 58.9065 55.3719 58.897 55.3738 58.8895C55.3814 58.8706 55.3871 58.8516 55.3927 58.8308C55.3984 58.8138 55.4041 58.7949 55.4079 58.7778C55.4136 58.7589 55.4173 58.7381 55.423 58.7191C55.4249 58.7078 55.4287 58.6983 55.4306 58.687C55.4306 58.6794 55.4325 58.6718 55.4344 58.6662C55.4382 58.6453 55.4419 58.6264 55.4438 58.6056C55.4457 58.5886 55.4495 58.5696 55.4514 58.5526C55.4533 58.5318 55.4552 58.5129 55.4552 58.492C55.4552 58.4807 55.4571 58.4693 55.4571 58.4561C55.4571 58.4447 55.4571 58.4334 55.4571 58.4201L55.4703 53.7474C55.4703 53.7701 55.4703 53.7947 55.4666 53.8174V53.8231Z" fill="url(#paint0_linear_313_1646)"/>
<path d="M54.2818 52.0952C55.8564 53.0055 55.8658 54.4798 54.3007 55.3882L36.6506 65.6459C35.0855 66.5562 32.54 66.5562 30.9653 65.6459L13.1998 55.3882C11.6252 54.4779 11.6158 53.0036 13.1809 52.0952L30.831 41.8375C32.3961 40.929 34.9416 40.929 36.5162 41.8375L54.2818 52.0952Z" fill="url(#paint1_linear_313_1646)"/>
<path style="mix-blend-mode:screen" d="M41.9386 47.377C37.3946 44.7539 30.0495 44.7539 25.5358 47.377C21.0201 50.0001 21.0447 54.2546 25.5887 56.8796C30.1328 59.5027 37.4778 59.5027 41.9935 56.8796C46.5073 54.2565 46.4846 50.002 41.9386 47.377Z" fill="url(#paint2_linear_313_1646)"/>
<path d="M43.4886 17.7319C43.4886 17.7565 43.4867 17.7811 43.4848 17.8057C43.4848 17.8265 43.4829 17.8473 43.481 17.87C43.4791 17.8946 43.4772 17.9192 43.4734 17.9438C43.4715 17.9646 43.4696 17.9855 43.4658 18.0063C43.4621 18.0309 43.4602 18.0555 43.4564 18.0801C43.4526 18.1009 43.4507 18.1217 43.4469 18.1425C43.4431 18.1671 43.4375 18.1917 43.4337 18.2182C43.4299 18.2391 43.4261 18.2599 43.4223 18.2807C43.4166 18.3053 43.411 18.3299 43.4053 18.3545C43.4015 18.3753 43.3958 18.3961 43.3901 18.417C43.3845 18.4416 43.3769 18.4662 43.3712 18.4908C43.3655 18.5116 43.3599 18.5305 43.3542 18.5513C43.3466 18.5759 43.339 18.6024 43.3315 18.627C43.3258 18.646 43.3201 18.6668 43.3125 18.6857C43.3031 18.7122 43.2936 18.7368 43.2842 18.7633C43.2766 18.7822 43.2709 18.8012 43.2633 18.8201C43.2482 18.8579 43.2331 18.8958 43.2179 18.9336C43.2141 18.9412 43.2122 18.9469 43.2103 18.9545C43.1914 18.9999 43.1706 19.0453 43.1498 19.0888C43.1441 19.1021 43.1365 19.1172 43.129 19.1305C43.1138 19.1607 43.0987 19.1929 43.0835 19.2232C43.0741 19.2402 43.0646 19.2573 43.0552 19.2743C43.04 19.3008 43.0268 19.3292 43.0116 19.3557C43.0022 19.3708 42.9927 19.3878 42.9832 19.403C42.9662 19.4333 42.9473 19.4636 42.9284 19.4938C42.917 19.5128 42.9056 19.5298 42.8943 19.5487C42.8773 19.5771 42.8583 19.6055 42.8394 19.6339C42.828 19.6528 42.8148 19.6698 42.8016 19.6888C42.7826 19.7172 42.7637 19.7437 42.7429 19.772C42.7296 19.791 42.7164 19.808 42.7031 19.8269C42.6823 19.8553 42.6596 19.8837 42.6388 19.9121C42.6255 19.9291 42.6142 19.9443 42.6009 19.9613C42.5612 20.0105 42.5215 20.0597 42.4798 20.1089C42.4722 20.1165 42.4647 20.1259 42.459 20.1335C42.423 20.1752 42.3871 20.2168 42.3492 20.2565C42.336 20.2717 42.3208 20.2868 42.3076 20.302C42.2735 20.3379 42.2376 20.3758 42.2016 20.4117C42.1884 20.425 42.177 20.4363 42.1638 20.4496C42.1164 20.4969 42.0653 20.5442 42.0161 20.5915C41.9972 20.6086 41.9783 20.6256 41.9594 20.6426C41.9348 20.6653 41.9102 20.6861 41.8856 20.7089C41.8647 20.7259 41.8439 20.7448 41.8231 20.7619C41.7985 20.7827 41.7739 20.8054 41.7474 20.8262C41.7266 20.8432 41.7039 20.8622 41.6812 20.8792C41.6547 20.9 41.6301 20.9208 41.6036 20.9416C41.5808 20.9587 41.5581 20.9776 41.5354 20.9946C41.5089 21.0155 41.4824 21.0344 41.4559 21.0552C41.4313 21.0722 41.4086 21.0912 41.384 21.1082C41.3575 21.1271 41.3291 21.1479 41.3026 21.1669C41.278 21.1839 41.2515 21.2009 41.2269 21.2199C41.1985 21.2388 41.1702 21.2577 41.1418 21.2785C41.1153 21.2956 41.0888 21.3126 41.0642 21.3296C41.0358 21.3485 41.0055 21.3675 40.9771 21.3864C40.9506 21.4034 40.9222 21.4205 40.8957 21.4375C40.8655 21.4564 40.8371 21.4753 40.8068 21.4924C40.7595 21.5208 40.7103 21.5511 40.6611 21.5794C40.5551 21.64 40.4472 21.6987 40.3393 21.7573C40.3109 21.7725 40.2825 21.7876 40.2523 21.8028C40.1539 21.8539 40.0554 21.9031 39.9551 21.9504C39.9419 21.9561 39.9286 21.9636 39.9154 21.9693C39.8037 22.0223 39.6883 22.0734 39.5728 22.1226C39.5426 22.1359 39.5123 22.1472 39.4839 22.1605C39.3855 22.2021 39.2852 22.2418 39.1849 22.2816C39.164 22.2892 39.1413 22.2986 39.1205 22.3081C39.0013 22.3535 38.882 22.397 38.7609 22.4387C38.7325 22.4481 38.7023 22.4576 38.672 22.4689C38.5906 22.4973 38.5073 22.5238 38.424 22.5484C38.3465 22.573 38.267 22.5976 38.1875 22.6204C38.1212 22.6393 38.0531 22.6601 37.9869 22.679C37.9074 22.7017 37.826 22.7225 37.7446 22.7434C37.6765 22.7604 37.6084 22.7774 37.5402 22.7945C37.4588 22.8153 37.3756 22.8323 37.2923 22.8512C37.2242 22.8664 37.1541 22.8815 37.086 22.8967C37.0008 22.9137 36.9176 22.9307 36.8324 22.9459C36.7567 22.961 36.681 22.9743 36.6053 22.9875C36.5712 22.9932 36.5372 22.9989 36.5031 23.0045C36.3858 23.0235 36.2703 23.0424 36.153 23.0594C36.134 23.0632 36.1132 23.0651 36.0943 23.0689C35.9599 23.0878 35.8256 23.1048 35.6912 23.12C35.6571 23.1238 35.6231 23.1276 35.5909 23.1313C35.5076 23.1408 35.4243 23.1484 35.3392 23.1559C35.2351 23.1654 35.131 23.1749 35.0269 23.1824C34.9607 23.1881 34.8963 23.1919 34.8301 23.1957C34.7203 23.2033 34.6124 23.207 34.5027 23.2127C34.4402 23.2146 34.3796 23.2184 34.3172 23.2203C34.2226 23.2241 34.1279 23.2241 34.0333 23.226C33.9671 23.226 33.9008 23.2279 33.8346 23.2279C33.7324 23.2279 33.6321 23.2279 33.5299 23.2241C33.4693 23.2241 33.4106 23.2241 33.3501 23.2222C33.2573 23.2203 33.1646 23.2146 33.0719 23.2108C33.0075 23.2089 32.9413 23.207 32.8769 23.2033C32.7766 23.1976 32.6763 23.19 32.576 23.1824C32.5192 23.1787 32.4625 23.1749 32.4038 23.1711C32.2846 23.1616 32.1653 23.1484 32.0461 23.137C32.0083 23.1332 31.9723 23.1295 31.9344 23.1257C31.7793 23.1086 31.6241 23.0878 31.4689 23.067C31.4443 23.0632 31.4197 23.0594 31.3951 23.0556C31.2626 23.0367 31.1301 23.0159 30.9995 22.9932C30.9446 22.9837 30.8897 22.9724 30.8349 22.9629C30.7346 22.944 30.6343 22.9269 30.5339 22.9061C30.481 22.8948 30.4299 22.8834 30.3788 22.8721C30.269 22.8494 30.1592 22.8247 30.0513 22.7983C29.9908 22.7831 29.9302 22.768 29.8715 22.7528C29.7731 22.7282 29.6747 22.7017 29.5763 22.6752C29.493 22.6525 29.4079 22.6279 29.3265 22.6033C29.2962 22.5939 29.264 22.5844 29.2338 22.5749C29.1088 22.5371 28.9839 22.4973 28.8628 22.4557C28.8382 22.4481 28.8155 22.4387 28.7928 22.4311C28.6906 22.3951 28.5903 22.3592 28.49 22.3213C28.4559 22.3081 28.4218 22.2948 28.3878 22.2835C28.3083 22.2532 28.2307 22.221 28.1512 22.1888C28.0963 22.1661 28.0433 22.1453 27.9884 22.1226C27.9127 22.0904 27.837 22.0564 27.7613 22.0223C27.7121 21.9996 27.6629 21.9788 27.6137 21.9542C27.5323 21.9144 27.451 21.8747 27.3715 21.833C27.3317 21.8122 27.2901 21.7933 27.2522 21.7725C27.133 21.71 27.0157 21.6457 26.9021 21.5794C24.9831 20.4723 24.0254 19.0169 24.0292 17.5653L23.98 51.094C23.9762 52.5456 24.9338 54.001 26.8529 55.1081C26.9684 55.1744 27.0838 55.2387 27.203 55.3012C27.2428 55.322 27.2825 55.3409 27.3223 55.3617C27.4017 55.4034 27.4831 55.4431 27.5645 55.4829C27.6137 55.5056 27.6629 55.5283 27.7121 55.551C27.7878 55.5851 27.8616 55.6191 27.9392 55.6513C27.9922 55.674 28.0471 55.6967 28.102 55.7175C28.1531 55.7384 28.2042 55.7611 28.2572 55.7819C28.2837 55.7932 28.3121 55.8027 28.3386 55.8122C28.3726 55.8254 28.4067 55.8387 28.4408 55.85C28.5411 55.8879 28.6414 55.9238 28.7436 55.9598C28.7663 55.9674 28.7909 55.9768 28.8136 55.9844C28.9366 56.026 29.0596 56.0658 29.1845 56.1036C29.2148 56.1131 29.247 56.1225 29.2792 56.132C29.3322 56.1472 29.3852 56.1642 29.44 56.1793C29.4703 56.1869 29.5006 56.1945 29.529 56.2039C29.6274 56.2304 29.7258 56.2569 29.8242 56.2815C29.8848 56.2967 29.9435 56.3118 30.004 56.3269C30.1119 56.3534 30.2217 56.378 30.3314 56.4008C30.3731 56.4102 30.4128 56.4197 30.4545 56.4291C30.4658 56.431 30.4772 56.4329 30.4885 56.4348C30.5888 56.4556 30.6891 56.4727 30.7894 56.4916C30.8443 56.5011 30.8992 56.5124 30.9541 56.5219C31.0847 56.5446 31.2172 56.5654 31.3496 56.5843C31.3724 56.5881 31.397 56.5919 31.4197 56.5957H31.4235C31.5786 56.6184 31.7319 56.6373 31.889 56.6544C31.925 56.6581 31.9628 56.6619 31.9988 56.6657C32.118 56.679 32.2373 56.6903 32.3565 56.6998H32.3659C32.4208 56.7055 32.4738 56.7073 32.5287 56.7111C32.629 56.7187 32.7293 56.7263 32.8296 56.732C32.894 56.7357 32.9602 56.7376 33.0246 56.7395C33.1173 56.7433 33.21 56.7471 33.3028 56.7509C33.3103 56.7509 33.3179 56.7509 33.3255 56.7509C33.3785 56.7509 33.4296 56.7509 33.4826 56.7509C33.5848 56.7509 33.6851 56.7547 33.7873 56.7547C33.8535 56.7547 33.9197 56.7547 33.986 56.7528C34.0806 56.7528 34.1752 56.7509 34.2699 56.7471C34.2869 56.7471 34.3058 56.7471 34.3229 56.7471C34.3664 56.7471 34.4118 56.7414 34.4553 56.7395C34.5651 56.7357 34.673 56.7301 34.7828 56.7225C34.849 56.7187 34.9133 56.713 34.9796 56.7092C35.0837 56.7017 35.1878 56.6922 35.2919 56.6827C35.3278 56.679 35.3657 56.6771 35.4016 56.6733C35.4489 56.6695 35.4963 56.6638 35.5436 56.6581C35.5776 56.6544 35.6117 56.6506 35.6458 56.6468C35.7801 56.6316 35.9145 56.6146 36.0489 56.5957C36.0678 56.5938 36.0886 56.59 36.1075 56.5862C36.2249 56.5692 36.3422 56.5503 36.4577 56.5313C36.4917 56.5257 36.5258 56.52 36.5618 56.5143C36.5883 56.5086 36.6167 56.5048 36.645 56.5011C36.6942 56.4916 36.7416 56.4821 36.7889 56.4727C36.874 56.4556 36.9592 56.4405 37.0425 56.4235C37.1125 56.4083 37.1806 56.3932 37.2488 56.378C37.332 56.3591 37.4153 56.3402 37.4967 56.3213C37.5648 56.3042 37.633 56.2872 37.7011 56.2702C37.7825 56.2493 37.8639 56.2285 37.9433 56.2058C38.0115 56.1869 38.0777 56.168 38.144 56.1472C38.2234 56.1244 38.3029 56.0998 38.3805 56.0752C38.4146 56.0639 38.4505 56.0544 38.4846 56.0431C38.5338 56.0279 38.5811 56.0109 38.6284 55.9939C38.6587 55.9844 38.6871 55.9749 38.7174 55.9636C38.8385 55.9219 38.9578 55.8784 39.077 55.833C39.0997 55.8254 39.1205 55.816 39.1432 55.8065C39.2435 55.7667 39.3419 55.727 39.4404 55.6854C39.4706 55.6721 39.5009 55.6608 39.5293 55.6475C39.6448 55.5983 39.7583 55.5472 39.8719 55.4942C39.8851 55.4885 39.8984 55.481 39.9116 55.4753C40.0119 55.428 40.1103 55.3769 40.2087 55.3277C40.2371 55.3125 40.2674 55.2974 40.2958 55.2822C40.4056 55.2236 40.5134 55.1649 40.6175 55.1043C40.6573 55.0816 40.697 55.057 40.7368 55.0343C40.7462 55.0286 40.7538 55.023 40.7633 55.0173C40.7935 54.9984 40.8238 54.9794 40.8541 54.9624C40.8806 54.9454 40.909 54.9283 40.9355 54.9113C40.9658 54.8924 40.9942 54.8735 41.0225 54.8545C41.049 54.8375 41.0755 54.8205 41.1001 54.8034C41.1285 54.7845 41.1569 54.7656 41.1853 54.7448C41.2099 54.7277 41.2364 54.7107 41.261 54.6937C41.2894 54.6747 41.3159 54.6539 41.3443 54.6331C41.3689 54.6161 41.3916 54.599 41.4162 54.5801C41.4427 54.5593 41.4692 54.5404 41.4957 54.5195C41.5184 54.5025 41.5411 54.4836 41.5638 54.4666C41.5903 54.4457 41.6149 54.4249 41.6414 54.4041C41.6641 54.3871 41.6849 54.3681 41.7077 54.3511C41.7323 54.3303 41.7569 54.3095 41.7834 54.2868C41.8042 54.2697 41.825 54.2508 41.8458 54.2338C41.8704 54.2111 41.895 54.1902 41.9196 54.1675C41.9367 54.1524 41.9537 54.1372 41.9707 54.1221L41.9764 54.1164C42.0275 54.0691 42.0767 54.0218 42.124 53.9745C42.1373 53.9612 42.1486 53.9499 42.1619 53.9366C42.1978 53.9007 42.2338 53.8628 42.2678 53.8269C42.2811 53.8117 42.2962 53.7966 42.3095 53.7814C42.3473 53.7417 42.3833 53.7001 42.4193 53.6584C42.4268 53.6509 42.4344 53.6414 42.442 53.6338C42.4836 53.5846 42.5252 53.5354 42.5631 53.4862C42.5669 53.4824 42.5707 53.4786 42.5726 53.473C42.582 53.4616 42.5915 53.4483 42.6009 53.437C42.6237 53.4086 42.6445 53.3802 42.6653 53.3518C42.6785 53.3329 42.6918 53.3159 42.705 53.2969C42.724 53.2686 42.7448 53.2421 42.7637 53.2137C42.777 53.1947 42.7883 53.1777 42.8016 53.1588C42.8205 53.1304 42.8375 53.102 42.8564 53.0736C42.8678 53.0547 42.8791 53.0377 42.8905 53.0187C42.9094 52.9885 42.9265 52.9582 42.9454 52.9279C42.953 52.9146 42.9605 52.9033 42.9681 52.89C42.97 52.8863 42.9719 52.8825 42.9738 52.8787C42.9889 52.8522 43.0041 52.8238 43.0173 52.7973C43.0268 52.7803 43.0362 52.7632 43.0457 52.7462C43.0608 52.7159 43.076 52.6838 43.0911 52.6535C43.0987 52.6402 43.1044 52.6251 43.1119 52.6118C43.1328 52.5664 43.1536 52.5229 43.1725 52.4775C43.1763 52.4699 43.1782 52.4623 43.182 52.4548C43.1971 52.4169 43.2122 52.3791 43.2274 52.3412V52.3374C43.235 52.3204 43.2406 52.3033 43.2463 52.2863C43.2558 52.2598 43.2652 52.2333 43.2747 52.2068C43.2804 52.1879 43.2879 52.1671 43.2936 52.1482C43.3012 52.1236 43.3088 52.0971 43.3163 52.0725C43.322 52.0516 43.3277 52.0327 43.3334 52.0119C43.3409 51.9873 43.3466 51.9627 43.3523 51.9381C43.358 51.9173 43.3618 51.8964 43.3674 51.8756C43.3731 51.851 43.3788 51.8264 43.3845 51.8018C43.3845 51.798 43.3864 51.7924 43.3883 51.7886C43.392 51.7715 43.3939 51.7564 43.3977 51.7394C43.4015 51.7148 43.4072 51.6902 43.411 51.6656C43.4147 51.6447 43.4166 51.6239 43.4204 51.6031C43.4242 51.5785 43.428 51.5539 43.4299 51.5293C43.4318 51.5085 43.4337 51.4858 43.4375 51.4649C43.4393 51.4403 43.4431 51.4157 43.445 51.3911C43.445 51.3703 43.4488 51.3476 43.4488 51.3268C43.4488 51.3022 43.4507 51.2776 43.4526 51.2549C43.4526 51.2473 43.4526 51.2397 43.4526 51.2303C43.4526 51.2019 43.4526 51.1735 43.4526 51.1451L43.5018 17.6164C43.5018 17.6524 43.5018 17.6883 43.4999 17.7262L43.4886 17.7319Z" fill="url(#paint3_linear_313_1646)"/>
<path d="M40.6195 13.6079C36.806 11.4069 30.6438 11.4069 26.8568 13.6079C23.0679 15.809 23.0887 19.3784 26.9003 21.5813C30.7139 23.7824 36.8761 23.7824 40.665 21.5813C44.4539 19.3803 44.4331 15.8109 40.6195 13.6079Z" fill="url(#paint4_linear_313_1646)"/>
<g style="mix-blend-mode:screen">
<path style="mix-blend-mode:screen" d="M45.3604 17.8814C45.3604 17.9098 45.3585 17.94 45.3566 17.9684C45.3566 17.993 45.3528 18.0195 45.3509 18.0441C45.349 18.0725 45.3452 18.1028 45.3433 18.1312C45.3414 18.1558 45.3376 18.1823 45.3358 18.2069C45.332 18.2372 45.3282 18.2656 45.3244 18.2958C45.3206 18.3204 45.3168 18.345 45.313 18.3697C45.3074 18.3999 45.3017 18.4283 45.2979 18.4586C45.2941 18.4832 45.2884 18.5078 45.2847 18.5324C45.279 18.5608 45.2714 18.5911 45.2657 18.6195C45.2601 18.6441 45.2544 18.6687 45.2487 18.6933C45.2411 18.7236 45.2336 18.7519 45.226 18.7822C45.2203 18.8068 45.2127 18.8295 45.2071 18.8541C45.1976 18.8844 45.1881 18.9147 45.1787 18.945C45.1711 18.9677 45.1635 18.9923 45.156 19.015C45.1465 19.0453 45.1351 19.0775 45.1238 19.1078C45.1162 19.1305 45.1086 19.1532 45.0992 19.174C45.0821 19.2194 45.0632 19.2648 45.0443 19.3103C45.0405 19.3178 45.0386 19.3273 45.0348 19.3349C45.0121 19.3879 44.9875 19.4427 44.9629 19.4957C44.9553 19.5128 44.9459 19.5298 44.9383 19.5449C44.9213 19.5809 44.9024 19.6187 44.8834 19.6547C44.8721 19.6755 44.8607 19.6963 44.8513 19.7172C44.8342 19.7493 44.8172 19.7815 44.7983 19.8137C44.7869 19.8326 44.7756 19.8515 44.7661 19.8705C44.7453 19.9064 44.7245 19.9424 44.7017 19.9802C44.6885 20.001 44.6752 20.0238 44.662 20.0446C44.6412 20.0786 44.6185 20.1108 44.5977 20.1449C44.5825 20.1676 44.5674 20.1884 44.5522 20.2111C44.5295 20.2433 44.5068 20.2774 44.4822 20.3095C44.4671 20.3303 44.4519 20.3531 44.4349 20.3739C44.4103 20.4079 44.3838 20.442 44.3573 20.4761C44.3422 20.495 44.327 20.5139 44.3119 20.5347C44.2646 20.5934 44.2172 20.654 44.1661 20.7108C44.1586 20.7202 44.1491 20.7297 44.1415 20.7391C44.098 20.7884 44.0545 20.8376 44.0091 20.8868C43.992 20.9038 43.9769 20.9227 43.9599 20.9398C43.9182 20.9833 43.8766 21.0268 43.8331 21.0703C43.8179 21.0855 43.8028 21.1006 43.7895 21.1158C43.7327 21.1725 43.6741 21.2293 43.6116 21.2861C43.5889 21.3069 43.5662 21.3258 43.5435 21.3467C43.5151 21.3732 43.4848 21.3996 43.4545 21.4261C43.4299 21.447 43.4053 21.4678 43.3807 21.4886C43.3505 21.5132 43.3221 21.5397 43.2899 21.5643C43.2634 21.5851 43.2388 21.6059 43.2123 21.6268C43.182 21.6514 43.1517 21.676 43.1196 21.7006C43.0931 21.7214 43.0647 21.7422 43.0382 21.763C43.006 21.7876 42.9757 21.8122 42.9436 21.8349C42.9152 21.8558 42.8868 21.8766 42.8584 21.8974C42.8262 21.9201 42.794 21.9447 42.76 21.9674C42.7297 21.9882 42.6994 22.0091 42.6691 22.0299C42.6351 22.0526 42.6029 22.0753 42.5688 22.098C42.5385 22.1188 42.5064 22.1396 42.4761 22.1605C42.442 22.1832 42.408 22.2059 42.372 22.2286C42.3398 22.2494 42.3076 22.2683 42.2755 22.2892C42.2395 22.3119 42.2036 22.3327 42.1676 22.3554C42.1108 22.3895 42.0522 22.4254 41.9935 22.4595C41.8686 22.5333 41.7399 22.6033 41.6093 22.6715C41.5752 22.6904 41.5412 22.7074 41.5071 22.7244C41.3898 22.785 41.2724 22.8437 41.1532 22.9005C41.138 22.908 41.121 22.9156 41.1059 22.9232C40.9715 22.9856 40.8352 23.0481 40.699 23.1067C40.663 23.1219 40.6271 23.137 40.593 23.1522C40.4756 23.2014 40.3564 23.2487 40.2372 23.296C40.2107 23.3055 40.1861 23.3168 40.1596 23.3263C40.0176 23.3793 39.8757 23.4323 39.73 23.4815C39.6959 23.4928 39.66 23.5042 39.6259 23.5174C39.5275 23.5496 39.4291 23.5818 39.3306 23.6121C39.2379 23.6423 39.1433 23.6707 39.0487 23.6972C38.9692 23.7199 38.8897 23.7445 38.8083 23.7654C38.7118 23.7919 38.6153 23.8183 38.5187 23.843C38.4374 23.8638 38.356 23.8846 38.2746 23.9035C38.1762 23.9281 38.0778 23.9489 37.9794 23.9716C37.898 23.9906 37.8166 24.0076 37.7333 24.0246C37.633 24.0455 37.5308 24.0644 37.4305 24.0852C37.3397 24.1022 37.2507 24.1193 37.1599 24.1363C37.1182 24.1439 37.0785 24.1495 37.0369 24.1571C36.8987 24.1798 36.7586 24.2025 36.6186 24.2234C36.5959 24.2271 36.5713 24.2309 36.5486 24.2347C36.3896 24.2574 36.2287 24.2763 36.0679 24.2953C36.0281 24.2991 35.9884 24.3047 35.9467 24.3085C35.8464 24.3199 35.748 24.3293 35.6477 24.3369C35.5228 24.3483 35.3998 24.3577 35.2749 24.3672C35.1973 24.3729 35.1178 24.3785 35.0402 24.3842C34.9096 24.3918 34.7809 24.3975 34.6503 24.4032C34.5765 24.4069 34.5046 24.4107 34.4308 24.4126C34.3172 24.4164 34.2056 24.4183 34.092 24.4183C34.0125 24.4183 33.933 24.4221 33.8536 24.4221C33.7324 24.4221 33.6113 24.4221 33.4921 24.4183C33.4202 24.4183 33.3482 24.4183 33.2782 24.4145C33.1666 24.4107 33.0568 24.4069 32.947 24.4013C32.8694 24.3975 32.7918 24.3956 32.7142 24.3918C32.595 24.3861 32.4758 24.3767 32.3565 24.3672C32.2884 24.3615 32.2203 24.3577 32.1521 24.3539C32.0102 24.3426 31.8683 24.3274 31.7263 24.3123C31.6828 24.3085 31.6374 24.3047 31.5938 24.2991C31.4084 24.2782 31.2229 24.2555 31.0393 24.229C31.009 24.2252 30.9806 24.2196 30.9504 24.2158C30.7933 24.1931 30.6343 24.1685 30.4791 24.142C30.4129 24.1306 30.3485 24.1174 30.2823 24.106C30.1631 24.0833 30.0419 24.0625 29.9246 24.0379C29.8621 24.0246 29.8016 24.0114 29.7391 23.9981C29.6085 23.9698 29.4779 23.9414 29.3493 23.9092C29.2773 23.8922 29.2054 23.8732 29.1335 23.8543C29.0162 23.824 28.8988 23.7937 28.7815 23.7616C28.6812 23.7332 28.5809 23.7048 28.4825 23.6764C28.4446 23.6651 28.4086 23.6537 28.3708 23.6423C28.2213 23.5969 28.0737 23.5496 27.9279 23.5004C27.8995 23.4909 27.8712 23.4815 27.8447 23.4701C27.7235 23.4285 27.6043 23.3849 27.4851 23.3395C27.4453 23.3244 27.4037 23.3092 27.364 23.2941C27.2693 23.2581 27.1766 23.2184 27.082 23.1806C27.0176 23.1541 26.9533 23.1276 26.8889 23.1011C26.7981 23.0613 26.7091 23.0216 26.6202 22.9799C26.5615 22.9534 26.5028 22.9269 26.4442 22.9005C26.3458 22.8531 26.2511 22.8058 26.1546 22.7566C26.1073 22.732 26.0581 22.7093 26.0127 22.6847C25.8707 22.6109 25.7307 22.5333 25.5944 22.4557C23.3082 21.1347 22.1651 19.403 22.1708 17.6713L22.1121 52.0819C22.1064 53.8117 23.2495 55.5453 25.5357 56.8663C25.672 56.9458 25.812 57.0215 25.954 57.0953C26.0013 57.1199 26.0486 57.1426 26.0959 57.1672C26.1925 57.2164 26.2871 57.2638 26.3855 57.3111C26.4442 57.3395 26.5028 57.3641 26.5615 57.3906C26.6505 57.4322 26.7394 57.4719 26.8302 57.5117C26.8946 57.5382 26.9589 57.5647 27.0233 57.5912C27.0857 57.6158 27.1463 57.6423 27.2088 57.6669C27.2409 57.6801 27.2731 57.6915 27.3053 57.7028C27.345 57.718 27.3867 57.7331 27.4264 57.7483C27.5456 57.7937 27.6649 57.8372 27.786 57.8788C27.8144 57.8883 27.8409 57.8997 27.8693 57.9091C28.015 57.9583 28.1626 58.0056 28.3121 58.0511C28.35 58.0624 28.3859 58.0738 28.4238 58.0851C28.4881 58.1041 28.5506 58.123 28.6149 58.1419C28.6509 58.1514 28.6869 58.1608 28.7228 58.1703C28.8402 58.2025 28.9556 58.2328 29.0748 58.263C29.1467 58.282 29.2187 58.299 29.2906 58.3179C29.4193 58.3482 29.5499 58.3785 29.6805 58.4069C29.7297 58.4182 29.777 58.4296 29.8262 58.439C29.8394 58.4409 29.8527 58.4447 29.8659 58.4466C29.9852 58.4712 30.1044 58.492 30.2236 58.5147C30.2899 58.5261 30.3542 58.5394 30.4186 58.5507C30.5756 58.5772 30.7327 58.6018 30.8917 58.6245C30.9201 58.6283 30.9485 58.634 30.975 58.6378H30.9788C31.1623 58.6643 31.3478 58.687 31.5333 58.7078C31.5768 58.7135 31.6203 58.7154 31.6658 58.721C31.8077 58.7362 31.9496 58.7513 32.0935 58.7627H32.1048C32.1692 58.7683 32.2335 58.7721 32.2979 58.7759C32.4171 58.7854 32.5363 58.793 32.6556 58.8005C32.7332 58.8043 32.8108 58.8062 32.8883 58.81C32.9981 58.8138 33.1098 58.8195 33.2195 58.8232C33.229 58.8232 33.2385 58.8232 33.246 58.8232C33.3085 58.8232 33.371 58.8232 33.4334 58.8232C33.5545 58.8232 33.6757 58.827 33.7949 58.827C33.8744 58.827 33.9539 58.8251 34.0334 58.8232C34.1469 58.8232 34.2586 58.8195 34.3721 58.8176C34.3929 58.8176 34.4138 58.8176 34.4346 58.8176C34.4876 58.8176 34.5387 58.8119 34.5917 58.81C34.7222 58.8043 34.8509 58.7986 34.9815 58.7911C35.0591 58.7854 35.1386 58.7797 35.2162 58.774C35.3411 58.7646 35.4641 58.7551 35.589 58.7437C35.6326 58.74 35.6761 58.7381 35.7196 58.7324C35.7764 58.7267 35.8313 58.7191 35.8881 58.7135C35.9278 58.7097 35.9694 58.704 36.0092 58.7002C36.1701 58.6813 36.3309 58.6624 36.4899 58.6397C36.5126 58.6359 36.5372 58.6321 36.5599 58.6283C36.7 58.6075 36.8381 58.5867 36.9782 58.5621C37.0198 58.5545 37.0596 58.5488 37.1012 58.5412C37.1334 58.5356 37.1674 58.5299 37.1996 58.5242C37.2583 58.5129 37.3151 58.5015 37.3718 58.4901C37.474 58.4712 37.5743 58.4523 37.6746 58.4296C37.7579 58.4125 37.8393 58.3936 37.9207 58.3766C38.0191 58.3539 38.1175 58.3312 38.2159 58.3085C38.2973 58.2895 38.3787 58.2687 38.4601 58.2479C38.5566 58.2233 38.6531 58.1968 38.7496 58.1703C38.8291 58.1476 38.9105 58.1249 38.99 58.1022C39.0846 58.0738 39.1792 58.0454 39.272 58.017C39.3136 58.0038 39.3552 57.9924 39.395 57.9792C39.4518 57.9602 39.5085 57.9413 39.5672 57.9205C39.6032 57.9091 39.6372 57.8978 39.6732 57.8845C39.817 57.8353 39.9609 57.7823 40.1028 57.7293C40.1293 57.7199 40.1539 57.7085 40.1804 57.6991C40.2996 57.6517 40.4189 57.6044 40.5362 57.5552C40.5722 57.5401 40.6081 57.5249 40.6422 57.5098C40.7803 57.4511 40.9166 57.3906 41.0491 57.3262C41.0642 57.3186 41.0813 57.3111 41.0964 57.3035C41.2156 57.2467 41.3349 57.1881 41.4503 57.1275C41.4844 57.1105 41.5184 57.0915 41.5525 57.0726C41.6831 57.0045 41.8118 56.9326 41.9367 56.8606C41.984 56.8323 42.0313 56.8058 42.0786 56.7774C42.09 56.7717 42.0995 56.7641 42.1108 56.7584C42.1468 56.7357 42.1827 56.7149 42.2187 56.6922C42.2509 56.6714 42.283 56.6525 42.3152 56.6316C42.3512 56.6089 42.3852 56.5862 42.4193 56.5635C42.4496 56.5427 42.4818 56.5219 42.512 56.5029C42.5461 56.4802 42.5802 56.4575 42.6142 56.4329C42.6445 56.4121 42.6748 56.3913 42.7032 56.3705C42.7373 56.3478 42.7694 56.3232 42.8016 56.2986C42.83 56.2777 42.8584 56.2569 42.8868 56.2361C42.9189 56.2115 42.9511 56.1869 42.9814 56.1642C43.0079 56.1434 43.0363 56.1225 43.0628 56.1017C43.0931 56.0771 43.1252 56.0525 43.1555 56.0279C43.182 56.0071 43.2085 55.9863 43.235 55.9636C43.2653 55.939 43.2937 55.9125 43.324 55.8879C43.3486 55.867 43.3732 55.8462 43.3978 55.8235C43.428 55.797 43.4564 55.7705 43.4848 55.744C43.5056 55.7251 43.5265 55.7081 43.5454 55.6891L43.553 55.6835C43.6135 55.6267 43.6722 55.5718 43.729 55.5131C43.7441 55.498 43.7592 55.4829 43.7744 55.4677C43.8179 55.4242 43.8596 55.3807 43.9012 55.3371C43.9182 55.3201 43.9353 55.3012 43.9523 55.2841C43.9977 55.2349 44.0412 55.1876 44.0829 55.1384C44.0923 55.1289 44.0999 55.1176 44.1094 55.1081C44.1586 55.0495 44.2078 54.9908 44.2551 54.9321C44.2589 54.9264 44.2627 54.9227 44.2665 54.917C44.2778 54.9018 44.2873 54.8886 44.2986 54.8735C44.3251 54.8394 44.3497 54.8053 44.3762 54.7713C44.3914 54.7504 44.4084 54.7277 44.4235 54.7069C44.4462 54.6747 44.4709 54.6407 44.4936 54.6085C44.5087 54.5858 44.5238 54.565 44.539 54.5423C44.5617 54.5082 44.5825 54.476 44.6033 54.4419C44.6166 54.4211 44.6298 54.3984 44.6431 54.3776C44.6658 54.3416 44.6866 54.3057 44.7074 54.2678C44.7169 54.2527 44.7245 54.2376 44.7339 54.2224C44.7358 54.2186 44.7377 54.2148 44.7415 54.2092C44.7604 54.177 44.7774 54.1448 44.7945 54.1126C44.8058 54.0918 44.8172 54.071 44.8267 54.0502C44.8456 54.0142 44.8626 53.9764 44.8815 53.9404C44.8891 53.9234 44.8986 53.9064 44.9061 53.8912C44.9307 53.8382 44.9553 53.7852 44.9781 53.7303C44.9818 53.7209 44.9856 53.7114 44.9894 53.7038C45.0083 53.6584 45.0254 53.6149 45.0424 53.5695V53.5638C45.0519 53.543 45.0594 53.5241 45.0651 53.5032C45.0765 53.4711 45.0878 53.4408 45.0973 53.4086C45.1049 53.3859 45.1124 53.3613 45.12 53.3386C45.1295 53.3083 45.1389 53.278 45.1484 53.2477C45.156 53.2231 45.1616 53.2004 45.1673 53.1758C45.1749 53.1455 45.1843 53.1172 45.19 53.0869C45.1957 53.0623 45.2014 53.0377 45.2071 53.0131C45.2127 52.9847 45.2203 52.9544 45.226 52.926C45.226 52.9203 45.2279 52.9146 45.2298 52.9109C45.2336 52.8919 45.2373 52.8711 45.2392 52.8522C45.2449 52.8219 45.2506 52.7935 45.2544 52.7632C45.2582 52.7386 45.2619 52.714 45.2657 52.6875C45.2695 52.6592 45.2733 52.6289 45.2771 52.6005C45.2809 52.5759 45.2828 52.5494 45.2847 52.5248C45.2884 52.4964 45.2903 52.4661 45.2922 52.4377C45.2941 52.4131 45.296 52.3866 45.2979 52.3601C45.2979 52.3317 45.3017 52.3015 45.3017 52.2731C45.3017 52.2636 45.3017 52.2541 45.3017 52.2447C45.3017 52.2106 45.3017 52.1765 45.3017 52.1425L45.3604 17.7319C45.3604 17.7754 45.3604 17.8189 45.3566 17.8624L45.3604 17.8814Z" fill="url(#paint5_linear_313_1646)"/>
<path style="mix-blend-mode:screen" d="M33.7759 58.9425C33.6699 58.9425 33.562 58.9425 33.456 58.9387H33.35C33.3141 58.9387 33.2762 58.9387 33.2403 58.9368H33.2119C33.1267 58.933 33.0415 58.9292 32.9564 58.9254L32.7974 58.9179C32.7463 58.9179 32.6952 58.9141 32.646 58.9103C32.5419 58.9046 32.4359 58.897 32.3318 58.8895L32.2107 58.8819C32.171 58.88 32.1312 58.8762 32.0934 58.8743C31.9401 58.8611 31.7962 58.8459 31.6543 58.8308L31.5218 58.8176C31.3345 58.7967 31.149 58.774 30.9654 58.7475L30.8765 58.7343C30.7175 58.7116 30.5585 58.687 30.4014 58.6586C30.3598 58.651 30.3181 58.6434 30.2784 58.6359L30.1611 58.6132C30.0551 58.5942 29.951 58.5734 29.8469 58.5526L29.8261 58.5488C29.7807 58.5393 29.7523 58.5337 29.7258 58.5261L29.6614 58.511C29.5308 58.4826 29.3984 58.4542 29.2697 58.422C29.2167 58.4088 29.1656 58.3955 29.1126 58.3823L29.0539 58.3671C28.9347 58.3368 28.8173 58.3066 28.7 58.2725L28.6546 58.2611C28.6338 58.2555 28.6129 58.2498 28.5921 58.2441C28.5486 58.2309 28.5051 58.2195 28.4615 58.2063L28.2874 58.1533C28.1379 58.1078 27.9884 58.0605 27.8427 58.0094L27.7575 57.9791C27.6345 57.9375 27.5153 57.894 27.3941 57.8486L27.1746 57.7653C27.1349 57.7501 27.0951 57.7331 27.0554 57.7161L26.9437 57.6707C26.8926 57.6498 26.8434 57.629 26.7942 57.6082C26.7033 57.5685 26.6125 57.5287 26.5217 57.4871L26.4649 57.4606C26.4251 57.4417 26.3854 57.4246 26.3457 57.4057C26.2472 57.3584 26.1507 57.3111 26.0542 57.2619L25.9993 57.2335C25.969 57.2183 25.9406 57.2032 25.9104 57.1881C25.7684 57.1124 25.6265 57.0367 25.4883 56.9572C23.2456 55.6627 22.0117 53.9347 22.0174 52.0914L22.076 17.6902V17.6808H22.2653V17.6902C22.2653 19.4598 23.4633 21.1252 25.6416 22.3838C25.7779 22.4614 25.916 22.5371 26.0561 22.6109C26.0826 22.6241 26.111 22.6393 26.1375 22.6525L26.198 22.6828C26.2983 22.7339 26.3911 22.7812 26.4857 22.8247C26.5236 22.8437 26.5633 22.8607 26.6011 22.8777L26.6598 22.9042C26.7544 22.9478 26.8415 22.9875 26.9267 23.0235C26.9721 23.0424 27.0156 23.0613 27.061 23.0802L27.1178 23.103C27.2106 23.1408 27.3033 23.1787 27.396 23.2146L27.5171 23.26C27.6345 23.3036 27.7556 23.3471 27.8748 23.3887L27.9581 23.4171C28.1038 23.4663 28.2496 23.5136 28.3991 23.5591L28.5107 23.5912C28.6092 23.6196 28.7076 23.648 28.8079 23.6764C28.9233 23.7086 29.0407 23.7389 29.158 23.7691L29.2053 23.7805C29.2602 23.7937 29.317 23.8089 29.3719 23.8221C29.5006 23.8524 29.6293 23.8827 29.7598 23.9092L29.8299 23.9243C29.8677 23.9319 29.9056 23.9414 29.9434 23.9489C30.057 23.9716 30.1724 23.9925 30.2879 24.0152L30.3825 24.0322C30.4203 24.0398 30.4582 24.0473 30.496 24.053C30.6512 24.0795 30.8083 24.1041 30.9654 24.1268L31.0544 24.1401C31.2379 24.1666 31.4215 24.1893 31.6051 24.2101L31.7376 24.2234C31.8795 24.2385 32.0196 24.2517 32.1615 24.265C32.2012 24.2688 32.241 24.2707 32.2807 24.2726L32.4284 24.282C32.5249 24.2896 32.6233 24.2953 32.7217 24.3009C32.769 24.3028 32.8182 24.3047 32.8655 24.3066L33.0207 24.3123C33.1078 24.3161 33.1948 24.3199 33.2838 24.3218C33.3292 24.3218 33.3727 24.3218 33.4182 24.3237H33.4977C33.6263 24.3274 33.7437 24.3274 33.8572 24.3274C33.9121 24.3274 33.967 24.3274 34.0219 24.3256H34.0919C34.2149 24.3218 34.3209 24.3218 34.4288 24.318C34.478 24.318 34.5253 24.3142 34.5745 24.3123L34.6483 24.3085C34.7789 24.3028 34.9076 24.2972 35.0363 24.2896C35.1139 24.2839 35.1915 24.2782 35.2691 24.2726C35.394 24.2631 35.517 24.2536 35.64 24.2423H35.6684C35.7593 24.2309 35.8482 24.2234 35.9391 24.2139L36.0583 24.2006C36.2192 24.1817 36.3781 24.1628 36.5371 24.1401L36.6071 24.1287C36.7472 24.1079 36.8853 24.0871 37.0235 24.0644L37.1465 24.0436C37.2184 24.0303 37.2904 24.0171 37.3623 24.0038L37.4172 23.9944C37.5175 23.9754 37.6178 23.9565 37.7181 23.9357C37.7938 23.9205 37.8695 23.9035 37.9433 23.8865L37.9622 23.8827C38.0606 23.86 38.159 23.8392 38.2556 23.8146C38.3369 23.7956 38.4164 23.7748 38.4978 23.754C38.5943 23.7294 38.6909 23.7029 38.7855 23.6764C38.865 23.6537 38.9445 23.631 39.0239 23.6083C39.1186 23.5799 39.2113 23.5515 39.304 23.5231C39.4025 23.4928 39.5009 23.4606 39.5974 23.4285L39.7015 23.3925C39.8453 23.3433 39.9873 23.2922 40.1273 23.2373L40.2049 23.207C40.3241 23.1616 40.4415 23.1124 40.5569 23.0651L40.6629 23.0197C40.7992 22.961 40.9354 22.9005 41.0679 22.838L41.1152 22.8153C41.2345 22.7585 41.3518 22.6998 41.4672 22.6393L41.5694 22.5863C41.6981 22.5182 41.8249 22.4481 41.9499 22.3762C42.0085 22.3421 42.0653 22.3081 42.1221 22.274L42.8905 21.7573L43.5491 21.2104C43.6096 21.1555 43.6664 21.0987 43.7232 21.0438L43.7667 21.0003C43.8102 20.9568 43.8519 20.9133 43.8916 20.8716L43.9408 20.8186C43.9844 20.7694 44.0279 20.7221 44.0714 20.6729L44.096 20.6445C44.1452 20.5877 44.1925 20.5291 44.2399 20.4704L44.2834 20.4136C44.308 20.3814 44.3345 20.3474 44.3591 20.3133L44.4045 20.249C44.4272 20.2168 44.4499 20.1846 44.4726 20.1524L44.5162 20.0881C44.5389 20.0559 44.5597 20.0219 44.5805 19.9897L44.6203 19.9272C44.643 19.8913 44.6619 19.8553 44.6827 19.8194L44.7149 19.7626C44.73 19.7361 44.7452 19.7077 44.7603 19.6793L44.8001 19.6055C44.8171 19.5733 44.8322 19.5393 44.8493 19.5052L44.8777 19.4484C44.9023 19.3954 44.925 19.3443 44.9477 19.2913L45.0442 19.3027L44.9571 19.2667C44.9761 19.2232 44.9931 19.1778 45.0101 19.1324L45.0404 19.0491C45.0499 19.0245 45.0574 19.0018 45.065 18.9772L45.2051 18.4321L45.2297 18.2883C45.2353 18.2428 45.241 18.2145 45.2429 18.1861L45.2505 18.1217C45.2543 18.0839 45.2581 18.0555 45.26 18.0271L45.2637 17.9533C45.2637 17.9249 45.2675 17.8965 45.2675 17.8662C45.2675 17.8246 45.2713 17.7811 45.2713 17.7394H45.4606L45.4019 52.15C45.4019 52.1841 45.4019 52.2201 45.4019 52.2541V52.2731C45.4 52.3128 45.3981 52.3431 45.3962 52.3734L45.3905 52.451C45.3886 52.4812 45.3849 52.5096 45.383 52.5399L45.3508 52.7841C45.347 52.8106 45.3413 52.837 45.3357 52.8635L45.3224 52.9336C45.3129 52.9752 45.3073 53.0017 45.3016 53.0263L45.2032 53.032L45.2959 53.0528L45.2372 53.2799C45.2297 53.3064 45.2221 53.3329 45.2126 53.3575L45.1294 53.5998C45.1104 53.6509 45.0915 53.6982 45.0726 53.7436L45.0612 53.772C45.0385 53.8269 45.0139 53.8817 44.9893 53.9347L44.9647 53.9858C44.9458 54.0237 44.9287 54.0615 44.9098 54.0975L44.8758 54.16C44.853 54.2035 44.8379 54.2319 44.8228 54.2584L44.7887 54.317C44.7679 54.3549 44.7452 54.3908 44.7225 54.4287L44.6865 54.4855C44.66 54.529 44.6373 54.5631 44.6146 54.5971L44.5692 54.6653C44.5465 54.6993 44.5218 54.7315 44.4991 54.7656L44.4518 54.8299C44.4253 54.864 44.3988 54.8999 44.3723 54.934L44.3269 54.9927C44.2796 55.0532 44.2304 55.1119 44.1793 55.1725L44.1642 55.1895C44.1093 55.252 44.0657 55.3012 44.0203 55.3504L43.9692 55.4053C43.9276 55.4507 43.8841 55.4942 43.8405 55.5377L43.7951 55.5832C43.7364 55.6418 43.6778 55.6986 43.6153 55.7554L42.8545 56.378C42.8166 56.4045 42.7864 56.4272 42.7542 56.45L42.1259 56.8606C42.0785 56.889 42.0312 56.9174 41.982 56.9458C41.8552 57.0196 41.7265 57.0896 41.594 57.1597L41.49 57.2146C41.3726 57.2751 41.2534 57.3357 41.1323 57.3925L41.0831 57.4152C40.9487 57.4776 40.8124 57.5401 40.6724 57.5987L40.5645 57.6442C40.4472 57.6934 40.3279 57.7426 40.2068 57.788L40.1292 57.8183C39.9873 57.8732 39.8434 57.9243 39.6977 57.9754L39.2946 58.1078C39.2 58.1381 39.1053 58.1665 39.0107 58.1949C38.9312 58.2176 38.8498 58.2422 38.7684 58.2649C38.6719 58.2914 38.5754 58.3179 38.477 58.3425C38.3956 58.3633 38.3142 58.3842 38.2329 58.405C38.1344 58.4277 38.0341 58.4523 37.9357 58.4731L37.9035 58.4807C37.8316 58.4958 37.7616 58.5129 37.6897 58.528C37.5894 58.5488 37.4872 58.5677 37.385 58.5886L37.3169 58.6018C37.2828 58.6094 37.2468 58.6169 37.2109 58.6226L36.9894 58.6605C36.8494 58.6832 36.7093 58.7059 36.5693 58.7267L36.4993 58.7381C36.3384 58.7608 36.1775 58.7816 36.0167 58.7986L35.5946 58.8422C35.4697 58.8535 35.3448 58.8649 35.2199 58.8724C35.1423 58.8781 35.0628 58.8838 34.9833 58.8895C34.8527 58.897 34.7221 58.9027 34.5916 58.9084L34.3701 58.9179C34.266 58.9216 34.1619 58.9216 34.0579 58.9235H33.9519C33.8932 58.9254 33.8364 58.9273 33.7759 58.9273V58.9425ZM22.2577 18.9261L22.2009 52.0971C22.1953 53.8685 23.3951 55.5377 25.5773 56.7982C25.7135 56.8758 25.8517 56.9515 25.9917 57.0253C26.0201 57.0404 26.0485 57.0537 26.0769 57.0688L26.1337 57.0972C26.2283 57.1445 26.3229 57.1937 26.4214 57.2392C26.4592 57.2581 26.4989 57.2751 26.5368 57.2921L26.5955 57.3186C26.6844 57.3584 26.7734 57.4 26.8623 57.4379C26.9115 57.4587 26.9607 57.4795 27.0099 57.4984L27.1235 57.5458C27.1613 57.5628 27.1992 57.5779 27.2389 57.5931L27.4547 57.6744C27.572 57.718 27.6913 57.7615 27.8124 57.8031L27.8957 57.8334C28.0414 57.8826 28.1871 57.9299 28.3366 57.9754L28.5107 58.0284C28.5524 58.0416 28.5959 58.0549 28.6394 58.0662L28.7454 58.0946C28.8609 58.1268 28.9782 58.1571 29.0955 58.1873L29.1542 58.2025C29.2053 58.2157 29.2564 58.229 29.3094 58.2403C29.4381 58.2706 29.5687 58.3009 29.6974 58.3274L29.7655 58.3425C29.792 58.3482 29.8166 58.3539 29.8431 58.3596L29.8829 58.3671C29.9851 58.3879 30.0891 58.4069 30.1932 58.4258L30.3125 58.4485C30.3522 58.4561 30.392 58.4636 30.4336 58.4712C30.5888 58.4977 30.7459 58.5223 30.9029 58.545L30.9862 58.5583C31.1736 58.5848 31.3572 58.6075 31.5426 58.6283L31.6732 58.6415C31.8152 58.6567 31.9552 58.6718 32.099 58.6832C32.1483 58.687 32.1861 58.6908 32.224 58.6926L32.347 58.7002C32.4511 58.7078 32.5533 58.7154 32.6574 58.721C32.7066 58.7229 32.7558 58.7248 32.8069 58.7267L32.9677 58.7343C33.051 58.7381 33.1362 58.7419 33.2194 58.7437H33.2403C33.2819 58.7456 33.3179 58.7456 33.3538 58.7456H33.4617C33.5734 58.7475 33.685 58.7494 33.7948 58.7494C33.8478 58.7494 33.8989 58.7494 33.9519 58.7475H34.0597C34.1619 58.7437 34.266 58.7437 34.3682 58.74L34.5878 58.7305C34.7165 58.7248 34.8471 58.7191 34.9757 58.7116C35.0533 58.7059 35.1309 58.7002 35.2104 58.6945C35.3353 58.6851 35.4584 58.6756 35.5814 58.6643L35.9996 58.6226C36.1605 58.6037 36.3195 58.5848 36.4784 58.5621L36.5485 58.5507C36.6866 58.5299 36.8267 58.5091 36.9629 58.4864L37.1825 58.4485C37.2165 58.4428 37.2506 58.4353 37.2828 58.4296L37.3528 58.4144C37.4531 58.3955 37.5553 58.3766 37.6537 58.3558C37.7238 58.3406 37.7957 58.3255 37.8657 58.3085L37.8979 58.3009C37.9963 58.2782 38.0947 58.2574 38.1912 58.2328C38.2726 58.2138 38.3521 58.193 38.4335 58.1722C38.53 58.1476 38.6265 58.1211 38.7211 58.0946C38.8006 58.0719 38.8801 58.0492 38.9596 58.0265C39.0542 57.9981 39.147 57.9697 39.2397 57.9413L39.6371 57.8107C39.781 57.7615 39.9229 57.7104 40.063 57.6555L40.1406 57.6252C40.2579 57.5798 40.3771 57.5306 40.4926 57.4833L40.5986 57.4379C40.7348 57.3792 40.8711 57.3186 41.0036 57.2562L41.0339 57.241C41.1682 57.1767 41.2856 57.118 41.401 57.0575L41.5032 57.0045C41.6319 56.9363 41.7587 56.8663 41.8836 56.7944C41.9309 56.7679 41.9782 56.7395 42.0237 56.7111L42.6425 56.308C42.6728 56.2872 42.7031 56.2645 42.7334 56.2418L43.4772 55.6343C43.5434 55.5718 43.6021 55.5169 43.6588 55.4601L43.7043 55.4147C43.7459 55.3731 43.7875 55.3296 43.8292 55.286L43.8784 55.233C43.9219 55.1857 43.9654 55.1384 44.0071 55.0892L44.0336 55.0589C44.0828 55.0003 44.1301 54.9435 44.1774 54.8848L44.2209 54.828C44.2474 54.794 44.272 54.7618 44.2966 54.7277L44.3364 54.6728C44.3648 54.6331 44.3875 54.6009 44.4102 54.5669L44.4537 54.5025C44.4745 54.4703 44.4972 54.4363 44.5181 54.4041L44.5578 54.3416C44.5786 54.3057 44.5994 54.2697 44.6203 54.2357L44.7376 54.0237C44.7565 53.9877 44.7736 53.9518 44.7906 53.9158L44.8152 53.8666C44.8398 53.8155 44.8625 53.7625 44.8852 53.7095L44.9836 53.719L44.8966 53.683C44.9155 53.6395 44.9325 53.596 44.9496 53.5524L45.0272 53.3272C45.0385 53.2875 45.048 53.2629 45.0537 53.2383L45.171 52.6913L45.2032 52.3809C45.2051 52.3431 45.207 52.3147 45.2089 52.2863L45.3054 52.2617H45.2107C45.2107 52.2257 45.2107 52.1936 45.2107 52.1595L45.2675 18.9677L45.2429 19.0453C45.2353 19.0699 45.2259 19.0964 45.2164 19.1229L45.1861 19.2099C45.1691 19.2573 45.1502 19.3027 45.1313 19.35L45.1218 19.3746C45.0991 19.4295 45.0745 19.4844 45.048 19.5393L45.0234 19.5904C45.0026 19.6339 44.9855 19.6679 44.9685 19.702L44.9344 19.7645C44.9117 19.8061 44.8966 19.8345 44.8814 19.8629L44.8474 19.9216C44.8266 19.9594 44.8038 19.9954 44.7811 20.0332L44.7452 20.09C44.7187 20.1316 44.696 20.1676 44.6733 20.2017L44.6278 20.2679C44.6051 20.302 44.5805 20.3341 44.5578 20.3682L44.5105 20.4344C44.4859 20.4685 44.4594 20.5026 44.4329 20.5366L44.3875 20.5953C44.3402 20.6559 44.291 20.7164 44.2399 20.7751L44.2247 20.7921C44.1698 20.8546 44.1263 20.9038 44.0809 20.953L44.0392 20.9984C43.9881 21.0514 43.9465 21.0968 43.9011 21.1404L43.8557 21.1858C43.797 21.2426 43.7383 21.3012 43.6759 21.358L43.0967 21.8444L42.423 22.3156L42.2167 22.4443C42.1599 22.4803 42.1013 22.5144 42.0426 22.5484C41.9158 22.6222 41.7871 22.6923 41.6546 22.7623L41.5505 22.8172C41.4332 22.8777 41.3139 22.9383 41.1928 22.9951L41.1455 23.0178C41.0111 23.0821 40.873 23.1427 40.7348 23.2033L40.644 23.2411C40.5096 23.2979 40.3904 23.3471 40.2693 23.3925L40.1917 23.4228C40.0497 23.4777 39.9059 23.5288 39.7602 23.5799L39.6542 23.6158C39.5558 23.6499 39.4573 23.6802 39.357 23.7124C39.2624 23.7426 39.1678 23.771 39.0732 23.7994C38.9937 23.8221 38.9123 23.8467 38.8309 23.8694C38.7344 23.8959 38.6379 23.9224 38.5394 23.947C38.4581 23.9679 38.3767 23.9887 38.2934 24.0095C38.195 24.0341 38.0947 24.0568 37.9963 24.0776L37.9774 24.0814C37.9017 24.0984 37.826 24.1155 37.7484 24.1306C37.6481 24.1514 37.5459 24.1704 37.4437 24.1912L37.3888 24.2006C37.3169 24.2139 37.243 24.229 37.1711 24.2404L37.0481 24.2612C36.9081 24.2839 36.768 24.3066 36.628 24.3274L36.5579 24.3388C36.3971 24.3615 36.2362 24.3823 36.0753 24.3994L35.9542 24.4126C35.8634 24.4221 35.7725 24.4315 35.6817 24.4391H35.6533C35.5284 24.4524 35.4035 24.4637 35.2786 24.4732C35.201 24.4789 35.1215 24.4845 35.0439 24.4902C34.9133 24.4978 34.7827 24.5053 34.6521 24.5091L34.5783 24.5129C34.5291 24.5148 34.4799 24.5167 34.4307 24.5186C34.3228 24.5224 34.2149 24.5243 34.1052 24.5243H34.02C33.9557 24.5262 33.8932 24.5281 33.8289 24.5281C33.7191 24.5281 33.6112 24.5281 33.5014 24.5243H33.4087C33.3633 24.5243 33.3179 24.5224 33.2724 24.5205C33.1835 24.5186 33.0964 24.5148 33.0075 24.511L32.8542 24.5053C32.805 24.5053 32.7558 24.5016 32.7066 24.4997C32.6081 24.494 32.5097 24.4864 32.4113 24.4807L32.2656 24.4713C32.224 24.4694 32.1842 24.4656 32.1426 24.4618C31.9987 24.4505 31.8568 24.4353 31.7149 24.4202L31.5824 24.4069C31.395 24.3861 31.2095 24.3634 31.026 24.3369L30.937 24.3237C30.778 24.3009 30.621 24.2763 30.4639 24.2499C30.4241 24.2423 30.3863 24.2347 30.3465 24.229L30.267 24.2139C30.1384 24.1912 30.0229 24.1685 29.9075 24.1458C29.8677 24.1382 29.8299 24.1287 29.7901 24.1212L29.7201 24.106C29.5895 24.0776 29.457 24.0492 29.3283 24.0171C29.2716 24.0038 29.2148 23.9887 29.1599 23.9754L29.1126 23.9641C28.9933 23.9338 28.876 23.9035 28.7587 23.8713C28.6584 23.8429 28.5581 23.8146 28.4578 23.7862L28.3461 23.7521C28.1966 23.7067 28.0471 23.6575 27.9013 23.6083L27.8162 23.578C27.695 23.5364 27.5739 23.4928 27.4528 23.4474L27.3317 23.4001C27.237 23.3622 27.1424 23.3244 27.0478 23.2865L26.991 23.2638C26.9456 23.2449 26.8983 23.226 26.8529 23.207C26.7639 23.1692 26.6787 23.1295 26.5917 23.0897L26.5236 23.0594C26.4838 23.0405 26.4441 23.0235 26.4043 23.0045C26.3078 22.9591 26.2151 22.9118 26.1204 22.8645L26.0542 22.8304C26.0258 22.8153 25.9974 22.802 25.969 22.7869C25.8271 22.7131 25.6851 22.6355 25.547 22.556C23.8153 21.5567 22.6854 20.2982 22.2634 18.9298L22.2577 18.9261Z" fill="url(#paint6_linear_313_1646)"/>
</g>
<path style="mix-blend-mode:screen" d="M41.9386 12.9683C37.3946 10.3452 30.0495 10.3452 25.5358 12.9683C21.0201 15.5914 21.0447 19.8458 25.5887 22.4708C30.1328 25.0939 37.4778 25.0939 41.9935 22.4708C46.5073 19.8477 46.4846 15.5933 41.9386 12.9683Z" fill="url(#paint7_linear_313_1646)"/>
<path style="mix-blend-mode:screen" d="M39.2869 15.0898C39.2869 15.1031 39.2869 15.1182 39.285 15.1315C39.285 15.1428 39.285 15.1561 39.2831 15.1674C39.2831 15.1807 39.2812 15.1958 39.2793 15.2091C39.2793 15.2204 39.2774 15.2337 39.2756 15.245C39.2756 15.2583 39.2718 15.2734 39.2699 15.2867C39.2699 15.298 39.2661 15.3113 39.2642 15.3226C39.2623 15.3378 39.2585 15.351 39.2566 15.3662C39.2547 15.3775 39.2528 15.3889 39.251 15.4021C39.2491 15.4154 39.2453 15.4305 39.2415 15.4437C39.2396 15.4551 39.2358 15.4665 39.2339 15.4797C39.2301 15.493 39.2264 15.5081 39.2226 15.5213C39.2188 15.5327 39.2169 15.5441 39.2131 15.5554C39.2093 15.5705 39.2036 15.5838 39.1999 15.5989C39.1961 15.6103 39.1923 15.6216 39.1885 15.633C39.1828 15.6481 39.179 15.6633 39.1734 15.6765C39.1696 15.6879 39.1658 15.6973 39.162 15.7087C39.1544 15.7295 39.145 15.7522 39.1355 15.7731C39.1355 15.7768 39.1317 15.7806 39.1298 15.7844C39.1185 15.8109 39.1071 15.8355 39.0958 15.862C39.092 15.8696 39.0882 15.8771 39.0844 15.8866C39.0768 15.9036 39.0674 15.9226 39.0579 15.9396C39.0522 15.9491 39.0466 15.9585 39.0428 15.9699C39.0352 15.985 39.0257 16.0002 39.0182 16.0172C39.0125 16.0267 39.0068 16.0361 39.003 16.0437C38.9936 16.0607 38.9822 16.0778 38.9727 16.0948C38.9671 16.1043 38.9595 16.1156 38.9538 16.1251C38.9444 16.1402 38.933 16.1572 38.9235 16.1724C38.916 16.1837 38.9103 16.1932 38.9027 16.2046C38.8914 16.2197 38.88 16.2367 38.8687 16.2519C38.8611 16.2613 38.8535 16.2727 38.8459 16.2822C38.8346 16.2992 38.8213 16.3143 38.81 16.3314C38.8024 16.3408 38.7967 16.3503 38.7892 16.3597C38.7665 16.3881 38.7437 16.4165 38.7191 16.4449C38.7154 16.4487 38.7116 16.4544 38.7078 16.4582C38.687 16.4809 38.6662 16.5055 38.6453 16.5282C38.6378 16.5358 38.6302 16.5452 38.6207 16.5528C38.6018 16.5736 38.581 16.5944 38.5602 16.6152C38.5526 16.6228 38.5469 16.6304 38.5393 16.6361C38.5129 16.6626 38.4845 16.6909 38.4542 16.7174C38.4428 16.7269 38.4334 16.7364 38.422 16.7458C38.4088 16.7591 38.3936 16.7704 38.3804 16.7837C38.369 16.7931 38.3577 16.8045 38.3444 16.814C38.3293 16.8253 38.316 16.8386 38.3009 16.8499C38.2895 16.8594 38.2763 16.8707 38.263 16.8802C38.2479 16.8916 38.2346 16.9048 38.2195 16.9162C38.2063 16.9256 38.193 16.937 38.1798 16.9464C38.1646 16.9578 38.1495 16.9692 38.1343 16.9805C38.1211 16.99 38.1078 17.0013 38.0927 17.0108C38.0776 17.0221 38.0624 17.0335 38.0454 17.0449C38.0321 17.0543 38.017 17.0657 38.0019 17.0751C37.9867 17.0865 37.9697 17.0978 37.9545 17.1073C37.9394 17.1168 37.9243 17.1262 37.9091 17.1376C37.8921 17.1489 37.877 17.1584 37.8599 17.1698C37.8448 17.1792 37.8296 17.1887 37.8145 17.1982C37.7975 17.2095 37.7804 17.219 37.7634 17.2303C37.7369 17.2474 37.7085 17.2625 37.6801 17.2795C37.6196 17.3136 37.559 17.3477 37.4965 17.3817C37.4795 17.3912 37.4644 17.3988 37.4473 17.4082C37.3925 17.4366 37.3357 17.465 37.2789 17.4934C37.2713 17.4972 37.2638 17.501 37.2562 17.5047C37.1918 17.535 37.1275 17.5634 37.0613 17.5918C37.0442 17.5994 37.0272 17.6069 37.0102 17.6126C36.9534 17.6353 36.8985 17.6599 36.8398 17.6808C36.8266 17.6864 36.8152 17.6902 36.802 17.6959C36.7338 17.7224 36.6657 17.747 36.5976 17.7697C36.5805 17.7754 36.5635 17.7811 36.5484 17.7867C36.5011 17.8019 36.4537 17.817 36.4083 17.8322C36.3629 17.8454 36.3194 17.8606 36.2739 17.8738C36.2361 17.8852 36.1982 17.8965 36.1585 17.906C36.1131 17.9192 36.0658 17.9306 36.0203 17.9419C35.9825 17.9514 35.9428 17.9609 35.903 17.9703C35.8557 17.9817 35.8084 17.993 35.7611 18.0025C35.7213 18.012 35.6835 18.0195 35.6437 18.029C35.5964 18.0385 35.5472 18.0479 35.4999 18.0574C35.4564 18.0649 35.4147 18.0744 35.3712 18.082C35.3523 18.0858 35.3315 18.0896 35.3125 18.0914C35.2463 18.1028 35.18 18.1123 35.1138 18.1236C35.1025 18.1236 35.0911 18.1274 35.0797 18.1293C35.004 18.1407 34.9264 18.1501 34.8507 18.1577C34.8318 18.1596 34.8129 18.1615 34.794 18.1634C34.7466 18.169 34.6993 18.1728 34.6501 18.1766C34.5915 18.1823 34.5309 18.1861 34.4722 18.1918C34.4344 18.1936 34.3984 18.1974 34.3606 18.1993C34.2981 18.2031 34.2357 18.2069 34.1732 18.2088C34.1372 18.2088 34.1032 18.2126 34.0672 18.2126C34.0142 18.2126 33.9593 18.2145 33.9064 18.2164C33.8685 18.2164 33.8306 18.2164 33.7928 18.2164C33.736 18.2164 33.6773 18.2164 33.6206 18.2164C33.5865 18.2164 33.5524 18.2164 33.5184 18.2164C33.4654 18.2164 33.4124 18.2126 33.3594 18.2107C33.3215 18.2107 33.2856 18.2088 33.2477 18.2069C33.191 18.2031 33.1342 18.1993 33.0774 18.1955C33.0452 18.1936 33.0131 18.1918 32.979 18.188C32.9109 18.1823 32.8427 18.1747 32.7746 18.169C32.7538 18.1671 32.733 18.1653 32.7121 18.1634C32.6232 18.1539 32.5361 18.1425 32.4472 18.1293C32.432 18.1274 32.4188 18.1255 32.4055 18.1217C32.3298 18.1104 32.2541 18.099 32.1803 18.0858C32.1482 18.0801 32.1179 18.0744 32.0876 18.0687C32.0308 18.0574 31.974 18.0479 31.9173 18.0366C31.887 18.0309 31.8586 18.0233 31.8283 18.0176C31.7659 18.0044 31.7034 17.9911 31.6428 17.976C31.6088 17.9684 31.5747 17.959 31.5406 17.9495C31.4839 17.9344 31.429 17.9211 31.3722 17.906C31.3249 17.8927 31.2776 17.8795 31.2303 17.8643C31.2132 17.8587 31.1943 17.853 31.1773 17.8492C31.1054 17.8265 31.0353 17.8057 30.9653 17.7811C30.9521 17.7773 30.9388 17.7716 30.9256 17.7678C30.8669 17.747 30.8101 17.7262 30.7533 17.7054C30.7344 17.6978 30.7155 17.6902 30.6947 17.6827C30.6492 17.6656 30.6057 17.6467 30.5603 17.6278C30.53 17.6145 30.4978 17.6032 30.4676 17.5899C30.424 17.571 30.3824 17.5521 30.3389 17.5331C30.3105 17.5199 30.2821 17.5085 30.2556 17.4953C30.2083 17.4726 30.1629 17.4499 30.1174 17.4272C30.0947 17.4158 30.072 17.4044 30.0493 17.3931C29.9812 17.3571 29.9149 17.3212 29.8506 17.2833C28.7586 16.6531 28.2135 15.826 28.2154 14.999L28.187 16.7931C28.1851 17.6202 28.7302 18.4472 29.8222 19.0775C29.8884 19.1153 29.9547 19.1513 30.0209 19.1872C30.0436 19.1986 30.0663 19.21 30.089 19.2213C30.1345 19.244 30.1799 19.2686 30.2272 19.2894C30.2556 19.3027 30.284 19.3159 30.3105 19.3273C30.354 19.3462 30.3956 19.367 30.4392 19.3841C30.4695 19.3973 30.4997 19.4087 30.5319 19.4219C30.5622 19.4333 30.5906 19.4465 30.6209 19.4579C30.636 19.4636 30.6511 19.4692 30.6663 19.4749C30.6852 19.4825 30.7041 19.4901 30.7249 19.4976C30.7817 19.5184 30.8385 19.5393 30.8972 19.5601C30.9104 19.5639 30.9237 19.5695 30.9369 19.5733C31.0069 19.5979 31.077 19.6206 31.1489 19.6415C31.1659 19.6471 31.1848 19.6528 31.2019 19.6566C31.2322 19.6661 31.2624 19.6755 31.2927 19.6831C31.3098 19.6888 31.3268 19.6926 31.3438 19.6963C31.3987 19.7115 31.4555 19.7266 31.5123 19.7399C31.5463 19.7493 31.5804 19.7569 31.6145 19.7664C31.6769 19.7815 31.7394 19.7948 31.7999 19.808C31.8226 19.8137 31.8453 19.8194 31.8699 19.8231C31.8756 19.8231 31.8832 19.825 31.8889 19.8269C31.9457 19.8383 32.0024 19.8496 32.0592 19.8591C32.0895 19.8648 32.1217 19.8705 32.1519 19.8761C32.2276 19.8894 32.3015 19.9007 32.3772 19.9121C32.3904 19.914 32.4037 19.9159 32.4169 19.9178H32.4188C32.5059 19.931 32.5948 19.9424 32.6838 19.9518C32.7046 19.9537 32.7254 19.9556 32.7462 19.9575C32.8143 19.9651 32.8825 19.9708 32.9506 19.9764H32.9563C32.9866 19.9802 33.0187 19.9802 33.049 19.984C33.1058 19.9878 33.1626 19.9916 33.2193 19.9954C33.2553 19.9973 33.2932 19.9992 33.331 19.9992C33.384 20.001 33.437 20.0048 33.49 20.0048C33.4938 20.0048 33.4994 20.0048 33.5032 20.0048C33.5335 20.0048 33.5638 20.0048 33.5922 20.0048C33.649 20.0048 33.7076 20.0048 33.7644 20.0048C33.8023 20.0048 33.8401 20.0048 33.878 20.0048C33.931 20.0048 33.9858 20.0048 34.0388 20.001C34.0483 20.001 34.0596 20.001 34.0691 20.001C34.0937 20.001 34.1183 19.9992 34.1448 19.9973C34.2073 19.9954 34.2697 19.9916 34.3303 19.9878C34.3681 19.9859 34.406 19.9821 34.4419 19.9802C34.5006 19.9764 34.5612 19.9708 34.6198 19.9651C34.6407 19.9632 34.6615 19.9613 34.6823 19.9594C34.7088 19.9575 34.7353 19.9537 34.7637 19.9499C34.7826 19.9481 34.8015 19.9462 34.8205 19.9443C34.8981 19.9348 34.9738 19.9253 35.0495 19.9159C35.0608 19.9159 35.0722 19.9121 35.0835 19.9102C35.1498 19.9007 35.216 19.8894 35.2822 19.8799C35.3012 19.8761 35.322 19.8742 35.3409 19.8705C35.3561 19.8686 35.3731 19.8648 35.3882 19.8629C35.4166 19.8572 35.4431 19.8515 35.4715 19.8459C35.5207 19.8364 35.568 19.8269 35.6153 19.8175C35.6551 19.8099 35.6929 19.8004 35.7327 19.791C35.78 19.7796 35.8273 19.7701 35.8746 19.7588C35.9144 19.7493 35.9522 19.7399 35.9901 19.7304C36.0355 19.7191 36.0828 19.7058 36.1282 19.6944C36.1661 19.6831 36.2039 19.6736 36.2437 19.6623C36.2891 19.649 36.3345 19.6358 36.378 19.6206C36.397 19.615 36.4178 19.6093 36.4367 19.6036C36.4651 19.5941 36.4916 19.5847 36.5181 19.5752C36.5351 19.5695 36.5522 19.5639 36.5692 19.5582C36.6373 19.5336 36.7073 19.509 36.7736 19.4844C36.7868 19.4787 36.7982 19.4749 36.8114 19.4692C36.8682 19.4465 36.925 19.4238 36.9818 19.4011C36.9988 19.3935 37.0158 19.386 37.0329 19.3803C37.0991 19.3519 37.1635 19.3235 37.2278 19.2932C37.2354 19.2894 37.2429 19.2857 37.2505 19.2819C37.3073 19.2554 37.3641 19.227 37.419 19.1967C37.436 19.1872 37.4511 19.1797 37.4682 19.1702C37.5306 19.138 37.5912 19.104 37.6517 19.068C37.6744 19.0548 37.6972 19.0415 37.7199 19.0283C37.7255 19.0245 37.7293 19.0226 37.735 19.0188C37.752 19.0074 37.7691 18.998 37.7861 18.9866C37.8012 18.9772 37.8164 18.9677 37.8315 18.9582C37.8486 18.9469 37.8656 18.9374 37.8807 18.9261C37.8959 18.9166 37.911 18.9071 37.9243 18.8977C37.9413 18.8863 37.9564 18.875 37.9735 18.8636C37.9886 18.8541 38.0019 18.8447 38.017 18.8333C38.0321 18.822 38.0492 18.8106 38.0643 18.7993C38.0776 18.7898 38.0908 18.7803 38.106 18.769C38.1211 18.7576 38.1362 18.7463 38.1514 18.7349C38.1646 18.7255 38.1779 18.7141 38.1911 18.7046C38.2063 18.6933 38.2214 18.6819 38.2346 18.6687C38.2479 18.6592 38.2593 18.6479 38.2725 18.6384C38.2876 18.627 38.3009 18.6138 38.3141 18.6024C38.3255 18.593 38.3387 18.5816 38.3501 18.5722C38.3652 18.5589 38.3785 18.5476 38.3917 18.5343C38.4012 18.5248 38.4107 18.5173 38.4201 18.5078L38.4239 18.504C38.4523 18.4775 38.4807 18.451 38.5091 18.4226C38.5166 18.4151 38.5242 18.4075 38.5299 18.4018C38.5507 18.381 38.5696 18.3602 38.5904 18.3394C38.598 18.3299 38.6075 18.3223 38.6151 18.3129C38.6359 18.2902 38.6567 18.2656 38.6775 18.2428C38.6813 18.2372 38.6851 18.2334 38.6908 18.2277C38.7154 18.1993 38.7381 18.1709 38.7608 18.1425L38.7665 18.135C38.7665 18.135 38.7759 18.1217 38.7816 18.1142C38.7948 18.0971 38.8062 18.082 38.8176 18.0649C38.8251 18.0555 38.8327 18.0441 38.8403 18.0347C38.8516 18.0195 38.863 18.0025 38.8743 17.9874C38.8819 17.976 38.8895 17.9665 38.8952 17.9552C38.9065 17.94 38.916 17.923 38.9254 17.9079C38.9311 17.8984 38.9387 17.887 38.9444 17.8776C38.9557 17.8606 38.9652 17.8435 38.9746 17.8265C38.9784 17.8189 38.9841 17.8132 38.9879 17.8057L38.9917 17.8C39.0011 17.7848 39.0087 17.7697 39.0163 17.7527C39.022 17.7432 39.0276 17.7337 39.0314 17.7224C39.0409 17.7054 39.0485 17.6864 39.0579 17.6694C39.0617 17.6618 39.0655 17.6543 39.0693 17.6448C39.0806 17.6202 39.092 17.5937 39.1033 17.5691C39.1033 17.5653 39.1071 17.5596 39.109 17.5558C39.1185 17.535 39.126 17.5123 39.1336 17.4915C39.1374 17.4801 39.1412 17.4688 39.1431 17.4593C39.1488 17.4442 39.1544 17.429 39.1582 17.4139C39.162 17.4026 39.1658 17.3912 39.1696 17.3798C39.1734 17.3647 39.179 17.3515 39.1828 17.3363C39.1866 17.325 39.1885 17.3136 39.1923 17.3022C39.1961 17.289 39.1999 17.2739 39.2036 17.2606C39.2074 17.2493 39.2093 17.2379 39.2112 17.2246C39.215 17.2114 39.2169 17.1963 39.2207 17.183V17.1754C39.2207 17.1754 39.2264 17.1565 39.2264 17.1471C39.2282 17.1338 39.232 17.1187 39.2339 17.1054C39.2358 17.0941 39.2377 17.0808 39.2396 17.0695C39.2415 17.0562 39.2434 17.0411 39.2453 17.0278C39.2453 17.0165 39.2472 17.0032 39.2491 16.9919C39.2491 16.9786 39.251 16.9635 39.2528 16.9502C39.2528 16.9389 39.2528 16.9256 39.2547 16.9143C39.2547 16.901 39.2547 16.8859 39.2566 16.8726C39.2566 16.8688 39.2566 16.8632 39.2566 16.8594C39.2566 16.8424 39.2566 16.8272 39.2566 16.8102L39.285 15.016C39.285 15.0368 39.285 15.0577 39.285 15.0785L39.2869 15.0898Z" fill="url(#paint8_linear_313_1646)"/>
<path style="mix-blend-mode:screen" d="M37.6537 12.7431C35.4829 11.4902 31.976 11.4902 29.8204 12.7431C27.6647 13.9959 27.6761 16.0286 29.845 17.2814C32.0157 18.5343 35.5227 18.5343 37.6802 17.2814C39.8358 16.0286 39.8245 13.9959 37.6537 12.7431Z" fill="url(#paint9_linear_313_1646)"/>
<path d="M16.8676 53.1455L16.4077 52.8806C16.315 52.8276 16.1635 52.8276 16.0708 52.8806L14.4546 53.8193C14.3618 53.8723 14.3618 53.9612 14.4546 54.0142L14.9145 54.2792C15.0072 54.3322 15.1586 54.3322 15.2513 54.2792L16.8676 53.3405C16.9603 53.2875 16.9603 53.1985 16.8676 53.1455Z" fill="url(#paint10_linear_313_1646)"/>
<path d="M18.9835 54.3681L18.5237 54.1032C18.4309 54.0502 18.2795 54.0502 18.1868 54.1032L16.5705 55.0419C16.4778 55.0949 16.4778 55.1838 16.5705 55.2368L17.0304 55.5018C17.1232 55.5548 17.2746 55.5548 17.3673 55.5018L18.9835 54.5631C19.0763 54.5101 19.0763 54.4211 18.9835 54.3681Z" fill="url(#paint11_linear_313_1646)"/>
<path d="M17.9254 53.7569L17.4656 53.4919C17.3728 53.4389 17.2214 53.4389 17.1287 53.4919L15.5124 54.4306C15.4197 54.4836 15.4197 54.5725 15.5124 54.6255L15.9723 54.8905C16.0651 54.9435 16.2165 54.9435 16.3092 54.8905L17.9254 53.9518C18.0182 53.8988 18.0182 53.8098 17.9254 53.7569Z" fill="url(#paint12_linear_313_1646)"/>
</g>
<defs>
<linearGradient id="paint0_linear_313_1646" x1="12" y1="62.3642" x2="55.4684" y2="62.3642" gradientUnits="userSpaceOnUse">
<stop stop-color="#1A3E6F"/>
<stop offset="0.21" stop-color="#19437A"/>
<stop offset="0.57" stop-color="#175099"/>
<stop offset="1" stop-color="#1464C5"/>
</linearGradient>
<linearGradient id="paint1_linear_313_1646" x1="33.7417" y1="40.8779" x2="33.7417" y2="65.3128" gradientUnits="userSpaceOnUse">
<stop stop-color="#1B015F"/>
<stop offset="0.18" stop-color="#1A0C6A"/>
<stop offset="0.5" stop-color="#182A89"/>
<stop offset="0.92" stop-color="#145ABB"/>
<stop offset="1" stop-color="#1464C5"/>
</linearGradient>
<linearGradient id="paint2_linear_313_1646" x1="33.7646" y1="44.7142" x2="33.7646" y2="58.7248" gradientUnits="userSpaceOnUse">
<stop/>
<stop offset="0.25" stop-color="#334C4C"/>
<stop offset="0.52" stop-color="#659797"/>
<stop offset="0.74" stop-color="#8ACECE"/>
<stop offset="0.91" stop-color="#A1F0F0"/>
<stop offset="1" stop-color="#AAFDFD"/>
</linearGradient>
<linearGradient id="paint3_linear_313_1646" x1="23.9762" y1="37.1628" x2="43.4923" y2="37.1628" gradientUnits="userSpaceOnUse">
<stop stop-color="#41CBE2"/>
<stop offset="1" stop-color="#1826EA"/>
</linearGradient>
<linearGradient id="paint4_linear_313_1646" x1="27.9659" y1="13.0194" x2="39.6998" y2="22.2854" gradientUnits="userSpaceOnUse">
<stop stop-color="#4B74B0"/>
<stop offset="1" stop-color="#001BAB"/>
</linearGradient>
<linearGradient id="paint5_linear_313_1646" x1="33.7343" y1="58.4125" x2="33.7343" y2="12.2756" gradientUnits="userSpaceOnUse">
<stop stop-color="#AAFDFD"/>
<stop offset="0.11" stop-color="#86C8C8"/>
<stop offset="0.24" stop-color="#639494"/>
<stop offset="0.37" stop-color="#456666"/>
<stop offset="0.5" stop-color="#2C4141"/>
<stop offset="0.62" stop-color="#182424"/>
<stop offset="0.75" stop-color="#0B1010"/>
<stop offset="0.88" stop-color="#020404"/>
<stop offset="1"/>
</linearGradient>
<linearGradient id="paint6_linear_313_1646" x1="33.7342" y1="58.9425" x2="33.7342" y2="17.6845" gradientUnits="userSpaceOnUse">
<stop stop-color="white"/>
<stop offset="0.09" stop-color="#F3F3F3"/>
<stop offset="0.24" stop-color="#D4D4D4"/>
<stop offset="0.45" stop-color="#A2A2A2"/>
<stop offset="0.7" stop-color="#5C5C5C"/>
<stop offset="0.99" stop-color="#040404"/>
<stop offset="1"/>
</linearGradient>
<linearGradient id="paint7_linear_313_1646" x1="35.4963" y1="24.6624" x2="31.9951" y2="10.6215" gradientUnits="userSpaceOnUse">
<stop stop-color="#303030"/>
<stop offset="0.17" stop-color="#2A3F41"/>
<stop offset="0.5" stop-color="#1A6670"/>
<stop offset="0.97" stop-color="#01A6BA"/>
<stop offset="1" stop-color="#00ABC0"/>
</linearGradient>
<linearGradient id="paint8_linear_313_1646" x1="28.1813" y1="17.5066" x2="39.2888" y2="17.5066" gradientUnits="userSpaceOnUse">
<stop stop-color="#4CC2FF"/>
<stop offset="0.09" stop-color="#48B8F2"/>
<stop offset="0.25" stop-color="#3E9ED0"/>
<stop offset="0.48" stop-color="#2D7499"/>
<stop offset="0.74" stop-color="#173B4E"/>
<stop offset="1"/>
</linearGradient>
<linearGradient id="paint9_linear_313_1646" x1="30.4506" y1="12.4081" x2="37.1294" y2="17.6827" gradientUnits="userSpaceOnUse">
<stop stop-color="#CBE0FE"/>
<stop offset="0.31" stop-color="#A7C7F3"/>
<stop offset="0.99" stop-color="#4F8ADA"/>
<stop offset="1" stop-color="#4E8ADA"/>
</linearGradient>
<linearGradient id="paint10_linear_313_1646" x1="15.2646" y1="53.066" x2="18.0561" y2="56.6808" gradientUnits="userSpaceOnUse">
<stop stop-color="#AEF4F2"/>
<stop offset="0.66" stop-color="#38E4E0"/>
<stop offset="1" stop-color="#00DDD8"/>
</linearGradient>
<linearGradient id="paint11_linear_313_1646" x1="16.0009" y1="52.5002" x2="18.7905" y2="56.115" gradientUnits="userSpaceOnUse">
<stop stop-color="#AEF4F2"/>
<stop offset="0.66" stop-color="#38E4E0"/>
<stop offset="1" stop-color="#00DDD8"/>
</linearGradient>
<linearGradient id="paint12_linear_313_1646" x1="15.6335" y1="52.7822" x2="18.4232" y2="56.397" gradientUnits="userSpaceOnUse">
<stop stop-color="#AEF4F2"/>
<stop offset="0.66" stop-color="#38E4E0"/>
<stop offset="1" stop-color="#00DDD8"/>
</linearGradient>
<clipPath id="clip0_313_1646">
<rect width="43.4684" height="60" fill="white" transform="translate(12 11)"/>
</clipPath>
</defs>
</svg>
