<svg width="67" height="81" viewBox="0 0 67 81" fill="none" xmlns="http://www.w3.org/2000/svg">
<g clip-path="url(#clip0_313_2909)">
<path d="M47.327 35.8254V61.5831L31.02 71.0001V45.2406L47.327 35.8254Z" fill="url(#paint0_linear_313_2909)"/>
<path d="M19 36.2622C19.0018 37.523 19.8364 38.782 21.5003 39.7445L31.0202 45.2405V71L21.5003 65.504C19.6126 64.4136 18.794 62.938 19.0444 61.5156H19V36.2622V36.2622Z" fill="url(#paint1_linear_313_2909)"/>
<path d="M19.6251 34.4013C19.6411 34.38 19.657 34.3587 19.673 34.3374C19.7103 34.2859 19.7494 34.2326 19.7902 34.1811C19.8293 34.1314 19.8737 34.0834 19.9163 34.0337C19.9358 34.0106 19.9554 33.9875 19.9749 33.9644C20.3656 33.5347 20.8734 33.1316 21.4985 32.7711L31.7678 26.8418L47.3272 35.8237L31.0202 45.2389L21.5003 39.7428C19.8364 38.7821 19.0018 37.5231 19 36.2623V36.2534C19 35.623 19.2095 34.9926 19.6251 34.3995V34.4013Z" fill="url(#paint2_linear_313_2909)"/>
<path d="M33.7335 48.3144C33.6359 48.3144 33.54 48.2629 33.4867 48.1724C33.4086 48.0356 33.4547 47.8616 33.5915 47.7835L44.5587 41.451C44.6954 41.3729 44.8694 41.4191 44.9476 41.5558C45.0257 41.6925 44.9795 41.8666 44.8428 41.9447L33.8756 48.2771C33.8312 48.3038 33.7815 48.3144 33.7335 48.3144Z" fill="white"/>
<path d="M33.7335 51.4807C33.6359 51.4807 33.54 51.4292 33.4867 51.3386C33.4086 51.2019 33.4547 51.0279 33.5915 50.9497L44.5587 44.6173C44.6954 44.5392 44.8694 44.5853 44.9476 44.7221C45.0257 44.8588 44.9795 45.0328 44.8428 45.111L33.8756 51.4434C33.8312 51.47 33.7815 51.4807 33.7335 51.4807Z" fill="white"/>
<path d="M33.7335 54.6469C33.6359 54.6469 33.54 54.5954 33.4867 54.5049C33.4086 54.3681 33.4547 54.1941 33.5915 54.116L44.5587 47.7836C44.6954 47.7054 44.8694 47.7516 44.9476 47.8883C45.0257 48.0251 44.9795 48.1991 44.8428 48.2772L33.8756 54.6097C33.8312 54.6363 33.7815 54.6469 33.7335 54.6469Z" fill="white"/>
<path d="M33.7335 57.813C33.6359 57.813 33.54 57.7615 33.4867 57.6709C33.4086 57.5342 33.4547 57.3601 33.5915 57.282L44.5587 50.9496C44.6954 50.8714 44.8694 50.9176 44.9476 51.0543C45.0257 51.1911 44.9795 51.3651 44.8428 51.4432L33.8756 57.7757C33.8312 57.8023 33.7815 57.813 33.7335 57.813Z" fill="white"/>
<path d="M33.7335 60.9792C33.6359 60.9792 33.54 60.9277 33.4867 60.8372C33.4086 60.7004 33.4547 60.5264 33.5915 60.4483L44.5587 54.1158C44.6954 54.0377 44.8694 54.0839 44.9476 54.2206C45.0257 54.3573 44.9795 54.5314 44.8428 54.6095L33.8756 60.9419C33.8312 60.9686 33.7815 60.9792 33.7335 60.9792Z" fill="white"/>
<path d="M33.7335 64.1455C33.6359 64.1455 33.54 64.094 33.4867 64.0034C33.4086 63.8667 33.4547 63.6927 33.5915 63.6145L44.5587 57.2821C44.6954 57.204 44.8694 57.2501 44.9476 57.3869C45.0257 57.5236 44.9795 57.6976 44.8428 57.7758L33.8756 64.1082C33.8312 64.1348 33.7815 64.1455 33.7335 64.1455Z" fill="white"/>
<path d="M28.5376 47.938C28.4878 47.938 28.4399 47.9255 28.3937 47.8989L20.9603 43.5269C20.8253 43.447 20.7792 43.273 20.8591 43.138C20.939 43.0031 21.113 42.9569 21.248 43.0368L28.6814 47.4088C28.8164 47.4887 28.8625 47.6627 28.7826 47.7977C28.7293 47.8882 28.6352 47.938 28.5376 47.938Z" fill="white"/>
<path d="M28.5376 51.1042C28.4878 51.1042 28.4399 51.0918 28.3937 51.0652L20.9603 46.6932C20.8253 46.6133 20.7792 46.4393 20.8591 46.3043C20.939 46.1693 21.113 46.1232 21.248 46.2031L28.6814 50.575C28.8164 50.655 28.8625 50.829 28.7826 50.9639C28.7293 51.0545 28.6352 51.1042 28.5376 51.1042Z" fill="white"/>
<path d="M28.5376 54.2705C28.4878 54.2705 28.4399 54.2581 28.3937 54.2314L20.9603 49.8595C20.8253 49.7795 20.7792 49.6055 20.8591 49.4706C20.939 49.3356 21.113 49.2894 21.248 49.3693L28.6814 53.7413C28.8164 53.8212 28.8625 53.9952 28.7826 54.1302C28.7293 54.2208 28.6352 54.2705 28.5376 54.2705Z" fill="white"/>
<path d="M28.5376 57.4365C28.4878 57.4365 28.4399 57.4241 28.3937 57.3974L20.9603 53.0255C20.8253 52.9456 20.7792 52.7715 20.8591 52.6366C20.939 52.5016 21.113 52.4554 21.248 52.5354L28.6814 56.9073C28.8164 56.9872 28.8625 57.1613 28.7826 57.2962C28.7293 57.3868 28.6352 57.4365 28.5376 57.4365Z" fill="white"/>
<path d="M28.5376 60.6028C28.4878 60.6028 28.4399 60.5903 28.3937 60.5637L20.9603 56.1917C20.8253 56.1118 20.7792 55.9378 20.8591 55.8028C20.939 55.6679 21.113 55.6217 21.248 55.7016L28.6814 60.0736C28.8164 60.1535 28.8625 60.3275 28.7826 60.4625C28.7293 60.553 28.6352 60.6028 28.5376 60.6028Z" fill="white"/>
<path d="M28.5376 63.7673C28.4878 63.7673 28.4399 63.7549 28.3937 63.7283L20.9603 59.3563C20.8253 59.2764 20.7792 59.1023 20.8591 58.9674C20.939 58.8324 21.113 58.7863 21.248 58.8662L28.6814 63.2381C28.8164 63.318 28.8625 63.4921 28.7826 63.627C28.7293 63.7176 28.6352 63.7673 28.5376 63.7673Z" fill="white"/>
<path d="M37.0688 39.7854L35.8506 40.4939C35.95 40.4353 36.0122 40.3128 36.0122 40.137L37.2304 39.4285C37.2304 39.6043 37.1682 39.7268 37.0688 39.7854Z" fill="#009DE0"/>
<path d="M35.3888 18.1119C35.5663 18.2149 35.7102 18.4617 35.7084 18.6659L35.6498 39.6538C35.6498 39.8581 35.506 39.9397 35.3266 39.8368L25.432 34.1241C25.2544 34.0211 25.1105 33.7742 25.1123 33.57L25.1727 12.5839C25.1727 12.3797 25.3165 12.298 25.4941 12.401L27.57 13.5996C27.7138 13.6831 27.831 13.8855 27.831 14.0507C27.831 14.2176 27.9465 14.4183 28.0903 14.5017L32.789 17.2151C32.9328 17.2986 33.0518 17.2311 33.0518 17.0659C33.0518 16.899 33.169 16.8333 33.3146 16.9168L35.3888 18.1137V18.1119Z" fill="url(#paint3_linear_313_2909)"/>
<path d="M36.7387 16.9381L26.5883 11.0763C26.4338 10.9875 26.2935 10.9786 26.1923 11.0372L24.9741 11.7457C25.0753 11.6871 25.2156 11.696 25.3701 11.7848L35.5205 17.6449C35.8277 17.8225 36.0745 18.2504 36.0745 18.6038L37.2927 17.8953C37.2927 17.5419 37.0459 17.1139 36.7387 16.9363V16.9381Z" fill="url(#paint4_linear_313_2909)"/>
<path d="M35.5203 17.6449C35.8275 17.8225 36.0743 18.2505 36.0743 18.6038L36.0139 40.1369C36.0139 40.4903 35.7636 40.6324 35.4564 40.4548L25.306 34.5947C24.9988 34.4171 24.7502 33.9874 24.752 33.6358L24.8123 12.1027C24.8123 11.7493 25.0627 11.6073 25.3699 11.7866L35.5203 17.6467V17.6449ZM35.6499 39.6539L35.7085 18.666C35.7085 18.4618 35.5665 18.2132 35.3889 18.1119L33.3148 16.9151C33.1709 16.8316 33.052 16.8991 33.052 17.0642C33.052 17.2312 32.9347 17.2969 32.7891 17.2134L28.0904 14.5C27.9466 14.4166 27.8312 14.2159 27.8312 14.049C27.8312 13.882 27.7157 13.6814 27.5701 13.5979L25.4942 12.3993C25.3167 12.2963 25.1728 12.378 25.1728 12.5822L25.1124 33.5683C25.1124 33.7725 25.2545 34.0211 25.4321 34.1224L35.3267 39.835C35.5043 39.938 35.6481 39.8564 35.6499 39.6521" fill="url(#paint5_linear_313_2909)"/>
<path d="M36.0726 18.6038L37.2925 17.8953L37.2304 39.4284L36.0122 40.1369L36.0726 18.6038Z" fill="url(#paint6_linear_313_2909)"/>
<path d="M28.2291 24.4034L29.6532 23.5759C29.2537 23.8086 29.0051 24.3022 29.0033 25.0054C28.9997 26.4225 29.996 28.1486 31.2283 28.8606C31.8499 29.2194 32.4128 29.2531 32.8194 29.0169L31.3953 29.8444C30.9886 30.0806 30.4257 30.0469 29.8042 29.6882C28.5718 28.9761 27.5738 27.25 27.5791 25.8329C27.5809 25.1297 27.8277 24.6361 28.2291 24.4034Z" fill="url(#paint7_linear_313_2909)"/>
<path d="M28.4811 22.7501L29.907 21.9226L29.9017 23.4711L28.4775 24.2986L28.4811 22.7501Z" fill="url(#paint8_linear_313_2909)"/>
<path d="M27.3979 22.9722L28.8221 22.1447C29.1311 21.9653 29.4969 21.8872 29.9053 21.9227L28.4812 22.7502C28.0745 22.7165 27.7069 22.7928 27.3979 22.9722Z" fill="url(#paint9_linear_313_2909)"/>
<path d="M29.8289 21.6366C30.1219 21.8053 30.358 22.2155 30.358 22.5529L30.3456 27.2374C30.3456 27.5748 30.1059 27.7098 29.8129 27.5411C29.5181 27.3706 29.2837 26.9622 29.2837 26.6248L29.2961 21.9403C29.2961 21.6029 29.5341 21.4662 29.8289 21.6366Z" fill="url(#paint10_linear_313_2909)"/>
<path d="M31.2531 20.8075C31.1057 20.7222 30.9725 20.7133 30.8749 20.7702L29.4507 21.5977C29.5466 21.5409 29.6798 21.5497 29.8289 21.635C30.1219 21.8037 30.3581 22.2139 30.3581 22.5513L30.3457 27.2358C30.3457 27.4027 30.2853 27.5199 30.1912 27.5767L31.6154 26.7492C31.7112 26.6942 31.7699 26.577 31.7699 26.4083L31.7823 21.7238C31.7823 21.3864 31.5461 20.9762 31.2531 20.8075Z" fill="url(#paint11_linear_313_2909)"/>
<path d="M33.6505 30.4445L32.2263 31.272C32.8372 30.9169 33.2172 30.1621 33.2189 29.0878C33.2243 27.4718 32.3772 25.5966 31.1626 24.2968L32.5868 23.4692C33.8014 24.7691 34.6485 26.6461 34.6431 28.2603C34.6396 29.3329 34.2613 30.0893 33.6505 30.4445Z" fill="url(#paint12_linear_313_2909)"/>
<path d="M31.1624 24.2986C32.3771 25.5985 33.2241 27.4755 33.2188 29.0897C33.2134 31.2508 31.6827 32.1209 29.8004 31.0359C27.9181 29.9492 26.398 27.3175 26.4033 25.1563C26.4087 23.5404 27.2646 22.6489 28.481 22.7519L28.4774 24.3004C27.9341 24.4549 27.5825 24.9965 27.5789 25.8347C27.5753 27.2518 28.5716 28.9778 29.8039 29.6899C31.0381 30.402 32.0414 29.8302 32.045 28.4131C32.0468 27.5732 31.6969 26.6267 31.1571 25.8471L31.1606 24.2986H31.1624Z" fill="url(#paint13_linear_313_2909)"/>
</g>
<defs>
<linearGradient id="paint0_linear_313_2909" x1="47.3288" y1="53.4127" x2="18.9998" y2="53.4127" gradientUnits="userSpaceOnUse">
<stop stop-color="#003CCF"/>
<stop offset="1" stop-color="#55CDED"/>
</linearGradient>
<linearGradient id="paint1_linear_313_2909" x1="24.8175" y1="45.6667" x2="25.5224" y2="74.5782" gradientUnits="userSpaceOnUse">
<stop stop-color="#BED9FD"/>
<stop offset="1" stop-color="white"/>
</linearGradient>
<linearGradient id="paint2_linear_313_2909" x1="30.3028" y1="29.0882" x2="35.3798" y2="41.9217" gradientUnits="userSpaceOnUse">
<stop stop-color="#BED9FD"/>
<stop offset="1" stop-color="white"/>
</linearGradient>
<linearGradient id="paint3_linear_313_2909" x1="30.2248" y1="24.4123" x2="33.2063" y2="51.8268" gradientUnits="userSpaceOnUse">
<stop stop-color="white"/>
<stop offset="1" stop-color="#BED9FD"/>
</linearGradient>
<linearGradient id="paint4_linear_313_2909" x1="24.9723" y1="14.8019" x2="37.2927" y2="14.8019" gradientUnits="userSpaceOnUse">
<stop stop-color="#55CDED"/>
<stop offset="1" stop-color="#003CCF"/>
</linearGradient>
<linearGradient id="paint5_linear_313_2909" x1="24.7484" y1="26.1189" x2="36.0725" y2="26.1189" gradientUnits="userSpaceOnUse">
<stop stop-color="#55CDED"/>
<stop offset="1" stop-color="#3D75DA"/>
</linearGradient>
<linearGradient id="paint6_linear_313_2909" x1="36.0122" y1="29.017" x2="37.2925" y2="29.017" gradientUnits="userSpaceOnUse">
<stop stop-color="#55CDED"/>
<stop offset="1" stop-color="#003CCF"/>
</linearGradient>
<linearGradient id="paint7_linear_313_2909" x1="27.5791" y1="26.7865" x2="32.8212" y2="26.7865" gradientUnits="userSpaceOnUse">
<stop stop-color="#BED9FD"/>
<stop offset="1" stop-color="white"/>
</linearGradient>
<linearGradient id="paint8_linear_313_2909" x1="28.4775" y1="23.1106" x2="29.907" y2="23.1106" gradientUnits="userSpaceOnUse">
<stop stop-color="#BED9FD"/>
<stop offset="1" stop-color="white"/>
</linearGradient>
<linearGradient id="paint9_linear_313_2909" x1="27.3979" y1="22.443" x2="29.9071" y2="22.443" gradientUnits="userSpaceOnUse">
<stop stop-color="#BED9FD"/>
<stop offset="1" stop-color="white"/>
</linearGradient>
<linearGradient id="paint10_linear_313_2909" x1="29.2837" y1="24.588" x2="30.358" y2="24.588" gradientUnits="userSpaceOnUse">
<stop stop-color="#55CDED"/>
<stop offset="1" stop-color="#003CCF"/>
</linearGradient>
<linearGradient id="paint11_linear_313_2909" x1="29.4507" y1="24.1566" x2="31.7823" y2="24.1566" gradientUnits="userSpaceOnUse">
<stop stop-color="#BED9FD"/>
<stop offset="1" stop-color="white"/>
</linearGradient>
<linearGradient id="paint12_linear_313_2909" x1="31.1626" y1="27.3724" x2="34.6449" y2="27.3724" gradientUnits="userSpaceOnUse">
<stop stop-color="#BED9FD"/>
<stop offset="1" stop-color="white"/>
</linearGradient>
<linearGradient id="paint13_linear_313_2909" x1="26.4051" y1="27.1221" x2="33.2188" y2="27.1221" gradientUnits="userSpaceOnUse">
<stop stop-color="#55CDED"/>
<stop offset="1" stop-color="#003CCF"/>
</linearGradient>
<clipPath id="clip0_313_2909">
<rect width="28.3272" height="60" fill="white" transform="translate(19 11)"/>
</clipPath>
</defs>
</svg>
