<svg width="67" height="81" viewBox="0 0 67 81" fill="none" xmlns="http://www.w3.org/2000/svg">
<g clip-path="url(#clip0_313_2035)">
<path d="M55.2665 33.2758L55.2113 52.8022L30.0049 38.2494L30.0601 18.723L55.2665 33.2758Z" fill="url(#paint0_linear_313_2035)"/>
<path d="M55.3394 32.5852C55.6523 32.7657 55.9047 33.2039 55.9038 33.5632L55.8477 53.2509C55.8468 53.6111 55.5918 53.7548 55.2798 53.5743L29.934 38.9409C29.6212 38.7604 29.3688 38.323 29.3696 37.9628L29.4257 18.2752C29.4266 17.9158 29.6808 17.7704 29.9936 17.9518L55.3394 32.5852ZM55.2123 52.8022L55.2675 33.2758L30.0602 18.723L30.005 38.2494L55.2114 52.8022" fill="url(#paint1_linear_313_2035)"/>
<path d="M56.6468 33.1312C56.6468 33.1225 56.6468 33.1146 56.6468 33.1058C56.6468 33.097 56.6468 33.0874 56.6459 33.0786C56.6459 33.0743 56.6459 33.0707 56.6451 33.0664V33.0611C56.6451 33.0611 56.6442 33.055 56.6442 33.0515C56.6433 33.0427 56.6424 33.0331 56.6407 33.0234C56.6398 33.0138 56.6381 33.0041 56.6363 32.9954V32.9927C56.6346 32.984 56.6328 32.9752 56.6319 32.9665C56.6302 32.9568 56.6284 32.9472 56.6258 32.9367C56.6258 32.9332 56.624 32.9296 56.6232 32.9261L56.6214 32.92C56.6214 32.92 56.6197 32.9112 56.6188 32.9077C56.6161 32.8981 56.6135 32.8876 56.6109 32.8779C56.6091 32.8709 56.6065 32.863 56.6048 32.856V32.8516L56.6021 32.8481C56.5995 32.8385 56.596 32.8289 56.5925 32.8192C56.589 32.8096 56.5855 32.7999 56.5828 32.7903L56.5811 32.785L56.5793 32.7807C56.5767 32.7745 56.575 32.7684 56.5723 32.7631C56.5688 32.7535 56.5653 32.7447 56.5609 32.736C56.5583 32.7289 56.5557 32.7228 56.5522 32.7158L56.5504 32.7123L56.5487 32.7088C56.5443 32.7 56.5408 32.6904 56.5364 32.6816C56.532 32.672 56.5268 32.6615 56.5215 32.6518L56.5189 32.6474C56.5189 32.6474 56.5171 32.6431 56.5154 32.6413C56.511 32.6334 56.5075 32.6255 56.5031 32.6176C56.4978 32.608 56.4926 32.5984 56.4864 32.5887C56.4838 32.5835 56.4812 32.5782 56.4777 32.5738C56.4768 32.5721 56.4759 32.5703 56.4742 32.5677C56.4689 32.5598 56.4637 32.551 56.4593 32.5431C56.4514 32.5309 56.4444 32.5186 56.4365 32.5063C56.4356 32.5046 56.4339 32.5028 56.433 32.5011C56.4216 32.4844 56.4102 32.4678 56.3988 32.452L56.397 32.4503C56.3892 32.4389 56.3804 32.4283 56.3716 32.4169C56.3646 32.4082 56.3576 32.3994 56.3506 32.3915H56.3497C56.3427 32.3819 56.3348 32.3731 56.3278 32.3644C56.3208 32.3565 56.3129 32.3477 56.3059 32.3398L56.3024 32.3363C56.3024 32.3363 56.2998 32.3337 56.2989 32.3328C56.2936 32.3276 56.2884 32.3214 56.2831 32.3162C56.2752 32.3083 56.2673 32.3004 56.2595 32.2925C56.2568 32.2899 56.2542 32.2881 56.2524 32.2855C56.2507 32.2837 56.2489 32.282 56.2472 32.2802C56.2428 32.2767 56.2393 32.2723 56.2349 32.2688C56.227 32.2609 56.2183 32.2539 56.2095 32.2469C56.206 32.2434 56.2025 32.2408 56.1981 32.2382L56.192 32.2338C56.192 32.2338 56.1867 32.2294 56.1832 32.2268C56.1753 32.2206 56.1665 32.2136 56.1587 32.2075C56.1525 32.2031 56.1464 32.1987 56.1403 32.1943L56.1368 32.1917L56.1332 32.1891C56.1254 32.1838 56.1175 32.1786 56.1096 32.1733C56.1017 32.168 56.0938 32.1637 56.0859 32.1584L56.0807 32.1549L30.7367 17.5198C30.7305 17.5162 30.7244 17.5127 30.7183 17.5101C30.7104 17.5057 30.7025 17.5022 30.6946 17.4978C30.6893 17.4952 30.685 17.4935 30.6797 17.4908L30.6762 17.4891L30.6718 17.4873C30.6639 17.4838 30.6569 17.4803 30.649 17.4777C30.6411 17.4742 30.6341 17.4715 30.6262 17.4689C30.6254 17.4689 30.6236 17.4689 30.6227 17.468H30.6192C30.614 17.4654 30.6087 17.4637 30.6035 17.4619C30.5956 17.4593 30.5877 17.4575 30.5798 17.4558C30.5763 17.4549 30.5728 17.454 30.5684 17.4531H30.5631C30.5631 17.4531 30.5588 17.4505 30.5561 17.4505C30.5474 17.4488 30.5395 17.4479 30.5316 17.4461C30.5263 17.4461 30.522 17.4453 30.5167 17.4444H30.5114C30.5114 17.4444 30.5079 17.4435 30.5062 17.4435C30.4974 17.4435 30.4887 17.4426 30.4799 17.4426C30.4764 17.4426 30.472 17.4426 30.4685 17.4426C30.4659 17.4426 30.4624 17.4426 30.4597 17.4426C30.4571 17.4426 30.4536 17.4426 30.451 17.4426C30.4396 17.4435 30.4291 17.4453 30.4185 17.447C30.4185 17.447 30.4142 17.4488 30.4115 17.4488C30.4001 17.4514 30.3896 17.454 30.3791 17.4575C30.3791 17.4575 30.3773 17.4575 30.3765 17.4584C30.3616 17.4637 30.3467 17.4707 30.3335 17.4786L29.5903 17.9106C29.6044 17.9027 29.6184 17.8957 29.6342 17.8905C29.6455 17.8861 29.6569 17.8835 29.6692 17.8808C29.6718 17.8808 29.6736 17.8791 29.6762 17.8791C29.6902 17.8764 29.7043 17.8747 29.7183 17.8738C29.7209 17.8738 29.7244 17.8738 29.7271 17.8738C29.7411 17.8738 29.7551 17.8738 29.77 17.8738C29.7717 17.8738 29.7735 17.8738 29.7753 17.8738C29.7902 17.8756 29.8059 17.8773 29.8217 17.8808H29.827C29.8436 17.8852 29.8603 17.8905 29.8769 17.8957H29.8804C29.898 17.9027 29.9164 17.9098 29.9339 17.9185L29.9374 17.9203C29.9558 17.929 29.9742 17.9387 29.9935 17.9492L55.3392 32.5826C55.3585 32.594 55.3769 32.6054 55.3962 32.6185L55.3997 32.6212C55.4172 32.6334 55.4339 32.6466 55.4514 32.6597L55.4567 32.6641C55.4733 32.6772 55.4891 32.6913 55.5049 32.7062L55.5101 32.7114C55.5259 32.7263 55.5417 32.7421 55.5574 32.7587L55.561 32.7623C55.5776 32.7798 55.5934 32.7982 55.6092 32.8166C55.6249 32.8359 55.6407 32.856 55.6556 32.8762C55.6688 32.8955 55.6819 32.9139 55.6942 32.9332C55.7021 32.9454 55.7099 32.9577 55.717 32.97C55.7231 32.9805 55.7292 32.9901 55.7354 33.0006C55.738 33.0059 55.7406 33.0103 55.7441 33.0155C55.7538 33.0331 55.7634 33.0506 55.7722 33.0681C55.773 33.0699 55.7739 33.0725 55.7757 33.0743C55.7862 33.0962 55.7967 33.1181 55.8063 33.14L55.8081 33.1435C55.8177 33.1654 55.8265 33.1873 55.8344 33.2092L55.8361 33.2136C55.844 33.2364 55.8519 33.2583 55.8589 33.2811V33.2846C55.8668 33.3065 55.8721 33.3275 55.8773 33.3494L55.8791 33.3556C55.8843 33.3775 55.8887 33.4003 55.8922 33.4222C55.8957 33.4459 55.8984 33.4678 55.9001 33.4897V33.4949C55.9019 33.5168 55.9036 33.5388 55.9028 33.5607L55.8467 53.2483C55.8467 53.2702 55.8458 53.2904 55.844 53.3105V53.3158C55.8414 53.3342 55.8388 53.3517 55.8361 53.3684L55.8344 53.3754C55.8309 53.392 55.8265 53.4078 55.8221 53.4227C55.8221 53.4253 55.8204 53.428 55.8195 53.4306C55.8151 53.4446 55.8099 53.4586 55.8037 53.4709C55.8037 53.4727 55.8028 53.4735 55.802 53.4753C55.795 53.4893 55.7879 53.5033 55.7792 53.5165C55.7678 53.5349 55.7546 53.5507 55.7397 53.5647C55.7362 53.5682 55.7327 53.5717 55.7292 53.5752C55.7143 53.5892 55.6985 53.6015 55.6819 53.612L56.4251 53.18C56.4426 53.1703 56.4584 53.1572 56.4724 53.1431C56.4759 53.1396 56.4794 53.1361 56.4829 53.1326C56.497 53.1177 56.5101 53.102 56.5224 53.0844C56.5303 53.0713 56.5373 53.059 56.5434 53.045V53.0432C56.5434 53.0432 56.5452 53.0406 56.546 53.0388C56.5495 53.0301 56.5539 53.0213 56.5574 53.0126C56.5592 53.0082 56.5609 53.0029 56.5618 52.9985C56.5627 52.9959 56.5636 52.9933 56.5644 52.9906C56.5644 52.988 56.5662 52.9854 56.5671 52.9828C56.5697 52.9731 56.5723 52.9635 56.575 52.9538C56.575 52.9503 56.5767 52.9468 56.5767 52.9433L56.5785 52.9363C56.5785 52.9363 56.5802 52.9293 56.5802 52.9258C56.582 52.917 56.5828 52.9083 56.5846 52.8986C56.5846 52.8934 56.5855 52.8881 56.5863 52.8828V52.8776C56.5863 52.8776 56.5872 52.8732 56.5872 52.8715C56.5872 52.8627 56.5881 52.8539 56.589 52.8443C56.589 52.8355 56.589 52.8259 56.589 52.8171V52.8154L56.2174 53.031L56.589 52.8154L56.6451 33.1277L56.6468 33.1312Z" fill="url(#paint2_linear_313_2035)"/>
<path d="M54.1796 54.272C54.2803 54.3307 54.2812 54.4245 54.1804 54.4832L44.3778 60.1799C44.2779 60.2377 44.1149 60.2377 44.0141 60.1799L18.4992 45.4483C18.3993 45.3905 18.3984 45.2958 18.4983 45.238L28.301 39.5413C28.4009 39.4835 28.5648 39.4835 28.6647 39.5413L54.1796 54.272ZM40.4787 55.6208L41.8423 54.8285C41.8984 54.7961 41.8984 54.7426 41.8423 54.7111L40.4252 53.8934C40.3691 53.8609 40.2771 53.8609 40.221 53.8934L38.8573 54.6857C38.8012 54.7181 38.8012 54.7715 38.8573 54.804L40.2745 55.6217C40.3305 55.6541 40.4217 55.6541 40.4778 55.6217M42.2604 56.6506L43.6241 55.8583C43.6802 55.8259 43.6802 55.7724 43.6241 55.7408L42.2069 54.9232C42.1508 54.8907 42.0588 54.8907 42.0027 54.9232L40.639 55.7154C40.5829 55.7479 40.5829 55.8013 40.639 55.8337L42.0562 56.6514C42.1123 56.6839 42.2034 56.6839 42.2595 56.6514M44.0421 57.6803L45.4058 56.8881C45.4619 56.8556 45.4619 56.8022 45.4058 56.7706L43.9887 55.9529C43.9326 55.9205 43.8406 55.9205 43.7845 55.9529L42.4208 56.7452C42.3647 56.7776 42.3647 56.8311 42.4208 56.8635L43.8379 57.6812C43.894 57.7136 43.9852 57.7136 44.0413 57.6812M35.1291 52.5358L36.4928 51.7435C36.5488 51.7111 36.5488 51.6577 36.4928 51.6261L35.0756 50.8084C35.0195 50.776 34.9275 50.776 34.8714 50.8084L33.5077 51.6007C33.4516 51.6331 33.4516 51.6866 33.5077 51.719L34.9249 52.5367C34.9809 52.5691 35.0721 52.5691 35.1282 52.5367M36.9108 53.5656L38.2745 52.7733C38.3306 52.7409 38.3306 52.6874 38.2745 52.6559L36.8573 51.8382C36.8012 51.8058 36.7092 51.8058 36.6531 51.8382L35.2894 52.6305C35.2333 52.6629 35.2333 52.7164 35.2894 52.7488L36.7066 53.5665C36.7627 53.5989 36.8538 53.5989 36.9099 53.5665M42.2464 54.5954L43.6101 53.8022C43.6653 53.7698 43.6653 53.7172 43.6101 53.6848L42.1929 52.8671C42.1368 52.8347 42.0448 52.8347 41.9896 52.8671L40.6259 53.6603C40.5698 53.6927 40.5707 53.7453 40.6276 53.7777L42.0448 54.5954C42.1009 54.6278 42.1912 54.6278 42.2472 54.5954M45.8221 58.7119L47.1858 57.9196C47.2419 57.8872 47.2419 57.8346 47.1858 57.8022L45.7695 56.9845C45.7134 56.952 45.6214 56.952 45.5653 56.9845L44.2016 57.7767C44.1455 57.8092 44.1455 57.8626 44.2016 57.8951L45.6179 58.7127C45.674 58.7452 45.7652 58.7452 45.8212 58.7127M31.5621 50.4798L32.9258 49.6875C32.9819 49.6551 32.9819 49.6025 32.9258 49.5701L31.5086 48.7524C31.4525 48.7199 31.3614 48.7199 31.3053 48.7524L29.9416 49.5446C29.8855 49.5771 29.8855 49.6296 29.9416 49.6621L31.3587 50.4798C31.4148 50.5122 31.506 50.5122 31.5621 50.4798ZM29.7795 49.4509L31.1432 48.6586C31.1992 48.6262 31.1992 48.5727 31.1432 48.5411L29.726 47.7235C29.6699 47.691 29.5788 47.691 29.5227 47.7235L28.159 48.5157C28.1029 48.5482 28.1029 48.6007 28.159 48.6332L29.5761 49.4509C29.6322 49.4833 29.7234 49.4833 29.7795 49.4509ZM22.6499 45.3344L24.0136 44.5421C24.0697 44.5097 24.0697 44.4571 24.0136 44.4247L22.5964 43.607C22.5403 43.5745 22.4492 43.5745 22.3931 43.607L21.0294 44.3992C20.9733 44.4317 20.9733 44.4843 21.0294 44.5167L22.4465 45.3344C22.5026 45.3668 22.5938 45.3668 22.6499 45.3344ZM38.6925 54.5963L40.0562 53.804C40.1123 53.7716 40.1123 53.7181 40.0562 53.6865L38.6391 52.868C38.583 52.8356 38.4927 52.8364 38.4366 52.868L37.0729 53.6603C37.0168 53.6927 37.0168 53.7453 37.0729 53.7777L38.4901 54.5963C38.5462 54.6287 38.6373 54.6287 38.6934 54.5963M27.9986 48.4211L29.3623 47.6288C29.4184 47.5964 29.4184 47.5438 29.3623 47.5114L27.9451 46.6937C27.889 46.6613 27.7979 46.6613 27.7418 46.6937L26.3781 47.486C26.322 47.5184 26.322 47.571 26.3781 47.6034L27.7953 48.4211C27.8514 48.4535 27.9425 48.4535 27.9986 48.4211ZM44.0299 55.6243L45.3936 54.8311C45.4488 54.7987 45.4488 54.7461 45.3936 54.7137L43.9764 53.896C43.9203 53.8636 43.8283 53.8636 43.7731 53.896L42.4085 54.6892C42.3524 54.7216 42.3533 54.7742 42.4103 54.8066L43.8274 55.6243C43.8835 55.6567 43.9738 55.6567 44.0299 55.6243ZM45.8125 56.6532L47.177 55.86C47.2323 55.8276 47.2323 55.775 47.177 55.7426L45.7599 54.9249C45.7038 54.8925 45.6118 54.8925 45.5566 54.9249L44.1929 55.7181C44.1368 55.7505 44.1377 55.8031 44.1946 55.8355L45.6118 56.6532C45.6679 56.6856 45.7581 56.6856 45.8142 56.6532M38.6846 52.5367L40.0483 51.7435C40.1036 51.7111 40.1036 51.6585 40.0483 51.6261L38.6312 50.8084C38.5751 50.776 38.4831 50.776 38.4279 50.8084L37.0642 51.6016C37.0081 51.634 37.009 51.6866 37.0659 51.719L38.4831 52.5367C38.5392 52.5691 38.6294 52.5691 38.6855 52.5367M36.9029 51.5078L38.2675 50.7146C38.3227 50.6822 38.3227 50.6296 38.2675 50.5972L36.8503 49.7795C36.7942 49.7471 36.7022 49.7471 36.647 49.7795L35.2833 50.5727C35.2272 50.6051 35.2281 50.6577 35.2851 50.6901L36.7022 51.5078C36.7583 51.5402 36.8486 51.5402 36.9047 51.5078M38.7083 56.6549L40.0729 55.8618C40.129 55.8294 40.1281 55.7768 40.0729 55.7444L38.6557 54.9267C38.5996 54.8942 38.5085 54.8934 38.4524 54.9267L37.0887 55.7198C37.0335 55.7522 37.0335 55.8048 37.0905 55.8373L38.5076 56.6549C38.5637 56.6874 38.6548 56.6874 38.7101 56.6549M45.7976 52.5358L47.1613 51.7427C47.2165 51.7102 47.2165 51.6577 47.1613 51.6252L45.7441 50.8075C45.688 50.7751 45.596 50.7751 45.5408 50.8075L44.1762 51.6007C44.1201 51.6331 44.121 51.6857 44.178 51.7181L45.5951 52.5358C45.6512 52.5682 45.7415 52.5682 45.7976 52.5358ZM44.0264 53.5656L45.39 52.7733C45.4461 52.7409 45.4453 52.6883 45.39 52.6559L43.9729 51.8382C43.9168 51.8058 43.8257 51.8049 43.7696 51.8382L42.4059 52.6305C42.3498 52.6629 42.3498 52.7164 42.4059 52.7488L43.823 53.5665C43.8791 53.5989 43.9703 53.5989 44.0264 53.5665M24.4395 46.3642L25.8032 45.5719C25.8593 45.5395 25.8602 45.4869 25.8032 45.4544L24.386 44.6367C24.3299 44.6043 24.2388 44.6043 24.1827 44.6367L22.819 45.429C22.7629 45.4615 22.7629 45.514 22.819 45.5465L24.2362 46.3642C24.2923 46.3966 24.3834 46.3966 24.4395 46.3642ZM33.3517 51.5095L34.7154 50.7173C34.7715 50.6848 34.7715 50.6314 34.7154 50.5998L33.2982 49.7821C33.2421 49.7497 33.151 49.7497 33.0949 49.7821L31.7312 50.5744C31.6751 50.6068 31.6751 50.6594 31.7312 50.6919L33.1484 51.5095C33.2045 51.542 33.2956 51.542 33.3517 51.5095ZM26.2221 47.3931L27.5858 46.6008C27.6419 46.5684 27.6419 46.5158 27.5858 46.4833L26.1687 45.6657C26.1126 45.6332 26.0214 45.6332 25.9653 45.6657L24.6016 46.4579C24.5455 46.4904 24.5455 46.5429 24.6016 46.5754L26.0188 47.3931C26.0749 47.4255 26.166 47.4255 26.2221 47.3931ZM49.3628 54.5954L50.7274 53.8022C50.7826 53.7698 50.7826 53.7172 50.7274 53.6848L49.3102 52.8671C49.2541 52.8347 49.1621 52.8347 49.1069 52.8671L47.7432 53.6603C47.6871 53.6927 47.688 53.7453 47.745 53.7777L49.1621 54.5954C49.2182 54.6278 49.3085 54.6278 49.3646 54.5954M47.5819 53.5665L48.9465 52.7733C49.0017 52.7409 49.0017 52.6883 48.9465 52.6559L47.5294 51.8382C47.4733 51.8058 47.3812 51.8058 47.326 51.8382L45.9623 52.6313C45.9063 52.6638 45.9071 52.7164 45.9641 52.7488L47.3813 53.5665C47.4373 53.5989 47.5276 53.5989 47.5837 53.5665M40.4962 57.6856L41.8599 56.8924C41.916 56.86 41.9151 56.8074 41.8599 56.775L40.4427 55.9573C40.3866 55.9249 40.2955 55.924 40.2394 55.9573L38.8757 56.7505C38.8205 56.7829 38.8205 56.8355 38.8775 56.8679L40.2946 57.6856C40.3507 57.718 40.4418 57.718 40.4971 57.6856M47.596 55.6252L48.9597 54.8329C49.0158 54.8005 49.0149 54.7479 48.9597 54.7154L47.5425 53.8978C47.4864 53.8653 47.3953 53.8645 47.3392 53.8978L45.9755 54.69C45.9194 54.7225 45.9194 54.7759 45.9755 54.8083L47.3926 55.626C47.4487 55.6585 47.5399 55.6585 47.596 55.626M42.2797 58.7154L43.6434 57.9222C43.6995 57.8898 43.6986 57.8372 43.6434 57.8048L42.2262 56.9871C42.1701 56.9547 42.079 56.9538 42.0229 56.9871L40.6592 57.7803C40.604 57.8127 40.604 57.8653 40.6609 57.8977L42.0781 58.7154C42.1342 58.7478 42.2253 58.7478 42.2806 58.7154M45.8142 54.5971L47.1779 53.8049C47.234 53.7724 47.2331 53.7198 47.1779 53.6874L45.7608 52.8697C45.7047 52.8373 45.6135 52.8364 45.5574 52.8697L44.1938 53.662C44.1377 53.6944 44.1377 53.7479 44.1938 53.7803L45.6109 54.598C45.667 54.6304 45.7581 54.6304 45.8142 54.598M40.4559 49.4517L41.8204 48.6586C41.8756 48.6262 41.8756 48.5736 41.8204 48.5411L40.4033 47.7235C40.3472 47.691 40.2552 47.691 40.2 47.7235L38.8363 48.5166C38.7802 48.549 38.7811 48.6016 38.838 48.634L40.2552 49.4517C40.3113 49.4842 40.4015 49.4842 40.4576 49.4517M35.1518 54.5998L36.5155 53.8066C36.5716 53.7742 36.5707 53.7216 36.5155 53.6892L35.0984 52.8715C35.0423 52.8391 34.9511 52.8382 34.8951 52.8715L33.5314 53.6646C33.4761 53.6971 33.4761 53.7496 33.5331 53.7821L34.9503 54.5998C35.0064 54.6322 35.0975 54.6322 35.1527 54.5998M38.6864 50.4815L40.0501 49.6892C40.1062 49.6568 40.1053 49.6042 40.0501 49.5718L38.6329 48.7541C38.5768 48.7217 38.4857 48.7208 38.4296 48.7541L37.0659 49.5464C37.0098 49.5788 37.0098 49.6323 37.0659 49.6647L38.4831 50.4824C38.5392 50.5148 38.6303 50.5148 38.6864 50.4824M42.2402 50.4824L43.6048 49.6892C43.66 49.6568 43.66 49.6042 43.6048 49.5718L42.1877 48.7541C42.1316 48.7217 42.0395 48.7217 41.9843 48.7541L40.6206 49.5473C40.5645 49.5797 40.5654 49.6323 40.6224 49.6647L42.0395 50.4824C42.0956 50.5148 42.1859 50.5148 42.242 50.4824M40.4708 51.5122L41.8345 50.7199C41.8905 50.6875 41.8897 50.6349 41.8345 50.6025L40.4173 49.7848C40.3612 49.7523 40.2701 49.7515 40.214 49.7848L38.8503 50.577C38.7942 50.6095 38.7942 50.6629 38.8503 50.6954L40.2674 51.5131C40.3235 51.5455 40.4147 51.5455 40.4708 51.5131M33.3719 53.5735L34.7355 52.7803C34.7916 52.7479 34.7908 52.6953 34.7355 52.6629L33.3184 51.8452C33.2623 51.8128 33.1712 51.8119 33.1151 51.8452L31.7514 52.6384C31.6962 52.6708 31.6962 52.7234 31.7531 52.7558L33.1703 53.5735C33.2264 53.6059 33.3175 53.6059 33.3727 53.5735M47.6109 57.6882L48.9746 56.8951C49.0298 56.8626 49.0307 56.8101 48.9746 56.7776L47.5583 55.9599C47.5022 55.9275 47.4102 55.9275 47.355 55.9599L45.9913 56.7531C45.9352 56.7855 45.9361 56.8381 45.993 56.8705L47.4093 57.6882C47.4654 57.7207 47.5557 57.7207 47.6117 57.6882M24.4255 44.3002L25.7892 43.5071C25.8444 43.4746 25.8453 43.422 25.7892 43.3896L24.372 42.5719C24.3159 42.5395 24.2248 42.5395 24.1696 42.5719L22.8059 43.3651C22.7498 43.3975 22.7498 43.4501 22.8059 43.4825L24.223 44.3002C24.2791 44.3326 24.3694 44.3326 24.4255 44.3002ZM40.4681 53.5621L41.8318 52.7689C41.887 52.7365 41.887 52.6839 41.8318 52.6515L40.4147 51.8329C40.3586 51.8005 40.2683 51.8014 40.2131 51.8329L38.8494 52.6261C38.7933 52.6585 38.7933 52.7111 38.8494 52.7427L40.2666 53.5612C40.3227 53.5936 40.4129 53.5936 40.469 53.5612M33.3394 49.4447L34.7031 48.6516C34.7583 48.6192 34.7592 48.5666 34.7031 48.5341L33.286 47.7165C33.2299 47.684 33.1387 47.684 33.0835 47.7165L31.7198 48.5096C31.6637 48.542 31.6637 48.5946 31.7198 48.627L33.137 49.4447C33.1931 49.4772 33.2833 49.4772 33.3394 49.4447ZM31.5568 48.4158L32.9205 47.6227C32.9757 47.5902 32.9757 47.5377 32.9205 47.5052L31.5034 46.6875C31.4473 46.6551 31.3561 46.6551 31.3009 46.6875L29.9372 47.4807C29.8811 47.5131 29.8811 47.5657 29.9372 47.5981L31.3544 48.4158C31.4105 48.4482 31.5007 48.4482 31.5568 48.4158ZM29.7742 47.3869L31.1379 46.5938C31.1931 46.5613 31.194 46.5088 31.1379 46.4763L29.7207 45.6586C29.6646 45.6262 29.5735 45.6262 29.5183 45.6586L28.1537 46.4518C28.0976 46.4842 28.0976 46.5368 28.1537 46.5692L29.5709 47.3869C29.627 47.4193 29.7172 47.4193 29.7733 47.3869M27.9907 46.358L29.3553 45.5649C29.4105 45.5324 29.4114 45.4799 29.3553 45.4474L27.9381 44.6297C27.882 44.5973 27.7909 44.5973 27.7357 44.6297L26.372 45.4229C26.3159 45.4553 26.3159 45.5079 26.372 45.5403L27.7891 46.358C27.8452 46.3904 27.9355 46.3904 27.9916 46.358M35.1212 50.4745L36.4857 49.6814C36.541 49.6489 36.541 49.5963 36.4857 49.5639L35.0686 48.7462C35.0125 48.7138 34.9213 48.7138 34.8661 48.7462L33.5016 49.5394C33.4455 49.5718 33.4455 49.6244 33.5016 49.6568L34.9187 50.4745C34.9748 50.5069 35.0651 50.5069 35.1212 50.4745ZM26.209 45.3291L27.5735 44.536C27.6288 44.5035 27.6296 44.451 27.5735 44.4185L26.1564 43.6008C26.1003 43.5684 26.0091 43.5684 25.9539 43.6008L24.5902 44.394C24.5342 44.4264 24.5342 44.479 24.5902 44.5114L26.0074 45.3291C26.0635 45.3615 26.1538 45.3615 26.2098 45.3291M51.1428 55.619L52.5065 54.8259C52.5617 54.7935 52.5626 54.7409 52.5065 54.7084L51.0902 53.8907C51.0341 53.8583 50.9421 53.8583 50.8869 53.8907L49.5232 54.6839C49.4671 54.7163 49.468 54.7689 49.5249 54.8013L50.9412 55.619C50.9973 55.6515 51.0876 55.6515 51.1437 55.619M44.0562 59.7381L45.4207 58.945C45.4768 58.9126 45.4768 58.86 45.4207 58.8276L44.0044 58.0099C43.9484 57.9774 43.8572 57.9766 43.8011 58.0099L42.4374 58.803C42.3822 58.8354 42.3822 58.888 42.4392 58.9205L43.8555 59.7381C43.9115 59.7706 44.0027 59.7706 44.0579 59.7381M49.3742 56.6488L50.7379 55.8565C50.794 55.8241 50.794 55.7715 50.7379 55.7391L49.3216 54.9214C49.2655 54.889 49.1744 54.8881 49.1183 54.9214L47.7546 55.7137C47.6985 55.7461 47.6985 55.7996 47.7546 55.832L49.1709 56.6497C49.227 56.6821 49.3181 56.6821 49.3742 56.6497M44.0167 51.5043L45.3813 50.7111C45.4365 50.6787 45.4365 50.6261 45.3813 50.5937L43.9641 49.7751C43.908 49.7427 43.8178 49.7436 43.7626 49.7751L42.398 50.5683C42.3419 50.6007 42.3419 50.6533 42.398 50.6848L43.8151 51.5034C43.8712 51.5358 43.9615 51.5358 44.0176 51.5034M31.5507 46.358L32.9144 45.5657C32.9705 45.5333 32.9705 45.4807 32.9144 45.4483L31.4972 44.6306C31.4411 44.5982 31.3509 44.5982 31.2948 44.6306L29.9311 45.4229C29.875 45.4553 29.875 45.5079 29.9311 45.5403L31.3482 46.358C31.4043 46.3904 31.4955 46.3904 31.5516 46.358M33.3228 45.3282L34.6873 44.5351C34.7426 44.5027 34.7434 44.4501 34.6873 44.4176L33.2702 43.6C33.2141 43.5675 33.123 43.5675 33.0677 43.6L31.7032 44.3931C31.6471 44.4255 31.6471 44.4781 31.7032 44.5105L33.1203 45.3282C33.1764 45.3607 33.2667 45.3607 33.3228 45.3282ZM20.8874 46.3598L22.2511 45.5666C22.3072 45.5342 22.3072 45.4816 22.2511 45.4492L20.834 44.6315C20.7779 44.5991 20.6876 44.5991 20.6315 44.6315L19.2678 45.4246C19.2126 45.4571 19.2117 45.5097 19.2678 45.5421L20.685 46.3598C20.7411 46.3922 20.8322 46.3922 20.8874 46.3598ZM36.888 47.386L38.2517 46.5929C38.3069 46.5605 38.3078 46.5079 38.2517 46.4755L36.8345 45.6578C36.7785 45.6253 36.6873 45.6253 36.6321 45.6578L35.2684 46.4509C35.2123 46.4833 35.2123 46.5359 35.2684 46.5684L36.6856 47.386C36.7416 47.4185 36.8319 47.4185 36.888 47.386ZM26.2037 43.2696L27.5674 42.4773C27.6235 42.4448 27.6235 42.3923 27.5674 42.3598L26.1502 41.5421C26.0942 41.5097 26.0039 41.5097 25.9478 41.5421L24.5841 42.3344C24.528 42.3669 24.528 42.4194 24.5841 42.4519L26.0013 43.2696C26.0573 43.302 26.1485 43.302 26.2046 43.2696M27.9758 42.2398L29.3395 41.4466C29.3947 41.4142 29.3956 41.3616 29.3395 41.3292L27.9223 40.5115C27.8663 40.4791 27.7751 40.4791 27.7199 40.5115L26.3553 41.3046C26.2992 41.3371 26.2992 41.3897 26.3553 41.4221L27.7725 42.2398C27.8286 42.2722 27.9188 42.2722 27.9749 42.2398M29.7996 51.5043L31.1633 50.7111C31.2194 50.6787 31.2194 50.6261 31.1633 50.5937L29.7462 49.776C29.6901 49.7436 29.5998 49.7436 29.5437 49.776L28.18 50.5692C28.1248 50.6016 28.1239 50.6542 28.18 50.6866L29.5972 51.5043C29.6533 51.5367 29.7444 51.5367 29.7996 51.5043ZM36.9292 55.6208L38.2929 54.8276C38.349 54.7952 38.3481 54.7426 38.2929 54.7102L36.8757 53.8916C36.8196 53.8592 36.7303 53.8592 36.6742 53.8916L35.3105 54.6848C35.2553 54.7172 35.2544 54.7698 35.3105 54.8013L36.7276 55.6199C36.7837 55.6523 36.8749 55.6523 36.9301 55.6199M35.1054 46.3554L36.47 45.5622C36.5252 45.5298 36.5252 45.4772 36.47 45.4448L35.0528 44.6271C34.9967 44.5947 34.9056 44.5947 34.8504 44.6271L33.4858 45.4203C33.4297 45.4527 33.4297 45.5053 33.4858 45.5377L34.9029 46.3554C34.959 46.3878 35.0493 46.3878 35.1054 46.3554ZM26.2353 49.4456L27.599 48.6525C27.655 48.62 27.655 48.5674 27.599 48.535L26.1818 47.7173C26.1257 47.6849 26.0354 47.6849 25.9793 47.7173L24.6157 48.5105C24.5604 48.5429 24.5596 48.5955 24.6157 48.6279L26.0328 49.4456C26.0889 49.478 26.18 49.478 26.2353 49.4456ZM42.2464 52.5306L43.6101 51.7383C43.6662 51.7059 43.6653 51.6533 43.6101 51.6208L42.1929 50.8023C42.1368 50.7699 42.0474 50.7699 41.9913 50.8023L40.6276 51.5946C40.5716 51.627 40.5716 51.6796 40.6276 51.712L42.0448 52.5306C42.1009 52.563 42.192 52.563 42.2481 52.5306M28.0196 50.4745L29.3833 49.6814C29.4394 49.6489 29.4385 49.5963 29.3833 49.5639L27.9662 48.7462C27.9101 48.7138 27.8198 48.7138 27.7637 48.7462L26.4 49.5394C26.3448 49.5718 26.3439 49.6244 26.4 49.6568L27.8172 50.4745C27.8733 50.5069 27.9644 50.5069 28.0196 50.4745ZM35.1185 48.4141L36.4822 47.6218C36.5383 47.5894 36.5383 47.5368 36.4822 47.5044L35.0651 46.6867C35.009 46.6542 34.9187 46.6542 34.8626 46.6867L33.4989 47.4789C33.4428 47.5114 33.4428 47.564 33.4989 47.5964L34.9161 48.4141C34.9722 48.4465 35.0633 48.4465 35.1194 48.4141M33.3368 47.3852L34.7005 46.5929C34.7566 46.5605 34.7557 46.5079 34.7005 46.4755L33.2833 45.6578C33.2273 45.6253 33.137 45.6253 33.0809 45.6578L31.7172 46.45C31.6611 46.4825 31.6611 46.5351 31.7172 46.5675L33.1344 47.3852C33.1904 47.4176 33.2816 47.4176 33.3377 47.3852M38.6741 48.4141L40.0378 47.6209C40.093 47.5885 40.093 47.5359 40.0378 47.5035L38.6207 46.6858C38.5646 46.6534 38.4734 46.6534 38.4182 46.6858L37.0545 47.4789C36.9984 47.5114 36.9984 47.564 37.0545 47.5964L38.4717 48.4141C38.5278 48.4465 38.618 48.4465 38.6741 48.4141ZM29.7619 43.2687L31.1256 42.4755C31.1808 42.4431 31.1817 42.3905 31.1256 42.3581L29.7085 41.5404C29.6524 41.508 29.5612 41.508 29.506 41.5404L28.1423 42.3335C28.0862 42.366 28.0862 42.4186 28.1423 42.451L29.5595 43.2687C29.6156 43.3011 29.7058 43.3011 29.7619 43.2687ZM31.5445 44.2976L32.9082 43.5044C32.9635 43.472 32.9643 43.4194 32.9082 43.387L31.4911 42.5693C31.435 42.5369 31.3438 42.5369 31.2886 42.5693L29.9249 43.3624C29.8689 43.3949 29.8689 43.4475 29.9249 43.4799L31.3421 44.2976C31.3982 44.33 31.4885 44.33 31.5445 44.2976ZM22.6744 47.3878L24.039 46.5946C24.0951 46.5622 24.0951 46.5096 24.039 46.4772L22.6218 45.6595C22.5657 45.6271 22.4755 45.6271 22.4194 45.6595L21.0557 46.4527C21.0005 46.4851 20.9996 46.5377 21.0557 46.5701L22.4728 47.3878C22.5289 47.4202 22.6201 47.4202 22.6753 47.3878M27.9916 44.2985L29.3553 43.5062C29.4114 43.4738 29.4114 43.4212 29.3553 43.3887L27.9381 42.5711C27.882 42.5386 27.7918 42.5386 27.7357 42.5711L26.372 43.3633C26.3159 43.3958 26.3159 43.4483 26.372 43.4808L27.7891 44.2985C27.8452 44.3309 27.9364 44.3309 27.9925 44.2985M31.5884 52.5332L32.9529 51.74C33.009 51.7076 33.0081 51.655 32.9529 51.6226L31.5358 50.8049C31.4797 50.7725 31.3894 50.7725 31.3333 50.8049L29.9696 51.5981C29.9144 51.6305 29.9135 51.6831 29.9696 51.7155L31.3868 52.5332C31.4429 52.5656 31.534 52.5656 31.5892 52.5332M36.9055 49.4439L38.2692 48.6516C38.3253 48.6192 38.3244 48.5666 38.2692 48.5341L36.8521 47.7165C36.796 47.684 36.7057 47.684 36.6496 47.7165L35.2859 48.5087C35.2298 48.5411 35.2298 48.5937 35.2859 48.6262L36.7031 49.4439C36.7592 49.4763 36.8503 49.4763 36.9064 49.4439M24.4605 48.4167L25.8242 47.6235C25.8803 47.5911 25.8803 47.5385 25.8242 47.5061L24.4071 46.6884C24.351 46.656 24.2607 46.656 24.2046 46.6884L22.8401 47.4816C22.7848 47.514 22.784 47.5666 22.8401 47.599L24.2572 48.4167C24.3133 48.4491 24.4044 48.4491 24.4597 48.4167M29.776 45.3274L31.1396 44.5351C31.1957 44.5027 31.1957 44.4501 31.1396 44.4176L29.7225 43.6C29.6664 43.5675 29.5761 43.5675 29.52 43.6L28.1563 44.3922C28.1003 44.4247 28.0994 44.4772 28.1563 44.5097L29.5735 45.3274C29.6296 45.3598 29.7207 45.3598 29.7768 45.3274M47.5548 51.5157L48.1174 51.1888C48.1735 51.1564 48.1726 51.1038 48.1174 51.0713L46.7003 50.2537C46.6442 50.2212 46.553 50.2203 46.497 50.2537L45.9343 50.5806C45.8782 50.613 45.8791 50.6656 45.9361 50.698L47.3532 51.5157C47.4093 51.5481 47.4996 51.5481 47.5557 51.5157M49.3383 52.5446L49.9009 52.2177C49.957 52.1853 49.9561 52.1327 49.9009 52.1002L48.4838 51.2826C48.4277 51.2501 48.3365 51.2493 48.2804 51.2826L47.7178 51.6095C47.6617 51.6419 47.6626 51.6945 47.7195 51.7269L49.1367 52.5446C49.1928 52.577 49.2831 52.577 49.3391 52.5446M51.1218 53.5735L51.6844 53.2466C51.7405 53.2142 51.7396 53.1616 51.6844 53.1291L50.2673 52.3115C50.2112 52.279 50.12 52.2782 50.0639 52.3115L49.5013 52.6384C49.4452 52.6708 49.4461 52.7234 49.503 52.7558L50.9202 53.5735C50.9763 53.6059 51.0665 53.6059 51.1226 53.5735M43.9931 49.457L44.5557 49.1301C44.6118 49.0977 44.6109 49.0451 44.5557 49.0127L43.1386 48.195C43.0825 48.1625 42.9913 48.1617 42.9352 48.195L42.3726 48.5219C42.3165 48.5543 42.3174 48.6069 42.3743 48.6393L43.7915 49.457C43.8476 49.4894 43.9378 49.4894 43.9939 49.457M42.2113 48.4281L42.774 48.1012C42.8301 48.0688 42.8292 48.0162 42.774 47.9838L41.3568 47.1661C41.3007 47.1336 41.2096 47.1328 41.1535 47.1661L40.5908 47.493C40.5347 47.5254 40.5356 47.578 40.5926 47.6104L42.0097 48.4281C42.0658 48.4605 42.1561 48.4605 42.2122 48.4281M52.9061 54.6024L53.4688 54.2755C53.5249 54.2431 53.5249 54.1905 53.4688 54.1581L52.0525 53.3404C51.9964 53.3079 51.9053 53.3071 51.8492 53.3404L51.2865 53.6673C51.2304 53.6997 51.2313 53.7523 51.2883 53.7847L52.7046 54.6024C52.7606 54.6348 52.8509 54.6348 52.907 54.6024M36.8652 45.3405L37.4279 45.0136C37.484 44.9812 37.4831 44.9286 37.4279 44.8962L36.0107 44.0785C35.9546 44.046 35.8644 44.046 35.8083 44.0785L35.2456 44.4054C35.1895 44.4378 35.1895 44.4904 35.2456 44.5228L36.6628 45.3405C36.7189 45.3729 36.8091 45.3729 36.8652 45.3405ZM45.7774 50.4859L46.3401 50.159C46.3962 50.1266 46.3953 50.074 46.3401 50.0416L44.9229 49.223C44.8668 49.1906 44.7774 49.1906 44.7213 49.223L44.1587 49.5499C44.1026 49.5823 44.1026 49.6349 44.1587 49.6665L45.5758 50.485C45.6319 50.5175 45.7222 50.5175 45.7783 50.485M35.0835 44.3098L35.6461 43.9829C35.7022 43.9505 35.7022 43.8979 35.6461 43.8655L34.229 43.0478C34.1729 43.0154 34.0826 43.0154 34.0265 43.0478L33.4639 43.3747C33.4078 43.4071 33.4078 43.4597 33.4639 43.4922L34.881 44.3098C34.9371 44.3423 35.0274 44.3423 35.0835 44.3098ZM38.6487 46.3685L39.2114 46.0416C39.2675 46.0092 39.2675 45.9566 39.2114 45.9242L37.7942 45.1065C37.7381 45.0741 37.6479 45.0741 37.5918 45.1065L37.0291 45.4334C36.973 45.4658 36.973 45.5184 37.0291 45.5508L38.4463 46.3685C38.5024 46.401 38.5926 46.401 38.6487 46.3685ZM29.7365 41.2231L30.2992 40.8962C30.3553 40.8638 30.3553 40.8112 30.2992 40.7788L28.882 39.9611C28.8259 39.9287 28.7357 39.9287 28.6796 39.9611L28.1169 40.288C28.0608 40.3204 28.0608 40.373 28.1169 40.4054L29.5341 41.2231C29.5902 41.2556 29.6804 41.2556 29.7365 41.2231ZM33.3017 43.2818L33.8644 42.9549C33.9205 42.9225 33.9205 42.8699 33.8644 42.8375L32.4472 42.0198C32.3912 41.9874 32.3009 41.9874 32.2448 42.0198L31.6821 42.3467C31.6261 42.3791 31.6261 42.4317 31.6821 42.4641L33.0993 43.2818C33.1554 43.3142 33.2457 43.3142 33.3017 43.2818ZM40.4313 47.3983L40.994 47.0714C41.0501 47.039 41.0492 46.9864 40.994 46.954L39.5768 46.1363C39.5207 46.1039 39.4305 46.1039 39.3744 46.1363L38.8117 46.4632C38.7556 46.4956 38.7556 46.5482 38.8117 46.5806L40.2289 47.3983C40.285 47.4307 40.3752 47.4307 40.4313 47.3983ZM31.5191 42.2529L32.0818 41.926C32.1379 41.8936 32.1379 41.841 32.0818 41.8086L30.6646 40.9909C30.6085 40.9585 30.5183 40.9585 30.4622 40.9909L29.8995 41.3178C29.8434 41.3502 29.8434 41.4028 29.8995 41.4352L31.3167 42.2529C31.3728 42.2853 31.463 42.2853 31.5191 42.2529Z" fill="url(#paint3_linear_313_2035)"/>
<path d="M52.8134 51.7471C52.8134 51.7471 52.8134 51.7488 52.8125 51.7506C52.809 51.7602 52.8046 51.769 52.7985 51.7777C52.7976 51.7795 52.7967 51.7812 52.7949 51.783C52.7888 51.7918 52.7809 51.8005 52.7713 51.8093C52.7651 51.8145 52.7581 51.8198 52.7503 51.8242C52.7441 51.8286 52.7389 51.833 52.7318 51.8373L52.4987 51.9723L52.4961 52.8732L52.7292 52.7383L52.7327 52.7365C52.738 52.733 52.7424 52.7295 52.7476 52.726C52.7546 52.7208 52.7625 52.7164 52.7687 52.7102C52.7687 52.7102 52.7704 52.7094 52.7704 52.7085C52.7774 52.7023 52.7836 52.6953 52.7888 52.6892C52.7897 52.6874 52.7906 52.6857 52.7923 52.6848C52.7932 52.6831 52.7949 52.6813 52.7958 52.6796C52.7976 52.6769 52.7993 52.6743 52.8011 52.6717C52.8046 52.6664 52.8072 52.6603 52.809 52.655C52.809 52.655 52.809 52.6533 52.809 52.6524C52.809 52.6515 52.809 52.6506 52.8098 52.6489C52.8107 52.6454 52.8125 52.6419 52.8134 52.6384C52.8142 52.6331 52.8151 52.627 52.8151 52.6217V52.6191L52.8177 51.7181C52.8177 51.7287 52.816 51.7383 52.8125 51.7488L52.8134 51.7471Z" fill="#2A2A2A"/>
<path d="M55.8433 53.9022C56.1711 54.0915 56.1728 54.3982 55.8468 54.5875L38.0031 64.9572C37.6771 65.1465 37.1468 65.1465 36.8199 64.9572L10.2499 49.6174C9.92208 49.4281 9.92033 49.1214 10.2464 48.9321L28.09 38.5624C28.4152 38.3731 28.9463 38.3731 29.2732 38.5624L32.5571 40.4581L32.0374 40.7604C31.9226 40.827 31.9226 40.9357 32.0391 41.0023L51.5629 52.2738C51.6786 52.3404 51.8661 52.3404 51.9809 52.2738L52.5007 51.9714L55.8442 53.9013L55.8433 53.9022ZM44.4824 60.2404L54.285 54.5437C54.4428 54.4517 54.4419 54.3036 54.2833 54.2115L28.7693 39.4809C28.6115 39.3897 28.3547 39.3888 28.197 39.4809L18.3943 45.1775C18.2375 45.2687 18.2392 45.4177 18.397 45.5088L43.9118 60.2395C44.0705 60.3315 44.3264 60.3315 44.4841 60.2395M28.9445 59.0528L34.5579 55.7908C34.607 55.7619 34.607 55.7155 34.5579 55.6874L26.2268 50.8777C26.1777 50.8488 26.0962 50.8488 26.0471 50.8777L20.4337 54.1397C20.3838 54.1686 20.3855 54.215 20.4346 54.244L28.7658 59.0537C28.8148 59.0826 28.8946 59.0826 28.9445 59.0537" fill="url(#paint4_linear_313_2035)"/>
<path d="M54.2842 54.2116C54.4429 54.3036 54.4437 54.4517 54.286 54.5438L44.4833 60.2404C44.3265 60.3316 44.0697 60.3316 43.911 60.2404L18.3962 45.5089C18.2384 45.4177 18.2367 45.2687 18.3935 45.1776L28.1962 39.4809C28.3539 39.3889 28.6107 39.3898 28.7693 39.4809L54.2842 54.2116ZM44.3791 60.1799L54.1817 54.4833C54.2816 54.4246 54.2816 54.3308 54.1808 54.2721L28.665 39.5405C28.5651 39.4827 28.4012 39.4827 28.3013 39.5405L18.4987 45.2372C18.3988 45.295 18.3997 45.3897 18.4996 45.4475L44.0145 60.1782C44.1153 60.2369 44.2783 60.2369 44.3782 60.1782" fill="white"/>
<path d="M34.5559 55.6883C34.605 55.7172 34.6059 55.7637 34.5559 55.7917L28.9425 59.0537C28.8926 59.0826 28.8128 59.0826 28.7637 59.0537L20.4326 54.244C20.3835 54.2151 20.3818 54.1686 20.4317 54.1397L26.0451 50.8777C26.0942 50.8488 26.1748 50.8496 26.2248 50.8777L34.5559 55.6874V55.6883ZM30.4018 57.9573L34.1502 55.7786C34.2062 55.7461 34.2062 55.6927 34.1502 55.6603L26.2739 51.1126C26.2169 51.0793 26.1258 51.0801 26.0697 51.1126L22.3213 53.2913C22.2652 53.3237 22.2652 53.3763 22.3213 53.4096L30.1975 57.9573C30.2536 57.9897 30.3457 57.9897 30.4018 57.9573ZM24.8479 56.4122L25.9312 55.7829C25.9873 55.7505 25.9873 55.6971 25.9312 55.6646L22.174 53.4955C22.1171 53.4622 22.0259 53.4631 21.9698 53.4955L20.8866 54.1248C20.8305 54.1572 20.8305 54.2098 20.8866 54.2431L24.6437 56.4122C24.6998 56.4446 24.7919 56.4446 24.8479 56.4122ZM28.9671 58.7908L30.0503 58.1615C30.1064 58.1291 30.1064 58.0756 30.0503 58.0432L26.2923 55.8741C26.2362 55.8417 26.145 55.8417 26.0889 55.8741L25.0057 56.5034C24.9496 56.5358 24.9496 56.5884 25.0057 56.6208L28.7637 58.7899C28.8198 58.8223 28.9119 58.8223 28.9679 58.7899" fill="white"/>
<path d="M25.9306 55.6656C25.9867 55.698 25.9876 55.7515 25.9306 55.7839L24.8474 56.4131C24.7913 56.4456 24.7001 56.4456 24.6432 56.4131L20.886 54.244C20.829 54.2107 20.829 54.1581 20.886 54.1257L21.9692 53.4965C22.0253 53.464 22.1165 53.4631 22.1734 53.4965L25.9306 55.6656Z" fill="url(#paint5_linear_313_2035)"/>
<path d="M34.1504 55.6602C34.2065 55.6927 34.2074 55.7461 34.1504 55.7785L30.402 57.9573C30.3459 57.9897 30.2548 57.9897 30.1978 57.9573L22.3215 53.4096C22.2646 53.3763 22.2646 53.3237 22.3215 53.2913L26.0699 51.1125C26.126 51.0801 26.2172 51.0792 26.2741 51.1125L34.1504 55.6602Z" fill="url(#paint6_linear_313_2035)"/>
<path d="M30.0495 58.0432C30.1056 58.0757 30.1064 58.1291 30.0495 58.1615L28.9662 58.7908C28.9101 58.8232 28.819 58.8232 28.762 58.7908L25.004 56.6217C24.9479 56.5893 24.9479 56.5367 25.004 56.5043L26.0872 55.875C26.1433 55.8426 26.2345 55.8417 26.2906 55.875L30.0486 58.0441L30.0495 58.0432Z" fill="url(#paint7_linear_313_2035)"/>
<path d="M33.8428 42.8402C33.8989 42.8726 33.8998 42.9252 33.8428 42.9576L33.2802 43.2845C33.2241 43.3169 33.1338 43.3169 33.0777 43.2845L31.6606 42.4668C31.6045 42.4344 31.6036 42.3818 31.6606 42.3494L32.2232 42.0225C32.2793 41.9901 32.3696 41.9901 32.4257 42.0225L33.8428 42.8402Z" fill="url(#paint8_linear_313_2035)"/>
<path d="M43.5927 49.5639C43.6487 49.5964 43.6487 49.6489 43.5927 49.6814L42.229 50.4745C42.1729 50.5069 42.0817 50.5069 42.0265 50.4745L40.6094 49.6568C40.5533 49.6244 40.5515 49.5718 40.6076 49.5394L41.9713 48.7462C42.0265 48.7138 42.1185 48.7138 42.1746 48.7462L43.5918 49.5639H43.5927Z" fill="url(#paint9_linear_313_2035)"/>
<path d="M41.8205 50.5937C41.8766 50.6262 41.8775 50.6788 41.8205 50.7112L40.4568 51.5035C40.4007 51.5359 40.3096 51.5359 40.2535 51.5035L38.8363 50.6858C38.7803 50.6533 38.7794 50.5999 38.8363 50.5674L40.2 49.7752C40.2561 49.7427 40.3473 49.7427 40.4034 49.7752L41.8205 50.5929V50.5937Z" fill="url(#paint10_linear_313_2035)"/>
<path d="M47.1581 51.6218C47.2142 51.6542 47.2142 51.7068 47.1581 51.7392L45.7944 52.5324C45.7383 52.5648 45.6472 52.5648 45.5919 52.5324L44.1748 51.7147C44.1187 51.6823 44.1169 51.6297 44.173 51.5973L45.5367 50.8041C45.5919 50.7717 45.684 50.7717 45.7401 50.8041L47.1572 51.6218H47.1581Z" fill="url(#paint11_linear_313_2035)"/>
<path d="M45.3859 52.6516C45.442 52.684 45.4429 52.7366 45.3859 52.769L44.0223 53.5613C43.9662 53.5937 43.875 53.5937 43.8189 53.5613L42.4018 52.7436C42.3457 52.7112 42.3448 52.6577 42.4018 52.6253L43.7655 51.833C43.8216 51.8006 43.9127 51.8006 43.9688 51.833L45.3859 52.6507V52.6516Z" fill="url(#paint12_linear_313_2035)"/>
<path d="M30.2774 40.7815C30.3335 40.8139 30.3344 40.8665 30.2774 40.8989L29.7147 41.2258C29.6586 41.2582 29.5684 41.2582 29.5123 41.2258L28.0951 40.4081C28.039 40.3757 28.0382 40.3231 28.0951 40.2907L28.6578 39.9638C28.7139 39.9313 28.8041 39.9313 28.8602 39.9638L30.2774 40.7815Z" fill="url(#paint13_linear_313_2035)"/>
<path d="M32.8978 43.3888C32.9539 43.4212 32.9539 43.4738 32.8978 43.5062L31.5341 44.2994C31.478 44.3318 31.3877 44.3318 31.3316 44.2994L29.9145 43.4817C29.8584 43.4492 29.8575 43.3967 29.9145 43.3642L31.2782 42.5711C31.3334 42.5386 31.4245 42.5386 31.4806 42.5711L32.8978 43.3888Z" fill="url(#paint14_linear_313_2035)"/>
<path d="M38.2459 46.4764C38.302 46.5088 38.302 46.5614 38.2459 46.5938L36.8822 47.387C36.8261 47.4194 36.7359 47.4194 36.6798 47.387L35.2626 46.5693C35.2065 46.5369 35.2056 46.4843 35.2626 46.4519L36.6263 45.6587C36.6815 45.6263 36.7727 45.6263 36.8288 45.6587L38.2459 46.4764Z" fill="url(#paint15_linear_313_2035)"/>
<path d="M42.7555 47.9856C42.8116 48.018 42.8125 48.0706 42.7555 48.103L42.1928 48.4299C42.1367 48.4623 42.0456 48.4623 41.9904 48.4299L40.5732 47.6122C40.5171 47.5798 40.5154 47.5272 40.5715 47.4948L41.1341 47.1679C41.1902 47.1354 41.2814 47.1354 41.3375 47.1679L42.7546 47.9856H42.7555Z" fill="url(#paint16_linear_313_2035)"/>
<path d="M41.8109 48.5341C41.867 48.5666 41.867 48.6192 41.8109 48.6516L40.4472 49.4447C40.3911 49.4772 40.3 49.4772 40.2448 49.4447L38.8276 48.627C38.7715 48.5946 38.7698 48.542 38.8259 48.5096L40.1896 47.7165C40.2448 47.684 40.3368 47.684 40.3929 47.7165L41.81 48.5341H41.8109Z" fill="url(#paint17_linear_313_2035)"/>
<path d="M44.5372 49.0145C44.5933 49.0469 44.5942 49.0995 44.5372 49.1319L43.9746 49.4588C43.9185 49.4913 43.8273 49.4913 43.7721 49.4588L42.355 48.6411C42.2989 48.6087 42.2971 48.5561 42.3532 48.5237L42.9159 48.1968C42.972 48.1644 43.0631 48.1644 43.1192 48.1968L44.5363 49.0145H44.5372Z" fill="url(#paint18_linear_313_2035)"/>
<path d="M48.1027 51.0731C48.1587 51.1055 48.1596 51.1581 48.1027 51.1905L47.54 51.5174C47.4839 51.5499 47.3928 51.5499 47.3375 51.5174L45.9204 50.6997C45.8643 50.6673 45.8626 50.6147 45.9186 50.5823L46.4813 50.2554C46.5374 50.223 46.6285 50.223 46.6846 50.2554L48.1018 51.0731H48.1027Z" fill="url(#paint19_linear_313_2035)"/>
<path d="M48.9403 52.6507C48.9964 52.6832 48.9964 52.7357 48.9403 52.7682L47.5766 53.5613C47.5205 53.5937 47.4294 53.5937 47.3742 53.5613L45.957 52.7436C45.9009 52.7112 45.8992 52.6586 45.9553 52.6262L47.319 51.833C47.3742 51.8006 47.4662 51.8006 47.5223 51.833L48.9394 52.6507H48.9403Z" fill="url(#paint20_linear_313_2035)"/>
<path d="M31.115 42.3598C31.1711 42.3923 31.1711 42.4448 31.115 42.4773L29.7514 43.2704C29.6953 43.3028 29.605 43.3028 29.5489 43.2704L28.1318 42.4527C28.0757 42.4203 28.0748 42.3677 28.1318 42.3353L29.4954 41.5421C29.5507 41.5097 29.6418 41.5097 29.6979 41.5421L31.115 42.3598Z" fill="url(#paint21_linear_313_2035)"/>
<path d="M27.5604 42.3608C27.6165 42.3932 27.6174 42.4458 27.5604 42.4782L26.1967 43.2705C26.1406 43.3029 26.0495 43.3038 25.9934 43.2705L24.5762 42.4528C24.5202 42.4204 24.5202 42.3678 24.5762 42.3354L25.9399 41.5431C25.996 41.5107 26.0863 41.5107 26.1424 41.5431L27.5595 42.3608H27.5604Z" fill="url(#paint22_linear_313_2035)"/>
<path d="M31.1258 44.4185C31.1819 44.451 31.1828 44.5036 31.1258 44.536L29.7622 45.3283C29.7061 45.3607 29.6149 45.3616 29.5588 45.3283L28.1417 44.5106C28.0856 44.4781 28.0856 44.4256 28.1417 44.3931L29.5054 43.6009C29.5615 43.5684 29.6517 43.5684 29.7078 43.6009L31.125 44.4185H31.1258Z" fill="url(#paint23_linear_313_2035)"/>
<path d="M27.5721 44.4194C27.6282 44.4518 27.6282 44.5044 27.5721 44.5368L26.2084 45.33C26.1523 45.3624 26.062 45.3624 26.0059 45.33L24.5888 44.5123C24.5327 44.4799 24.5318 44.4273 24.5888 44.3949L25.9534 43.6017C26.0086 43.5693 26.0997 43.5693 26.1558 43.6017L27.573 44.4194H27.5721Z" fill="url(#paint24_linear_313_2035)"/>
<path d="M29.3538 45.4483C29.4099 45.4808 29.4099 45.5333 29.3538 45.5658L27.9901 46.3589C27.934 46.3913 27.8438 46.3913 27.7877 46.3589L26.3705 45.5412C26.3144 45.5088 26.3136 45.4562 26.3705 45.4238L27.7351 44.6306C27.7903 44.5982 27.8815 44.5982 27.9375 44.6306L29.3547 45.4483H29.3538Z" fill="url(#paint25_linear_313_2035)"/>
<path d="M25.7997 45.4483C25.8558 45.4807 25.8558 45.5333 25.7997 45.5657L24.436 46.358C24.3799 46.3904 24.2887 46.3913 24.2327 46.358L22.8155 45.5403C22.7594 45.5079 22.7594 45.4553 22.8155 45.4229L24.1792 44.6306C24.2353 44.5982 24.3264 44.5973 24.3825 44.6306L25.7997 45.4483Z" fill="url(#paint26_linear_313_2035)"/>
<path d="M27.5824 46.4781C27.6385 46.5105 27.6385 46.5631 27.5824 46.5955L26.2187 47.3878C26.1626 47.4202 26.0715 47.4211 26.0154 47.3878L24.5982 46.5701C24.5421 46.5377 24.5421 46.4851 24.5982 46.4527L25.9619 45.6604C26.018 45.628 26.1091 45.6271 26.1652 45.6604L27.5824 46.4781Z" fill="url(#paint27_linear_313_2035)"/>
<path d="M25.8104 47.5079C25.8665 47.5403 25.8674 47.5929 25.8104 47.6253L24.4459 48.4185C24.3906 48.4509 24.2995 48.4509 24.2434 48.4185L22.8262 47.6008C22.7702 47.5684 22.7702 47.5158 22.8262 47.4834L24.1899 46.6902C24.246 46.6578 24.3363 46.6578 24.3924 46.6902L25.8095 47.5079H25.8104Z" fill="url(#paint28_linear_313_2035)"/>
<path d="M34.7015 48.536C34.7576 48.5684 34.7576 48.621 34.7015 48.6534L33.3378 49.4466C33.2817 49.479 33.1914 49.479 33.1353 49.4466L31.7182 48.6289C31.6621 48.5965 31.6612 48.5439 31.7182 48.5114L33.0827 47.7183C33.138 47.6859 33.2291 47.6859 33.2852 47.7183L34.7023 48.536H34.7015Z" fill="url(#paint29_linear_313_2035)"/>
<path d="M32.93 49.5649C32.9861 49.5973 32.9861 49.6499 32.93 49.6823L31.5664 50.4746C31.5103 50.507 31.4191 50.5079 31.363 50.4746L29.9459 49.6569C29.8898 49.6245 29.8898 49.5719 29.9459 49.5395L31.3096 48.7472C31.3657 48.7148 31.4568 48.7139 31.5129 48.7472L32.93 49.5649Z" fill="url(#paint30_linear_313_2035)"/>
<path d="M38.2669 50.5937C38.323 50.6261 38.323 50.6787 38.2669 50.7112L36.9023 51.5043C36.8462 51.5367 36.7551 51.5367 36.6999 51.5043L35.2827 50.6866C35.2266 50.6542 35.2249 50.6016 35.2809 50.5692L36.6455 49.776C36.7007 49.7436 36.7928 49.7436 36.8488 49.776L38.266 50.5937H38.2669Z" fill="url(#paint31_linear_313_2035)"/>
<path d="M40.0491 51.6235C40.1052 51.6559 40.1052 51.7085 40.0491 51.7409L38.6845 52.5341C38.6284 52.5665 38.5373 52.5665 38.4821 52.5341L37.0649 51.7164C37.0088 51.684 37.0071 51.6314 37.0632 51.599L38.4277 50.8058C38.483 50.7734 38.575 50.7734 38.6311 50.8058L40.0482 51.6235H40.0491Z" fill="url(#paint32_linear_313_2035)"/>
<path d="M36.4948 51.6235C36.5509 51.656 36.5509 51.7085 36.4948 51.741L35.1311 52.5332C35.075 52.5657 34.9839 52.5657 34.9278 52.5332L33.5107 51.7155C33.4546 51.6831 33.4537 51.6297 33.5107 51.5972L34.8744 50.805C34.9304 50.7725 35.0216 50.7725 35.0786 50.805L36.4957 51.6226L36.4948 51.6235Z" fill="url(#paint33_linear_313_2035)"/>
<path d="M36.5049 53.6822C36.561 53.7146 36.5619 53.7672 36.5049 53.7997L35.1412 54.5928C35.086 54.6252 34.994 54.6252 34.9388 54.5928L33.5216 53.7751C33.4655 53.7427 33.4647 53.6892 33.5199 53.6577L34.8836 52.8645C34.9397 52.8321 35.0308 52.8321 35.0869 52.8645L36.504 53.6822H36.5049Z" fill="url(#paint34_linear_313_2035)"/>
<path d="M40.0702 55.7409C40.1263 55.7734 40.1272 55.8259 40.0702 55.8584L38.7057 56.6515C38.6505 56.684 38.5584 56.684 38.5032 56.6515L37.0861 55.8338C37.03 55.8014 37.0291 55.7479 37.0843 55.7164L38.4489 54.9232C38.505 54.8908 38.5961 54.8908 38.6522 54.9232L40.0694 55.7409H40.0702Z" fill="url(#paint35_linear_313_2035)"/>
<path d="M29.3328 41.331C29.3889 41.3634 29.3889 41.416 29.3328 41.4485L27.9691 42.2416C27.913 42.274 27.8228 42.274 27.7667 42.2416L26.3495 41.4239C26.2934 41.3915 26.2926 41.3389 26.3495 41.3065L27.7132 40.5133C27.7684 40.4809 27.8596 40.4809 27.9157 40.5133L29.3328 41.331Z" fill="url(#paint36_linear_313_2035)"/>
<path d="M32.0601 41.8104C32.1162 41.8428 32.1171 41.8954 32.0601 41.9278L31.4974 42.2547C31.4414 42.2872 31.3511 42.2872 31.295 42.2547L29.8778 41.437C29.8218 41.4046 29.8209 41.352 29.8778 41.3196L30.4405 40.9927C30.4966 40.9603 30.5869 40.9603 30.643 40.9927L32.0601 41.8104Z" fill="url(#paint37_linear_313_2035)"/>
<path d="M35.625 43.8691C35.6811 43.9015 35.682 43.9541 35.625 43.9865L35.0624 44.3134C35.0063 44.3459 34.916 44.3459 34.8599 44.3134L33.4428 43.4958C33.3867 43.4633 33.3858 43.4107 33.4428 43.3783L34.0054 43.0514C34.0615 43.019 34.1518 43.019 34.2079 43.0514L35.625 43.8691Z" fill="url(#paint38_linear_313_2035)"/>
<path d="M29.3431 43.3896C29.3992 43.422 29.4001 43.4746 29.3431 43.5071L27.9794 44.2993C27.9234 44.3318 27.8322 44.3326 27.7761 44.2993L26.359 43.4816C26.3029 43.4492 26.3029 43.3966 26.359 43.3642L27.7227 42.5719C27.7787 42.5395 27.869 42.5395 27.9251 42.5719L29.3423 43.3896H29.3431Z" fill="url(#paint39_linear_313_2035)"/>
<path d="M25.7893 43.3896C25.8454 43.422 25.8454 43.4746 25.7893 43.5071L24.4247 44.3002C24.3686 44.3326 24.2783 44.3326 24.2222 44.3002L22.8051 43.4825C22.749 43.4501 22.7481 43.3975 22.8051 43.3651L24.1697 42.5719C24.2249 42.5395 24.316 42.5395 24.3721 42.5719L25.7893 43.3896Z" fill="url(#paint40_linear_313_2035)"/>
<path d="M34.6805 44.4177C34.7366 44.4501 34.7366 44.5027 34.6805 44.5351L33.3168 45.3283C33.2607 45.3607 33.1704 45.3607 33.1143 45.3283L31.6972 44.5106C31.6411 44.4782 31.6402 44.4256 31.6972 44.3932L33.0609 43.6C33.1161 43.5676 33.2072 43.5676 33.2633 43.6L34.6805 44.4177Z" fill="url(#paint41_linear_313_2035)"/>
<path d="M37.4078 44.8979C37.4639 44.9303 37.4647 44.9829 37.4078 45.0154L36.8451 45.3423C36.789 45.3747 36.6979 45.3747 36.6427 45.3423L35.2255 44.5246C35.1694 44.4921 35.1685 44.4396 35.2255 44.4071L35.7882 44.0802C35.8442 44.0478 35.9345 44.0478 35.9906 44.0802L37.4078 44.8979Z" fill="url(#paint42_linear_313_2035)"/>
<path d="M24.017 44.4195C24.0731 44.4519 24.0731 44.5045 24.017 44.5369L22.6533 45.3292C22.5972 45.3616 22.506 45.3625 22.4499 45.3292L21.0328 44.5115C20.9767 44.4791 20.9767 44.4265 21.0328 44.3941L22.3965 43.6018C22.4526 43.5694 22.5437 43.5685 22.5998 43.6018L24.017 44.4195Z" fill="url(#paint43_linear_313_2035)"/>
<path d="M36.4632 45.4475C36.5193 45.4799 36.5193 45.5325 36.4632 45.5649L35.0995 46.3581C35.0434 46.3905 34.9523 46.3905 34.897 46.3581L33.4799 45.5404C33.4238 45.5079 33.4229 45.4554 33.4799 45.4229L34.8436 44.6298C34.8988 44.5974 34.9899 44.5974 35.046 44.6298L36.4632 45.4475Z" fill="url(#paint44_linear_313_2035)"/>
<path d="M39.1905 45.9268C39.2466 45.9593 39.2474 46.0119 39.1905 46.0443L38.6278 46.3712C38.5717 46.4036 38.4815 46.4036 38.4254 46.3712L37.0082 45.5535C36.9521 45.5211 36.9513 45.4685 37.0082 45.4361L37.5709 45.1092C37.627 45.0767 37.7172 45.0767 37.7733 45.1092L39.1905 45.9268Z" fill="url(#paint45_linear_313_2035)"/>
<path d="M32.9086 45.4475C32.9647 45.4799 32.9655 45.5325 32.9086 45.5649L31.5449 46.3572C31.4888 46.3896 31.3976 46.3905 31.3415 46.3572L29.9244 45.5395C29.8683 45.5071 29.8683 45.4545 29.9244 45.4221L31.2881 44.6298C31.3442 44.5974 31.4344 44.5974 31.4905 44.6298L32.9077 45.4475H32.9086Z" fill="url(#paint46_linear_313_2035)"/>
<path d="M22.2451 45.4492C22.3012 45.4816 22.3021 45.5342 22.2451 45.5666L20.8814 46.3598C20.8262 46.3922 20.735 46.3922 20.6789 46.3598L19.2618 45.5421C19.2057 45.5097 19.2057 45.4571 19.2618 45.4246L20.6264 44.6315C20.6825 44.5991 20.7727 44.5991 20.8288 44.6315L22.246 45.4492H22.2451Z" fill="url(#paint47_linear_313_2035)"/>
<path d="M40.9732 46.9566C41.0293 46.9891 41.0302 47.0416 40.9732 47.0741L40.4105 47.401C40.3544 47.4334 40.2633 47.4334 40.2081 47.401L38.7909 46.5833C38.7348 46.5509 38.734 46.4983 38.7909 46.4658L39.3536 46.1389C39.4097 46.1065 39.4999 46.1065 39.556 46.1389L40.9732 46.9566Z" fill="url(#paint48_linear_313_2035)"/>
<path d="M34.6908 46.4773C34.7469 46.5097 34.7478 46.5623 34.6908 46.5947L33.3271 47.387C33.271 47.4194 33.1799 47.4194 33.1238 47.387L31.7066 46.5693C31.6505 46.5369 31.6505 46.4843 31.7066 46.4518L33.0703 45.6596C33.1264 45.6271 33.2167 45.6271 33.2728 45.6596L34.6899 46.4773H34.6908Z" fill="url(#paint49_linear_313_2035)"/>
<path d="M31.1364 46.4773C31.1925 46.5097 31.1925 46.5623 31.1364 46.5947L29.7719 47.3879C29.7158 47.4203 29.6255 47.4203 29.5694 47.3879L28.1523 46.5702C28.0962 46.5377 28.0953 46.4852 28.1523 46.4527L29.516 45.6596C29.5712 45.6271 29.6623 45.6271 29.7184 45.6596L31.1356 46.4773H31.1364Z" fill="url(#paint50_linear_313_2035)"/>
<path d="M24.0278 46.479C24.0839 46.5114 24.0848 46.564 24.0278 46.5964L22.6641 47.3896C22.6089 47.422 22.5178 47.422 22.4617 47.3896L21.0445 46.5719C20.9884 46.5394 20.9884 46.4869 21.0445 46.4544L22.4091 45.6613C22.4652 45.6289 22.5554 45.6289 22.6115 45.6613L24.0287 46.479H24.0278Z" fill="url(#paint51_linear_313_2035)"/>
<path d="M40.0281 47.5052C40.0842 47.5376 40.0842 47.5902 40.0281 47.6227L38.6644 48.4158C38.6084 48.4482 38.5172 48.4482 38.462 48.4158L37.0448 47.5981C36.9887 47.5657 36.9879 47.5131 37.0448 47.4807L38.4094 46.6875C38.4646 46.6551 38.5558 46.6551 38.6119 46.6875L40.029 47.5052H40.0281Z" fill="url(#paint52_linear_313_2035)"/>
<path d="M36.4735 47.5062C36.5296 47.5386 36.5305 47.5912 36.4735 47.6236L35.1098 48.4159C35.0537 48.4483 34.9626 48.4492 34.9065 48.4159L33.4893 47.5982C33.4332 47.5658 33.4332 47.5132 33.4893 47.4808L34.853 46.6885C34.9091 46.6561 34.9994 46.6561 35.0555 46.6885L36.4726 47.5062H36.4735Z" fill="url(#paint53_linear_313_2035)"/>
<path d="M32.9187 47.5062C32.9747 47.5386 32.9747 47.5912 32.9187 47.6236L31.5541 48.4168C31.498 48.4492 31.4069 48.4492 31.3516 48.4168L29.9345 47.5991C29.8784 47.5667 29.8775 47.5141 29.9345 47.4817L31.2991 46.6885C31.3543 46.6561 31.4454 46.6561 31.5015 46.6885L32.9187 47.5062Z" fill="url(#paint54_linear_313_2035)"/>
<path d="M29.3651 47.507C29.4212 47.5394 29.4212 47.592 29.3651 47.6244L28.0014 48.4167C27.9453 48.4492 27.8542 48.45 27.7981 48.4167L26.3809 47.599C26.3248 47.5666 26.3248 47.514 26.3809 47.4816L27.7446 46.6893C27.8007 46.6569 27.8919 46.656 27.948 46.6893L29.3651 47.507Z" fill="url(#paint55_linear_313_2035)"/>
<path d="M38.2552 48.535C38.3113 48.5674 38.3122 48.62 38.2552 48.6524L36.8916 49.4447C36.8355 49.4771 36.7443 49.4771 36.6882 49.4447L35.2711 48.627C35.215 48.5946 35.215 48.542 35.2711 48.5096L36.6348 47.7173C36.6909 47.6849 36.7811 47.6849 36.8372 47.7173L38.2544 48.535H38.2552Z" fill="url(#paint56_linear_313_2035)"/>
<path d="M31.1478 48.5359C31.2039 48.5684 31.2039 48.621 31.1478 48.6534L29.7841 49.4457C29.728 49.4781 29.6369 49.4781 29.5808 49.4457L28.1636 48.628C28.1076 48.5955 28.1076 48.543 28.1636 48.5105L29.5273 47.7183C29.5834 47.6858 29.6746 47.685 29.7307 47.7183L31.1478 48.5359Z" fill="url(#paint57_linear_313_2035)"/>
<path d="M27.5931 48.5368C27.6492 48.5693 27.6501 48.6218 27.5931 48.6543L26.2286 49.4474C26.1734 49.4799 26.0822 49.4799 26.0261 49.4474L24.609 48.6297C24.5529 48.5973 24.5529 48.5447 24.609 48.5123L25.9735 47.7191C26.0296 47.6867 26.1199 47.6867 26.176 47.7191L27.5931 48.5368Z" fill="url(#paint58_linear_313_2035)"/>
<path d="M46.32 50.0433C46.3761 50.0757 46.377 50.1283 46.32 50.1607L45.7574 50.4876C45.7013 50.5201 45.6101 50.5201 45.5549 50.4876L44.1378 49.6691C44.0817 49.6367 44.0817 49.5849 44.1378 49.5525L44.7004 49.2256C44.7565 49.1932 44.8468 49.1932 44.902 49.2256L46.3192 50.0442L46.32 50.0433Z" fill="url(#paint59_linear_313_2035)"/>
<path d="M40.0378 49.5648C40.0939 49.5972 40.0948 49.6498 40.0378 49.6822L38.6741 50.4745C38.618 50.5069 38.5269 50.5069 38.4708 50.4745L37.0536 49.6568C36.9975 49.6244 36.9967 49.5709 37.0536 49.5385L38.4173 48.7462C38.4734 48.7138 38.5646 48.7138 38.6206 48.7462L40.0378 49.5639V49.5648Z" fill="url(#paint60_linear_313_2035)"/>
<path d="M36.4841 49.5648C36.5402 49.5972 36.5402 49.6498 36.4841 49.6822L35.1195 50.4754C35.0634 50.5078 34.9723 50.5078 34.9171 50.4754L33.4999 49.6577C33.4438 49.6253 33.4429 49.5727 33.4999 49.5403L34.8645 48.7471C34.9197 48.7147 35.0108 48.7147 35.0669 48.7471L36.4841 49.5648Z" fill="url(#paint61_linear_313_2035)"/>
<path d="M29.3755 49.5658C29.4316 49.5982 29.4324 49.6508 29.3755 49.6832L28.0118 50.4764C27.9566 50.5088 27.8645 50.5088 27.8093 50.4764L26.3922 49.6587C26.3361 49.6262 26.3361 49.5737 26.3922 49.5412L27.7567 48.7481C27.8128 48.7156 27.9031 48.7156 27.9592 48.7481L29.3763 49.5658H29.3755Z" fill="url(#paint62_linear_313_2035)"/>
<path d="M45.3755 50.5929C45.4316 50.6253 45.4316 50.6779 45.3755 50.7103L44.0118 51.5035C43.9557 51.5359 43.8645 51.5359 43.8093 51.5035L42.3922 50.6849C42.3361 50.6525 42.3361 50.6008 42.3922 50.5683L43.7559 49.7752C43.8111 49.7427 43.9022 49.7427 43.9574 49.7752L45.3746 50.5937L45.3755 50.5929Z" fill="url(#paint63_linear_313_2035)"/>
<path d="M34.7128 50.5947C34.7689 50.6271 34.7689 50.6797 34.7128 50.7121L33.3491 51.5044C33.293 51.5368 33.2018 51.5368 33.1457 51.5044L31.7286 50.6867C31.6725 50.6543 31.6725 50.6017 31.7286 50.5692L33.0923 49.777C33.1484 49.7445 33.2395 49.7437 33.2956 49.777L34.7128 50.5947Z" fill="url(#paint64_linear_313_2035)"/>
<path d="M31.1572 50.5955C31.2133 50.628 31.2142 50.6806 31.1572 50.713L29.7935 51.5061C29.7383 51.5386 29.6471 51.5386 29.5911 51.5061L28.1739 50.6884C28.1178 50.656 28.1178 50.6034 28.1739 50.571L29.5385 49.7779C29.5946 49.7454 29.6848 49.7454 29.7409 49.7779L31.1581 50.5955H31.1572Z" fill="url(#paint65_linear_313_2035)"/>
<path d="M52.7319 51.5946C52.8475 51.6613 52.8484 51.7699 52.7336 51.8365L52.5005 51.9715L51.9808 52.2739C51.866 52.3405 51.6784 52.3405 51.5627 52.2739L32.039 41.0024C31.9233 40.9358 31.9224 40.8271 32.0372 40.7605L32.5569 40.4581L32.7901 40.3231C32.9049 40.2565 33.0924 40.2565 33.2081 40.3231L52.7319 51.5946Z" fill="url(#paint66_linear_313_2035)"/>
<path d="M49.8854 52.102C49.9415 52.1344 49.9423 52.187 49.8854 52.2195L49.3227 52.5464C49.2666 52.5788 49.1755 52.5788 49.1203 52.5464L47.7031 51.7287C47.647 51.6962 47.6453 51.6437 47.7014 51.6112L48.264 51.2843C48.3201 51.2519 48.4112 51.2519 48.4673 51.2843L49.8845 52.102H49.8854Z" fill="url(#paint67_linear_313_2035)"/>
<path d="M43.6031 51.6227C43.6592 51.6551 43.66 51.7077 43.6031 51.7401L42.2394 52.5324C42.1833 52.5648 42.0921 52.5648 42.036 52.5324L40.6189 51.7138C40.5628 51.6814 40.5637 51.6288 40.6189 51.5964L41.9826 50.8041C42.0387 50.7717 42.1289 50.7717 42.1842 50.8041L43.6013 51.6227H43.6031Z" fill="url(#paint68_linear_313_2035)"/>
<path d="M32.9398 51.6244C32.9959 51.6568 32.9968 51.7094 32.9398 51.7418L31.5752 52.5349C31.52 52.5674 31.428 52.5674 31.3728 52.5349L29.9556 51.7173C29.8996 51.6848 29.8996 51.6322 29.9556 51.5998L31.3193 50.8067C31.3754 50.7742 31.4657 50.7742 31.5218 50.8067L32.9389 51.6244H32.9398Z" fill="url(#paint69_linear_313_2035)"/>
<path d="M51.6681 53.131C51.7242 53.1634 51.7251 53.216 51.6681 53.2484L51.1054 53.5753C51.0493 53.6077 50.9582 53.6077 50.903 53.5753L49.4858 52.7576C49.4297 52.7252 49.428 52.6726 49.4841 52.6402L50.0467 52.3133C50.1028 52.2808 50.194 52.2808 50.2501 52.3133L51.6672 53.131H51.6681Z" fill="url(#paint70_linear_313_2035)"/>
<path d="M41.832 52.6524C41.8881 52.6849 41.8881 52.7374 41.832 52.7699L40.4683 53.563C40.4122 53.5955 40.3211 53.5955 40.2659 53.563L38.8487 52.7445C38.7926 52.712 38.7926 52.6603 38.8487 52.6279L40.2133 51.8347C40.2685 51.8023 40.3596 51.8023 40.4149 51.8347L41.832 52.6533V52.6524Z" fill="url(#paint71_linear_313_2035)"/>
<path d="M38.2771 52.6525C38.3331 52.6849 38.3331 52.7375 38.2771 52.7699L36.9134 53.5622C36.8573 53.5946 36.7661 53.5946 36.71 53.5622L35.2929 52.7445C35.2368 52.7121 35.2359 52.6586 35.2929 52.6262L36.6566 51.8339C36.7127 51.8015 36.8038 51.8015 36.8608 51.8339L38.2779 52.6516L38.2771 52.6525Z" fill="url(#paint72_linear_313_2035)"/>
<path d="M34.7226 52.6533C34.7787 52.6857 34.7796 52.7383 34.7226 52.7707L33.358 53.5639C33.3028 53.5963 33.2108 53.5963 33.1556 53.5639L31.7384 52.7462C31.6823 52.7138 31.6815 52.6603 31.7367 52.6287L33.1012 51.8356C33.1573 51.8032 33.2485 51.8032 33.3046 51.8356L34.7217 52.6533H34.7226Z" fill="url(#paint73_linear_313_2035)"/>
<path d="M50.723 53.6804C50.7791 53.7128 50.7791 53.7654 50.723 53.7978L49.3593 54.591C49.3032 54.6234 49.2121 54.6234 49.1569 54.591L47.7397 53.7733C47.6836 53.7409 47.6819 53.6883 47.738 53.6559L49.1017 52.8627C49.1569 52.8303 49.2489 52.8303 49.305 52.8627L50.7222 53.6804H50.723Z" fill="url(#paint74_linear_313_2035)"/>
<path d="M53.4494 54.1599C53.5055 54.1923 53.5064 54.2449 53.4494 54.2773L52.8868 54.6042C52.8307 54.6366 52.7404 54.6366 52.6843 54.6042L51.2681 53.7865C51.212 53.7541 51.2102 53.7015 51.2663 53.6691L51.829 53.3422C51.885 53.3098 51.9762 53.3098 52.0323 53.3422L53.4486 54.1599H53.4494Z" fill="url(#paint75_linear_313_2035)"/>
<path d="M47.1682 53.6813C47.2243 53.7137 47.2251 53.7663 47.1682 53.7987L45.8045 54.591C45.7484 54.6234 45.6572 54.6234 45.6012 54.591L44.184 53.7733C44.1279 53.7409 44.127 53.6874 44.184 53.655L45.5477 52.8627C45.6038 52.8303 45.6949 52.8303 45.751 52.8627L47.1682 53.6804V53.6813Z" fill="url(#paint76_linear_313_2035)"/>
<path d="M43.6136 53.6814C43.6696 53.7138 43.6696 53.7664 43.6136 53.7988L42.249 54.592C42.1929 54.6244 42.1017 54.6244 42.0465 54.592L40.6294 53.7743C40.5733 53.7418 40.5715 53.6893 40.6276 53.6568L41.9913 52.8637C42.0465 52.8312 42.1386 52.8312 42.1946 52.8637L43.6118 53.6814H43.6136Z" fill="url(#paint77_linear_313_2035)"/>
<path d="M40.0601 53.6822C40.1162 53.7146 40.1162 53.7672 40.0601 53.7996L38.6964 54.5919C38.6403 54.6243 38.5492 54.6243 38.4931 54.5919L37.0759 53.7734C37.0198 53.7409 37.0207 53.6883 37.0759 53.6559L38.4396 52.8636C38.4957 52.8312 38.5868 52.8303 38.6421 52.8636L40.0592 53.6822H40.0601Z" fill="url(#paint78_linear_313_2035)"/>
<path d="M52.5049 54.7085C52.561 54.7409 52.561 54.7935 52.5049 54.8259L51.1412 55.6191C51.0851 55.6515 50.9948 55.6515 50.9387 55.6191L49.5224 54.8014C49.4664 54.7689 49.4646 54.7164 49.5207 54.6839L50.8844 53.8908C50.9396 53.8583 51.0316 53.8583 51.0877 53.8908L52.504 54.7085H52.5049Z" fill="url(#paint79_linear_313_2035)"/>
<path d="M48.9509 54.7102C49.007 54.7426 49.0079 54.7952 48.9509 54.8276L47.5872 55.6199C47.5311 55.6523 47.44 55.6523 47.3839 55.6199L45.9667 54.8022C45.9106 54.7698 45.9097 54.7163 45.9667 54.6839L47.3304 53.8916C47.3865 53.8592 47.4776 53.8592 47.5337 53.8916L48.9509 54.7093V54.7102Z" fill="url(#paint80_linear_313_2035)"/>
<path d="M45.3963 54.7102C45.4524 54.7426 45.4524 54.7952 45.3963 54.8276L44.0317 55.6208C43.9756 55.6532 43.8845 55.6532 43.8292 55.6208L42.4121 54.8031C42.356 54.7706 42.3543 54.7181 42.4103 54.6856L43.7749 53.8925C43.8301 53.8601 43.9221 53.8601 43.9782 53.8925L45.3954 54.7102H45.3963Z" fill="url(#paint81_linear_313_2035)"/>
<path d="M41.8425 54.7111C41.8986 54.7435 41.8986 54.7961 41.8425 54.8285L40.4788 55.6208C40.4227 55.6532 40.3316 55.6532 40.2755 55.6208L38.8583 54.8031C38.8022 54.7706 38.8013 54.7172 38.8583 54.6848L40.222 53.8925C40.2781 53.8601 40.3692 53.8601 40.4262 53.8925L41.8434 54.7102L41.8425 54.7111Z" fill="url(#paint82_linear_313_2035)"/>
<path d="M38.2876 54.712C38.3437 54.7444 38.3446 54.797 38.2876 54.8294L36.9231 55.6226C36.8678 55.655 36.7758 55.655 36.7206 55.6226L35.3035 54.804C35.2474 54.7716 35.2482 54.719 35.3035 54.6875L36.6672 53.8943C36.7232 53.8619 36.8135 53.8619 36.8687 53.8943L38.2859 54.7129L38.2876 54.712Z" fill="url(#paint83_linear_313_2035)"/>
<path d="M50.7327 55.7391C50.7888 55.7716 50.7897 55.8241 50.7327 55.8566L49.369 56.6488C49.3129 56.6813 49.2218 56.6821 49.1657 56.6488L47.7494 55.8312C47.6933 55.7987 47.6925 55.7453 47.7494 55.7128L49.1131 54.9206C49.1692 54.8881 49.2604 54.8881 49.3164 54.9206L50.7327 55.7383V55.7391Z" fill="url(#paint84_linear_313_2035)"/>
<path d="M47.179 55.74C47.2351 55.7724 47.2351 55.825 47.179 55.8574L45.8144 56.6505C45.7583 56.683 45.6672 56.683 45.612 56.6505L44.1948 55.8329C44.1387 55.8004 44.137 55.7478 44.1931 55.7154L45.5576 54.9223C45.6128 54.8898 45.7049 54.8898 45.761 54.9223L47.1781 55.74H47.179Z" fill="url(#paint85_linear_313_2035)"/>
<path d="M43.6252 55.74C43.6813 55.7724 43.6813 55.825 43.6252 55.8574L42.2615 56.6497C42.2054 56.6821 42.1143 56.6821 42.0582 56.6497L40.641 55.832C40.5849 55.7996 40.5841 55.7461 40.641 55.7137L42.0047 54.9214C42.0608 54.889 42.152 54.889 42.2089 54.9214L43.6261 55.7391L43.6252 55.74Z" fill="url(#paint86_linear_313_2035)"/>
<path d="M48.9604 56.768C49.0165 56.8005 49.0165 56.853 48.9604 56.8855L47.5967 57.6786C47.5406 57.7111 47.4504 57.7111 47.3943 57.6786L45.978 56.8609C45.9219 56.8285 45.9202 56.7759 45.9763 56.7435L47.3408 55.9503C47.396 55.9179 47.4881 55.9179 47.5442 55.9503L48.9604 56.768Z" fill="url(#paint87_linear_313_2035)"/>
<path d="M45.4079 56.7689C45.464 56.8013 45.464 56.8539 45.4079 56.8863L44.0442 57.6786C43.9881 57.7111 43.897 57.7111 43.8409 57.6786L42.4237 56.8609C42.3677 56.8285 42.3668 56.775 42.4237 56.7426L43.7874 55.9503C43.8435 55.9179 43.9347 55.9179 43.9916 55.9503L45.4088 56.768L45.4079 56.7689Z" fill="url(#paint88_linear_313_2035)"/>
<path d="M41.853 56.7697C41.9091 56.8022 41.9099 56.8548 41.853 56.8872L40.4884 57.6803C40.4332 57.7128 40.3412 57.7128 40.2859 57.6803L38.8688 56.8626C38.8127 56.8302 38.8118 56.7768 38.867 56.7452L40.2316 55.9521C40.2877 55.9196 40.3788 55.9196 40.4349 55.9521L41.8521 56.7697H41.853Z" fill="url(#paint89_linear_313_2035)"/>
<path d="M47.1893 57.7978C47.2454 57.8303 47.2454 57.8829 47.1893 57.9153L45.8256 58.7076C45.7695 58.74 45.6783 58.7409 45.6222 58.7076L44.206 57.8899C44.1499 57.8574 44.149 57.804 44.206 57.7716L45.5697 56.9793C45.6258 56.9468 45.7169 56.9468 45.7739 56.9793L47.1901 57.797L47.1893 57.7978Z" fill="url(#paint90_linear_313_2035)"/>
<path d="M43.6358 57.7995C43.6919 57.832 43.6927 57.8845 43.6358 57.917L42.2721 58.7101C42.2169 58.7425 42.1249 58.7425 42.0696 58.7101L40.6525 57.8924C40.5964 57.86 40.5955 57.8065 40.6507 57.775L42.0144 56.9818C42.0705 56.9494 42.1617 56.9494 42.2177 56.9818L43.6349 57.7995H43.6358Z" fill="url(#paint91_linear_313_2035)"/>
<path d="M45.4175 58.8276C45.4736 58.86 45.4745 58.9126 45.4175 58.945L44.0529 59.7382C43.9977 59.7706 43.9066 59.7706 43.8505 59.7382L42.4342 58.9205C42.3781 58.8881 42.3773 58.8346 42.4325 58.8031L43.7962 58.0099C43.8523 57.9775 43.9434 57.9775 43.9995 58.0099L45.4158 58.8276H45.4175Z" fill="url(#paint92_linear_313_2035)"/>
<path d="M56.0886 54.272C56.0886 54.2808 56.0868 54.2895 56.086 54.2983C56.0842 54.3053 56.0824 54.3123 56.0807 54.3202C56.0789 54.3281 56.0763 54.3369 56.0737 54.3447C56.0711 54.3518 56.0684 54.3588 56.0649 54.3649C56.0614 54.3737 56.057 54.3824 56.0526 54.3912C56.0491 54.3973 56.0456 54.4035 56.0413 54.4096C56.0351 54.4192 56.029 54.4289 56.022 54.4385C56.0176 54.4438 56.0132 54.4499 56.0088 54.4552C55.9983 54.4683 55.986 54.4806 55.9738 54.4937C55.9694 54.4981 55.965 54.5025 55.9597 54.5069C55.9519 54.5139 55.9431 54.5209 55.9343 54.5279C55.9264 54.5341 55.9194 54.5402 55.9107 54.5463C55.901 54.5533 55.8905 54.5595 55.8809 54.5665C55.8704 54.5735 55.8607 54.5805 55.8493 54.5866L38.0056 64.9563C37.9697 64.9773 37.9294 64.9957 37.8891 65.0115C37.8786 65.0159 37.8672 65.0203 37.8567 65.0238C37.8312 65.0326 37.8049 65.0404 37.7778 65.0475C37.7506 65.0553 37.7226 65.0624 37.6936 65.0685C37.6603 65.0755 37.6262 65.0816 37.592 65.086C37.5841 65.0869 37.5753 65.0886 37.5674 65.0895C37.521 65.0948 37.4737 65.0965 37.4263 65.0974C37.4184 65.0974 37.4114 65.0974 37.4035 65.0974C37.3571 65.0974 37.3106 65.0948 37.2651 65.0895C37.2581 65.0895 37.2511 65.0878 37.244 65.0869C37.1985 65.0816 37.1538 65.0737 37.11 65.0641C37.1021 65.0624 37.0942 65.0606 37.0863 65.058C37.046 65.0483 37.0074 65.0361 36.9706 65.0229C36.9636 65.0203 36.9566 65.0185 36.9504 65.0159C36.9057 64.9984 36.8628 64.9791 36.8234 64.9554L10.2498 49.6174C10.085 49.5219 10.0026 49.3974 10.0026 49.2721L10 50.173C10 50.2984 10.0824 50.4228 10.2471 50.5183L36.8172 65.859C36.8549 65.8809 36.8952 65.9002 36.9382 65.9168C36.9399 65.9168 36.9426 65.9186 36.9452 65.9195C36.9522 65.9221 36.9592 65.9239 36.9653 65.9265C36.9899 65.9353 37.0144 65.944 37.0398 65.9519C37.0539 65.9554 37.0679 65.9589 37.0819 65.9624C37.0898 65.9642 37.0977 65.9668 37.1056 65.9686C37.1126 65.9703 37.1196 65.9721 37.1275 65.9738C37.1546 65.9791 37.1827 65.9843 37.2107 65.9878C37.2204 65.9896 37.2309 65.9896 37.2405 65.9913C37.2475 65.9913 37.2546 65.9931 37.2616 65.994C37.2721 65.9949 37.2817 65.9966 37.2922 65.9975C37.3194 66.0001 37.3475 66.001 37.3746 66.0019C37.3834 66.0019 37.3913 66.0019 37.4 66.0019C37.4079 66.0019 37.4149 66.0019 37.4228 66.0019C37.4351 66.0019 37.4482 66.0019 37.4605 66.0019C37.4912 66.001 37.5227 65.9984 37.5534 65.9957C37.5569 65.9957 37.5604 65.9949 37.5639 65.994C37.5718 65.9931 37.5806 65.9913 37.5885 65.9905C37.6121 65.9878 37.6367 65.9843 37.6603 65.9808C37.6709 65.9791 37.6805 65.9756 37.6901 65.9729C37.7191 65.9668 37.7462 65.9598 37.7743 65.9519C37.7892 65.9475 37.8049 65.9458 37.819 65.9405C37.8304 65.937 37.8418 65.9317 37.8531 65.9274C37.8637 65.923 37.8751 65.9195 37.8856 65.9151C37.9268 65.8984 37.9662 65.8809 38.0021 65.8599L55.8458 55.4902C55.8458 55.4902 55.8528 55.4858 55.8563 55.4841C55.8642 55.4797 55.8704 55.4744 55.8782 55.4692C55.8888 55.4622 55.8984 55.456 55.908 55.449C55.9159 55.4429 55.9238 55.4368 55.9317 55.4306C55.9405 55.4236 55.9492 55.4166 55.9571 55.4096C55.9589 55.4078 55.9606 55.407 55.9624 55.4052C55.9659 55.4026 55.9676 55.3991 55.9711 55.3956C55.9843 55.3833 55.9957 55.3701 56.0062 55.3579C56.0088 55.3552 56.0115 55.3526 56.0141 55.3491C56.0167 55.3465 56.0176 55.343 56.0202 55.3403C56.0272 55.3307 56.0334 55.3211 56.0395 55.3114C56.0421 55.307 56.0456 55.3035 56.0474 55.2992C56.0483 55.2974 56.0491 55.2948 56.05 55.293C56.0544 55.2843 56.0588 55.2755 56.0623 55.2667C56.0649 55.2615 56.0675 55.2571 56.0693 55.2518C56.0693 55.2501 56.0702 55.2483 56.0711 55.2466C56.0737 55.2378 56.0763 55.2299 56.0781 55.2212C56.0798 55.2159 56.0816 55.2098 56.0824 55.2045C56.0824 55.2028 56.0824 55.2019 56.0824 55.2001C56.0842 55.1914 56.0851 55.1826 56.0851 55.1738C56.0851 55.1677 56.0868 55.1624 56.0868 55.1563C56.0868 55.1537 56.0868 55.151 56.0868 55.1493L56.0895 54.2483C56.0895 54.2562 56.0877 54.265 56.0877 54.2729L56.0886 54.272Z" fill="url(#paint93_linear_313_2035)"/>
<path d="M14.9893 32.218L11.9351 30.4546V20.0894L14.9893 21.8527V32.218Z" fill="url(#paint94_linear_313_2035)"/>
<path d="M18.0456 30.4546L14.9922 32.218V21.8527L18.0456 17.7616V30.4546Z" fill="url(#paint95_linear_313_2035)"/>
<path d="M18.0437 17.7616L14.9921 16L11.9404 20.0893L14.9921 21.8509L18.0437 17.7616Z" fill="url(#paint96_linear_313_2035)"/>
<path d="M45.1459 36.4343C45.4185 36.5921 45.6411 36.9777 45.6402 37.2915C45.6393 37.6052 45.415 37.7323 45.1424 37.5754L40.6745 34.9962C40.401 34.8384 40.1793 34.4528 40.1802 34.1399C40.1811 33.8261 40.4045 33.6973 40.678 33.8559L45.1459 36.4352V36.4343Z" fill="url(#paint97_linear_313_2035)"/>
<path d="M45.1546 33.3914C45.4272 33.5492 45.6498 33.9348 45.6489 34.2477C45.648 34.5614 45.4236 34.6894 45.1511 34.5316L42.1862 32.82C41.9136 32.6622 41.691 32.2766 41.6919 31.9629C41.6928 31.6491 41.9171 31.522 42.1897 31.6789L45.1546 33.3905V33.3914Z" fill="url(#paint98_linear_313_2035)"/>
<path d="M41.4518 28.0734C41.5701 28.1417 41.6885 28.2583 41.784 28.4099C41.9908 28.7386 42.0057 29.1093 41.8147 29.246L38.742 31.3958C38.6587 31.4616 38.5264 31.4528 38.394 31.3853L38.3774 31.3757C38.2451 31.2994 38.1215 31.1706 38.0303 31.0137L36.2985 28.09C36.1005 27.757 36.0935 27.3906 36.2845 27.2723C36.3827 27.211 36.5141 27.2276 36.6456 27.303C36.7692 27.374 36.8919 27.4976 36.9883 27.6588L38.3485 29.9585L41.0802 28.0506C41.1784 27.9796 41.3142 27.9936 41.4518 28.0725V28.0734Z" fill="url(#paint99_linear_313_2035)"/>
<path d="M45.1371 39.5718C45.4097 39.7295 45.6323 40.1143 45.6314 40.428C45.6305 40.7418 45.4062 40.8689 45.1336 40.712L40.6657 38.1327C40.3922 37.975 40.1705 37.5902 40.1714 37.2765C40.1723 36.9627 40.3957 36.8348 40.6692 36.9925L45.1371 39.5718Z" fill="url(#paint100_linear_313_2035)"/>
<path d="M47.6461 31.3073C47.9195 31.4651 48.1421 31.8507 48.1413 32.1645L48.1045 45.1897C48.1036 45.5034 47.8792 45.6305 47.6058 45.4727L38.3404 40.1231C38.0669 39.9654 37.8443 39.5798 37.8452 39.266L37.8645 32.3257C37.8654 32.012 38.0897 31.884 38.3632 32.0418C38.6357 32.1995 38.8583 32.5851 38.8575 32.8989L38.8391 39.2686L47.1124 44.0451L47.1457 32.161L43.3403 29.9638C43.0669 29.8061 42.8451 29.4204 42.846 29.1067C42.8469 28.7929 43.0704 28.665 43.3438 28.8227L47.6461 31.3065V31.3073Z" fill="url(#paint101_linear_313_2035)"/>
<path d="M15.6284 25.1016V36.2679L22.6975 40.3493V29.183L15.6284 25.1016Z" fill="url(#paint102_linear_313_2035)"/>
<path d="M27.908 25.2916C27.9071 25.8376 27.546 26.3836 26.8239 26.8008L22.6978 29.1829V40.3492L26.8239 37.9662C27.6425 37.493 27.9974 36.8541 27.8887 36.2371H27.908V25.2916Z" fill="url(#paint103_linear_313_2035)"/>
<path d="M27.6371 24.4845C27.6301 24.4749 27.623 24.4661 27.616 24.4565C27.5994 24.4337 27.5827 24.4109 27.5652 24.389C27.5477 24.3679 27.5293 24.346 27.5109 24.325C27.5021 24.3154 27.4942 24.3048 27.4855 24.2952C27.3163 24.1094 27.0963 23.9341 26.8246 23.7781L22.3734 21.2085L15.6294 25.1024L22.6985 29.1838L26.8246 26.8017C27.5468 26.3846 27.9079 25.8386 27.9088 25.2926V25.2891C27.9088 25.0156 27.8176 24.7422 27.6371 24.4854V24.4845Z" fill="url(#paint104_linear_313_2035)"/>
<path d="M21.5214 30.516C21.5003 30.516 21.4793 30.5107 21.46 30.4993L16.7064 27.7544C16.6476 27.7202 16.6275 27.6448 16.6617 27.5861C16.6959 27.5274 16.7712 27.5073 16.8299 27.5414L21.5836 30.2863C21.6423 30.3205 21.6625 30.3959 21.6283 30.4546C21.6055 30.4941 21.5643 30.516 21.5214 30.516Z" fill="white"/>
<path d="M21.5214 31.8884C21.5003 31.8884 21.4793 31.8831 21.46 31.8717L16.7064 29.1268C16.6476 29.0927 16.6275 29.0173 16.6617 28.9586C16.6959 28.8998 16.7712 28.8797 16.8299 28.9139L21.5836 31.6588C21.6423 31.693 21.6625 31.7683 21.6283 31.8271C21.6055 31.8665 21.5643 31.8884 21.5214 31.8884Z" fill="white"/>
<path d="M21.5214 33.2608C21.5003 33.2608 21.4793 33.2556 21.46 33.2442L16.7064 30.4993C16.6476 30.4651 16.6275 30.3897 16.6617 30.331C16.6959 30.2723 16.7712 30.2521 16.8299 30.2863L21.5836 33.0312C21.6423 33.0654 21.6625 33.1408 21.6283 33.1995C21.6055 33.2389 21.5643 33.2608 21.5214 33.2608Z" fill="white"/>
<path d="M21.5214 34.6333C21.5003 34.6333 21.4793 34.628 21.46 34.6166L16.7064 31.8717C16.6476 31.8375 16.6275 31.7622 16.6617 31.7034C16.6959 31.6447 16.7712 31.6246 16.8299 31.6587L21.5836 34.4037C21.6423 34.4378 21.6625 34.5132 21.6283 34.5719C21.6055 34.6114 21.5643 34.6333 21.5214 34.6333Z" fill="white"/>
<path d="M21.5214 36.0058C21.5003 36.0058 21.4793 36.0006 21.46 35.9892L16.7064 33.2443C16.6476 33.2101 16.6275 33.1347 16.6617 33.076C16.6959 33.0173 16.7712 32.9971 16.8299 33.0313L21.5836 35.7762C21.6423 35.8104 21.6625 35.8858 21.6283 35.9445C21.6055 35.9839 21.5643 36.0058 21.5214 36.0058Z" fill="white"/>
<path d="M21.5214 37.3783C21.5003 37.3783 21.4793 37.373 21.46 37.3616L16.7064 34.6167C16.6476 34.5825 16.6275 34.5072 16.6617 34.4484C16.6959 34.3897 16.7712 34.3696 16.8299 34.4037L21.5836 37.1486C21.6423 37.1828 21.6625 37.2582 21.6283 37.3169C21.6055 37.3564 21.5643 37.3783 21.5214 37.3783Z" fill="white"/>
<path d="M23.7738 30.3529C23.7317 30.3529 23.6905 30.331 23.6678 30.2925C23.6336 30.2338 23.6529 30.1584 23.7116 30.1242L26.9341 28.2294C26.9929 28.1952 27.0682 28.2145 27.1024 28.2732C27.1366 28.3319 27.1173 28.4073 27.0586 28.4415L23.836 30.3363C23.8167 30.3477 23.7948 30.3529 23.7738 30.3529Z" fill="white"/>
<path d="M23.7738 31.7254C23.7317 31.7254 23.6905 31.7035 23.6678 31.6649C23.6336 31.6062 23.6529 31.5308 23.7116 31.4966L26.9341 29.6018C26.9929 29.5677 27.0682 29.5869 27.1024 29.6457C27.1366 29.7044 27.1173 29.7798 27.0586 29.8139L23.836 31.7087C23.8167 31.7201 23.7948 31.7254 23.7738 31.7254Z" fill="white"/>
<path d="M23.7738 33.0978C23.7317 33.0978 23.6905 33.0759 23.6678 33.0373C23.6336 32.9786 23.6529 32.9033 23.7116 32.8691L26.9341 30.9743C26.9929 30.9401 27.0682 30.9594 27.1024 31.0181C27.1366 31.0768 27.1173 31.1522 27.0586 31.1864L23.836 33.0812C23.8167 33.0926 23.7948 33.0978 23.7738 33.0978Z" fill="white"/>
<path d="M23.7738 34.4694C23.7317 34.4694 23.6905 34.4475 23.6678 34.4089C23.6336 34.3502 23.6529 34.2748 23.7116 34.2407L26.9341 32.3459C26.9929 32.3117 27.0682 32.331 27.1024 32.3897C27.1366 32.4484 27.1173 32.5238 27.0586 32.5579L23.836 34.4527C23.8167 34.4641 23.7948 34.4694 23.7738 34.4694Z" fill="white"/>
<path d="M23.7738 35.8418C23.7317 35.8418 23.6905 35.8199 23.6678 35.7814C23.6336 35.7226 23.6529 35.6473 23.7116 35.6131L26.9341 33.7183C26.9929 33.6841 27.0682 33.7034 27.1024 33.7621C27.1366 33.8208 27.1173 33.8962 27.0586 33.9304L23.836 35.8252C23.8167 35.8366 23.7948 35.8418 23.7738 35.8418Z" fill="white"/>
<path d="M23.7738 37.2144C23.7317 37.2144 23.6905 37.1925 23.6678 37.1539C23.6336 37.0952 23.6529 37.0198 23.7116 36.9856L26.9341 35.0909C26.9929 35.0567 27.0682 35.076 27.1024 35.1347C27.1366 35.1934 27.1173 35.2688 27.0586 35.3029L23.836 37.1977C23.8167 37.2091 23.7948 37.2144 23.7738 37.2144Z" fill="white"/>
<path d="M10.4453 34.7166V41.3475C10.4453 41.5517 10.5496 41.7418 10.7223 41.8514L13.7003 43.7374C13.8949 43.861 14.1429 43.861 14.3383 43.7374L17.3164 41.8514C17.489 41.7418 17.5933 41.5525 17.5933 41.3475V34.7166H10.4453Z" fill="url(#paint105_linear_313_2035)"/>
<path d="M13.8606 37.0382L10.5907 34.9681C10.4066 34.8516 10.4066 34.5825 10.5907 34.4659L13.8606 32.3959C13.9578 32.3345 14.0814 32.3345 14.1787 32.3959L17.4486 34.4659C17.6326 34.5825 17.6326 34.8516 17.4486 34.9681L14.1787 37.0382C14.0814 37.0996 13.9578 37.0996 13.8606 37.0382Z" fill="url(#paint106_linear_313_2035)"/>
<path d="M11.2026 33.1162V33.7104C11.2026 33.8717 11.285 34.0215 11.4209 34.1074L13.7679 35.5938C13.9213 35.6911 14.1167 35.6911 14.2701 35.5938L16.6171 34.1074C16.7529 34.0215 16.8353 33.8717 16.8353 33.7104V33.1162H11.2026Z" fill="url(#paint107_linear_313_2035)"/>
<path d="M13.8943 34.9461L11.3176 33.3143C11.1721 33.2222 11.1721 33.0101 11.3176 32.919L13.8943 31.2871C13.9705 31.2389 14.0687 31.2389 14.1449 31.2871L16.7215 32.919C16.867 33.011 16.867 33.2231 16.7215 33.3143L14.1449 34.9461C14.0687 34.9943 13.9705 34.9943 13.8943 34.9461Z" fill="url(#paint108_linear_313_2035)"/>
<path d="M11.2026 31.494V32.0882C11.2026 32.2495 11.285 32.3993 11.4209 32.4852L13.7679 33.9716C13.9213 34.0689 14.1167 34.0689 14.2701 33.9716L16.6171 32.4852C16.7529 32.3993 16.8353 32.2495 16.8353 32.0882V31.494H11.2026Z" fill="url(#paint109_linear_313_2035)"/>
<path d="M13.8943 33.3231L11.3176 31.6912C11.1721 31.5992 11.1721 31.3871 11.3176 31.296L13.8943 29.6641C13.9705 29.6159 14.0687 29.6159 14.1449 29.6641L16.7215 31.296C16.867 31.388 16.867 31.6001 16.7215 31.6912L14.1449 33.3231C14.0687 33.3713 13.9705 33.3713 13.8943 33.3231Z" fill="url(#paint110_linear_313_2035)"/>
</g>
<defs>
<linearGradient id="paint0_linear_313_2035" x1="30.0049" y1="35.763" x2="55.2665" y2="35.763" gradientUnits="userSpaceOnUse">
<stop stop-color="#BED9FD"/>
<stop offset="1" stop-color="white"/>
</linearGradient>
<linearGradient id="paint1_linear_313_2035" x1="29.3696" y1="35.763" x2="55.9038" y2="35.763" gradientUnits="userSpaceOnUse">
<stop stop-color="#3D75DA"/>
<stop offset="1" stop-color="#55CDED"/>
</linearGradient>
<linearGradient id="paint2_linear_313_2035" x1="29.5903" y1="35.5282" x2="56.6468" y2="35.5282" gradientUnits="userSpaceOnUse">
<stop stop-color="#55CDED"/>
<stop offset="1" stop-color="#003CCF"/>
</linearGradient>
<linearGradient id="paint3_linear_313_2035" x1="18.4238" y1="49.8601" x2="54.2558" y2="49.8601" gradientUnits="userSpaceOnUse">
<stop stop-color="#BED9FD"/>
<stop offset="1" stop-color="white"/>
</linearGradient>
<linearGradient id="paint4_linear_313_2035" x1="10.0027" y1="51.7594" x2="56.0904" y2="51.7594" gradientUnits="userSpaceOnUse">
<stop stop-color="#BED9FD"/>
<stop offset="1" stop-color="white"/>
</linearGradient>
<linearGradient id="paint5_linear_313_2035" x1="20.8448" y1="54.9539" x2="25.9735" y2="54.9539" gradientUnits="userSpaceOnUse">
<stop stop-color="#BED9FD"/>
<stop offset="1" stop-color="white"/>
</linearGradient>
<linearGradient id="paint6_linear_313_2035" x1="22.2786" y1="54.5349" x2="34.1925" y2="54.5349" gradientUnits="userSpaceOnUse">
<stop stop-color="#BED9FD"/>
<stop offset="1" stop-color="white"/>
</linearGradient>
<linearGradient id="paint7_linear_313_2035" x1="24.9637" y1="57.3325" x2="30.0924" y2="57.3325" gradientUnits="userSpaceOnUse">
<stop stop-color="#BED9FD"/>
<stop offset="1" stop-color="white"/>
</linearGradient>
<linearGradient id="paint8_linear_313_2035" x1="28.2803" y1="37.4073" x2="45.8768" y2="58.0467" gradientUnits="userSpaceOnUse">
<stop stop-color="#55CDED"/>
<stop offset="1" stop-color="#003CCF"/>
</linearGradient>
<linearGradient id="paint9_linear_313_2035" x1="30.2599" y1="35.7202" x2="47.8555" y2="56.3596" gradientUnits="userSpaceOnUse">
<stop stop-color="#55CDED"/>
<stop offset="1" stop-color="#003CCF"/>
</linearGradient>
<linearGradient id="paint10_linear_313_2035" x1="28.7243" y1="37.0287" x2="46.3209" y2="57.6672" gradientUnits="userSpaceOnUse">
<stop stop-color="#55CDED"/>
<stop offset="1" stop-color="#003CCF"/>
</linearGradient>
<linearGradient id="paint11_linear_313_2035" x1="31.3082" y1="34.8263" x2="48.9039" y2="55.4657" gradientUnits="userSpaceOnUse">
<stop stop-color="#55CDED"/>
<stop offset="1" stop-color="#003CCF"/>
</linearGradient>
<linearGradient id="paint12_linear_313_2035" x1="29.7727" y1="36.1348" x2="47.3693" y2="56.7742" gradientUnits="userSpaceOnUse">
<stop stop-color="#55CDED"/>
<stop offset="1" stop-color="#003CCF"/>
</linearGradient>
<linearGradient id="paint13_linear_313_2035" x1="27.2319" y1="38.3012" x2="44.8284" y2="58.9406" gradientUnits="userSpaceOnUse">
<stop stop-color="#55CDED"/>
<stop offset="1" stop-color="#003CCF"/>
</linearGradient>
<linearGradient id="paint14_linear_313_2035" x1="27.1143" y1="38.4011" x2="44.7109" y2="59.0405" gradientUnits="userSpaceOnUse">
<stop stop-color="#55CDED"/>
<stop offset="1" stop-color="#003CCF"/>
</linearGradient>
<linearGradient id="paint15_linear_313_2035" x1="28.6869" y1="37.0603" x2="46.2835" y2="57.6997" gradientUnits="userSpaceOnUse">
<stop stop-color="#55CDED"/>
<stop offset="1" stop-color="#003CCF"/>
</linearGradient>
<linearGradient id="paint16_linear_313_2035" x1="30.9003" y1="35.1733" x2="48.4968" y2="55.8128" gradientUnits="userSpaceOnUse">
<stop stop-color="#55CDED"/>
<stop offset="1" stop-color="#003CCF"/>
</linearGradient>
<linearGradient id="paint17_linear_313_2035" x1="29.7358" y1="36.1663" x2="47.3314" y2="56.8057" gradientUnits="userSpaceOnUse">
<stop stop-color="#55CDED"/>
<stop offset="1" stop-color="#003CCF"/>
</linearGradient>
<linearGradient id="paint18_linear_313_2035" x1="31.4244" y1="34.7264" x2="49.0209" y2="55.3658" gradientUnits="userSpaceOnUse">
<stop stop-color="#55CDED"/>
<stop offset="1" stop-color="#003CCF"/>
</linearGradient>
<linearGradient id="paint19_linear_313_2035" x1="32.4728" y1="33.8323" x2="50.0693" y2="54.4718" gradientUnits="userSpaceOnUse">
<stop stop-color="#55CDED"/>
<stop offset="1" stop-color="#003CCF"/>
</linearGradient>
<linearGradient id="paint20_linear_313_2035" x1="31.8319" y1="34.3794" x2="49.4276" y2="55.0188" gradientUnits="userSpaceOnUse">
<stop stop-color="#55CDED"/>
<stop offset="1" stop-color="#003CCF"/>
</linearGradient>
<linearGradient id="paint21_linear_313_2035" x1="26.5901" y1="38.8481" x2="44.1867" y2="59.4875" gradientUnits="userSpaceOnUse">
<stop stop-color="#55CDED"/>
<stop offset="1" stop-color="#003CCF"/>
</linearGradient>
<linearGradient id="paint22_linear_313_2035" x1="24.5315" y1="40.6027" x2="42.1281" y2="61.2422" gradientUnits="userSpaceOnUse">
<stop stop-color="#55CDED"/>
<stop offset="1" stop-color="#003CCF"/>
</linearGradient>
<linearGradient id="paint23_linear_313_2035" x1="25.5799" y1="39.7096" x2="43.1765" y2="60.349" gradientUnits="userSpaceOnUse">
<stop stop-color="#55CDED"/>
<stop offset="1" stop-color="#003CCF"/>
</linearGradient>
<linearGradient id="paint24_linear_313_2035" x1="23.5213" y1="41.4642" x2="41.1179" y2="62.1036" gradientUnits="userSpaceOnUse">
<stop stop-color="#55CDED"/>
<stop offset="1" stop-color="#003CCF"/>
</linearGradient>
<linearGradient id="paint25_linear_313_2035" x1="24.0454" y1="41.0172" x2="41.6419" y2="61.6566" gradientUnits="userSpaceOnUse">
<stop stop-color="#55CDED"/>
<stop offset="1" stop-color="#003CCF"/>
</linearGradient>
<linearGradient id="paint26_linear_313_2035" x1="21.9873" y1="42.7726" x2="39.583" y2="63.412" gradientUnits="userSpaceOnUse">
<stop stop-color="#55CDED"/>
<stop offset="1" stop-color="#003CCF"/>
</linearGradient>
<linearGradient id="paint27_linear_313_2035" x1="22.5115" y1="42.3257" x2="40.1072" y2="62.9651" gradientUnits="userSpaceOnUse">
<stop stop-color="#55CDED"/>
<stop offset="1" stop-color="#003CCF"/>
</linearGradient>
<linearGradient id="paint28_linear_313_2035" x1="20.977" y1="43.6342" x2="38.5736" y2="64.2736" gradientUnits="userSpaceOnUse">
<stop stop-color="#55CDED"/>
<stop offset="1" stop-color="#003CCF"/>
</linearGradient>
<linearGradient id="paint29_linear_313_2035" x1="25.6184" y1="39.6772" x2="43.214" y2="60.3167" gradientUnits="userSpaceOnUse">
<stop stop-color="#55CDED"/>
<stop offset="1" stop-color="#003CCF"/>
</linearGradient>
<linearGradient id="paint30_linear_313_2035" x1="24.0836" y1="40.9848" x2="41.6801" y2="61.6243" gradientUnits="userSpaceOnUse">
<stop stop-color="#55CDED"/>
<stop offset="1" stop-color="#003CCF"/>
</linearGradient>
<linearGradient id="paint31_linear_313_2035" x1="26.6667" y1="38.7832" x2="44.2624" y2="59.4227" gradientUnits="userSpaceOnUse">
<stop stop-color="#55CDED"/>
<stop offset="1" stop-color="#003CCF"/>
</linearGradient>
<linearGradient id="paint32_linear_313_2035" x1="27.1904" y1="38.3363" x2="44.7869" y2="58.9757" gradientUnits="userSpaceOnUse">
<stop stop-color="#55CDED"/>
<stop offset="1" stop-color="#003CCF"/>
</linearGradient>
<linearGradient id="paint33_linear_313_2035" x1="25.1322" y1="40.0917" x2="42.7287" y2="60.7312" gradientUnits="userSpaceOnUse">
<stop stop-color="#55CDED"/>
<stop offset="1" stop-color="#003CCF"/>
</linearGradient>
<linearGradient id="paint34_linear_313_2035" x1="24.1213" y1="40.9533" x2="41.7178" y2="61.5927" gradientUnits="userSpaceOnUse">
<stop stop-color="#55CDED"/>
<stop offset="1" stop-color="#003CCF"/>
</linearGradient>
<linearGradient id="paint35_linear_313_2035" x1="25.1696" y1="40.0593" x2="42.7661" y2="60.6988" gradientUnits="userSpaceOnUse">
<stop stop-color="#55CDED"/>
<stop offset="1" stop-color="#003CCF"/>
</linearGradient>
<linearGradient id="paint36_linear_313_2035" x1="26.0664" y1="39.2942" x2="43.663" y2="59.9337" gradientUnits="userSpaceOnUse">
<stop stop-color="#55CDED"/>
<stop offset="1" stop-color="#003CCF"/>
</linearGradient>
<linearGradient id="paint37_linear_313_2035" x1="27.7561" y1="37.8543" x2="45.3526" y2="58.4937" gradientUnits="userSpaceOnUse">
<stop stop-color="#55CDED"/>
<stop offset="1" stop-color="#003CCF"/>
</linearGradient>
<linearGradient id="paint38_linear_313_2035" x1="28.804" y1="36.9604" x2="46.4005" y2="57.5998" gradientUnits="userSpaceOnUse">
<stop stop-color="#55CDED"/>
<stop offset="1" stop-color="#003CCF"/>
</linearGradient>
<linearGradient id="paint39_linear_313_2035" x1="25.0557" y1="40.1565" x2="42.6523" y2="60.7951" gradientUnits="userSpaceOnUse">
<stop stop-color="#55CDED"/>
<stop offset="1" stop-color="#003CCF"/>
</linearGradient>
<linearGradient id="paint40_linear_313_2035" x1="22.997" y1="41.9111" x2="40.5936" y2="62.5505" gradientUnits="userSpaceOnUse">
<stop stop-color="#55CDED"/>
<stop offset="1" stop-color="#003CCF"/>
</linearGradient>
<linearGradient id="paint41_linear_313_2035" x1="27.6385" y1="37.9542" x2="45.2351" y2="58.5936" gradientUnits="userSpaceOnUse">
<stop stop-color="#55CDED"/>
<stop offset="1" stop-color="#003CCF"/>
</linearGradient>
<linearGradient id="paint42_linear_313_2035" x1="29.3281" y1="36.5133" x2="46.9247" y2="57.1528" gradientUnits="userSpaceOnUse">
<stop stop-color="#55CDED"/>
<stop offset="1" stop-color="#003CCF"/>
</linearGradient>
<linearGradient id="paint43_linear_313_2035" x1="21.4622" y1="43.2197" x2="39.0588" y2="63.8591" gradientUnits="userSpaceOnUse">
<stop stop-color="#55CDED"/>
<stop offset="1" stop-color="#003CCF"/>
</linearGradient>
<linearGradient id="paint44_linear_313_2035" x1="28.1627" y1="37.5072" x2="45.7593" y2="58.1466" gradientUnits="userSpaceOnUse">
<stop stop-color="#55CDED"/>
<stop offset="1" stop-color="#003CCF"/>
</linearGradient>
<linearGradient id="paint45_linear_313_2035" x1="29.8523" y1="36.0673" x2="47.4489" y2="56.7058" gradientUnits="userSpaceOnUse">
<stop stop-color="#55CDED"/>
<stop offset="1" stop-color="#003CCF"/>
</linearGradient>
<linearGradient id="paint46_linear_313_2035" x1="26.1041" y1="39.2627" x2="43.7007" y2="59.9021" gradientUnits="userSpaceOnUse">
<stop stop-color="#55CDED"/>
<stop offset="1" stop-color="#003CCF"/>
</linearGradient>
<linearGradient id="paint47_linear_313_2035" x1="19.9287" y1="44.5272" x2="37.5244" y2="65.1666" gradientUnits="userSpaceOnUse">
<stop stop-color="#55CDED"/>
<stop offset="1" stop-color="#003CCF"/>
</linearGradient>
<linearGradient id="paint48_linear_313_2035" x1="30.3765" y1="35.6203" x2="47.9731" y2="56.2597" gradientUnits="userSpaceOnUse">
<stop stop-color="#55CDED"/>
<stop offset="1" stop-color="#003CCF"/>
</linearGradient>
<linearGradient id="paint49_linear_313_2035" x1="26.6278" y1="38.8157" x2="44.2244" y2="59.4551" gradientUnits="userSpaceOnUse">
<stop stop-color="#55CDED"/>
<stop offset="1" stop-color="#003CCF"/>
</linearGradient>
<linearGradient id="paint50_linear_313_2035" x1="24.5704" y1="40.5703" x2="42.166" y2="61.2097" gradientUnits="userSpaceOnUse">
<stop stop-color="#55CDED"/>
<stop offset="1" stop-color="#003CCF"/>
</linearGradient>
<linearGradient id="paint51_linear_313_2035" x1="20.4529" y1="44.0811" x2="38.0486" y2="64.7205" gradientUnits="userSpaceOnUse">
<stop stop-color="#55CDED"/>
<stop offset="1" stop-color="#003CCF"/>
</linearGradient>
<linearGradient id="paint52_linear_313_2035" x1="29.2106" y1="36.6132" x2="46.8072" y2="57.2526" gradientUnits="userSpaceOnUse">
<stop stop-color="#55CDED"/>
<stop offset="1" stop-color="#003CCF"/>
</linearGradient>
<linearGradient id="paint53_linear_313_2035" x1="27.152" y1="38.3688" x2="44.7485" y2="59.0082" gradientUnits="userSpaceOnUse">
<stop stop-color="#55CDED"/>
<stop offset="1" stop-color="#003CCF"/>
</linearGradient>
<linearGradient id="paint54_linear_313_2035" x1="25.0941" y1="40.1242" x2="42.6897" y2="60.7636" gradientUnits="userSpaceOnUse">
<stop stop-color="#55CDED"/>
<stop offset="1" stop-color="#003CCF"/>
</linearGradient>
<linearGradient id="paint55_linear_313_2035" x1="23.0357" y1="41.8787" x2="40.6313" y2="62.5181" gradientUnits="userSpaceOnUse">
<stop stop-color="#55CDED"/>
<stop offset="1" stop-color="#003CCF"/>
</linearGradient>
<linearGradient id="paint56_linear_313_2035" x1="27.6761" y1="37.9217" x2="45.2726" y2="58.5611" gradientUnits="userSpaceOnUse">
<stop stop-color="#55CDED"/>
<stop offset="1" stop-color="#003CCF"/>
</linearGradient>
<linearGradient id="paint57_linear_313_2035" x1="23.5599" y1="41.4318" x2="41.1555" y2="62.0712" gradientUnits="userSpaceOnUse">
<stop stop-color="#55CDED"/>
<stop offset="1" stop-color="#003CCF"/>
</linearGradient>
<linearGradient id="paint58_linear_313_2035" x1="21.5012" y1="43.1872" x2="39.0978" y2="63.8267" gradientUnits="userSpaceOnUse">
<stop stop-color="#55CDED"/>
<stop offset="1" stop-color="#003CCF"/>
</linearGradient>
<linearGradient id="paint59_linear_313_2035" x1="31.9487" y1="34.2793" x2="49.5452" y2="54.9188" gradientUnits="userSpaceOnUse">
<stop stop-color="#55CDED"/>
<stop offset="1" stop-color="#003CCF"/>
</linearGradient>
<linearGradient id="paint60_linear_313_2035" x1="28.2001" y1="37.4748" x2="45.7967" y2="58.1142" gradientUnits="userSpaceOnUse">
<stop stop-color="#55CDED"/>
<stop offset="1" stop-color="#003CCF"/>
</linearGradient>
<linearGradient id="paint61_linear_313_2035" x1="26.1425" y1="39.2302" x2="43.7381" y2="59.8696" gradientUnits="userSpaceOnUse">
<stop stop-color="#55CDED"/>
<stop offset="1" stop-color="#003CCF"/>
</linearGradient>
<linearGradient id="paint62_linear_313_2035" x1="22.025" y1="42.7403" x2="39.6216" y2="63.3797" gradientUnits="userSpaceOnUse">
<stop stop-color="#55CDED"/>
<stop offset="1" stop-color="#003CCF"/>
</linearGradient>
<linearGradient id="paint63_linear_313_2035" x1="30.7841" y1="35.2732" x2="48.3798" y2="55.9127" gradientUnits="userSpaceOnUse">
<stop stop-color="#55CDED"/>
<stop offset="1" stop-color="#003CCF"/>
</linearGradient>
<linearGradient id="paint64_linear_313_2035" x1="24.6078" y1="40.5387" x2="42.2043" y2="61.1773" gradientUnits="userSpaceOnUse">
<stop stop-color="#55CDED"/>
<stop offset="1" stop-color="#003CCF"/>
</linearGradient>
<linearGradient id="paint65_linear_313_2035" x1="22.5491" y1="42.2933" x2="40.1456" y2="62.9328" gradientUnits="userSpaceOnUse">
<stop stop-color="#55CDED"/>
<stop offset="1" stop-color="#003CCF"/>
</linearGradient>
<linearGradient id="paint66_linear_313_2035" x1="32.0583" y1="34.1857" x2="49.6548" y2="54.8251" gradientUnits="userSpaceOnUse">
<stop stop-color="#55CDED"/>
<stop offset="1" stop-color="#003CCF"/>
</linearGradient>
<linearGradient id="paint67_linear_313_2035" x1="32.997" y1="33.3854" x2="50.5935" y2="54.0249" gradientUnits="userSpaceOnUse">
<stop stop-color="#55CDED"/>
<stop offset="1" stop-color="#003CCF"/>
</linearGradient>
<linearGradient id="paint68_linear_313_2035" x1="29.2484" y1="36.5817" x2="46.8449" y2="57.2212" gradientUnits="userSpaceOnUse">
<stop stop-color="#55CDED"/>
<stop offset="1" stop-color="#003CCF"/>
</linearGradient>
<linearGradient id="paint69_linear_313_2035" x1="23.0732" y1="41.8463" x2="40.6697" y2="62.4857" gradientUnits="userSpaceOnUse">
<stop stop-color="#55CDED"/>
<stop offset="1" stop-color="#003CCF"/>
</linearGradient>
<linearGradient id="paint70_linear_313_2035" x1="33.5212" y1="32.9385" x2="51.1177" y2="53.5779" gradientUnits="userSpaceOnUse">
<stop stop-color="#55CDED"/>
<stop offset="1" stop-color="#003CCF"/>
</linearGradient>
<linearGradient id="paint71_linear_313_2035" x1="27.7139" y1="37.8884" x2="45.3096" y2="58.5279" gradientUnits="userSpaceOnUse">
<stop stop-color="#55CDED"/>
<stop offset="1" stop-color="#003CCF"/>
</linearGradient>
<linearGradient id="paint72_linear_313_2035" x1="25.6559" y1="39.6448" x2="43.2524" y2="60.2842" gradientUnits="userSpaceOnUse">
<stop stop-color="#55CDED"/>
<stop offset="1" stop-color="#003CCF"/>
</linearGradient>
<linearGradient id="paint73_linear_313_2035" x1="23.5975" y1="41.3993" x2="41.194" y2="62.0388" gradientUnits="userSpaceOnUse">
<stop stop-color="#55CDED"/>
<stop offset="1" stop-color="#003CCF"/>
</linearGradient>
<linearGradient id="paint74_linear_313_2035" x1="32.3561" y1="33.9323" x2="49.9518" y2="54.5717" gradientUnits="userSpaceOnUse">
<stop stop-color="#55CDED"/>
<stop offset="1" stop-color="#003CCF"/>
</linearGradient>
<linearGradient id="paint75_linear_313_2035" x1="34.0449" y1="32.4924" x2="51.6414" y2="53.1318" gradientUnits="userSpaceOnUse">
<stop stop-color="#55CDED"/>
<stop offset="1" stop-color="#003CCF"/>
</linearGradient>
<linearGradient id="paint76_linear_313_2035" x1="30.2973" y1="35.6877" x2="47.893" y2="56.3271" gradientUnits="userSpaceOnUse">
<stop stop-color="#55CDED"/>
<stop offset="1" stop-color="#003CCF"/>
</linearGradient>
<linearGradient id="paint77_linear_313_2035" x1="28.2387" y1="37.4424" x2="45.8352" y2="58.0818" gradientUnits="userSpaceOnUse">
<stop stop-color="#55CDED"/>
<stop offset="1" stop-color="#003CCF"/>
</linearGradient>
<linearGradient id="paint78_linear_313_2035" x1="26.1804" y1="39.1978" x2="43.7769" y2="59.8372" gradientUnits="userSpaceOnUse">
<stop stop-color="#55CDED"/>
<stop offset="1" stop-color="#003CCF"/>
</linearGradient>
<linearGradient id="paint79_linear_313_2035" x1="32.8803" y1="33.4853" x2="50.4769" y2="54.1248" gradientUnits="userSpaceOnUse">
<stop stop-color="#55CDED"/>
<stop offset="1" stop-color="#003CCF"/>
</linearGradient>
<linearGradient id="paint80_linear_313_2035" x1="30.8215" y1="35.2408" x2="48.4172" y2="55.8802" gradientUnits="userSpaceOnUse">
<stop stop-color="#55CDED"/>
<stop offset="1" stop-color="#003CCF"/>
</linearGradient>
<linearGradient id="paint81_linear_313_2035" x1="28.7629" y1="36.9953" x2="46.3594" y2="57.6348" gradientUnits="userSpaceOnUse">
<stop stop-color="#55CDED"/>
<stop offset="1" stop-color="#003CCF"/>
</linearGradient>
<linearGradient id="paint82_linear_313_2035" x1="26.7043" y1="38.7508" x2="44.3008" y2="59.3902" gradientUnits="userSpaceOnUse">
<stop stop-color="#55CDED"/>
<stop offset="1" stop-color="#003CCF"/>
</linearGradient>
<linearGradient id="paint83_linear_313_2035" x1="24.6455" y1="40.5063" x2="42.242" y2="61.1457" gradientUnits="userSpaceOnUse">
<stop stop-color="#55CDED"/>
<stop offset="1" stop-color="#003CCF"/>
</linearGradient>
<linearGradient id="paint84_linear_313_2035" x1="31.3457" y1="34.7938" x2="48.9414" y2="55.4332" gradientUnits="userSpaceOnUse">
<stop stop-color="#55CDED"/>
<stop offset="1" stop-color="#003CCF"/>
</linearGradient>
<linearGradient id="paint85_linear_313_2035" x1="29.2871" y1="36.5492" x2="46.8836" y2="57.1878" gradientUnits="userSpaceOnUse">
<stop stop-color="#55CDED"/>
<stop offset="1" stop-color="#003CCF"/>
</linearGradient>
<linearGradient id="paint86_linear_313_2035" x1="27.2285" y1="38.3038" x2="44.825" y2="58.9433" gradientUnits="userSpaceOnUse">
<stop stop-color="#55CDED"/>
<stop offset="1" stop-color="#003CCF"/>
</linearGradient>
<linearGradient id="paint87_linear_313_2035" x1="29.8109" y1="36.1023" x2="47.4074" y2="56.7417" gradientUnits="userSpaceOnUse">
<stop stop-color="#55CDED"/>
<stop offset="1" stop-color="#003CCF"/>
</linearGradient>
<linearGradient id="paint88_linear_313_2035" x1="27.7527" y1="37.8569" x2="45.3492" y2="58.4963" gradientUnits="userSpaceOnUse">
<stop stop-color="#55CDED"/>
<stop offset="1" stop-color="#003CCF"/>
</linearGradient>
<linearGradient id="paint89_linear_313_2035" x1="25.6937" y1="39.6123" x2="43.2903" y2="60.2517" gradientUnits="userSpaceOnUse">
<stop stop-color="#55CDED"/>
<stop offset="1" stop-color="#003CCF"/>
</linearGradient>
<linearGradient id="paint90_linear_313_2035" x1="28.2764" y1="37.4108" x2="45.8729" y2="58.0494" gradientUnits="userSpaceOnUse">
<stop stop-color="#55CDED"/>
<stop offset="1" stop-color="#003CCF"/>
</linearGradient>
<linearGradient id="paint91_linear_313_2035" x1="26.218" y1="39.1653" x2="43.8146" y2="59.8048" gradientUnits="userSpaceOnUse">
<stop stop-color="#55CDED"/>
<stop offset="1" stop-color="#003CCF"/>
</linearGradient>
<linearGradient id="paint92_linear_313_2035" x1="26.7421" y1="38.7184" x2="44.3387" y2="59.3578" gradientUnits="userSpaceOnUse">
<stop stop-color="#55CDED"/>
<stop offset="1" stop-color="#003CCF"/>
</linearGradient>
<linearGradient id="paint93_linear_313_2035" x1="10" y1="57.6365" x2="56.0903" y2="57.6365" gradientUnits="userSpaceOnUse">
<stop stop-color="#55CDED"/>
<stop offset="1" stop-color="#003CCF"/>
</linearGradient>
<linearGradient id="paint94_linear_313_2035" x1="12.2804" y1="26.2216" x2="15.3723" y2="26.0446" gradientUnits="userSpaceOnUse">
<stop stop-color="#BED9FD"/>
<stop offset="1" stop-color="white"/>
</linearGradient>
<linearGradient id="paint95_linear_313_2035" x1="16.5189" y1="32.218" x2="16.5189" y2="17.7616" gradientUnits="userSpaceOnUse">
<stop stop-color="#BED9FD"/>
<stop offset="1" stop-color="white"/>
</linearGradient>
<linearGradient id="paint96_linear_313_2035" x1="11.9404" y1="18.9255" x2="18.0437" y2="18.9255" gradientUnits="userSpaceOnUse">
<stop stop-color="#55CDED"/>
<stop offset="1" stop-color="#3D75DA"/>
</linearGradient>
<linearGradient id="paint97_linear_313_2035" x1="40.1811" y1="35.7148" x2="45.6411" y2="35.7148" gradientUnits="userSpaceOnUse">
<stop stop-color="#55CDED"/>
<stop offset="1" stop-color="#3D75DA"/>
</linearGradient>
<linearGradient id="paint98_linear_313_2035" x1="41.6919" y1="33.1066" x2="45.6489" y2="33.1066" gradientUnits="userSpaceOnUse">
<stop stop-color="#55CDED"/>
<stop offset="1" stop-color="#3D75DA"/>
</linearGradient>
<linearGradient id="paint99_linear_313_2035" x1="36.1461" y1="29.3389" x2="41.9488" y2="29.3389" gradientUnits="userSpaceOnUse">
<stop stop-color="#55CDED"/>
<stop offset="1" stop-color="#3D75DA"/>
</linearGradient>
<linearGradient id="paint100_linear_313_2035" x1="40.1714" y1="38.8523" x2="45.6314" y2="38.8523" gradientUnits="userSpaceOnUse">
<stop stop-color="#55CDED"/>
<stop offset="1" stop-color="#3D75DA"/>
</linearGradient>
<linearGradient id="paint101_linear_313_2035" x1="37.8452" y1="37.1477" x2="48.1413" y2="37.1477" gradientUnits="userSpaceOnUse">
<stop stop-color="#55CDED"/>
<stop offset="1" stop-color="#3D75DA"/>
</linearGradient>
<linearGradient id="paint102_linear_313_2035" x1="15.6284" y1="32.7254" x2="27.9078" y2="32.7254" gradientUnits="userSpaceOnUse">
<stop stop-color="#55CDED"/>
<stop offset="1" stop-color="#3D75DA"/>
</linearGradient>
<linearGradient id="paint103_linear_313_2035" x1="25.3875" y1="29.3678" x2="25.0816" y2="41.9004" gradientUnits="userSpaceOnUse">
<stop stop-color="#BED9FD"/>
<stop offset="1" stop-color="white"/>
</linearGradient>
<linearGradient id="paint104_linear_313_2035" x1="23.0088" y1="22.1813" x2="20.8081" y2="27.7448" gradientUnits="userSpaceOnUse">
<stop stop-color="#BED9FD"/>
<stop offset="1" stop-color="white"/>
</linearGradient>
<linearGradient id="paint105_linear_313_2035" x1="13.3865" y1="39.2555" x2="15.546" y2="39.2204" gradientUnits="userSpaceOnUse">
<stop stop-color="#BED9FD"/>
<stop offset="1" stop-color="white"/>
</linearGradient>
<linearGradient id="paint106_linear_313_2035" x1="14.0192" y1="36.8156" x2="14.0192" y2="32.3424" gradientUnits="userSpaceOnUse">
<stop stop-color="#55CDED"/>
<stop offset="1" stop-color="#003CCF"/>
</linearGradient>
<linearGradient id="paint107_linear_313_2035" x1="13.5277" y1="34.3774" x2="15.2078" y2="34.3511" gradientUnits="userSpaceOnUse">
<stop stop-color="#BED9FD"/>
<stop offset="1" stop-color="white"/>
</linearGradient>
<linearGradient id="paint108_linear_313_2035" x1="14.0196" y1="34.77" x2="14.0196" y2="31.2451" gradientUnits="userSpaceOnUse">
<stop stop-color="#55CDED"/>
<stop offset="1" stop-color="#003CCF"/>
</linearGradient>
<linearGradient id="paint109_linear_313_2035" x1="13.5277" y1="32.7543" x2="15.2078" y2="32.728" gradientUnits="userSpaceOnUse">
<stop stop-color="#BED9FD"/>
<stop offset="1" stop-color="white"/>
</linearGradient>
<linearGradient id="paint110_linear_313_2035" x1="14.0196" y1="33.1469" x2="14.0196" y2="29.622" gradientUnits="userSpaceOnUse">
<stop stop-color="#55CDED"/>
<stop offset="1" stop-color="#003CCF"/>
</linearGradient>
<clipPath id="clip0_313_2035">
<rect width="46.6469" height="50" fill="white" transform="translate(10 16)"/>
</clipPath>
</defs>
</svg>
