<svg width="67" height="81" viewBox="0 0 67 81" fill="none" xmlns="http://www.w3.org/2000/svg">
<g clip-path="url(#clip0_313_1874)">
<path d="M51.1576 20.4551L53.9714 22.0904C53.0267 21.5413 51.7187 21.6193 50.2752 22.4525C49.5451 22.8733 48.8509 23.45 48.2215 24.1262L45.4077 22.4909C46.0371 21.8147 46.7313 21.238 47.4614 20.8172C48.9049 19.984 50.2129 19.9061 51.1576 20.4551Z" fill="url(#paint0_linear_313_1874)"/>
<path d="M43.7297 20.4587L46.5435 22.094C45.2019 21.3147 43.3448 21.4238 41.2947 22.6083C40.826 22.8793 40.368 23.1958 39.9232 23.5483L37.1094 21.913C37.553 21.5605 38.0109 21.244 38.4809 20.973C40.531 19.7897 42.3893 19.6794 43.7297 20.4587Z" fill="url(#paint1_linear_313_1874)"/>
<path d="M11.5894 54.6693L8.7756 53.034C7.6834 52.3997 7.00603 51.0498 7.00003 49.1315C6.98924 45.2687 9.70474 40.5654 13.0653 38.6256L15.8791 40.2609C12.5186 42.2007 9.80305 46.904 9.81384 50.7668C9.81984 52.6851 10.4972 54.035 11.5894 54.6693Z" fill="url(#paint2_linear_313_1874)"/>
<path d="M33.8243 16.8201C31.6148 15.5361 28.5552 15.7171 25.1779 17.6665C18.4737 21.5377 13.0547 30.9167 13.0654 38.6256L15.8793 40.2609C15.8685 32.552 21.2875 23.1742 27.9917 19.303C31.369 17.3536 34.4286 17.1726 36.6382 18.4566L33.8243 16.8213V16.8201Z" fill="url(#paint3_linear_313_1874)"/>
<path d="M27.9917 19.3018C33.8531 15.9173 38.759 17.8619 39.9219 23.5471C40.3655 23.1946 40.8235 22.8781 41.2934 22.6072C44.4597 20.7788 47.1656 21.5126 48.2219 24.125C48.8513 23.4488 49.5454 22.8721 50.2756 22.4513C53.1445 20.7956 55.4776 22.1252 55.486 25.4222C55.4956 28.7179 53.1769 32.733 50.3091 34.3899L15.9188 54.246C12.5583 56.1859 9.82479 54.6285 9.814 50.7668C9.80321 46.904 12.5187 42.2007 15.8792 40.2609C15.8684 32.552 21.2874 23.1742 27.9917 19.303V19.3018Z" fill="url(#paint4_linear_313_1874)"/>
<path d="M21.1028 37.9206L20.7144 54.6764L42.5079 42.1887L42.8963 25.4329L21.1028 37.9206Z" fill="url(#paint5_linear_313_1874)"/>
<path d="M42.9708 24.7711C43.2418 24.6165 43.4552 24.7412 43.448 25.0493L43.0559 41.9429C43.0487 42.2522 42.8245 42.6263 42.5536 42.7822L20.639 55.3382C20.3692 55.4929 20.1546 55.3694 20.1618 55.0601L20.5538 38.1664C20.561 37.8583 20.7864 37.4818 21.0562 37.3272L42.9708 24.7711ZM20.7145 54.6764L42.508 42.1887L42.8965 25.4341L21.1029 37.9206L20.7145 54.6764Z" fill="url(#paint6_linear_313_1874)"/>
<path d="M19.9302 37.796C19.9302 37.7888 19.9302 37.7816 19.9302 37.7744C19.9302 37.7672 19.9302 37.7588 19.9314 37.7504C19.9314 37.7468 19.9314 37.7432 19.9314 37.7396V37.7348C19.9314 37.7348 19.9314 37.73 19.9326 37.7264C19.9326 37.718 19.935 37.7108 19.9362 37.7025C19.9374 37.6941 19.9386 37.6857 19.9398 37.6785V37.6761C19.941 37.6689 19.9434 37.6605 19.9446 37.6533C19.9458 37.6449 19.9482 37.6365 19.9506 37.6281C19.9506 37.6245 19.9518 37.6221 19.953 37.6185V37.6125C19.953 37.6125 19.9566 37.6053 19.9566 37.6017C19.959 37.5934 19.9614 37.585 19.9638 37.5754C19.9662 37.5694 19.9674 37.5622 19.9698 37.5562V37.5526L19.9722 37.549C19.9746 37.5406 19.9782 37.5322 19.9806 37.5238C19.983 37.5154 19.9866 37.507 19.9902 37.4986L19.9926 37.4938V37.4902C19.9926 37.4902 19.9985 37.4795 19.9997 37.4747C20.0033 37.4663 20.0057 37.4591 20.0093 37.4507C20.0117 37.4447 20.0141 37.4387 20.0165 37.4339V37.4315L20.0189 37.4279C20.0225 37.4195 20.0261 37.4123 20.0297 37.4039C20.0345 37.3955 20.0381 37.3871 20.0429 37.3788L20.0453 37.3752L20.0477 37.3704C20.0513 37.3632 20.0549 37.3572 20.0585 37.35C20.0633 37.3416 20.0681 37.3332 20.0729 37.3248C20.0753 37.32 20.0777 37.3164 20.0801 37.3116L20.0825 37.3068C20.0873 37.2996 20.0921 37.2924 20.0957 37.2864C20.1029 37.2756 20.1088 37.2649 20.116 37.2553C20.116 37.2541 20.1184 37.2517 20.1196 37.2505C20.1292 37.2361 20.14 37.2217 20.1496 37.2085H20.1508C20.158 37.1965 20.1652 37.1881 20.1736 37.1785C20.1796 37.1713 20.1856 37.1641 20.1916 37.157C20.1976 37.1486 20.2048 37.1414 20.2108 37.1342C20.2167 37.127 20.2239 37.1198 20.2299 37.1126L20.2335 37.109L20.2371 37.1054C20.2371 37.1054 20.2467 37.0958 20.2515 37.091C20.2587 37.0838 20.2659 37.0778 20.2719 37.0706C20.2743 37.0682 20.2767 37.067 20.2779 37.0646L20.2827 37.0598C20.2827 37.0598 20.2899 37.0539 20.2935 37.0503C20.3007 37.0443 20.3079 37.0371 20.3151 37.0311C20.3187 37.0287 20.3211 37.0263 20.3246 37.0239L20.3294 37.0203C20.3294 37.0203 20.3342 37.0167 20.3366 37.0143C20.3438 37.0083 20.351 37.0035 20.3582 36.9975C20.363 36.9939 20.369 36.9903 20.3738 36.9867L20.3762 36.9843L20.3786 36.9819C20.3858 36.9771 20.393 36.9723 20.399 36.9687C20.4062 36.9639 20.4122 36.9603 20.4194 36.9567L20.4242 36.9543L42.3388 24.3983C42.3388 24.3983 42.3496 24.3923 42.3544 24.3899C42.3616 24.3863 42.3676 24.3827 42.3748 24.3791C42.3796 24.3767 42.3832 24.3755 42.388 24.3731H42.3916L42.3951 24.3695C42.4011 24.3671 42.4083 24.3635 42.4143 24.3611C42.4215 24.3587 42.4275 24.3563 42.4335 24.3539H42.4371L42.4395 24.3515C42.4395 24.3515 42.4479 24.3491 42.4527 24.3467C42.4599 24.3443 42.4659 24.3431 42.4731 24.3407C42.4767 24.3407 42.4791 24.3395 42.4827 24.3383H42.4875C42.4875 24.3383 42.4911 24.3359 42.4935 24.3359C42.5006 24.3348 42.5078 24.3336 42.515 24.3324C42.5198 24.3324 42.5234 24.3324 42.5282 24.3312H42.5366C42.5438 24.33 42.5522 24.33 42.5594 24.33C42.563 24.33 42.5654 24.33 42.569 24.33H42.5762C42.5762 24.33 42.581 24.33 42.5846 24.33C42.5942 24.33 42.6038 24.3324 42.6121 24.3336C42.6121 24.3336 42.6157 24.3348 42.6181 24.3348C42.6277 24.3371 42.6361 24.3395 42.6457 24.3419H42.6481C42.6613 24.3479 42.6733 24.3527 42.6841 24.3599L43.3075 24.7304C43.2955 24.7232 43.2835 24.7184 43.2715 24.7136C43.2619 24.71 43.2524 24.7076 43.2428 24.7052C43.2404 24.7052 43.2392 24.7052 43.2368 24.704C43.2248 24.7016 43.2128 24.7004 43.2008 24.6992C43.1984 24.6992 43.196 24.6992 43.1936 24.6992C43.1816 24.6992 43.1696 24.6992 43.1564 24.6992H43.1516C43.1385 24.7004 43.1253 24.7028 43.1121 24.7064H43.1073C43.0929 24.71 43.0785 24.7148 43.0641 24.7196H43.0617C43.0461 24.7256 43.0306 24.7316 43.015 24.7388H43.0114C42.9958 24.7472 42.979 24.7556 42.9634 24.7652L21.0572 37.3284C21.0404 37.338 21.0248 37.3488 21.008 37.3596L21.0056 37.362C20.99 37.3728 20.9756 37.3835 20.9613 37.3955L20.9565 37.3991C20.9421 37.4111 20.9277 37.4231 20.9145 37.4351L20.9097 37.4399C20.8953 37.4531 20.8821 37.4663 20.8689 37.4807L20.8654 37.4843C20.851 37.4998 20.8366 37.5154 20.8234 37.531C20.809 37.5478 20.7958 37.5646 20.7826 37.5826C20.7706 37.5993 20.7598 37.6149 20.7479 37.6317C20.7407 37.6425 20.7347 37.6521 20.7275 37.6629C20.7215 37.6713 20.7167 37.6797 20.7107 37.6893C20.7083 37.6941 20.7059 37.6977 20.7035 37.7025C20.6951 37.7168 20.6867 37.7324 20.6783 37.7468L20.6759 37.7516C20.6663 37.7696 20.6567 37.7888 20.6484 37.808V37.8104C20.6388 37.8295 20.6304 37.8475 20.6232 37.8667V37.8703C20.6148 37.8895 20.6076 37.9087 20.6004 37.9278V37.9314C20.5932 37.9506 20.5884 37.9686 20.5836 37.9866V37.9926C20.5776 38.0118 20.5728 38.031 20.5692 38.0501C20.5656 38.0705 20.5632 38.0897 20.5608 38.1077V38.1125C20.5584 38.1317 20.5572 38.1496 20.5572 38.1688L20.1652 55.0625C20.1652 55.0805 20.1652 55.0985 20.1652 55.1152V55.12C20.1664 55.1356 20.1688 55.1512 20.1712 55.1656V55.1716C20.1748 55.186 20.1784 55.1992 20.182 55.2123L20.1844 55.2195C20.188 55.2315 20.1928 55.2435 20.1964 55.2543V55.2579C20.2036 55.2699 20.2096 55.2819 20.2156 55.2927C20.2251 55.3083 20.2359 55.3214 20.2479 55.3346C20.2503 55.3382 20.2539 55.3406 20.2563 55.343C20.2683 55.355 20.2815 55.3658 20.2959 55.3742L19.6724 55.0037C19.6581 54.9953 19.6449 54.9846 19.6329 54.9726C19.6305 54.9702 19.6269 54.9666 19.6245 54.9642C19.6125 54.9522 19.6017 54.9378 19.5921 54.9222C19.5861 54.9114 19.5801 54.9006 19.5753 54.8886V54.8838C19.5705 54.8767 19.5681 54.8695 19.5645 54.8611C19.5634 54.8575 19.5622 54.8527 19.561 54.8491C19.561 54.8467 19.5598 54.8443 19.5586 54.8419C19.5586 54.8395 19.5574 54.8371 19.5562 54.8359C19.5538 54.8275 19.5526 54.8191 19.5502 54.8107C19.5502 54.8083 19.5502 54.8047 19.549 54.8011V54.7951C19.549 54.7951 19.5466 54.7891 19.5466 54.7867C19.5466 54.7795 19.5442 54.7712 19.5442 54.764C19.5442 54.7592 19.5442 54.7556 19.5442 54.7508V54.7412C19.5442 54.734 19.543 54.7256 19.543 54.7184C19.543 54.7112 19.543 54.7028 19.543 54.6944L19.8547 54.8779L19.543 54.692L19.935 37.7984L19.9302 37.796Z" fill="url(#paint7_linear_313_1874)"/>
<path d="M43.6204 43.2965C43.7067 43.2474 43.8458 43.2474 43.9297 43.2965L52.1518 48.1844C52.2357 48.2336 52.2333 48.3151 52.1458 48.3654L30.0849 61.0054C29.9974 61.0558 29.8583 61.0558 29.7756 61.0054L21.5535 56.1175C21.4696 56.0672 21.472 55.9868 21.5595 55.9365L43.6204 43.2965ZM33.1996 57.0946C33.2464 57.1222 33.3243 57.1222 33.3722 57.0946L34.5975 56.3933C34.6467 56.3657 34.6479 56.3201 34.6011 56.2914L33.4574 55.6116C33.4106 55.584 33.3327 55.584 33.2835 55.6116L32.0583 56.3129C32.0103 56.3405 32.0091 56.3861 32.0559 56.4136L33.1996 57.0934M31.659 57.977C31.7058 58.0046 31.7837 58.0046 31.8317 57.977L33.0569 57.2757C33.1061 57.2481 33.1073 57.2025 33.0605 57.1737L31.9168 56.494C31.87 56.4664 31.7921 56.4664 31.7429 56.494L30.5177 57.1953C30.4697 57.2229 30.4685 57.2685 30.5153 57.296L31.659 57.9758M30.1184 58.8594C30.1652 58.887 30.2431 58.887 30.2911 58.8594L31.5164 58.158C31.5655 58.1305 31.5667 58.0849 31.5199 58.0561L30.3762 57.3764C30.3294 57.3488 30.2515 57.3488 30.2024 57.3764L28.9771 58.0777C28.9291 58.1053 28.9279 58.1508 28.9747 58.1784L30.1184 58.8582M37.8238 54.4427C37.8705 54.4702 37.9484 54.4702 37.9964 54.4427L39.2217 53.7413C39.2708 53.7137 39.272 53.6682 39.2253 53.6394L38.0815 52.9596C38.0348 52.932 37.9568 52.932 37.9077 52.9596L36.6824 53.661C36.6344 53.6886 36.6332 53.7341 36.68 53.7617L37.8238 54.4415M36.2832 55.325C36.3299 55.3526 36.4079 55.3526 36.4558 55.325L37.6811 54.6237C37.7302 54.5961 37.7314 54.5506 37.6847 54.5218L36.5409 53.842C36.4942 53.8144 36.4162 53.8144 36.3671 53.842L35.1418 54.5434C35.0939 54.5709 35.0927 54.6165 35.1394 54.6441L36.2832 55.3238M31.7154 56.2062C31.7621 56.2338 31.8401 56.2338 31.888 56.2062L33.1133 55.5049C33.1624 55.4773 33.1636 55.4317 33.1169 55.4042L31.9731 54.7244C31.9264 54.6968 31.8484 54.6968 31.8005 54.7244L30.5752 55.4258C30.5273 55.4533 30.5261 55.4989 30.5716 55.5265L31.7154 56.2062ZM28.5779 59.7382C28.6246 59.7658 28.7025 59.767 28.7505 59.7382L29.9746 59.0368C30.0237 59.0093 30.0249 58.9637 29.9782 58.9349L28.8344 58.2552C28.7877 58.2276 28.7097 58.2276 28.6606 58.2552L27.4365 58.9565C27.3874 58.9841 27.3874 59.0296 27.4341 59.0572L28.5779 59.737M40.9061 52.6731C40.9529 52.7007 41.0308 52.7019 41.0788 52.6731L42.304 51.9717C42.3532 51.9442 42.3532 51.8986 42.3064 51.871L41.1627 51.1912C41.1159 51.1637 41.038 51.1625 40.99 51.1912L39.7648 51.8926C39.7156 51.9202 39.7156 51.9657 39.7624 51.9933L40.9061 52.6731ZM42.4467 51.7895C42.4935 51.8171 42.5714 51.8171 42.6193 51.7895L43.8446 51.0881C43.8938 51.0606 43.8938 51.015 43.847 50.9874L42.7033 50.3077C42.6565 50.2801 42.5786 50.2789 42.5306 50.3077L41.3053 51.009C41.2574 51.0366 41.2562 51.0821 41.3029 51.1097L42.4467 51.7895ZM48.6114 48.2575C48.6582 48.2851 48.7361 48.2863 48.7841 48.2575L50.0093 47.5562C50.0585 47.5286 50.0585 47.4831 50.0117 47.4555L48.868 46.7757C48.8212 46.7481 48.7433 46.7469 48.6953 46.7757L47.4701 47.4771C47.4209 47.5046 47.4209 47.5502 47.4677 47.5778L48.6114 48.2575ZM34.7414 56.205C34.7881 56.2326 34.8661 56.2326 34.914 56.205L36.1393 55.5025C36.1873 55.4749 36.1885 55.4293 36.1417 55.4018L34.9979 54.722C34.9512 54.6944 34.8733 54.6932 34.8253 54.722L33.6 55.4246C33.5521 55.4521 33.5509 55.4977 33.5976 55.5253L34.7414 56.205ZM43.9885 50.9071C44.0352 50.9347 44.1132 50.9359 44.1611 50.9071L45.3864 50.2058C45.4355 50.1782 45.4355 50.1326 45.3888 50.105L44.245 49.4253C44.1983 49.3977 44.1204 49.3965 44.0724 49.4253L42.8471 50.1266C42.798 50.1542 42.798 50.1998 42.8447 50.2273L43.9885 50.9071ZM30.1736 57.0886C30.2203 57.1162 30.2983 57.1162 30.3462 57.0886L31.5715 56.3873C31.6207 56.3597 31.6219 56.3141 31.5751 56.2866L30.4314 55.6068C30.3846 55.5792 30.3067 55.5792 30.2587 55.6068L29.0334 56.3081C28.9855 56.3357 28.9843 56.3813 29.0298 56.4088L30.1736 57.0886ZM28.633 57.9722C28.6798 57.9998 28.7577 57.9998 28.8056 57.9722L30.0309 57.2709C30.0801 57.2433 30.0813 57.1977 30.0345 57.1701L28.8908 56.4904C28.844 56.4628 28.7661 56.4628 28.7181 56.4904L27.4929 57.1917C27.4449 57.2193 27.4437 57.2649 27.4893 57.2924L28.633 57.9722ZM34.7977 54.4403C34.8445 54.4678 34.9224 54.4678 34.9704 54.4403L36.1956 53.7389C36.2448 53.7113 36.246 53.6658 36.1992 53.6382L35.0555 52.9584C35.0087 52.9308 34.9308 52.9308 34.8829 52.9584L33.6576 53.6598C33.6096 53.6874 33.6084 53.7329 33.654 53.7605L34.7977 54.4403ZM36.3395 53.5567C36.3863 53.5842 36.4642 53.5842 36.5122 53.5567L37.7374 52.8553C37.7866 52.8277 37.7878 52.7822 37.741 52.7546L36.5973 52.0748C36.5505 52.0473 36.4726 52.0473 36.4246 52.0748L35.1994 52.7762C35.1514 52.8038 35.1502 52.8493 35.1958 52.8769L36.3395 53.5567ZM34.6886 57.9734C34.7354 58.001 34.8133 58.001 34.8613 57.9734L36.0865 57.2721C36.1357 57.2445 36.1369 57.1989 36.0901 57.1713L34.9464 56.4916C34.8996 56.464 34.8217 56.464 34.7738 56.4916L33.5485 57.1929C33.5005 57.2205 33.4981 57.2661 33.5449 57.2936L34.6886 57.9734ZM28.7433 54.4391C28.7901 54.4666 28.868 54.4666 28.9159 54.4391L30.1412 53.7377C30.1904 53.7101 30.1916 53.6646 30.1448 53.637L29.0011 52.9572C28.9543 52.9297 28.8764 52.9297 28.8284 52.9572L27.6032 53.6586C27.5552 53.6862 27.554 53.7317 27.5996 53.7593L28.7433 54.4391ZM30.2287 55.3226C30.2755 55.3502 30.3534 55.3502 30.4014 55.3226L31.6267 54.6213C31.6758 54.5937 31.677 54.5482 31.6302 54.5194L30.4865 53.8396C30.4397 53.812 30.3618 53.812 30.3139 53.8396L29.0886 54.541C29.0406 54.5685 29.0382 54.6141 29.085 54.6417L30.2287 55.3214M47.072 49.1411C47.1188 49.1687 47.1967 49.1699 47.2447 49.1411L48.47 48.4398C48.5191 48.4122 48.5191 48.3666 48.4724 48.3391L47.3286 47.6593C47.2818 47.6317 47.2039 47.6305 47.156 47.6593L45.9307 48.3607C45.8815 48.3882 45.8815 48.4338 45.9283 48.4614L47.072 49.1411ZM39.3667 53.5567C39.4135 53.5842 39.4914 53.5842 39.5394 53.5567L40.7646 52.8553C40.8138 52.8277 40.8138 52.7822 40.767 52.7546L39.6233 52.0748C39.5765 52.0473 39.4986 52.0461 39.4507 52.0748L38.2254 52.7762C38.1774 52.8038 38.1762 52.8493 38.223 52.8769L39.3667 53.5567ZM45.5315 50.0247C45.5782 50.0523 45.6561 50.0535 45.7041 50.0247L46.9294 49.3234C46.9785 49.2958 46.9785 49.2502 46.9318 49.2227L45.788 48.5429C45.7413 48.5153 45.6633 48.5141 45.6154 48.5429L44.3901 49.2442C44.341 49.2718 44.341 49.3174 44.3877 49.3449L45.5315 50.0247ZM25.6609 56.205C25.7077 56.2326 25.7856 56.2326 25.8336 56.205L27.0589 55.5037C27.108 55.4761 27.1092 55.4305 27.0625 55.403L25.9187 54.7232C25.8719 54.6956 25.794 54.6956 25.7461 54.7232L24.5208 55.4246C24.4728 55.4521 24.4716 55.4977 24.5172 55.5253L25.6609 56.205ZM27.2015 55.3214C27.2483 55.349 27.3262 55.349 27.3742 55.3214L28.5994 54.6201C28.6486 54.5925 28.6498 54.547 28.603 54.5194L27.4593 53.8396C27.4125 53.812 27.3346 53.812 27.2866 53.8396L26.0614 54.541C26.0134 54.5685 26.0122 54.6141 26.0578 54.6417L27.2015 55.3214ZM33.1469 58.8558C33.1936 58.8834 33.2715 58.8834 33.3195 58.8558L34.5448 58.1544C34.5939 58.1269 34.5951 58.0813 34.5484 58.0537L33.4046 57.374C33.3579 57.3464 33.2799 57.3464 33.232 57.374L32.0067 58.0753C31.9587 58.1029 31.9563 58.1484 32.0031 58.176L33.1469 58.8558ZM27.1464 57.0874C27.1931 57.115 27.2711 57.115 27.319 57.0874L28.5443 56.3861C28.5934 56.3585 28.5946 56.3129 28.5479 56.2842L27.4041 55.6044C27.3574 55.5768 27.2795 55.5768 27.2315 55.6044L26.0062 56.3057C25.9583 56.3333 25.9559 56.3789 26.0026 56.4065L27.1464 57.0862M31.6051 59.737C31.6518 59.7646 31.7298 59.7646 31.7777 59.737L33.003 59.0356C33.0521 59.0081 33.0533 58.9625 33.0066 58.9349L31.8628 58.2552C31.8161 58.2276 31.7381 58.2276 31.6902 58.2552L30.4649 58.9565C30.417 58.9841 30.4146 59.0296 30.4613 59.0572L31.6051 59.737ZM28.687 56.2026C28.7337 56.2302 28.8116 56.2302 28.8596 56.2026L30.0849 55.5013C30.134 55.4737 30.1352 55.4282 30.0885 55.3994L28.9447 54.7196C28.898 54.692 28.82 54.692 28.7721 54.7196L27.5468 55.421C27.4989 55.4485 27.4965 55.4941 27.5432 55.5217L28.687 56.2014M33.3663 51.7859C33.413 51.8135 33.4909 51.8135 33.5389 51.7859L34.7642 51.0845C34.8133 51.057 34.8145 51.0114 34.7678 50.9838L33.624 50.3041C33.5773 50.2765 33.4993 50.2765 33.4514 50.3041L32.2261 51.0054C32.1781 51.033 32.1769 51.0786 32.2225 51.1061L33.3663 51.7859ZM37.7698 56.2038C37.8166 56.2314 37.8945 56.2314 37.9424 56.2038L39.1677 55.5025C39.2169 55.4749 39.2181 55.4293 39.1713 55.4018L38.0276 54.722C37.9808 54.6944 37.9029 54.6944 37.8549 54.722L36.6296 55.4234C36.5817 55.4509 36.5793 55.4965 36.6261 55.5241L37.7698 56.2038ZM34.8517 52.6695C34.8984 52.6971 34.9764 52.6971 35.0243 52.6695L36.2496 51.9681C36.2988 51.9406 36.3 51.895 36.2532 51.8662L35.1094 51.1865C35.0627 51.1589 34.9848 51.1589 34.9368 51.1865L33.7115 51.8878C33.6636 51.9154 33.6612 51.9609 33.7079 51.9885L34.8517 52.6683M31.8245 52.6683C31.8712 52.6959 31.9492 52.6959 31.9971 52.6683L33.2224 51.9669C33.2715 51.9394 33.2727 51.8938 33.226 51.8662L32.0822 51.1865C32.0355 51.1589 31.9575 51.1589 31.9096 51.1865L30.6843 51.8878C30.6364 51.9154 30.6352 51.9609 30.6807 51.9885L31.8245 52.6683ZM33.3099 53.5519C33.3567 53.5795 33.4346 53.5795 33.4825 53.5519L34.7078 52.8505C34.757 52.8229 34.7582 52.7774 34.7114 52.7486L33.5677 52.0688C33.5209 52.0413 33.443 52.0413 33.395 52.0688L32.1698 52.7702C32.1218 52.7978 32.1194 52.8433 32.1662 52.8709L33.3099 53.5507M39.3104 55.319C39.3571 55.3466 39.4351 55.3466 39.483 55.319L40.7083 54.6177C40.7575 54.5901 40.7586 54.5446 40.7119 54.517L39.5681 53.8372C39.5214 53.8096 39.4435 53.8096 39.3955 53.8372L38.1702 54.5386C38.1223 54.5661 38.1199 54.6117 38.1666 54.6393L39.3104 55.319ZM27.0912 58.8498C27.138 58.8774 27.2147 58.8774 27.2639 58.8498L28.4879 58.1484C28.5371 58.1209 28.5383 58.0753 28.4915 58.0477L27.3478 57.368C27.301 57.3404 27.2231 57.3404 27.1751 57.368L25.9511 58.0693C25.9019 58.0969 25.9019 58.1425 25.9475 58.17L27.0912 58.8498ZM47.126 47.3704C47.1727 47.3979 47.2495 47.3979 47.2986 47.3704L48.5239 46.669C48.5731 46.6414 48.5743 46.5959 48.5275 46.5683L47.3838 45.8885C47.337 45.861 47.2603 45.861 47.2111 45.8885L45.9858 46.5899C45.9367 46.6175 45.9367 46.663 45.9822 46.6906L47.126 47.3704ZM33.256 55.3179C33.3027 55.3454 33.3806 55.3454 33.4286 55.3179L34.6539 54.6153C34.7018 54.5877 34.703 54.5434 34.6563 54.5146L33.5125 53.8348C33.4658 53.8072 33.389 53.8072 33.3411 53.8348L32.1158 54.5374C32.0678 54.5649 32.0666 54.6105 32.1122 54.6381L33.256 55.3179ZM39.4207 51.7859C39.4674 51.8135 39.5442 51.8135 39.5933 51.7859L40.8186 51.0845C40.8677 51.057 40.8689 51.0114 40.8222 50.9838L39.6784 50.3041C39.6317 50.2765 39.555 50.2765 39.5058 50.3041L38.2805 51.0054C38.2314 51.033 38.2314 51.0786 38.2769 51.1061L39.4207 51.7859ZM40.9613 50.9023C41.008 50.9299 41.0859 50.9299 41.1339 50.9023L42.3592 50.201C42.4083 50.1734 42.4095 50.1278 42.3628 50.1003L41.219 49.4205C41.1723 49.3929 41.0955 49.3929 41.0464 49.4205L39.8211 50.1218C39.7732 50.1494 39.772 50.195 39.8175 50.2225L40.9613 50.9023ZM42.5018 50.0187C42.5486 50.0463 42.6253 50.0463 42.6745 50.0187L43.8998 49.3174C43.9489 49.2898 43.9501 49.2442 43.9034 49.2167L42.7596 48.5369C42.7129 48.5093 42.6361 48.5093 42.587 48.5369L41.3617 49.2382C41.3125 49.2658 41.3125 49.3114 41.3581 49.339L42.5018 50.0187ZM44.0424 49.1351C44.0892 49.1627 44.1659 49.1627 44.2151 49.1351L45.4403 48.4338C45.4895 48.4062 45.4907 48.3607 45.4439 48.3331L44.3002 47.6533C44.2534 47.6257 44.1767 47.6257 44.1276 47.6533L42.9023 48.3547C42.8531 48.3822 42.8531 48.4278 42.8987 48.4554L44.0424 49.1351ZM37.8777 52.6671C37.9245 52.6947 38.0024 52.6947 38.0503 52.6671L39.2756 51.9657C39.3248 51.9382 39.326 51.8926 39.2792 51.865L38.1355 51.1853C38.0887 51.1577 38.012 51.1577 37.9628 51.1853L36.7375 51.8866C36.6896 51.9142 36.6884 51.9597 36.734 51.9873L37.8777 52.6671ZM45.583 48.2516C45.6298 48.2791 45.7065 48.2791 45.7557 48.2516L46.9809 47.5502C47.0301 47.5226 47.0313 47.4771 46.9845 47.4495L45.8408 46.7697C45.794 46.7421 45.7173 46.7421 45.6681 46.7697L44.4429 47.4711C44.3937 47.4986 44.3937 47.5442 44.4393 47.5718L45.583 48.2516ZM24.1168 57.0802C24.1635 57.1078 24.2402 57.1078 24.2894 57.0802L25.5135 56.3789C25.5626 56.3513 25.5638 56.3057 25.5171 56.2782L24.3733 55.5984C24.3266 55.5708 24.2486 55.5708 24.2007 55.5984L22.9766 56.2998C22.9275 56.3273 22.9275 56.3729 22.973 56.4005L24.1168 57.0802ZM30.0621 60.6146C30.1088 60.6422 30.1856 60.6422 30.2347 60.6146L31.4588 59.9132C31.508 59.8856 31.5092 59.8401 31.4624 59.8125L30.3187 59.1327C30.2719 59.1052 30.194 59.1052 30.146 59.1327L28.9219 59.8341C28.8728 59.8617 28.8716 59.9072 28.9183 59.9348L30.0621 60.6146ZM25.6034 57.9638C25.6502 57.9914 25.7281 57.9926 25.776 57.9638L27.0001 57.2625C27.0493 57.2349 27.0505 57.1893 27.0037 57.1606L25.86 56.4808C25.8132 56.4532 25.7353 56.4532 25.6873 56.4808L24.4632 57.1821C24.4141 57.2097 24.4129 57.2553 24.4596 57.2828L25.6034 57.9626M30.2815 53.5471C30.3282 53.5747 30.4062 53.5747 30.4541 53.5471L31.6794 52.8445C31.7274 52.817 31.7286 52.7726 31.6818 52.7438L30.5381 52.064C30.4913 52.0365 30.4146 52.0365 30.3666 52.064L29.1413 52.7666C29.0934 52.7942 29.0922 52.8397 29.1377 52.8673L30.2815 53.5471ZM41.014 49.1315C41.0608 49.1591 41.1387 49.1603 41.1867 49.1315L42.4119 48.4302C42.4611 48.4026 42.4611 48.3571 42.4143 48.3295L41.2706 47.6497C41.2238 47.6221 41.1471 47.6221 41.0979 47.6497L39.8727 48.3511C39.8235 48.3786 39.8223 48.4242 39.8691 48.4518L41.0128 49.1315M39.5274 48.248C39.5741 48.2755 39.6509 48.2755 39.7 48.248L40.9253 47.5466C40.9745 47.519 40.9757 47.4735 40.9289 47.4459L39.7851 46.7661C39.7384 46.7385 39.6617 46.7385 39.6125 46.7661L38.3872 47.4675C38.3381 47.495 38.3381 47.5406 38.3836 47.5682L39.5274 48.248ZM50.0957 49.1327C50.1424 49.1603 50.2191 49.1603 50.2683 49.1327L51.4936 48.4314C51.5427 48.4038 51.5427 48.3583 51.4972 48.3307L50.3534 47.6509C50.3067 47.6233 50.2299 47.6233 50.1808 47.6509L48.9555 48.3523C48.9064 48.3798 48.9052 48.4254 48.9519 48.453L50.0957 49.1327ZM36.445 50.0139C36.4918 50.0415 36.5685 50.0415 36.6177 50.0139L37.8429 49.3126C37.8921 49.285 37.8933 49.2394 37.8465 49.2119L36.7028 48.5321C36.656 48.5045 36.5793 48.5045 36.5301 48.5321L35.3049 49.2334C35.2557 49.261 35.2557 49.3066 35.3013 49.3342L36.445 50.0139ZM45.637 46.482C45.6837 46.5096 45.7616 46.5108 45.8096 46.482L47.0349 45.7806C47.084 45.753 47.084 45.7075 47.0373 45.6799L45.8935 45.0001C45.8468 44.9726 45.77 44.9726 45.7209 45.0001L44.4956 45.7015C44.4465 45.7291 44.4453 45.7746 44.492 45.8022L45.6358 46.482M44.1503 45.5984C44.1971 45.626 44.2738 45.626 44.323 45.5984L45.5482 44.897C45.5974 44.8695 45.5986 44.8239 45.5518 44.7963L44.4081 44.1166C44.3613 44.089 44.2846 44.089 44.2354 44.1166L43.0102 44.8179C42.961 44.8455 42.961 44.891 43.0066 44.9186L44.1503 45.5984ZM42.3891 53.5483C42.4359 53.5759 42.5126 53.5759 42.5618 53.5483L43.7871 52.8469C43.8362 52.8194 43.8362 52.7738 43.7907 52.7462L42.6469 52.0664C42.6002 52.0389 42.5234 52.0389 42.4743 52.0664L41.249 52.7678C41.1998 52.7954 41.1986 52.8409 41.2454 52.8685L42.3891 53.5483ZM36.2244 57.0802C36.2712 57.1078 36.3491 57.1078 36.3971 57.0802L37.6223 56.3777C37.6703 56.3501 37.6715 56.3045 37.6247 56.277L36.481 55.5972C36.4342 55.5696 36.3575 55.5696 36.3095 55.5972L35.0843 56.2998C35.0363 56.3273 35.0339 56.3729 35.0807 56.4005L36.2244 57.0802ZM37.9856 49.1303C38.0324 49.1579 38.1103 49.1579 38.1582 49.1303L39.3835 48.429C39.4327 48.4014 39.4339 48.3559 39.3871 48.3283L38.2434 47.6485C38.1966 47.6209 38.1199 47.6209 38.0707 47.6485L36.8455 48.3499C36.7975 48.3774 36.7963 48.423 36.8419 48.4506L37.9856 49.1303ZM45.4715 51.7811C45.5183 51.8087 45.595 51.8087 45.6442 51.7811L46.8694 51.0798C46.9186 51.0522 46.9186 51.0066 46.873 50.979L45.7293 50.2993C45.6825 50.2717 45.6058 50.2717 45.5566 50.2993L44.3314 51.0006C44.2822 51.0282 44.281 51.0738 44.3278 51.1013L45.4715 51.7811ZM31.7657 54.4283C31.8125 54.4558 31.8904 54.4558 31.9384 54.4283L33.1636 53.7257C33.2116 53.6981 33.2128 53.6526 33.166 53.625L32.0223 52.9452C31.9755 52.9177 31.8988 52.9177 31.8508 52.9452L30.6256 53.6478C30.5776 53.6754 30.5752 53.7209 30.622 53.7485L31.7657 54.4283ZM43.9309 52.6635C43.9777 52.6911 44.0556 52.6911 44.1036 52.6635L45.3288 51.9621C45.378 51.9346 45.378 51.889 45.3324 51.8614L44.1887 51.1817C44.1419 51.1541 44.0652 51.1541 44.0161 51.1817L42.7908 51.883C42.7428 51.9106 42.7404 51.9561 42.7872 51.9837L43.9309 52.6635ZM37.9305 50.8951C37.9772 50.9227 38.0551 50.9239 38.1031 50.8951L39.3284 50.1938C39.3775 50.1662 39.3775 50.1206 39.3308 50.0931L38.187 49.4133C38.1403 49.3857 38.0635 49.3857 38.0144 49.4133L36.7891 50.1146C36.7399 50.1422 36.7387 50.1878 36.7855 50.2153L37.9293 50.8951M39.4698 50.0115C39.5166 50.0391 39.5945 50.0391 39.6425 50.0115L40.8677 49.3102C40.9169 49.2826 40.9169 49.237 40.8701 49.2095L39.7264 48.5297C39.6796 48.5021 39.6029 48.5021 39.5538 48.5297L38.3285 49.2311C38.2805 49.2586 38.2781 49.3042 38.3249 49.3318L39.4686 50.0115M34.9008 50.8939C34.9476 50.9215 35.0255 50.9215 35.0735 50.8939L36.2988 50.1926C36.3479 50.165 36.3491 50.1194 36.3024 50.0919L35.1586 49.4121C35.1118 49.3845 35.0351 49.3845 34.986 49.4121L33.7607 50.1134C33.7127 50.141 33.7115 50.1866 33.7571 50.2141L34.9008 50.8939ZM42.6061 46.4784C42.6529 46.506 42.7296 46.506 42.7788 46.4784L44.0041 45.777C44.0532 45.7495 44.0544 45.7039 44.0077 45.6763L42.8639 44.9965C42.8172 44.969 42.7404 44.969 42.6913 44.9965L41.466 45.6979C41.4168 45.7255 41.4168 45.771 41.4624 45.7986L42.6061 46.4784ZM41.0656 47.362C41.1123 47.3895 41.1891 47.3895 41.2382 47.362L42.4635 46.6606C42.5126 46.633 42.5138 46.5875 42.4671 46.5599L41.3233 45.8801C41.2766 45.8526 41.1998 45.8526 41.1507 45.8801L39.9254 46.5815C39.8763 46.6091 39.8763 46.6546 39.9218 46.6822L41.0656 47.362ZM48.5515 50.0139C48.5982 50.0415 48.675 50.0415 48.7241 50.0139L49.9494 49.3126C49.9985 49.285 49.9985 49.2394 49.953 49.2119L48.8092 48.5321C48.7625 48.5045 48.6858 48.5045 48.6366 48.5321L47.4113 49.2334C47.3622 49.261 47.361 49.3066 47.4077 49.3342L48.5515 50.0139ZM44.0928 47.3632C44.1395 47.3907 44.2175 47.3919 44.2654 47.3632L45.4907 46.6618C45.5399 46.6342 45.5399 46.5887 45.4931 46.5611L44.3493 45.8813C44.3026 45.8538 44.2259 45.8538 44.1767 45.8813L42.9514 46.5827C42.9023 46.6103 42.9011 46.6558 42.9478 46.6834L44.0916 47.3632M40.845 54.4295C40.8917 54.457 40.9697 54.457 41.0176 54.4295L42.2429 53.7281C42.292 53.7005 42.292 53.655 42.2465 53.6274L41.1027 52.9476C41.056 52.9201 40.9792 52.9201 40.9301 52.9476L39.7048 53.649C39.6569 53.6766 39.6545 53.7221 39.7012 53.7497L40.845 54.4295ZM36.3863 51.7787C36.433 51.8063 36.511 51.8063 36.5589 51.7787L37.7842 51.0774C37.8333 51.0498 37.8333 51.0042 37.7866 50.9766L36.6428 50.2969C36.5961 50.2693 36.5194 50.2693 36.4702 50.2969L35.2449 50.9982C35.197 51.0258 35.1946 51.0714 35.2413 51.0989L36.3851 51.7787M47.0085 50.8975C47.0553 50.9251 47.132 50.9251 47.1811 50.8975L48.4064 50.1962C48.4556 50.1686 48.4556 50.123 48.41 50.0955L47.2663 49.4157C47.2195 49.3881 47.1428 49.3881 47.0936 49.4157L45.8684 50.117C45.8192 50.1446 45.818 50.1902 45.8648 50.2177L47.0085 50.8975ZM42.5498 48.2468C42.5966 48.2743 42.6745 48.2755 42.7224 48.2468L43.9477 47.5454C43.9969 47.5178 43.9969 47.4723 43.9501 47.4447L42.8064 46.7649C42.7596 46.7373 42.6829 46.7373 42.6337 46.7649L41.4085 47.4663C41.3593 47.4938 41.3581 47.5394 41.4049 47.567L42.5486 48.2468M27.2687 53.5567C27.3154 53.5842 27.3933 53.5842 27.4413 53.5567L28.6666 52.8553C28.7157 52.8277 28.7169 52.7822 28.6702 52.7546L28.1978 52.4741C28.151 52.4465 28.0731 52.4465 28.0252 52.4741L26.7999 53.1754C26.7519 53.203 26.7495 53.2486 26.7963 53.2761L27.2687 53.5567ZM25.7281 54.4403C25.7748 54.4678 25.8528 54.4678 25.9007 54.4403L27.126 53.7389C27.1751 53.7113 27.1763 53.6658 27.1296 53.6382L26.6572 53.3577C26.6105 53.3301 26.5325 53.3301 26.4846 53.3577L25.2593 54.059C25.2114 54.0866 25.209 54.1321 25.2557 54.1597L25.7281 54.4403ZM24.1875 55.3238C24.2343 55.3514 24.3122 55.3514 24.3601 55.3238L25.5854 54.6225C25.6346 54.5949 25.6358 54.5494 25.589 54.5218L25.1166 54.2412C25.0699 54.2137 24.992 54.2137 24.944 54.2412L23.7187 54.9426C23.6708 54.9702 23.6684 55.0157 23.7151 55.0433L24.1875 55.3238ZM30.3522 51.7919C30.399 51.8195 30.4769 51.8195 30.5249 51.7919L31.7501 51.0905C31.7993 51.063 31.8005 51.0174 31.7537 50.9898L31.2814 50.7093C31.2346 50.6817 31.1567 50.6817 31.1087 50.7093L29.8835 51.4106C29.8355 51.4382 29.8331 51.4838 29.8799 51.5114L30.3522 51.7919ZM31.8928 50.9083C31.9396 50.9359 32.0175 50.9359 32.0654 50.9083L33.2907 50.207C33.3399 50.1794 33.3411 50.1338 33.2943 50.1062L32.822 49.8257C32.7752 49.7981 32.6973 49.7981 32.6493 49.8257L31.424 50.5271C31.3761 50.5546 31.3737 50.6002 31.4204 50.6278L31.8928 50.9083ZM22.6469 56.2062C22.6937 56.2338 22.7704 56.2338 22.8196 56.2062L24.0436 55.5049C24.0928 55.4773 24.094 55.4317 24.0472 55.4042L23.5749 55.1236C23.5281 55.0961 23.4502 55.0961 23.4022 55.1236L22.1781 55.825C22.129 55.8526 22.1278 55.8981 22.1745 55.9257L22.6469 56.2062ZM36.517 48.2587C36.5637 48.2863 36.6416 48.2863 36.6896 48.2587L37.9149 47.5574C37.964 47.5298 37.9652 47.4843 37.9185 47.4567L37.4461 47.1761C37.3993 47.1486 37.3226 47.1486 37.2735 47.1761L36.0482 47.8775C36.0002 47.9051 35.9978 47.9506 36.0446 47.9782L36.517 48.2587ZM28.8116 52.6743C28.8584 52.7019 28.9363 52.7019 28.9843 52.6743L30.2096 51.9717C30.2575 51.9442 30.2587 51.8998 30.212 51.871L29.7396 51.5905C29.6928 51.5629 29.6161 51.5629 29.5681 51.5905L28.3429 52.293C28.2949 52.3206 28.2925 52.3662 28.3393 52.3937L28.8116 52.6743ZM38.0587 47.3764C38.1055 47.4039 38.1822 47.4039 38.2314 47.3764L39.4566 46.675C39.5058 46.6474 39.507 46.6019 39.4602 46.5743L38.9879 46.2938C38.9411 46.2662 38.8644 46.2662 38.8152 46.2938L37.59 46.9951C37.5408 47.0227 37.5396 47.0682 37.5864 47.0958L38.0587 47.3764ZM34.9764 49.1423C35.0231 49.1699 35.0999 49.1699 35.149 49.1423L36.3743 48.441C36.4234 48.4134 36.4246 48.3678 36.3779 48.3403L35.9055 48.0597C35.8588 48.0322 35.782 48.0322 35.7329 48.0597L34.5076 48.7611C34.4584 48.7887 34.4572 48.8342 34.504 48.8618L34.9764 49.1423ZM42.6817 44.7268C42.7284 44.7544 42.8052 44.7544 42.8543 44.7268L44.0796 44.0254C44.1287 43.9979 44.1299 43.9523 44.0832 43.9247L43.6108 43.6442C43.5641 43.6166 43.4873 43.6166 43.4382 43.6442L42.2129 44.3455C42.1638 44.3731 42.1626 44.4187 42.2093 44.4463L42.6817 44.7268ZM39.5993 46.4928C39.6461 46.5203 39.7228 46.5203 39.772 46.4928L40.9972 45.7914C41.0464 45.7638 41.0476 45.7183 41.0008 45.6907L40.5285 45.4102C40.4817 45.3826 40.405 45.3826 40.3558 45.4102L39.1305 46.1115C39.0814 46.1391 39.0802 46.1847 39.127 46.2122L39.5993 46.4928ZM33.4346 50.0247C33.4813 50.0523 33.5593 50.0523 33.6072 50.0247L34.8325 49.3234C34.8817 49.2958 34.8829 49.2502 34.8361 49.2227L34.3637 48.9421C34.317 48.9145 34.2402 48.9145 34.1911 48.9421L32.9658 49.6435C32.9179 49.671 32.9155 49.7166 32.9622 49.7442L33.4346 50.0247ZM41.1399 45.6092C41.1867 45.6368 41.2634 45.6368 41.3125 45.6092L42.5378 44.9078C42.587 44.8803 42.5882 44.8347 42.5414 44.8071L42.069 44.5266C42.0223 44.499 41.9456 44.499 41.8964 44.5266L40.6711 45.2279C40.622 45.2555 40.6208 45.3011 40.6675 45.3286L41.1399 45.6092Z" fill="url(#paint8_linear_313_1874)"/>
<path d="M22.7799 53.7701V53.7725C22.7835 53.7809 22.7871 53.7881 22.7919 53.7964C22.7919 53.7976 22.7931 53.7988 22.7943 53.8C22.7991 53.8072 22.8063 53.8156 22.8134 53.8228C22.8182 53.8276 22.8242 53.8312 22.8302 53.836C22.835 53.8396 22.8398 53.8432 22.8458 53.8468L23.0412 53.9631L23.0233 54.7364L22.8278 54.6201L22.8242 54.6177C22.8242 54.6177 22.8158 54.6117 22.8123 54.6081C22.8063 54.6033 22.8003 54.5997 22.7955 54.5949H22.7943C22.7883 54.5877 22.7835 54.5829 22.7787 54.5769C22.7787 54.5757 22.7775 54.5745 22.7763 54.5733L22.7739 54.5685C22.7739 54.5685 22.7703 54.5637 22.7691 54.5613C22.7667 54.5565 22.7643 54.5517 22.7631 54.547V54.5422C22.7631 54.5422 22.7595 54.5362 22.7595 54.5326C22.7595 54.5278 22.7583 54.523 22.7583 54.5182V54.5158L22.7763 53.7425C22.7763 53.7509 22.7763 53.7605 22.7799 53.7689V53.7701Z" fill="#2A2A2A"/>
<path d="M23.0426 53.9631L23.479 54.2221C23.5749 54.2796 23.7343 54.2796 23.835 54.2221L40.7155 44.5494C40.8162 44.4918 40.8186 44.3995 40.7215 44.342L40.2851 44.083L43.1241 42.4561C43.407 42.2943 43.859 42.2943 44.1324 42.4561L59.0994 51.3543C59.3727 51.5174 59.3643 51.7799 59.0814 51.943L36.1081 65.1057C35.8252 65.2675 35.3732 65.2687 35.0999 65.1057L20.1328 56.2075C19.8595 56.0456 19.8679 55.7818 20.1508 55.6188L23.0414 53.9619L23.0426 53.9631ZM29.6868 61.0582C29.8187 61.1361 30.0369 61.1361 30.1736 61.0582L52.2345 48.4182C52.3712 48.3403 52.376 48.212 52.2441 48.1341L44.0221 43.2462C43.8902 43.1671 43.6708 43.1682 43.5341 43.2462L21.4732 55.8861C21.3353 55.9653 21.3317 56.0924 21.4636 56.1703L29.6856 61.0582M42.9478 60.0403C42.9898 60.0655 43.0569 60.0643 43.1001 60.0403L50.3031 55.9137C50.3462 55.8897 50.3486 55.849 50.3067 55.825L45.5986 53.0256C45.5578 53.0016 45.4883 53.0016 45.4463 53.0256L38.2434 57.1522C38.2002 57.1762 38.199 57.2169 38.241 57.2409L42.949 60.0403" fill="url(#paint9_linear_313_1874)"/>
<path d="M43.5339 43.245C43.6706 43.1671 43.8888 43.1659 44.0218 43.245L52.2439 48.1329C52.3757 48.2108 52.3709 48.3391 52.2343 48.417L30.1734 61.057C30.0355 61.1361 29.8173 61.1361 29.6866 61.057L21.4646 56.1691C21.3327 56.09 21.3363 55.9629 21.4742 55.885L43.5351 43.245H43.5339ZM29.7765 61.0067C29.8605 61.0558 29.9995 61.0558 30.0859 61.0067L52.1468 48.3667C52.2331 48.3175 52.2355 48.236 52.1528 48.1856L43.9307 43.2977C43.8468 43.2474 43.7077 43.2474 43.6214 43.2977L21.5605 55.9377C21.473 55.9881 21.4706 56.0684 21.5545 56.1187L29.7765 61.0067Z" fill="white"/>
<path d="M45.4464 53.0244C45.4895 53.0004 45.5579 52.9992 45.5986 53.0244L50.3067 55.8238C50.3487 55.849 50.3463 55.8885 50.3031 55.9125L43.1001 60.0391C43.057 60.0631 42.9898 60.0643 42.9479 60.0391L38.2398 57.2397C38.199 57.2157 38.2002 57.1749 38.2422 57.151L45.4452 53.0244H45.4464ZM41.731 59.0992C41.7777 59.1267 41.8557 59.1267 41.9048 59.0992L48.7146 55.1968C48.7637 55.168 48.7649 55.1236 48.7182 55.0949L45.5734 53.2258C45.5267 53.1982 45.4488 53.197 45.3996 53.2258L38.5899 57.1282C38.5407 57.1558 38.5395 57.2013 38.5863 57.2301L41.731 59.0992ZM46.4954 57.7732C46.5422 57.8008 46.6201 57.8008 46.6692 57.7732L49.9171 55.9125C49.9662 55.8837 49.9674 55.8394 49.9206 55.8106L49.0119 55.2711C48.9651 55.2435 48.8872 55.2423 48.838 55.2711L45.5902 57.1318C45.5411 57.1593 45.5399 57.2049 45.5866 57.2337L46.4954 57.7732ZM42.9335 59.8137C42.9802 59.8413 43.0582 59.8413 43.1073 59.8137L46.3563 57.9518C46.4055 57.9242 46.4055 57.8787 46.3587 57.8511L45.45 57.3116C45.4032 57.284 45.3253 57.2828 45.2773 57.3116L42.0283 59.1735C41.9792 59.2011 41.978 59.2466 42.0247 59.2754L42.9335 59.8149" fill="white"/>
<path d="M45.59 57.1318C45.5409 57.1594 45.5397 57.205 45.5864 57.2337L46.4952 57.7732C46.542 57.8008 46.6199 57.8008 46.669 57.7732L49.9169 55.9125C49.966 55.8838 49.9672 55.8394 49.9204 55.8106L49.0117 55.2711C48.9649 55.2436 48.887 55.2424 48.8378 55.2711L45.59 57.1318Z" fill="url(#paint10_linear_313_1874)"/>
<path d="M38.59 57.1282C38.5409 57.1558 38.5397 57.2013 38.5864 57.2301L41.7311 59.0992C41.7779 59.1268 41.8558 59.1268 41.905 59.0992L48.7147 55.1968C48.7639 55.168 48.7651 55.1236 48.7183 55.0949L45.5736 53.2258C45.5269 53.1982 45.4489 53.197 45.3998 53.2258L38.59 57.1282Z" fill="url(#paint11_linear_313_1874)"/>
<path d="M42.028 59.1724C41.9789 59.1999 41.9777 59.2455 42.0244 59.2743L42.9332 59.8138C42.9799 59.8413 43.0579 59.8413 43.107 59.8138L46.356 57.9519C46.4052 57.9243 46.4052 57.8787 46.3584 57.8512L45.4497 57.3117C45.4029 57.2841 45.325 57.2829 45.277 57.3117L42.028 59.1735V59.1724Z" fill="url(#paint12_linear_313_1874)"/>
<path d="M39.1369 46.1271C39.0878 46.1547 39.0866 46.2003 39.1333 46.2278L39.6057 46.5084C39.6524 46.5359 39.7292 46.5359 39.7783 46.5084L41.0036 45.807C41.0527 45.7794 41.0539 45.7339 41.0072 45.7063L40.5348 45.4258C40.4881 45.3982 40.4113 45.3982 40.3622 45.4258L39.1369 46.1271Z" fill="url(#paint13_linear_313_1874)"/>
<path d="M30.6819 51.8962C30.634 51.9238 30.6328 51.9694 30.6783 51.9969L31.8221 52.6767C31.8688 52.7043 31.9467 52.7043 31.9947 52.6767L33.22 51.9754C33.2691 51.9478 33.2703 51.9022 33.2236 51.8747L32.0798 51.1949C32.0331 51.1673 31.9551 51.1673 31.9072 51.1949L30.6819 51.8962Z" fill="url(#paint14_linear_313_1874)"/>
<path d="M32.1687 52.7798C32.1207 52.8074 32.1183 52.8529 32.1651 52.8805L33.3089 53.5603C33.3556 53.5879 33.4335 53.5879 33.4815 53.5603L34.7068 52.8589C34.7559 52.8314 34.7571 52.7858 34.7104 52.757L33.5666 52.0773C33.5199 52.0497 33.4419 52.0497 33.394 52.0773L32.1687 52.7786V52.7798Z" fill="url(#paint15_linear_313_1874)"/>
<path d="M27.5999 53.6622C27.5519 53.6897 27.5507 53.7353 27.5963 53.7629L28.74 54.4426C28.7868 54.4702 28.8647 54.4702 28.9127 54.4426L30.1379 53.7413C30.1871 53.7137 30.1883 53.6682 30.1415 53.6406L28.9978 52.9608C28.951 52.9332 28.8731 52.9332 28.8251 52.9608L27.5999 53.6622Z" fill="url(#paint16_linear_313_1874)"/>
<path d="M29.0862 54.547C29.0382 54.5745 29.0358 54.6201 29.0826 54.6477L30.2263 55.3274C30.2731 55.355 30.351 55.355 30.399 55.3274L31.6242 54.6261C31.6734 54.5985 31.6746 54.553 31.6278 54.5242L30.4841 53.8444C30.4373 53.8168 30.3594 53.8168 30.3115 53.8444L29.0862 54.5458V54.547Z" fill="url(#paint17_linear_313_1874)"/>
<path d="M42.2189 44.3611C42.1698 44.3887 42.1686 44.4343 42.2153 44.4618L42.6877 44.7424C42.7345 44.77 42.8112 44.77 42.8603 44.7424L44.0856 44.041C44.1348 44.0135 44.136 43.9679 44.0892 43.9403L43.6169 43.6598C43.5701 43.6322 43.4934 43.6322 43.4442 43.6598L42.2189 44.3611Z" fill="url(#paint18_linear_313_1874)"/>
<path d="M39.9289 46.5983C39.8798 46.6258 39.8798 46.6714 39.9253 46.699L41.0691 47.3787C41.1158 47.4063 41.1926 47.4063 41.2417 47.3787L42.467 46.6774C42.5161 46.6498 42.5173 46.6043 42.4706 46.5767L41.3268 45.8969C41.2801 45.8693 41.2034 45.8693 41.1542 45.8969L39.9289 46.5983Z" fill="url(#paint19_linear_313_1874)"/>
<path d="M35.3064 49.2479C35.2572 49.2754 35.2572 49.321 35.3028 49.3486L36.4465 50.0283C36.4933 50.0559 36.57 50.0559 36.6192 50.0283L37.8444 49.327C37.8936 49.2994 37.8948 49.2538 37.848 49.2263L36.7043 48.5465C36.6575 48.5189 36.5808 48.5189 36.5316 48.5465L35.3064 49.2479Z" fill="url(#paint20_linear_313_1874)"/>
<path d="M31.4314 50.5427C31.3834 50.5702 31.381 50.6158 31.4278 50.6434L31.9002 50.9239C31.9469 50.9515 32.0248 50.9515 32.0728 50.9239L33.2981 50.2226C33.3472 50.195 33.3484 50.1494 33.3017 50.1218L32.8293 49.8413C32.7826 49.8137 32.7046 49.8137 32.6567 49.8413L31.4314 50.5427Z" fill="url(#paint21_linear_313_1874)"/>
<path d="M32.2239 51.0138C32.1759 51.0414 32.1747 51.087 32.2203 51.1146L33.3641 51.7943C33.4108 51.8219 33.4887 51.8219 33.5367 51.7943L34.762 51.093C34.8111 51.0654 34.8123 51.0198 34.7656 50.9923L33.6218 50.3125C33.5751 50.2849 33.4971 50.2849 33.4492 50.3125L32.2239 51.0138Z" fill="url(#paint22_linear_313_1874)"/>
<path d="M29.8894 51.425C29.8414 51.4526 29.839 51.4982 29.8858 51.5257L30.3582 51.8063C30.4049 51.8339 30.4829 51.8339 30.5308 51.8063L31.7561 51.1049C31.8052 51.0774 31.8064 51.0318 31.7597 51.0042L31.2873 50.7237C31.2406 50.6961 31.1626 50.6961 31.1147 50.7237L29.8894 51.425Z" fill="url(#paint23_linear_313_1874)"/>
<path d="M26.8074 53.191C26.7594 53.2186 26.757 53.2642 26.8038 53.2917L27.2761 53.5723C27.3229 53.5999 27.4008 53.5999 27.4488 53.5723L28.6741 52.8709C28.7232 52.8434 28.7244 52.7978 28.6776 52.7702L28.2053 52.4897C28.1585 52.4621 28.0806 52.4621 28.0326 52.4897L26.8074 53.191Z" fill="url(#paint24_linear_313_1874)"/>
<path d="M26.0593 54.5458C26.0114 54.5733 26.0102 54.6189 26.0558 54.6465L27.1995 55.3262C27.2463 55.3538 27.3242 55.3538 27.3721 55.3262L28.5974 54.6249C28.6466 54.5973 28.6478 54.5518 28.601 54.5242L27.4573 53.8444C27.4105 53.8168 27.3326 53.8168 27.2846 53.8444L26.0593 54.5458Z" fill="url(#paint25_linear_313_1874)"/>
<path d="M41.4709 45.7147C41.4218 45.7423 41.4218 45.7878 41.4673 45.8154L42.6111 46.4952C42.6578 46.5228 42.7346 46.5228 42.7837 46.4952L44.009 45.7938C44.0581 45.7663 44.0593 45.7207 44.0126 45.6931L42.8688 45.0134C42.8221 44.9858 42.7453 44.9858 42.6962 45.0134L41.4709 45.7147Z" fill="url(#paint26_linear_313_1874)"/>
<path d="M44.4982 45.7159C44.4491 45.7434 44.4479 45.789 44.4946 45.8166L45.6384 46.4964C45.6851 46.5239 45.7631 46.5251 45.811 46.4964L47.0363 45.795C47.0855 45.7674 47.0855 45.7219 47.0387 45.6943L45.895 45.0145C45.8482 44.9869 45.7715 44.9869 45.7223 45.0145L44.497 45.7159H44.4982Z" fill="url(#paint27_linear_313_1874)"/>
<path d="M41.4157 47.4819C41.3666 47.5094 41.3654 47.555 41.4121 47.5826L42.5559 48.2623C42.6026 48.2899 42.6806 48.2911 42.7285 48.2623L43.9538 47.561C44.0029 47.5334 44.0029 47.4879 43.9562 47.4603L42.8124 46.7805C42.7657 46.7529 42.6889 46.7529 42.6398 46.7805L41.4145 47.4819H41.4157Z" fill="url(#paint28_linear_313_1874)"/>
<path d="M44.4431 47.4819C44.3939 47.5094 44.3939 47.555 44.4395 47.5826L45.5832 48.2623C45.63 48.2899 45.7067 48.2899 45.7559 48.2623L46.9812 47.561C47.0303 47.5334 47.0315 47.4879 46.9848 47.4603L45.841 46.7805C45.7942 46.7529 45.7175 46.7529 45.6684 46.7805L44.4431 47.4819Z" fill="url(#paint29_linear_313_1874)"/>
<path d="M42.9026 48.3655C42.8534 48.393 42.8534 48.4386 42.899 48.4662L44.0427 49.146C44.0895 49.1735 44.1662 49.1735 44.2154 49.146L45.4406 48.4446C45.4898 48.417 45.491 48.3715 45.4442 48.3439L44.3005 47.6641C44.2537 47.6365 44.177 47.6365 44.1278 47.6641L42.9026 48.3655Z" fill="url(#paint30_linear_313_1874)"/>
<path d="M45.9297 48.3654C45.8806 48.393 45.8806 48.4386 45.9274 48.4661L47.0711 49.1459C47.1179 49.1735 47.1958 49.1747 47.2437 49.1459L48.469 48.4446C48.5182 48.417 48.5182 48.3714 48.4714 48.3439L47.3277 47.6641C47.2809 47.6365 47.203 47.6353 47.155 47.6641L45.9297 48.3654Z" fill="url(#paint31_linear_313_1874)"/>
<path d="M44.3878 49.249C44.3386 49.2766 44.3386 49.3222 44.3854 49.3497L45.5291 50.0295C45.5759 50.0571 45.6538 50.0583 45.7017 50.0295L46.927 49.3282C46.9762 49.3006 46.9762 49.255 46.9294 49.2275L45.7857 48.5477C45.7389 48.5201 45.661 48.5189 45.613 48.5477L44.3878 49.249Z" fill="url(#paint32_linear_313_1874)"/>
<path d="M45.8747 50.1326C45.8255 50.1602 45.8243 50.2058 45.8711 50.2333L47.0149 50.9131C47.0616 50.9407 47.1383 50.9407 47.1875 50.9131L48.4128 50.2117C48.4619 50.1842 48.4619 50.1386 48.4164 50.111L47.2726 49.4313C47.2259 49.4037 47.1491 49.4037 47.1 49.4313L45.8747 50.1326Z" fill="url(#paint33_linear_313_1874)"/>
<path d="M38.2781 51.015C38.2289 51.0426 38.2289 51.0881 38.2745 51.1157L39.4182 51.7955C39.465 51.8231 39.5417 51.8231 39.5908 51.7955L40.8161 51.0941C40.8653 51.0666 40.8665 51.021 40.8197 50.9934L39.676 50.3136C39.6292 50.2861 39.5525 50.2861 39.5033 50.3136L38.2781 51.015Z" fill="url(#paint34_linear_313_1874)"/>
<path d="M39.7647 51.8974C39.7156 51.925 39.7156 51.9705 39.7623 51.9981L40.9061 52.6779C40.9528 52.7055 41.0307 52.7067 41.0787 52.6779L42.304 51.9765C42.3531 51.949 42.3531 51.9034 42.3064 51.8758L41.1626 51.1961C41.1159 51.1685 41.0379 51.1673 40.99 51.1961L39.7647 51.8974Z" fill="url(#paint35_linear_313_1874)"/>
<path d="M35.1961 52.781C35.1481 52.8086 35.1469 52.8541 35.1925 52.8817L36.3362 53.5615C36.383 53.5891 36.4609 53.5891 36.5089 53.5615L37.7341 52.8601C37.7833 52.8325 37.7845 52.787 37.7377 52.7594L36.594 52.0796C36.5472 52.0521 36.4693 52.0521 36.4213 52.0796L35.1961 52.781Z" fill="url(#paint36_linear_313_1874)"/>
<path d="M33.6555 53.6634C33.6076 53.691 33.6064 53.7365 33.6519 53.7641L34.7957 54.4439C34.8424 54.4714 34.9204 54.4714 34.9683 54.4439L36.1936 53.7425C36.2428 53.7149 36.244 53.6694 36.1972 53.6418L35.0535 52.962C35.0067 52.9345 34.9288 52.9345 34.8808 52.962L33.6555 53.6634Z" fill="url(#paint37_linear_313_1874)"/>
<path d="M36.6827 53.6646C36.6348 53.6922 36.6336 53.7377 36.6803 53.7653L37.8241 54.4451C37.8708 54.4726 37.9488 54.4726 37.9967 54.4451L39.222 53.7437C39.2711 53.7161 39.2723 53.6706 39.2256 53.6418L38.0818 52.962C38.0351 52.9345 37.9572 52.9345 37.908 52.962L36.6827 53.6634V53.6646Z" fill="url(#paint38_linear_313_1874)"/>
<path d="M36.6272 55.4305C36.5792 55.4581 36.5768 55.5037 36.6236 55.5312L37.7673 56.211C37.8141 56.2386 37.892 56.2386 37.94 56.211L39.1653 55.5097C39.2144 55.4821 39.2156 55.4365 39.1689 55.4089L38.0251 54.7292C37.9784 54.7016 37.9004 54.7016 37.8525 54.7292L36.6272 55.4305Z" fill="url(#paint39_linear_313_1874)"/>
<path d="M33.5452 57.1965C33.4972 57.2241 33.4948 57.2697 33.5416 57.2972L34.6853 57.977C34.7321 58.0046 34.81 58.0046 34.858 57.977L36.0832 57.2757C36.1324 57.2481 36.1336 57.2025 36.0868 57.1749L34.9431 56.4952C34.8963 56.4676 34.8184 56.4676 34.7704 56.4952L33.5452 57.1965Z" fill="url(#paint40_linear_313_1874)"/>
<path d="M43.0114 44.8323C42.9623 44.8599 42.9623 44.9055 43.0079 44.933L44.1516 45.6128C44.1984 45.6404 44.2751 45.6404 44.3242 45.6128L45.5495 44.9115C45.5987 44.8839 45.5999 44.8383 45.5531 44.8107L44.4094 44.131C44.3626 44.1034 44.2859 44.1034 44.2367 44.131L43.0114 44.8323Z" fill="url(#paint41_linear_313_1874)"/>
<path d="M40.6784 45.2435C40.6293 45.2711 40.6281 45.3167 40.6748 45.3442L41.1472 45.6248C41.1939 45.6523 41.2707 45.6523 41.3198 45.6248L42.5451 44.9234C42.5943 44.8958 42.5954 44.8503 42.5487 44.8227L42.0763 44.5422C42.0296 44.5146 41.9528 44.5146 41.9037 44.5422L40.6784 45.2435Z" fill="url(#paint42_linear_313_1874)"/>
<path d="M37.5959 47.0107C37.5467 47.0382 37.5455 47.0838 37.5923 47.1114L38.0647 47.3919C38.1114 47.4195 38.1881 47.4195 38.2373 47.3919L39.4626 46.6906C39.5117 46.663 39.5129 46.6174 39.4662 46.5899L38.9938 46.3093C38.947 46.2817 38.8703 46.2817 38.8212 46.3093L37.5959 47.0107Z" fill="url(#paint43_linear_313_1874)"/>
<path d="M42.9577 46.5983C42.9086 46.6258 42.9074 46.6714 42.9541 46.699L44.0979 47.3787C44.1446 47.4063 44.2225 47.4075 44.2705 47.3787L45.4958 46.6774C45.5449 46.6498 45.5449 46.6043 45.4982 46.5767L44.3544 45.8969C44.3077 45.8693 44.2309 45.8693 44.1818 45.8969L42.9565 46.5983H42.9577Z" fill="url(#paint44_linear_313_1874)"/>
<path d="M45.9846 46.5995C45.9354 46.6271 45.9354 46.6726 45.981 46.7002L47.1247 47.38C47.1715 47.4075 47.2482 47.4075 47.2974 47.38L48.5227 46.6786C48.5718 46.651 48.573 46.6055 48.5263 46.5779L47.3825 45.8981C47.3357 45.8705 47.259 45.8705 47.2099 45.8981L45.9846 46.5995Z" fill="url(#paint45_linear_313_1874)"/>
<path d="M38.3884 47.4806C38.3392 47.5082 38.3392 47.5538 38.3848 47.5813L39.5286 48.2611C39.5753 48.2887 39.652 48.2887 39.7012 48.2611L40.9265 47.5598C40.9756 47.5322 40.9768 47.4866 40.9301 47.4591L39.7863 46.7793C39.7396 46.7517 39.6628 46.7517 39.6137 46.7793L38.3884 47.4806Z" fill="url(#paint46_linear_313_1874)"/>
<path d="M36.0544 47.8931C36.0065 47.9207 36.0041 47.9662 36.0508 47.9938L36.5232 48.2744C36.57 48.3019 36.6479 48.3019 36.6959 48.2744L37.9211 47.573C37.9703 47.5454 37.9715 47.4999 37.9247 47.4723L37.4524 47.1918C37.4056 47.1642 37.3289 47.1642 37.2797 47.1918L36.0544 47.8931Z" fill="url(#paint47_linear_313_1874)"/>
<path d="M47.4703 47.483C47.4211 47.5106 47.4211 47.5562 47.4679 47.5838L48.6116 48.2635C48.6584 48.2911 48.7363 48.2923 48.7843 48.2635L50.0095 47.5622C50.0587 47.5346 50.0587 47.489 50.0119 47.4615L48.8682 46.7817C48.8214 46.7541 48.7435 46.7529 48.6955 46.7817L47.4703 47.483Z" fill="url(#paint48_linear_313_1874)"/>
<path d="M36.8469 48.3642C36.799 48.3918 36.7978 48.4374 36.8434 48.465L37.9871 49.1447C38.0339 49.1723 38.1118 49.1723 38.1597 49.1447L39.385 48.4434C39.4342 48.4158 39.4354 48.3702 39.3886 48.3427L38.2449 47.6629C38.1981 47.6353 38.1214 47.6353 38.0722 47.6629L36.8469 48.3642Z" fill="url(#paint49_linear_313_1874)"/>
<path d="M34.5139 48.7767C34.4647 48.8042 34.4635 48.8498 34.5103 48.8774L34.9826 49.1579C35.0294 49.1855 35.1061 49.1855 35.1553 49.1579L36.3805 48.4566C36.4297 48.429 36.4309 48.3834 36.3841 48.3558L35.9118 48.0753C35.865 48.0477 35.7883 48.0477 35.7391 48.0753L34.5139 48.7767Z" fill="url(#paint50_linear_313_1874)"/>
<path d="M39.8752 48.3655C39.826 48.393 39.8248 48.4386 39.8716 48.4662L41.0153 49.146C41.0621 49.1735 41.14 49.1747 41.188 49.146L42.4133 48.4446C42.4624 48.417 42.4624 48.3715 42.4157 48.3439L41.2719 47.6641C41.2251 47.6365 41.1484 47.6365 41.0993 47.6641L39.874 48.3655H39.8752Z" fill="url(#paint51_linear_313_1874)"/>
<path d="M48.9567 48.3666C48.9076 48.3942 48.9064 48.4398 48.9531 48.4673L50.0969 49.1471C50.1436 49.1747 50.2204 49.1747 50.2695 49.1471L51.4948 48.4458C51.544 48.4182 51.544 48.3726 51.4984 48.345L50.3546 47.6653C50.3079 47.6377 50.2312 47.6377 50.182 47.6653L48.9567 48.3666Z" fill="url(#paint52_linear_313_1874)"/>
<path d="M32.9719 49.659C32.924 49.6866 32.9216 49.7322 32.9683 49.7598L33.4407 50.0403C33.4874 50.0679 33.5654 50.0679 33.6133 50.0403L34.8386 49.3389C34.8878 49.3114 34.889 49.2658 34.8422 49.2382L34.3698 48.9577C34.3231 48.9301 34.2463 48.9301 34.1972 48.9577L32.9719 49.659Z" fill="url(#paint53_linear_313_1874)"/>
<path d="M38.3332 49.2479C38.2853 49.2754 38.2829 49.321 38.3297 49.3486L39.4734 50.0283C39.5202 50.0559 39.5981 50.0559 39.646 50.0283L40.8713 49.327C40.9205 49.2994 40.9205 49.2538 40.8737 49.2263L39.73 48.5465C39.6832 48.5189 39.6065 48.5189 39.5573 48.5465L38.332 49.2479H38.3332Z" fill="url(#paint54_linear_313_1874)"/>
<path d="M41.3606 49.2479C41.3114 49.2754 41.3114 49.321 41.357 49.3486L42.5007 50.0283C42.5475 50.0559 42.6242 50.0559 42.6734 50.0283L43.8986 49.327C43.9478 49.2994 43.949 49.2538 43.9022 49.2263L42.7585 48.5465C42.7117 48.5189 42.635 48.5189 42.5858 48.5465L41.3606 49.2479Z" fill="url(#paint55_linear_313_1874)"/>
<path d="M47.4162 49.249C47.3671 49.2766 47.3659 49.3221 47.4126 49.3497L48.5564 50.0295C48.6031 50.0571 48.6798 50.0571 48.729 50.0295L49.9543 49.3281C50.0034 49.3006 50.0034 49.255 49.9579 49.2274L48.8141 48.5477C48.7674 48.5201 48.6906 48.5201 48.6415 48.5477L47.4162 49.249Z" fill="url(#paint56_linear_313_1874)"/>
<path d="M33.7644 50.1302C33.7165 50.1578 33.7153 50.2034 33.7608 50.2309L34.9046 50.9107C34.9513 50.9383 35.0293 50.9383 35.0772 50.9107L36.3025 50.2094C36.3516 50.1818 36.3528 50.1362 36.3061 50.1087L35.1623 49.4289C35.1156 49.4013 35.0389 49.4013 34.9897 49.4289L33.7644 50.1302Z" fill="url(#paint57_linear_313_1874)"/>
<path d="M36.7927 50.1314C36.7435 50.159 36.7423 50.2045 36.7891 50.2321L37.9328 50.9119C37.9796 50.9395 38.0575 50.9407 38.1055 50.9119L39.3307 50.2105C39.3799 50.183 39.3799 50.1374 39.3331 50.1098L38.1894 49.43C38.1426 49.4025 38.0659 49.4025 38.0167 49.43L36.7915 50.1314H36.7927Z" fill="url(#paint58_linear_313_1874)"/>
<path d="M39.8201 50.1314C39.7721 50.159 39.7709 50.2045 39.8165 50.2321L40.9602 50.9119C41.007 50.9395 41.0849 50.9395 41.1329 50.9119L42.3582 50.2105C42.4073 50.183 42.4085 50.1374 42.3618 50.1098L41.218 49.43C41.1712 49.4025 41.0945 49.4025 41.0454 49.43L39.8201 50.1314Z" fill="url(#paint59_linear_313_1874)"/>
<path d="M42.8472 50.1314C42.7981 50.159 42.7981 50.2046 42.8448 50.2321L43.9886 50.9119C44.0353 50.9395 44.1133 50.9407 44.1612 50.9119L45.3865 50.2106C45.4356 50.183 45.4356 50.1374 45.3889 50.1098L44.2451 49.4301C44.1984 49.4025 44.1205 49.4013 44.0725 49.4301L42.8472 50.1314Z" fill="url(#paint60_linear_313_1874)"/>
<path d="M35.2512 51.0138C35.2033 51.0414 35.2009 51.087 35.2476 51.1146L36.3914 51.7943C36.4381 51.8219 36.5161 51.8219 36.564 51.7943L37.7893 51.093C37.8384 51.0654 37.8384 51.0198 37.7917 50.9923L36.6479 50.3125C36.6012 50.2849 36.5244 50.2849 36.4753 50.3125L35.25 51.0138H35.2512Z" fill="url(#paint61_linear_313_1874)"/>
<path d="M41.3053 51.015C41.2573 51.0426 41.2561 51.0882 41.3029 51.1157L42.4466 51.7955C42.4934 51.8231 42.5713 51.8231 42.6193 51.7955L43.8445 51.0942C43.8937 51.0666 43.8937 51.021 43.8469 50.9935L42.7032 50.3137C42.6564 50.2861 42.5785 50.2849 42.5306 50.3137L41.3053 51.015Z" fill="url(#paint62_linear_313_1874)"/>
<path d="M44.3337 51.0162C44.2845 51.0438 44.2833 51.0894 44.3301 51.1169L45.4738 51.7967C45.5206 51.8243 45.5973 51.8243 45.6465 51.7967L46.8718 51.0954C46.9209 51.0678 46.9209 51.0222 46.8753 50.9946L45.7316 50.3149C45.6848 50.2873 45.6081 50.2873 45.559 50.3149L44.3337 51.0162Z" fill="url(#paint63_linear_313_1874)"/>
<path d="M28.3489 52.3086C28.3009 52.3362 28.2985 52.3818 28.3453 52.4093L28.8176 52.6899C28.8644 52.7174 28.9423 52.7174 28.9903 52.6899L30.2156 51.9873C30.2635 51.9597 30.2647 51.9154 30.218 51.8866L29.7456 51.6061C29.6988 51.5785 29.6221 51.5785 29.5741 51.6061L28.3489 52.3086Z" fill="url(#paint64_linear_313_1874)"/>
<path d="M33.7107 51.8974C33.6627 51.925 33.6603 51.9706 33.7071 51.9981L34.8508 52.6779C34.8976 52.7055 34.9755 52.7055 35.0235 52.6779L36.2488 51.9766C36.2979 51.949 36.2991 51.9034 36.2524 51.8747L35.1086 51.1949C35.0618 51.1673 34.9839 51.1673 34.936 51.1949L33.7107 51.8962V51.8974Z" fill="url(#paint65_linear_313_1874)"/>
<path d="M36.7376 51.8974C36.6896 51.925 36.6884 51.9705 36.734 51.9981L37.8777 52.6779C37.9245 52.7054 38.0024 52.7054 38.0504 52.6779L39.2756 51.9765C39.3248 51.9489 39.326 51.9034 39.2792 51.8758L38.1355 51.196C38.0887 51.1685 38.012 51.1685 37.9628 51.196L36.7376 51.8974Z" fill="url(#paint66_linear_313_1874)"/>
<path d="M42.7922 51.8986C42.7443 51.9262 42.7419 51.9717 42.7886 51.9993L43.9324 52.6791C43.9791 52.7067 44.0571 52.7067 44.105 52.6791L45.3303 51.9777C45.3795 51.9502 45.3795 51.9046 45.3339 51.877L44.1901 51.1973C44.1434 51.1697 44.0667 51.1697 44.0175 51.1973L42.7922 51.8986Z" fill="url(#paint67_linear_313_1874)"/>
<path d="M29.1414 52.7798C29.0934 52.8074 29.0922 52.8529 29.1378 52.8805L30.2815 53.5603C30.3283 53.5879 30.4062 53.5879 30.4542 53.5603L31.6794 52.8577C31.7274 52.8302 31.7286 52.7858 31.6818 52.757L30.5381 52.0773C30.4913 52.0497 30.4146 52.0497 30.3667 52.0773L29.1414 52.7798Z" fill="url(#paint68_linear_313_1874)"/>
<path d="M38.2233 52.781C38.1753 52.8085 38.1741 52.8541 38.2209 52.8817L39.3646 53.5614C39.4114 53.589 39.4893 53.589 39.5372 53.5614L40.7625 52.8601C40.8117 52.8325 40.8117 52.787 40.7649 52.7594L39.6212 52.0796C39.5744 52.052 39.4965 52.0508 39.4485 52.0796L38.2233 52.781Z" fill="url(#paint69_linear_313_1874)"/>
<path d="M41.2517 52.7822C41.2025 52.8098 41.2013 52.8553 41.2481 52.8829L42.3918 53.5627C42.4386 53.5903 42.5153 53.5903 42.5644 53.5627L43.7897 52.8613C43.8389 52.8338 43.8389 52.7882 43.7933 52.7606L42.6496 52.0809C42.6028 52.0533 42.5261 52.0533 42.4769 52.0809L41.2517 52.7822Z" fill="url(#paint70_linear_313_1874)"/>
<path d="M22.8531 53.6394C22.7536 53.6969 22.75 53.7892 22.8471 53.8468L23.0426 53.9631L23.479 54.222C23.5749 54.2796 23.7343 54.2796 23.835 54.222L40.7155 44.5493C40.815 44.4918 40.8186 44.3995 40.7215 44.3419L40.2851 44.083L40.0897 43.9667C39.9938 43.9091 39.8343 43.9091 39.7336 43.9667L22.8531 53.6394Z" fill="url(#paint71_linear_313_1874)"/>
<path d="M25.2668 54.0746C25.2189 54.1021 25.2165 54.1477 25.2632 54.1753L25.7356 54.4558C25.7824 54.4834 25.8603 54.4834 25.9083 54.4558L27.1335 53.7545C27.1827 53.7269 27.1839 53.6813 27.1371 53.6538L26.6648 53.3732C26.618 53.3456 26.5401 53.3456 26.4921 53.3732L25.2668 54.0746Z" fill="url(#paint72_linear_313_1874)"/>
<path d="M30.6282 53.6634C30.5802 53.6909 30.5778 53.7365 30.6246 53.7641L31.7683 54.4438C31.8151 54.4714 31.893 54.4714 31.941 54.4438L33.1662 53.7413C33.2142 53.7137 33.2154 53.6682 33.1686 53.6406L32.0249 52.9608C31.9781 52.9332 31.9014 52.9332 31.8534 52.9608L30.6282 53.6634Z" fill="url(#paint73_linear_313_1874)"/>
<path d="M39.7097 53.6646C39.6618 53.6922 39.6594 53.7377 39.7061 53.7653L40.8499 54.4451C40.8966 54.4727 40.9746 54.4727 41.0225 54.4451L42.2478 53.7437C42.2969 53.7162 42.2969 53.6706 42.2514 53.643L41.1076 52.9632C41.0609 52.9357 40.9841 52.9357 40.935 52.9632L39.7097 53.6646Z" fill="url(#paint74_linear_313_1874)"/>
<path d="M23.7249 54.9582C23.6769 54.9858 23.6745 55.0314 23.7213 55.0589L24.1936 55.3395C24.2404 55.3671 24.3183 55.3671 24.3663 55.3395L25.5915 54.6381C25.6407 54.6106 25.6419 54.565 25.5951 54.5374L25.1228 54.2569C25.076 54.2293 24.9981 54.2293 24.9501 54.2569L23.7249 54.9582Z" fill="url(#paint75_linear_313_1874)"/>
<path d="M32.1135 54.547C32.0656 54.5745 32.0644 54.6201 32.11 54.6477L33.2537 55.3274C33.3005 55.355 33.3784 55.355 33.4263 55.3274L34.6516 54.6249C34.6996 54.5973 34.7008 54.553 34.654 54.5242L33.5103 53.8444C33.4635 53.8168 33.3868 53.8168 33.3388 53.8444L32.1135 54.547Z" fill="url(#paint76_linear_313_1874)"/>
<path d="M35.1407 54.547C35.0928 54.5745 35.0916 54.6201 35.1383 54.6477L36.2821 55.3274C36.3288 55.355 36.4068 55.355 36.4547 55.3274L37.68 54.6261C37.7292 54.5985 37.7303 54.553 37.6836 54.5242L36.5398 53.8444C36.4931 53.8168 36.4152 53.8168 36.366 53.8444L35.1407 54.5458V54.547Z" fill="url(#paint77_linear_313_1874)"/>
<path d="M38.1692 54.5481C38.1212 54.5757 38.1188 54.6213 38.1656 54.6489L39.3093 55.3286C39.3561 55.3562 39.434 55.3562 39.482 55.3286L40.7073 54.6273C40.7564 54.5997 40.7576 54.5541 40.7108 54.5266L39.5671 53.8468C39.5203 53.8192 39.4424 53.8192 39.3945 53.8468L38.1692 54.5481Z" fill="url(#paint78_linear_313_1874)"/>
<path d="M24.5174 55.4293C24.4694 55.4569 24.4682 55.5024 24.5138 55.53L25.6575 56.2098C25.7043 56.2374 25.7822 56.2374 25.8301 56.2098L27.0554 55.5084C27.1046 55.4809 27.1058 55.4353 27.059 55.4077L25.9153 54.728C25.8685 54.7004 25.7906 54.7004 25.7426 54.728L24.5174 55.4293Z" fill="url(#paint79_linear_313_1874)"/>
<path d="M22.1843 55.8406C22.1351 55.8681 22.1339 55.9137 22.1807 55.9413L22.653 56.2218C22.6998 56.2494 22.7765 56.2494 22.8257 56.2218L24.0498 55.5205C24.0989 55.4929 24.1001 55.4473 24.0534 55.4198L23.581 55.1392C23.5342 55.1116 23.4563 55.1116 23.4083 55.1392L22.1843 55.8406Z" fill="url(#paint80_linear_313_1874)"/>
<path d="M27.5457 55.4294C27.4977 55.457 27.4953 55.5025 27.5421 55.5301L28.6858 56.2099C28.7326 56.2375 28.8105 56.2375 28.8584 56.2099L30.0837 55.5085C30.1329 55.481 30.1341 55.4354 30.0873 55.4066L28.9436 54.7269C28.8968 54.6993 28.8189 54.6993 28.7709 54.7269L27.5457 55.4282V55.4294Z" fill="url(#paint81_linear_313_1874)"/>
<path d="M30.573 55.4293C30.5251 55.4569 30.5239 55.5024 30.5694 55.53L31.7132 56.2098C31.7599 56.2374 31.8379 56.2374 31.8858 56.2098L33.1111 55.5084C33.1602 55.4809 33.1614 55.4353 33.1147 55.4077L31.9709 54.728C31.9242 54.7004 31.8463 54.7004 31.7983 54.728L30.573 55.4293Z" fill="url(#paint82_linear_313_1874)"/>
<path d="M33.6002 55.4306C33.5522 55.4582 33.5511 55.5037 33.5978 55.5313L34.7416 56.2111C34.7883 56.2387 34.8662 56.2387 34.9142 56.2111L36.1395 55.5085C36.1874 55.481 36.1886 55.4354 36.1419 55.4078L34.9981 54.728C34.9514 54.7005 34.8734 54.6993 34.8255 54.728L33.6002 55.4306Z" fill="url(#paint83_linear_313_1874)"/>
<path d="M22.9768 56.3118C22.9276 56.3393 22.9276 56.3849 22.9732 56.4125L24.1169 57.0922C24.1637 57.1198 24.2404 57.1198 24.2896 57.0922L25.5136 56.3909C25.5628 56.3633 25.564 56.3177 25.5172 56.2902L24.3735 55.6104C24.3267 55.5828 24.2488 55.5828 24.2009 55.6104L22.9768 56.3118Z" fill="url(#paint84_linear_313_1874)"/>
<path d="M26.0041 56.313C25.9562 56.3405 25.9538 56.3861 26.0006 56.4137L27.1443 57.0934C27.1911 57.121 27.269 57.121 27.3169 57.0934L28.5422 56.3921C28.5914 56.3645 28.5926 56.3189 28.5458 56.2902L27.4021 55.6104C27.3553 55.5828 27.2774 55.5828 27.2294 55.6104L26.0041 56.3118V56.313Z" fill="url(#paint85_linear_313_1874)"/>
<path d="M29.031 56.313C28.9831 56.3406 28.9819 56.3861 29.0274 56.4137L30.1712 57.0935C30.2179 57.121 30.2959 57.121 30.3438 57.0935L31.5691 56.3921C31.6182 56.3645 31.6194 56.319 31.5727 56.2914L30.4289 55.6116C30.3822 55.584 30.3043 55.584 30.2563 55.6116L29.031 56.313Z" fill="url(#paint86_linear_313_1874)"/>
<path d="M32.0582 56.313C32.0103 56.3405 32.0091 56.3861 32.0558 56.4137L33.1996 57.0934C33.2463 57.121 33.3242 57.121 33.3722 57.0934L34.5975 56.3921C34.6466 56.3645 34.6478 56.3189 34.6011 56.2902L33.4573 55.6104C33.4106 55.5828 33.3326 55.5828 33.2835 55.6104L32.0582 56.3118V56.313Z" fill="url(#paint87_linear_313_1874)"/>
<path d="M35.0867 56.3142C35.0387 56.3418 35.0363 56.3873 35.0831 56.4149L36.2268 57.0947C36.2736 57.1222 36.3515 57.1222 36.3995 57.0947L37.6247 56.3921C37.6727 56.3645 37.6739 56.319 37.6271 56.2914L36.4834 55.6116C36.4366 55.584 36.3599 55.584 36.3119 55.6116L35.0867 56.3142Z" fill="url(#paint88_linear_313_1874)"/>
<path d="M24.4636 57.1953C24.4144 57.2229 24.4132 57.2684 24.46 57.296L25.6037 57.9758C25.6505 58.0033 25.7284 58.0045 25.7764 57.9758L27.0004 57.2744C27.0496 57.2468 27.0508 57.2013 27.004 57.1725L25.8603 56.4927C25.8135 56.4652 25.7356 56.4652 25.6876 56.4927L24.4636 57.1941V57.1953Z" fill="url(#paint89_linear_313_1874)"/>
<path d="M27.4905 57.1965C27.4425 57.2241 27.4413 57.2697 27.4869 57.2972L28.6307 57.977C28.6774 58.0046 28.7553 58.0046 28.8033 57.977L30.0286 57.2757C30.0777 57.2481 30.0789 57.2025 30.0322 57.1749L28.8884 56.4952C28.8417 56.4676 28.7637 56.4676 28.7158 56.4952L27.4905 57.1965Z" fill="url(#paint90_linear_313_1874)"/>
<path d="M30.5177 57.1965C30.4697 57.2241 30.4685 57.2696 30.5153 57.2972L31.659 57.977C31.7058 58.0046 31.7837 58.0046 31.8317 57.977L33.0569 57.2756C33.1061 57.2481 33.1073 57.2025 33.0605 57.1737L31.9168 56.4939C31.87 56.4664 31.7921 56.4664 31.743 56.4939L30.5177 57.1953V57.1965Z" fill="url(#paint91_linear_313_1874)"/>
<path d="M25.9499 58.079C25.9008 58.1065 25.9008 58.1521 25.9463 58.1797L27.0901 58.8594C27.1368 58.887 27.2136 58.887 27.2627 58.8594L28.4868 58.1581C28.5359 58.1305 28.5371 58.085 28.4904 58.0574L27.3466 57.3776C27.2999 57.35 27.222 57.35 27.174 57.3776L25.9499 58.079Z" fill="url(#paint92_linear_313_1874)"/>
<path d="M28.9762 58.0789C28.9282 58.1065 28.927 58.1521 28.9738 58.1797L30.1175 58.8594C30.1643 58.887 30.2422 58.887 30.2902 58.8594L31.5154 58.1581C31.5646 58.1305 31.5658 58.0849 31.519 58.0562L30.3753 57.3764C30.3285 57.3488 30.2506 57.3488 30.2015 57.3764L28.9762 58.0777V58.0789Z" fill="url(#paint93_linear_313_1874)"/>
<path d="M32.0046 58.0801C31.9567 58.1076 31.9543 58.1532 32.001 58.1808L33.1448 58.8605C33.1915 58.8881 33.2695 58.8881 33.3174 58.8605L34.5427 58.1592C34.5919 58.1316 34.5931 58.0861 34.5463 58.0585L33.4026 57.3787C33.3558 57.3511 33.2779 57.3511 33.2299 57.3787L32.0046 58.0801Z" fill="url(#paint94_linear_313_1874)"/>
<path d="M27.4356 58.9625C27.3865 58.9901 27.3865 59.0356 27.4332 59.0632L28.577 59.743C28.6237 59.7705 28.7016 59.7717 28.7496 59.743L29.9737 59.0416C30.0228 59.014 30.024 58.9685 29.9773 58.9397L28.8335 58.2599C28.7868 58.2324 28.7088 58.2324 28.6597 58.2599L27.4356 58.9613V58.9625Z" fill="url(#paint95_linear_313_1874)"/>
<path d="M30.4626 58.9637C30.4147 58.9913 30.4123 59.0369 30.459 59.0644L31.6028 59.7442C31.6496 59.7718 31.7275 59.7718 31.7754 59.7442L33.0007 59.0429C33.0499 59.0153 33.0511 58.9697 33.0043 58.9422L31.8606 58.2624C31.8138 58.2348 31.7359 58.2348 31.6879 58.2624L30.4626 58.9637Z" fill="url(#paint96_linear_313_1874)"/>
<path d="M28.9221 59.8461C28.8729 59.8736 28.8717 59.9192 28.9185 59.9468L30.0622 60.6265C30.109 60.6541 30.1857 60.6541 30.2349 60.6265L31.4589 59.9252C31.5081 59.8976 31.5093 59.8521 31.4625 59.8245L30.3188 59.1447C30.272 59.1171 30.1941 59.1171 30.1461 59.1447L28.9221 59.8461Z" fill="url(#paint97_linear_313_1874)"/>
<path d="M19.935 55.9365C19.935 55.9437 19.935 55.9521 19.9374 55.9593C19.9374 55.9653 19.9398 55.9713 19.941 55.9773C19.9422 55.9845 19.9446 55.9917 19.947 55.9988C19.9494 56.0048 19.9518 56.0108 19.9542 56.0168C19.9578 56.024 19.9602 56.0324 19.9637 56.0396C19.9661 56.0444 19.9697 56.0504 19.9733 56.0552C19.9781 56.0636 19.9841 56.072 19.9889 56.0804C19.9925 56.0852 19.9961 56.09 19.9997 56.0948C20.0081 56.1055 20.0189 56.1163 20.0285 56.1271C20.0321 56.1307 20.0357 56.1355 20.0405 56.1391C20.0477 56.1451 20.0549 56.1511 20.0621 56.1571C20.0681 56.1619 20.0752 56.1679 20.0812 56.1727C20.0896 56.1787 20.098 56.1847 20.1064 56.1895C20.1148 56.1955 20.1232 56.2015 20.1328 56.2075L35.0998 65.1057C35.1298 65.1237 35.1634 65.1392 35.1981 65.1536C35.2065 65.1572 35.2161 65.1608 35.2257 65.1644C35.2473 65.1728 35.2701 65.1788 35.2916 65.1848C35.3144 65.192 35.3384 65.198 35.3624 65.2028C35.3912 65.2088 35.4199 65.2136 35.4487 65.2184C35.4559 65.2184 35.4631 65.2208 35.4691 65.2208C35.5086 65.2256 35.5482 65.2268 35.589 65.228C35.595 65.228 35.6022 65.228 35.6082 65.228C35.6477 65.228 35.6873 65.2256 35.7268 65.2208C35.7328 65.2208 35.7388 65.2196 35.7448 65.2184C35.7844 65.2136 35.8228 65.2076 35.8599 65.198C35.8671 65.1968 35.8731 65.1944 35.8803 65.1932C35.9151 65.1848 35.9474 65.174 35.9798 65.1632C35.9858 65.1608 35.9918 65.1596 35.9978 65.1572C36.0362 65.1428 36.0733 65.1249 36.1081 65.1057L59.0814 51.943C59.224 51.8615 59.2972 51.7536 59.2996 51.6469L59.2816 52.4201C59.2792 52.5268 59.206 52.6347 59.0634 52.7163L36.0901 65.879C36.0577 65.8981 36.023 65.9137 35.9858 65.9281C35.9834 65.9281 35.9822 65.9293 35.9798 65.9305C35.9738 65.9329 35.9678 65.9341 35.9618 65.9365C35.9403 65.9437 35.9199 65.9521 35.8983 65.9581C35.8863 65.9617 35.8743 65.9641 35.8623 65.9665C35.8551 65.9677 35.8491 65.9701 35.8419 65.9713C35.8359 65.9725 35.83 65.9749 35.8228 65.9761C35.7988 65.9809 35.776 65.9857 35.752 65.9881C35.7436 65.9893 35.7352 65.9905 35.7268 65.9905C35.7209 65.9905 35.7149 65.9917 35.7089 65.9929C35.7005 65.9929 35.6909 65.9953 35.6825 65.9953C35.6597 65.9977 35.6357 65.9988 35.6118 65.9988C35.6046 65.9988 35.5974 65.9988 35.5902 65.9988C35.5842 65.9988 35.577 65.9988 35.571 65.9988C35.5602 65.9988 35.5494 65.9988 35.5386 65.9988C35.5122 65.9988 35.4859 65.9965 35.4595 65.9941C35.4571 65.9941 35.4535 65.9941 35.4511 65.9929C35.4439 65.9929 35.4367 65.9905 35.4307 65.9905C35.4103 65.9881 35.39 65.9857 35.3696 65.9821C35.3612 65.9809 35.3528 65.9773 35.3444 65.9761C35.3204 65.9713 35.2964 65.9653 35.2737 65.9581C35.2617 65.9545 35.2485 65.9521 35.2365 65.9485C35.2269 65.9449 35.2173 65.9413 35.2077 65.9377C35.1981 65.9341 35.1897 65.9305 35.1801 65.9269C35.1454 65.9125 35.1118 65.8969 35.0818 65.879L20.1148 56.9807C20.1148 56.9807 20.1088 56.9771 20.1064 56.9759C20.1004 56.9724 20.0944 56.9676 20.0884 56.964C20.08 56.958 20.0717 56.9532 20.0633 56.9472C20.0561 56.9424 20.0501 56.9364 20.0441 56.9316C20.0369 56.9256 20.0297 56.9196 20.0225 56.9136C20.0213 56.9124 20.0201 56.9112 20.0177 56.91C20.0153 56.9076 20.0129 56.9052 20.0105 56.9016C19.9997 56.8908 19.9901 56.88 19.9817 56.8692C19.9793 56.8669 19.9769 56.8645 19.9757 56.8621C19.9733 56.8597 19.9721 56.8573 19.9709 56.8549C19.9649 56.8465 19.9602 56.8381 19.9554 56.8297C19.953 56.8261 19.9506 56.8225 19.9482 56.8189C19.9482 56.8165 19.947 56.8153 19.9458 56.8129C19.9422 56.8057 19.9386 56.7985 19.9362 56.7901C19.935 56.7853 19.9326 56.7817 19.9302 56.7769C19.9302 56.7757 19.9302 56.7733 19.9302 56.7721C19.9278 56.7649 19.9266 56.7577 19.9242 56.7506C19.9242 56.7458 19.9218 56.741 19.9206 56.7362C19.9206 56.735 19.9206 56.7338 19.9206 56.7326C19.9206 56.7254 19.9194 56.717 19.9182 56.7098C19.9182 56.705 19.917 56.7002 19.917 56.6954C19.917 56.693 19.917 56.6906 19.917 56.6894L19.935 55.9161C19.935 55.9233 19.935 55.9305 19.9362 55.9377L19.935 55.9365Z" fill="url(#paint98_linear_313_1874)"/>
</g>
<defs>
<linearGradient id="paint0_linear_313_1874" x1="45.4077" y1="22.1156" x2="53.9714" y2="22.1156" gradientUnits="userSpaceOnUse">
<stop stop-color="#BED9FD"/>
<stop offset="1" stop-color="white"/>
</linearGradient>
<linearGradient id="paint1_linear_313_1874" x1="37.1094" y1="21.7547" x2="46.5435" y2="21.7547" gradientUnits="userSpaceOnUse">
<stop stop-color="#BED9FD"/>
<stop offset="1" stop-color="white"/>
</linearGradient>
<linearGradient id="paint2_linear_313_1874" x1="7.00003" y1="46.6474" x2="15.8791" y2="46.6474" gradientUnits="userSpaceOnUse">
<stop stop-color="#BED9FD"/>
<stop offset="1" stop-color="white"/>
</linearGradient>
<linearGradient id="paint3_linear_313_1874" x1="13.0654" y1="28.1305" x2="36.6394" y2="28.1305" gradientUnits="userSpaceOnUse">
<stop stop-color="#BED9FD"/>
<stop offset="1" stop-color="white"/>
</linearGradient>
<linearGradient id="paint4_linear_313_1874" x1="23.8878" y1="22.4741" x2="33.8771" y2="40.4144" gradientUnits="userSpaceOnUse">
<stop stop-color="white"/>
<stop offset="1" stop-color="#BED9FD"/>
</linearGradient>
<linearGradient id="paint5_linear_313_1874" x1="43.1937" y1="40.1163" x2="21.6771" y2="40.1163" gradientUnits="userSpaceOnUse">
<stop stop-color="#BED9FD"/>
<stop offset="1" stop-color="white"/>
</linearGradient>
<linearGradient id="paint6_linear_313_1874" x1="43.7357" y1="40.1163" x2="21.1353" y2="40.1163" gradientUnits="userSpaceOnUse">
<stop stop-color="#3D75DA"/>
<stop offset="1" stop-color="#55CDED"/>
</linearGradient>
<linearGradient id="paint7_linear_313_1874" x1="43.5461" y1="39.9141" x2="20.5021" y2="39.9141" gradientUnits="userSpaceOnUse">
<stop stop-color="#55CDED"/>
<stop offset="1" stop-color="#003CCF"/>
</linearGradient>
<linearGradient id="paint8_linear_313_1874" x1="53.0569" y1="52.2446" x2="22.5378" y2="52.2446" gradientUnits="userSpaceOnUse">
<stop stop-color="#BED9FD"/>
<stop offset="1" stop-color="white"/>
</linearGradient>
<linearGradient id="paint9_linear_313_1874" x1="60.2299" y1="53.8781" x2="20.9757" y2="53.8781" gradientUnits="userSpaceOnUse">
<stop stop-color="#BED9FD"/>
<stop offset="1" stop-color="white"/>
</linearGradient>
<linearGradient id="paint10_linear_313_1874" x1="50.9959" y1="56.6268" x2="46.6271" y2="56.6268" gradientUnits="userSpaceOnUse">
<stop stop-color="#BED9FD"/>
<stop offset="1" stop-color="white"/>
</linearGradient>
<linearGradient id="paint11_linear_313_1874" x1="49.7745" y1="56.2659" x2="39.6271" y2="56.2659" gradientUnits="userSpaceOnUse">
<stop stop-color="#BED9FD"/>
<stop offset="1" stop-color="white"/>
</linearGradient>
<linearGradient id="paint12_linear_313_1874" x1="47.4878" y1="58.6732" x2="43.119" y2="58.6732" gradientUnits="userSpaceOnUse">
<stop stop-color="#BED9FD"/>
<stop offset="1" stop-color="white"/>
</linearGradient>
<linearGradient id="paint13_linear_313_1874" x1="44.6626" y1="41.5319" x2="29.5022" y2="59.1381" gradientUnits="userSpaceOnUse">
<stop stop-color="#55CDED"/>
<stop offset="1" stop-color="#003CCF"/>
</linearGradient>
<linearGradient id="paint14_linear_313_1874" x1="42.9766" y1="40.08" x2="27.8162" y2="57.6863" gradientUnits="userSpaceOnUse">
<stop stop-color="#55CDED"/>
<stop offset="1" stop-color="#003CCF"/>
</linearGradient>
<linearGradient id="paint15_linear_313_1874" x1="44.2848" y1="41.2062" x2="29.1244" y2="58.8112" gradientUnits="userSpaceOnUse">
<stop stop-color="#55CDED"/>
<stop offset="1" stop-color="#003CCF"/>
</linearGradient>
<linearGradient id="paint16_linear_313_1874" x1="42.085" y1="39.3111" x2="26.9234" y2="56.9173" gradientUnits="userSpaceOnUse">
<stop stop-color="#55CDED"/>
<stop offset="1" stop-color="#003CCF"/>
</linearGradient>
<linearGradient id="paint17_linear_313_1874" x1="43.3914" y1="40.4372" x2="28.231" y2="58.0435" gradientUnits="userSpaceOnUse">
<stop stop-color="#55CDED"/>
<stop offset="1" stop-color="#003CCF"/>
</linearGradient>
<linearGradient id="paint18_linear_313_1874" x1="45.5555" y1="42.3008" x2="30.3951" y2="59.907" gradientUnits="userSpaceOnUse">
<stop stop-color="#55CDED"/>
<stop offset="1" stop-color="#003CCF"/>
</linearGradient>
<linearGradient id="paint19_linear_313_1874" x1="45.6549" y1="42.3867" x2="30.4944" y2="59.9918" gradientUnits="userSpaceOnUse">
<stop stop-color="#55CDED"/>
<stop offset="1" stop-color="#003CCF"/>
</linearGradient>
<linearGradient id="paint20_linear_313_1874" x1="44.3161" y1="41.2328" x2="29.1557" y2="58.839" gradientUnits="userSpaceOnUse">
<stop stop-color="#55CDED"/>
<stop offset="1" stop-color="#003CCF"/>
</linearGradient>
<linearGradient id="paint21_linear_313_1874" x1="42.4313" y1="39.6102" x2="27.2709" y2="57.2152" gradientUnits="userSpaceOnUse">
<stop stop-color="#55CDED"/>
<stop offset="1" stop-color="#003CCF"/>
</linearGradient>
<linearGradient id="paint22_linear_313_1874" x1="43.424" y1="40.4639" x2="28.2636" y2="58.0702" gradientUnits="userSpaceOnUse">
<stop stop-color="#55CDED"/>
<stop offset="1" stop-color="#003CCF"/>
</linearGradient>
<linearGradient id="paint23_linear_313_1874" x1="41.9839" y1="39.2251" x2="26.8235" y2="56.8314" gradientUnits="userSpaceOnUse">
<stop stop-color="#55CDED"/>
<stop offset="1" stop-color="#003CCF"/>
</linearGradient>
<linearGradient id="paint24_linear_313_1874" x1="41.0922" y1="38.4562" x2="25.9318" y2="56.0625" gradientUnits="userSpaceOnUse">
<stop stop-color="#55CDED"/>
<stop offset="1" stop-color="#003CCF"/>
</linearGradient>
<linearGradient id="paint25_linear_313_1874" x1="41.6378" y1="38.9273" x2="26.4774" y2="56.5335" gradientUnits="userSpaceOnUse">
<stop stop-color="#55CDED"/>
<stop offset="1" stop-color="#003CCF"/>
</linearGradient>
<linearGradient id="paint26_linear_313_1874" x1="46.1023" y1="42.7706" x2="30.9419" y2="60.3769" gradientUnits="userSpaceOnUse">
<stop stop-color="#55CDED"/>
<stop offset="1" stop-color="#003CCF"/>
</linearGradient>
<linearGradient id="paint27_linear_313_1874" x1="47.8551" y1="44.2806" x2="32.6948" y2="61.8868" gradientUnits="userSpaceOnUse">
<stop stop-color="#55CDED"/>
<stop offset="1" stop-color="#003CCF"/>
</linearGradient>
<linearGradient id="paint28_linear_313_1874" x1="46.963" y1="43.5117" x2="31.8026" y2="61.1179" gradientUnits="userSpaceOnUse">
<stop stop-color="#55CDED"/>
<stop offset="1" stop-color="#003CCF"/>
</linearGradient>
<linearGradient id="paint29_linear_313_1874" x1="48.716" y1="45.0216" x2="33.5555" y2="62.6279" gradientUnits="userSpaceOnUse">
<stop stop-color="#55CDED"/>
<stop offset="1" stop-color="#003CCF"/>
</linearGradient>
<linearGradient id="paint30_linear_313_1874" x1="48.27" y1="44.6366" x2="33.1096" y2="62.2429" gradientUnits="userSpaceOnUse">
<stop stop-color="#55CDED"/>
<stop offset="1" stop-color="#003CCF"/>
</linearGradient>
<linearGradient id="paint31_linear_313_1874" x1="50.0228" y1="46.1465" x2="34.8624" y2="63.7528" gradientUnits="userSpaceOnUse">
<stop stop-color="#55CDED"/>
<stop offset="1" stop-color="#003CCF"/>
</linearGradient>
<linearGradient id="paint32_linear_313_1874" x1="49.5766" y1="45.7627" x2="34.4162" y2="63.369" gradientUnits="userSpaceOnUse">
<stop stop-color="#55CDED"/>
<stop offset="1" stop-color="#003CCF"/>
</linearGradient>
<linearGradient id="paint33_linear_313_1874" x1="50.8837" y1="46.8876" x2="35.7233" y2="64.4939" gradientUnits="userSpaceOnUse">
<stop stop-color="#55CDED"/>
<stop offset="1" stop-color="#003CCF"/>
</linearGradient>
<linearGradient id="paint34_linear_313_1874" x1="46.9305" y1="43.4838" x2="31.7701" y2="61.0901" gradientUnits="userSpaceOnUse">
<stop stop-color="#55CDED"/>
<stop offset="1" stop-color="#003CCF"/>
</linearGradient>
<linearGradient id="paint35_linear_313_1874" x1="48.2373" y1="44.61" x2="33.0769" y2="62.2162" gradientUnits="userSpaceOnUse">
<stop stop-color="#55CDED"/>
<stop offset="1" stop-color="#003CCF"/>
</linearGradient>
<linearGradient id="paint36_linear_313_1874" x1="46.0377" y1="42.7149" x2="30.8773" y2="60.3212" gradientUnits="userSpaceOnUse">
<stop stop-color="#55CDED"/>
<stop offset="1" stop-color="#003CCF"/>
</linearGradient>
<linearGradient id="paint37_linear_313_1874" x1="45.5918" y1="42.331" x2="30.4313" y2="59.9373" gradientUnits="userSpaceOnUse">
<stop stop-color="#55CDED"/>
<stop offset="1" stop-color="#003CCF"/>
</linearGradient>
<linearGradient id="paint38_linear_313_1874" x1="47.3445" y1="43.841" x2="32.1841" y2="61.4473" gradientUnits="userSpaceOnUse">
<stop stop-color="#55CDED"/>
<stop offset="1" stop-color="#003CCF"/>
</linearGradient>
<linearGradient id="paint39_linear_313_1874" x1="48.2049" y1="44.5821" x2="33.0446" y2="62.1883" gradientUnits="userSpaceOnUse">
<stop stop-color="#55CDED"/>
<stop offset="1" stop-color="#003CCF"/>
</linearGradient>
<linearGradient id="paint40_linear_313_1874" x1="47.3121" y1="43.8131" x2="32.1517" y2="61.4194" gradientUnits="userSpaceOnUse">
<stop stop-color="#55CDED"/>
<stop offset="1" stop-color="#003CCF"/>
</linearGradient>
<linearGradient id="paint41_linear_313_1874" x1="46.5482" y1="43.1545" x2="31.3878" y2="60.7607" gradientUnits="userSpaceOnUse">
<stop stop-color="#55CDED"/>
<stop offset="1" stop-color="#003CCF"/>
</linearGradient>
<linearGradient id="paint42_linear_313_1874" x1="45.1095" y1="41.9157" x2="29.9491" y2="59.522" gradientUnits="userSpaceOnUse">
<stop stop-color="#55CDED"/>
<stop offset="1" stop-color="#003CCF"/>
</linearGradient>
<linearGradient id="paint43_linear_313_1874" x1="44.2162" y1="41.1468" x2="29.0558" y2="58.753" gradientUnits="userSpaceOnUse">
<stop stop-color="#55CDED"/>
<stop offset="1" stop-color="#003CCF"/>
</linearGradient>
<linearGradient id="paint44_linear_313_1874" x1="47.4092" y1="43.8967" x2="32.2488" y2="61.5017" gradientUnits="userSpaceOnUse">
<stop stop-color="#55CDED"/>
<stop offset="1" stop-color="#003CCF"/>
</linearGradient>
<linearGradient id="paint45_linear_313_1874" x1="49.1617" y1="45.4055" x2="34.0013" y2="63.0117" gradientUnits="userSpaceOnUse">
<stop stop-color="#55CDED"/>
<stop offset="1" stop-color="#003CCF"/>
</linearGradient>
<linearGradient id="paint46_linear_313_1874" x1="45.2089" y1="42.0017" x2="30.0486" y2="59.6079" gradientUnits="userSpaceOnUse">
<stop stop-color="#55CDED"/>
<stop offset="1" stop-color="#003CCF"/>
</linearGradient>
<linearGradient id="paint47_linear_313_1874" x1="43.7705" y1="40.763" x2="28.6102" y2="58.3692" gradientUnits="userSpaceOnUse">
<stop stop-color="#55CDED"/>
<stop offset="1" stop-color="#003CCF"/>
</linearGradient>
<linearGradient id="paint48_linear_313_1874" x1="50.4699" y1="46.5316" x2="35.3083" y2="64.1378" gradientUnits="userSpaceOnUse">
<stop stop-color="#55CDED"/>
<stop offset="1" stop-color="#003CCF"/>
</linearGradient>
<linearGradient id="paint49_linear_313_1874" x1="44.7633" y1="41.6178" x2="29.6029" y2="59.2241" gradientUnits="userSpaceOnUse">
<stop stop-color="#55CDED"/>
<stop offset="1" stop-color="#003CCF"/>
</linearGradient>
<linearGradient id="paint50_linear_313_1874" x1="43.3234" y1="40.3779" x2="28.163" y2="57.9841" gradientUnits="userSpaceOnUse">
<stop stop-color="#55CDED"/>
<stop offset="1" stop-color="#003CCF"/>
</linearGradient>
<linearGradient id="paint51_linear_313_1874" x1="46.5159" y1="43.1278" x2="31.3555" y2="60.7341" gradientUnits="userSpaceOnUse">
<stop stop-color="#55CDED"/>
<stop offset="1" stop-color="#003CCF"/>
</linearGradient>
<linearGradient id="paint52_linear_313_1874" x1="51.7765" y1="47.6565" x2="36.6161" y2="65.2628" gradientUnits="userSpaceOnUse">
<stop stop-color="#55CDED"/>
<stop offset="1" stop-color="#003CCF"/>
</linearGradient>
<linearGradient id="paint53_linear_313_1874" x1="42.8772" y1="39.994" x2="27.7168" y2="57.6003" gradientUnits="userSpaceOnUse">
<stop stop-color="#55CDED"/>
<stop offset="1" stop-color="#003CCF"/>
</linearGradient>
<linearGradient id="paint54_linear_313_1874" x1="46.0697" y1="42.7428" x2="30.9094" y2="60.349" gradientUnits="userSpaceOnUse">
<stop stop-color="#55CDED"/>
<stop offset="1" stop-color="#003CCF"/>
</linearGradient>
<linearGradient id="paint55_linear_313_1874" x1="47.8226" y1="44.2527" x2="32.6622" y2="61.859" gradientUnits="userSpaceOnUse">
<stop stop-color="#55CDED"/>
<stop offset="1" stop-color="#003CCF"/>
</linearGradient>
<linearGradient id="paint56_linear_313_1874" x1="51.3294" y1="47.2726" x2="36.169" y2="64.8789" gradientUnits="userSpaceOnUse">
<stop stop-color="#55CDED"/>
<stop offset="1" stop-color="#003CCF"/>
</linearGradient>
<linearGradient id="paint57_linear_313_1874" x1="43.8699" y1="40.8489" x2="28.7095" y2="58.4552" gradientUnits="userSpaceOnUse">
<stop stop-color="#55CDED"/>
<stop offset="1" stop-color="#003CCF"/>
</linearGradient>
<linearGradient id="paint58_linear_313_1874" x1="45.6237" y1="42.3589" x2="30.4633" y2="59.9651" gradientUnits="userSpaceOnUse">
<stop stop-color="#55CDED"/>
<stop offset="1" stop-color="#003CCF"/>
</linearGradient>
<linearGradient id="paint59_linear_313_1874" x1="47.3767" y1="43.8688" x2="32.2163" y2="61.4751" gradientUnits="userSpaceOnUse">
<stop stop-color="#55CDED"/>
<stop offset="1" stop-color="#003CCF"/>
</linearGradient>
<linearGradient id="paint60_linear_313_1874" x1="49.1294" y1="45.3788" x2="33.969" y2="62.9839" gradientUnits="userSpaceOnUse">
<stop stop-color="#55CDED"/>
<stop offset="1" stop-color="#003CCF"/>
</linearGradient>
<linearGradient id="paint61_linear_313_1874" x1="45.1769" y1="41.9739" x2="30.0165" y2="59.5801" gradientUnits="userSpaceOnUse">
<stop stop-color="#55CDED"/>
<stop offset="1" stop-color="#003CCF"/>
</linearGradient>
<linearGradient id="paint62_linear_313_1874" x1="48.6833" y1="44.9938" x2="33.5229" y2="62.6001" gradientUnits="userSpaceOnUse">
<stop stop-color="#55CDED"/>
<stop offset="1" stop-color="#003CCF"/>
</linearGradient>
<linearGradient id="paint63_linear_313_1874" x1="50.4373" y1="46.5038" x2="35.2769" y2="64.11" gradientUnits="userSpaceOnUse">
<stop stop-color="#55CDED"/>
<stop offset="1" stop-color="#003CCF"/>
</linearGradient>
<linearGradient id="paint64_linear_313_1874" x1="41.5379" y1="38.8413" x2="26.3775" y2="56.4475" gradientUnits="userSpaceOnUse">
<stop stop-color="#55CDED"/>
<stop offset="1" stop-color="#003CCF"/>
</linearGradient>
<linearGradient id="paint65_linear_313_1874" x1="44.731" y1="41.59" x2="29.5706" y2="59.1963" gradientUnits="userSpaceOnUse">
<stop stop-color="#55CDED"/>
<stop offset="1" stop-color="#003CCF"/>
</linearGradient>
<linearGradient id="paint66_linear_313_1874" x1="46.4834" y1="43.1" x2="31.323" y2="60.7062" gradientUnits="userSpaceOnUse">
<stop stop-color="#55CDED"/>
<stop offset="1" stop-color="#003CCF"/>
</linearGradient>
<linearGradient id="paint67_linear_313_1874" x1="49.9904" y1="46.1199" x2="34.83" y2="63.725" gradientUnits="userSpaceOnUse">
<stop stop-color="#55CDED"/>
<stop offset="1" stop-color="#003CCF"/>
</linearGradient>
<linearGradient id="paint68_linear_313_1874" x1="42.5307" y1="39.6962" x2="27.3703" y2="57.3012" gradientUnits="userSpaceOnUse">
<stop stop-color="#55CDED"/>
<stop offset="1" stop-color="#003CCF"/>
</linearGradient>
<linearGradient id="paint69_linear_313_1874" x1="47.7904" y1="44.2248" x2="32.6301" y2="61.8311" gradientUnits="userSpaceOnUse">
<stop stop-color="#55CDED"/>
<stop offset="1" stop-color="#003CCF"/>
</linearGradient>
<linearGradient id="paint70_linear_313_1874" x1="49.5444" y1="45.7349" x2="34.384" y2="63.3411" gradientUnits="userSpaceOnUse">
<stop stop-color="#55CDED"/>
<stop offset="1" stop-color="#003CCF"/>
</linearGradient>
<linearGradient id="paint71_linear_313_1874" x1="41.4444" y1="38.7601" x2="26.284" y2="56.3664" gradientUnits="userSpaceOnUse">
<stop stop-color="#55CDED"/>
<stop offset="1" stop-color="#003CCF"/>
</linearGradient>
<linearGradient id="paint72_linear_313_1874" x1="40.6451" y1="38.0723" x2="25.4847" y2="55.6786" gradientUnits="userSpaceOnUse">
<stop stop-color="#55CDED"/>
<stop offset="1" stop-color="#003CCF"/>
</linearGradient>
<linearGradient id="paint73_linear_313_1874" x1="43.8376" y1="40.8211" x2="28.6772" y2="58.4273" gradientUnits="userSpaceOnUse">
<stop stop-color="#55CDED"/>
<stop offset="1" stop-color="#003CCF"/>
</linearGradient>
<linearGradient id="paint74_linear_313_1874" x1="49.0983" y1="45.351" x2="33.9379" y2="62.9573" gradientUnits="userSpaceOnUse">
<stop stop-color="#55CDED"/>
<stop offset="1" stop-color="#003CCF"/>
</linearGradient>
<linearGradient id="paint75_linear_313_1874" x1="40.1989" y1="37.6874" x2="25.0385" y2="55.2936" gradientUnits="userSpaceOnUse">
<stop stop-color="#55CDED"/>
<stop offset="1" stop-color="#003CCF"/>
</linearGradient>
<linearGradient id="paint76_linear_313_1874" x1="45.1456" y1="41.946" x2="29.9852" y2="59.5523" gradientUnits="userSpaceOnUse">
<stop stop-color="#55CDED"/>
<stop offset="1" stop-color="#003CCF"/>
</linearGradient>
<linearGradient id="paint77_linear_313_1874" x1="46.8983" y1="43.456" x2="31.7379" y2="61.0622" gradientUnits="userSpaceOnUse">
<stop stop-color="#55CDED"/>
<stop offset="1" stop-color="#003CCF"/>
</linearGradient>
<linearGradient id="paint78_linear_313_1874" x1="48.6511" y1="44.9659" x2="33.4907" y2="62.5722" gradientUnits="userSpaceOnUse">
<stop stop-color="#55CDED"/>
<stop offset="1" stop-color="#003CCF"/>
</linearGradient>
<linearGradient id="paint79_linear_313_1874" x1="41.1916" y1="38.5421" x2="26.0312" y2="56.1484" gradientUnits="userSpaceOnUse">
<stop stop-color="#55CDED"/>
<stop offset="1" stop-color="#003CCF"/>
</linearGradient>
<linearGradient id="paint80_linear_313_1874" x1="39.7529" y1="37.3034" x2="24.5925" y2="54.9097" gradientUnits="userSpaceOnUse">
<stop stop-color="#55CDED"/>
<stop offset="1" stop-color="#003CCF"/>
</linearGradient>
<linearGradient id="paint81_linear_313_1874" x1="42.9455" y1="40.0522" x2="27.7839" y2="57.6584" gradientUnits="userSpaceOnUse">
<stop stop-color="#55CDED"/>
<stop offset="1" stop-color="#003CCF"/>
</linearGradient>
<linearGradient id="paint82_linear_313_1874" x1="44.6984" y1="41.5621" x2="29.538" y2="59.1683" gradientUnits="userSpaceOnUse">
<stop stop-color="#55CDED"/>
<stop offset="1" stop-color="#003CCF"/>
</linearGradient>
<linearGradient id="paint83_linear_313_1874" x1="46.4512" y1="43.0722" x2="31.2908" y2="60.6784" gradientUnits="userSpaceOnUse">
<stop stop-color="#55CDED"/>
<stop offset="1" stop-color="#003CCF"/>
</linearGradient>
<linearGradient id="paint84_linear_313_1874" x1="40.7456" y1="38.1584" x2="25.5841" y2="55.7646" gradientUnits="userSpaceOnUse">
<stop stop-color="#55CDED"/>
<stop offset="1" stop-color="#003CCF"/>
</linearGradient>
<linearGradient id="paint85_linear_313_1874" x1="42.4986" y1="39.6683" x2="27.3382" y2="57.2746" gradientUnits="userSpaceOnUse">
<stop stop-color="#55CDED"/>
<stop offset="1" stop-color="#003CCF"/>
</linearGradient>
<linearGradient id="paint86_linear_313_1874" x1="44.2522" y1="41.1783" x2="29.0918" y2="58.7834" gradientUnits="userSpaceOnUse">
<stop stop-color="#55CDED"/>
<stop offset="1" stop-color="#003CCF"/>
</linearGradient>
<linearGradient id="paint87_linear_313_1874" x1="46.005" y1="42.6871" x2="30.8446" y2="60.2933" gradientUnits="userSpaceOnUse">
<stop stop-color="#55CDED"/>
<stop offset="1" stop-color="#003CCF"/>
</linearGradient>
<linearGradient id="paint88_linear_313_1874" x1="47.759" y1="44.1971" x2="32.5974" y2="61.8033" gradientUnits="userSpaceOnUse">
<stop stop-color="#55CDED"/>
<stop offset="1" stop-color="#003CCF"/>
</linearGradient>
<linearGradient id="paint89_linear_313_1874" x1="42.0526" y1="39.2832" x2="26.8922" y2="56.8895" gradientUnits="userSpaceOnUse">
<stop stop-color="#55CDED"/>
<stop offset="1" stop-color="#003CCF"/>
</linearGradient>
<linearGradient id="paint90_linear_313_1874" x1="43.8051" y1="40.7932" x2="28.6447" y2="58.3995" gradientUnits="userSpaceOnUse">
<stop stop-color="#55CDED"/>
<stop offset="1" stop-color="#003CCF"/>
</linearGradient>
<linearGradient id="paint91_linear_313_1874" x1="45.559" y1="42.3032" x2="30.3987" y2="59.9094" gradientUnits="userSpaceOnUse">
<stop stop-color="#55CDED"/>
<stop offset="1" stop-color="#003CCF"/>
</linearGradient>
<linearGradient id="paint92_linear_313_1874" x1="43.3591" y1="40.4094" x2="28.1987" y2="58.0157" gradientUnits="userSpaceOnUse">
<stop stop-color="#55CDED"/>
<stop offset="1" stop-color="#003CCF"/>
</linearGradient>
<linearGradient id="paint93_linear_313_1874" x1="45.1121" y1="41.9194" x2="29.9518" y2="59.5244" gradientUnits="userSpaceOnUse">
<stop stop-color="#55CDED"/>
<stop offset="1" stop-color="#003CCF"/>
</linearGradient>
<linearGradient id="paint94_linear_313_1874" x1="46.8662" y1="43.4293" x2="31.7058" y2="61.0343" gradientUnits="userSpaceOnUse">
<stop stop-color="#55CDED"/>
<stop offset="1" stop-color="#003CCF"/>
</linearGradient>
<linearGradient id="paint95_linear_313_1874" x1="44.6662" y1="41.5343" x2="29.5058" y2="59.1405" gradientUnits="userSpaceOnUse">
<stop stop-color="#55CDED"/>
<stop offset="1" stop-color="#003CCF"/>
</linearGradient>
<linearGradient id="paint96_linear_313_1874" x1="46.4188" y1="43.0443" x2="31.2584" y2="60.6506" gradientUnits="userSpaceOnUse">
<stop stop-color="#55CDED"/>
<stop offset="1" stop-color="#003CCF"/>
</linearGradient>
<linearGradient id="paint97_linear_313_1874" x1="45.9728" y1="42.6604" x2="30.8123" y2="60.2666" gradientUnits="userSpaceOnUse">
<stop stop-color="#55CDED"/>
<stop offset="1" stop-color="#003CCF"/>
</linearGradient>
<linearGradient id="paint98_linear_313_1874" x1="60.2323" y1="58.9335" x2="20.9756" y2="58.9335" gradientUnits="userSpaceOnUse">
<stop stop-color="#55CDED"/>
<stop offset="1" stop-color="#003CCF"/>
</linearGradient>
<clipPath id="clip0_313_1874">
<rect width="52.2995" height="50" fill="white" transform="translate(7 16)"/>
</clipPath>
</defs>
</svg>
