<svg width="67" height="81" viewBox="0 0 67 81" fill="none" xmlns="http://www.w3.org/2000/svg">
<path d="M45.2285 40.6054L31.6924 48.4225L18.1526 40.6054L31.6924 32.7883L45.2285 40.6054Z" fill="url(#paint0_linear_313_2116)"/>
<path d="M45.2285 53.0465L31.6924 60.8636L18.1526 53.0465L31.6924 45.233L45.2285 53.0465Z" fill="url(#paint1_linear_313_2116)"/>
<path d="M31.6924 60.8636L18.1526 53.0465V56.7744L31.6924 64.5915L31.7145 64.5804V60.8526L31.6924 60.8636Z" fill="url(#paint2_linear_313_2116)"/>
<path d="M45.2286 53.0465L31.7109 60.8526V64.5804L45.2286 56.7744V53.0465Z" fill="url(#paint3_linear_313_2116)"/>
<path d="M39.1444 44.1195L31.6924 48.4226L24.2403 44.1195V51.6158C24.0781 52.6003 24.4837 53.6623 25.4682 54.2301L30.4239 57.0915C31.2056 57.545 32.1717 57.545 32.9571 57.0915L37.9129 54.2301C38.8974 53.6623 39.303 52.5966 39.1407 51.6158V44.1195H39.1444Z" fill="url(#paint4_linear_313_2116)"/>
<path d="M45.2285 53.0465V40.6055L31.6924 48.4226L18.1526 40.6055V53.0465L31.6924 60.8636L45.2285 53.0465Z" fill="url(#paint5_linear_313_2116)"/>
<path d="M31.6924 48.4152L18.1526 40.6018V42.0472L31.6924 49.8643L31.7145 49.8533V48.4079L31.6924 48.4189V48.4152Z" fill="url(#paint6_linear_313_2116)"/>
<path d="M45.2286 40.6018L31.7109 48.4079V49.8533L45.2286 42.0472V40.6018Z" fill="url(#paint7_linear_313_2116)"/>
<path d="M45.2285 21.966L31.6924 29.7795L18.1526 21.966L31.6924 14.1489L45.2285 21.966Z" fill="url(#paint8_linear_313_2116)"/>
<path d="M45.2285 34.4071L31.6924 42.2242L18.1526 34.4071L31.6924 26.59L45.2285 34.4071Z" fill="url(#paint9_linear_313_2116)"/>
<path d="M31.6924 42.2242L18.1526 34.4071V38.135L31.6924 45.9521L31.7145 45.941V42.2132L31.6924 42.2242Z" fill="url(#paint10_linear_313_2116)"/>
<path d="M45.2286 34.4071L31.7109 42.2132V45.941L45.2286 38.135V34.4071Z" fill="url(#paint11_linear_313_2116)"/>
<path d="M39.1444 25.4801L31.6924 29.7832L24.2403 25.4801V32.9764C24.0781 33.9572 24.4837 35.0229 25.4682 35.5907L30.4239 38.4521C31.2056 38.9056 32.1717 38.9056 32.9571 38.4521L37.9129 35.5907C38.8974 35.0229 39.303 33.9572 39.1407 32.9764V25.4801H39.1444Z" fill="url(#paint12_linear_313_2116)"/>
<path d="M45.2285 34.4071V21.9661L31.6924 29.7795L18.1526 21.9661V34.4071L31.6924 42.2242L45.2285 34.4071Z" fill="url(#paint13_linear_313_2116)"/>
<path d="M31.6924 29.7757L18.1526 21.9586V23.404L31.6924 31.2212L31.7145 31.2101V29.7647L31.6924 29.7757Z" fill="url(#paint14_linear_313_2116)"/>
<path d="M45.2286 21.9586L31.7109 29.7647V31.2101L45.2286 23.404V21.9586Z" fill="url(#paint15_linear_313_2116)"/>
<defs>
<linearGradient id="paint0_linear_313_2116" x1="47.2381" y1="39.4771" x2="18.1563" y2="41.5863" gradientUnits="userSpaceOnUse">
<stop stop-color="#BED9FD"/>
<stop offset="1" stop-color="white"/>
</linearGradient>
<linearGradient id="paint1_linear_313_2116" x1="18.1526" y1="53.0465" x2="45.2285" y2="53.0465" gradientUnits="userSpaceOnUse">
<stop stop-color="#BED9FD"/>
<stop offset="1" stop-color="white"/>
</linearGradient>
<linearGradient id="paint2_linear_313_2116" x1="35.9255" y1="64.0568" x2="15.1253" y2="54.1601" gradientUnits="userSpaceOnUse">
<stop stop-color="#55CDED"/>
<stop offset="1" stop-color="#3D75DA"/>
</linearGradient>
<linearGradient id="paint3_linear_313_2116" x1="46.1984" y1="54.8754" x2="31.8547" y2="62.1874" gradientUnits="userSpaceOnUse">
<stop stop-color="#55CDED"/>
<stop offset="1" stop-color="#3D75DA"/>
</linearGradient>
<linearGradient id="paint4_linear_313_2116" x1="38.772" y1="50.7751" x2="24.8118" y2="50.7751" gradientUnits="userSpaceOnUse">
<stop offset="0.43" stop-color="#A0EAFE"/>
<stop offset="1" stop-color="#4A83E5"/>
</linearGradient>
<linearGradient id="paint5_linear_313_2116" x1="48.3333" y1="50.7345" x2="6.64816" y2="50.7345" gradientUnits="userSpaceOnUse">
<stop stop-color="#BED9FD"/>
<stop offset="1" stop-color="white"/>
</linearGradient>
<linearGradient id="paint6_linear_313_2116" x1="35.2986" y1="50.1704" x2="15.6858" y2="40.8378" gradientUnits="userSpaceOnUse">
<stop stop-color="#55CDED"/>
<stop offset="1" stop-color="#3D75DA"/>
</linearGradient>
<linearGradient id="paint7_linear_313_2116" x1="45.7338" y1="41.5199" x2="32.253" y2="48.3968" gradientUnits="userSpaceOnUse">
<stop stop-color="#55CDED"/>
<stop offset="1" stop-color="#3D75DA"/>
</linearGradient>
<linearGradient id="paint8_linear_313_2116" x1="14.9999" y1="20.8377" x2="15.3687" y2="22.9432" gradientUnits="userSpaceOnUse">
<stop stop-color="#BED9FD"/>
<stop offset="1" stop-color="white"/>
</linearGradient>
<linearGradient id="paint9_linear_313_2116" x1="18.1526" y1="34.4071" x2="45.2285" y2="34.4071" gradientUnits="userSpaceOnUse">
<stop stop-color="#BED9FD"/>
<stop offset="1" stop-color="white"/>
</linearGradient>
<linearGradient id="paint10_linear_313_2116" x1="35.9255" y1="45.4137" x2="15.1253" y2="35.517" gradientUnits="userSpaceOnUse">
<stop stop-color="#55CDED"/>
<stop offset="1" stop-color="#3D75DA"/>
</linearGradient>
<linearGradient id="paint11_linear_313_2116" x1="46.1984" y1="36.2323" x2="31.8547" y2="43.548" gradientUnits="userSpaceOnUse">
<stop stop-color="#55CDED"/>
<stop offset="1" stop-color="#3D75DA"/>
</linearGradient>
<linearGradient id="paint12_linear_313_2116" x1="14.9999" y1="32.1357" x2="15.3686" y2="32.1357" gradientUnits="userSpaceOnUse">
<stop offset="0.43" stop-color="#A0EAFE"/>
<stop offset="1" stop-color="#4A83E5"/>
</linearGradient>
<linearGradient id="paint13_linear_313_2116" x1="48.3333" y1="32.0951" x2="6.64816" y2="32.0951" gradientUnits="userSpaceOnUse">
<stop stop-color="#BED9FD"/>
<stop offset="1" stop-color="white"/>
</linearGradient>
<linearGradient id="paint14_linear_313_2116" x1="35.2986" y1="31.5272" x2="15.6858" y2="22.1946" gradientUnits="userSpaceOnUse">
<stop stop-color="#55CDED"/>
<stop offset="1" stop-color="#3D75DA"/>
</linearGradient>
<linearGradient id="paint15_linear_313_2116" x1="45.7338" y1="22.8804" x2="32.253" y2="29.7573" gradientUnits="userSpaceOnUse">
<stop stop-color="#55CDED"/>
<stop offset="1" stop-color="#3D75DA"/>
</linearGradient>
</defs>
</svg>
