<svg width="67" height="81" viewBox="0 0 67 81" fill="none" xmlns="http://www.w3.org/2000/svg">
<path d="M51.3142 58.64V40.8217L14.3921 40.1929V57.639C14.3078 58.0931 14.5343 58.5401 15.0896 58.8617L31.7539 68.5099C32.8176 69.1255 34.6776 69.0508 35.9088 68.3425L50.2998 60.0567C51.0022 59.652 51.3455 59.1291 51.3154 58.64H51.3142Z" fill="url(#paint0_linear_313_3023)"/>
<path d="M51.3142 32.813C51.3034 33.278 50.9613 33.7659 50.2987 34.1466L35.9076 42.4324C34.6777 43.1407 32.8177 43.2154 31.7527 42.5998L15.0897 32.9516C14.6873 32.7191 14.4572 32.4203 14.3922 32.1011V39.9327C14.3078 40.3868 14.5331 40.8338 15.0897 41.1554L31.7539 50.8036C32.8177 51.4192 34.6777 51.3445 35.9089 50.6362L50.2999 42.3504C51.0022 41.9457 51.3456 41.4228 51.3154 40.9337V32.8118L51.3142 32.813Z" fill="url(#paint1_linear_313_3023)"/>
<path d="M51.3144 32.7298C51.2915 32.3624 51.0566 32.013 50.6 31.748L33.937 22.101C32.8732 21.4854 31.0132 21.5601 29.782 22.2684L15.391 30.5542C14.626 30.9951 14.2851 31.5769 14.3923 32.1022C14.4574 32.4214 14.6875 32.7202 15.0898 32.9527L31.7541 42.6009C32.8178 43.2165 34.6778 43.1418 35.909 42.4335L50.3 34.1477C50.9626 33.7658 51.3047 33.2792 51.3156 32.8141V32.731L51.3144 32.7298Z" fill="url(#paint2_linear_313_3023)"/>
<path d="M45.5587 20.8867L45.5237 33.0804L29.7847 23.9923L29.8184 11.7998L45.5587 20.8867Z" fill="url(#paint3_linear_313_3023)"/>
<path d="M45.6033 20.4556C45.7985 20.5688 45.9563 20.8423 45.9563 21.0664L45.9214 33.3601C45.9214 33.5841 45.7611 33.6745 45.566 33.5625L29.7402 24.425C29.545 24.3118 29.3872 24.0395 29.3872 23.8142L29.4221 11.5205C29.4221 11.2965 29.5812 11.2049 29.7775 11.3181L45.6045 20.4556H45.6033ZM45.5238 33.0794L45.5588 20.8869L29.8185 11.8L29.7835 23.9925L45.5226 33.0794" fill="url(#paint4_linear_313_3023)"/>
<path d="M46.4202 20.7964C46.4202 20.7964 46.4202 20.7856 46.4202 20.7808C46.4202 20.7747 46.4202 20.7699 46.4202 20.7639C46.4202 20.7615 46.4202 20.7591 46.4202 20.7567V20.747C46.4202 20.747 46.4178 20.735 46.4178 20.7302C46.4178 20.7241 46.4166 20.7181 46.4154 20.7121C46.4154 20.7049 46.4142 20.7001 46.413 20.694C46.413 20.688 46.4106 20.682 46.4094 20.676C46.4094 20.6735 46.4094 20.6711 46.4082 20.6699V20.6663C46.4082 20.6663 46.4058 20.6615 46.4058 20.6579C46.4046 20.6519 46.4022 20.6458 46.401 20.6386C46.3997 20.6338 46.3985 20.629 46.3973 20.6254V20.6205C46.3937 20.6145 46.3925 20.6085 46.3901 20.6025C46.3877 20.5964 46.3865 20.5904 46.3841 20.5844V20.5808L46.3817 20.5784C46.3817 20.5784 46.3793 20.5712 46.3781 20.5675C46.3757 20.5615 46.3732 20.5555 46.3708 20.5507C46.3696 20.5471 46.3672 20.5422 46.366 20.5386V20.5362L46.3636 20.5338C46.3636 20.5338 46.3588 20.523 46.3564 20.5169C46.354 20.5109 46.3504 20.5049 46.3479 20.4977V20.4953L46.3443 20.4916C46.3443 20.4916 46.3395 20.482 46.3371 20.4772C46.3335 20.4712 46.3299 20.4651 46.3275 20.4591C46.3263 20.4555 46.3239 20.4531 46.3226 20.4495L46.3202 20.4459C46.3202 20.4459 46.3142 20.4362 46.3106 20.4302C46.3058 20.423 46.301 20.4145 46.2961 20.4073L46.2937 20.4037C46.2865 20.3929 46.2793 20.3832 46.2721 20.3724C46.2672 20.3639 46.2612 20.3567 46.2564 20.3507C46.2516 20.3459 46.248 20.3399 46.2431 20.335C46.2383 20.329 46.2347 20.323 46.2299 20.3182C46.2251 20.3134 46.2203 20.3073 46.2166 20.3025L46.2142 20.3001L46.2118 20.2977C46.2118 20.2977 46.2058 20.2905 46.2022 20.2868C46.1974 20.282 46.1925 20.2772 46.1877 20.2724L46.1829 20.2688L46.1793 20.2652C46.1793 20.2652 46.1745 20.2603 46.1721 20.2579C46.1672 20.2531 46.1612 20.2483 46.1564 20.2447C46.154 20.2423 46.1516 20.2411 46.1492 20.2387L46.1456 20.2363L46.1407 20.2314C46.1407 20.2314 46.1299 20.223 46.1251 20.2194C46.1215 20.217 46.1179 20.2146 46.1142 20.211H46.1118L46.1094 20.2085C46.1094 20.2085 46.0998 20.2013 46.095 20.1989C46.0901 20.1953 46.0853 20.1929 46.0805 20.1893L46.0769 20.1869L30.2415 11.0482C30.2415 11.0482 30.2342 11.0434 30.2306 11.0422C30.2258 11.0398 30.221 11.0374 30.2162 11.035C30.2125 11.0337 30.2101 11.0325 30.2065 11.0301H30.2041L30.2017 11.0277C30.2017 11.0277 30.1921 11.0241 30.1872 11.0217C30.1824 11.0193 30.1776 11.0181 30.1728 11.0169H30.168C30.168 11.0169 30.1619 11.0133 30.1583 11.0121C30.1535 11.0109 30.1487 11.0097 30.1439 11.0084C30.1415 11.0084 30.1391 11.0084 30.1366 11.0072H30.1294C30.1294 11.0072 30.1186 11.0036 30.1138 11.0024C30.1101 11.0024 30.1077 11.0024 30.1041 11.0024H30.0981C30.0981 11.0024 30.0873 11.0012 30.0812 11.0012C30.0788 11.0012 30.0764 11.0012 30.074 11.0012H30.068C30.068 11.0012 30.0644 11.0012 30.062 11.0012C30.0547 11.0012 30.0487 11.0024 30.0415 11.0036C30.0415 11.0036 30.0391 11.0036 30.0379 11.0048C30.0306 11.006 30.0246 11.0084 30.0174 11.0109H30.0162C30.0065 11.0145 29.9981 11.0193 29.9897 11.0241L29.5259 11.294C29.5343 11.2891 29.5439 11.2843 29.5524 11.2819C29.5596 11.2795 29.5668 11.2771 29.5741 11.2759C29.5753 11.2759 29.5765 11.2759 29.5777 11.2759C29.5861 11.2747 29.5945 11.2735 29.6042 11.2723H29.6102C29.6186 11.2723 29.6283 11.2723 29.6367 11.2723H29.6403C29.65 11.2735 29.6596 11.2747 29.6692 11.2771H29.6728C29.6825 11.2795 29.6933 11.2831 29.7042 11.2867H29.7066C29.7174 11.2915 29.7283 11.2952 29.7403 11.3012H29.7427C29.7548 11.3072 29.7656 11.3132 29.7777 11.3205L45.6047 20.4579C45.6167 20.4651 45.6288 20.4724 45.6396 20.4808H45.642C45.6529 20.4892 45.6637 20.4977 45.6745 20.5061L45.6781 20.5085C45.6878 20.5169 45.6986 20.5254 45.7083 20.535L45.7119 20.5386C45.7215 20.5483 45.7312 20.5579 45.7408 20.5675L45.7432 20.5699C45.7528 20.5808 45.7637 20.5916 45.7733 20.6037C45.783 20.6157 45.7926 20.6278 45.8022 20.641C45.8107 20.6531 45.8191 20.6651 45.8263 20.6772C45.8311 20.6844 45.836 20.6928 45.8408 20.7001C45.8444 20.7061 45.8492 20.7121 45.8528 20.7193C45.854 20.7229 45.8564 20.7254 45.8576 20.729C45.8637 20.7398 45.8697 20.7506 45.8757 20.7615L45.8781 20.7651C45.8854 20.7784 45.8914 20.7928 45.8974 20.8061V20.8085C45.9046 20.8217 45.9094 20.8362 45.9143 20.8494V20.8518C45.9203 20.8663 45.9251 20.8795 45.9299 20.894V20.8964C45.9347 20.9097 45.9384 20.9229 45.942 20.9374V20.941C45.9456 20.9554 45.9492 20.9687 45.9516 20.9832C45.954 20.9976 45.9552 21.0121 45.9564 21.0253V21.0289C45.9576 21.0422 45.9588 21.0566 45.9588 21.0699L45.9239 33.3636C45.9239 33.3768 45.9239 33.3901 45.9215 33.4021V33.4058C45.9203 33.4178 45.9179 33.4286 45.9167 33.4383V33.4419C45.9143 33.4527 45.9107 33.4624 45.9082 33.4708V33.4756C45.9034 33.4841 45.8998 33.4925 45.8962 33.5009V33.5033C45.8914 33.5118 45.8866 33.5214 45.8805 33.5286C45.8733 33.5395 45.8649 33.5503 45.8564 33.5587C45.854 33.5612 45.8516 33.5636 45.8504 33.5648C45.8408 33.5732 45.8311 33.5816 45.8203 33.5877L46.2841 33.3178C46.2949 33.3118 46.3046 33.3034 46.3142 33.2949C46.3166 33.2925 46.319 33.2913 46.3202 33.2889C46.3287 33.2793 46.3371 33.2696 46.3443 33.2588C46.3492 33.2503 46.354 33.2431 46.3576 33.2347V33.2311C46.3576 33.2311 46.3636 33.2202 46.366 33.2142C46.366 33.2118 46.3684 33.2082 46.3684 33.2058V33.201C46.3684 33.201 46.3708 33.1973 46.372 33.1961C46.3732 33.1901 46.3757 33.1841 46.3769 33.1781C46.3769 33.1757 46.3769 33.1732 46.3781 33.1708V33.1672C46.3781 33.1672 46.3793 33.1624 46.3805 33.1612C46.3805 33.1552 46.3817 33.1504 46.3829 33.1443C46.3829 33.1407 46.3829 33.1383 46.3829 33.1347V33.1275C46.3829 33.1275 46.3841 33.1166 46.3841 33.1106C46.3841 33.1046 46.3841 33.0998 46.3841 33.0937L46.1516 33.2275L46.3841 33.0925L46.419 20.7988L46.4202 20.7964Z" fill="url(#paint5_linear_313_3023)"/>
<path d="M44.8794 33.9973C44.9421 34.0334 44.9433 34.0924 44.8794 34.1286L38.7585 37.686C38.6959 37.7221 38.5947 37.7221 38.5308 37.686L22.6002 28.4883C22.5376 28.4521 22.5376 28.3931 22.6002 28.357L28.7212 24.7996C28.7838 24.7634 28.8862 24.7634 28.9488 24.7996L44.8807 33.9985L44.8794 33.9973ZM36.3239 34.8393L37.1756 34.3442C37.2105 34.3237 37.2105 34.2912 37.1756 34.2707L36.2913 33.7599C36.2564 33.7395 36.1986 33.7395 36.1636 33.7599L35.3119 34.2551C35.277 34.2755 35.277 34.3081 35.3119 34.3285L36.1962 34.8393C36.2311 34.8598 36.2877 34.8598 36.3226 34.8393M37.4358 35.4814L38.2875 34.9863C38.3224 34.9658 38.3224 34.9333 38.2875 34.9128L37.4032 34.402C37.3683 34.3815 37.3105 34.3815 37.2755 34.402L36.4238 34.8971C36.3889 34.9176 36.3889 34.9501 36.4238 34.9706L37.3081 35.4814C37.343 35.5019 37.3996 35.5019 37.4346 35.4814M38.5477 36.1235L39.3994 35.6284C39.4343 35.6079 39.4343 35.5754 39.3994 35.5549L38.5152 35.0441C38.4802 35.0236 38.4224 35.0236 38.3875 35.0441L37.5358 35.5392C37.5008 35.5597 37.5008 35.5922 37.5358 35.6127L38.42 36.1235C38.4549 36.144 38.5115 36.144 38.5465 36.1235M32.9809 32.9106L33.8326 32.4155C33.8675 32.395 33.8675 32.3625 33.8326 32.342L32.9484 31.8312C32.9134 31.8108 32.8556 31.8108 32.8207 31.8312L31.969 32.3264C31.934 32.3468 31.934 32.3794 31.969 32.3999L32.8532 32.9106C32.8881 32.9311 32.9447 32.9311 32.9797 32.9106M34.0928 33.5527L34.9445 33.0576C34.9794 33.0371 34.9794 33.0046 34.9445 32.9841L34.0603 32.4733C34.0253 32.4529 33.9675 32.4529 33.9326 32.4733L33.0809 32.9685C33.0459 32.9889 33.0459 33.0215 33.0809 33.0419L33.9651 33.5527C34 33.5732 34.0567 33.5732 34.0916 33.5527M37.4237 34.1948L38.2754 33.6997C38.3104 33.6792 38.3104 33.6467 38.2754 33.6262L37.3912 33.1154C37.3563 33.095 37.2984 33.095 37.2647 33.1154L36.413 33.6106C36.3781 33.631 36.3781 33.6636 36.413 33.684L37.2972 34.1948C37.3322 34.2153 37.3888 34.2153 37.4237 34.1948ZM39.656 36.7656L40.5077 36.2705C40.5426 36.25 40.5426 36.2175 40.5077 36.197L39.6235 35.6862C39.5885 35.6657 39.5307 35.6657 39.4958 35.6862L38.6441 36.1813C38.6091 36.2018 38.6091 36.2343 38.6441 36.2548L39.5283 36.7656C39.5632 36.7861 39.6198 36.7861 39.6548 36.7656M30.751 31.6252L31.6027 31.1301C31.6377 31.1096 31.6377 31.0771 31.6027 31.0566L30.7185 30.5459C30.6836 30.5254 30.6269 30.5254 30.592 30.5459L29.7403 31.041C29.7054 31.0615 29.7054 31.094 29.7403 31.1145L30.6245 31.6252C30.6595 31.6457 30.7161 31.6457 30.751 31.6252ZM29.6379 30.9832L30.4896 30.488C30.5246 30.4676 30.5246 30.435 30.4896 30.4146L29.6054 29.9038C29.5705 29.8833 29.5138 29.8833 29.4789 29.9038L28.6272 30.3989C28.5923 30.4194 28.5923 30.4519 28.6272 30.4724L29.5114 30.9832C29.5464 31.0036 29.603 31.0036 29.6379 30.9832ZM25.1854 28.4124L26.0371 27.9173C26.0721 27.8968 26.0721 27.8643 26.0371 27.8438L25.1529 27.333C25.118 27.3125 25.0614 27.3125 25.0264 27.333L24.1747 27.8281C24.1398 27.8486 24.1398 27.8811 24.1747 27.9016L25.0589 28.4124C25.0939 28.4329 25.1505 28.4329 25.1854 28.4124ZM35.2023 34.196L36.054 33.7009C36.0889 33.6804 36.0889 33.6479 36.054 33.6274L35.1686 33.1166C35.1336 33.0962 35.077 33.0974 35.0421 33.1166L34.1904 33.6118C34.1554 33.6322 34.1554 33.6648 34.1904 33.6852L35.0758 34.196C35.1107 34.2165 35.1674 34.2165 35.2023 34.196ZM28.5236 30.3399L29.3753 29.8447C29.4102 29.8243 29.4102 29.7917 29.3753 29.7713L28.4911 29.2605C28.4561 29.24 28.3995 29.24 28.3646 29.2605L27.5129 29.7556C27.4779 29.7761 27.4779 29.8086 27.5129 29.8291L28.3971 30.3399C28.432 30.3603 28.4887 30.3603 28.5236 30.3399ZM38.5344 34.8381L39.3861 34.343C39.4211 34.3225 39.4211 34.29 39.3861 34.2695L38.5019 33.7587C38.467 33.7382 38.4091 33.7382 38.3754 33.7587L37.5237 34.2538C37.4888 34.2743 37.4888 34.3069 37.5237 34.3273L38.4079 34.8381C38.4429 34.8586 38.4995 34.8586 38.5344 34.8381ZM39.6475 35.4802L40.4993 34.9851C40.5342 34.9646 40.5342 34.9321 40.4993 34.9116L39.615 34.4008C39.5801 34.3803 39.5223 34.3803 39.4885 34.4008L38.6368 34.8959C38.6019 34.9164 38.6019 34.9489 38.6368 34.9694L39.5211 35.4802C39.556 35.5007 39.6126 35.5007 39.6475 35.4802ZM35.1951 32.9094L36.0468 32.4143C36.0817 32.3938 36.0817 32.3613 36.0468 32.3408L35.1625 31.83C35.1276 31.8096 35.0698 31.8096 35.0361 31.83L34.1844 32.3252C34.1494 32.3456 34.1494 32.3782 34.1844 32.3987L35.0686 32.9094C35.1035 32.9299 35.1601 32.9299 35.1951 32.9094ZM34.082 32.2673L34.9337 31.7722C34.9686 31.7517 34.9686 31.7192 34.9337 31.6987L34.0494 31.188C34.0145 31.1675 33.9567 31.1675 33.9229 31.188L33.0712 31.6831C33.0363 31.7036 33.0363 31.7361 33.0712 31.7566L33.9555 32.2673C33.9904 32.2878 34.047 32.2878 34.082 32.2673ZM35.2083 35.4814L36.06 34.9863C36.095 34.9658 36.095 34.9333 36.06 34.9128L35.1758 34.402C35.1409 34.3815 35.0842 34.3815 35.0493 34.402L34.1976 34.8971C34.1627 34.9176 34.1627 34.9501 34.1976 34.9706L35.0818 35.4814C35.1168 35.5019 35.1734 35.5019 35.2083 35.4814ZM39.6343 32.9094L40.486 32.4143C40.5209 32.3938 40.5209 32.3613 40.486 32.3408L39.6018 31.83C39.5668 31.8096 39.509 31.8096 39.4753 31.83L38.6236 32.3252C38.5886 32.3456 38.5886 32.3782 38.6236 32.3987L39.5078 32.9094C39.5427 32.9299 39.5994 32.9299 39.6343 32.9094ZM38.5284 33.5527L39.3801 33.0576C39.415 33.0371 39.415 33.0046 39.3801 32.9841L38.4959 32.4733C38.4609 32.4529 38.4043 32.4529 38.3694 32.4733L37.5177 32.9685C37.4827 32.9889 37.4827 33.0215 37.5177 33.0419L38.4019 33.5527C38.4369 33.5732 38.4935 33.5732 38.5284 33.5527ZM26.2986 29.0557L27.1503 28.5606C27.1852 28.5401 27.1852 28.5076 27.1503 28.4871L26.266 27.9763C26.2311 27.9558 26.1745 27.9558 26.1395 27.9763L25.2878 28.4714C25.2529 28.4919 25.2529 28.5244 25.2878 28.5449L26.1721 29.0557C26.207 29.0762 26.2636 29.0762 26.2986 29.0557ZM31.8642 32.2685L32.7159 31.7734C32.7508 31.7529 32.7508 31.7204 32.7159 31.6999L31.8316 31.1892C31.7967 31.1687 31.7401 31.1687 31.7051 31.1892L30.8534 31.6843C30.8185 31.7048 30.8185 31.7373 30.8534 31.7578L31.7377 32.2685C31.7726 32.289 31.8292 32.289 31.8642 32.2685ZM27.4117 29.6978L28.2634 29.2027C28.2983 29.1822 28.2983 29.1496 28.2634 29.1292L27.3791 28.6184C27.3442 28.5979 27.2876 28.5979 27.2527 28.6184L26.401 29.1135C26.366 29.134 26.366 29.1665 26.401 29.187L27.2852 29.6978C27.3201 29.7183 27.3767 29.7183 27.4117 29.6978ZM41.8617 34.1948L42.7134 33.6997C42.7484 33.6792 42.7484 33.6467 42.7134 33.6262L41.8292 33.1154C41.7943 33.095 41.7365 33.095 41.7027 33.1154L40.851 33.6106C40.8161 33.631 40.8161 33.6636 40.851 33.684L41.7352 34.1948C41.7702 34.2153 41.8268 34.2153 41.8617 34.1948ZM40.7486 33.5527L41.6003 33.0576C41.6353 33.0371 41.6353 33.0046 41.6003 32.9841L40.7161 32.4733C40.6812 32.4529 40.6233 32.4529 40.5896 32.4733L39.7379 32.9685C39.703 32.9889 39.703 33.0215 39.7379 33.0419L40.6221 33.5527C40.6571 33.5732 40.7137 33.5732 40.7486 33.5527ZM36.3226 36.1247L37.1744 35.6296C37.2093 35.6091 37.2093 35.5766 37.1744 35.5561L36.2901 35.0453C36.2552 35.0248 36.1986 35.0248 36.1636 35.0453L35.3119 35.5404C35.277 35.5609 35.277 35.5934 35.3119 35.6139L36.1962 36.1247C36.2311 36.1452 36.2877 36.1452 36.3226 36.1247ZM40.7558 34.8381L41.6076 34.343C41.6425 34.3225 41.6425 34.29 41.6076 34.2695L40.7233 33.7587C40.6884 33.7382 40.6318 33.7382 40.5968 33.7587L39.7451 34.2538C39.7102 34.2743 39.7102 34.3069 39.7451 34.3273L40.6294 34.8381C40.6643 34.8586 40.7209 34.8586 40.7558 34.8381ZM37.4358 36.7668L38.2875 36.2717C38.3224 36.2512 38.3224 36.2187 38.2875 36.1982L37.4032 35.6874C37.3683 35.6669 37.3117 35.6669 37.2767 35.6874L36.425 36.1825C36.3901 36.203 36.3901 36.2355 36.425 36.256L37.3093 36.7668C37.3442 36.7873 37.4008 36.7873 37.4358 36.7668ZM39.6427 34.1948L40.4944 33.6997C40.5294 33.6792 40.5294 33.6467 40.4944 33.6262L39.6102 33.1154C39.5753 33.095 39.5186 33.095 39.4837 33.1154L38.632 33.6106C38.5971 33.631 38.5971 33.6636 38.632 33.684L39.5162 34.1948C39.5512 34.2153 39.6078 34.2153 39.6427 34.1948ZM36.2973 30.982L37.1491 30.4868C37.184 30.4664 37.184 30.4338 37.1491 30.4133L36.2648 29.9026C36.2299 29.8821 36.1721 29.8821 36.1383 29.9026L35.2866 30.3977C35.2517 30.4182 35.2517 30.4507 35.2866 30.4712L36.1709 30.982C36.2058 31.0024 36.2624 31.0024 36.2973 30.982ZM32.9845 34.196L33.8362 33.7009C33.8711 33.6804 33.8711 33.6479 33.8362 33.6274L32.952 33.1166C32.917 33.0962 32.8604 33.0962 32.8255 33.1166L31.9738 33.6118C31.9388 33.6322 31.9388 33.6648 31.9738 33.6852L32.858 34.196C32.8929 34.2165 32.9496 34.2165 32.9845 34.196ZM35.1915 31.624L36.0432 31.1289C36.0781 31.1084 36.0781 31.0759 36.0432 31.0554L35.1589 30.5447C35.124 30.5242 35.0674 30.5242 35.0324 30.5447L34.1807 31.0398C34.1458 31.0603 34.1458 31.0928 34.1807 31.1133L35.065 31.624C35.0999 31.6445 35.1565 31.6445 35.1915 31.624ZM37.4105 31.624L38.2622 31.1289C38.2971 31.1084 38.2971 31.0759 38.2622 31.0554L37.3779 30.5447C37.343 30.5242 37.2852 30.5242 37.2515 30.5447L36.3997 31.0398C36.3648 31.0603 36.3648 31.0928 36.3997 31.1133L37.284 31.624C37.3189 31.6445 37.3755 31.6445 37.4105 31.624ZM36.3046 32.2673L37.1563 31.7722C37.1912 31.7517 37.1912 31.7192 37.1563 31.6987L36.2721 31.188C36.2371 31.1675 36.1805 31.1675 36.1456 31.188L35.2939 31.6831C35.2589 31.7036 35.2589 31.7361 35.2939 31.7566L36.1781 32.2673C36.213 32.2878 36.2696 32.2878 36.3046 32.2673ZM31.8714 33.5539L32.7231 33.0588C32.758 33.0383 32.758 33.0058 32.7231 32.9853L31.8389 32.4745C31.8039 32.4541 31.7473 32.4541 31.7124 32.4745L30.8607 32.9697C30.8257 32.9901 30.8257 33.0227 30.8607 33.0431L31.7449 33.5539C31.7798 33.5744 31.8364 33.5744 31.8714 33.5539ZM40.7619 36.1235L41.6136 35.6284C41.6485 35.6079 41.6485 35.5754 41.6136 35.5549L40.7293 35.0441C40.6944 35.0236 40.6366 35.0236 40.6029 35.0441L39.7512 35.5392C39.7162 35.5597 39.7162 35.5922 39.7512 35.6127L40.6354 36.1235C40.6703 36.144 40.7269 36.144 40.7619 36.1235ZM26.2925 27.7703L27.1442 27.2752C27.1792 27.2547 27.1792 27.2222 27.1442 27.2017L26.26 26.6909C26.2251 26.6704 26.1684 26.6704 26.1335 26.6909L25.2818 27.186C25.2469 27.2065 25.2469 27.239 25.2818 27.2595L26.166 27.7703C26.201 27.7908 26.2576 27.7908 26.2925 27.7703ZM36.3094 33.5539L37.1611 33.0588C37.196 33.0383 37.196 33.0058 37.1611 32.9853L36.2757 32.4745C36.2407 32.4541 36.1841 32.4553 36.1492 32.4745L35.2975 32.9697C35.2625 32.9901 35.2625 33.0227 35.2975 33.0431L36.1829 33.5539C36.2178 33.5744 36.2745 33.5744 36.3094 33.5539ZM31.8569 30.9832L32.7086 30.488C32.7436 30.4676 32.7436 30.435 32.7086 30.4146L31.8244 29.9038C31.7895 29.8833 31.7328 29.8833 31.6979 29.9038L30.8462 30.3989C30.8113 30.4194 30.8113 30.4519 30.8462 30.4724L31.7304 30.9832C31.7654 31.0036 31.822 31.0036 31.8569 30.9832ZM30.7438 30.3411L31.5955 29.8459C31.6304 29.8255 31.6304 29.7929 31.5955 29.7725L30.7113 29.2617C30.6763 29.2412 30.6197 29.2412 30.5848 29.2617L29.7331 29.7568C29.6981 29.7773 29.6981 29.8098 29.7331 29.8303L30.6173 30.3411C30.6522 30.3615 30.7089 30.3615 30.7438 30.3411ZM29.6307 29.699L30.4824 29.2039C30.5173 29.1834 30.5173 29.1508 30.4824 29.1304L29.5982 28.6196C29.5632 28.5991 29.5066 28.5991 29.4717 28.6196L28.62 29.1147C28.585 29.1352 28.585 29.1677 28.62 29.1882L29.5042 29.699C29.5391 29.7195 29.5957 29.7195 29.6307 29.699ZM28.5176 29.0569L29.3693 28.5618C29.4042 28.5413 29.4042 28.5088 29.3693 28.4883L28.485 27.9775C28.4501 27.957 28.3935 27.957 28.3585 27.9775L27.5068 28.4726C27.4719 28.4931 27.4719 28.5256 27.5068 28.5461L28.3911 29.0569C28.426 29.0774 28.4826 29.0774 28.5176 29.0569ZM32.97 31.6277L33.8217 31.1325C33.8567 31.1121 33.8567 31.0795 33.8217 31.0591L32.9375 30.5483C32.9026 30.5278 32.846 30.5278 32.811 30.5483L31.9593 31.0434C31.9244 31.0639 31.9244 31.0964 31.9593 31.1169L32.8435 31.6277C32.8785 31.6481 32.9351 31.6481 32.97 31.6277ZM27.4044 28.4148L28.2562 27.9197C28.2911 27.8992 28.2911 27.8667 28.2562 27.8462L27.3719 27.3354C27.337 27.3149 27.2804 27.3149 27.2454 27.3354L26.3937 27.8305C26.3588 27.851 26.3588 27.8835 26.3937 27.904L27.278 28.4148C27.3129 28.4353 27.3695 28.4353 27.4044 28.4148ZM42.9737 34.8393L43.8254 34.3442C43.8603 34.3237 43.8603 34.2912 43.8254 34.2707L42.9411 33.7599C42.9062 33.7395 42.8484 33.7395 42.8146 33.7599L41.9629 34.2551C41.928 34.2755 41.928 34.3081 41.9629 34.3285L42.8472 34.8393C42.8821 34.8598 42.9387 34.8598 42.9737 34.8393ZM38.5477 37.4113L39.3994 36.9162C39.4343 36.8957 39.4343 36.8632 39.3994 36.8427L38.5152 36.3319C38.4802 36.3114 38.4236 36.3114 38.3887 36.3319L37.537 36.827C37.502 36.8475 37.502 36.88 37.537 36.9005L38.4212 37.4113C38.4561 37.4318 38.5127 37.4318 38.5477 37.4113ZM41.8678 35.4826L42.7195 34.9875C42.7544 34.967 42.7544 34.9345 42.7195 34.914L41.8352 34.4032C41.8003 34.3827 41.7437 34.3827 41.7087 34.4032L40.857 34.8983C40.8221 34.9188 40.8221 34.9514 40.857 34.9718L41.7413 35.4826C41.7762 35.5031 41.8328 35.5031 41.8678 35.4826ZM38.5224 32.2697L39.3741 31.7746C39.409 31.7541 39.409 31.7216 39.3741 31.7011L38.4887 31.1904C38.4537 31.1699 38.3971 31.1711 38.3622 31.1904L37.5105 31.6855C37.4755 31.706 37.4755 31.7385 37.5105 31.759L38.3959 32.2697C38.4308 32.2902 38.4874 32.2902 38.5224 32.2697ZM30.7378 29.0569L31.5895 28.5618C31.6244 28.5413 31.6244 28.5088 31.5895 28.4883L30.7053 27.9775C30.6703 27.957 30.6137 27.957 30.5788 27.9775L29.7271 28.4726C29.6921 28.4931 29.6921 28.5256 29.7271 28.5461L30.6113 29.0569C30.6462 29.0774 30.7028 29.0774 30.7378 29.0569ZM31.8437 28.4136L32.6954 27.9185C32.7303 27.898 32.7303 27.8655 32.6954 27.845L31.8111 27.3342C31.7762 27.3137 31.7196 27.3137 31.6847 27.3342L30.8329 27.8293C30.798 27.8498 30.798 27.8823 30.8329 27.9028L31.7172 28.4136C31.7521 28.4341 31.8087 28.4341 31.8437 28.4136ZM24.0783 29.0581L24.93 28.563C24.965 28.5425 24.965 28.51 24.93 28.4895L24.0458 27.9787C24.0109 27.9582 23.9543 27.9582 23.9193 27.9787L23.0676 28.4738C23.0327 28.4943 23.0327 28.5268 23.0676 28.5473L23.9518 29.0581C23.9868 29.0786 24.0434 29.0786 24.0783 29.0581ZM34.0699 29.699L34.9216 29.2039C34.9565 29.1834 34.9565 29.1508 34.9216 29.1304L34.0374 28.6196C34.0024 28.5991 33.9458 28.5991 33.9109 28.6196L33.0592 29.1147C33.0243 29.1352 33.0243 29.1677 33.0592 29.1882L33.9434 29.699C33.9784 29.7195 34.035 29.7195 34.0699 29.699ZM27.3984 27.1282L28.2501 26.6331C28.2851 26.6126 28.2851 26.5801 28.2501 26.5596L27.3659 26.0488C27.331 26.0283 27.2743 26.0283 27.2394 26.0488L26.3877 26.5439C26.3528 26.5644 26.3528 26.5969 26.3877 26.6174L27.2719 27.1282C27.3069 27.1487 27.3635 27.1487 27.3984 27.1282ZM28.5043 26.4849L29.356 25.9898C29.391 25.9693 29.391 25.9368 29.356 25.9163L28.4718 25.4055C28.4369 25.385 28.3802 25.385 28.3453 25.4055L27.4936 25.9006C27.4587 25.9211 27.4587 25.9536 27.4936 25.9741L28.3778 26.4849C28.4128 26.5054 28.4694 26.5054 28.5043 26.4849ZM29.6439 32.2697L30.4956 31.7746C30.5306 31.7541 30.5306 31.7216 30.4956 31.7011L29.6114 31.1904C29.5765 31.1699 29.5199 31.1699 29.4849 31.1904L28.6332 31.6855C28.5983 31.706 28.5983 31.7385 28.6332 31.759L29.5174 32.2697C29.5524 32.2902 29.609 32.2902 29.6439 32.2697ZM34.0964 34.8405L34.9481 34.3454C34.9831 34.3249 34.9831 34.2924 34.9481 34.2719L34.0627 33.7611C34.0277 33.7407 33.9711 33.7407 33.9362 33.7611L33.0845 34.2563C33.0495 34.2767 33.0495 34.3093 33.0845 34.3297L33.9699 34.8405C34.0049 34.861 34.0615 34.861 34.0964 34.8405ZM32.9568 29.0557L33.8085 28.5606C33.8434 28.5401 33.8434 28.5076 33.8085 28.4871L32.9243 27.9763C32.8893 27.9558 32.8327 27.9558 32.7978 27.9763L31.9461 28.4714C31.9111 28.4919 31.9111 28.5244 31.9461 28.5449L32.8303 29.0557C32.8652 29.0762 32.9219 29.0762 32.9568 29.0557ZM27.4177 30.9856L28.2694 30.4904C28.3043 30.47 28.3043 30.4374 28.2694 30.417L27.3852 29.9062C27.3502 29.8857 27.2936 29.8857 27.2587 29.9062L26.407 30.4013C26.372 30.4218 26.372 30.4543 26.407 30.4748L27.2912 30.9856C27.3261 31.006 27.3828 31.006 27.4177 30.9856ZM37.4153 32.9118L38.267 32.4167C38.3019 32.3962 38.3019 32.3637 38.267 32.3432L37.3816 31.8325C37.3466 31.812 37.29 31.812 37.2551 31.8325L36.4034 32.3276C36.3684 32.3481 36.3684 32.3806 36.4034 32.4011L37.2888 32.9118C37.3237 32.9323 37.3804 32.9323 37.4153 32.9118ZM28.5308 31.6277L29.3825 31.1325C29.4175 31.1121 29.4175 31.0795 29.3825 31.0591L28.4983 30.5483C28.4634 30.5278 28.4067 30.5278 28.3718 30.5483L27.5201 31.0434C27.4852 31.0639 27.4852 31.0964 27.5201 31.1169L28.4043 31.6277C28.4393 31.6481 28.4959 31.6481 28.5308 31.6277ZM32.964 30.3411L33.8157 29.8459C33.8507 29.8255 33.8507 29.7929 33.8157 29.7725L32.9315 29.2617C32.8966 29.2412 32.8399 29.2412 32.805 29.2617L31.9533 29.7568C31.9184 29.7773 31.9184 29.8098 31.9533 29.8303L32.8375 30.3411C32.8725 30.3615 32.9291 30.3615 32.964 30.3411ZM31.8509 29.699L32.7026 29.2039C32.7375 29.1834 32.7375 29.1508 32.7026 29.1304L31.8184 28.6196C31.7834 28.5991 31.7268 28.5991 31.6919 28.6196L30.8402 29.1147C30.8052 29.1352 30.8052 29.1677 30.8402 29.1882L31.7244 29.699C31.7593 29.7195 31.816 29.7195 31.8509 29.699ZM35.183 30.3411L36.0347 29.8459C36.0697 29.8255 36.0697 29.7929 36.0347 29.7725L35.1505 29.2617C35.1156 29.2412 35.0589 29.2412 35.024 29.2617L34.1723 29.7568C34.1374 29.7773 34.1374 29.8098 34.1723 29.8303L35.0565 30.3411C35.0915 30.3615 35.1481 30.3615 35.183 30.3411ZM29.6174 27.1282L30.4691 26.6331C30.5041 26.6126 30.5041 26.5801 30.4691 26.5596L29.5849 26.0488C29.55 26.0283 29.4934 26.0283 29.4584 26.0488L28.6067 26.5439C28.5718 26.5644 28.5718 26.5969 28.6067 26.6174L29.4909 27.1282C29.5259 27.1487 29.5825 27.1487 29.6174 27.1282ZM30.7306 27.7703L31.5823 27.2752C31.6172 27.2547 31.6172 27.2222 31.5823 27.2017L30.698 26.6909C30.6631 26.6704 30.6065 26.6704 30.5715 26.6909L29.7198 27.186C29.6849 27.2065 29.6849 27.239 29.7198 27.2595L30.6041 27.7703C30.639 27.7908 30.6956 27.7908 30.7306 27.7703ZM25.1915 29.7002L26.0432 29.2051C26.0781 29.1846 26.0781 29.1521 26.0432 29.1316L25.1589 28.6208C25.124 28.6003 25.0674 28.6003 25.0324 28.6208L24.1807 29.1159C24.1458 29.1364 24.1458 29.1689 24.1807 29.1894L25.065 29.7002C25.0999 29.7207 25.1565 29.7207 25.1915 29.7002ZM28.5115 27.7715L29.3632 27.2764C29.3982 27.2559 29.3982 27.2234 29.3632 27.2029L28.479 26.6921C28.4441 26.6716 28.3875 26.6716 28.3525 26.6921L27.5008 27.1872C27.4659 27.2077 27.4659 27.2402 27.5008 27.2607L28.3851 27.7715C28.42 27.792 28.4766 27.792 28.5115 27.7715ZM30.7571 32.9143L31.6088 32.4191C31.6437 32.3987 31.6437 32.3661 31.6088 32.3456L30.7245 31.8349C30.6896 31.8144 30.633 31.8144 30.598 31.8349L29.7463 32.33C29.7114 32.3505 29.7114 32.383 29.7463 32.4035L30.6306 32.9143C30.6655 32.9347 30.7221 32.9347 30.7571 32.9143ZM34.0771 30.9856L34.9288 30.4904C34.9638 30.47 34.9638 30.4374 34.9288 30.417L34.0446 29.9062C34.0097 29.8857 33.9531 29.8857 33.9181 29.9062L33.0664 30.4013C33.0315 30.4218 33.0315 30.4543 33.0664 30.4748L33.9506 30.9856C33.9856 31.006 34.0422 31.006 34.0771 30.9856ZM26.3058 30.3447L27.1575 29.8496C27.1924 29.8291 27.1924 29.7966 27.1575 29.7761L26.2733 29.2653C26.2383 29.2448 26.1817 29.2448 26.1468 29.2653L25.2951 29.7604C25.2601 29.7809 25.2601 29.8134 25.2951 29.8339L26.1793 30.3447C26.2142 30.3652 26.2708 30.3652 26.3058 30.3447ZM29.6259 28.416L30.4776 27.9209C30.5125 27.9004 30.5125 27.8679 30.4776 27.8474L29.5933 27.3366C29.5584 27.3161 29.5018 27.3161 29.4668 27.3366L28.6151 27.8317C28.5802 27.8522 28.5802 27.8847 28.6151 27.9052L29.4994 28.416C29.5343 28.4365 29.5909 28.4365 29.6259 28.416ZM40.7269 32.2806L41.0787 32.077C41.1136 32.0565 41.1136 32.024 41.0787 32.0035L40.1945 31.4927C40.1595 31.4723 40.1029 31.4723 40.068 31.4927L39.7162 31.6963C39.6813 31.7168 39.6813 31.7493 39.7162 31.7698L40.6004 32.2806C40.6354 32.3011 40.692 32.3011 40.7269 32.2806ZM41.8401 32.9227L42.1918 32.7191C42.2268 32.6986 42.2268 32.6661 42.1918 32.6456L41.3076 32.1348C41.2727 32.1143 41.216 32.1143 41.1811 32.1348L40.8293 32.3384C40.7944 32.3589 40.7944 32.3914 40.8293 32.4119L41.7136 32.9227C41.7485 32.9432 41.8051 32.9432 41.8401 32.9227ZM42.9532 33.5648L43.3049 33.3612C43.3399 33.3407 43.3399 33.3082 43.3049 33.2877L42.4207 32.7769C42.3858 32.7564 42.3292 32.7564 42.2942 32.7769L41.9425 32.9805C41.9075 33.001 41.9075 33.0335 41.9425 33.054L42.8267 33.5648C42.8616 33.5853 42.9182 33.5853 42.9532 33.5648ZM38.5007 30.994L38.8525 30.7904C38.8874 30.7699 38.8874 30.7374 38.8525 30.7169L37.9682 30.2061C37.9333 30.1857 37.8767 30.1857 37.8417 30.2061L37.49 30.4097C37.455 30.4302 37.455 30.4627 37.49 30.4832L38.3742 30.994C38.4091 31.0145 38.4658 31.0145 38.5007 30.994ZM37.3876 30.3519L37.7393 30.1483C37.7743 30.1278 37.7743 30.0953 37.7393 30.0748L36.8551 29.5641C36.8202 29.5436 36.7636 29.5436 36.7286 29.5641L36.3769 29.7676C36.3419 29.7881 36.3419 29.8206 36.3769 29.8411L37.2611 30.3519C37.296 30.3724 37.3526 30.3724 37.3876 30.3519ZM44.0651 34.2069L44.4169 34.0033C44.4518 33.9828 44.4518 33.9503 44.4169 33.9298L43.5326 33.419C43.4977 33.3985 43.4411 33.3985 43.4061 33.419L43.0544 33.6226C43.0194 33.6431 43.0194 33.6756 43.0544 33.6961L43.9386 34.2069C43.9735 34.2273 44.0302 34.2273 44.0651 34.2069ZM34.0482 28.4232L34.4 28.2196C34.4349 28.1992 34.4349 28.1666 34.4 28.1462L33.5158 27.6354C33.4808 27.6149 33.4242 27.6149 33.3893 27.6354L33.0375 27.839C33.0026 27.8594 33.0026 27.892 33.0375 27.9124L33.9217 28.4232C33.9567 28.4437 34.0133 28.4437 34.0482 28.4232ZM39.6138 31.6361L39.9656 31.4325C40.0005 31.412 40.0005 31.3795 39.9656 31.359L39.0801 30.8482C39.0452 30.8278 38.9886 30.8278 38.9537 30.8482L38.6019 31.0518C38.567 31.0723 38.567 31.1048 38.6019 31.1253L39.4873 31.6361C39.5223 31.6566 39.5789 31.6566 39.6138 31.6361ZM32.9351 27.7799L33.2869 27.5763C33.3218 27.5559 33.3218 27.5233 33.2869 27.5029L32.4026 26.9921C32.3677 26.9716 32.3111 26.9716 32.2761 26.9921L31.9244 27.1957C31.8894 27.2161 31.8894 27.2487 31.9244 27.2691L32.8086 27.7799C32.8435 27.8004 32.9002 27.8004 32.9351 27.7799ZM35.1613 29.0653L35.5131 28.8617C35.548 28.8412 35.548 28.8087 35.5131 28.7882L34.6289 28.2775C34.5939 28.257 34.5373 28.257 34.5024 28.2775L34.1506 28.481C34.1157 28.5015 34.1157 28.5341 34.1506 28.5545L35.0349 29.0653C35.0698 29.0858 35.1264 29.0858 35.1613 29.0653ZM29.5957 25.8525L29.9475 25.6489C29.9824 25.6284 29.9824 25.5959 29.9475 25.5754L29.0633 25.0646C29.0283 25.0441 28.9717 25.0441 28.9368 25.0646L28.585 25.2682C28.5501 25.2887 28.5501 25.3212 28.585 25.3417L29.4693 25.8525C29.5042 25.8729 29.5608 25.8729 29.5957 25.8525ZM31.822 27.1378L32.1737 26.9342C32.2087 26.9138 32.2087 26.8812 32.1737 26.8608L31.2895 26.35C31.2546 26.3295 31.198 26.3295 31.163 26.35L30.8113 26.5536C30.7763 26.5741 30.7763 26.6066 30.8113 26.6271L31.6955 27.1378C31.7304 27.1583 31.7871 27.1583 31.822 27.1378ZM36.2745 29.7086L36.6262 29.505C36.6612 29.4845 36.6612 29.452 36.6262 29.4315L35.742 28.9208C35.7071 28.9003 35.6504 28.9003 35.6155 28.9208L35.2637 29.1243C35.2288 29.1448 35.2288 29.1774 35.2637 29.1978L36.148 29.7086C36.1829 29.7291 36.2395 29.7291 36.2745 29.7086ZM30.7089 26.4957L31.0606 26.2922C31.0956 26.2717 31.0956 26.2392 31.0606 26.2187L30.1764 25.7079C30.1415 25.6874 30.0848 25.6874 30.0499 25.7079L29.6981 25.9115C29.6632 25.932 29.6632 25.9645 29.6981 25.985L30.5824 26.4957C30.6173 26.5162 30.6739 26.5162 30.7089 26.4957Z" fill="url(#paint6_linear_313_3023)"/>
<path d="M44.0262 32.4204V32.4228C44.0262 32.4228 44.0202 32.4348 44.0165 32.4397L44.0141 32.4433C44.0141 32.4433 44.0057 32.4541 43.9997 32.4589C43.9961 32.4625 43.9912 32.465 43.9864 32.4686C43.9828 32.471 43.9792 32.4746 43.9744 32.477L43.8286 32.5613V33.1239L43.972 33.0396H43.9744C43.9744 33.0396 43.9804 33.0336 43.984 33.0312C43.9888 33.0275 43.9937 33.0251 43.9973 33.0215H43.9985C43.9985 33.0215 44.0069 33.0131 44.0093 33.0083C44.0093 33.0083 44.0105 33.0059 44.0117 33.0059L44.0141 33.0022C44.0141 33.0022 44.0165 32.9986 44.0177 32.9974C44.0202 32.9938 44.0214 32.9902 44.0226 32.9866V32.983C44.0226 32.983 44.025 32.9781 44.025 32.9757C44.025 32.9721 44.025 32.9685 44.0262 32.9649V32.3999C44.0274 32.4059 44.0262 32.4132 44.025 32.4192L44.0262 32.4204Z" fill="#2A2A2A"/>
<path d="M45.9176 33.766C46.1224 33.8841 46.1236 34.0756 45.9201 34.1937L34.778 40.6688C34.5744 40.7869 34.2431 40.7869 34.0396 40.6688L17.4488 31.0904C17.244 30.9724 17.2428 30.7808 17.4464 30.6628L28.5884 24.1877C28.792 24.0696 29.1233 24.0696 29.3269 24.1877L31.3772 25.3719L31.0532 25.561C30.9809 25.6032 30.9821 25.6706 31.0532 25.7116L43.2445 32.7505C43.3168 32.7927 43.4336 32.7927 43.5059 32.7505L43.8299 32.5614L45.9176 33.7672V33.766ZM38.8233 37.7234L44.9443 34.166C45.043 34.1082 45.0418 34.0166 44.9443 33.9588L29.0125 24.7611C28.9137 24.7045 28.7534 24.7033 28.6547 24.7611L22.5337 28.3185C22.4361 28.3751 22.4361 28.4679 22.5349 28.5257L38.4667 37.7246C38.5655 37.7824 38.7257 37.7824 38.8245 37.7246M29.1209 36.9837L32.6265 34.9466C32.6566 34.9285 32.6566 34.8996 32.6265 34.8816L27.4247 31.8783C27.3934 31.8602 27.3428 31.8602 27.3127 31.8783L23.8071 33.9154C23.7757 33.9335 23.7769 33.9624 23.8071 33.9805L29.0088 36.9837C29.0402 37.0018 29.0896 37.0018 29.1209 36.9837Z" fill="url(#paint7_linear_313_3023)"/>
<path d="M44.9445 33.9601C45.0433 34.0179 45.0445 34.1095 44.9445 34.1673L38.8235 37.7247C38.726 37.7813 38.5657 37.7813 38.4657 37.7247L22.5351 28.5258C22.4364 28.4692 22.4352 28.3764 22.5339 28.3186L28.6549 24.7612C28.7537 24.7034 28.9139 24.7046 29.0127 24.7612L44.9445 33.9601ZM38.7597 37.6873L44.8806 34.1299C44.9433 34.0938 44.9433 34.0348 44.8806 33.9986L28.9476 24.7997C28.885 24.7636 28.7826 24.7636 28.7199 24.7997L22.599 28.3571C22.5363 28.3933 22.5376 28.4523 22.599 28.4884L38.5308 37.6873C38.5934 37.7235 38.6958 37.7235 38.7585 37.6873" fill="white"/>
<path d="M32.6266 34.8816C32.6579 34.8996 32.6579 34.9285 32.6266 34.9466L29.121 36.9837C29.0897 37.0018 29.0403 37.0018 29.009 36.9837L23.8072 33.9805C23.7759 33.9624 23.7759 33.9335 23.8072 33.9154L27.3128 31.8783C27.3429 31.8602 27.3935 31.8602 27.4248 31.8783L32.6266 34.8816ZM30.0329 36.2982L32.3736 34.9382C32.4086 34.9177 32.4086 34.8852 32.3736 34.8647L27.4549 32.0253C27.4188 32.0048 27.3622 32.0048 27.3272 32.0253L24.9866 33.3853C24.9516 33.4058 24.9516 33.4384 24.9866 33.4588L29.9052 36.2982C29.9402 36.3187 29.998 36.3187 30.0329 36.2982ZM26.5647 35.3333L27.2405 34.9406C27.2754 34.9201 27.2754 34.8876 27.2405 34.8671L24.895 33.513C24.8589 33.4926 24.8022 33.4926 24.7673 33.513L24.0915 33.9058C24.0566 33.9262 24.0566 33.9588 24.0915 33.9793L26.437 35.3333C26.4719 35.3538 26.5297 35.3538 26.5647 35.3333ZM29.1367 36.8187L29.8125 36.4259C29.8474 36.4055 29.8474 36.3729 29.8125 36.3525L27.4658 34.9972C27.4308 34.9767 27.3742 34.9767 27.3393 34.9972L26.6635 35.3899C26.6285 35.4104 26.6285 35.4429 26.6635 35.4634L29.0102 36.8187C29.0451 36.8391 29.1029 36.8391 29.1379 36.8187" fill="white"/>
<path d="M27.2406 34.8672C27.2756 34.8877 27.2756 34.9202 27.2406 34.9407L26.5648 35.3334C26.5299 35.3539 26.472 35.3539 26.4371 35.3334L24.0916 33.9794C24.0555 33.9589 24.0567 33.9264 24.0916 33.9059L24.7674 33.5132C24.8024 33.4927 24.859 33.4927 24.8951 33.5132L27.2406 34.8672Z" fill="url(#paint8_linear_313_3023)"/>
<path d="M32.3725 34.8648C32.4074 34.8853 32.4074 34.9178 32.3725 34.9383L30.0318 36.2983C29.9969 36.3188 29.9402 36.3188 29.9041 36.2983L24.9866 33.4589C24.9505 33.4385 24.9517 33.4059 24.9866 33.3854L27.3273 32.0254C27.3622 32.0049 27.4189 32.0049 27.455 32.0254L32.3737 34.8648H32.3725Z" fill="url(#paint9_linear_313_3023)"/>
<path d="M29.8122 36.3526C29.8471 36.373 29.8471 36.4056 29.8122 36.426L29.1363 36.8188C29.1014 36.8392 29.0448 36.8392 29.0086 36.8188L26.6619 35.4635C26.627 35.443 26.627 35.4105 26.6619 35.39L27.3378 34.9973C27.3727 34.9768 27.4293 34.9768 27.4643 34.9973L29.811 36.3526H29.8122Z" fill="url(#paint10_linear_313_3023)"/>
<path d="M32.1812 26.8584C32.2161 26.8789 32.2161 26.9114 32.1812 26.9319L31.8294 27.1355C31.7945 27.156 31.7378 27.156 31.7029 27.1355L30.8187 26.6247C30.7837 26.6042 30.7837 26.5717 30.8187 26.5512L31.1704 26.3476C31.2054 26.3272 31.262 26.3272 31.2969 26.3476L32.1812 26.8584Z" fill="url(#paint11_linear_313_3023)"/>
<path d="M38.2695 31.0579C38.3044 31.0784 38.3044 31.1109 38.2695 31.1314L37.4177 31.6265C37.3828 31.647 37.3262 31.647 37.2913 31.6265L36.407 31.1157C36.3721 31.0952 36.3709 31.0627 36.407 31.0422L37.2587 30.5471C37.2937 30.5266 37.3503 30.5266 37.3852 30.5471L38.2695 31.0579Z" fill="url(#paint12_linear_313_3023)"/>
<path d="M37.1621 31.7012C37.197 31.7217 37.197 31.7542 37.1621 31.7747L36.3104 32.2698C36.2754 32.2903 36.2188 32.2903 36.1839 32.2698L35.2996 31.759C35.2647 31.7385 35.2647 31.706 35.2996 31.6855L36.1513 31.1904C36.1863 31.1699 36.2429 31.1699 36.2778 31.1904L37.1621 31.7012Z" fill="url(#paint13_linear_313_3023)"/>
<path d="M40.4955 32.3433C40.5305 32.3638 40.5305 32.3963 40.4955 32.4168L39.6438 32.9119C39.6089 32.9324 39.5523 32.9324 39.5173 32.9119L38.6331 32.4011C38.5982 32.3806 38.597 32.3481 38.6331 32.3276L39.4848 31.8325C39.5197 31.812 39.5764 31.812 39.6113 31.8325L40.4955 32.3433Z" fill="url(#paint14_linear_313_3023)"/>
<path d="M39.3886 32.9854C39.4236 33.0059 39.4236 33.0384 39.3886 33.0589L38.5369 33.554C38.502 33.5745 38.4454 33.5745 38.4104 33.554L37.5262 33.0432C37.4913 33.0227 37.4913 32.9902 37.5262 32.9697L38.3779 32.4746C38.4128 32.4541 38.4695 32.4541 38.5044 32.4746L39.3886 32.9854Z" fill="url(#paint15_linear_313_3023)"/>
<path d="M29.9546 25.5742C29.9895 25.5947 29.9895 25.6272 29.9546 25.6477L29.6028 25.8513C29.5679 25.8718 29.5113 25.8718 29.4764 25.8513L28.5921 25.3405C28.5572 25.3201 28.5572 25.2875 28.5921 25.267L28.9439 25.0635C28.9788 25.043 29.0354 25.043 29.0704 25.0635L29.9546 25.5742Z" fill="url(#paint16_linear_313_3023)"/>
<path d="M31.5908 27.2017C31.6257 27.2222 31.6257 27.2547 31.5908 27.2752L30.7391 27.7703C30.7041 27.7908 30.6475 27.7908 30.6126 27.7703L29.7284 27.2595C29.6934 27.239 29.6934 27.2065 29.7284 27.186L30.5801 26.6909C30.615 26.6704 30.6716 26.6704 30.7065 26.6909L31.5908 27.2017Z" fill="url(#paint17_linear_313_3023)"/>
<path d="M34.9301 29.1292C34.9651 29.1496 34.9651 29.1822 34.9301 29.2027L34.0784 29.6978C34.0435 29.7183 33.9869 29.7183 33.9519 29.6978L33.0677 29.187C33.0328 29.1665 33.0328 29.134 33.0677 29.1135L33.9194 28.6184C33.9543 28.5979 34.011 28.5979 34.0459 28.6184L34.9301 29.1292Z" fill="url(#paint18_linear_313_3023)"/>
<path d="M37.7451 30.0725C37.78 30.093 37.78 30.1255 37.7451 30.146L37.3933 30.3496C37.3584 30.3701 37.3018 30.3701 37.2668 30.3496L36.3826 29.8388C36.3477 29.8183 36.3465 29.7858 36.3826 29.7653L36.7344 29.5617C36.7693 29.5413 36.8259 29.5413 36.8609 29.5617L37.7451 30.0725Z" fill="url(#paint19_linear_313_3023)"/>
<path d="M37.1562 30.4146C37.1911 30.435 37.1911 30.4676 37.1562 30.4881L36.3045 30.9832C36.2695 31.0037 36.2129 31.0037 36.178 30.9832L35.2937 30.4724C35.2588 30.4519 35.2576 30.4194 35.2937 30.3989L36.1455 29.9038C36.1804 29.8833 36.237 29.8833 36.2719 29.9038L37.1562 30.4146Z" fill="url(#paint20_linear_313_3023)"/>
<path d="M38.8584 30.7146C38.8933 30.7351 38.8933 30.7676 38.8584 30.7881L38.5066 30.9917C38.4717 31.0122 38.4151 31.0122 38.3801 30.9917L37.4959 30.4809C37.461 30.4604 37.4598 30.4279 37.4959 30.4074L37.8477 30.2038C37.8826 30.1834 37.9392 30.1834 37.9741 30.2038L38.8584 30.7146Z" fill="url(#paint21_linear_313_3023)"/>
<path d="M41.0845 32C41.1194 32.0205 41.1194 32.053 41.0845 32.0735L40.7327 32.2771C40.6978 32.2976 40.6411 32.2976 40.6062 32.2771L39.722 31.7663C39.687 31.7458 39.6858 31.7133 39.722 31.6928L40.0737 31.4892C40.1087 31.4688 40.1653 31.4688 40.2002 31.4892L41.0845 32Z" fill="url(#paint22_linear_313_3023)"/>
<path d="M41.6088 32.9854C41.6437 33.0059 41.6437 33.0384 41.6088 33.0589L40.7571 33.554C40.7222 33.5745 40.6655 33.5745 40.6306 33.554L39.7464 33.0432C39.7114 33.0227 39.7102 32.9902 39.7464 32.9697L40.5981 32.4746C40.633 32.4541 40.6896 32.4541 40.7246 32.4746L41.6088 32.9854Z" fill="url(#paint23_linear_313_3023)"/>
<path d="M30.4775 26.5596C30.5124 26.5801 30.5124 26.6126 30.4775 26.6331L29.6258 27.1282C29.5909 27.1487 29.5342 27.1487 29.4993 27.1282L28.6151 26.6174C28.5801 26.5969 28.5801 26.5644 28.6151 26.5439L29.4668 26.0488C29.5017 26.0283 29.5583 26.0283 29.5933 26.0488L30.4775 26.5596Z" fill="url(#paint24_linear_313_3023)"/>
<path d="M28.2587 26.5596C28.2937 26.5801 28.2937 26.6126 28.2587 26.6331L27.407 27.1282C27.3721 27.1487 27.3155 27.1487 27.2805 27.1282L26.3963 26.6174C26.3614 26.5969 26.3614 26.5644 26.3963 26.5439L27.248 26.0488C27.283 26.0283 27.3396 26.0283 27.3745 26.0488L28.2587 26.5596Z" fill="url(#paint25_linear_313_3023)"/>
<path d="M30.4834 27.845C30.5183 27.8655 30.5183 27.898 30.4834 27.9185L29.6316 28.4136C29.5967 28.4341 29.5401 28.4341 29.5052 28.4136L28.6209 27.9028C28.586 27.8823 28.586 27.8498 28.6209 27.8293L29.4726 27.3342C29.5076 27.3137 29.5642 27.3137 29.5991 27.3342L30.4834 27.845Z" fill="url(#paint26_linear_313_3023)"/>
<path d="M28.2646 27.845C28.2995 27.8655 28.2995 27.898 28.2646 27.9185L27.4129 28.4136C27.378 28.4341 27.3213 28.4341 27.2864 28.4136L26.4022 27.9028C26.3672 27.8823 26.3672 27.8498 26.4022 27.8293L27.2539 27.3342C27.2888 27.3137 27.3454 27.3137 27.3804 27.3342L28.2646 27.845Z" fill="url(#paint27_linear_313_3023)"/>
<path d="M29.3779 28.4883C29.4128 28.5088 29.4128 28.5413 29.3779 28.5618L28.5262 29.0569C28.4912 29.0774 28.4346 29.0774 28.3997 29.0569L27.5155 28.5461C27.4805 28.5256 27.4805 28.4931 27.5155 28.4726L28.3672 27.9775C28.4021 27.957 28.4587 27.957 28.4937 27.9775L29.3779 28.4883Z" fill="url(#paint28_linear_313_3023)"/>
<path d="M27.1586 28.4883C27.1936 28.5088 27.1936 28.5413 27.1586 28.5618L26.3069 29.0569C26.272 29.0774 26.2154 29.0774 26.1805 29.0569L25.2962 28.5461C25.2613 28.5256 25.2613 28.4931 25.2962 28.4726L26.1479 27.9775C26.1829 27.957 26.2395 27.957 26.2744 27.9775L27.1586 28.4883Z" fill="url(#paint29_linear_313_3023)"/>
<path d="M28.2719 29.1304C28.3069 29.1509 28.3069 29.1834 28.2719 29.2039L27.4202 29.699C27.3853 29.7195 27.3287 29.7195 27.2937 29.699L26.4095 29.1882C26.3746 29.1677 26.3746 29.1352 26.4095 29.1147L27.2612 28.6196C27.2961 28.5991 27.3528 28.5991 27.3877 28.6196L28.2719 29.1304Z" fill="url(#paint30_linear_313_3023)"/>
<path d="M27.1645 29.7737C27.1994 29.7942 27.1994 29.8267 27.1645 29.8472L26.3128 30.3423C26.2779 30.3628 26.2212 30.3628 26.1863 30.3423L25.3021 29.8315C25.2671 29.811 25.2671 29.7785 25.3021 29.758L26.1538 29.2629C26.1887 29.2424 26.2453 29.2424 26.2803 29.2629L27.1645 29.7737Z" fill="url(#paint31_linear_313_3023)"/>
<path d="M32.7172 30.4158C32.7522 30.4363 32.7522 30.4688 32.7172 30.4893L31.8655 30.9844C31.8306 31.0049 31.774 31.0049 31.739 30.9844L30.8548 30.4736C30.8199 30.4531 30.8199 30.4206 30.8548 30.4001L31.7065 29.905C31.7415 29.8845 31.7981 29.8845 31.833 29.905L32.7172 30.4158Z" fill="url(#paint32_linear_313_3023)"/>
<path d="M31.6113 31.0591C31.6462 31.0796 31.6462 31.1121 31.6113 31.1326L30.7596 31.6277C30.7246 31.6482 30.668 31.6482 30.6331 31.6277L29.7489 31.1169C29.7139 31.0964 29.7139 31.0639 29.7489 31.0434L30.6006 30.5483C30.6355 30.5278 30.6921 30.5278 30.7271 30.5483L31.6113 31.0591Z" fill="url(#paint33_linear_313_3023)"/>
<path d="M34.9433 31.7012C34.9782 31.7217 34.9782 31.7542 34.9433 31.7747L34.0916 32.2698C34.0566 32.2903 34 32.2903 33.9651 32.2698L33.0809 31.759C33.0459 31.7385 33.0447 31.706 33.0809 31.6855L33.9326 31.1904C33.9675 31.1699 34.0241 31.1699 34.059 31.1904L34.9433 31.7012Z" fill="url(#paint34_linear_313_3023)"/>
<path d="M36.0566 32.3433C36.0915 32.3638 36.0915 32.3963 36.0566 32.4168L35.2049 32.9119C35.1699 32.9324 35.1133 32.9324 35.0784 32.9119L34.1941 32.4011C34.1592 32.3806 34.158 32.3481 34.1941 32.3276L35.0458 31.8325C35.0808 31.812 35.1374 31.812 35.1723 31.8325L36.0566 32.3433Z" fill="url(#paint35_linear_313_3023)"/>
<path d="M33.8374 32.3433C33.8723 32.3638 33.8723 32.3963 33.8374 32.4168L32.9857 32.9119C32.9507 32.9324 32.8941 32.9324 32.8592 32.9119L31.9749 32.4011C31.94 32.3806 31.94 32.3481 31.9749 32.3276L32.8266 31.8325C32.8616 31.812 32.9182 31.812 32.9543 31.8325L33.8386 32.3433H33.8374Z" fill="url(#paint36_linear_313_3023)"/>
<path d="M33.8432 33.6299C33.8782 33.6504 33.8782 33.6829 33.8432 33.7034L32.9915 34.1985C32.9566 34.219 32.9 34.219 32.865 34.1985L31.9808 33.6877C31.9459 33.6672 31.9459 33.6347 31.9808 33.6142L32.8325 33.1191C32.8674 33.0986 32.9241 33.0986 32.959 33.1191L33.8432 33.6299Z" fill="url(#paint37_linear_313_3023)"/>
<path d="M36.0698 34.9153C36.1047 34.9358 36.1047 34.9683 36.0698 34.9888L35.2181 35.4839C35.1831 35.5044 35.1265 35.5044 35.0916 35.4839L34.2074 34.9731C34.1724 34.9526 34.1724 34.9201 34.2074 34.8996L35.0591 34.4045C35.094 34.384 35.1506 34.384 35.1855 34.4045L36.0698 34.9153Z" fill="url(#paint38_linear_313_3023)"/>
<path d="M29.3642 25.9163C29.3992 25.9368 29.3992 25.9693 29.3642 25.9898L28.5125 26.4849C28.4776 26.5054 28.421 26.5054 28.386 26.4849L27.5018 25.9741C27.4669 25.9536 27.4669 25.9211 27.5018 25.9006L28.3535 25.4055C28.3884 25.385 28.445 25.385 28.48 25.4055L29.3642 25.9163Z" fill="url(#paint39_linear_313_3023)"/>
<path d="M31.0679 26.2163C31.1028 26.2368 31.1028 26.2693 31.0679 26.2898L30.7161 26.4934C30.6812 26.5139 30.6246 26.5139 30.5896 26.4934L29.7054 25.9826C29.6705 25.9621 29.6705 25.9296 29.7054 25.9091L30.0572 25.7055C30.0921 25.6851 30.1487 25.6851 30.1837 25.7055L31.0679 26.2163Z" fill="url(#paint40_linear_313_3023)"/>
<path d="M33.294 27.5017C33.3289 27.5222 33.3289 27.5547 33.294 27.5752L32.9422 27.7788C32.9073 27.7993 32.8506 27.7993 32.8157 27.7788L31.9315 27.268C31.8965 27.2475 31.8965 27.215 31.9315 27.1945L32.2832 26.9909C32.3182 26.9705 32.3748 26.9705 32.4097 26.9909L33.294 27.5017Z" fill="url(#paint41_linear_313_3023)"/>
<path d="M29.3715 27.2017C29.4065 27.2222 29.4065 27.2547 29.3715 27.2752L28.5198 27.7703C28.4849 27.7908 28.4283 27.7908 28.3933 27.7703L27.5091 27.2595C27.4742 27.239 27.4742 27.2065 27.5091 27.186L28.3608 26.6909C28.3958 26.6704 28.4524 26.6704 28.4873 26.6909L29.3715 27.2017Z" fill="url(#paint42_linear_313_3023)"/>
<path d="M27.1513 27.2029C27.1863 27.2234 27.1863 27.2559 27.1513 27.2764L26.2996 27.7715C26.2647 27.792 26.2081 27.792 26.1731 27.7715L25.2889 27.2607C25.254 27.2402 25.254 27.2077 25.2889 27.1872L26.1406 26.6921C26.1755 26.6716 26.2322 26.6716 26.2671 26.6921L27.1513 27.2029Z" fill="url(#paint43_linear_313_3023)"/>
<path d="M32.7036 27.8438C32.7385 27.8642 32.7385 27.8968 32.7036 27.9173L31.8519 28.4124C31.8169 28.4329 31.7603 28.4329 31.7254 28.4124L30.8411 27.9016C30.8062 27.8811 30.8062 27.8486 30.8411 27.8281L31.6928 27.333C31.7278 27.3125 31.7844 27.3125 31.8193 27.333L32.7036 27.8438Z" fill="url(#paint44_linear_313_3023)"/>
<path d="M34.4072 28.1438C34.4422 28.1643 34.4422 28.1968 34.4072 28.2173L34.0555 28.4209C34.0205 28.4414 33.9639 28.4414 33.929 28.4209L33.0448 27.9101C33.0098 27.8896 33.0098 27.8571 33.0448 27.8366L33.3965 27.633C33.4315 27.6126 33.4881 27.6126 33.523 27.633L34.4072 28.1438Z" fill="url(#paint45_linear_313_3023)"/>
<path d="M26.0454 27.845C26.0803 27.8655 26.0803 27.898 26.0454 27.9185L25.1937 28.4136C25.1587 28.4341 25.1021 28.4341 25.0672 28.4136L24.1829 27.9028C24.148 27.8823 24.148 27.8498 24.1829 27.8293L25.0346 27.3342C25.0696 27.3137 25.1262 27.3137 25.1611 27.3342L26.0454 27.845Z" fill="url(#paint46_linear_313_3023)"/>
<path d="M33.8168 28.4871C33.8518 28.5076 33.8518 28.5401 33.8168 28.5606L32.9651 29.0557C32.9302 29.0762 32.8736 29.0762 32.8387 29.0557L31.9544 28.5449C31.9195 28.5244 31.9195 28.4919 31.9544 28.4714L32.8061 27.9763C32.8411 27.9558 32.8977 27.9558 32.9326 27.9763L33.8168 28.4871Z" fill="url(#paint47_linear_313_3023)"/>
<path d="M35.5205 28.7871C35.5555 28.8076 35.5555 28.8401 35.5205 28.8606L35.1688 29.0642C35.1338 29.0847 35.0772 29.0847 35.0423 29.0642L34.158 28.5534C34.1231 28.5329 34.1231 28.5004 34.158 28.4799L34.5098 28.2763C34.5447 28.2559 34.6014 28.2559 34.6363 28.2763L35.5205 28.7871Z" fill="url(#paint48_linear_313_3023)"/>
<path d="M31.5966 28.4871C31.6316 28.5076 31.6316 28.5401 31.5966 28.5606L30.7449 29.0557C30.71 29.0762 30.6534 29.0762 30.6184 29.0557L29.7342 28.5449C29.6993 28.5244 29.6993 28.4919 29.7342 28.4714L30.5859 27.9763C30.6209 27.9558 30.6775 27.9558 30.7124 27.9763L31.5966 28.4871Z" fill="url(#paint49_linear_313_3023)"/>
<path d="M24.9384 28.4883C24.9734 28.5088 24.9734 28.5413 24.9384 28.5618L24.0867 29.0569C24.0518 29.0774 23.9952 29.0774 23.9602 29.0569L23.076 28.5461C23.0411 28.5256 23.0411 28.4931 23.076 28.4726L23.9277 27.9775C23.9626 27.957 24.0193 27.957 24.0542 27.9775L24.9384 28.4883Z" fill="url(#paint50_linear_313_3023)"/>
<path d="M36.6333 29.4292C36.6683 29.4497 36.6683 29.4822 36.6333 29.5027L36.2816 29.7063C36.2466 29.7268 36.19 29.7268 36.1551 29.7063L35.2708 29.1955C35.2359 29.175 35.2359 29.1425 35.2708 29.122L35.6226 28.9184C35.6575 28.898 35.7142 28.898 35.7491 28.9184L36.6333 29.4292Z" fill="url(#paint51_linear_313_3023)"/>
<path d="M32.7099 29.1304C32.7449 29.1509 32.7449 29.1834 32.7099 29.2039L31.8582 29.699C31.8233 29.7195 31.7667 29.7195 31.7317 29.699L30.8475 29.1882C30.8126 29.1677 30.8126 29.1352 30.8475 29.1147L31.6992 28.6196C31.7341 28.5991 31.7907 28.5991 31.8257 28.6196L32.7099 29.1304Z" fill="url(#paint52_linear_313_3023)"/>
<path d="M30.4907 29.1304C30.5256 29.1509 30.5256 29.1834 30.4907 29.2039L29.639 29.699C29.604 29.7195 29.5474 29.7195 29.5125 29.699L28.6283 29.1882C28.5933 29.1677 28.5933 29.1352 28.6283 29.1147L29.48 28.6196C29.5149 28.5991 29.5715 28.5991 29.6064 28.6196L30.4907 29.1304Z" fill="url(#paint53_linear_313_3023)"/>
<path d="M26.0517 29.1316C26.0866 29.1521 26.0866 29.1846 26.0517 29.2051L25.2 29.7002C25.1651 29.7207 25.1085 29.7207 25.0735 29.7002L24.1893 29.1894C24.1544 29.169 24.1544 29.1364 24.1893 29.1159L25.041 28.6208C25.0759 28.6003 25.1325 28.6003 25.1675 28.6208L26.0517 29.1316Z" fill="url(#paint54_linear_313_3023)"/>
<path d="M36.0429 29.7725C36.0779 29.793 36.0779 29.8255 36.0429 29.846L35.1912 30.3411C35.1563 30.3616 35.0997 30.3616 35.0647 30.3411L34.1805 29.8303C34.1456 29.8098 34.1456 29.7773 34.1805 29.7568L35.0322 29.2617C35.0671 29.2412 35.1238 29.2412 35.1587 29.2617L36.0429 29.7725Z" fill="url(#paint55_linear_313_3023)"/>
<path d="M33.8227 29.7725C33.8576 29.793 33.8576 29.8255 33.8227 29.846L32.971 30.3411C32.9361 30.3616 32.8795 30.3616 32.8445 30.3411L31.9603 29.8303C31.9253 29.8098 31.9253 29.7773 31.9603 29.7568L32.812 29.2617C32.8469 29.2412 32.9035 29.2412 32.9385 29.2617L33.8227 29.7725Z" fill="url(#paint56_linear_313_3023)"/>
<path d="M31.604 29.7725C31.6389 29.793 31.6389 29.8255 31.604 29.846L30.7523 30.3411C30.7173 30.3616 30.6607 30.3616 30.6258 30.3411L29.7415 29.8303C29.7066 29.8098 29.7066 29.7773 29.7415 29.7568L30.5932 29.2617C30.6282 29.2412 30.6848 29.2412 30.7197 29.2617L31.604 29.7725Z" fill="url(#paint57_linear_313_3023)"/>
<path d="M29.3847 29.7737C29.4197 29.7942 29.4197 29.8267 29.3847 29.8472L28.533 30.3423C28.4981 30.3628 28.4415 30.3628 28.4065 30.3423L27.5223 29.8315C27.4874 29.811 27.4874 29.7785 27.5223 29.758L28.374 29.2629C28.4089 29.2424 28.4656 29.2424 28.5005 29.2629L29.3847 29.7737Z" fill="url(#paint58_linear_313_3023)"/>
<path d="M34.936 30.4158C34.9709 30.4363 34.9709 30.4688 34.936 30.4893L34.0843 30.9844C34.0494 31.0049 33.9927 31.0049 33.9578 30.9844L33.0736 30.4736C33.0386 30.4531 33.0386 30.4206 33.0736 30.4001L33.9253 29.905C33.9602 29.8845 34.0168 29.8845 34.0518 29.905L34.936 30.4158Z" fill="url(#paint59_linear_313_3023)"/>
<path d="M30.498 30.4158C30.5329 30.4363 30.5329 30.4688 30.498 30.4893L29.6463 30.9844C29.6114 31.0049 29.5547 31.0049 29.5198 30.9844L28.6356 30.4736C28.6006 30.4531 28.6006 30.4206 28.6356 30.4001L29.4873 29.905C29.5222 29.8845 29.5788 29.8845 29.6138 29.905L30.498 30.4158Z" fill="url(#paint60_linear_313_3023)"/>
<path d="M28.2778 30.417C28.3127 30.4375 28.3127 30.47 28.2778 30.4905L27.4261 30.9856C27.3911 31.0061 27.3345 31.0061 27.2996 30.9856L26.4154 30.4748C26.3804 30.4544 26.3804 30.4218 26.4154 30.4013L27.2671 29.9062C27.302 29.8857 27.3586 29.8857 27.3936 29.9062L28.2778 30.417Z" fill="url(#paint61_linear_313_3023)"/>
<path d="M39.9714 31.3579C40.0064 31.3784 40.0064 31.4109 39.9714 31.4314L39.6197 31.635C39.5847 31.6555 39.5281 31.6555 39.4932 31.635L38.6077 31.1242C38.5728 31.1037 38.5728 31.0712 38.6077 31.0507L38.9595 30.8471C38.9944 30.8267 39.0511 30.8267 39.086 30.8471L39.9714 31.3579Z" fill="url(#paint62_linear_313_3023)"/>
<path d="M36.0493 31.0579C36.0842 31.0784 36.0842 31.1109 36.0493 31.1314L35.1976 31.6265C35.1626 31.647 35.106 31.647 35.0711 31.6265L34.1868 31.1157C34.1519 31.0952 34.1519 31.0627 34.1868 31.0422L35.0385 30.5471C35.0735 30.5266 35.1301 30.5266 35.165 30.5471L36.0493 31.0579Z" fill="url(#paint63_linear_313_3023)"/>
<path d="M33.83 31.0579C33.865 31.0784 33.865 31.1109 33.83 31.1314L32.9783 31.6265C32.9434 31.647 32.8868 31.647 32.8518 31.6265L31.9676 31.1157C31.9327 31.0952 31.9327 31.0627 31.9676 31.0422L32.8193 30.5471C32.8542 30.5266 32.9109 30.5266 32.9458 30.5471L33.83 31.0579Z" fill="url(#paint64_linear_313_3023)"/>
<path d="M29.3911 31.0591C29.426 31.0796 29.426 31.1121 29.3911 31.1326L28.5394 31.6277C28.5044 31.6482 28.4478 31.6482 28.4129 31.6277L27.5286 31.1169C27.4937 31.0964 27.4937 31.0639 27.5286 31.0434L28.3803 30.5483C28.4153 30.5278 28.4719 30.5278 28.5068 30.5483L29.3911 31.0591Z" fill="url(#paint65_linear_313_3023)"/>
<path d="M39.3825 31.7C39.4174 31.7204 39.4174 31.753 39.3825 31.7735L38.5308 32.2686C38.4959 32.2891 38.4392 32.2891 38.4043 32.2686L37.5189 31.7578C37.4839 31.7373 37.4839 31.7048 37.5189 31.6843L38.3706 31.1892C38.4055 31.1687 38.4621 31.1687 38.4971 31.1892L39.3825 31.7Z" fill="url(#paint66_linear_313_3023)"/>
<path d="M32.7241 31.7012C32.759 31.7217 32.759 31.7542 32.7241 31.7747L31.8724 32.2698C31.8374 32.2903 31.7808 32.2903 31.7459 32.2698L30.8617 31.759C30.8267 31.7385 30.8267 31.706 30.8617 31.6855L31.7134 31.1904C31.7483 31.1699 31.8049 31.1699 31.8398 31.1904L32.7241 31.7012Z" fill="url(#paint67_linear_313_3023)"/>
<path d="M30.5039 31.7012C30.5388 31.7217 30.5388 31.7542 30.5039 31.7747L29.6522 32.2698C29.6172 32.2903 29.5606 32.2903 29.5257 32.2698L28.6414 31.759C28.6065 31.7385 28.6065 31.706 28.6414 31.6855L29.4931 31.1904C29.5281 31.1699 29.5847 31.1699 29.6196 31.1904L30.5039 31.7012Z" fill="url(#paint68_linear_313_3023)"/>
<path d="M43.9758 32.3252C44.0481 32.3673 44.0481 32.4348 43.9758 32.4758L43.83 32.5601L43.506 32.7492C43.4337 32.7914 43.3168 32.7914 43.2445 32.7492L31.0532 25.7103C30.981 25.6681 30.981 25.6007 31.0532 25.5597L31.3773 25.3706L31.5231 25.2863C31.5953 25.2441 31.7122 25.2441 31.7845 25.2863L43.9758 32.3252Z" fill="url(#paint69_linear_313_3023)"/>
<path d="M42.1977 32.6421C42.2327 32.6626 42.2327 32.6951 42.1977 32.7156L41.846 32.9192C41.811 32.9397 41.7544 32.9397 41.7195 32.9192L40.8352 32.4084C40.8003 32.3879 40.7991 32.3554 40.8352 32.3349L41.187 32.1313C41.222 32.1108 41.2786 32.1108 41.3135 32.1313L42.1977 32.6421Z" fill="url(#paint70_linear_313_3023)"/>
<path d="M38.2756 32.3433C38.3105 32.3638 38.3105 32.3963 38.2756 32.4168L37.4239 32.9119C37.3889 32.9324 37.3311 32.9324 37.2974 32.9119L36.4119 32.4011C36.377 32.3806 36.377 32.3481 36.4119 32.3276L37.2636 31.8325C37.2986 31.812 37.3552 31.812 37.3901 31.8325L38.2756 32.3433Z" fill="url(#paint71_linear_313_3023)"/>
<path d="M31.6171 32.3445C31.6521 32.365 31.6521 32.3975 31.6171 32.418L30.7654 32.9131C30.7305 32.9336 30.6739 32.9336 30.6389 32.9131L29.7547 32.4023C29.7198 32.3818 29.7198 32.3493 29.7547 32.3288L30.6064 31.8337C30.6414 31.8132 30.698 31.8132 30.7329 31.8337L31.6171 32.3445Z" fill="url(#paint72_linear_313_3023)"/>
<path d="M43.311 33.2854C43.346 33.3059 43.346 33.3384 43.311 33.3589L42.9593 33.5625C42.9243 33.583 42.8677 33.583 42.8328 33.5625L41.9485 33.0517C41.9136 33.0312 41.9124 32.9987 41.9485 32.9782L42.3003 32.7746C42.3352 32.7542 42.3919 32.7542 42.4268 32.7746L43.311 33.2854Z" fill="url(#paint73_linear_313_3023)"/>
<path d="M37.1696 32.9866C37.2046 33.0071 37.2046 33.0396 37.1696 33.0601L36.3179 33.5552C36.283 33.5757 36.2264 33.5757 36.1914 33.5552L35.306 33.0444C35.2711 33.0239 35.2711 32.9914 35.306 32.9709L36.1577 32.4758C36.1926 32.4553 36.2492 32.4553 36.2842 32.4758L37.1696 32.9866Z" fill="url(#paint74_linear_313_3023)"/>
<path d="M34.9492 32.9866C34.9841 33.0071 34.9841 33.0396 34.9492 33.0601L34.0975 33.5552C34.0625 33.5757 34.0059 33.5757 33.971 33.5552L33.0867 33.0444C33.0518 33.0239 33.0518 32.9914 33.0867 32.9709L33.9385 32.4758C33.9734 32.4553 34.03 32.4553 34.0661 32.4758L34.9504 32.9866H34.9492Z" fill="url(#paint75_linear_313_3023)"/>
<path d="M32.7304 32.9866C32.7654 33.0071 32.7654 33.0396 32.7304 33.0601L31.8787 33.5552C31.8438 33.5757 31.7872 33.5757 31.7522 33.5552L30.868 33.0444C30.8331 33.0239 30.8331 32.9914 30.868 32.9709L31.7197 32.4758C31.7546 32.4553 31.8113 32.4553 31.8462 32.4758L32.7304 32.9866Z" fill="url(#paint76_linear_313_3023)"/>
<path d="M42.7206 33.6275C42.7556 33.6479 42.7556 33.6805 42.7206 33.7009L41.8689 34.1961C41.834 34.2165 41.7774 34.2165 41.7424 34.1961L40.8582 33.6853C40.8233 33.6648 40.8221 33.6323 40.8582 33.6118L41.7099 33.1167C41.7448 33.0962 41.8015 33.0962 41.8364 33.1167L42.7206 33.6275Z" fill="url(#paint77_linear_313_3023)"/>
<path d="M44.4238 33.9275C44.4587 33.948 44.4587 33.9805 44.4238 34.001L44.072 34.2046C44.0371 34.2251 43.9805 34.2251 43.9456 34.2046L43.0613 33.6938C43.0264 33.6733 43.0252 33.6408 43.0613 33.6203L43.4131 33.4167C43.448 33.3962 43.5046 33.3962 43.5396 33.4167L44.4238 33.9275Z" fill="url(#paint78_linear_313_3023)"/>
<path d="M40.5014 33.6287C40.5364 33.6492 40.5364 33.6817 40.5014 33.7022L39.6497 34.1973C39.6148 34.2178 39.5582 34.2178 39.5232 34.1973L38.639 33.6865C38.6041 33.666 38.6041 33.6335 38.639 33.613L39.4907 33.1179C39.5256 33.0974 39.5823 33.0974 39.6172 33.1179L40.5014 33.6287Z" fill="url(#paint79_linear_313_3023)"/>
<path d="M38.2826 33.6287C38.3176 33.6492 38.3176 33.6817 38.2826 33.7022L37.4309 34.1973C37.396 34.2178 37.3394 34.2178 37.3044 34.1973L36.4202 33.6865C36.3853 33.666 36.3841 33.6335 36.4202 33.613L37.2719 33.1179C37.3069 33.0974 37.3635 33.0974 37.3984 33.1179L38.2826 33.6287Z" fill="url(#paint80_linear_313_3023)"/>
<path d="M36.0622 33.6287C36.0971 33.6492 36.0971 33.6817 36.0622 33.7022L35.2105 34.1973C35.1756 34.2178 35.1177 34.2178 35.084 34.1973L34.1986 33.6865C34.1636 33.666 34.1636 33.6335 34.1986 33.613L35.0503 33.1179C35.0852 33.0974 35.1418 33.0974 35.1768 33.1179L36.0622 33.6287Z" fill="url(#paint81_linear_313_3023)"/>
<path d="M43.8339 34.2708C43.8688 34.2913 43.8688 34.3238 43.8339 34.3443L42.9822 34.8394C42.9473 34.8599 42.8906 34.8599 42.8557 34.8394L41.9715 34.3286C41.9365 34.3081 41.9353 34.2756 41.9715 34.2551L42.8232 33.76C42.8581 33.7395 42.9147 33.7395 42.9497 33.76L43.8339 34.2708Z" fill="url(#paint82_linear_313_3023)"/>
<path d="M41.6147 34.2708C41.6496 34.2913 41.6496 34.3238 41.6147 34.3443L40.763 34.8394C40.7281 34.8599 40.6714 34.8599 40.6365 34.8394L39.7523 34.3286C39.7173 34.3081 39.7173 34.2756 39.7523 34.2551L40.604 33.76C40.6389 33.7395 40.6955 33.7395 40.7305 33.76L41.6147 34.2708Z" fill="url(#paint83_linear_313_3023)"/>
<path d="M39.3959 34.2708C39.4309 34.2913 39.4309 34.3238 39.3959 34.3443L38.5442 34.8394C38.5093 34.8599 38.4527 34.8599 38.4177 34.8394L37.5335 34.3286C37.4986 34.3081 37.4974 34.2756 37.5335 34.2551L38.3852 33.76C38.4201 33.7395 38.4768 33.7395 38.5117 33.76L39.3959 34.2708Z" fill="url(#paint84_linear_313_3023)"/>
<path d="M37.1757 34.272C37.2107 34.2925 37.2107 34.325 37.1757 34.3455L36.324 34.8406C36.2891 34.8611 36.2325 34.8611 36.1975 34.8406L35.3133 34.3298C35.2784 34.3093 35.2784 34.2768 35.3133 34.2563L36.165 33.7612C36.2 33.7407 36.2566 33.7407 36.2927 33.7612L37.1769 34.272H37.1757Z" fill="url(#paint85_linear_313_3023)"/>
<path d="M34.9567 34.272C34.9917 34.2925 34.9917 34.325 34.9567 34.3455L34.105 34.8406C34.0701 34.8611 34.0135 34.8611 33.9785 34.8406L33.0931 34.3298C33.0582 34.3093 33.0582 34.2768 33.0931 34.2563L33.9448 33.7612C33.9797 33.7407 34.0364 33.7407 34.0713 33.7612L34.9567 34.272Z" fill="url(#paint86_linear_313_3023)"/>
<path d="M42.7265 34.9129C42.7615 34.9333 42.7615 34.9659 42.7265 34.9863L41.8748 35.4815C41.8399 35.5019 41.7833 35.5019 41.7483 35.4815L40.8641 34.9707C40.8292 34.9502 40.8292 34.9177 40.8641 34.8972L41.7158 34.4021C41.7507 34.3816 41.8074 34.3816 41.8423 34.4021L42.7265 34.9129Z" fill="url(#paint87_linear_313_3023)"/>
<path d="M40.5087 34.9141C40.5436 34.9346 40.5436 34.9671 40.5087 34.9876L39.657 35.4827C39.6221 35.5032 39.5655 35.5032 39.5305 35.4827L38.6463 34.9719C38.6113 34.9514 38.6101 34.9189 38.6463 34.8984L39.498 34.4033C39.5329 34.3828 39.5895 34.3828 39.6245 34.4033L40.5087 34.9141Z" fill="url(#paint88_linear_313_3023)"/>
<path d="M38.2885 34.9141C38.3235 34.9346 38.3235 34.9671 38.2885 34.9876L37.4368 35.4827C37.4019 35.5032 37.3453 35.5032 37.3103 35.4827L36.4261 34.9719C36.3912 34.9514 36.3912 34.9189 36.4261 34.8984L37.2778 34.4033C37.3127 34.3828 37.3694 34.3828 37.4055 34.4033L38.2897 34.9141H38.2885Z" fill="url(#paint89_linear_313_3023)"/>
<path d="M41.6205 35.5562C41.6555 35.5766 41.6555 35.6092 41.6205 35.6297L40.7688 36.1248C40.7339 36.1453 40.6773 36.1453 40.6423 36.1248L39.7581 35.614C39.7232 35.5935 39.722 35.561 39.7581 35.5405L40.6098 35.0454C40.6447 35.0249 40.7014 35.0249 40.7363 35.0454L41.6205 35.5562Z" fill="url(#paint90_linear_313_3023)"/>
<path d="M39.4018 35.5574C39.4367 35.5779 39.4367 35.6104 39.4018 35.6309L38.5501 36.126C38.5152 36.1465 38.4586 36.1465 38.4236 36.126L37.5394 35.6152C37.5044 35.5947 37.5044 35.5622 37.5394 35.5417L38.3911 35.0466C38.426 35.0261 38.4826 35.0261 38.5188 35.0466L39.403 35.5574H39.4018Z" fill="url(#paint91_linear_313_3023)"/>
<path d="M37.1826 35.5574C37.2175 35.5779 37.2175 35.6104 37.1826 35.6309L36.3309 36.126C36.2959 36.1465 36.2393 36.1465 36.2044 36.126L35.3201 35.6152C35.2852 35.5947 35.2852 35.5622 35.3201 35.5417L36.1719 35.0466C36.2068 35.0261 36.2634 35.0261 36.2983 35.0466L37.1826 35.5574Z" fill="url(#paint92_linear_313_3023)"/>
<path d="M40.5151 36.1995C40.55 36.22 40.55 36.2525 40.5151 36.273L39.6634 36.7681C39.6285 36.7886 39.5718 36.7886 39.5369 36.7681L38.6527 36.2573C38.6177 36.2368 38.6177 36.2043 38.6527 36.1838L39.5044 35.6887C39.5393 35.6682 39.5959 35.6682 39.6321 35.6887L40.5163 36.1995H40.5151Z" fill="url(#paint93_linear_313_3023)"/>
<path d="M38.2959 36.1995C38.3308 36.22 38.3308 36.2525 38.2959 36.273L37.4441 36.7681C37.4092 36.7886 37.3526 36.7886 37.3177 36.7681L36.4334 36.2573C36.3985 36.2368 36.3985 36.2043 36.4334 36.1838L37.2851 35.6887C37.3201 35.6682 37.3767 35.6682 37.4116 35.6887L38.2959 36.1995Z" fill="url(#paint94_linear_313_3023)"/>
<path d="M39.4077 36.8428C39.4426 36.8633 39.4426 36.8958 39.4077 36.9163L38.556 37.4114C38.521 37.4319 38.4644 37.4319 38.4295 37.4114L37.5452 36.9006C37.5103 36.8801 37.5103 36.8476 37.5452 36.8271L38.397 36.332C38.4319 36.3115 38.4885 36.3115 38.5234 36.332L39.4077 36.8428Z" fill="url(#paint95_linear_313_3023)"/>
<path d="M46.0706 33.9973C46.0706 33.9973 46.0706 34.0081 46.0682 34.0141C46.0682 34.019 46.0657 34.0226 46.0645 34.0274C46.0633 34.0322 46.0621 34.0382 46.0597 34.043C46.0585 34.0479 46.0561 34.0515 46.0549 34.0563C46.0525 34.0623 46.0501 34.0671 46.0477 34.0732C46.0453 34.0768 46.0429 34.0804 46.0404 34.0852C46.0368 34.0912 46.0332 34.0973 46.0284 34.1033C46.026 34.1069 46.0224 34.1105 46.02 34.1141C46.0127 34.1226 46.0055 34.1298 45.9983 34.1382C45.9959 34.1406 45.9923 34.1442 45.9898 34.1467C45.985 34.1515 45.979 34.1551 45.9742 34.1599C45.9694 34.1635 45.9646 34.1683 45.9597 34.172C45.9537 34.1768 45.9477 34.1804 45.9417 34.184C45.9356 34.1888 45.9284 34.1924 45.9212 34.1972L34.7792 40.6724C34.7563 40.6856 34.7322 40.6965 34.7057 40.7073C34.6984 40.7097 34.6924 40.7121 34.6852 40.7145C34.6695 40.7206 34.6527 40.7254 34.6358 40.729C34.6189 40.7338 34.6009 40.7386 34.584 40.7422C34.5635 40.7471 34.5418 40.7507 34.5201 40.7531C34.5153 40.7531 34.5105 40.7543 34.5045 40.7555C34.4756 40.7591 34.4455 40.7603 34.4165 40.7603C34.4117 40.7603 34.4069 40.7603 34.4021 40.7603C34.3732 40.7603 34.3443 40.7579 34.3154 40.7555C34.3105 40.7555 34.3069 40.7555 34.3021 40.7543C34.2732 40.7507 34.2455 40.7459 34.2178 40.7398C34.213 40.7398 34.2081 40.7374 34.2033 40.7362C34.178 40.7302 34.1539 40.723 34.131 40.7145C34.1274 40.7133 34.1226 40.7121 34.1178 40.7097C34.0901 40.6989 34.0636 40.6868 34.0383 40.6724L17.4487 31.0904C17.3463 31.0314 17.2945 30.9531 17.2945 30.8748V31.4373C17.2921 31.5156 17.3439 31.5939 17.4475 31.653L34.0383 41.2313C34.0624 41.2446 34.0877 41.2566 34.1142 41.2675C34.1154 41.2675 34.1166 41.2675 34.119 41.2687C34.1226 41.2699 34.1274 41.2711 34.1322 41.2735C34.1479 41.2795 34.1624 41.2843 34.1792 41.2892C34.1877 41.2916 34.1961 41.294 34.2057 41.2952C34.2105 41.2964 34.2154 41.2976 34.2202 41.2988C34.225 41.2988 34.2286 41.3012 34.2334 41.3024C34.2503 41.306 34.2684 41.3084 34.2852 41.3108C34.2913 41.3108 34.2973 41.3121 34.3033 41.3133C34.3081 41.3133 34.3117 41.3133 34.3166 41.3145C34.3226 41.3145 34.3298 41.3157 34.3358 41.3169C34.3527 41.3181 34.3696 41.3193 34.3876 41.3193C34.3925 41.3193 34.3985 41.3193 34.4033 41.3193C34.4081 41.3193 34.4129 41.3193 34.4178 41.3193C34.4262 41.3193 34.4334 41.3193 34.4418 41.3193C34.4611 41.3193 34.4804 41.3169 34.4997 41.3157C34.5021 41.3157 34.5045 41.3157 34.5057 41.3157C34.5105 41.3157 34.5153 41.3145 34.5214 41.3133C34.5358 41.3108 34.5515 41.3096 34.5659 41.3072C34.5719 41.3072 34.578 41.3036 34.5852 41.3024C34.6033 41.2988 34.6201 41.294 34.637 41.2892C34.6466 41.2868 34.6563 41.2856 34.6647 41.2819C34.6719 41.2795 34.6792 41.2759 34.6864 41.2735C34.6936 41.2711 34.6996 41.2687 34.7069 41.2663C34.7322 41.2554 34.7575 41.2446 34.7804 41.2313L45.9224 34.7562L45.9284 34.7526C45.9284 34.7526 45.9368 34.7466 45.9417 34.743C45.9477 34.7394 45.9549 34.7345 45.9597 34.7309C45.9646 34.7273 45.9694 34.7237 45.9742 34.7189C45.9802 34.7141 45.985 34.7104 45.9898 34.7056C45.9898 34.7056 45.9923 34.7044 45.9935 34.7032C45.9959 34.7008 45.9971 34.6996 45.9995 34.6972C46.0079 34.69 46.0151 34.6815 46.0212 34.6731C46.0224 34.6719 46.0248 34.6695 46.026 34.6683C46.0272 34.6671 46.0284 34.6647 46.0296 34.6635C46.0344 34.6574 46.038 34.6514 46.0417 34.6454C46.0429 34.643 46.0453 34.6406 46.0465 34.6382C46.0465 34.637 46.0465 34.6357 46.0489 34.6345C46.0513 34.6297 46.0537 34.6237 46.0561 34.6177C46.0573 34.6141 46.0597 34.6117 46.0609 34.608C46.0609 34.608 46.0609 34.6056 46.0609 34.6044C46.0633 34.5996 46.0645 34.5936 46.0657 34.5888C46.0657 34.5852 46.0682 34.5815 46.0682 34.5779V34.5755C46.0682 34.5755 46.0694 34.5647 46.0706 34.5586C46.0706 34.555 46.0706 34.5514 46.0718 34.5478V33.9804C46.0718 33.9804 46.0718 33.99 46.0718 33.9961L46.0706 33.9973Z" fill="url(#paint96_linear_313_3023)"/>
<defs>
<linearGradient id="paint0_linear_313_3023" x1="6.48102" y1="54.5598" x2="43.4224" y2="54.5598" gradientUnits="userSpaceOnUse">
<stop stop-color="white"/>
<stop offset="1" stop-color="#BED9FD"/>
</linearGradient>
<linearGradient id="paint1_linear_313_3023" x1="51.0323" y1="41.6614" x2="17.2822" y2="41.6614" gradientUnits="userSpaceOnUse">
<stop stop-color="#55CDED"/>
<stop offset="1" stop-color="#003CCF"/>
</linearGradient>
<linearGradient id="paint2_linear_313_3023" x1="32.8431" y1="1.21313" x2="32.8431" y2="39.9856" gradientUnits="userSpaceOnUse">
<stop stop-color="#BED9FD"/>
<stop offset="1" stop-color="white"/>
</linearGradient>
<linearGradient id="paint3_linear_313_3023" x1="29.7847" y1="22.4395" x2="45.5587" y2="22.4395" gradientUnits="userSpaceOnUse">
<stop stop-color="#BED9FD"/>
<stop offset="1" stop-color="white"/>
</linearGradient>
<linearGradient id="paint4_linear_313_3023" x1="29.3872" y1="22.4397" x2="45.9563" y2="22.4397" gradientUnits="userSpaceOnUse">
<stop stop-color="#3D75DA"/>
<stop offset="1" stop-color="#55CDED"/>
</linearGradient>
<linearGradient id="paint5_linear_313_3023" x1="29.5259" y1="22.2938" x2="46.4202" y2="22.2938" gradientUnits="userSpaceOnUse">
<stop stop-color="#55CDED"/>
<stop offset="1" stop-color="#003CCF"/>
</linearGradient>
<linearGradient id="paint6_linear_313_3023" x1="22.5532" y1="31.2422" x2="44.9276" y2="31.2422" gradientUnits="userSpaceOnUse">
<stop stop-color="#BED9FD"/>
<stop offset="1" stop-color="white"/>
</linearGradient>
<linearGradient id="paint7_linear_313_3023" x1="17.2946" y1="32.4288" x2="46.0718" y2="32.4288" gradientUnits="userSpaceOnUse">
<stop stop-color="#BED9FD"/>
<stop offset="1" stop-color="white"/>
</linearGradient>
<linearGradient id="paint8_linear_313_3023" x1="24.0639" y1="34.4239" x2="27.2671" y2="34.4239" gradientUnits="userSpaceOnUse">
<stop stop-color="#BED9FD"/>
<stop offset="1" stop-color="white"/>
</linearGradient>
<linearGradient id="paint9_linear_313_3023" x1="24.9601" y1="34.1625" x2="32.399" y2="34.1625" gradientUnits="userSpaceOnUse">
<stop stop-color="#BED9FD"/>
<stop offset="1" stop-color="white"/>
</linearGradient>
<linearGradient id="paint10_linear_313_3023" x1="26.6354" y1="35.9092" x2="29.8387" y2="35.9092" gradientUnits="userSpaceOnUse">
<stop stop-color="#BED9FD"/>
<stop offset="1" stop-color="white"/>
</linearGradient>
<linearGradient id="paint11_linear_313_3023" x1="28.7069" y1="23.4673" x2="39.6947" y2="36.3549" gradientUnits="userSpaceOnUse">
<stop stop-color="#55CDED"/>
<stop offset="1" stop-color="#003CCF"/>
</linearGradient>
<linearGradient id="paint12_linear_313_3023" x1="29.9427" y1="22.4131" x2="40.9306" y2="35.3007" gradientUnits="userSpaceOnUse">
<stop stop-color="#55CDED"/>
<stop offset="1" stop-color="#003CCF"/>
</linearGradient>
<linearGradient id="paint13_linear_313_3023" x1="28.9847" y1="23.2299" x2="39.9726" y2="36.1175" gradientUnits="userSpaceOnUse">
<stop stop-color="#55CDED"/>
<stop offset="1" stop-color="#003CCF"/>
</linearGradient>
<linearGradient id="paint14_linear_313_3023" x1="30.5979" y1="21.8554" x2="41.5858" y2="34.743" gradientUnits="userSpaceOnUse">
<stop stop-color="#55CDED"/>
<stop offset="1" stop-color="#003CCF"/>
</linearGradient>
<linearGradient id="paint15_linear_313_3023" x1="29.6392" y1="22.6721" x2="40.627" y2="35.5597" gradientUnits="userSpaceOnUse">
<stop stop-color="#55CDED"/>
<stop offset="1" stop-color="#003CCF"/>
</linearGradient>
<linearGradient id="paint16_linear_313_3023" x1="28.0524" y1="24.025" x2="39.0403" y2="36.9126" gradientUnits="userSpaceOnUse">
<stop stop-color="#55CDED"/>
<stop offset="1" stop-color="#003CCF"/>
</linearGradient>
<linearGradient id="paint17_linear_313_3023" x1="27.9792" y1="24.0876" x2="38.967" y2="36.9752" gradientUnits="userSpaceOnUse">
<stop stop-color="#55CDED"/>
<stop offset="1" stop-color="#003CCF"/>
</linearGradient>
<linearGradient id="paint18_linear_313_3023" x1="28.961" y1="23.2504" x2="39.9488" y2="36.138" gradientUnits="userSpaceOnUse">
<stop stop-color="#55CDED"/>
<stop offset="1" stop-color="#003CCF"/>
</linearGradient>
<linearGradient id="paint19_linear_313_3023" x1="30.3436" y1="22.0723" x2="41.3314" y2="34.9599" gradientUnits="userSpaceOnUse">
<stop stop-color="#55CDED"/>
<stop offset="1" stop-color="#003CCF"/>
</linearGradient>
<linearGradient id="paint20_linear_313_3023" x1="29.6161" y1="22.6926" x2="40.604" y2="35.5802" gradientUnits="userSpaceOnUse">
<stop stop-color="#55CDED"/>
<stop offset="1" stop-color="#003CCF"/>
</linearGradient>
<linearGradient id="paint21_linear_313_3023" x1="30.6702" y1="21.7928" x2="41.658" y2="34.6804" gradientUnits="userSpaceOnUse">
<stop stop-color="#55CDED"/>
<stop offset="1" stop-color="#003CCF"/>
</linearGradient>
<linearGradient id="paint22_linear_313_3023" x1="31.3254" y1="21.2351" x2="42.3132" y2="34.1227" gradientUnits="userSpaceOnUse">
<stop stop-color="#55CDED"/>
<stop offset="1" stop-color="#003CCF"/>
</linearGradient>
<linearGradient id="paint23_linear_313_3023" x1="30.9258" y1="21.5759" x2="41.9124" y2="34.4635" gradientUnits="userSpaceOnUse">
<stop stop-color="#55CDED"/>
<stop offset="1" stop-color="#003CCF"/>
</linearGradient>
<linearGradient id="paint24_linear_313_3023" x1="27.6525" y1="24.3659" x2="38.6404" y2="37.2535" gradientUnits="userSpaceOnUse">
<stop stop-color="#55CDED"/>
<stop offset="1" stop-color="#003CCF"/>
</linearGradient>
<linearGradient id="paint25_linear_313_3023" x1="26.3674" y1="25.4621" x2="37.354" y2="38.3497" gradientUnits="userSpaceOnUse">
<stop stop-color="#55CDED"/>
<stop offset="1" stop-color="#003CCF"/>
</linearGradient>
<linearGradient id="paint26_linear_313_3023" x1="27.0211" y1="24.9044" x2="38.009" y2="37.792" gradientUnits="userSpaceOnUse">
<stop stop-color="#55CDED"/>
<stop offset="1" stop-color="#003CCF"/>
</linearGradient>
<linearGradient id="paint27_linear_313_3023" x1="25.736" y1="26.0006" x2="36.7238" y2="38.8882" gradientUnits="userSpaceOnUse">
<stop stop-color="#55CDED"/>
<stop offset="1" stop-color="#003CCF"/>
</linearGradient>
<linearGradient id="paint28_linear_313_3023" x1="26.0638" y1="25.7212" x2="37.0505" y2="38.6088" gradientUnits="userSpaceOnUse">
<stop stop-color="#55CDED"/>
<stop offset="1" stop-color="#003CCF"/>
</linearGradient>
<linearGradient id="paint29_linear_313_3023" x1="24.7782" y1="26.8174" x2="35.7648" y2="39.705" gradientUnits="userSpaceOnUse">
<stop stop-color="#55CDED"/>
<stop offset="1" stop-color="#003CCF"/>
</linearGradient>
<linearGradient id="paint30_linear_313_3023" x1="25.1048" y1="26.5379" x2="36.0927" y2="39.4255" gradientUnits="userSpaceOnUse">
<stop stop-color="#55CDED"/>
<stop offset="1" stop-color="#003CCF"/>
</linearGradient>
<linearGradient id="paint31_linear_313_3023" x1="24.1468" y1="27.3547" x2="35.1346" y2="40.2423" gradientUnits="userSpaceOnUse">
<stop stop-color="#55CDED"/>
<stop offset="1" stop-color="#003CCF"/>
</linearGradient>
<linearGradient id="paint32_linear_313_3023" x1="27.0456" y1="24.8839" x2="38.0323" y2="37.7715" gradientUnits="userSpaceOnUse">
<stop stop-color="#55CDED"/>
<stop offset="1" stop-color="#003CCF"/>
</linearGradient>
<linearGradient id="paint33_linear_313_3023" x1="26.0866" y1="25.7007" x2="37.0745" y2="38.5883" gradientUnits="userSpaceOnUse">
<stop stop-color="#55CDED"/>
<stop offset="1" stop-color="#003CCF"/>
</linearGradient>
<linearGradient id="paint34_linear_313_3023" x1="27.6996" y1="24.3262" x2="38.6874" y2="37.2138" gradientUnits="userSpaceOnUse">
<stop stop-color="#55CDED"/>
<stop offset="1" stop-color="#003CCF"/>
</linearGradient>
<linearGradient id="paint35_linear_313_3023" x1="28.0274" y1="24.0467" x2="39.0153" y2="36.9343" gradientUnits="userSpaceOnUse">
<stop stop-color="#55CDED"/>
<stop offset="1" stop-color="#003CCF"/>
</linearGradient>
<linearGradient id="paint36_linear_313_3023" x1="26.7418" y1="25.1429" x2="37.7285" y2="38.0305" gradientUnits="userSpaceOnUse">
<stop stop-color="#55CDED"/>
<stop offset="1" stop-color="#003CCF"/>
</linearGradient>
<linearGradient id="paint37_linear_313_3023" x1="26.1104" y1="25.6803" x2="37.0983" y2="38.5691" gradientUnits="userSpaceOnUse">
<stop stop-color="#55CDED"/>
<stop offset="1" stop-color="#003CCF"/>
</linearGradient>
<linearGradient id="paint38_linear_313_3023" x1="26.7649" y1="25.1225" x2="37.7527" y2="38.0101" gradientUnits="userSpaceOnUse">
<stop stop-color="#55CDED"/>
<stop offset="1" stop-color="#003CCF"/>
</linearGradient>
<linearGradient id="paint39_linear_313_3023" x1="27.3247" y1="24.6453" x2="38.3125" y2="37.533" gradientUnits="userSpaceOnUse">
<stop stop-color="#55CDED"/>
<stop offset="1" stop-color="#003CCF"/>
</linearGradient>
<linearGradient id="paint40_linear_313_3023" x1="28.3803" y1="23.7455" x2="39.3681" y2="36.6332" gradientUnits="userSpaceOnUse">
<stop stop-color="#55CDED"/>
<stop offset="1" stop-color="#003CCF"/>
</linearGradient>
<linearGradient id="paint41_linear_313_3023" x1="29.0342" y1="23.1878" x2="40.0221" y2="36.0754" gradientUnits="userSpaceOnUse">
<stop stop-color="#55CDED"/>
<stop offset="1" stop-color="#003CCF"/>
</linearGradient>
<linearGradient id="paint42_linear_313_3023" x1="26.6935" y1="25.1826" x2="37.6814" y2="38.0715" gradientUnits="userSpaceOnUse">
<stop stop-color="#55CDED"/>
<stop offset="1" stop-color="#003CCF"/>
</linearGradient>
<linearGradient id="paint43_linear_313_3023" x1="25.4082" y1="26.2789" x2="36.396" y2="39.1665" gradientUnits="userSpaceOnUse">
<stop stop-color="#55CDED"/>
<stop offset="1" stop-color="#003CCF"/>
</linearGradient>
<linearGradient id="paint44_linear_313_3023" x1="28.3065" y1="23.8081" x2="39.2943" y2="36.6957" gradientUnits="userSpaceOnUse">
<stop stop-color="#55CDED"/>
<stop offset="1" stop-color="#003CCF"/>
</linearGradient>
<linearGradient id="paint45_linear_313_3023" x1="29.3621" y1="22.9083" x2="40.3499" y2="35.7971" gradientUnits="userSpaceOnUse">
<stop stop-color="#55CDED"/>
<stop offset="1" stop-color="#003CCF"/>
</linearGradient>
<linearGradient id="paint46_linear_313_3023" x1="24.4504" y1="27.0957" x2="35.4382" y2="39.9833" gradientUnits="userSpaceOnUse">
<stop stop-color="#55CDED"/>
<stop offset="1" stop-color="#003CCF"/>
</linearGradient>
<linearGradient id="paint47_linear_313_3023" x1="28.6343" y1="23.5286" x2="39.6222" y2="36.4174" gradientUnits="userSpaceOnUse">
<stop stop-color="#55CDED"/>
<stop offset="1" stop-color="#003CCF"/>
</linearGradient>
<linearGradient id="paint48_linear_313_3023" x1="29.6887" y1="22.63" x2="40.6765" y2="35.5176" gradientUnits="userSpaceOnUse">
<stop stop-color="#55CDED"/>
<stop offset="1" stop-color="#003CCF"/>
</linearGradient>
<linearGradient id="paint49_linear_313_3023" x1="27.349" y1="24.6249" x2="38.3356" y2="37.5125" gradientUnits="userSpaceOnUse">
<stop stop-color="#55CDED"/>
<stop offset="1" stop-color="#003CCF"/>
</linearGradient>
<linearGradient id="paint50_linear_313_3023" x1="23.4928" y1="27.9125" x2="34.4795" y2="40.8001" gradientUnits="userSpaceOnUse">
<stop stop-color="#55CDED"/>
<stop offset="1" stop-color="#003CCF"/>
</linearGradient>
<linearGradient id="paint51_linear_313_3023" x1="30.016" y1="22.3506" x2="41.0039" y2="35.2382" gradientUnits="userSpaceOnUse">
<stop stop-color="#55CDED"/>
<stop offset="1" stop-color="#003CCF"/>
</linearGradient>
<linearGradient id="paint52_linear_313_3023" x1="27.6756" y1="24.3466" x2="38.6634" y2="37.2342" gradientUnits="userSpaceOnUse">
<stop stop-color="#55CDED"/>
<stop offset="1" stop-color="#003CCF"/>
</linearGradient>
<linearGradient id="paint53_linear_313_3023" x1="26.39" y1="25.4417" x2="37.3778" y2="38.3293" gradientUnits="userSpaceOnUse">
<stop stop-color="#55CDED"/>
<stop offset="1" stop-color="#003CCF"/>
</linearGradient>
<linearGradient id="paint54_linear_313_3023" x1="23.8195" y1="27.6342" x2="34.8073" y2="40.5218" gradientUnits="userSpaceOnUse">
<stop stop-color="#55CDED"/>
<stop offset="1" stop-color="#003CCF"/>
</linearGradient>
<linearGradient id="paint55_linear_313_3023" x1="29.2883" y1="22.9709" x2="40.2762" y2="35.8585" gradientUnits="userSpaceOnUse">
<stop stop-color="#55CDED"/>
<stop offset="1" stop-color="#003CCF"/>
</linearGradient>
<linearGradient id="paint56_linear_313_3023" x1="28.0029" y1="24.0671" x2="38.9908" y2="36.9547" gradientUnits="userSpaceOnUse">
<stop stop-color="#55CDED"/>
<stop offset="1" stop-color="#003CCF"/>
</linearGradient>
<linearGradient id="paint57_linear_313_3023" x1="26.7178" y1="25.1634" x2="37.7056" y2="38.051" gradientUnits="userSpaceOnUse">
<stop stop-color="#55CDED"/>
<stop offset="1" stop-color="#003CCF"/>
</linearGradient>
<linearGradient id="paint58_linear_313_3023" x1="25.4322" y1="26.2585" x2="36.42" y2="39.1461" gradientUnits="userSpaceOnUse">
<stop stop-color="#55CDED"/>
<stop offset="1" stop-color="#003CCF"/>
</linearGradient>
<linearGradient id="paint59_linear_313_3023" x1="28.3308" y1="23.7877" x2="39.3174" y2="36.6765" gradientUnits="userSpaceOnUse">
<stop stop-color="#55CDED"/>
<stop offset="1" stop-color="#003CCF"/>
</linearGradient>
<linearGradient id="paint60_linear_313_3023" x1="25.76" y1="25.9802" x2="36.7467" y2="38.8678" gradientUnits="userSpaceOnUse">
<stop stop-color="#55CDED"/>
<stop offset="1" stop-color="#003CCF"/>
</linearGradient>
<linearGradient id="paint61_linear_313_3023" x1="24.4746" y1="27.0752" x2="35.4612" y2="39.9641" gradientUnits="userSpaceOnUse">
<stop stop-color="#55CDED"/>
<stop offset="1" stop-color="#003CCF"/>
</linearGradient>
<linearGradient id="paint62_linear_313_3023" x1="30.9978" y1="21.5133" x2="41.9856" y2="34.4009" gradientUnits="userSpaceOnUse">
<stop stop-color="#55CDED"/>
<stop offset="1" stop-color="#003CCF"/>
</linearGradient>
<linearGradient id="paint63_linear_313_3023" x1="28.6574" y1="23.5094" x2="39.6452" y2="36.397" gradientUnits="userSpaceOnUse">
<stop stop-color="#55CDED"/>
<stop offset="1" stop-color="#003CCF"/>
</linearGradient>
<linearGradient id="paint64_linear_313_3023" x1="27.3718" y1="24.6044" x2="38.3596" y2="37.4933" gradientUnits="userSpaceOnUse">
<stop stop-color="#55CDED"/>
<stop offset="1" stop-color="#003CCF"/>
</linearGradient>
<linearGradient id="paint65_linear_313_3023" x1="24.8013" y1="26.797" x2="35.7891" y2="39.6846" gradientUnits="userSpaceOnUse">
<stop stop-color="#55CDED"/>
<stop offset="1" stop-color="#003CCF"/>
</linearGradient>
<linearGradient id="paint66_linear_313_3023" x1="30.2704" y1="22.1336" x2="41.2582" y2="35.0213" gradientUnits="userSpaceOnUse">
<stop stop-color="#55CDED"/>
<stop offset="1" stop-color="#003CCF"/>
</linearGradient>
<linearGradient id="paint67_linear_313_3023" x1="26.414" y1="25.4224" x2="37.4018" y2="38.31" gradientUnits="userSpaceOnUse">
<stop stop-color="#55CDED"/>
<stop offset="1" stop-color="#003CCF"/>
</linearGradient>
<linearGradient id="paint68_linear_313_3023" x1="25.1286" y1="26.5175" x2="36.1164" y2="39.4051" gradientUnits="userSpaceOnUse">
<stop stop-color="#55CDED"/>
<stop offset="1" stop-color="#003CCF"/>
</linearGradient>
<linearGradient id="paint69_linear_313_3023" x1="31.0665" y1="21.4554" x2="42.0543" y2="34.343" gradientUnits="userSpaceOnUse">
<stop stop-color="#55CDED"/>
<stop offset="1" stop-color="#003CCF"/>
</linearGradient>
<linearGradient id="paint70_linear_313_3023" x1="31.6532" y1="20.9556" x2="42.6398" y2="33.8432" gradientUnits="userSpaceOnUse">
<stop stop-color="#55CDED"/>
<stop offset="1" stop-color="#003CCF"/>
</linearGradient>
<linearGradient id="paint71_linear_313_3023" x1="29.3128" y1="22.9516" x2="40.2994" y2="35.8392" gradientUnits="userSpaceOnUse">
<stop stop-color="#55CDED"/>
<stop offset="1" stop-color="#003CCF"/>
</linearGradient>
<linearGradient id="paint72_linear_313_3023" x1="25.4564" y1="26.2392" x2="36.4431" y2="39.1268" gradientUnits="userSpaceOnUse">
<stop stop-color="#55CDED"/>
<stop offset="1" stop-color="#003CCF"/>
</linearGradient>
<linearGradient id="paint73_linear_313_3023" x1="31.9799" y1="20.6761" x2="42.9677" y2="33.5649" gradientUnits="userSpaceOnUse">
<stop stop-color="#55CDED"/>
<stop offset="1" stop-color="#003CCF"/>
</linearGradient>
<linearGradient id="paint74_linear_313_3023" x1="28.3538" y1="23.7672" x2="39.3416" y2="36.6548" gradientUnits="userSpaceOnUse">
<stop stop-color="#55CDED"/>
<stop offset="1" stop-color="#003CCF"/>
</linearGradient>
<linearGradient id="paint75_linear_313_3023" x1="27.0682" y1="24.8635" x2="38.056" y2="37.7511" gradientUnits="userSpaceOnUse">
<stop stop-color="#55CDED"/>
<stop offset="1" stop-color="#003CCF"/>
</linearGradient>
<linearGradient id="paint76_linear_313_3023" x1="25.7831" y1="25.9597" x2="36.7709" y2="38.8473" gradientUnits="userSpaceOnUse">
<stop stop-color="#55CDED"/>
<stop offset="1" stop-color="#003CCF"/>
</linearGradient>
<linearGradient id="paint77_linear_313_3023" x1="31.2521" y1="21.2964" x2="42.24" y2="34.1852" gradientUnits="userSpaceOnUse">
<stop stop-color="#55CDED"/>
<stop offset="1" stop-color="#003CCF"/>
</linearGradient>
<linearGradient id="paint78_linear_313_3023" x1="32.3072" y1="20.3978" x2="43.295" y2="33.2854" gradientUnits="userSpaceOnUse">
<stop stop-color="#55CDED"/>
<stop offset="1" stop-color="#003CCF"/>
</linearGradient>
<linearGradient id="paint79_linear_313_3023" x1="29.9665" y1="22.3927" x2="40.9544" y2="35.2803" gradientUnits="userSpaceOnUse">
<stop stop-color="#55CDED"/>
<stop offset="1" stop-color="#003CCF"/>
</linearGradient>
<linearGradient id="paint80_linear_313_3023" x1="28.6814" y1="23.4889" x2="39.6692" y2="36.3766" gradientUnits="userSpaceOnUse">
<stop stop-color="#55CDED"/>
<stop offset="1" stop-color="#003CCF"/>
</linearGradient>
<linearGradient id="paint81_linear_313_3023" x1="27.3958" y1="24.5852" x2="38.3836" y2="37.4728" gradientUnits="userSpaceOnUse">
<stop stop-color="#55CDED"/>
<stop offset="1" stop-color="#003CCF"/>
</linearGradient>
<linearGradient id="paint82_linear_313_3023" x1="31.58" y1="21.0181" x2="42.5678" y2="33.9057" gradientUnits="userSpaceOnUse">
<stop stop-color="#55CDED"/>
<stop offset="1" stop-color="#003CCF"/>
</linearGradient>
<linearGradient id="paint83_linear_313_3023" x1="30.2944" y1="22.1144" x2="41.281" y2="35.002" gradientUnits="userSpaceOnUse">
<stop stop-color="#55CDED"/>
<stop offset="1" stop-color="#003CCF"/>
</linearGradient>
<linearGradient id="paint84_linear_313_3023" x1="29.0092" y1="23.2094" x2="39.9959" y2="36.097" gradientUnits="userSpaceOnUse">
<stop stop-color="#55CDED"/>
<stop offset="1" stop-color="#003CCF"/>
</linearGradient>
<linearGradient id="paint85_linear_313_3023" x1="27.7239" y1="24.3057" x2="38.7105" y2="37.1933" gradientUnits="userSpaceOnUse">
<stop stop-color="#55CDED"/>
<stop offset="1" stop-color="#003CCF"/>
</linearGradient>
<linearGradient id="paint86_linear_313_3023" x1="26.4385" y1="25.402" x2="37.4251" y2="38.2896" gradientUnits="userSpaceOnUse">
<stop stop-color="#55CDED"/>
<stop offset="1" stop-color="#003CCF"/>
</linearGradient>
<linearGradient id="paint87_linear_313_3023" x1="30.6207" y1="21.8349" x2="41.6086" y2="34.7225" gradientUnits="userSpaceOnUse">
<stop stop-color="#55CDED"/>
<stop offset="1" stop-color="#003CCF"/>
</linearGradient>
<linearGradient id="paint88_linear_313_3023" x1="29.3354" y1="22.9312" x2="40.3232" y2="35.8188" gradientUnits="userSpaceOnUse">
<stop stop-color="#55CDED"/>
<stop offset="1" stop-color="#003CCF"/>
</linearGradient>
<linearGradient id="paint89_linear_313_3023" x1="28.05" y1="24.0262" x2="39.0378" y2="36.9138" gradientUnits="userSpaceOnUse">
<stop stop-color="#55CDED"/>
<stop offset="1" stop-color="#003CCF"/>
</linearGradient>
<linearGradient id="paint90_linear_313_3023" x1="29.6629" y1="22.6517" x2="40.6508" y2="35.5393" gradientUnits="userSpaceOnUse">
<stop stop-color="#55CDED"/>
<stop offset="1" stop-color="#003CCF"/>
</linearGradient>
<linearGradient id="paint91_linear_313_3023" x1="28.3778" y1="23.748" x2="39.3657" y2="36.6356" gradientUnits="userSpaceOnUse">
<stop stop-color="#55CDED"/>
<stop offset="1" stop-color="#003CCF"/>
</linearGradient>
<linearGradient id="paint92_linear_313_3023" x1="27.0922" y1="24.8442" x2="38.0801" y2="37.7318" gradientUnits="userSpaceOnUse">
<stop stop-color="#55CDED"/>
<stop offset="1" stop-color="#003CCF"/>
</linearGradient>
<linearGradient id="paint93_linear_313_3023" x1="28.7057" y1="23.4685" x2="39.6923" y2="36.3561" gradientUnits="userSpaceOnUse">
<stop stop-color="#55CDED"/>
<stop offset="1" stop-color="#003CCF"/>
</linearGradient>
<linearGradient id="paint94_linear_313_3023" x1="27.4201" y1="24.5647" x2="38.4067" y2="37.4524" gradientUnits="userSpaceOnUse">
<stop stop-color="#55CDED"/>
<stop offset="1" stop-color="#003CCF"/>
</linearGradient>
<linearGradient id="paint95_linear_313_3023" x1="27.7464" y1="24.2853" x2="38.7343" y2="37.1729" gradientUnits="userSpaceOnUse">
<stop stop-color="#55CDED"/>
<stop offset="1" stop-color="#003CCF"/>
</linearGradient>
<linearGradient id="paint96_linear_313_3023" x1="17.2921" y1="36.0982" x2="46.0718" y2="36.0982" gradientUnits="userSpaceOnUse">
<stop stop-color="#55CDED"/>
<stop offset="1" stop-color="#003CCF"/>
</linearGradient>
</defs>
</svg>
