<svg width="67" height="81" viewBox="0 0 67 81" fill="none" xmlns="http://www.w3.org/2000/svg">
<g clip-path="url(#clip0_313_2153)">
<path d="M43.3113 25.6017C43.8942 25.9641 44.3703 26.9013 44.3716 27.6925L44.4893 70.0763C44.492 70.8688 44.02 71.2177 43.4371 70.8553L20.5128 56.6146C19.9299 56.2522 19.4539 55.3163 19.4525 54.5238L19.3335 12.1387C19.3308 11.3462 19.8028 10.9973 20.3857 11.3597L43.3113 25.6017ZM44.0092 69.7788L43.8915 27.395C43.8915 26.9649 43.6305 26.4537 43.314 26.2563L20.3884 12.0143C20.0706 11.8168 19.8136 12.0075 19.815 12.4376L19.9326 54.8214C19.9326 55.2528 20.1923 55.7626 20.5101 55.9601L43.4358 70.2021C43.7536 70.3995 44.0105 70.2088 44.0092 69.7788Z" fill="url(#paint0_linear_313_2153)"/>
<path d="M43.3127 26.2549C43.6305 26.4523 43.8888 26.9635 43.8901 27.3936L44.0078 69.7774C44.0078 70.2088 43.7522 70.3982 43.4344 70.2007L20.5101 55.9614C20.1923 55.764 19.934 55.2541 19.9326 54.8227L19.8149 12.4376C19.8149 12.0075 20.0705 11.8168 20.3884 12.0143L43.3127 26.2549Z" fill="url(#paint1_linear_313_2153)"/>
<path d="M46.894 27.8629C46.8913 27.0704 46.4166 26.1346 45.8337 25.7721L22.0967 11.1244L22.0926 11.1217C21.9181 11.0149 21.7085 10.9811 21.5057 11.0095L19.9883 11.2191C20.1113 11.2272 20.2452 11.2732 20.3872 11.3611L43.3115 25.6017C43.8944 25.9642 44.3705 26.9014 44.3718 27.6925L44.4895 70.0763C44.4908 70.6781 44.2204 71.023 43.8349 70.9973L46.3571 69.8153C46.8169 69.6057 47.013 69.4962 47.0117 68.8943L46.894 27.8629Z" fill="url(#paint2_linear_313_2153)"/>
<path style="mix-blend-mode:overlay" d="M39.4383 36.8902C39.341 36.8902 39.2422 36.8631 39.153 36.8077L24.0982 27.4343C23.8453 27.276 23.7669 26.9433 23.9251 26.6891C24.0833 26.4349 24.416 26.3578 24.6703 26.516L39.725 35.8894C39.9779 36.0476 40.0564 36.3803 39.8981 36.6346C39.7954 36.7995 39.6195 36.8902 39.4383 36.8902Z" fill="url(#paint3_linear_313_2153)"/>
<path style="mix-blend-mode:overlay" d="M39.4383 41.9346C39.341 41.9346 39.2422 41.9075 39.153 41.8534L24.0982 32.48C23.8453 32.3218 23.7669 31.9891 23.9251 31.7349C24.0833 31.4806 24.416 31.4035 24.6703 31.5618L39.725 40.9352C39.9779 41.0934 40.0564 41.4261 39.8981 41.6803C39.7954 41.8453 39.6195 41.9359 39.4383 41.9359V41.9346Z" fill="url(#paint4_linear_313_2153)"/>
<path d="M35.2416 69.9329C35.1415 69.9329 35.0428 69.9059 34.9549 69.8504L22.3709 61.9998C22.2127 61.9011 22.1167 61.728 22.1167 61.5414V40.2507C22.1167 40.0546 22.2235 39.8734 22.3953 39.7774C22.567 39.6827 22.778 39.6868 22.9444 39.7909L35.5283 47.6415C35.6865 47.7403 35.7826 47.9134 35.7826 48.1V69.3893C35.7826 69.5854 35.6757 69.7666 35.504 69.8626C35.4228 69.9072 35.3322 69.9302 35.2416 69.9302V69.9329ZM23.1986 61.2398L34.7007 68.4156V48.4016L23.1986 41.2258V61.2398Z" fill="url(#paint5_linear_313_2153)"/>
<path d="M33.1212 51.1091C33.0238 51.1091 32.9238 51.082 32.8358 51.0266L24.3902 45.7577C24.1373 45.5994 24.0589 45.2654 24.2171 45.0125C24.3753 44.7596 24.7094 44.6812 24.9623 44.8394L33.4079 50.1083C33.6608 50.2665 33.7392 50.6006 33.581 50.8535C33.4782 51.0185 33.3024 51.1077 33.1212 51.1077V51.1091Z" fill="url(#paint6_linear_313_2153)"/>
<path d="M33.1212 54.4467C33.0238 54.4467 32.9238 54.4197 32.8358 54.3642L24.3902 49.0953C24.1373 48.9371 24.0589 48.603 24.2171 48.3502C24.3753 48.0973 24.7094 48.0188 24.9623 48.177L33.4079 53.4459C33.6608 53.6042 33.7392 53.9382 33.581 54.1911C33.4782 54.3561 33.3024 54.4454 33.1212 54.4454V54.4467Z" fill="url(#paint7_linear_313_2153)"/>
<path d="M33.1212 57.7845C33.0238 57.7845 32.9238 57.7574 32.8358 57.702L24.3902 52.4331C24.1373 52.2749 24.0589 51.9408 24.2171 51.6879C24.3753 51.435 24.7094 51.3566 24.9623 51.5148L33.4079 56.7837C33.6608 56.9419 33.7392 57.276 33.581 57.5289C33.4782 57.6939 33.3024 57.7831 33.1212 57.7831V57.7845Z" fill="url(#paint8_linear_313_2153)"/>
<path d="M33.1212 61.1221C33.0238 61.1221 32.9238 61.0951 32.8358 61.0396L24.3902 55.7707C24.1373 55.6125 24.0589 55.2785 24.2171 55.0256C24.3753 54.7727 24.7094 54.6942 24.9623 54.8525L33.4079 60.1214C33.6608 60.2796 33.7392 60.6136 33.581 60.8665C33.4782 61.0302 33.3024 61.1208 33.1212 61.1208V61.1221Z" fill="url(#paint9_linear_313_2153)"/>
<path d="M33.1212 64.4598C33.0238 64.4598 32.9238 64.4327 32.8358 64.3773L24.3902 59.1084C24.1373 58.9502 24.0589 58.6161 24.2171 58.3632C24.3753 58.1103 24.7094 58.0319 24.9623 58.1901L33.4079 63.459C33.6608 63.6172 33.7392 63.9513 33.581 64.2042C33.4782 64.3692 33.3024 64.4584 33.1212 64.4584V64.4598Z" fill="url(#paint10_linear_313_2153)"/>
</g>
<defs>
<linearGradient id="paint0_linear_313_2153" x1="40.7343" y1="21.8283" x2="25.8016" y2="61.2425" gradientUnits="userSpaceOnUse">
<stop stop-color="white"/>
<stop offset="1" stop-color="#BED9FD"/>
</linearGradient>
<linearGradient id="paint1_linear_313_2153" x1="43.1853" y1="15.359" x2="22.2075" y2="70.729" gradientUnits="userSpaceOnUse">
<stop stop-color="#55CDED"/>
<stop offset="1" stop-color="#3D75DA"/>
</linearGradient>
<linearGradient id="paint2_linear_313_2153" x1="33.2511" y1="14.6742" x2="55.2612" y2="66.6035" gradientUnits="userSpaceOnUse">
<stop stop-color="#BED9FD"/>
<stop offset="0.62" stop-color="white"/>
<stop offset="1" stop-color="#BED9FD"/>
</linearGradient>
<linearGradient id="paint3_linear_313_2153" x1="23.844" y1="31.6618" x2="39.9806" y2="31.6618" gradientUnits="userSpaceOnUse">
<stop stop-color="#BED9FD"/>
<stop offset="1" stop-color="white"/>
</linearGradient>
<linearGradient id="paint4_linear_313_2153" x1="19.3337" y1="36.7076" x2="19.469" y2="36.7076" gradientUnits="userSpaceOnUse">
<stop stop-color="#BED9FD"/>
<stop offset="1" stop-color="white"/>
</linearGradient>
<linearGradient id="paint5_linear_313_2153" x1="22.5277" y1="50.8116" x2="36.1592" y2="59.3163" gradientUnits="userSpaceOnUse">
<stop stop-color="#BED9FD"/>
<stop offset="1" stop-color="white"/>
</linearGradient>
<linearGradient id="paint6_linear_313_2153" x1="27.6268" y1="47.1235" x2="37.1299" y2="53.0525" gradientUnits="userSpaceOnUse">
<stop stop-color="#BED9FD"/>
<stop offset="1" stop-color="white"/>
</linearGradient>
<linearGradient id="paint7_linear_313_2153" x1="26.1251" y1="49.5304" x2="35.6282" y2="55.4594" gradientUnits="userSpaceOnUse">
<stop stop-color="#BED9FD"/>
<stop offset="1" stop-color="white"/>
</linearGradient>
<linearGradient id="paint8_linear_313_2153" x1="24.6233" y1="51.9375" x2="34.1265" y2="57.8665" gradientUnits="userSpaceOnUse">
<stop stop-color="#BED9FD"/>
<stop offset="1" stop-color="white"/>
</linearGradient>
<linearGradient id="paint9_linear_313_2153" x1="23.1216" y1="54.3444" x2="32.6248" y2="60.2734" gradientUnits="userSpaceOnUse">
<stop stop-color="#BED9FD"/>
<stop offset="1" stop-color="white"/>
</linearGradient>
<linearGradient id="paint10_linear_313_2153" x1="21.6199" y1="56.7514" x2="31.123" y2="62.6804" gradientUnits="userSpaceOnUse">
<stop stop-color="#BED9FD"/>
<stop offset="1" stop-color="white"/>
</linearGradient>
<clipPath id="clip0_313_2153">
<rect width="27.6793" height="60" fill="white" transform="translate(19.3335 11)"/>
</clipPath>
</defs>
</svg>
