<svg width="67" height="81" viewBox="0 0 67 81" fill="none" xmlns="http://www.w3.org/2000/svg">
<g clip-path="url(#clip0_313_2303)">
<g clip-path="url(#clip1_313_2303)">
<path d="M64.7068 16.6969C64.7208 16.6979 64.7337 16.7049 64.7426 16.7178C64.7575 16.7387 64.7536 16.7665 64.7337 16.7804L62.7303 18.1355C62.7214 18.1415 62.7105 18.1435 62.6995 18.1425L57.8487 17.3988L51.1557 21.9861C51.1358 22.0001 51.1079 21.9941 51.092 21.9732C51.0771 21.9523 51.0811 21.9245 51.101 21.9106L57.808 17.3133C57.8169 17.3073 57.8279 17.3054 57.8388 17.3064L62.6896 18.05L64.679 16.7039C64.687 16.6979 64.6969 16.6959 64.7058 16.6969H64.7068Z" fill="url(#paint0_linear_313_2303)"/>
<path d="M61.1902 19.603C61.2041 19.604 61.217 19.6109 61.226 19.6238C61.2409 19.6447 61.2369 19.6726 61.217 19.6865L60.5986 20.105C60.5897 20.111 60.5787 20.113 60.5688 20.112L57.0711 19.603L52.5584 22.8103C52.5385 22.8242 52.5107 22.8183 52.4947 22.7974C52.4798 22.7765 52.4828 22.7487 52.5027 22.7347L57.0294 19.5175C57.0383 19.5115 57.0493 19.5095 57.0602 19.5105L60.5578 20.0195L61.1633 19.6099C61.1713 19.604 61.1812 19.602 61.1902 19.603Z" fill="url(#paint1_linear_313_2303)"/>
<path d="M64.8164 18.5262C64.8303 18.5272 64.8432 18.5342 64.8522 18.5471C64.8671 18.568 64.8631 18.5958 64.8432 18.6098L53.7309 26.1877C53.711 26.2016 53.6831 26.1956 53.6672 26.1738C53.6523 26.1529 53.6563 26.125 53.6762 26.1111L64.7885 18.5332C64.7965 18.5272 64.8064 18.5253 64.8154 18.5262H64.8164Z" fill="url(#paint2_linear_313_2303)"/>
<path d="M66.3305 19.1864C66.3444 19.1874 66.3573 19.1944 66.3663 19.2073C66.3812 19.2282 66.3772 19.256 66.3573 19.2699L54.725 27.1998C54.7051 27.2137 54.6773 27.2077 54.6614 27.1859C54.6465 27.165 54.6504 27.1372 54.6703 27.1232L66.3027 19.1934C66.3106 19.1874 66.3205 19.1854 66.3295 19.1864H66.3305Z" fill="url(#paint3_linear_313_2303)"/>
<path d="M65.4087 21.1748C65.4226 21.1758 65.4356 21.1828 65.4445 21.1957C65.4594 21.2166 65.4554 21.2444 65.4356 21.2583L63.2741 22.7208L63.0703 25.9978C63.0703 26.0107 63.0634 26.0226 63.0524 26.0296L58.4174 29.216C58.3975 29.23 58.3697 29.224 58.3538 29.2031C58.3388 29.1822 58.3428 29.1544 58.3627 29.1405L62.9808 25.9659L63.1846 22.688C63.1846 22.6751 63.1916 22.6631 63.2025 22.6562L65.3809 21.1818C65.3888 21.1758 65.3988 21.1738 65.4077 21.1748H65.4087Z" fill="url(#paint4_linear_313_2303)"/>
<path d="M65.2743 16.84C65.1123 16.9494 64.8637 16.9116 64.7175 16.7545C64.5724 16.5984 64.5853 16.3827 64.7474 16.2723C64.9094 16.1629 65.158 16.2007 65.3041 16.3578C65.4493 16.5139 65.4364 16.7297 65.2743 16.84Z" fill="url(#paint5_linear_313_2303)"/>
<path d="M61.7719 19.7162C61.6098 19.8256 61.3613 19.7878 61.2151 19.6307C61.07 19.4746 61.0829 19.2589 61.2449 19.1485C61.407 19.0392 61.6555 19.0769 61.8017 19.234C61.9469 19.3901 61.9339 19.6059 61.7719 19.7162Z" fill="url(#paint6_linear_313_2303)"/>
<path d="M65.3729 18.6564C65.2109 18.7658 64.9623 18.728 64.8162 18.5709C64.671 18.4148 64.6839 18.1991 64.846 18.0887C65.0081 17.9794 65.2566 18.0171 65.4028 18.1742C65.5479 18.3303 65.535 18.5461 65.3729 18.6564Z" fill="url(#paint7_linear_313_2303)"/>
<path d="M66.9198 19.2937C66.7578 19.4031 66.5092 19.3653 66.3631 19.2082C66.2179 19.0521 66.2308 18.8364 66.3929 18.726C66.5549 18.6167 66.8035 18.6545 66.9496 18.8115C67.0948 18.9676 67.0819 19.1834 66.9198 19.2937Z" fill="url(#paint8_linear_313_2303)"/>
<path d="M66.0004 21.2812C65.8383 21.3905 65.5898 21.3528 65.4436 21.1957C65.2985 21.0396 65.3114 20.8238 65.4734 20.7135C65.6355 20.6041 65.8841 20.6419 66.0302 20.799C66.1754 20.9551 66.1624 21.1708 66.0004 21.2812Z" fill="url(#paint9_linear_313_2303)"/>
<path d="M63.4973 29.231V31.3715C63.4973 32.1569 63.0956 32.8877 62.4315 33.3072L50.9821 40.5571C50.2334 41.0313 49.279 41.0313 48.5303 40.5571L37.0809 33.3072C36.4178 32.8867 36.0151 32.1569 36.0151 31.3715V29.231H63.4963H63.4973Z" fill="url(#paint10_linear_313_2303)"/>
<path d="M50.3676 38.1571L62.9385 30.1964C63.6464 29.748 63.6464 28.715 62.9385 28.2666L50.3676 20.3059C49.9948 20.0693 49.5186 20.0693 49.1457 20.3059L36.5749 28.2666C35.867 28.715 35.867 29.748 36.5749 30.1964L49.1457 38.1571C49.5186 38.3937 49.9948 38.3937 50.3676 38.1571Z" fill="url(#paint11_linear_313_2303)"/>
<path d="M56.2188 28.1661V30.089C56.2188 30.4578 56.0299 30.8018 55.7177 30.9997L50.333 34.4098C49.9811 34.6325 49.5317 34.6325 49.1797 34.4098L43.795 30.9997C43.4828 30.8018 43.2939 30.4588 43.2939 30.089V28.1661H56.2188Z" fill="url(#paint12_linear_313_2303)"/>
<path d="M50.0437 32.3647L55.9563 28.6205C56.2894 28.4097 56.2894 27.9235 55.9563 27.7127L50.0437 23.9685C49.8677 23.8572 49.644 23.8572 49.469 23.9685L43.5564 27.7127C43.2234 27.9235 43.2234 28.4097 43.5564 28.6205L49.469 32.3647C49.645 32.476 49.8687 32.476 50.0437 32.3647Z" fill="url(#paint13_linear_313_2303)"/>
<path d="M45.5911 20.7603V44.6354C45.5911 45.4775 45.1596 46.2609 44.4488 46.7113L32.1722 54.4851C31.3698 54.9931 30.3458 54.9931 29.5435 54.4851L17.2669 46.7113C16.555 46.2609 16.1245 45.4775 16.1245 44.6354V20.7603H45.5911Z" fill="url(#paint14_linear_313_2303)"/>
<path d="M31.513 30.3306L44.9926 21.7952C45.7522 21.314 45.7522 20.2065 44.9926 19.7253L31.513 11.1899C31.1133 10.9364 30.6023 10.9364 30.2026 11.1899L16.723 19.7253C15.9634 20.2065 15.9634 21.314 16.723 21.7952L30.2026 30.3306C30.6023 30.5841 31.1133 30.5841 31.513 30.3306Z" fill="url(#paint15_linear_313_2303)"/>
<path d="M37.7876 20.1846V21.1162C37.7876 21.5119 37.5848 21.8807 37.2507 22.0925L31.4773 25.7482C31.0995 25.9868 30.6183 25.9868 30.2405 25.7482L24.4671 22.0925C24.132 21.8807 23.9302 21.5119 23.9302 21.1162V20.1846H37.7896H37.7876Z" fill="url(#paint16_linear_313_2303)"/>
<path d="M31.1661 24.6854L37.5062 20.6707C37.8632 20.445 37.8632 19.9231 37.5062 19.6974L31.1661 15.6827C30.9782 15.5634 30.7376 15.5634 30.5497 15.6827L24.2096 19.6974C23.8527 19.9231 23.8527 20.445 24.2096 20.6707L30.5497 24.6854C30.7376 24.8047 30.9782 24.8047 31.1661 24.6854Z" fill="url(#paint17_linear_313_2303)"/>
<path d="M34.7252 19.8624V20.3824C34.7252 20.6031 34.6119 20.8089 34.425 20.9272L31.2027 22.9674C30.992 23.1006 30.7235 23.1006 30.5127 22.9674L27.2905 20.9272C27.1036 20.8089 26.9902 20.6031 26.9902 20.3824V19.8624H34.7252Z" fill="url(#paint18_linear_313_2303)"/>
<path d="M31.0299 22.3748L34.5683 20.1338C34.7671 20.0076 34.7671 19.7172 34.5683 19.591L31.0299 17.35C30.9245 17.2834 30.7912 17.2834 30.6859 17.35L27.1474 19.591C26.9476 19.7172 26.9476 20.0076 27.1474 20.1338L30.6859 22.3748C30.7912 22.4414 30.9245 22.4414 31.0299 22.3748Z" fill="url(#paint19_linear_313_2303)"/>
<g style="mix-blend-mode:overlay">
<path d="M28.1833 33.9267C28.2608 33.9267 28.3374 33.8879 28.3821 33.8173C28.4517 33.7079 28.4189 33.5628 28.3095 33.4932L18.2938 27.1511C18.1844 27.0815 18.0393 27.1143 17.9697 27.2236C17.9001 27.333 17.9329 27.4782 18.0422 27.5478L28.058 33.8899C28.0968 33.9147 28.1405 33.9267 28.1833 33.9267Z" fill="white"/>
</g>
<g style="mix-blend-mode:overlay">
<path d="M28.1833 38.7555C28.2608 38.7555 28.3374 38.7167 28.3821 38.6461C28.4517 38.5368 28.4189 38.3916 28.3095 38.322L18.2938 31.9799C18.1844 31.9103 18.0393 31.9431 17.9697 32.0525C17.9001 32.1619 17.9329 32.307 18.0422 32.3766L28.058 38.7187C28.0968 38.7436 28.1405 38.7555 28.1833 38.7555Z" fill="white"/>
</g>
<g style="mix-blend-mode:overlay">
<path d="M28.1833 43.5845C28.2608 43.5845 28.3374 43.5457 28.3821 43.4751C28.4517 43.3658 28.4189 43.2206 28.3095 43.151L18.2938 36.8089C18.1844 36.7393 18.0393 36.7721 17.9697 36.8815C17.9001 36.9908 17.9329 37.136 18.0422 37.2056L28.058 43.5477C28.0968 43.5726 28.1405 43.5845 28.1833 43.5845Z" fill="white"/>
</g>
<g style="mix-blend-mode:overlay">
<path d="M28.1833 48.4133C28.2608 48.4133 28.3374 48.3746 28.3821 48.304C28.4517 48.1946 28.4189 48.0495 28.3095 47.9799L18.2938 41.6378C18.1844 41.5682 18.0393 41.601 17.9697 41.7103C17.9001 41.8197 17.9329 41.9649 18.0422 42.0344L28.058 48.3766C28.0968 48.4014 28.1405 48.4133 28.1833 48.4133Z" fill="white"/>
</g>
<path d="M41.9243 39.9496L43.9346 38.677V23.6444L41.9243 24.917V39.9496Z" fill="url(#paint20_linear_313_2303)"/>
<path d="M37.877 49.7357L39.8873 48.4621V33.4296L37.877 34.7022V49.7357Z" fill="url(#paint21_linear_313_2303)"/>
<path d="M2.05843 70.4342C2.04253 70.4332 2.02662 70.4243 2.01668 70.4104C1.99977 70.3855 2.00375 70.3537 2.02761 70.3378L4.35607 68.7619C4.36601 68.755 4.37894 68.753 4.39186 68.754L10.0291 69.618L17.8078 64.286C17.8307 64.2701 17.8635 64.277 17.8814 64.3019C17.8993 64.3267 17.8943 64.3586 17.8715 64.3745L10.0768 69.7174C10.0669 69.7244 10.0539 69.7273 10.041 69.7253L4.4028 68.8614L2.09025 70.4263C2.08031 70.4322 2.06937 70.4352 2.05843 70.4342Z" fill="url(#paint22_linear_313_2303)"/>
<path d="M6.14388 67.0569C6.12797 67.0559 6.11207 67.047 6.10213 67.0331C6.08522 67.0082 6.0892 66.9764 6.11306 66.9605L6.83188 66.4743C6.84182 66.4674 6.85475 66.4654 6.86668 66.4664L10.931 67.0579L16.1765 63.3306C16.1994 63.3147 16.2322 63.3207 16.2501 63.3455C16.268 63.3694 16.264 63.4022 16.2412 63.4181L10.9798 67.1573C10.9698 67.1643 10.9559 67.1663 10.944 67.1653L6.87861 66.5737L6.1757 67.049C6.16576 67.0549 6.15482 67.0579 6.14388 67.0569Z" fill="url(#paint23_linear_313_2303)"/>
<path d="M1.93002 68.3086C1.91411 68.3076 1.89821 68.2987 1.88826 68.2847C1.87037 68.2599 1.87534 68.2281 1.89821 68.2122L14.8131 59.4044C14.836 59.3885 14.8688 59.3954 14.8867 59.4203C14.9046 59.4452 14.8996 59.477 14.8767 59.4929L1.96184 68.3007C1.95189 68.3076 1.94096 68.3096 1.93002 68.3086Z" fill="url(#paint24_linear_313_2303)"/>
<path d="M0.170256 67.5421C0.154348 67.5411 0.138441 67.5321 0.128499 67.5182C0.110603 67.4933 0.115574 67.4615 0.138441 67.4456L13.6578 58.2292C13.6807 58.2133 13.7135 58.2203 13.7314 58.2451C13.7493 58.27 13.7443 58.3018 13.7214 58.3177L0.202071 67.5331C0.192128 67.5391 0.181192 67.5421 0.170256 67.5411V67.5421Z" fill="url(#paint25_linear_313_2303)"/>
<path d="M1.24203 65.2305C1.22612 65.2295 1.21021 65.2206 1.20027 65.2066C1.18337 65.1818 1.18735 65.15 1.21121 65.1341L3.72359 63.434L3.96022 59.6251C3.96022 59.6102 3.96817 59.5963 3.9811 59.5883L9.36776 55.8849C9.39063 55.869 9.42344 55.8759 9.44133 55.9008C9.45923 55.9246 9.45426 55.9574 9.43139 55.9734L4.06362 59.6639L3.82699 63.4727C3.82699 63.4876 3.81804 63.5016 3.80611 63.5095L1.27384 65.2226C1.2639 65.2285 1.25296 65.2315 1.24203 65.2305Z" fill="url(#paint26_linear_313_2303)"/>
<path d="M1.3985 70.2692C1.58641 70.142 1.87672 70.1857 2.04474 70.3677C2.21376 70.5496 2.19785 70.8001 2.00995 70.9274C1.82204 71.0547 1.53173 71.0109 1.3637 70.829C1.19469 70.647 1.2106 70.3965 1.3985 70.2692Z" fill="url(#paint27_linear_313_2303)"/>
<path d="M5.46883 66.9256C5.65674 66.7983 5.94705 66.8421 6.11507 67.024C6.2831 67.206 6.26818 67.4565 6.08028 67.5838C5.89237 67.711 5.60206 67.6673 5.43304 67.4853C5.26402 67.3034 5.27993 67.0529 5.46784 66.9256H5.46883Z" fill="url(#paint28_linear_313_2303)"/>
<path d="M1.28376 68.1575C1.47166 68.0303 1.76197 68.074 1.93 68.256C2.09901 68.4379 2.08311 68.6884 1.8952 68.8157C1.70729 68.943 1.41698 68.8992 1.24896 68.7173C1.07994 68.5353 1.09585 68.2848 1.28376 68.1575Z" fill="url(#paint29_linear_313_2303)"/>
<path d="M-0.514584 67.4168C-0.326677 67.2896 -0.0363656 67.3333 0.131657 67.5152C0.300674 67.6972 0.284767 67.9477 0.0968595 68.075C-0.0910475 68.2022 -0.381359 68.1585 -0.549382 67.9766C-0.718398 67.7946 -0.702491 67.5441 -0.514584 67.4168Z" fill="url(#paint30_linear_313_2303)"/>
<path d="M0.554264 65.1063C0.742171 64.979 1.03248 65.0227 1.2005 65.2047C1.36952 65.3866 1.35361 65.6372 1.16571 65.7644C0.9778 65.8917 0.687489 65.848 0.519466 65.666C0.350449 65.4841 0.366357 65.2335 0.554264 65.1063Z" fill="url(#paint31_linear_313_2303)"/>
<path d="M3.07959 56.4456V56.9616C3.07959 57.2539 3.23568 57.5243 3.48921 57.6705L17.5624 65.7554C18.2414 66.1472 19.0785 66.1462 19.7576 65.7525L26.2498 61.9913C26.6197 61.7766 26.8473 61.3819 26.8473 60.9544V60.9057L11.1526 52.257L3.07959 56.4436V56.4456Z" fill="url(#paint32_linear_313_2303)"/>
<path d="M26.7062 60.4742L11.7502 51.8643C11.3803 51.6515 10.925 51.6525 10.5561 51.8673L3.27644 56.1106C3.01397 56.2627 3.01397 56.6425 3.27644 56.7936L17.9233 65.2256C18.3796 65.488 18.9413 65.488 19.3967 65.2236L26.7072 60.9624C26.8941 60.853 26.8931 60.5826 26.7062 60.4752V60.4742Z" fill="url(#paint33_linear_313_2303)"/>
<path d="M5.94971 55.2148L20.1034 63.438L24.8975 60.6631L10.7428 52.439L5.94971 55.2148Z" fill="white"/>
<path d="M13.5485 59.9602L11.5353 58.7979C11.3155 58.6717 11.0451 58.6717 10.8254 58.7979L9.66712 59.4671C9.47424 59.5784 9.47424 59.8568 9.66712 59.9681L11.6804 61.1304C11.9001 61.2576 12.1706 61.2576 12.3903 61.1304L13.5485 60.4613C13.7414 60.3499 13.7414 60.0715 13.5485 59.9602Z" fill="url(#paint34_linear_313_2303)"/>
<path d="M27.0454 49.8082C26.956 49.5497 26.8267 49.3072 26.6736 49.1521C26.5791 49.0447 26.4748 48.9522 26.3594 48.8856L12.1501 40.7141C12.1103 40.6913 12.0695 40.6714 12.0268 40.6535C11.9304 40.6107 11.8359 40.5859 11.7444 40.5829C11.6609 40.5779 11.5764 40.5899 11.4899 40.6137C11.4352 40.6306 11.3796 40.6535 11.3219 40.6823C11.297 40.6923 11.2742 40.7052 11.2493 40.7181L11.2036 40.739L11.0952 40.7887L23.4245 56.7638L23.6154 57.3106L26.6179 60.9027C27.0464 60.6641 27.1826 60.5846 27.1826 60.0924V50.54C27.1826 50.3103 27.1339 50.0538 27.0454 49.8082Z" fill="url(#paint35_linear_313_2303)"/>
<path d="M26.0919 49.2226L11.4192 40.7757C11.1199 40.6027 10.7451 41.0462 10.7451 41.3921V51.4626C10.7451 51.7429 10.8952 52.0024 11.1378 52.1416L26.3623 60.9066C26.5214 60.9981 26.7202 60.8838 26.7202 60.6998V50.538C26.7202 50.0896 26.4806 49.4473 26.0919 49.2236V49.2226Z" fill="url(#paint36_linear_313_2303)"/>
<path d="M25.8832 49.7267L11.6391 41.5274C11.4084 41.3942 11.1211 41.5612 11.1211 41.8267V51.6615L25.6744 60.0397C25.9727 60.2107 26.3445 59.996 26.3445 59.653V50.5251C26.3445 50.196 26.1686 49.8918 25.8832 49.7277V49.7267Z" fill="url(#paint37_linear_313_2303)"/>
<path d="M11.6328 51.057L25.7268 59.1708V50.5459L11.6328 42.4321V51.057Z" fill="url(#paint38_linear_313_2303)"/>
<path d="M10.5146 57.4239L16.1717 60.684L16.7066 60.3748L11.0495 57.1147L10.5146 57.4239Z" fill="url(#paint39_linear_313_2303)"/>
<path d="M18.9893 62.3086L19.9646 62.8703L20.4995 62.5611L19.5251 61.9994L18.9893 62.3086Z" fill="url(#paint40_linear_313_2303)"/>
<path d="M17.7622 61.6017L18.7375 62.1634L19.2724 61.8542L18.2981 61.2925L17.7622 61.6017Z" fill="url(#paint41_linear_313_2303)"/>
<path d="M16.5356 60.8938L17.511 61.4555L18.0459 61.1463L17.0715 60.5846L16.5356 60.8938Z" fill="url(#paint42_linear_313_2303)"/>
<path d="M9.21387 56.6733L10.1882 57.2351L10.7241 56.9259L9.74876 56.3641L9.21387 56.6733Z" fill="url(#paint43_linear_313_2303)"/>
<path d="M7.9873 55.9664L8.96164 56.5282L9.49653 56.219L8.52219 55.6572L7.9873 55.9664Z" fill="url(#paint44_linear_313_2303)"/>
<path d="M6.75928 55.2585L7.7346 55.8203L8.26949 55.5111L7.29516 54.9493L6.75928 55.2585Z" fill="url(#paint45_linear_313_2303)"/>
<path d="M18.5308 61.1622L20.729 62.4289L21.2649 62.1197L19.0666 60.853L18.5308 61.1622Z" fill="url(#paint46_linear_313_2303)"/>
<path d="M17.3003 60.4524L18.2687 61.0101L18.8045 60.7009L17.8362 60.1432L17.3003 60.4524Z" fill="url(#paint47_linear_313_2303)"/>
<path d="M16.0703 59.7435L17.0377 60.3013L17.5736 59.9921L16.6062 59.4343L16.0703 59.7435Z" fill="url(#paint48_linear_313_2303)"/>
<path d="M14.8394 59.0347L15.8077 59.5924L16.3436 59.2832L15.3752 58.7255L14.8394 59.0347Z" fill="url(#paint49_linear_313_2303)"/>
<path d="M13.6094 58.3247L14.5767 58.8825L15.1126 58.5733L14.1453 58.0155L13.6094 58.3247Z" fill="url(#paint50_linear_313_2303)"/>
<path d="M12.3789 57.6158L13.3473 58.1736L13.8832 57.8644L12.9148 57.3066L12.3789 57.6158Z" fill="url(#paint51_linear_313_2303)"/>
<path d="M11.1489 56.907L12.1163 57.4647L12.6522 57.1555L11.6848 56.5978L11.1489 56.907Z" fill="url(#paint52_linear_313_2303)"/>
<path d="M9.91797 56.1971L10.8863 56.7549L11.4222 56.4457L10.4539 55.8879L9.91797 56.1971Z" fill="url(#paint53_linear_313_2303)"/>
<path d="M9.22304 55.179L8.05981 54.5079L7.52393 54.8171L8.9556 55.6423H8.95659L9.65553 56.046L10.1914 55.7368L9.22404 55.179H9.22304Z" fill="url(#paint54_linear_313_2303)"/>
<path d="M19.8213 61.1244L21.4071 62.0381L21.942 61.7289L20.3572 60.8142L19.8213 61.1244Z" fill="url(#paint55_linear_313_2303)"/>
<path d="M18.5903 60.4145L19.5587 60.9723L20.0936 60.6631L19.1262 60.1053L18.5903 60.4145Z" fill="url(#paint56_linear_313_2303)"/>
<path d="M17.3604 59.7057L18.3277 60.2634L18.8636 59.9542L17.8962 59.3965L17.3604 59.7057Z" fill="url(#paint57_linear_313_2303)"/>
<path d="M16.1294 58.9958L17.0978 59.5536L17.6327 59.2444L16.6653 58.6866L16.1294 58.9958Z" fill="url(#paint58_linear_313_2303)"/>
<path d="M14.8999 58.287L15.8673 58.8447L16.4032 58.5355L15.4348 57.9778L14.8999 58.287Z" fill="url(#paint59_linear_313_2303)"/>
<path d="M13.6689 57.578L14.6373 58.1358L15.1722 57.8266L14.2048 57.2688L13.6689 57.578Z" fill="url(#paint60_linear_313_2303)"/>
<path d="M12.439 56.8682L13.4063 57.4259L13.9422 57.1167L12.9739 56.559L12.439 56.8682Z" fill="url(#paint61_linear_313_2303)"/>
<path d="M11.208 56.1593L12.1764 56.7171L12.7113 56.4079L11.7439 55.8501L11.208 56.1593Z" fill="url(#paint62_linear_313_2303)"/>
<path d="M9.97852 55.4504L10.9459 56.0082L11.4818 55.699L10.5134 55.1412L9.97852 55.4504Z" fill="url(#paint63_linear_313_2303)"/>
<path d="M8.20166 54.4264L9.71585 55.2983L10.2507 54.9891L8.73754 54.1172L8.20166 54.4264Z" fill="url(#paint64_linear_313_2303)"/>
<path d="M20.6992 60.848L22.0842 61.6464L22.62 61.3372L21.2351 60.5388L20.6992 60.848Z" fill="url(#paint65_linear_313_2303)"/>
<path d="M19.4692 60.1392L20.4366 60.6969L20.9725 60.3877L20.0041 59.83L19.4692 60.1392Z" fill="url(#paint66_linear_313_2303)"/>
<path d="M18.2383 59.4303L19.2066 59.9881L19.7415 59.6789L18.7742 59.1201L18.2383 59.4303Z" fill="url(#paint67_linear_313_2303)"/>
<path d="M17.0083 58.7205L17.9757 59.2782L18.5116 58.969L17.5432 58.4113L17.0083 58.7205Z" fill="url(#paint68_linear_313_2303)"/>
<path d="M15.7778 58.0116L16.7462 58.5693L17.2811 58.2601L16.3137 57.7024L15.7778 58.0116Z" fill="url(#paint69_linear_313_2303)"/>
<path d="M14.5479 57.3016L15.5152 57.8594L16.0511 57.5502L15.0827 56.9924L14.5479 57.3016Z" fill="url(#paint70_linear_313_2303)"/>
<path d="M13.3169 56.5928L14.2853 57.1505L14.8202 56.8413L13.8528 56.2836L13.3169 56.5928Z" fill="url(#paint71_linear_313_2303)"/>
<path d="M12.0869 55.8839L13.0543 56.4417L13.5902 56.1325L12.6218 55.5747L12.0869 55.8839Z" fill="url(#paint72_linear_313_2303)"/>
<path d="M10.8564 55.1741L11.8248 55.7318L12.3597 55.4226L11.3923 54.8649L10.8564 55.1741Z" fill="url(#paint73_linear_313_2303)"/>
<path d="M9.62646 54.4652L10.5938 55.023L11.1297 54.7138L10.1614 54.156L9.62646 54.4652Z" fill="url(#paint74_linear_313_2303)"/>
<path d="M8.6123 54.1888L9.09649 54.4681L9.89882 54.0048L9.41464 53.7255L8.6123 54.1888Z" fill="url(#paint75_linear_313_2303)"/>
<path d="M21.7939 60.6979L22.7623 61.2556L23.2972 60.9464L22.3298 60.3887L21.7939 60.6979Z" fill="url(#paint76_linear_313_2303)"/>
<path d="M20.564 59.988L21.5313 60.5458L22.0672 60.2366L21.0989 59.6788L20.564 59.988Z" fill="url(#paint77_linear_313_2303)"/>
<path d="M19.3335 59.2792L20.3019 59.8369L20.8368 59.5277L19.8694 58.97L19.3335 59.2792Z" fill="url(#paint78_linear_313_2303)"/>
<path d="M18.1035 58.5693L19.0709 59.1281L19.6068 58.8179L18.6384 58.2601L18.1035 58.5693Z" fill="url(#paint79_linear_313_2303)"/>
<path d="M16.8726 57.8605L17.8409 58.4182L18.3758 58.109L17.4084 57.5513L16.8726 57.8605Z" fill="url(#paint80_linear_313_2303)"/>
<path d="M15.6426 57.1515L16.61 57.7092L17.1458 57.4L16.1775 56.8423L15.6426 57.1515Z" fill="url(#paint81_linear_313_2303)"/>
<path d="M14.4121 56.4416L15.3805 56.9994L15.9154 56.6902L14.948 56.1324L14.4121 56.4416Z" fill="url(#paint82_linear_313_2303)"/>
<path d="M13.1821 55.7328L14.1495 56.2905L14.6854 55.9813L13.717 55.4236L13.1821 55.7328Z" fill="url(#paint83_linear_313_2303)"/>
<path d="M11.9512 55.0239L12.9195 55.5817L13.4544 55.2725L12.4871 54.7147L11.9512 55.0239Z" fill="url(#paint84_linear_313_2303)"/>
<path d="M10.7212 54.3141L11.6886 54.8718L12.2244 54.5626L11.2561 54.0049L10.7212 54.3141Z" fill="url(#paint85_linear_313_2303)"/>
<path d="M9.55713 53.6429L10.4589 54.1629L10.9938 53.8537L10.093 53.3337L9.55713 53.6429Z" fill="url(#paint86_linear_313_2303)"/>
<path d="M22.9961 60.3609L23.6543 60.7397L24.052 60.511L23.3928 60.1312L22.9961 60.3609Z" fill="url(#paint87_linear_313_2303)"/>
<path d="M21.1118 59.2742L21.77 59.654L22.1677 59.4243L21.5085 59.0446L21.1118 59.2742Z" fill="url(#paint88_linear_313_2303)"/>
<path d="M20.1694 58.7314L20.8276 59.1112L21.2253 58.8815L20.5671 58.5017L20.1694 58.7314Z" fill="url(#paint89_linear_313_2303)"/>
<path d="M19.2266 58.1885L19.8857 58.5683L20.2824 58.3387L19.6242 57.9589L19.2266 58.1885Z" fill="url(#paint90_linear_313_2303)"/>
<path d="M18.2852 57.6447L18.9433 58.0245L19.341 57.7958L18.6818 57.416L18.2852 57.6447Z" fill="url(#paint91_linear_313_2303)"/>
<path d="M16.4014 56.559L17.0595 56.9388L17.4572 56.7091L16.7981 56.3293L16.4014 56.559Z" fill="url(#paint92_linear_313_2303)"/>
<path d="M15.4585 56.0162L16.1177 56.396L16.5144 56.1663L15.8562 55.7865L15.4585 56.0162Z" fill="url(#paint93_linear_313_2303)"/>
<path d="M14.5171 55.4733L15.1753 55.8521L15.5729 55.6234L14.9138 55.2437L14.5171 55.4733Z" fill="url(#paint94_linear_313_2303)"/>
<path d="M13.5747 54.9295L14.2339 55.3093L14.6306 55.0806L13.9724 54.7008L13.5747 54.9295Z" fill="url(#paint95_linear_313_2303)"/>
<path d="M12.2983 54.1957L12.9565 54.5755L13.3542 54.3468L12.695 53.967L12.2983 54.1957Z" fill="url(#paint96_linear_313_2303)"/>
<path d="M11.3555 53.6529L12.0146 54.0327L12.4113 53.803L11.7532 53.4232L11.3555 53.6529Z" fill="url(#paint97_linear_313_2303)"/>
<path d="M10.4141 53.11L11.0722 53.4898L11.4699 53.2602L10.8108 52.8804L10.4141 53.11Z" fill="url(#paint98_linear_313_2303)"/>
</g>
</g>
<defs>
<linearGradient id="paint0_linear_313_2303" x1="64.538" y1="15.2393" x2="51.536" y2="22.9609" gradientUnits="userSpaceOnUse">
<stop stop-color="#55CDED"/>
<stop offset="1" stop-color="#3D75DA"/>
</linearGradient>
<linearGradient id="paint1_linear_313_2303" x1="65.0291" y1="16.0677" x2="52.0272" y2="23.7883" gradientUnits="userSpaceOnUse">
<stop stop-color="#55CDED"/>
<stop offset="1" stop-color="#3D75DA"/>
</linearGradient>
<linearGradient id="paint2_linear_313_2303" x1="66.2129" y1="18.0598" x2="53.2101" y2="25.7803" gradientUnits="userSpaceOnUse">
<stop stop-color="#55CDED"/>
<stop offset="1" stop-color="#3D75DA"/>
</linearGradient>
<linearGradient id="paint3_linear_313_2303" x1="66.8909" y1="19.2014" x2="53.888" y2="26.9229" gradientUnits="userSpaceOnUse">
<stop stop-color="#55CDED"/>
<stop offset="1" stop-color="#3D75DA"/>
</linearGradient>
<linearGradient id="paint4_linear_313_2303" x1="68.0911" y1="21.2236" x2="55.0882" y2="28.9442" gradientUnits="userSpaceOnUse">
<stop stop-color="#55CDED"/>
<stop offset="1" stop-color="#3D75DA"/>
</linearGradient>
<linearGradient id="paint5_linear_313_2303" x1="64.4493" y1="16.4055" x2="51.3443" y2="24.2069" gradientUnits="userSpaceOnUse">
<stop stop-color="#55CDED"/>
<stop offset="1" stop-color="#3D75DA"/>
</linearGradient>
<linearGradient id="paint6_linear_313_2303" x1="65.0626" y1="17.4354" x2="51.9576" y2="25.237" gradientUnits="userSpaceOnUse">
<stop stop-color="#55CDED"/>
<stop offset="1" stop-color="#3D75DA"/>
</linearGradient>
<linearGradient id="paint7_linear_313_2303" x1="65.2964" y1="17.8281" x2="52.1914" y2="25.6296" gradientUnits="userSpaceOnUse">
<stop stop-color="#55CDED"/>
<stop offset="1" stop-color="#3D75DA"/>
</linearGradient>
<linearGradient id="paint8_linear_313_2303" x1="65.894" y1="18.832" x2="52.789" y2="26.6335" gradientUnits="userSpaceOnUse">
<stop stop-color="#55CDED"/>
<stop offset="1" stop-color="#3D75DA"/>
</linearGradient>
<linearGradient id="paint9_linear_313_2303" x1="66.6161" y1="20.0443" x2="53.5112" y2="27.8458" gradientUnits="userSpaceOnUse">
<stop stop-color="#55CDED"/>
<stop offset="1" stop-color="#3D75DA"/>
</linearGradient>
<linearGradient id="paint10_linear_313_2303" x1="49.7662" y1="25.8934" x2="49.7343" y2="40.8782" gradientUnits="userSpaceOnUse">
<stop stop-color="#55CDED"/>
<stop offset="1" stop-color="#003CCF"/>
</linearGradient>
<linearGradient id="paint11_linear_313_2303" x1="42.8683" y1="34.0301" x2="56.1898" y2="24.748" gradientUnits="userSpaceOnUse">
<stop stop-color="#55CDED"/>
<stop offset="1" stop-color="#003CCF"/>
</linearGradient>
<linearGradient id="paint12_linear_313_2303" x1="49.7623" y1="26.3378" x2="49.7454" y2="34.558" gradientUnits="userSpaceOnUse">
<stop stop-color="#55CDED"/>
<stop offset="1" stop-color="#003CCF"/>
</linearGradient>
<linearGradient id="paint13_linear_313_2303" x1="46.5172" y1="30.424" x2="52.7828" y2="26.0584" gradientUnits="userSpaceOnUse">
<stop stop-color="#003CCF"/>
<stop offset="1" stop-color="#55CDED"/>
</linearGradient>
<linearGradient id="paint14_linear_313_2303" x1="30.9035" y1="11.0845" x2="30.8111" y2="54.7645" gradientUnits="userSpaceOnUse">
<stop stop-color="#55CDED"/>
<stop offset="1" stop-color="#003CCF"/>
</linearGradient>
<linearGradient id="paint15_linear_313_2303" x1="23.4727" y1="25.9063" x2="37.7557" y2="15.9542" gradientUnits="userSpaceOnUse">
<stop stop-color="#55CDED"/>
<stop offset="1" stop-color="#003CCF"/>
</linearGradient>
<linearGradient id="paint16_linear_313_2303" x1="30.8619" y1="18.5431" x2="30.8469" y2="25.9103" gradientUnits="userSpaceOnUse">
<stop stop-color="#55CDED"/>
<stop offset="1" stop-color="#003CCF"/>
</linearGradient>
<linearGradient id="paint17_linear_313_2303" x1="27.3841" y1="22.6045" x2="34.102" y2="17.9237" gradientUnits="userSpaceOnUse">
<stop stop-color="#55CDED"/>
<stop offset="1" stop-color="#003CCF"/>
</linearGradient>
<linearGradient id="paint18_linear_313_2303" x1="30.8597" y1="18.9468" x2="30.8518" y2="23.0578" gradientUnits="userSpaceOnUse">
<stop stop-color="#55CDED"/>
<stop offset="1" stop-color="#003CCF"/>
</linearGradient>
<linearGradient id="paint19_linear_313_2303" x1="28.9191" y1="21.2135" x2="32.6683" y2="18.6007" gradientUnits="userSpaceOnUse">
<stop stop-color="#003CCF"/>
<stop offset="1" stop-color="#55CDED"/>
</linearGradient>
<linearGradient id="paint20_linear_313_2303" x1="42.8847" y1="23.0707" x2="43.0796" y2="61.0309" gradientUnits="userSpaceOnUse">
<stop stop-color="#55CDED"/>
<stop offset="1" stop-color="#3D75DA"/>
</linearGradient>
<linearGradient id="paint21_linear_313_2303" x1="38.7877" y1="23.0917" x2="38.9825" y2="61.0519" gradientUnits="userSpaceOnUse">
<stop stop-color="#55CDED"/>
<stop offset="1" stop-color="#3D75DA"/>
</linearGradient>
<linearGradient id="paint22_linear_313_2303" x1="-2.19784" y1="71.9648" x2="12.914" y2="62.9918" gradientUnits="userSpaceOnUse">
<stop stop-color="#55CDED"/>
<stop offset="1" stop-color="#3D75DA"/>
</linearGradient>
<linearGradient id="paint23_linear_313_2303" x1="-2.76953" y1="71.0028" x2="12.3423" y2="62.0297" gradientUnits="userSpaceOnUse">
<stop stop-color="#55CDED"/>
<stop offset="1" stop-color="#3D75DA"/>
</linearGradient>
<linearGradient id="paint24_linear_313_2303" x1="-4.14456" y1="68.6872" x2="10.9673" y2="59.7141" gradientUnits="userSpaceOnUse">
<stop stop-color="#55CDED"/>
<stop offset="1" stop-color="#3D75DA"/>
</linearGradient>
<linearGradient id="paint25_linear_313_2303" x1="-4.93233" y1="67.3599" x2="10.1795" y2="58.3869" gradientUnits="userSpaceOnUse">
<stop stop-color="#55CDED"/>
<stop offset="1" stop-color="#3D75DA"/>
</linearGradient>
<linearGradient id="paint26_linear_313_2303" x1="-6.32741" y1="65.011" x2="8.78449" y2="56.0369" gradientUnits="userSpaceOnUse">
<stop stop-color="#55CDED"/>
<stop offset="1" stop-color="#3D75DA"/>
</linearGradient>
<linearGradient id="paint27_linear_313_2303" x1="-3.80067" y1="69.707" x2="11.4295" y2="60.639" gradientUnits="userSpaceOnUse">
<stop stop-color="#55CDED"/>
<stop offset="1" stop-color="#3D75DA"/>
</linearGradient>
<linearGradient id="paint28_linear_313_2303" x1="-4.51411" y1="68.5097" x2="10.7171" y2="59.4417" gradientUnits="userSpaceOnUse">
<stop stop-color="#55CDED"/>
<stop offset="1" stop-color="#3D75DA"/>
</linearGradient>
<linearGradient id="paint29_linear_313_2303" x1="-4.78597" y1="68.0537" x2="10.4453" y2="58.9857" gradientUnits="userSpaceOnUse">
<stop stop-color="#55CDED"/>
<stop offset="1" stop-color="#3D75DA"/>
</linearGradient>
<linearGradient id="paint30_linear_313_2303" x1="-5.48019" y1="66.8867" x2="9.74998" y2="57.8187" gradientUnits="userSpaceOnUse">
<stop stop-color="#55CDED"/>
<stop offset="1" stop-color="#3D75DA"/>
</linearGradient>
<linearGradient id="paint31_linear_313_2303" x1="-6.31932" y1="65.4771" x2="8.912" y2="56.4101" gradientUnits="userSpaceOnUse">
<stop stop-color="#55CDED"/>
<stop offset="1" stop-color="#3D75DA"/>
</linearGradient>
<linearGradient id="paint32_linear_313_2303" x1="3.07959" y1="59.1538" x2="26.8473" y2="59.1538" gradientUnits="userSpaceOnUse">
<stop stop-color="#55CDED"/>
<stop offset="1" stop-color="#003CCF"/>
</linearGradient>
<linearGradient id="paint33_linear_313_2303" x1="3.07959" y1="58.5633" x2="26.8473" y2="58.5633" gradientUnits="userSpaceOnUse">
<stop stop-color="#BED9FD"/>
<stop offset="1" stop-color="white"/>
</linearGradient>
<linearGradient id="paint34_linear_313_2303" x1="9.52196" y1="59.9642" x2="13.6937" y2="59.9642" gradientUnits="userSpaceOnUse">
<stop stop-color="#55CDED"/>
<stop offset="1" stop-color="#003CCF"/>
</linearGradient>
<linearGradient id="paint35_linear_313_2303" x1="11.0942" y1="50.7428" x2="27.1826" y2="50.7428" gradientUnits="userSpaceOnUse">
<stop stop-color="#55CDED"/>
<stop offset="1" stop-color="#003CCF"/>
</linearGradient>
<linearGradient id="paint36_linear_313_2303" x1="10.7451" y1="50.8382" x2="26.7202" y2="50.8382" gradientUnits="userSpaceOnUse">
<stop stop-color="#55CDED"/>
<stop offset="1" stop-color="#3D75DA"/>
</linearGradient>
<linearGradient id="paint37_linear_313_2303" x1="11.1211" y1="50.7905" x2="26.3435" y2="50.7905" gradientUnits="userSpaceOnUse">
<stop stop-color="#BED9FD"/>
<stop offset="1" stop-color="white"/>
</linearGradient>
<linearGradient id="paint38_linear_313_2303" x1="11.6328" y1="50.8014" x2="25.7268" y2="50.8014" gradientUnits="userSpaceOnUse">
<stop stop-color="#55CDED"/>
<stop offset="1" stop-color="#003CCF"/>
</linearGradient>
<linearGradient id="paint39_linear_313_2303" x1="9.23907" y1="54.4095" x2="19.1952" y2="64.635" gradientUnits="userSpaceOnUse">
<stop stop-color="#55CDED"/>
<stop offset="1" stop-color="#003CCF"/>
</linearGradient>
<linearGradient id="paint40_linear_313_2303" x1="10.6209" y1="53.0644" x2="20.577" y2="63.2899" gradientUnits="userSpaceOnUse">
<stop stop-color="#55CDED"/>
<stop offset="1" stop-color="#003CCF"/>
</linearGradient>
<linearGradient id="paint41_linear_313_2303" x1="10.3444" y1="53.3338" x2="20.3004" y2="63.5593" gradientUnits="userSpaceOnUse">
<stop stop-color="#55CDED"/>
<stop offset="1" stop-color="#003CCF"/>
</linearGradient>
<linearGradient id="paint42_linear_313_2303" x1="10.0683" y1="53.6022" x2="20.0243" y2="63.8277" gradientUnits="userSpaceOnUse">
<stop stop-color="#55CDED"/>
<stop offset="1" stop-color="#003CCF"/>
</linearGradient>
<linearGradient id="paint43_linear_313_2303" x1="8.41949" y1="55.2079" x2="18.3746" y2="65.4334" gradientUnits="userSpaceOnUse">
<stop stop-color="#55CDED"/>
<stop offset="1" stop-color="#003CCF"/>
</linearGradient>
<linearGradient id="paint44_linear_313_2303" x1="8.1434" y1="55.4773" x2="18.0985" y2="65.7028" gradientUnits="userSpaceOnUse">
<stop stop-color="#55CDED"/>
<stop offset="1" stop-color="#003CCF"/>
</linearGradient>
<linearGradient id="paint45_linear_313_2303" x1="7.86684" y1="55.7467" x2="17.8219" y2="65.9722" gradientUnits="userSpaceOnUse">
<stop stop-color="#55CDED"/>
<stop offset="1" stop-color="#003CCF"/>
</linearGradient>
<linearGradient id="paint46_linear_313_2303" x1="11.096" y1="52.601" x2="21.0521" y2="62.8265" gradientUnits="userSpaceOnUse">
<stop stop-color="#55CDED"/>
<stop offset="1" stop-color="#003CCF"/>
</linearGradient>
<linearGradient id="paint47_linear_313_2303" x1="10.6808" y1="53.0067" x2="20.6369" y2="63.2312" gradientUnits="userSpaceOnUse">
<stop stop-color="#55CDED"/>
<stop offset="1" stop-color="#003CCF"/>
</linearGradient>
<linearGradient id="paint48_linear_313_2303" x1="10.4043" y1="53.2761" x2="20.3594" y2="63.5017" gradientUnits="userSpaceOnUse">
<stop stop-color="#55CDED"/>
<stop offset="1" stop-color="#003CCF"/>
</linearGradient>
<linearGradient id="paint49_linear_313_2303" x1="10.1268" y1="53.5456" x2="20.0829" y2="63.7711" gradientUnits="userSpaceOnUse">
<stop stop-color="#55CDED"/>
<stop offset="1" stop-color="#003CCF"/>
</linearGradient>
<linearGradient id="paint50_linear_313_2303" x1="9.84924" y1="53.8159" x2="19.8053" y2="64.0405" gradientUnits="userSpaceOnUse">
<stop stop-color="#55CDED"/>
<stop offset="1" stop-color="#003CCF"/>
</linearGradient>
<linearGradient id="paint51_linear_313_2303" x1="9.57223" y1="54.0854" x2="19.5283" y2="64.3109" gradientUnits="userSpaceOnUse">
<stop stop-color="#55CDED"/>
<stop offset="1" stop-color="#003CCF"/>
</linearGradient>
<linearGradient id="paint52_linear_313_2303" x1="9.2957" y1="54.3548" x2="19.2508" y2="64.5804" gradientUnits="userSpaceOnUse">
<stop stop-color="#55CDED"/>
<stop offset="1" stop-color="#003CCF"/>
</linearGradient>
<linearGradient id="paint53_linear_313_2303" x1="9.0182" y1="54.6253" x2="18.9743" y2="64.8508" gradientUnits="userSpaceOnUse">
<stop stop-color="#55CDED"/>
<stop offset="1" stop-color="#003CCF"/>
</linearGradient>
<linearGradient id="paint54_linear_313_2303" x1="8.60961" y1="55.0229" x2="18.5657" y2="65.2485" gradientUnits="userSpaceOnUse">
<stop stop-color="#55CDED"/>
<stop offset="1" stop-color="#003CCF"/>
</linearGradient>
<linearGradient id="paint55_linear_313_2303" x1="11.7085" y1="52.0055" x2="21.6645" y2="62.231" gradientUnits="userSpaceOnUse">
<stop stop-color="#55CDED"/>
<stop offset="1" stop-color="#003CCF"/>
</linearGradient>
<linearGradient id="paint56_linear_313_2303" x1="11.3624" y1="52.3425" x2="21.3185" y2="62.568" gradientUnits="userSpaceOnUse">
<stop stop-color="#55CDED"/>
<stop offset="1" stop-color="#003CCF"/>
</linearGradient>
<linearGradient id="paint57_linear_313_2303" x1="11.0849" y1="52.6129" x2="21.0409" y2="62.8375" gradientUnits="userSpaceOnUse">
<stop stop-color="#55CDED"/>
<stop offset="1" stop-color="#003CCF"/>
</linearGradient>
<linearGradient id="paint58_linear_313_2303" x1="10.8074" y1="52.8824" x2="20.7634" y2="63.1079" gradientUnits="userSpaceOnUse">
<stop stop-color="#55CDED"/>
<stop offset="1" stop-color="#003CCF"/>
</linearGradient>
<linearGradient id="paint59_linear_313_2303" x1="10.5313" y1="53.1519" x2="20.4864" y2="63.3774" gradientUnits="userSpaceOnUse">
<stop stop-color="#55CDED"/>
<stop offset="1" stop-color="#003CCF"/>
</linearGradient>
<linearGradient id="paint60_linear_313_2303" x1="10.2538" y1="53.4222" x2="20.2099" y2="63.6477" gradientUnits="userSpaceOnUse">
<stop stop-color="#55CDED"/>
<stop offset="1" stop-color="#003CCF"/>
</linearGradient>
<linearGradient id="paint61_linear_313_2303" x1="9.97629" y1="53.6916" x2="19.9324" y2="63.9172" gradientUnits="userSpaceOnUse">
<stop stop-color="#55CDED"/>
<stop offset="1" stop-color="#003CCF"/>
</linearGradient>
<linearGradient id="paint62_linear_313_2303" x1="9.69879" y1="53.9611" x2="19.6549" y2="64.1866" gradientUnits="userSpaceOnUse">
<stop stop-color="#55CDED"/>
<stop offset="1" stop-color="#003CCF"/>
</linearGradient>
<linearGradient id="paint63_linear_313_2303" x1="9.42275" y1="54.2315" x2="19.3778" y2="64.4571" gradientUnits="userSpaceOnUse">
<stop stop-color="#55CDED"/>
<stop offset="1" stop-color="#003CCF"/>
</linearGradient>
<linearGradient id="paint64_linear_313_2303" x1="9.08353" y1="54.5606" x2="19.0396" y2="64.7861" gradientUnits="userSpaceOnUse">
<stop stop-color="#55CDED"/>
<stop offset="1" stop-color="#003CCF"/>
</linearGradient>
<linearGradient id="paint65_linear_313_2303" x1="12.2752" y1="51.4537" x2="22.2313" y2="61.6792" gradientUnits="userSpaceOnUse">
<stop stop-color="#55CDED"/>
<stop offset="1" stop-color="#003CCF"/>
</linearGradient>
<linearGradient id="paint66_linear_313_2303" x1="11.951" y1="51.7699" x2="21.907" y2="61.9954" gradientUnits="userSpaceOnUse">
<stop stop-color="#55CDED"/>
<stop offset="1" stop-color="#003CCF"/>
</linearGradient>
<linearGradient id="paint67_linear_313_2303" x1="11.6735" y1="52.0393" x2="21.6296" y2="62.2648" gradientUnits="userSpaceOnUse">
<stop stop-color="#55CDED"/>
<stop offset="1" stop-color="#003CCF"/>
</linearGradient>
<linearGradient id="paint68_linear_313_2303" x1="11.3959" y1="52.3087" x2="21.352" y2="62.5343" gradientUnits="userSpaceOnUse">
<stop stop-color="#55CDED"/>
<stop offset="1" stop-color="#003CCF"/>
</linearGradient>
<linearGradient id="paint69_linear_313_2303" x1="11.1199" y1="52.5792" x2="21.075" y2="62.8047" gradientUnits="userSpaceOnUse">
<stop stop-color="#55CDED"/>
<stop offset="1" stop-color="#003CCF"/>
</linearGradient>
<linearGradient id="paint70_linear_313_2303" x1="10.8424" y1="52.8485" x2="20.7985" y2="63.0741" gradientUnits="userSpaceOnUse">
<stop stop-color="#55CDED"/>
<stop offset="1" stop-color="#003CCF"/>
</linearGradient>
<linearGradient id="paint71_linear_313_2303" x1="10.5649" y1="53.119" x2="20.521" y2="63.3445" gradientUnits="userSpaceOnUse">
<stop stop-color="#55CDED"/>
<stop offset="1" stop-color="#003CCF"/>
</linearGradient>
<linearGradient id="paint72_linear_313_2303" x1="10.2874" y1="53.3884" x2="20.2435" y2="63.6139" gradientUnits="userSpaceOnUse">
<stop stop-color="#55CDED"/>
<stop offset="1" stop-color="#003CCF"/>
</linearGradient>
<linearGradient id="paint73_linear_313_2303" x1="10.0114" y1="53.6579" x2="19.9665" y2="63.8834" gradientUnits="userSpaceOnUse">
<stop stop-color="#55CDED"/>
<stop offset="1" stop-color="#003CCF"/>
</linearGradient>
<linearGradient id="paint74_linear_313_2303" x1="9.73384" y1="53.9283" x2="19.6899" y2="64.1539" gradientUnits="userSpaceOnUse">
<stop stop-color="#55CDED"/>
<stop offset="1" stop-color="#003CCF"/>
</linearGradient>
<linearGradient id="paint75_linear_313_2303" x1="9.4037" y1="54.2494" x2="19.3598" y2="64.4749" gradientUnits="userSpaceOnUse">
<stop stop-color="#55CDED"/>
<stop offset="1" stop-color="#003CCF"/>
</linearGradient>
<linearGradient id="paint76_linear_313_2303" x1="12.8659" y1="50.879" x2="22.821" y2="61.1045" gradientUnits="userSpaceOnUse">
<stop stop-color="#55CDED"/>
<stop offset="1" stop-color="#003CCF"/>
</linearGradient>
<linearGradient id="paint77_linear_313_2303" x1="12.5883" y1="51.1494" x2="22.5444" y2="61.374" gradientUnits="userSpaceOnUse">
<stop stop-color="#55CDED"/>
<stop offset="1" stop-color="#003CCF"/>
</linearGradient>
<linearGradient id="paint78_linear_313_2303" x1="12.3113" y1="51.4189" x2="22.2674" y2="61.6444" gradientUnits="userSpaceOnUse">
<stop stop-color="#55CDED"/>
<stop offset="1" stop-color="#003CCF"/>
</linearGradient>
<linearGradient id="paint79_linear_313_2303" x1="12.0338" y1="51.6884" x2="21.9899" y2="61.9139" gradientUnits="userSpaceOnUse">
<stop stop-color="#55CDED"/>
<stop offset="1" stop-color="#003CCF"/>
</linearGradient>
<linearGradient id="paint80_linear_313_2303" x1="11.7573" y1="51.9588" x2="21.7124" y2="62.1843" gradientUnits="userSpaceOnUse">
<stop stop-color="#55CDED"/>
<stop offset="1" stop-color="#003CCF"/>
</linearGradient>
<linearGradient id="paint81_linear_313_2303" x1="11.4798" y1="52.2281" x2="21.4359" y2="62.4537" gradientUnits="userSpaceOnUse">
<stop stop-color="#55CDED"/>
<stop offset="1" stop-color="#003CCF"/>
</linearGradient>
<linearGradient id="paint82_linear_313_2303" x1="11.2028" y1="52.4976" x2="21.1589" y2="62.7231" gradientUnits="userSpaceOnUse">
<stop stop-color="#55CDED"/>
<stop offset="1" stop-color="#003CCF"/>
</linearGradient>
<linearGradient id="paint83_linear_313_2303" x1="10.9262" y1="52.768" x2="20.8813" y2="62.9936" gradientUnits="userSpaceOnUse">
<stop stop-color="#55CDED"/>
<stop offset="1" stop-color="#003CCF"/>
</linearGradient>
<linearGradient id="paint84_linear_313_2303" x1="10.6487" y1="53.0375" x2="20.6048" y2="63.263" gradientUnits="userSpaceOnUse">
<stop stop-color="#55CDED"/>
<stop offset="1" stop-color="#003CCF"/>
</linearGradient>
<linearGradient id="paint85_linear_313_2303" x1="10.3712" y1="53.3079" x2="20.3273" y2="63.5335" gradientUnits="userSpaceOnUse">
<stop stop-color="#55CDED"/>
<stop offset="1" stop-color="#003CCF"/>
</linearGradient>
<linearGradient id="paint86_linear_313_2303" x1="10.102" y1="53.5704" x2="20.0581" y2="63.7959" gradientUnits="userSpaceOnUse">
<stop stop-color="#55CDED"/>
<stop offset="1" stop-color="#003CCF"/>
</linearGradient>
<linearGradient id="paint87_linear_313_2303" x1="13.561" y1="50.203" x2="23.5161" y2="60.4285" gradientUnits="userSpaceOnUse">
<stop stop-color="#55CDED"/>
<stop offset="1" stop-color="#003CCF"/>
</linearGradient>
<linearGradient id="paint88_linear_313_2303" x1="13.1362" y1="50.6156" x2="23.0913" y2="60.8411" gradientUnits="userSpaceOnUse">
<stop stop-color="#55CDED"/>
<stop offset="1" stop-color="#003CCF"/>
</linearGradient>
<linearGradient id="paint89_linear_313_2303" x1="12.9236" y1="50.8224" x2="22.8797" y2="61.0479" gradientUnits="userSpaceOnUse">
<stop stop-color="#55CDED"/>
<stop offset="1" stop-color="#003CCF"/>
</linearGradient>
<linearGradient id="paint90_linear_313_2303" x1="12.7115" y1="51.0292" x2="22.6675" y2="61.2547" gradientUnits="userSpaceOnUse">
<stop stop-color="#55CDED"/>
<stop offset="1" stop-color="#003CCF"/>
</linearGradient>
<linearGradient id="paint91_linear_313_2303" x1="12.4988" y1="51.2359" x2="22.4549" y2="61.4615" gradientUnits="userSpaceOnUse">
<stop stop-color="#55CDED"/>
<stop offset="1" stop-color="#003CCF"/>
</linearGradient>
<linearGradient id="paint92_linear_313_2303" x1="12.0755" y1="51.6486" x2="22.0306" y2="61.8741" gradientUnits="userSpaceOnUse">
<stop stop-color="#55CDED"/>
<stop offset="1" stop-color="#003CCF"/>
</linearGradient>
<linearGradient id="paint93_linear_313_2303" x1="11.8624" y1="51.8554" x2="21.8185" y2="62.0809" gradientUnits="userSpaceOnUse">
<stop stop-color="#55CDED"/>
<stop offset="1" stop-color="#003CCF"/>
</linearGradient>
<linearGradient id="paint94_linear_313_2303" x1="11.6508" y1="52.0622" x2="21.6068" y2="62.2877" gradientUnits="userSpaceOnUse">
<stop stop-color="#55CDED"/>
<stop offset="1" stop-color="#003CCF"/>
</linearGradient>
<linearGradient id="paint95_linear_313_2303" x1="11.4381" y1="52.2689" x2="21.3943" y2="62.4945" gradientUnits="userSpaceOnUse">
<stop stop-color="#55CDED"/>
<stop offset="1" stop-color="#003CCF"/>
</linearGradient>
<linearGradient id="paint96_linear_313_2303" x1="11.15" y1="52.5493" x2="21.1061" y2="62.7748" gradientUnits="userSpaceOnUse">
<stop stop-color="#55CDED"/>
<stop offset="1" stop-color="#003CCF"/>
</linearGradient>
<linearGradient id="paint97_linear_313_2303" x1="10.9379" y1="52.7561" x2="20.893" y2="62.9816" gradientUnits="userSpaceOnUse">
<stop stop-color="#55CDED"/>
<stop offset="1" stop-color="#003CCF"/>
</linearGradient>
<linearGradient id="paint98_linear_313_2303" x1="10.7253" y1="52.9629" x2="20.6814" y2="63.1884" gradientUnits="userSpaceOnUse">
<stop stop-color="#55CDED"/>
<stop offset="1" stop-color="#003CCF"/>
</linearGradient>
<clipPath id="clip0_313_2303">
<rect width="66.6667" height="80" fill="white" transform="translate(0 0.5)"/>
</clipPath>
<clipPath id="clip1_313_2303">
<rect width="67.7181" height="60" fill="white" transform="translate(-0.666504 11)"/>
</clipPath>
</defs>
</svg>
