<svg width="67" height="81" viewBox="0 0 67 81" fill="none" xmlns="http://www.w3.org/2000/svg">
<g clip-path="url(#clip0_313_1370)">
<path d="M39.1462 61.0051C39.5364 61.0051 39.9266 60.9221 40.2309 60.756L49.7499 55.6064C50.0765 55.4293 50.2591 55.1858 50.2618 54.9146C50.2646 54.6462 50.0903 54.3999 49.7665 54.2256L26.4589 41.4635L26.2707 41.7679L49.5811 54.5327C49.7804 54.6434 49.8938 54.7845 49.8938 54.9201C49.8938 55.0557 49.7748 55.1968 49.5728 55.3075L40.0539 60.4572C39.5641 60.7228 38.7422 60.7228 38.2607 60.4572L16.594 48.5917C16.3948 48.481 16.2813 48.3399 16.2813 48.2043C16.2813 48.0687 16.4003 47.9276 16.6023 47.8169L20.3656 45.7802C20.8554 45.5146 21.6772 45.5146 22.1587 45.7802L37.3282 54.0872L37.5164 53.7828L22.3469 45.4759C21.7437 45.1466 20.7918 45.1466 20.183 45.4759L16.4197 47.5125C16.0931 47.6896 15.9105 47.9331 15.9077 48.2043C15.905 48.4727 16.0793 48.719 16.4031 48.8933L38.067 60.756C38.3687 60.9221 38.7561 61.0023 39.1462 61.0023V61.0051Z" fill="url(#paint0_linear_313_1370)"/>
<path d="M36.0914 54.0485C35.8368 54.6489 36.18 55.0557 36.8551 54.9561C37.5303 54.8565 38.2858 54.2892 38.5376 53.6887C38.7921 53.0883 38.449 52.6815 37.7738 52.7811C37.0987 52.8807 36.3432 53.448 36.0914 54.0485Z" fill="url(#paint1_linear_313_1370)"/>
<path d="M10.0029 53.8105V57.524H10.0056C9.96412 58.0747 10.274 58.6059 10.9492 58.9989L30.7841 70.4493C32.1954 71.2629 34.6581 71.1605 36.2852 70.2224L55.3287 59.2286C56.1754 58.7415 56.6237 58.1217 56.668 57.5268H56.6763V53.8133H10.0029V53.8105Z" fill="url(#paint2_linear_313_1370)"/>
<path d="M30.7868 66.7358L10.9519 55.2854C9.54068 54.4718 9.71778 53.0495 11.3476 52.1087L30.3911 41.1148C32.0182 40.174 34.4837 40.0716 35.8922 40.8879L55.7271 52.3384C57.1383 53.1519 56.9612 54.5742 55.3314 55.515L36.2879 66.5089C34.6608 67.4497 32.1953 67.5521 30.7868 66.7358Z" fill="url(#paint3_linear_313_1370)"/>
<path d="M19.8317 38.392V54.8703C19.8095 55.1885 19.9866 55.4985 20.3796 55.7226L31.8632 62.3527C32.6795 62.8231 34.1046 62.765 35.0482 62.2199L46.0725 55.8554C46.5623 55.5732 46.8224 55.2134 46.8473 54.8703H46.8528V38.392H19.8317Z" fill="url(#paint4_linear_313_1370)"/>
<path d="M31.8633 45.8743L20.3796 39.2442C19.5633 38.7738 19.6657 37.9492 20.6093 37.4041L31.6336 31.0397C32.5772 30.4945 34.0023 30.4364 34.8186 30.9068L46.3022 37.5369C47.1185 38.0073 47.0161 38.8319 46.0725 39.3771L35.0482 45.7415C34.1046 46.2866 32.6796 46.3447 31.8633 45.8743Z" fill="url(#paint5_linear_313_1370)"/>
<path d="M37.3007 58.0138L36.6642 58.3818C36.501 58.4759 36.3682 58.3763 36.3682 58.1577V49.2641C36.3682 49.0455 36.501 48.7909 36.6642 48.6968L37.3007 48.3288C37.464 48.2347 37.5968 48.3343 37.5968 48.5529V57.4465C37.5968 57.6651 37.464 57.9197 37.3007 58.0138Z" fill="url(#paint6_linear_313_1370)"/>
<path d="M39.6471 56.6606L39.0107 57.0287C38.8474 57.1228 38.7146 57.0231 38.7146 56.8045V47.9109C38.7146 47.6923 38.8474 47.4378 39.0107 47.3437L39.6471 46.9756C39.8104 46.8816 39.9432 46.9812 39.9432 47.1998V56.0934C39.9432 56.312 39.8104 56.5666 39.6471 56.6606Z" fill="url(#paint7_linear_313_1370)"/>
<path d="M41.9938 55.3047L41.3574 55.6728C41.1941 55.7668 41.0613 55.6672 41.0613 55.4486V46.555C41.0613 46.3364 41.1941 46.0818 41.3574 45.9877L41.9938 45.6197C42.1571 45.5256 42.2899 45.6252 42.2899 45.8439V54.7375C42.2899 54.9561 42.1571 55.2106 41.9938 55.3047Z" fill="url(#paint8_linear_313_1370)"/>
<path d="M44.3402 53.9516L43.7038 54.3196C43.5405 54.4137 43.4077 54.3141 43.4077 54.0955V45.2019C43.4077 44.9833 43.5405 44.7287 43.7038 44.6346L44.3402 44.2666C44.5035 44.1725 44.6363 44.2721 44.6363 44.4907V53.3843C44.6363 53.6029 44.5035 53.8575 44.3402 53.9516Z" fill="url(#paint9_linear_313_1370)"/>
<path d="M30.9169 59.1068C30.8422 59.1068 30.7619 59.0847 30.6844 59.0376L22.3913 54.2505C22.1035 54.0844 21.8794 53.6583 21.8794 53.2792V43.8709C21.8794 43.6551 21.9569 43.4863 22.0897 43.4116C22.2059 43.3451 22.347 43.3534 22.4909 43.4365L30.7841 48.2236C31.0718 48.3896 31.2988 48.8158 31.2988 49.1949V58.6032C31.2988 58.819 31.2213 58.985 31.0885 59.0625C31.0359 59.093 30.9805 59.1068 30.9197 59.1068H30.9169Z" fill="url(#paint10_linear_313_1370)"/>
<path d="M30.1171 54.7679C30.1171 55.0253 29.9372 55.1304 29.7131 55.0004C29.4889 54.8703 29.3091 54.5576 29.3091 54.3003C29.3091 54.0429 29.4889 53.9378 29.7131 54.0678C29.9372 54.1979 30.1171 54.5106 30.1171 54.7679Z" fill="#6DE0F6"/>
<path d="M30.1171 56.0768C30.1171 56.3341 29.9372 56.4393 29.7131 56.3092C29.4889 56.1792 29.3091 55.8665 29.3091 55.6091C29.3091 55.3518 29.4889 55.2466 29.7131 55.3767C29.9372 55.5067 30.1171 55.8194 30.1171 56.0768Z" fill="#6DE0F6"/>
<path d="M30.1171 57.3856C30.1171 57.643 29.9372 57.7481 29.7131 57.6181C29.4889 57.488 29.3091 57.1753 29.3091 56.918C29.3091 56.6606 29.4889 56.5555 29.7131 56.6855C29.9372 56.8156 30.1171 57.1283 30.1171 57.3856Z" fill="#6DE0F6"/>
<path d="M19.8317 18.8006V35.2789C19.8095 35.5972 19.9866 35.9071 20.3796 36.1312L31.8632 42.7613C32.6795 43.2317 34.1046 43.1736 35.0482 42.6285L46.0725 36.2641C46.5623 35.9818 46.8224 35.6221 46.8473 35.2789H46.8528V18.8006H19.8317Z" fill="url(#paint11_linear_313_1370)"/>
<path d="M31.8632 26.283L20.3823 19.6556C19.566 19.1852 19.6684 18.3606 20.612 17.8155L31.6335 11.4511C32.5771 10.9059 34.0022 10.8478 34.8185 11.3182L46.3021 17.9483C47.1184 18.4187 47.0161 19.2433 46.0725 19.7885L35.0482 26.1529C34.1046 26.698 32.6795 26.7561 31.8632 26.2857V26.283Z" fill="url(#paint12_linear_313_1370)"/>
<path d="M37.3007 38.4252L36.6642 38.7932C36.501 38.8873 36.3682 38.7877 36.3682 38.5691V29.6755C36.3682 29.4569 36.501 29.2023 36.6642 29.1082L37.3007 28.7402C37.464 28.6461 37.5968 28.7457 37.5968 28.9643V37.8579C37.5968 38.0765 37.464 38.3311 37.3007 38.4252Z" fill="url(#paint13_linear_313_1370)"/>
<path d="M39.6471 37.0693L39.0107 37.4373C38.8474 37.5314 38.7146 37.4318 38.7146 37.2132V28.3196C38.7146 28.101 38.8474 27.8464 39.0107 27.7523L39.6471 27.3843C39.8104 27.2902 39.9432 27.3898 39.9432 27.6084V36.502C39.9432 36.7207 39.8104 36.9752 39.6471 37.0693Z" fill="url(#paint14_linear_313_1370)"/>
<path d="M41.9938 35.7134L41.3574 36.0814C41.1941 36.1755 41.0613 36.0759 41.0613 35.8573V26.9664C41.0613 26.7478 41.1941 26.4933 41.3574 26.3992L41.9938 26.0312C42.1571 25.9371 42.2899 26.0367 42.2899 26.2553V35.1489C42.2899 35.3675 42.1571 35.6221 41.9938 35.7162V35.7134Z" fill="url(#paint15_linear_313_1370)"/>
<path d="M44.3402 34.3603L43.7038 34.7283C43.5405 34.8224 43.4077 34.7228 43.4077 34.5042V25.6106C43.4077 25.3919 43.5405 25.1374 43.7038 25.0433L44.3402 24.6753C44.5035 24.5812 44.6363 24.6808 44.6363 24.8994V33.793C44.6363 34.0116 44.5035 34.2662 44.3402 34.3603Z" fill="url(#paint16_linear_313_1370)"/>
<path d="M30.9169 39.5155C30.8422 39.5155 30.7619 39.4933 30.6844 39.4463L22.3913 34.6591C22.1035 34.4931 21.8794 34.0669 21.8794 33.6878V24.2768C21.8794 24.0609 21.9569 23.8922 22.0897 23.8174C22.2059 23.751 22.347 23.7593 22.4909 23.8423L30.7841 28.6295C31.0718 28.7955 31.2988 29.2217 31.2988 29.6008V39.0091C31.2988 39.2249 31.2213 39.3909 31.0885 39.4684C31.0359 39.4988 30.9805 39.5127 30.9197 39.5127L30.9169 39.5155Z" fill="url(#paint17_linear_313_1370)"/>
<path d="M30.1171 35.1766C30.1171 35.4339 29.9372 35.5391 29.7131 35.409C29.4889 35.279 29.3091 34.9663 29.3091 34.7089C29.3091 34.4516 29.4889 34.3464 29.7131 34.4765C29.9372 34.6065 30.1171 34.9192 30.1171 35.1766Z" fill="#6DE0F6"/>
<path d="M30.1171 36.4854C30.1171 36.7428 29.9372 36.8479 29.7131 36.7179C29.4889 36.5878 29.3091 36.2751 29.3091 36.0178C29.3091 35.7605 29.4889 35.6553 29.7131 35.7854C29.9372 35.9154 30.1171 36.2281 30.1171 36.4854Z" fill="#6DE0F6"/>
<path d="M30.1171 37.7943C30.1171 38.0516 29.9372 38.1568 29.7131 38.0267C29.4889 37.8967 29.3091 37.584 29.3091 37.3266C29.3091 37.0693 29.4889 36.9641 29.7131 37.0942C29.9372 37.2242 30.1171 37.5369 30.1171 37.7943Z" fill="#6DE0F6"/>
</g>
<defs>
<linearGradient id="paint0_linear_313_1370" x1="26.7087" y1="56.7419" x2="-95.439" y2="147.58" gradientUnits="userSpaceOnUse">
<stop stop-color="#55CDED"/>
<stop offset="1" stop-color="#3D75DA"/>
</linearGradient>
<linearGradient id="paint1_linear_313_1370" x1="29.4975" y1="60.1023" x2="-90.4347" y2="149.29" gradientUnits="userSpaceOnUse">
<stop stop-color="#55CDED"/>
<stop offset="1" stop-color="#3D75DA"/>
</linearGradient>
<linearGradient id="paint2_linear_313_1370" x1="5.5865" y1="62.4052" x2="62.4569" y2="62.4052" gradientUnits="userSpaceOnUse">
<stop stop-color="#55CDED"/>
<stop offset="1" stop-color="#003CCF"/>
</linearGradient>
<linearGradient id="paint3_linear_313_1370" x1="33.1334" y1="41.2919" x2="33.4433" y2="59.9951" gradientUnits="userSpaceOnUse">
<stop stop-color="#55CDED"/>
<stop offset="1" stop-color="#003CCF"/>
</linearGradient>
<linearGradient id="paint4_linear_313_1370" x1="31.2489" y1="50.3792" x2="40.4718" y2="50.0832" gradientUnits="userSpaceOnUse">
<stop stop-color="#92BAFC"/>
<stop offset="1" stop-color="white"/>
</linearGradient>
<linearGradient id="paint5_linear_313_1370" x1="33.2219" y1="31.1448" x2="33.4018" y2="41.9726" gradientUnits="userSpaceOnUse">
<stop stop-color="#55CDED"/>
<stop offset="1" stop-color="#003CCF"/>
</linearGradient>
<linearGradient id="paint6_linear_313_1370" x1="35.134" y1="49.2475" x2="39.9654" y2="59.9867" gradientUnits="userSpaceOnUse">
<stop stop-color="#55CDED"/>
<stop offset="1" stop-color="#3D75DA"/>
</linearGradient>
<linearGradient id="paint7_linear_313_1370" x1="37.5911" y1="48.1406" x2="42.4253" y2="58.8799" gradientUnits="userSpaceOnUse">
<stop stop-color="#55CDED"/>
<stop offset="1" stop-color="#3D75DA"/>
</linearGradient>
<linearGradient id="paint8_linear_313_1370" x1="40.0513" y1="47.0337" x2="44.8827" y2="57.773" gradientUnits="userSpaceOnUse">
<stop stop-color="#55CDED"/>
<stop offset="1" stop-color="#3D75DA"/>
</linearGradient>
<linearGradient id="paint9_linear_313_1370" x1="42.5084" y1="45.9297" x2="47.3398" y2="56.6662" gradientUnits="userSpaceOnUse">
<stop stop-color="#55CDED"/>
<stop offset="1" stop-color="#3D75DA"/>
</linearGradient>
<linearGradient id="paint10_linear_313_1370" x1="26.3954" y1="40.7606" x2="26.6638" y2="55.4376" gradientUnits="userSpaceOnUse">
<stop stop-color="#55CDED"/>
<stop offset="1" stop-color="#003CCF"/>
</linearGradient>
<linearGradient id="paint11_linear_313_1370" x1="31.2489" y1="30.7906" x2="40.4718" y2="30.4918" gradientUnits="userSpaceOnUse">
<stop stop-color="#92BAFC"/>
<stop offset="1" stop-color="white"/>
</linearGradient>
<linearGradient id="paint12_linear_313_1370" x1="33.2218" y1="11.5534" x2="33.4017" y2="22.384" gradientUnits="userSpaceOnUse">
<stop stop-color="#55CDED"/>
<stop offset="1" stop-color="#003CCF"/>
</linearGradient>
<linearGradient id="paint13_linear_313_1370" x1="35.134" y1="29.6561" x2="39.9655" y2="40.3954" gradientUnits="userSpaceOnUse">
<stop stop-color="#55CDED"/>
<stop offset="1" stop-color="#3D75DA"/>
</linearGradient>
<linearGradient id="paint14_linear_313_1370" x1="37.5911" y1="28.5493" x2="42.4253" y2="39.2886" gradientUnits="userSpaceOnUse">
<stop stop-color="#55CDED"/>
<stop offset="1" stop-color="#3D75DA"/>
</linearGradient>
<linearGradient id="paint15_linear_313_1370" x1="40.0513" y1="27.4452" x2="44.8827" y2="38.1817" gradientUnits="userSpaceOnUse">
<stop stop-color="#55CDED"/>
<stop offset="1" stop-color="#3D75DA"/>
</linearGradient>
<linearGradient id="paint16_linear_313_1370" x1="42.5084" y1="26.3383" x2="47.3398" y2="37.0776" gradientUnits="userSpaceOnUse">
<stop stop-color="#55CDED"/>
<stop offset="1" stop-color="#3D75DA"/>
</linearGradient>
<linearGradient id="paint17_linear_313_1370" x1="26.3954" y1="21.172" x2="26.6638" y2="35.8462" gradientUnits="userSpaceOnUse">
<stop stop-color="#55CDED"/>
<stop offset="1" stop-color="#003CCF"/>
</linearGradient>
<clipPath id="clip0_313_1370">
<rect width="46.679" height="60" fill="white" transform="translate(10 11)"/>
</clipPath>
</defs>
</svg>
