<svg width="67" height="81" viewBox="0 0 67 81" fill="none" xmlns="http://www.w3.org/2000/svg">
<g clip-path="url(#clip0_313_1683)">
<path d="M33.5403 69.7939L3.83966 52.6464L3.8335 53.8526L33.5341 71L63.0425 53.8514L63.0487 52.6452L33.5403 69.7939Z" fill="url(#paint0_linear_313_1683)"/>
<path d="M63.2002 52.6452L33.6918 69.7938L3.99121 52.6464L33.4996 35.4977L63.2002 52.6452Z" fill="url(#paint1_linear_313_1683)"/>
<path d="M33.5526 68.3536L3.86307 51.2123L3.85938 52.6784L33.5489 69.8197L59.5337 54.7187L59.5386 53.2526L33.5526 68.3536Z" fill="url(#paint2_linear_313_1683)"/>
<path d="M25.1085 38.8661L40.483 47.7429H48.639C49.5076 47.7429 50.3417 47.9425 50.9577 48.2986L59.5388 53.2526L33.554 68.3536L3.86328 51.2123L25.1072 38.8661H25.1085Z" fill="url(#paint3_linear_313_1683)"/>
<path style="mix-blend-mode:multiply" d="M46.0293 36.1297C41.2071 35.9745 35.7972 34.7979 30.7558 32.7096L22.4642 37.5281C16.4716 41.0111 16.1044 46.5527 21.2149 50.5507C28.1328 53.4977 37.6983 53.2673 43.6921 49.7844L51.9837 44.9659C48.3615 42.0534 46.3126 38.9228 46.0293 36.131V36.1297Z" fill="url(#paint4_linear_313_1683)"/>
<path d="M42.7766 32.9166C42.6595 32.9117 42.5425 32.9055 42.4242 32.8981C42.4205 32.8981 42.4168 32.8981 42.4131 32.8981C42.3614 32.8957 42.3084 32.892 42.2554 32.8883C42.1864 32.8833 42.1162 32.8796 42.0472 32.8747C42.0349 32.8747 42.0226 32.8723 42.009 32.8723C41.8994 32.8649 41.7885 32.8562 41.6788 32.8476C41.5384 32.8365 41.3979 32.823 41.2562 32.8094C41.2119 32.8057 41.1675 32.8008 41.1232 32.7959C41.0246 32.786 40.9261 32.7762 40.8263 32.7651C40.7757 32.7601 40.7265 32.754 40.6759 32.7478C40.5774 32.7367 40.4788 32.7244 40.3803 32.7121C40.3347 32.7059 40.2879 32.701 40.2423 32.6948C40.1104 32.6776 39.9786 32.6603 39.8468 32.6419C39.8357 32.6406 39.8234 32.6382 39.8123 32.6369C39.6534 32.6148 39.4932 32.5901 39.333 32.5655C39.2899 32.5581 39.2456 32.5519 39.2024 32.5445C39.0718 32.5236 38.9412 32.5014 38.8106 32.4792C38.7761 32.4731 38.7429 32.4681 38.7084 32.462C38.5482 32.4336 38.3893 32.4053 38.2291 32.3745C38.1922 32.3671 38.154 32.3597 38.117 32.3523C37.9876 32.3277 37.8583 32.3018 37.7277 32.2747C37.6759 32.2636 37.6242 32.2538 37.5725 32.2427C37.5269 32.2328 37.4813 32.223 37.4345 32.2131C37.3593 32.1971 37.2829 32.1811 37.2078 32.1638C37.1622 32.154 37.1154 32.1441 37.0698 32.133C36.9909 32.1158 36.9121 32.0973 36.8332 32.0788C36.7913 32.069 36.7495 32.0591 36.7076 32.0505C36.6102 32.0283 36.5141 32.0049 36.4168 31.9815C36.3934 31.9753 36.37 31.9704 36.3466 31.9642C36.2258 31.9347 36.1063 31.9051 35.9856 31.8743C35.9523 31.8657 35.9191 31.8571 35.887 31.8484C35.7996 31.8263 35.7121 31.8028 35.6246 31.7794C35.5803 31.7684 35.5371 31.756 35.4928 31.7437C35.4152 31.7228 35.3388 31.7018 35.2612 31.6796C35.2143 31.6673 35.1688 31.6538 35.1219 31.6402C35.0566 31.6217 34.9913 31.6033 34.926 31.5848C34.846 31.5614 34.7659 31.538 34.6858 31.5146C34.6291 31.4973 34.5712 31.4813 34.5145 31.464C34.4332 31.4394 34.3519 31.4148 34.2706 31.3901C34.2152 31.3729 34.1585 31.3556 34.1031 31.3384C34.018 31.3113 33.933 31.2842 33.848 31.2571C33.7963 31.241 33.7445 31.2238 33.6928 31.2078C33.5955 31.1757 33.4981 31.1437 33.4008 31.1117C33.3614 31.0981 33.3232 31.0858 33.2837 31.0735C33.1482 31.0279 33.0127 30.9811 32.8772 30.933C32.8501 30.9232 32.823 30.9133 32.7971 30.9047C32.6887 30.8665 32.5803 30.8271 32.4718 30.7877C32.4238 30.7704 32.3745 30.7519 32.3265 30.7334C32.2402 30.7014 32.1527 30.6694 32.0665 30.6373C32.0123 30.6164 31.9581 30.5967 31.9051 30.5757C31.8238 30.5449 31.7437 30.5141 31.6624 30.4821C31.618 30.4649 31.5749 30.4476 31.5306 30.4304C31.3482 30.3589 31.1671 30.285 30.986 30.2111L24.3897 34.0451C24.3355 34.0772 24.2813 34.108 24.2283 34.14C24.2185 34.1462 24.2098 34.1511 24.2012 34.1573C24.1556 34.1856 24.11 34.2127 24.0644 34.241C24.0349 34.2595 24.0053 34.278 23.9757 34.2965C23.9265 34.3273 23.8784 34.3593 23.8304 34.3913C23.8057 34.4074 23.7811 34.4234 23.7577 34.4394C23.6887 34.4862 23.6197 34.533 23.5532 34.5798L23.5482 34.5835C23.4792 34.6316 23.4115 34.6809 23.3449 34.7302C23.3228 34.7462 23.3018 34.7622 23.2809 34.7794C23.2365 34.8127 23.1922 34.846 23.149 34.8792C23.1244 34.8989 23.0998 34.9187 23.0751 34.9384C23.0369 34.9692 22.9987 35 22.9605 35.0308C22.9347 35.0517 22.9088 35.0739 22.8842 35.0948C22.8484 35.1244 22.8139 35.154 22.7794 35.1835C22.7536 35.2057 22.7289 35.2279 22.7031 35.2501C22.6698 35.2796 22.6365 35.3092 22.6045 35.3388C22.5934 35.3486 22.5811 35.3585 22.57 35.3696C22.5478 35.3905 22.5256 35.4115 22.5047 35.4312C22.4936 35.441 22.4837 35.4509 22.4727 35.462C22.4258 35.5063 22.3803 35.5507 22.3359 35.5963C22.326 35.6061 22.3162 35.616 22.3063 35.6258C22.2706 35.6628 22.2349 35.6998 22.1992 35.7367C22.1868 35.749 22.1757 35.7614 22.1647 35.7737C22.1215 35.8193 22.0796 35.8649 22.039 35.9117C22.0365 35.9141 22.0341 35.9178 22.0316 35.9203C21.9934 35.9634 21.9552 36.0078 21.9182 36.0509C21.9072 36.0644 21.8961 36.0768 21.885 36.0903C21.8529 36.1297 21.8209 36.1692 21.7889 36.2086C21.7827 36.2172 21.7753 36.2258 21.7692 36.2332C21.7667 36.2357 21.7642 36.2394 21.7618 36.2419C21.7532 36.2529 21.7445 36.264 21.7359 36.2751C21.7002 36.3219 21.6644 36.3675 21.63 36.4143C21.6152 36.4353 21.6004 36.4562 21.5844 36.4772C21.556 36.5178 21.5277 36.5573 21.4994 36.5979C21.4846 36.6201 21.4698 36.6423 21.455 36.6644C21.4279 36.7063 21.4008 36.7482 21.3737 36.7901C21.3614 36.8098 21.349 36.8295 21.3367 36.8493C21.301 36.9072 21.2677 36.9638 21.2345 37.0217C21.232 37.0254 21.2295 37.0291 21.2283 37.0328C21.195 37.0932 21.163 37.1523 21.1322 37.2115C21.1224 37.23 21.1137 37.2484 21.1039 37.2669C21.0829 37.3076 21.0632 37.3495 21.0435 37.3901C21.0324 37.4135 21.0226 37.4357 21.0115 37.4591C20.9942 37.4961 20.9782 37.5343 20.9622 37.5712C20.9523 37.5959 20.9412 37.6205 20.9314 37.6439C20.9166 37.6809 20.9018 37.7166 20.8883 37.7536C20.8833 37.7671 20.8772 37.7794 20.8723 37.793C20.8673 37.8053 20.8636 37.8164 20.8599 37.8287C20.8464 37.8644 20.8341 37.9002 20.823 37.9347C20.8143 37.9593 20.8057 37.984 20.7983 38.0086C20.786 38.0456 20.7749 38.0825 20.7638 38.1195C20.7564 38.1429 20.749 38.1663 20.7429 38.1897C20.7318 38.2304 20.7207 38.271 20.7109 38.3129C20.7059 38.3326 20.6998 38.3523 20.6961 38.372C20.6813 38.4324 20.6677 38.4928 20.6554 38.5544C20.6554 38.5544 20.6554 38.5605 20.6542 38.5642C20.6431 38.6221 20.632 38.6813 20.6234 38.7404C20.6197 38.7614 20.6172 38.7811 20.6148 38.802C20.6086 38.8439 20.6024 38.8846 20.5975 38.9265C20.595 38.9511 20.5926 38.9745 20.5901 38.9991C20.5877 39.0238 20.584 39.0484 20.5827 39.0731V39.0842C20.5753 39.1704 20.5692 39.2566 20.5667 39.3441L20.5605 41.4928C20.5642 41.3782 20.5716 41.2624 20.584 41.1478C20.5864 41.1232 20.5889 41.0998 20.5913 41.0751C20.5963 41.0332 20.6024 40.9926 20.6086 40.9507C20.6111 40.9297 20.6148 40.91 20.6172 40.8891C20.6271 40.83 20.6369 40.772 20.6493 40.7129C20.6493 40.7104 20.6493 40.7067 20.6505 40.7043C20.6628 40.6439 20.6764 40.5823 20.6911 40.5219C20.6961 40.5022 20.701 40.4825 20.7059 40.4628C20.7158 40.4221 20.7269 40.3803 20.738 40.3396C20.7441 40.3162 20.7515 40.2928 20.7589 40.2694C20.77 40.2324 20.7811 40.1955 20.7934 40.1585C20.802 40.1339 20.8094 40.1092 20.818 40.0833C20.8304 40.0476 20.8427 40.0119 20.855 39.9774C20.8636 39.9527 20.8735 39.9281 20.8833 39.9022C20.8969 39.8653 20.9117 39.8295 20.9265 39.7926C20.9363 39.7679 20.9462 39.7433 20.9573 39.7199C20.9733 39.6829 20.9905 39.6447 21.0065 39.6078C21.0164 39.5844 21.0275 39.5622 21.0386 39.5388C21.0583 39.4981 21.078 39.4562 21.0989 39.4156C21.1088 39.3971 21.1174 39.3786 21.1273 39.3589C21.1581 39.2998 21.1901 39.2406 21.2234 39.1815C21.2258 39.1778 21.2283 39.1741 21.2308 39.1692C21.264 39.1113 21.2973 39.0534 21.333 38.9967C21.3454 38.977 21.3577 38.9573 21.37 38.9375C21.3959 38.8957 21.423 38.8538 21.4513 38.8119C21.4661 38.7897 21.4809 38.7675 21.4957 38.7454C21.5228 38.7047 21.5511 38.6653 21.5807 38.6246C21.5955 38.6037 21.6102 38.5827 21.6263 38.5618C21.6608 38.515 21.6952 38.4694 21.7322 38.4226C21.7433 38.4078 21.7544 38.3942 21.7655 38.3794C21.7716 38.3708 21.779 38.3622 21.7852 38.3548C21.816 38.3154 21.848 38.2759 21.8813 38.2365C21.8924 38.223 21.9035 38.2106 21.9145 38.1971C21.9515 38.154 21.9885 38.1096 22.0279 38.0665C22.0304 38.064 22.0328 38.0603 22.0353 38.0579C22.0759 38.0123 22.1191 37.9655 22.161 37.9199C22.172 37.9076 22.1844 37.8952 22.1967 37.8829C22.2312 37.846 22.2669 37.809 22.3039 37.772C22.3137 37.7622 22.3236 37.7523 22.3334 37.7425C22.3778 37.6981 22.4234 37.6525 22.4702 37.6082C22.4813 37.5983 22.4911 37.5885 22.5022 37.5786C22.5355 37.5478 22.5688 37.517 22.602 37.4862C22.6341 37.4566 22.6673 37.4271 22.7006 37.3975C22.7252 37.3753 22.7511 37.3532 22.777 37.331C22.8115 37.3014 22.846 37.2718 22.8817 37.2423C22.9076 37.2213 22.9322 37.1992 22.9581 37.1782C22.995 37.1474 23.0332 37.1166 23.0714 37.087C23.0961 37.0673 23.1207 37.0476 23.1466 37.0279C23.1897 36.9946 23.2341 36.9614 23.2784 36.9281C23.3006 36.9121 23.3215 36.8948 23.3425 36.8788C23.409 36.8295 23.4768 36.7803 23.5458 36.7322L23.5507 36.7285C23.6185 36.6817 23.6862 36.6349 23.7552 36.5881C23.7786 36.572 23.8033 36.556 23.8279 36.54C23.8759 36.508 23.924 36.4772 23.9733 36.4451C24.0028 36.4267 24.0324 36.4082 24.062 36.3897C24.1076 36.3614 24.1519 36.333 24.1987 36.3059C24.2616 36.2677 24.3232 36.2308 24.3872 36.1938L30.9835 32.3597C31.1647 32.4349 31.3458 32.5076 31.5281 32.579C31.549 32.5877 31.5712 32.5963 31.5922 32.6049C31.6143 32.6135 31.6365 32.6221 31.6599 32.6308C31.74 32.6628 31.8213 32.6936 31.9026 32.7244C31.9569 32.7454 32.0098 32.7663 32.064 32.786C32.1503 32.8193 32.2378 32.8513 32.324 32.8833C32.372 32.9006 32.4201 32.9191 32.4694 32.9363C32.5778 32.9757 32.6862 33.0139 32.7946 33.0534C32.8217 33.0632 32.8488 33.0731 32.8747 33.0817C33.0102 33.1297 33.1458 33.1753 33.2813 33.2221C33.3207 33.2357 33.3589 33.248 33.3983 33.2616C33.4957 33.2936 33.593 33.3269 33.6903 33.3577C33.7421 33.3749 33.7938 33.3909 33.8456 33.407C33.9306 33.4341 34.0156 33.4612 34.1006 33.4883C34.156 33.5055 34.2127 33.5228 34.2681 33.54C34.3495 33.5647 34.4308 33.5893 34.5121 33.6139C34.5688 33.6312 34.6267 33.6484 34.6833 33.6644C34.7634 33.6879 34.8435 33.7113 34.9236 33.7347C34.9544 33.7433 34.9852 33.7532 35.016 33.7618C35.0505 33.7716 35.085 33.7815 35.1182 33.7901C35.1651 33.8037 35.2106 33.816 35.2575 33.8295C35.3351 33.8505 35.4127 33.8727 35.4891 33.8936C35.5334 33.9059 35.5766 33.917 35.6209 33.9293C35.7084 33.9527 35.7959 33.9749 35.8833 33.9983C35.9166 34.007 35.9486 34.0156 35.9819 34.0242C36.1026 34.055 36.2221 34.0846 36.3429 34.1141C36.3663 34.1203 36.3909 34.1252 36.4143 34.1314C36.5104 34.1548 36.6065 34.1782 36.7039 34.2004C36.7458 34.2102 36.7889 34.2201 36.8308 34.23C36.9096 34.2484 36.9872 34.2657 37.0661 34.2842C37.1129 34.294 37.1585 34.3051 37.2041 34.315C37.2792 34.331 37.3556 34.3482 37.4308 34.3642C37.4764 34.3741 37.5232 34.384 37.5688 34.3938C37.5946 34.3987 37.6193 34.4049 37.6451 34.4098C37.671 34.4148 37.6969 34.4197 37.7228 34.4258C37.8521 34.4529 37.9827 34.4776 38.1121 34.5035C38.149 34.5109 38.1872 34.5182 38.2242 34.5256C38.3844 34.5564 38.5445 34.5848 38.7035 34.6131C38.738 34.6193 38.7712 34.6242 38.8057 34.6304C38.9363 34.6525 39.0669 34.6747 39.1975 34.6957C39.2406 34.7031 39.285 34.7092 39.3281 34.7166C39.4883 34.7412 39.6472 34.7659 39.8074 34.7881H39.8111C39.8209 34.7905 39.832 34.7918 39.8419 34.793C39.9737 34.8115 40.1055 34.8287 40.2373 34.846C40.2829 34.8521 40.3297 34.8571 40.3753 34.8632C40.4739 34.8755 40.5725 34.8879 40.671 34.8989C40.7215 34.9051 40.772 34.91 40.8213 34.9162C40.9199 34.9273 41.0197 34.9371 41.1182 34.947C41.1626 34.9519 41.207 34.9556 41.2513 34.9605C41.3918 34.9741 41.5334 34.9864 41.6727 34.9987C41.7872 35.0086 41.9018 35.0172 42.0152 35.0246C42.0238 35.0246 42.0312 35.0258 42.0398 35.0271C42.1125 35.032 42.1852 35.0369 42.2566 35.0406C42.3059 35.0443 42.3564 35.0468 42.4057 35.0505C42.4205 35.0505 42.4353 35.0517 42.4513 35.0529C42.5573 35.0591 42.6644 35.064 42.7692 35.069C42.8899 35.0739 43.0106 35.0788 43.1302 35.0825L43.1363 32.9339C43.0168 32.9302 42.8961 32.9252 42.7753 32.9203L42.7766 32.9166Z" fill="url(#paint5_linear_313_1683)"/>
<path d="M20.5658 39.3404C20.5658 39.3811 20.5645 39.4205 20.5633 39.4612L20.5571 41.6098C20.5571 41.5692 20.5571 41.5298 20.5596 41.4891C20.567 41.2254 20.5966 40.963 20.6495 40.7018L20.6557 38.5532C20.6039 38.8144 20.5731 39.0768 20.5658 39.3404Z" fill="#171E40"/>
<path d="M43.138 32.9314L43.1318 35.0801C43.2095 35.8439 43.4522 36.6398 43.8563 37.448C43.929 37.5947 44.0078 37.7425 44.0916 37.8903C44.3848 38.4078 44.7421 38.9302 45.1635 39.4513C45.5836 39.9725 46.0665 40.4949 46.6111 41.0111C46.6887 41.085 46.7676 41.1589 46.8476 41.2316C47.168 41.5261 47.5093 41.8181 47.869 42.1076L47.8752 39.9589C44.9934 37.6415 43.3635 35.1515 43.138 32.9302V32.9314Z" fill="url(#paint6_linear_313_1683)"/>
<path d="M43.1377 33.6657C39.3011 33.5425 34.9964 32.6061 30.9861 30.9441L24.3898 34.777C19.6219 37.5478 19.3299 41.9573 23.3956 45.1371C28.8991 47.4817 36.5093 47.2981 41.2773 44.5273L47.8736 40.6944C44.9919 38.377 43.3619 35.887 43.1364 33.6657H43.1377Z" fill="url(#paint7_linear_313_1683)"/>
<path d="M46.0293 31.2509C41.2071 31.0957 35.7972 29.9191 30.7558 27.8308L22.4642 32.6493C16.4716 36.1322 16.1044 41.6739 21.2149 45.6719C28.1328 48.6189 37.6983 48.3885 43.6921 44.9055L51.9837 40.087C48.3615 37.1745 46.3126 34.0439 46.0293 31.2521V31.2509ZM41.2785 43.7942C36.5106 46.5651 28.8991 46.7486 23.3968 44.4041C19.3311 41.2242 19.6231 36.8148 24.3911 34.0439L30.9874 30.2098C34.9976 31.8718 39.3024 32.807 43.1389 32.9314C43.3644 35.1528 44.9944 37.6439 47.8761 39.9601L41.2798 43.7942H41.2785Z" fill="url(#paint8_linear_313_1683)"/>
<path d="M18.332 42.2838C17.8774 41.3573 17.6507 40.4049 17.6532 39.4587L17.647 41.6074C17.6408 43.7708 18.8334 45.9626 21.2076 47.8205L21.2137 47.823V45.6719C19.8782 44.6271 18.916 43.4764 18.332 42.2838Z" fill="url(#paint9_linear_313_1683)"/>
<path d="M43.6923 44.9055C43.5704 44.977 43.4459 45.046 43.3215 45.1137C43.2882 45.1322 43.2562 45.1495 43.2229 45.1667C43.1096 45.2271 42.995 45.2874 42.8792 45.3466C42.8656 45.354 42.8521 45.3601 42.8385 45.3675C42.7104 45.4316 42.5823 45.4944 42.4517 45.556C42.4184 45.572 42.3839 45.5881 42.3506 45.6028C42.2385 45.6546 42.1252 45.7063 42.0106 45.7568C41.9884 45.7667 41.9663 45.7766 41.9428 45.7864C41.8098 45.8443 41.6755 45.901 41.54 45.9564C41.5067 45.97 41.4734 45.9835 41.4389 45.9971C41.3256 46.0427 41.211 46.0883 41.0952 46.1326C41.0669 46.1437 41.0385 46.1548 41.009 46.1659C40.871 46.2176 40.7318 46.2681 40.5913 46.3174C40.5593 46.3285 40.5272 46.3396 40.4952 46.3507C40.3782 46.3913 40.2599 46.4308 40.1416 46.4702C40.1059 46.4825 40.0702 46.4936 40.0332 46.5059C39.9556 46.5306 39.878 46.5552 39.8003 46.5786C39.7584 46.5909 39.7178 46.6045 39.6759 46.6168C39.5761 46.6476 39.4763 46.6759 39.3753 46.7055C39.3556 46.7117 39.3346 46.7178 39.3149 46.7228C39.1942 46.7573 39.0722 46.7905 38.9502 46.8238C38.9145 46.8336 38.8788 46.8423 38.843 46.8521C38.7568 46.8743 38.6693 46.8977 38.5819 46.9199C38.535 46.931 38.4882 46.9433 38.4414 46.9544C38.3638 46.9729 38.2874 46.9913 38.2098 47.0098C38.1593 47.0221 38.1088 47.0332 38.0582 47.0443C37.9831 47.0616 37.9079 47.0776 37.8328 47.0948C37.781 47.1059 37.7293 47.117 37.6763 47.1281C37.6012 47.1441 37.526 47.1589 37.4508 47.1749C37.3991 47.1848 37.3461 47.1959 37.2944 47.2057C37.2168 47.2205 37.1404 47.2353 37.0628 47.2501C37.0147 47.2587 36.9679 47.2673 36.9198 47.2759C36.7634 47.3043 36.6069 47.3302 36.4504 47.356C36.4196 47.361 36.3876 47.3659 36.3556 47.3708C36.2213 47.3918 36.0858 47.4127 35.9515 47.4312C35.9145 47.4361 35.8775 47.4423 35.8394 47.4472C35.6804 47.4694 35.5215 47.4903 35.3613 47.5088C35.3318 47.5125 35.3022 47.5162 35.2714 47.5187C35.1334 47.5347 34.9954 47.5495 34.8574 47.5642C34.8168 47.5679 34.7761 47.5729 34.7355 47.5766C34.6122 47.5889 34.489 47.6 34.3646 47.6098C34.3449 47.6111 34.324 47.6135 34.3042 47.6148C34.1613 47.6271 34.0172 47.6369 33.873 47.6468C33.8311 47.6493 33.7905 47.6517 33.7486 47.6542C33.6439 47.6603 33.5391 47.6665 33.4344 47.6727C33.3851 47.6751 33.3371 47.6776 33.2878 47.6801C33.1831 47.685 33.0784 47.6899 32.9749 47.6936C32.9318 47.6948 32.8886 47.6973 32.8455 47.6985C32.7334 47.7022 32.6213 47.7047 32.5092 47.7072C32.4833 47.7072 32.4587 47.7084 32.4328 47.7096C32.2948 47.7121 32.158 47.7133 32.02 47.7146C31.9806 47.7146 31.9412 47.7146 31.9018 47.7146C31.8032 47.7146 31.7034 47.7146 31.6049 47.7146C31.5543 47.7146 31.5038 47.7133 31.4521 47.7121C31.3634 47.7121 31.2759 47.7096 31.1872 47.7072C31.133 47.7072 31.0788 47.7047 31.0246 47.7035C30.942 47.701 30.8582 47.6985 30.7757 47.6948C30.7215 47.6924 30.6685 47.6911 30.6143 47.6887C30.5268 47.685 30.4406 47.6813 30.3531 47.6764C30.3038 47.6739 30.2545 47.6714 30.2053 47.669C30.103 47.6628 30.0007 47.6566 29.8997 47.6505C29.8665 47.648 29.832 47.6468 29.7987 47.6443C29.6632 47.6345 29.5276 47.6246 29.3934 47.6135C29.3613 47.6111 29.3293 47.6074 29.296 47.6049C29.1925 47.5963 29.089 47.5864 28.9856 47.5766C28.9363 47.5716 28.8882 47.5667 28.8389 47.5618C28.7515 47.5532 28.6652 47.5445 28.5777 47.5347C28.5248 47.5285 28.4718 47.5224 28.4188 47.5162C28.335 47.5063 28.2525 47.4965 28.1687 47.4866C28.1145 47.4805 28.0615 47.4731 28.0086 47.4669C27.9248 47.4558 27.8398 47.4447 27.756 47.4336C27.7055 47.4263 27.655 47.4201 27.6032 47.4127C27.4973 47.3979 27.3913 47.3819 27.2853 47.3647C27.2533 47.3597 27.2213 47.3548 27.1892 47.3499C27.0525 47.3277 26.9145 47.3055 26.7777 47.2821C26.7433 47.2759 26.7088 47.2698 26.6743 47.2636C26.572 47.2451 26.4685 47.2267 26.3663 47.2082C26.3182 47.1996 26.2702 47.1897 26.2221 47.1798C26.1322 47.1626 26.0435 47.1454 25.9548 47.1269C25.9067 47.117 25.8587 47.1072 25.8106 47.0973C25.6948 47.0727 25.579 47.048 25.4644 47.0221C25.4336 47.0148 25.4028 47.0086 25.372 47.0012C25.2279 46.9692 25.0849 46.9347 24.942 46.9002C24.9063 46.8916 24.8718 46.8829 24.8361 46.8743C24.7264 46.8472 24.6168 46.8189 24.5071 46.7905C24.4628 46.7794 24.4184 46.7671 24.3741 46.756C24.2607 46.7252 24.1486 46.6944 24.0352 46.6624C24.0032 46.6538 23.9712 46.6451 23.9391 46.6353C23.9083 46.6267 23.8788 46.618 23.848 46.6094C23.7704 46.5872 23.6927 46.5638 23.6164 46.5404C23.5782 46.5293 23.5412 46.517 23.5042 46.5059C23.4328 46.4838 23.3613 46.4616 23.2899 46.4394C23.2529 46.4283 23.2159 46.416 23.179 46.4049C23.1001 46.379 23.0213 46.3532 22.9424 46.3273C22.9166 46.3187 22.8895 46.31 22.8636 46.3014C22.7589 46.2657 22.6554 46.23 22.5519 46.1942C22.5285 46.1856 22.5051 46.177 22.4817 46.1696C22.4016 46.1412 22.3215 46.1117 22.2414 46.0833C22.2057 46.0698 22.1712 46.0575 22.1355 46.0439C22.0665 46.018 21.9975 45.9922 21.9297 45.9663C21.894 45.9527 21.857 45.938 21.8213 45.9244C21.7511 45.8973 21.6808 45.869 21.6106 45.8406C21.5786 45.8271 21.5453 45.8148 21.5133 45.8012C21.4122 45.7605 21.3125 45.7187 21.2114 45.6755V47.8267C21.3088 47.8686 21.4073 47.9092 21.5071 47.9499C21.5391 47.9634 21.5724 47.9757 21.6044 47.9893C21.6525 48.009 21.6993 48.0275 21.7474 48.0472C21.7695 48.0558 21.7917 48.0644 21.8139 48.0731C21.8496 48.0866 21.8866 48.1014 21.9223 48.115C21.9913 48.1408 22.0591 48.1679 22.1281 48.1938C22.1638 48.2074 22.1983 48.2197 22.234 48.2332C22.3141 48.2628 22.3942 48.2911 22.4743 48.3195C22.4977 48.3281 22.5211 48.3367 22.5445 48.3441C22.648 48.3811 22.7515 48.4168 22.8562 48.4513C22.8821 48.4599 22.9092 48.4686 22.935 48.4772C23.0139 48.5031 23.0927 48.5289 23.1716 48.5548C23.2086 48.5671 23.2455 48.5782 23.2825 48.5893C23.3539 48.6115 23.4254 48.6336 23.4968 48.6558C23.5338 48.6669 23.572 48.6792 23.609 48.6903C23.6866 48.7137 23.7642 48.7359 23.8418 48.7593C23.8714 48.7679 23.9022 48.7766 23.9318 48.7852C23.9404 48.7877 23.9502 48.7901 23.9589 48.7926C23.9823 48.7987 24.0057 48.8049 24.0279 48.8111C24.14 48.8431 24.2533 48.8739 24.3667 48.9047C24.411 48.917 24.4554 48.9281 24.4997 48.9392C24.6094 48.9675 24.719 48.9959 24.8287 49.023C24.8644 49.0316 24.8989 49.0402 24.9346 49.0488C25.0775 49.0833 25.2205 49.1178 25.3646 49.1499C25.3954 49.1573 25.4262 49.1634 25.457 49.1708C25.5728 49.1967 25.6874 49.2213 25.8032 49.246C25.8254 49.2509 25.8463 49.2558 25.8685 49.2595C25.8944 49.2644 25.9215 49.2694 25.9474 49.2755C26.0361 49.294 26.126 49.3113 26.2147 49.3285C26.2628 49.3384 26.3108 49.347 26.3589 49.3568C26.4611 49.3766 26.5634 49.395 26.6669 49.4123C26.7014 49.4185 26.7359 49.4246 26.7704 49.4308C26.9071 49.4542 27.0439 49.4776 27.1819 49.4985C27.2139 49.5035 27.2459 49.5084 27.278 49.5133C27.3839 49.5293 27.4899 49.5454 27.5958 49.5614C27.6118 49.5638 27.6279 49.5663 27.6439 49.5688C27.6784 49.5737 27.7129 49.5774 27.7474 49.5823C27.8311 49.5934 27.9161 49.6057 27.9999 49.6168C28.0529 49.6242 28.1071 49.6304 28.1601 49.6365C28.2439 49.6464 28.3264 49.6562 28.4102 49.6661C28.4632 49.6723 28.5161 49.6784 28.5691 49.6846C28.6566 49.6944 28.7428 49.7031 28.8303 49.7117C28.8796 49.7166 28.9276 49.7215 28.9769 49.7265C29.0804 49.7363 29.1839 49.7449 29.2874 49.7548C29.3157 49.7573 29.3428 49.7597 29.3712 49.7622H29.3835C29.519 49.7745 29.6533 49.7844 29.7888 49.7942C29.8221 49.7967 29.8566 49.7979 29.8899 49.8004C29.9921 49.8065 30.0932 49.8139 30.1954 49.8189C30.2447 49.8213 30.294 49.8238 30.3433 49.8263C30.4307 49.8312 30.517 49.8349 30.6044 49.8386C30.6587 49.841 30.7116 49.8423 30.7658 49.8447C30.8484 49.8472 30.9322 49.8509 31.0147 49.8521C31.043 49.8521 31.0714 49.8546 31.0997 49.8546C31.1256 49.8546 31.1515 49.8546 31.1773 49.8558C31.266 49.8583 31.3535 49.8595 31.4422 49.8608C31.4927 49.8608 31.5433 49.862 31.595 49.8632C31.6936 49.8632 31.7934 49.8632 31.8919 49.8632C31.9313 49.8632 31.9708 49.8632 32.009 49.8632C32.1469 49.8632 32.2837 49.8608 32.4217 49.8583C32.4476 49.8583 32.4722 49.8571 32.4981 49.8558C32.6102 49.8534 32.7223 49.8509 32.8344 49.8472C32.848 49.8472 32.8603 49.8472 32.8738 49.8472C32.9034 49.8472 32.9342 49.8447 32.9638 49.8435C33.0685 49.8398 33.1732 49.8349 33.2767 49.83C33.326 49.8275 33.3741 49.825 33.4233 49.8226C33.5281 49.8176 33.6328 49.8115 33.7375 49.8041C33.7794 49.8016 33.82 49.7991 33.8619 49.7967C34.0061 49.7868 34.149 49.7757 34.2931 49.7647C34.3129 49.7634 34.3338 49.761 34.3535 49.7597C34.4767 49.7499 34.6012 49.7375 34.7244 49.7265C34.7416 49.7252 34.7589 49.724 34.7749 49.7215C34.7983 49.7191 34.8217 49.7166 34.8451 49.7141C34.9831 49.7006 35.1211 49.6846 35.2591 49.6686C35.2886 49.6649 35.3182 49.6624 35.349 49.6587C35.5092 49.639 35.6681 49.6193 35.827 49.5971C35.864 49.5922 35.901 49.586 35.9391 49.5811C36.0747 49.5614 36.209 49.5417 36.3433 49.5207C36.3753 49.5158 36.4061 49.5109 36.4381 49.5059C36.5958 49.4801 36.7523 49.4542 36.9075 49.4258C36.9198 49.4234 36.9334 49.4221 36.9457 49.4197C36.9802 49.4135 37.0159 49.4061 37.0504 49.4C37.1281 49.3852 37.2057 49.3716 37.2821 49.3556C37.3338 49.3458 37.3868 49.3347 37.4385 49.3248C37.5137 49.31 37.5888 49.294 37.664 49.278C37.7157 49.2669 37.7687 49.2558 37.8205 49.2447C37.8956 49.2287 37.9708 49.2115 38.0447 49.1942C38.0952 49.1831 38.1457 49.1708 38.1962 49.1597C38.2738 49.1412 38.3515 49.1228 38.4279 49.1043C38.4747 49.0932 38.5215 49.0821 38.5683 49.0698C38.6558 49.0476 38.742 49.0254 38.8295 49.002C38.8652 48.9922 38.901 48.9835 38.9367 48.9737C39.0587 48.9417 39.1806 48.9072 39.3014 48.8727C39.3223 48.8665 39.342 48.8603 39.363 48.8542C39.4628 48.8258 39.5638 48.7963 39.6623 48.7655C39.7042 48.7532 39.7461 48.7396 39.7868 48.7273C39.8644 48.7039 39.942 48.6792 40.0196 48.6546C40.0344 48.6497 40.0492 48.646 40.0628 48.641C40.0849 48.6336 40.1059 48.6263 40.1281 48.6189C40.2463 48.5807 40.3646 48.54 40.4816 48.4994C40.5137 48.4883 40.5457 48.4772 40.5777 48.4661C40.7182 48.4168 40.8574 48.3663 40.9954 48.3146C41.0237 48.3035 41.0533 48.2924 41.0816 48.2813C41.1975 48.2369 41.312 48.1926 41.4254 48.1458C41.4587 48.1322 41.4919 48.1187 41.5264 48.1051C41.6619 48.0497 41.7962 47.993 41.9293 47.9351C41.9515 47.9252 41.9736 47.9154 41.9971 47.9055C42.1116 47.855 42.225 47.8033 42.3371 47.7515C42.3704 47.7355 42.4049 47.7207 42.4381 47.7047C42.5687 47.6431 42.6981 47.5803 42.825 47.5162C42.8385 47.5088 42.8521 47.5026 42.8656 47.4952C42.9814 47.4361 43.096 47.377 43.2094 47.3154C43.2426 47.2981 43.2747 47.2796 43.3079 47.2624C43.4324 47.1946 43.5568 47.1256 43.6788 47.0542L51.9704 42.2357L51.9765 40.087L43.6849 44.9055H43.6923Z" fill="url(#paint10_linear_313_1683)"/>
<path d="M34.8535 38.3696C33.9295 37.8361 32.4363 37.8361 31.5184 38.3696C30.9036 38.7269 30.7041 39.232 30.916 39.6879L30.2753 40.0599C29.817 40.3261 29.8195 40.7585 30.2802 41.0258C30.7422 41.292 31.4889 41.292 31.9472 41.0258L32.5878 40.6538C33.3751 40.7757 34.2474 40.6587 34.8622 40.3014C35.78 39.7679 35.7751 38.9031 34.8511 38.3696H34.8535Z" fill="url(#paint11_linear_313_1683)"/>
<path d="M34.3055 16.4382C34.3166 16.3063 34.2365 16.1708 34.0616 16.0698C33.7339 15.8801 33.2053 15.8813 32.8801 16.0698C32.7187 16.1634 32.6374 16.2866 32.6374 16.4111L32.5758 38.0172L32.5684 40.5663C32.5684 40.5971 32.5733 40.6279 32.5831 40.6587L32.5893 40.655C33.1376 40.74 33.724 40.7055 34.239 40.5589L34.2464 38.117L34.308 16.4148C34.308 16.4221 34.3068 16.4308 34.3055 16.4382Z" fill="url(#paint12_linear_313_1683)"/>
<path d="M34.3056 16.4382C34.3167 16.3064 34.2366 16.1708 34.0616 16.0698C33.9298 15.9934 33.766 15.9503 33.5972 15.9355V40.6784C33.8177 40.6563 34.0345 40.6168 34.2403 40.5577L34.2477 38.1158L34.3093 16.4135C34.3093 16.4209 34.3081 16.4296 34.3068 16.437L34.3056 16.4382Z" fill="url(#paint13_linear_313_1683)"/>
<path d="M37.5062 12.439C37.5185 12.4341 37.5308 12.4304 37.5431 12.4254C37.585 12.4119 37.6269 12.3983 37.6676 12.3873C37.6774 12.3848 37.6873 12.3823 37.6959 12.3799C37.7218 12.3737 37.7464 12.3663 37.7723 12.3614C37.7859 12.3589 37.7994 12.3565 37.8117 12.354C37.8327 12.3503 37.8536 12.3454 37.8746 12.3429C37.9066 12.338 37.9374 12.3343 37.9694 12.3306C37.9731 12.3306 37.9756 12.3306 37.9793 12.3306C38.0064 12.3281 38.0335 12.3257 38.0606 12.3244C38.1074 12.322 38.1542 12.3232 38.1998 12.3244C38.2097 12.3244 38.2183 12.3244 38.2282 12.3257C38.2713 12.3293 38.3132 12.333 38.3538 12.3404C38.36 12.3404 38.3661 12.3429 38.3723 12.3441C38.408 12.3503 38.4425 12.3589 38.477 12.3688C38.4844 12.3712 38.493 12.3725 38.5004 12.3749C38.5374 12.386 38.5744 12.3996 38.6101 12.4131C38.6175 12.4156 38.6249 12.4193 38.6323 12.423C38.6643 12.4365 38.6963 12.4526 38.7259 12.4686C38.7345 12.4735 38.7431 12.4772 38.7505 12.4821L37.6873 11.8636C37.6873 11.8636 37.6787 11.8587 37.675 11.8562C37.6713 11.8538 37.6663 11.8526 37.6626 11.8501C37.6318 11.8328 37.6011 11.8181 37.569 11.8045C37.5641 11.802 37.5604 11.7996 37.5555 11.7983C37.553 11.7983 37.5505 11.7971 37.5481 11.7959C37.5123 11.7811 37.4754 11.7688 37.4384 11.7577C37.436 11.7577 37.4335 11.7552 37.4298 11.7552C37.4249 11.754 37.4199 11.7528 37.4138 11.7515C37.3793 11.7417 37.3448 11.7343 37.3091 11.7269C37.3041 11.7269 37.3004 11.7244 37.2955 11.7244C37.2943 11.7244 37.2918 11.7244 37.2906 11.7244C37.2499 11.717 37.208 11.7133 37.1649 11.7096C37.16 11.7096 37.1563 11.7096 37.1526 11.7084C37.1477 11.7084 37.1427 11.7084 37.1378 11.7084C37.0922 11.7059 37.0454 11.7047 36.9986 11.7084C36.9974 11.7084 36.9961 11.7084 36.9949 11.7084C36.969 11.7084 36.9431 11.7121 36.9173 11.7146C36.9136 11.7146 36.9099 11.7146 36.9074 11.7146C36.8778 11.717 36.847 11.722 36.8162 11.7257H36.8125C36.7916 11.7293 36.7694 11.7343 36.7485 11.738C36.7362 11.7404 36.7226 11.7429 36.7103 11.7454C36.6844 11.7515 36.6585 11.7577 36.6314 11.7651C36.6228 11.7675 36.6142 11.7688 36.6056 11.7712C36.5711 11.7811 36.5353 11.791 36.5008 11.8033L35.5103 11.2279C35.5103 11.2279 35.498 11.2205 35.4918 11.2181C35.461 11.2008 35.4302 11.1848 35.3994 11.17C35.392 11.1663 35.3846 11.1626 35.376 11.1601C35.3587 11.1515 35.3415 11.1441 35.323 11.1367C35.3107 11.1318 35.2996 11.1281 35.2873 11.1232C35.2774 11.1195 35.2676 11.1158 35.2577 11.1121C35.2208 11.0985 35.1838 11.0862 35.1456 11.0751H35.1444C35.1444 11.0751 35.1394 11.0739 35.1382 11.0727C35.1013 11.0628 35.0643 11.053 35.0273 11.0456C35.0162 11.0431 35.0052 11.0406 34.9941 11.0394C34.983 11.0369 34.9707 11.0345 34.9596 11.032C34.9386 11.0283 34.9165 11.0259 34.8943 11.0222C34.8856 11.0222 34.877 11.0197 34.8684 11.0185C34.8314 11.0135 34.7945 11.0098 34.7563 11.0074C34.7514 11.0074 34.7477 11.0074 34.7427 11.0074C34.7316 11.0074 34.7193 11.0074 34.7082 11.0061C34.6762 11.0049 34.6429 11.0049 34.6097 11.0049C34.5961 11.0049 34.5813 11.0049 34.5666 11.0049C34.5555 11.0049 34.5456 11.0049 34.5345 11.0049C34.5136 11.0049 34.4914 11.0074 34.4692 11.0098C34.4544 11.0098 34.4409 11.0111 34.4261 11.0135C34.3805 11.0172 34.3337 11.0234 34.2856 11.0308C34.2795 11.0308 34.2721 11.0333 34.2659 11.0345C34.2228 11.0419 34.1785 11.0493 34.1341 11.0591C34.1169 11.0628 34.0984 11.0677 34.0799 11.0727C34.0503 11.0801 34.0208 11.0862 33.99 11.0949C33.9863 11.0949 33.9838 11.0973 33.9801 11.0973C33.921 11.1133 33.8606 11.1318 33.8002 11.1528C33.7891 11.1565 33.7781 11.1614 33.767 11.1651C33.7165 11.1823 33.6672 11.202 33.6167 11.2218C33.6105 11.2242 33.6043 11.2267 33.5982 11.2291C33.5575 11.2464 33.5156 11.2636 33.475 11.2834C33.4688 11.2858 33.4614 11.2895 33.4553 11.2932C33.4109 11.3142 33.3666 11.3363 33.321 11.3585C33.3074 11.3659 33.2939 11.3721 33.2803 11.3795C33.2286 11.4066 33.1781 11.4337 33.1263 11.4645C33.0758 11.494 33.0253 11.5248 32.9748 11.5556C32.9587 11.5655 32.9427 11.5766 32.9255 11.5877C32.8922 11.6098 32.8577 11.6308 32.8245 11.6542C32.8047 11.6677 32.785 11.6813 32.7653 11.6949C32.7358 11.7158 32.7062 11.7367 32.6766 11.7577C32.6557 11.7725 32.6347 11.7885 32.6138 11.8045C32.5854 11.8254 32.5583 11.8464 32.53 11.8686C32.5091 11.8846 32.4881 11.9018 32.4672 11.9191C32.4401 11.9413 32.413 11.9622 32.3871 11.9844C32.3661 12.0016 32.3452 12.0201 32.3243 12.0386C32.2984 12.0608 32.2725 12.0842 32.2466 12.1064C32.2257 12.1248 32.2047 12.1445 32.1838 12.163C32.1579 12.1864 32.1333 12.2098 32.1074 12.2333C32.0865 12.253 32.0655 12.2727 32.0446 12.2924C32.031 12.3047 32.0175 12.317 32.0052 12.3306C31.9965 12.3392 31.9891 12.3478 31.9805 12.3552C31.9349 12.4008 31.8893 12.4476 31.8438 12.4957C31.8339 12.5068 31.8228 12.5178 31.8117 12.5289C31.7575 12.5868 31.7033 12.6472 31.6503 12.7076C31.6466 12.7125 31.6417 12.7162 31.638 12.7211C31.6232 12.7384 31.6084 12.7569 31.5937 12.7741C31.569 12.8037 31.5431 12.8332 31.5185 12.8628C31.4988 12.8862 31.4791 12.9109 31.4594 12.9355C31.436 12.9651 31.4113 12.9946 31.3879 13.0254C31.3805 13.0341 31.3744 13.0427 31.367 13.0513C31.3608 13.0587 31.3559 13.0673 31.3497 13.0747C31.282 13.1634 31.2154 13.2521 31.1514 13.3445C31.1489 13.3482 31.1464 13.3519 31.1427 13.3556C31.1366 13.3643 31.1316 13.3716 31.1267 13.3803C31.0688 13.4628 31.0121 13.5466 30.9579 13.6316C30.9555 13.6365 30.9518 13.6415 30.9481 13.6452C30.9481 13.6464 30.9456 13.6489 30.9444 13.6501C30.8914 13.7326 30.8409 13.8164 30.7916 13.9014C30.7854 13.9113 30.7805 13.9199 30.7744 13.9298C30.7694 13.9384 30.7645 13.947 30.7596 13.9556C30.7128 14.0369 30.6659 14.1195 30.6216 14.2033C30.6204 14.2057 30.6179 14.2094 30.6167 14.2119C30.6117 14.2205 30.608 14.2279 30.6043 14.2365C30.5649 14.3117 30.5267 14.3881 30.4898 14.4632C30.4848 14.4743 30.4787 14.4854 30.4725 14.4965C30.4688 14.5027 30.4663 14.51 30.4627 14.5162C30.422 14.6 30.3838 14.6838 30.3468 14.7688C30.3444 14.7749 30.3419 14.7799 30.3394 14.786C30.3345 14.7971 30.3308 14.807 30.3259 14.8181C30.2914 14.8994 30.2581 14.9795 30.2261 15.0608C30.2224 15.0694 30.2187 15.078 30.2162 15.0854C30.2162 15.0879 30.2138 15.0916 30.2125 15.094C30.1768 15.1864 30.1448 15.2788 30.1128 15.3712C30.1091 15.3811 30.1054 15.391 30.1017 15.4008C30.0967 15.4168 30.0918 15.4328 30.0869 15.4489C30.0783 15.4747 30.0709 15.5006 30.0622 15.5265C30.0512 15.561 30.0413 15.5967 30.0302 15.6312C30.0228 15.6571 30.0154 15.6817 30.008 15.7076C30.0043 15.7187 30.0006 15.731 29.9982 15.7421C29.992 15.7618 29.9883 15.7827 29.9822 15.8024C29.9735 15.8357 29.9649 15.869 29.9563 15.9022C29.9489 15.933 29.9415 15.9638 29.9341 15.9946C29.9267 16.0279 29.9181 16.0612 29.9119 16.0932C29.9095 16.1055 29.9058 16.1178 29.9033 16.1289C29.8996 16.1437 29.8984 16.1585 29.8947 16.1721C29.8848 16.2213 29.875 16.2694 29.8663 16.3187C29.8614 16.3433 29.8577 16.368 29.8528 16.3926C29.8442 16.448 29.8355 16.5022 29.8282 16.5565C29.8269 16.57 29.8232 16.5836 29.822 16.5971C29.822 16.6045 29.8195 16.6119 29.8195 16.6193C29.806 16.6279 29.7912 16.6341 29.7776 16.6427C29.7259 16.6723 29.6754 16.7043 29.6249 16.7388C29.6162 16.745 29.6076 16.7499 29.599 16.756C29.5509 16.7893 29.5029 16.8238 29.4561 16.8595C29.4475 16.8669 29.4376 16.8743 29.429 16.8805C29.3809 16.9187 29.3341 16.9569 29.2873 16.9975C29.2836 17.0012 29.2799 17.0049 29.275 17.0086C29.2294 17.048 29.1863 17.0899 29.1419 17.1318C29.137 17.1355 29.1333 17.1404 29.1284 17.1441C29.1259 17.1466 29.1234 17.1491 29.1197 17.1528C29.0865 17.186 29.0532 17.2193 29.0212 17.255C29.0199 17.2575 29.0175 17.2587 29.0162 17.2612C28.9854 17.2944 28.9546 17.3277 28.9251 17.3622C28.9226 17.3659 28.9189 17.3684 28.9164 17.3721C28.9128 17.3758 28.9091 17.3807 28.9054 17.3856C28.8561 17.4423 28.8093 17.5002 28.7624 17.5593C28.7612 17.5606 28.76 17.563 28.7587 17.5643C28.7551 17.5692 28.7514 17.5741 28.7477 17.579C28.7107 17.6271 28.675 17.6751 28.6392 17.7257C28.6355 17.7306 28.6319 17.7355 28.6282 17.7404C28.6269 17.7429 28.6245 17.7454 28.6232 17.7478C28.59 17.7959 28.5567 17.8452 28.5247 17.8944C28.5222 17.8994 28.5185 17.9043 28.5148 17.908C28.5099 17.9154 28.5062 17.9228 28.5013 17.9302C28.4754 17.9708 28.4507 18.0115 28.4261 18.0534C28.4224 18.0595 28.4175 18.0657 28.4138 18.0731C28.4125 18.0755 28.4113 18.078 28.4101 18.0805C28.383 18.1285 28.3559 18.1766 28.33 18.2246C28.3275 18.2283 28.3251 18.232 28.3238 18.2357C28.3201 18.2431 28.3164 18.2517 28.3115 18.2591C28.2906 18.2973 28.2709 18.3367 28.2524 18.3762C28.2487 18.3848 28.2438 18.3922 28.2401 18.4008C28.2376 18.4057 28.2351 18.4107 28.2339 18.4156C28.2105 18.4649 28.1871 18.5154 28.1661 18.5647L28.1637 18.5696C28.1637 18.5696 28.1587 18.5807 28.1575 18.5856C28.1378 18.6312 28.1193 18.6755 28.1021 18.7211C28.0996 18.7285 28.0959 18.7359 28.0935 18.7433C28.091 18.7495 28.0898 18.7556 28.0873 18.7618C28.0663 18.816 28.0479 18.869 28.0294 18.9232V18.9257C28.0294 18.9257 28.0269 18.9318 28.0257 18.9355C28.0072 18.991 27.99 19.0476 27.9739 19.1031C27.9715 19.1105 27.969 19.1166 27.9678 19.124C27.9678 19.1277 27.9666 19.1314 27.9653 19.1351C27.9481 19.2004 27.9321 19.2645 27.9173 19.3298C27.9173 19.3359 27.9148 19.3408 27.9136 19.347C27.9123 19.3556 27.9099 19.3643 27.9086 19.3716C27.9037 19.3975 27.8988 19.4222 27.8939 19.448C27.8902 19.4653 27.8877 19.4825 27.884 19.501C27.8791 19.5269 27.8754 19.5528 27.8717 19.5799C27.8705 19.5922 27.868 19.6045 27.8655 19.6168C27.8655 19.6205 27.8655 19.623 27.8655 19.6267C27.8581 19.6821 27.8532 19.7376 27.8495 19.793C27.8495 19.8053 27.8483 19.8164 27.847 19.8287C27.8434 19.8854 27.8409 19.9421 27.8421 19.9975C27.8421 20.3425 27.9123 20.6296 28.0343 20.8501C28.0614 20.8994 28.091 20.945 28.123 20.9881C28.1551 21.0312 28.1896 21.0694 28.2265 21.1063C28.282 21.1606 28.3423 21.2061 28.4076 21.2443L29.4709 21.8628C29.1222 21.6595 28.9054 21.2296 28.9041 20.6172C28.9041 20.5618 28.9066 20.5051 28.9091 20.4484C28.9091 20.4374 28.9103 20.425 28.9115 20.4139C28.9152 20.3585 28.9214 20.3031 28.9275 20.2476C28.93 20.2328 28.9312 20.2168 28.9337 20.202C28.9374 20.1762 28.9411 20.1491 28.946 20.1232C28.9485 20.1059 28.9522 20.0887 28.9559 20.0702C28.9608 20.0443 28.9657 20.0197 28.9707 19.9938C28.9731 19.9803 28.9768 19.9655 28.9793 19.9507C28.9928 19.8866 29.0089 19.8213 29.0273 19.756C29.0298 19.745 29.0335 19.7339 29.036 19.724C29.052 19.6686 29.0692 19.6119 29.0865 19.5565C29.0877 19.5528 29.0889 19.5478 29.0902 19.5441C29.1086 19.4899 29.1284 19.4357 29.1481 19.3827C29.153 19.3692 29.1579 19.3556 29.1641 19.3421C29.1813 19.2965 29.1998 19.2509 29.2195 19.2066C29.222 19.1992 29.2257 19.193 29.2282 19.1856C29.2503 19.1351 29.2725 19.0858 29.2959 19.0365C29.3021 19.0242 29.3082 19.0107 29.3144 18.9983C29.3341 18.9589 29.3538 18.9195 29.3735 18.8813C29.3797 18.869 29.3859 18.8579 29.392 18.8456C29.4179 18.7975 29.445 18.7482 29.4721 18.7014C29.477 18.6928 29.4832 18.6829 29.4881 18.6743C29.5128 18.6324 29.5374 18.5918 29.5633 18.5511C29.5707 18.5388 29.5781 18.5277 29.5854 18.5154C29.6175 18.4661 29.6495 18.4168 29.684 18.3688C29.6889 18.3614 29.6939 18.354 29.7 18.3466C29.7358 18.2973 29.7715 18.248 29.8084 18.2C29.8134 18.1938 29.8183 18.1877 29.8232 18.1803C29.87 18.1211 29.9169 18.0632 29.9661 18.0066C29.9723 17.9992 29.9785 17.9918 29.9859 17.9844C30.0154 17.9499 30.0462 17.9166 30.077 17.8834L30.082 17.8784C30.114 17.8439 30.1473 17.8094 30.1805 17.7774C30.1879 17.77 30.1953 17.7638 30.2027 17.7565C30.2458 17.7146 30.2902 17.6727 30.3358 17.6332C30.3394 17.6296 30.3444 17.6259 30.3481 17.6222C30.3949 17.5815 30.4417 17.5421 30.4898 17.5051C30.4984 17.4977 30.5082 17.4903 30.5169 17.4829C30.5637 17.4472 30.6117 17.4115 30.6598 17.3795C30.6684 17.3733 30.677 17.3684 30.6856 17.3622C30.7362 17.3289 30.7867 17.2957 30.8384 17.2661C30.852 17.2575 30.8668 17.2513 30.8803 17.2427C30.8828 17.2218 30.8865 17.2008 30.8889 17.1799C30.8963 17.1257 30.905 17.0702 30.9136 17.016C30.9173 16.9914 30.9222 16.9667 30.9271 16.9421C30.9358 16.8928 30.9456 16.8447 30.9555 16.7955C30.9604 16.7684 30.9666 16.7425 30.9715 16.7154C30.9789 16.6821 30.9863 16.6489 30.9937 16.6156C31.001 16.5848 31.0084 16.554 31.0158 16.5232C31.0245 16.4899 31.0331 16.4567 31.0417 16.4234C31.0503 16.3914 31.059 16.3606 31.0676 16.3285C31.075 16.3027 31.0824 16.278 31.0898 16.2521C31.0996 16.2176 31.1107 16.1819 31.1218 16.1474C31.1304 16.1215 31.1378 16.0957 31.1464 16.0698C31.1551 16.0439 31.1637 16.0181 31.1723 15.9922C31.2031 15.8998 31.2364 15.8074 31.2721 15.715C31.277 15.7039 31.2807 15.6916 31.2857 15.6805C31.3177 15.5992 31.3509 15.5178 31.3854 15.4378C31.3928 15.4218 31.399 15.4045 31.4064 15.3885C31.4433 15.3035 31.4815 15.2197 31.5222 15.1359C31.5308 15.1187 31.5394 15.1002 31.5481 15.0829C31.585 15.0066 31.6232 14.9314 31.6627 14.855C31.6688 14.8439 31.6737 14.8328 31.6799 14.8218C31.7243 14.738 31.7711 14.6567 31.8179 14.5741C31.829 14.5556 31.8388 14.5372 31.8499 14.5199C31.8992 14.4349 31.9509 14.3523 32.0027 14.2698C32.0064 14.2636 32.0113 14.2562 32.0162 14.2501C32.0705 14.1651 32.1271 14.0813 32.185 13.9988C32.1937 13.9864 32.2011 13.9753 32.2097 13.963C32.2737 13.8719 32.3403 13.7819 32.408 13.6944C32.4204 13.6772 32.4339 13.6612 32.4462 13.6439C32.4696 13.6131 32.4943 13.5836 32.5177 13.554C32.5374 13.5293 32.5571 13.5059 32.5768 13.4813C32.6015 13.4517 32.6261 13.4222 32.652 13.3926C32.6705 13.3704 32.6902 13.3482 32.7086 13.3261C32.7616 13.2657 32.8146 13.2066 32.87 13.1474C32.8799 13.1363 32.891 13.1252 32.9021 13.1142C32.9477 13.0661 32.992 13.0205 33.0388 12.9737C33.0598 12.9528 33.082 12.9318 33.1029 12.9109C33.1238 12.8912 33.1448 12.8702 33.1657 12.8505C33.1904 12.8271 33.2162 12.8037 33.2421 12.7803C33.2631 12.7606 33.284 12.7421 33.305 12.7236C33.3308 12.7002 33.3567 12.678 33.3838 12.6558C33.4047 12.6374 33.4257 12.6201 33.4466 12.6016C33.4737 12.5795 33.4996 12.5573 33.5267 12.5363C33.5477 12.5191 33.5686 12.5018 33.5896 12.4858C33.6179 12.4636 33.645 12.4427 33.6733 12.4218C33.6943 12.4057 33.714 12.3897 33.7349 12.3749C33.7645 12.3528 33.7941 12.333 33.8249 12.3121C33.8446 12.2985 33.8643 12.285 33.8828 12.2714C33.916 12.2493 33.9493 12.2271 33.9826 12.2061C33.9998 12.1951 34.0158 12.184 34.0331 12.1729C34.0836 12.1408 34.1341 12.1113 34.1846 12.0817C34.2364 12.0521 34.2881 12.0238 34.3399 11.9967C34.3534 11.9893 34.367 11.9831 34.3805 11.9758C34.4261 11.9523 34.4705 11.9302 34.5148 11.9105C34.521 11.908 34.5284 11.9043 34.5345 11.9006C34.5826 11.8784 34.6294 11.8587 34.6762 11.8402C34.7267 11.8193 34.7772 11.8008 34.8277 11.7823C34.8388 11.7786 34.8499 11.7737 34.861 11.77C34.9214 11.7491 34.9817 11.7306 35.0409 11.7146C35.0742 11.7047 35.1074 11.6973 35.1419 11.6899C35.1592 11.6862 35.1776 11.6813 35.1949 11.6776C35.2405 11.6677 35.2848 11.6604 35.3292 11.653C35.3353 11.653 35.3415 11.6505 35.3477 11.6493C35.3957 11.6419 35.4425 11.6369 35.4881 11.632C35.5029 11.6308 35.5164 11.6296 35.5312 11.6283C35.5645 11.6259 35.5965 11.6234 35.6286 11.6234C35.6434 11.6234 35.6569 11.6234 35.6705 11.6234C35.7037 11.6234 35.737 11.6234 35.769 11.6246C35.7801 11.6246 35.7924 11.6246 35.8035 11.6246C35.8454 11.6271 35.8873 11.6308 35.9292 11.6357C35.9378 11.6357 35.9464 11.6382 35.9551 11.6394C35.9883 11.6443 36.0216 11.6493 36.0548 11.6554C36.0659 11.6579 36.077 11.6604 36.0881 11.6616C36.1251 11.6702 36.1633 11.6788 36.199 11.6887C36.2015 11.6887 36.2039 11.6887 36.2064 11.6912C36.2446 11.7022 36.2828 11.7146 36.3197 11.7293C36.3296 11.733 36.3394 11.7367 36.3493 11.7404C36.3789 11.7528 36.4084 11.7651 36.438 11.7786C36.4454 11.7823 36.454 11.786 36.4614 11.7885C36.4725 11.7934 36.4836 11.8008 36.4947 11.8057C36.4898 11.807 36.4848 11.8094 36.4799 11.8107C36.4676 11.8144 36.4553 11.8193 36.4429 11.8242C36.4121 11.8353 36.3813 11.8464 36.3505 11.8587C36.3431 11.8624 36.3345 11.8649 36.3271 11.8673C36.3222 11.8698 36.316 11.8723 36.3111 11.8747C36.2655 11.8944 36.2199 11.9142 36.1731 11.9376L37.2364 12.556C37.2832 12.5326 37.3288 12.5129 37.3744 12.4932C37.3879 12.487 37.4015 12.4821 37.4138 12.4772C37.4446 12.4649 37.4754 12.4526 37.5062 12.4427V12.439Z" fill="url(#paint14_linear_313_1683)"/>
<path d="M37.2353 12.5536C36.6994 11.5421 35.5339 11.2994 34.186 12.0768C32.5142 13.0427 31.1306 15.2493 30.883 17.2353C30.8694 17.2439 30.8546 17.2501 30.8411 17.2587C29.768 17.8784 28.9006 19.3803 28.9043 20.6123C28.908 21.8443 29.7803 22.3421 30.8534 21.7236L37.069 18.1347C38.3873 17.3733 39.4517 15.5289 39.448 14.0135C39.4443 12.5696 38.4686 11.9487 37.2353 12.5536Z" fill="url(#paint15_linear_313_1683)"/>
</g>
<defs>
<linearGradient id="paint0_linear_313_1683" x1="3.8335" y1="61.8226" x2="63.0487" y2="61.8226" gradientUnits="userSpaceOnUse">
<stop stop-color="#A6D7F6"/>
<stop offset="0.43" stop-color="#73D1F3"/>
<stop offset="0.8" stop-color="#4DCCF1"/>
<stop offset="1" stop-color="#3FCBF1"/>
</linearGradient>
<linearGradient id="paint1_linear_313_1683" x1="33.5957" y1="41.8772" x2="33.5957" y2="61.1573" gradientUnits="userSpaceOnUse">
<stop stop-color="#4E5ABA"/>
<stop offset="0.43" stop-color="#2584D1"/>
<stop offset="0.79" stop-color="#0AA2E1"/>
<stop offset="1" stop-color="#00ADE7"/>
</linearGradient>
<linearGradient id="paint2_linear_313_1683" x1="3.85937" y1="60.5154" x2="59.5374" y2="60.5154" gradientUnits="userSpaceOnUse">
<stop stop-color="#A6D7F6"/>
<stop offset="0.43" stop-color="#73D1F3"/>
<stop offset="0.8" stop-color="#4DCCF1"/>
<stop offset="1" stop-color="#3FCBF1"/>
</linearGradient>
<linearGradient id="paint3_linear_313_1683" x1="31.7011" y1="39.3047" x2="31.7011" y2="68.6037" gradientUnits="userSpaceOnUse">
<stop stop-color="#4E5ABA"/>
<stop offset="0.43" stop-color="#2584D1"/>
<stop offset="0.79" stop-color="#0AA2E1"/>
<stop offset="1" stop-color="#00ADE7"/>
</linearGradient>
<linearGradient id="paint4_linear_313_1683" x1="37.5245" y1="52.1819" x2="30.1447" y2="33.2148" gradientUnits="userSpaceOnUse">
<stop stop-color="#C8F1FB"/>
<stop offset="0.05" stop-color="#CFF2FB"/>
<stop offset="0.22" stop-color="#E4F8FD"/>
<stop offset="0.42" stop-color="#F3FCFE"/>
<stop offset="0.65" stop-color="#FCFEFE"/>
<stop offset="1" stop-color="white"/>
</linearGradient>
<linearGradient id="paint5_linear_313_1683" x1="20.5593" y1="35.8501" x2="43.1375" y2="35.8501" gradientUnits="userSpaceOnUse">
<stop stop-color="#4E5ABA"/>
<stop offset="0.43" stop-color="#2584D1"/>
<stop offset="0.79" stop-color="#0AA2E1"/>
<stop offset="1" stop-color="#00ADE7"/>
</linearGradient>
<linearGradient id="paint6_linear_313_1683" x1="43.1318" y1="37.5207" x2="47.8752" y2="37.5207" gradientUnits="userSpaceOnUse">
<stop stop-color="#4E5ABA"/>
<stop offset="0.43" stop-color="#2584D1"/>
<stop offset="0.79" stop-color="#0AA2E1"/>
<stop offset="1" stop-color="#00ADE7"/>
</linearGradient>
<linearGradient id="paint7_linear_313_1683" x1="34.219" y1="31.761" x2="34.219" y2="46.0094" gradientUnits="userSpaceOnUse">
<stop stop-color="#A6D7F6"/>
<stop offset="0.43" stop-color="#73D1F3"/>
<stop offset="0.8" stop-color="#4DCCF1"/>
<stop offset="1" stop-color="#3FCBF1"/>
</linearGradient>
<linearGradient id="paint8_linear_313_1683" x1="38.164" y1="30.5955" x2="31.5356" y2="47.6948" gradientUnits="userSpaceOnUse">
<stop stop-color="#4E5ABA"/>
<stop offset="0.43" stop-color="#2584D1"/>
<stop offset="0.79" stop-color="#0AA2E1"/>
<stop offset="1" stop-color="#00ADE7"/>
</linearGradient>
<linearGradient id="paint9_linear_313_1683" x1="21.0696" y1="46.9396" x2="17.5287" y2="41.2402" gradientUnits="userSpaceOnUse">
<stop stop-color="#4E5ABA"/>
<stop offset="0.43" stop-color="#2584D1"/>
<stop offset="0.79" stop-color="#0AA2E1"/>
<stop offset="1" stop-color="#00ADE7"/>
</linearGradient>
<linearGradient id="paint10_linear_313_1683" x1="17.6472" y1="44.9745" x2="51.9839" y2="44.9745" gradientUnits="userSpaceOnUse">
<stop stop-color="#4E5ABA"/>
<stop offset="0.43" stop-color="#2584D1"/>
<stop offset="0.79" stop-color="#0AA2E1"/>
<stop offset="1" stop-color="#00ADE7"/>
</linearGradient>
<linearGradient id="paint11_linear_313_1683" x1="32.7418" y1="37.7819" x2="32.7418" y2="40.5872" gradientUnits="userSpaceOnUse">
<stop stop-color="#4E5ABA"/>
<stop offset="0.43" stop-color="#2584D1"/>
<stop offset="0.79" stop-color="#0AA2E1"/>
<stop offset="1" stop-color="#00ADE7"/>
</linearGradient>
<linearGradient id="paint12_linear_313_1683" x1="33.4382" y1="16.071" x2="33.4382" y2="40.602" gradientUnits="userSpaceOnUse">
<stop stop-color="#C7E6F9"/>
<stop offset="0.03" stop-color="#BEE2F8"/>
<stop offset="0.24" stop-color="#8BD0F5"/>
<stop offset="0.44" stop-color="#63C2F3"/>
<stop offset="0.61" stop-color="#46B8F1"/>
<stop offset="0.77" stop-color="#35B2F0"/>
<stop offset="0.88" stop-color="#2FB0F0"/>
<stop offset="1" stop-color="#0092ED"/>
</linearGradient>
<linearGradient id="paint13_linear_313_1683" x1="33.952" y1="16.0772" x2="33.952" y2="40.5811" gradientUnits="userSpaceOnUse">
<stop stop-color="#00ADE7"/>
<stop offset="0.21" stop-color="#0AA2E1"/>
<stop offset="0.57" stop-color="#2584D1"/>
<stop offset="1" stop-color="#4E5ABA"/>
</linearGradient>
<linearGradient id="paint14_linear_313_1683" x1="27.8409" y1="16.4296" x2="38.753" y2="16.4296" gradientUnits="userSpaceOnUse">
<stop stop-color="#A6D7F6"/>
<stop offset="0.43" stop-color="#73D1F3"/>
<stop offset="0.8" stop-color="#4DCCF1"/>
<stop offset="1" stop-color="#3FCBF1"/>
</linearGradient>
<linearGradient id="paint15_linear_313_1683" x1="26.4871" y1="20.0862" x2="39.3162" y2="13.3101" gradientUnits="userSpaceOnUse">
<stop stop-color="#4E5ABA"/>
<stop offset="0.43" stop-color="#2584D1"/>
<stop offset="0.79" stop-color="#0AA2E1"/>
<stop offset="1" stop-color="#00ADE7"/>
</linearGradient>
<clipPath id="clip0_313_1683">
<rect width="59.3667" height="60" fill="white" transform="translate(3.8335 11)"/>
</clipPath>
</defs>
</svg>
