<svg width="current" height="current" viewBox="0 0 16 16" fill="current" xmlns="http://www.w3.org/2000/svg">
<path d="M3.72482 4.45746L3.73209 4.47198L3.74358 4.48345L7.26882 8.00312L3.74443 11.4382L3.73236 11.4499L3.72482 11.465C3.67362 11.5672 3.65 11.6901 3.65 11.8091C3.65 11.928 3.67362 12.0509 3.72482 12.1531L3.73209 12.1676L3.74358 12.1791C3.95375 12.3889 4.27361 12.3891 4.48394 12.1795C4.48409 12.1794 4.48423 12.1792 4.48438 12.1791L8.00986 8.743L11.4514 12.1791C11.6599 12.3873 11.9658 12.3833 12.1662 12.2833L12.1807 12.2761L12.1922 12.2646C12.4024 12.0547 12.4026 11.7351 12.1927 11.525C12.1925 11.5248 12.1923 11.5247 12.1922 11.5245L8.75006 8.00398L12.1922 4.48345C12.1923 4.48329 12.1925 4.48314 12.1927 4.48299C12.4026 4.2729 12.4024 3.95329 12.1922 3.74336L12.1807 3.7319L12.1662 3.72466C12.0645 3.67387 11.9417 3.65 11.8325 3.65C11.7775 3.65 11.7227 3.65605 11.6735 3.66962C11.6254 3.68286 11.5752 3.70529 11.537 3.74336L8.0107 7.26412L4.48438 3.74336L4.4729 3.7319L4.45839 3.72466C4.35605 3.67357 4.23303 3.65 4.11398 3.65C3.99493 3.65 3.87191 3.67357 3.76957 3.72466L3.73974 3.73955L3.72482 3.76935C3.67362 3.87159 3.65 3.99448 3.65 4.11341C3.65 4.23233 3.67362 4.35522 3.72482 4.45746Z" fill="#202020" stroke="#202020" stroke-width="0.2"/>
</svg>
