<svg width="14" height="14" viewBox="0 0 14 14" fill="none" xmlns="http://www.w3.org/2000/svg">
<path d="M0.631933 1.6638L0.639203 1.67832L0.650693 1.68979L5.97442 7.00512L0.65155 12.1931L0.63948 12.2048L0.631933 12.2199C0.559325 12.3649 0.525 12.5412 0.525 12.7136C0.525 12.8859 0.559325 13.0623 0.631933 13.2073L0.639203 13.2218L0.650693 13.2333C0.946514 13.5286 1.39484 13.5288 1.69081 13.2337C1.69096 13.2335 1.6911 13.2334 1.69125 13.2333L7.01521 8.04426L12.2124 13.2333C12.5066 13.527 12.941 13.523 13.227 13.3802L13.2415 13.373L13.253 13.3615C13.5489 13.0661 13.549 12.6182 13.2534 12.3226C13.2533 12.3225 13.2531 12.3223 13.253 12.3222L8.05516 7.00597L13.253 1.68979C13.2531 1.68965 13.2532 1.68951 13.2534 1.68938C13.549 1.39378 13.5489 0.945879 13.253 0.650429L13.2415 0.638969L13.227 0.631725C13.0824 0.55956 12.9061 0.525 12.7487 0.525C12.6696 0.525 12.5921 0.533723 12.5235 0.552639C12.456 0.571222 12.3897 0.601671 12.3409 0.650429L7.01606 5.96684L1.69125 0.650429L1.67977 0.638969L1.66526 0.631725C1.52009 0.559258 1.34355 0.525 1.17097 0.525C0.998392 0.525 0.821845 0.559258 0.676683 0.631725L0.646859 0.646613L0.631933 0.676418C0.559325 0.821405 0.525 0.99774 0.525 1.17011C0.525 1.34248 0.559325 1.51881 0.631933 1.6638Z" fill="white" stroke="white" stroke-width="0.2"/>
</svg>
