<svg width="100%" height="100%" viewBox="0 0 16 16" fill="current" xmlns="http://www.w3.org/2000/svg">
<path d="M12.6145 2.95H3.38554C3.26342 2.95 3.15375 3.01928 3.07644 3.11907C2.99883 3.21925 2.95 3.35445 2.95 3.49767C2.95 3.64089 2.99883 3.77609 3.07644 3.87627C3.15375 3.97606 3.26342 4.04534 3.38554 4.04534H12.6007C12.7287 4.05382 12.8422 3.98881 12.9217 3.88833C13.0016 3.78743 13.05 3.64797 13.05 3.49767C13.05 3.20164 12.8572 2.95 12.6145 2.95ZM12.6145 7.44458H3.38554C3.25789 7.44458 3.14794 7.51337 3.0716 7.61406C2.99532 7.71467 2.95 7.84986 2.95 7.99225C2.95 8.28827 3.14284 8.53991 3.38554 8.53991H12.6024C12.7301 8.53991 12.84 8.47112 12.9163 8.37043C12.9924 8.27009 13.0377 8.13534 13.038 7.99337C13.0442 7.84984 12.9985 7.7144 12.9224 7.61406C12.8464 7.51384 12.7365 7.44458 12.6145 7.44458ZM12.6145 11.9547H3.38554C3.25789 11.9547 3.14794 12.0235 3.0716 12.1241C2.99532 12.2248 2.95 12.3599 2.95 12.5023C2.95 12.6456 2.99883 12.7808 3.07644 12.8809C3.15375 12.9807 3.26342 13.05 3.38554 13.05H12.6024C12.7301 13.05 12.84 12.9812 12.9163 12.8805C12.9926 12.7799 13.038 12.6447 13.038 12.5023C13.038 12.3599 12.9926 12.225 12.9182 12.1246C12.8439 12.0244 12.737 11.9547 12.6145 11.9547Z" fill="white" stroke="white" stroke-width="0.1"/>
</svg>
