<svg width="16" height="16" viewBox="0 0 16 16" fill="none" xmlns="http://www.w3.org/2000/svg">
<path d="M14.9217 0.45H1.07831C0.90499 0.45 0.747119 0.548437 0.634419 0.693913C0.52142 0.839775 0.45 1.03718 0.45 1.2465C0.45 1.45582 0.52142 1.65323 0.634419 1.79909C0.747119 1.94457 0.90499 2.043 1.07831 2.043H14.9019C15.0842 2.05538 15.2474 1.96315 15.363 1.81699C15.479 1.6704 15.55 1.46679 15.55 1.2465C15.55 0.810509 15.2668 0.45 14.9217 0.45ZM14.9217 7.19187H1.07831C0.896446 7.19187 0.738306 7.28982 0.627326 7.43619C0.516403 7.58249 0.45 7.77988 0.45 7.98837C0.45 8.42436 0.733205 8.78487 1.07831 8.78487H14.9036C15.0855 8.78487 15.2436 8.68692 15.3546 8.54055C15.4653 8.39451 15.5317 8.19756 15.5319 7.98949C15.5412 7.77987 15.4744 7.58222 15.3636 7.43619C15.253 7.29028 15.095 7.19187 14.9217 7.19187ZM14.9217 13.957H1.07831C0.896446 13.957 0.738306 14.0549 0.627326 14.2013C0.516403 14.3476 0.45 14.545 0.45 14.7535C0.45 14.9628 0.52142 15.1602 0.634419 15.3061C0.747119 15.4516 0.90499 15.55 1.07831 15.55H14.9036C15.0855 15.55 15.2436 15.452 15.3546 15.3057C15.4655 15.1594 15.5319 14.962 15.5319 14.7535C15.5319 14.545 15.4655 14.3478 15.3572 14.2017C15.249 14.0559 15.0954 13.957 14.9217 13.957Z" fill="white" stroke="white" stroke-width="0.1"/>
</svg>
