<svg width="313" height="33" viewBox="0 0 313 33" fill="none" xmlns="http://www.w3.org/2000/svg">
<path d="M19.9923 1.088H13.6923L0.546289 32.588H6.59429L9.87029 24.65H23.8563L27.1323 32.588H33.1383L19.9923 1.088ZM12.2643 19.022L17.0103 7.976L21.5043 19.022H12.2643ZM37.231 1.088H51.889C56.677 1.088 60.541 4.826 60.541 9.656C60.541 12.344 59.239 14.528 57.307 16.082C59.659 17.636 61.255 20.492 61.255 23.81C61.255 28.682 57.349 32.588 52.561 32.588H37.231V1.088ZM43.027 26.498H51.637C53.569 26.498 55.123 24.986 55.123 23.012C55.123 20.912 53.569 19.274 51.637 19.274H43.027V26.498ZM43.027 13.604H51.301C53.233 13.52 54.661 12.176 54.661 10.244C54.661 8.27 53.065 6.842 51.133 6.842H43.027V13.604ZM71.3668 1.088H65.6128V32.588H86.2768V26.918H71.3668V1.088ZM111.932 1.088H89.9663V32.588H111.932V26.96H95.6363V19.232H110.546V13.562H95.6363V6.674H111.932V1.088ZM141.645 3.776H135.975V13.646H126.105V19.358H135.975V29.186H141.645V19.358H151.515V13.646H141.645V3.776Z" fill="#444444"/>
<path d="M181.674 32.924C186 32.924 189.906 31.118 192.678 28.22L189.024 23.936C187.302 25.658 184.278 26.792 181.674 26.792C175.626 26.792 171.846 22.382 171.846 16.838C171.846 11.336 175.626 6.884 181.674 6.926C184.278 6.926 187.302 8.018 189.024 9.74L192.678 5.456C189.906 2.558 186 0.751999 181.674 0.751999C172.182 0.709997 166.134 8.018 166.134 16.838C166.134 25.658 172.182 32.924 181.674 32.924ZM202.822 1.088H197.068V32.588H217.732V26.918H202.822V1.088ZM234.8 27.212C228.584 27.212 224.594 22.634 224.594 16.838C224.594 11.084 228.584 6.506 234.8 6.506C241.016 6.506 245.006 11.084 245.006 16.838C245.006 22.634 241.016 27.212 234.8 27.212ZM218.924 16.838C218.924 25.7 225.392 32.924 234.8 32.924C244.208 32.924 250.676 25.7 250.676 16.838C250.676 8.018 244.208 0.751999 234.8 0.751999C225.392 0.751999 218.924 8.018 218.924 16.838ZM267.714 27.044C271.956 27.044 274.812 24.062 274.812 19.904V1.088H280.566V19.946C280.566 27.086 274.602 32.882 267.714 32.882C260.784 32.882 254.862 27.086 254.862 19.946V1.088H260.616V19.904C260.616 24.062 263.472 27.044 267.714 27.044ZM296.237 26.834H291.869V6.842H296.237C301.739 6.842 306.275 11.294 306.275 16.838C306.275 22.382 301.739 26.834 296.237 26.834ZM286.115 32.588H296.363C305.015 32.588 312.071 25.532 312.071 16.838C312.071 8.144 305.015 1.088 296.363 1.088H286.115V32.588Z" fill="#2BBBE6"/>
</svg>
