<svg width="176" height="17" viewBox="0 0 176 17" fill="none" xmlns="http://www.w3.org/2000/svg">
<g clip-path="url(#clip0_1431_13427)">
<path d="M99.7269 4.43368L99.7052 12.5494H113.302V16.9759H97.6252C97.2127 16.9807 96.8035 16.8983 96.421 16.7335C96.0385 16.5688 95.6919 16.3251 95.3994 16.0166C95.1077 15.7082 94.8769 15.3412 94.7202 14.9372C94.5644 14.5331 94.486 14.1002 94.4894 13.6638L94.5119 3.31703C94.5094 2.88074 94.5894 2.4483 94.746 2.04473C94.9027 1.64117 95.1335 1.27451 95.4252 0.965999C95.7169 0.657491 96.0635 0.413262 96.4444 0.247454C96.826 0.0816459 97.2352 -0.00244613 97.6477 5.41602e-05H113.324V4.43368H99.7269Z" fill="#465A65"/>
<path d="M134.715 0L134.682 13.6401C134.683 14.5222 134.354 15.3688 133.767 15.9943C133.178 16.6198 132.38 16.9728 131.547 16.9759H118.074C117.661 16.9747 117.253 16.8875 116.872 16.7191C116.491 16.5508 116.144 16.3048 115.853 15.995C115.563 15.6852 115.332 15.3179 115.175 14.9138C115.018 14.5098 114.938 14.0769 114.938 13.6401L114.972 0H120.188L120.154 12.5235H129.467L129.498 0H134.715Z" fill="#465A65"/>
<path d="M5.54478 0.00195312H0.333984V16.9755H5.54478V0.00195312Z" fill="#ED1C23"/>
<path d="M175.334 12.49L175.329 16.9755H157.899L157.904 0.00195312H175.302V4.49682H163.114V6.577H174.579V10.3769H163.114V12.49H175.334Z" fill="#465A65"/>
<path d="M84.9978 0H78.4129L70.3027 16.9759H75.9076L77.3818 13.8898H86.0262L87.5003 16.9759H93.1053L84.9978 0ZM79.1922 10.0946L81.7019 4.84118L84.2112 10.0946H79.1922Z" fill="#ED1C23"/>
<path d="M48.1764 0.00195312V4.6523H36.5366V6.95157H47.4192V11.5901H36.5366V16.9755H31.3281V0.00195312H48.1764Z" fill="#ED1C23"/>
<path d="M30.2723 16.9755V0.00195312H25.0592V12.3063L15.7823 0.00195312H7.61426V16.9755H12.8251V4.93971L21.9038 16.9755H30.2723Z" fill="#ED1C23"/>
<path d="M154.238 8.24518C154.663 7.90448 155.025 7.48357 155.305 7.00369H155.289C155.7 6.37547 155.905 5.55565 155.905 4.54423C155.912 3.94138 155.807 3.34299 155.599 2.78208C155.579 2.72083 155.552 2.66429 155.527 2.60775C155.205 1.90354 154.72 1.29727 154.115 0.845618C154.022 0.774943 153.928 0.711333 153.83 0.650082L153.681 0.56056C153.568 0.496954 153.459 0.438059 153.33 0.383875C153.276 0.357176 153.22 0.333621 153.162 0.313204C153.115 0.292002 153.066 0.275508 153.018 0.259018C153.009 0.25729 153 0.25729 152.99 0.259018C152.642 0.138087 152.281 0.0590636 151.915 0.0234375H151.777C151.668 0.0234375 151.555 0.0234375 151.445 0.0234375H136.412V8.06144V16.9994H152.31C153.299 17.0085 154.261 16.6609 155.039 16.0138C155.817 15.3666 156.363 14.4586 156.587 13.4392C156.812 12.4199 156.701 11.35 156.275 10.4059C155.847 9.46174 155.129 8.69971 154.238 8.24518ZM141.42 3.81628H149.399C149.573 3.80797 149.747 3.83731 149.91 3.90252C150.073 3.96773 150.222 4.06745 150.348 4.19556C150.643 4.50587 150.818 4.92188 150.837 5.36168C150.835 5.65028 150.769 5.93421 150.644 6.19094C150.606 6.26239 150.564 6.33088 150.517 6.39589C150.473 6.45838 150.424 6.51671 150.37 6.57021C150.245 6.70746 150.093 6.81561 149.926 6.8878C149.759 6.95998 149.58 6.99463 149.399 6.98954H141.42V3.81628ZM141.471 13.1806V9.98848H149.915C150.124 9.97675 150.332 10.0247 150.517 10.1275C150.533 10.1329 150.548 10.1409 150.561 10.151C150.672 10.2148 150.774 10.294 150.865 10.3866C150.951 10.4677 151.026 10.5622 151.087 10.667C151.105 10.6889 151.12 10.7134 151.131 10.74C151.24 10.9279 151.312 11.137 151.343 11.3549C151.343 11.3949 151.343 11.4326 151.359 11.475C151.357 11.4962 151.357 11.5175 151.359 11.5386C151.353 11.5617 151.353 11.5861 151.359 11.6093C151.357 11.6304 151.357 11.6517 151.359 11.6728C151.359 11.7153 151.359 11.753 151.343 11.793C151.317 12.0151 151.248 12.2292 151.14 12.422C151.129 12.4486 151.114 12.4731 151.095 12.495C151.035 12.5999 150.96 12.6944 150.873 12.7754C150.783 12.8679 150.68 12.9472 150.57 13.011L150.525 13.0322C150.34 13.1346 150.133 13.1833 149.925 13.1735L141.471 13.1806Z" fill="#465A65"/>
<path d="M63.9348 16.9759H69.7402L64.6006 11.779C66.6983 11.2702 68.3261 9.26066 68.6289 6.75174V6.73761C68.664 6.46277 68.6812 6.18569 68.6802 5.90836C68.6809 5.62955 68.6645 5.35099 68.6312 5.07441C68.3172 2.44769 66.5536 0.407558 64.3156 0.0188504C64.2797 0.0146735 64.244 0.00837754 64.2087 0H49.1309V11.9039L49.1531 16.9759H54.3639V4.17449H62.1133C62.3239 4.16041 62.5337 4.21464 62.7145 4.32997C62.7304 4.33542 62.7454 4.34337 62.759 4.35354C62.8705 4.42144 62.9724 4.50549 63.0619 4.60325C63.0968 4.6397 63.1288 4.6791 63.1576 4.72104C63.2104 4.78681 63.256 4.85872 63.2934 4.93541C63.3082 4.95679 63.3209 4.97967 63.3314 5.00372L63.3581 5.05556C63.5129 5.40513 63.5723 5.79353 63.5295 6.17692C63.5006 6.39635 63.4429 6.61042 63.3581 6.81298L63.3314 6.86481C63.3199 6.88752 63.3072 6.90953 63.2934 6.93077C63.2555 7.00786 63.21 7.08052 63.1576 7.14751C63.1282 7.18821 63.0962 7.22678 63.0619 7.26294C62.9713 7.36001 62.8695 7.44469 62.759 7.51502L62.7145 7.53857C62.532 7.64947 62.3235 7.70339 62.1133 7.69406H54.8004L63.9348 16.9759Z" fill="#ED1C23"/>
</g>
<defs>
<clipPath id="clip0_1431_13427">
<rect width="175" height="17" fill="white" transform="translate(0.333984)"/>
</clipPath>
</defs>
</svg>
