<svg width="281" height="51" viewBox="0 0 281 51" fill="none" xmlns="http://www.w3.org/2000/svg">
<g clip-path="url(#clip0_621_2973)">
<path d="M89.0597 8.02372C85.4672 4.42715 79.6366 4.42715 76.0401 8.02372C72.4476 11.6203 72.4476 17.4468 76.0401 21.0434C79.6366 24.6399 85.4672 24.6399 89.0597 21.0434C92.6563 17.4468 92.6563 11.6203 89.0597 8.02372V8.02372Z" fill="#F16924"/>
<path d="M76.1301 11.7226L73.9697 10.7038L74.0557 10.5197L76.1547 11.5057L79.072 10.8142L82.5254 9.48037L85.3445 7.74142L86.2733 5.85107L86.4575 5.94109L85.5041 7.88463L85.4795 7.8969L82.6154 9.66449L79.1334 11.0106L76.1301 11.7226Z" fill="white"/>
<path d="M78.9126 23.2815L78.7285 23.1915L79.686 21.2193L82.7547 19.4067L86.1139 18.0319L89.3341 17.3199L91.2531 18.3101L91.159 18.4902L89.3054 17.5327L86.1753 18.2242L82.8447 19.5908L79.8414 21.3625L78.9126 23.2815Z" fill="white"/>
<path d="M89.1416 11.8126L86.2815 11.1047L82.6154 9.61128L79.8617 7.93779L79.0557 5.5319L79.2521 5.46643L80.0336 7.80276L82.7095 9.42715L86.347 10.9124L89.1334 11.5998L91.2652 10.847L91.3306 11.0434L89.1416 11.8126Z" fill="white"/>
<path d="M82.554 24.0712L79.6735 21.3462L79.6653 21.3176L78.8429 18.0279L77.6277 14.5991L76.1137 11.7799L73.1391 14.5213L73 14.3699L76.171 11.4485L77.8159 14.5172L79.0393 17.9706L79.8576 21.2357L82.6931 23.9239L82.554 24.0712Z" fill="white"/>
<path d="M86.1503 23.4002L85.1601 21.1171L82.7501 19.5827L78.994 18.036L76.1789 17.3364L76.1584 17.3159L73.1143 14.0876L73.2656 13.9485L76.2894 17.1523L79.0594 17.8437L82.8442 19.3986L85.3237 20.9779L86.3385 23.3184L86.1503 23.4002Z" fill="white"/>
<path d="M82.2065 24.1325L82.0674 23.9852L85.2711 20.9615L86.0567 18.0973L87.3661 14.3207L89.0355 11.6775L88.9414 7.72089L89.1459 7.7168L89.24 11.7348L89.2237 11.7594L87.5502 14.4066L86.2491 18.1587L85.4553 21.072L85.4348 21.0924L82.2065 24.1325Z" fill="white"/>
<path d="M89.1171 21.4812L88.9125 21.4648L89.2153 17.4509L87.3781 14.4067L86.2406 10.9452L85.3323 7.86416L82.6113 5.14321L82.7586 5L85.5246 7.78232L86.4329 10.8838L87.5622 14.3208L89.4239 17.4018L89.1171 21.4812Z" fill="white"/>
<path d="M73.5567 18.2529L73.4912 18.0606L76.1631 17.1604L77.6647 14.3658L78.9986 10.8797L79.8578 7.81508L82.7097 5.18005L82.8488 5.33144L80.0379 7.92555L79.195 10.9411L77.8488 14.4517L76.3063 17.3282L73.5567 18.2529Z" fill="white"/>
<path d="M76.1918 7.44666L76.0996 11.7051L76.3041 11.7095L76.3963 7.45109L76.1918 7.44666Z" fill="white"/>
<path d="M76.0551 7.66578L76.0479 7.87024L79.9121 8.00653L79.9193 7.80208L76.0551 7.66578Z" fill="white"/>
<path d="M76.1 17.2336L75.8496 21.375L76.0538 21.3873L76.3042 17.246L76.1 17.2336Z" fill="white"/>
<path d="M75.7241 20.8537L75.7061 21.0575L79.8143 21.422L79.8324 21.2182L75.7241 20.8537Z" fill="white"/>
<path d="M89.529 20.9745L85.3311 21.0074L85.3327 21.212L89.5306 21.1791L89.529 20.9745Z" fill="white"/>
<path d="M91.8182 14.6203L89.3047 17.3894L89.4562 17.5269L91.9697 14.7578L91.8182 14.6203Z" fill="white"/>
<path d="M89.1855 11.6099L89.0283 11.7408L91.7685 15.0285L91.9256 14.8975L89.1855 11.6099Z" fill="white"/>
<path d="M85.3676 7.71047L85.3574 7.91479L89.5298 8.12251L89.54 7.91818L85.3676 7.71047Z" fill="white"/>
<path d="M109.927 8.02372C106.33 4.42715 100.5 4.42715 96.9074 8.02372C93.3108 11.6203 93.3108 17.4468 96.9074 21.0434C100.504 24.6399 106.335 24.6399 109.927 21.0434C113.524 17.4468 113.524 11.6203 109.927 8.02372V8.02372Z" fill="#FFD54F"/>
<path d="M96.9973 11.7226L94.8369 10.7038L94.9228 10.5197L97.0219 11.5057L99.9392 10.8142L103.393 9.48037L106.212 7.74142L107.141 5.85107L107.325 5.94109L106.371 7.88463L106.347 7.8969L103.483 9.66449L100.001 11.0106L96.9973 11.7226Z" fill="white"/>
<path d="M99.7798 23.2815L99.5957 23.1915L100.553 21.2193L103.622 19.4067L106.981 18.0319L110.201 17.3199L112.12 18.3101L112.026 18.4902L110.173 17.5327L107.043 18.2242L103.712 19.5908L100.709 21.3625L99.7798 23.2815Z" fill="white"/>
<path d="M110.009 11.8126L107.149 11.1047L103.483 9.61128L100.729 7.93779L99.9229 5.5319L100.119 5.46643L100.901 7.80276L103.577 9.42715L107.214 10.9124L110.001 11.5998L112.132 10.847L112.198 11.0434L110.009 11.8126Z" fill="white"/>
<path d="M103.421 24.0712L100.541 21.3462L100.532 21.3176L99.7101 18.0279L98.4948 14.5991L96.9809 11.7799L94.0063 14.5213L93.8672 14.3699L97.0382 11.4485L98.6831 14.5172L99.9065 17.9706L100.725 21.2357L103.56 23.9239L103.421 24.0712Z" fill="white"/>
<path d="M107.017 23.4002L106.027 21.1171L103.617 19.5827L99.8612 18.036L97.0461 17.3364L97.0256 17.3159L93.9814 14.0876L94.1328 13.9485L97.1566 17.1523L99.9266 17.8437L103.711 19.3986L106.191 20.9779L107.206 23.3184L107.017 23.4002Z" fill="white"/>
<path d="M103.074 24.1325L102.935 23.9852L106.138 20.9615L106.924 18.0973L108.233 14.3207L109.903 11.6775L109.809 7.72089L110.013 7.7168L110.107 11.7348L110.091 11.7594L108.417 14.4066L107.116 18.1587L106.322 21.072L106.302 21.0924L103.074 24.1325Z" fill="white"/>
<path d="M109.984 21.4812L109.78 21.4648L110.082 17.4509L108.245 14.4067L107.108 10.9452L106.199 7.86416L103.479 5.14321L103.626 5L106.392 7.78232L107.3 10.8838L108.429 14.3208L110.291 17.4018L109.984 21.4812Z" fill="white"/>
<path d="M94.4239 18.2529L94.3584 18.0606L97.0302 17.1604L98.5319 14.3658L99.8658 10.8797L100.725 7.81508L103.577 5.18005L103.716 5.33144L100.905 7.92555L100.062 10.9411L98.716 14.4517L97.1735 17.3282L94.4239 18.2529Z" fill="white"/>
<path d="M97.0609 7.4474L96.9688 11.7058L97.1733 11.7102L97.2655 7.45182L97.0609 7.4474Z" fill="white"/>
<path d="M96.9213 7.66652L96.9141 7.87097L100.778 8.00726L100.785 7.80281L96.9213 7.66652Z" fill="white"/>
<path d="M96.9662 17.2348L96.7158 21.3762L96.92 21.3886L97.1704 17.2472L96.9662 17.2348Z" fill="white"/>
<path d="M96.5943 20.8536L96.5762 21.0574L100.684 21.4219L100.703 21.2181L96.5943 20.8536Z" fill="white"/>
<path d="M110.399 20.9701L106.201 21.0031L106.203 21.2076L110.401 21.1747L110.399 20.9701Z" fill="white"/>
<path d="M112.684 14.6231L110.171 17.3922L110.322 17.5297L112.836 14.7606L112.684 14.6231Z" fill="white"/>
<path d="M110.052 11.6129L109.895 11.7439L112.635 15.0316L112.792 14.9006L110.052 11.6129Z" fill="white"/>
<path d="M106.237 7.71169L106.227 7.91602L110.399 8.12373L110.409 7.9194L106.237 7.71169Z" fill="white"/>
<path d="M109.927 28.8911C106.33 25.2946 100.5 25.2946 96.9074 28.8911C93.3108 32.4877 93.3108 38.3142 96.9074 41.9108C100.504 45.5073 106.335 45.5073 109.927 41.9108C113.524 38.3142 113.524 32.4877 109.927 28.8911V28.8911Z" fill="#00A651"/>
<path d="M96.9973 32.59L94.8369 31.5712L94.9228 31.3871L97.0219 32.3732L99.9392 31.6817L103.393 30.3478L106.212 28.6088L107.141 26.7185L107.325 26.8085L106.371 28.7521L106.347 28.7643L103.483 30.5319L100.001 31.8781L96.9973 32.59Z" fill="white"/>
<path d="M99.7798 44.1489L99.5957 44.0589L100.553 42.0867L103.622 40.2741L106.981 38.8993L110.201 38.1874L112.12 39.1776L112.026 39.3576L110.173 38.4001L107.043 39.0916L103.712 40.4582L100.709 42.2299L99.7798 44.1489Z" fill="white"/>
<path d="M110.009 32.68L107.149 31.9722L103.483 30.4787L100.729 28.8052L99.9229 26.3993L100.119 26.3339L100.901 28.6702L103.577 30.2946L107.214 31.7799L110.001 32.4672L112.132 31.7144L112.198 31.9108L110.009 32.68Z" fill="white"/>
<path d="M103.421 44.9387L100.541 42.2136L100.532 42.185L99.7101 38.8953L98.4948 35.4665L96.9809 32.6473L94.0063 35.3887L93.8672 35.2374L97.0382 32.3159L98.6831 35.3847L99.9065 38.838L100.725 42.1032L103.56 44.7914L103.421 44.9387Z" fill="white"/>
<path d="M107.017 44.2676L106.027 41.9845L103.617 40.4501L99.8612 38.9035L97.0461 38.2038L97.0256 38.1833L93.9814 34.955L94.1328 34.8159L97.1566 38.0197L99.9266 38.7112L103.711 40.266L106.191 41.8454L107.206 44.1858L107.017 44.2676Z" fill="white"/>
<path d="M103.074 44.9999L102.935 44.8526L106.138 41.8289L106.924 38.9648L108.233 35.1882L109.903 32.5449L109.809 28.5883L110.013 28.5842L110.107 32.6022L110.091 32.6268L108.417 35.2741L107.116 39.0261L106.322 41.9394L106.302 41.9598L103.074 44.9999Z" fill="white"/>
<path d="M109.984 42.3486L109.78 42.3322L110.082 38.3183L108.245 35.2741L107.108 31.8126L106.199 28.7316L103.479 26.0106L103.626 25.8674L106.392 28.6498L107.3 31.7512L108.429 35.1882L110.291 38.2692L109.984 42.3486Z" fill="white"/>
<path d="M94.4239 39.1203L94.3584 38.928L97.0302 38.0278L98.5319 35.2332L99.8658 31.7472L100.725 28.6825L103.577 26.0475L103.716 26.1989L100.905 28.793L100.062 31.8085L98.716 35.3192L97.1735 38.1956L94.4239 39.1203Z" fill="white"/>
<path d="M97.0599 28.3164L96.9678 32.5748L97.1723 32.5793L97.2645 28.3208L97.0599 28.3164Z" fill="white"/>
<path d="M96.9203 28.5289L96.9131 28.7334L100.777 28.8697L100.785 28.6652L96.9203 28.5289Z" fill="white"/>
<path d="M96.9691 38.1014L96.7188 42.2428L96.923 42.2551L97.1734 38.1138L96.9691 38.1014Z" fill="white"/>
<path d="M96.5943 41.7238L96.5762 41.9276L100.684 42.2921L100.703 42.0883L96.5943 41.7238Z" fill="white"/>
<path d="M110.393 41.8862L106.195 41.9119L106.196 42.0387L110.394 42.0131L110.393 41.8862Z" fill="white"/>
<path d="M112.685 35.4894L110.172 38.2585L110.323 38.396L112.837 35.6269L112.685 35.4894Z" fill="white"/>
<path d="M110.053 32.4791L109.896 32.6101L112.636 35.8978L112.793 35.7668L110.053 32.4791Z" fill="white"/>
<path d="M106.236 28.5774L106.226 28.7817L110.398 28.9895L110.408 28.7851L106.236 28.5774Z" fill="white"/>
<path d="M89.0598 28.8911C85.4633 25.2946 79.6327 25.2946 76.0402 28.8911C72.4436 32.4877 72.4436 38.3142 76.0402 41.9108C79.6368 45.5073 85.4674 45.5073 89.0598 41.9108C92.6564 38.3142 92.6564 32.4877 89.0598 28.8911V28.8911Z" fill="#1C75BC"/>
<path d="M76.1301 32.59L73.9697 31.5712L74.0557 31.3871L76.1547 32.3732L79.072 31.6817L82.5254 30.3478L85.3445 28.6088L86.2733 26.7185L86.4575 26.8085L85.5041 28.7521L85.4795 28.7643L82.6154 30.5319L79.1334 31.8781L76.1301 32.59Z" fill="white"/>
<path d="M78.9126 44.1489L78.7285 44.0589L79.686 42.0867L82.7547 40.2741L86.1139 38.8993L89.3341 38.1874L91.2531 39.1776L91.159 39.3576L89.3054 38.4001L86.1753 39.0916L82.8447 40.4582L79.8414 42.2299L78.9126 44.1489Z" fill="white"/>
<path d="M89.1416 32.68L86.2815 31.9722L82.6154 30.4787L79.8617 28.8052L79.0557 26.3993L79.2521 26.3339L80.0336 28.6702L82.7095 30.2946L86.347 31.7799L89.1334 32.4672L91.2652 31.7144L91.3306 31.9108L89.1416 32.68Z" fill="white"/>
<path d="M82.554 44.9387L79.6735 42.2136L79.6653 42.185L78.8429 38.8953L77.6277 35.4665L76.1137 32.6473L73.1391 35.3887L73 35.2374L76.171 32.3159L77.8159 35.3847L79.0393 38.838L79.8576 42.1032L82.6931 44.7914L82.554 44.9387Z" fill="white"/>
<path d="M86.1503 44.2676L85.1601 41.9845L82.7501 40.4501L78.994 38.9035L76.1789 38.2038L76.1584 38.1833L73.1143 34.955L73.2656 34.8159L76.2894 38.0197L79.0594 38.7112L82.8442 40.266L85.3237 41.8454L86.3385 44.1858L86.1503 44.2676Z" fill="white"/>
<path d="M82.2065 44.9999L82.0674 44.8526L85.2711 41.8289L86.0567 38.9648L87.3661 35.1882L89.0355 32.5449L88.9414 28.5883L89.1459 28.5842L89.24 32.6022L89.2237 32.6268L87.5502 35.2741L86.2491 39.0261L85.4553 41.9394L85.4348 41.9598L82.2065 44.9999Z" fill="white"/>
<path d="M89.1171 42.3486L88.9125 42.3322L89.2153 38.3183L87.3781 35.2741L86.2406 31.8126L85.3323 28.7316L82.6113 26.0106L82.7586 25.8674L85.5246 28.6498L86.4329 31.7512L87.5622 35.1882L89.4239 38.2692L89.1171 42.3486Z" fill="white"/>
<path d="M73.5567 39.1203L73.4912 38.928L76.1631 38.0278L77.6647 35.2332L78.9986 31.7472L79.8578 28.6825L82.7097 26.0475L82.8488 26.1989L80.0379 28.793L79.195 31.8085L77.8488 35.3192L76.3063 38.1956L73.5567 39.1203Z" fill="white"/>
<path d="M76.1918 28.3156L76.0996 32.574L76.3041 32.5784L76.3963 28.32L76.1918 28.3156Z" fill="white"/>
<path d="M76.0541 28.5324L76.0469 28.7368L79.9111 28.8731L79.9183 28.6687L76.0541 28.5324Z" fill="white"/>
<path d="M76.1029 38.1002L75.8525 42.2416L76.0567 42.2539L76.3071 38.1126L76.1029 38.1002Z" fill="white"/>
<path d="M75.7241 41.7241L75.7061 41.9279L79.8143 42.2923L79.8324 42.0886L75.7241 41.7241Z" fill="white"/>
<path d="M89.5329 41.8412L85.335 41.8741L85.3366 42.0787L89.5345 42.0458L89.5329 41.8412Z" fill="white"/>
<path d="M91.8153 35.4908L89.3018 38.2599L89.4532 38.3974L91.9668 35.6283L91.8153 35.4908Z" fill="white"/>
<path d="M89.1825 32.4801L89.0254 32.6111L91.7655 35.8988L91.9227 35.7678L89.1825 32.4801Z" fill="white"/>
<path d="M85.3656 28.5762L85.3555 28.7805L89.5279 28.9882L89.5381 28.7839L85.3656 28.5762Z" fill="white"/>
<path d="M155.54 21.874C155.254 23.1915 153.671 23.9894 151.997 23.6661C150.328 23.3388 149.202 22.009 149.493 20.6915C149.779 19.3781 151.363 18.5761 153.036 18.8993C154.706 19.2267 155.831 20.5565 155.54 21.874V21.874Z" fill="#D2602C"/>
<path d="M154.227 35.6793C154.039 35.2087 153.675 34.8486 153.208 34.6154C152.914 31.964 154.162 27.1072 154.162 27.1072C154.362 25.8879 153.433 25.577 153.433 25.577C151.678 24.9591 150.103 25.9534 150.103 25.9534C148.875 26.6858 148.687 28.0115 148.687 28.0115C147.881 32.0745 147.812 36.293 147.812 36.293C147.812 37.6351 148.442 38.3797 149.039 38.7848C149.211 38.9076 149.403 39.014 149.612 39.0917C150.115 39.2717 151.289 39.3577 152.169 39.0262C153.794 38.4125 154.714 36.9108 154.231 35.6833L154.227 35.6793Z" fill="#D2602C"/>
<path d="M180.34 24.2226C179.788 24.2226 179.248 24.284 178.728 24.3945C178.168 24.1244 177.562 24.063 177.006 24.2758C176.371 24.5213 175.929 25.0778 175.729 25.7815C173.929 27.1563 172.767 29.3208 172.767 31.7553C172.767 35.9165 176.154 39.2881 180.336 39.2881C184.518 39.2881 187.906 35.9165 187.906 31.7553C187.906 27.5941 184.514 24.2226 180.336 24.2226H180.34ZM180.34 34.3781C178.871 34.3781 177.681 33.2283 177.681 31.8085C177.681 31.2357 177.877 30.7079 178.209 30.2782C178.564 30.3314 178.92 30.4133 179.26 30.2864C179.722 30.1105 180.087 29.8732 180.332 29.464H180.34C181.809 29.464 183 30.4992 183 31.919C183 33.3388 181.809 34.374 180.34 34.374V34.3781Z" fill="#D2602C"/>
<path d="M166.924 10.2496C166.924 10.2496 169.518 10.4787 169.498 13.0933C169.498 13.0933 165.713 29.3208 167.317 36.5344C167.317 36.5344 167.783 38.5188 166.102 39.1285C166.102 39.1285 163.368 39.9918 162.648 37.68C162.648 37.68 160.877 33.3961 163.921 12.9664C163.921 12.9664 164.207 10.0245 166.928 10.2455L166.924 10.2496Z" fill="#D2602C"/>
<path d="M201.147 28.6498C203.495 28.6498 203.659 31.6122 203.659 31.6122L203.585 37.4796C203.626 39.64 206.474 39.2595 206.474 39.2595C209.027 38.7194 209.154 36.6367 209.154 36.6367L209.191 31.6244C209.191 31.6244 208.393 24.1449 201.151 24.1449H200.983C193.741 24.1449 192.947 31.6244 192.947 31.6244L192.824 36.6531C192.824 36.6531 192.951 38.7194 195.504 39.2595C195.504 39.2595 198.352 39.6277 198.393 37.4673L198.471 31.6081C198.471 31.6081 198.638 28.6416 200.983 28.6416H201.151L201.147 28.6498Z" fill="#D2602C"/>
<path d="M148.733 12.7577C147.018 10.6874 144.87 11.7225 144.87 11.7225C136.666 14.7872 123.242 13.1137 123.242 13.1137C120.774 12.7946 120.455 14.9427 120.455 14.9427C120.017 17.013 122.448 17.5286 122.448 17.5286C127.746 18.2037 132.685 18.0851 132.685 18.0851C129.26 33.0482 131.809 37.2667 131.809 37.2667C132.448 38.8584 134.039 39.1775 134.039 39.1775C134.084 39.1857 134.134 39.1898 134.179 39.1939C134.833 39.3494 135.594 39.3085 136.339 39.018C137.939 38.396 138.851 36.8903 138.368 35.6546C138.115 35.0081 137.53 34.5662 136.801 34.3739C135.815 24.2471 138.458 17.8068 138.458 17.8068C145.271 17.2504 147.939 15.6587 147.939 15.6587C149.809 14.5458 148.737 12.7536 148.737 12.7536L148.733 12.7577Z" fill="#D2602C"/>
</g>
<defs>
<clipPath id="clip0_621_2973">
<rect width="136.187" height="40" fill="white" transform="translate(73 5)"/>
</clipPath>
</defs>
</svg>
