<svg width="280" height="51" viewBox="0 0 280 51" fill="none" xmlns="http://www.w3.org/2000/svg">
<g clip-path="url(#clip0_621_2422)">
<path d="M79.967 10C79.967 10 79.943 10 79.9249 10L67.2301 13.7988L65.1023 14.43C65.0301 14.454 64.9881 14.5201 65.0001 14.5923L67.164 29.7876L67.2121 30.0461L67.2842 30.3166L67.3744 30.5931L67.4826 30.8696L67.6088 31.1461L67.753 31.4165L67.9093 31.675L68.0776 31.9215L68.2519 32.1439L68.4383 32.3482L68.6246 32.5285L68.817 32.6788L78.4343 39.5131L78.6867 39.6754C78.6867 39.6754 78.6987 39.6754 78.6987 39.6814L78.9392 39.8016C78.9392 39.8016 78.9512 39.8016 78.9572 39.8077L79.1916 39.8918C79.1916 39.8918 79.2037 39.8918 79.2097 39.8918L79.4321 39.9339C79.4321 39.9339 79.4501 39.9339 79.4561 39.9339H79.6665C79.6785 39.9339 79.6845 39.9339 79.6965 39.9339L79.8829 39.8978C79.8829 39.8978 79.9069 39.8918 79.9189 39.8858L80.0872 39.8077C80.0872 39.8077 80.1053 39.8016 80.1113 39.7956L81.2774 38.9181L82.1309 39.4951C82.1309 39.4951 82.185 39.5191 82.2151 39.5191C82.2451 39.5191 82.2812 39.5071 82.3052 39.4891L91.5919 32.3242L91.7723 32.1739L91.9526 31.9876L92.1269 31.7772L92.2952 31.5488L92.4575 31.3023L92.6078 31.0439L92.746 30.7734L92.8662 30.4969L92.9684 30.2204L93.0526 29.9439L93.1187 29.6734L93.1608 29.4149L93.9121 23.3861L93.9362 23.1096V22.8451V22.8331L93.9121 22.6047C93.9121 22.6047 93.9121 22.5927 93.9121 22.5867L93.864 22.3823C93.864 22.3823 93.864 22.3703 93.858 22.3582L93.7919 22.1839C93.7919 22.1839 93.7859 22.1659 93.7799 22.1599L93.6897 22.0156C93.6897 22.0156 93.6777 21.9976 93.6657 21.9916L93.5515 21.8834C93.5515 21.8834 93.5274 21.8654 93.5154 21.8593L93.3832 21.7872C93.3832 21.7872 93.3712 21.7872 93.3651 21.7812L92.3613 21.4025L92.4876 20.2424L94.375 19.1905C94.411 19.1665 94.4411 19.1244 94.4471 19.0823L95.0422 14.3098C95.0482 14.2376 95.0061 14.1715 94.934 14.1535L90.8707 13.0174L90.5521 12.9393L90.2155 12.8672L89.8668 12.8071L89.5062 12.759L89.1395 12.7289L88.7729 12.7049H88.4062H88.0396L87.6849 12.7289L87.3423 12.759L87.0117 12.8071L86.6991 12.8672L84.8538 13.2579L84.9139 11.4606C84.9139 11.3945 84.8719 11.3344 84.8057 11.3164L80.0091 10C80.0091 10 79.9851 10 79.967 10Z" fill="#241A16"/>
<path d="M71.3539 22.2199L71.979 28.898L70.1277 29.8657L69.1299 21.0779L71.3539 22.2199Z" fill="url(#paint0_linear_621_2422)"/>
<path d="M71.3778 22.2801L69.1417 21.132L70.1455 29.9499L76.2645 33.9411L76.1503 31.669L73.2411 29.8657L73.2291 29.7395L72.8684 25.2975L78.2601 28.2669L78.5366 28.4412L78.8131 28.6516L79.0776 28.904L79.3361 29.1925L79.5765 29.5051L79.7929 29.8417L79.9852 30.1963L80.1415 30.557L80.2738 30.9237L80.3699 31.2843L80.424 31.6329L80.4481 31.9575L80.4902 38.8279L80.4721 39.0863L80.424 39.3208L80.3459 39.5191L80.2317 39.6754L80.0874 39.8016L79.9191 39.8798L79.7328 39.9158H79.5224L79.3 39.8738L79.0656 39.7896L78.8252 39.6694L78.5847 39.5071L68.9313 32.6548L68.751 32.5105L68.5707 32.3362L68.3904 32.1439L68.2161 31.9214L68.0478 31.687L67.8975 31.4346L67.7532 31.1701L67.627 30.8996L67.5188 30.6351L67.4347 30.3646L67.3625 30.1002L67.3144 29.8477L65.1445 14.5983L75.5012 19.0883L75.7837 24.5462L71.3778 22.2801Z" fill="url(#paint1_linear_621_2422)"/>
<path d="M72.8382 25.2315L73.1988 29.6554L71.9786 28.8981L71.3535 22.2201L75.7414 24.4801L77.8091 23.4763L77.6468 18.1567L82.5036 20.1343L82.3533 30.6232L82.3413 30.3046L82.2872 29.962L82.197 29.6134L82.0768 29.2587L81.9205 28.9101L81.7402 28.5675L81.5238 28.2489L81.2894 27.9424L81.043 27.6659L80.7785 27.4254L80.508 27.2271L80.2315 27.0588L74.8518 24.2758L72.8382 25.2315Z" fill="url(#paint2_linear_621_2422)"/>
<path style="mix-blend-mode:screen" opacity="0.51" d="M72.8382 25.2315L73.1988 29.6554L71.9786 28.8981L71.3535 22.2201L75.7414 24.4801L77.8091 23.4763L77.6468 18.1567L82.5036 20.1343L82.3533 30.6232L82.3413 30.3046L82.2872 29.962L82.197 29.6134L82.0768 29.2587L81.9205 28.9101L81.7402 28.5675L81.5238 28.2489L81.2894 27.9424L81.043 27.6659L80.7785 27.4254L80.508 27.2271L80.2315 27.0588L74.8518 24.2758L72.8382 25.2315Z" fill="url(#paint3_linear_621_2422)"/>
<path style="mix-blend-mode:screen" opacity="0.7" d="M72.8382 25.2315L73.1988 29.6554L71.9786 28.8981L71.3535 22.2201L75.7414 24.4801L77.8091 23.4763L77.6468 18.1567L82.5036 20.1343L82.3533 30.6232L82.3413 30.3046L82.2872 29.962L82.197 29.6134L82.0768 29.2587L81.9205 28.9101L81.7402 28.5675L81.5238 28.2489L81.2894 27.9424L81.043 27.6659L80.7785 27.4254L80.508 27.2271L80.2315 27.0588L74.8518 24.2758L72.8382 25.2315Z" fill="url(#paint4_linear_621_2422)"/>
<path d="M77.6469 18.1567L77.8092 23.4763L75.7415 24.4801L75.459 19.0463L77.6469 18.1567Z" fill="url(#paint5_linear_621_2422)"/>
<path style="mix-blend-mode:screen" d="M82.5039 20.1341L77.6471 18.1566L83.7481 15.6801L75.9701 17.4774L72.1352 15.9146L76.8116 13.3239L70.7167 15.3375L67.2725 13.937L79.9673 10.1442L84.77 11.4846L80.1056 14.4419L84.7038 13.4621L86.7355 13.0354L87.036 12.9813L87.3606 12.9332L87.7032 12.9031L88.0519 12.8791L88.4125 12.8731L88.7792 12.8791L89.1398 12.9031L89.5005 12.9332L89.8551 12.9753L90.2037 13.0294L90.5343 13.1015L90.8409 13.1796L94.9102 14.3157L82.5039 20.1341Z" fill="url(#paint6_linear_621_2422)"/>
<path style="mix-blend-mode:screen" d="M82.5039 20.1341L77.6471 18.1566L83.7481 15.6801L75.9701 17.4774L72.1352 15.9146L76.8116 13.3239L70.7167 15.3375L67.2725 13.937L79.9673 10.1442L84.77 11.4846L80.1056 14.4419L84.7038 13.4621L86.7355 13.0354L87.036 12.9813L87.3606 12.9332L87.7032 12.9031L88.0519 12.8791L88.4125 12.8731L88.7792 12.8791L89.1398 12.9031L89.5005 12.9332L89.8551 12.9753L90.2037 13.0294L90.5343 13.1015L90.8409 13.1796L94.9102 14.3157L82.5039 20.1341Z" fill="url(#paint7_linear_621_2422)"/>
<path style="mix-blend-mode:screen" opacity="0.7" d="M82.5039 20.1341L77.6471 18.1566L83.7481 15.6801L75.9701 17.4774L72.1352 15.9146L76.8116 13.3239L70.7167 15.3375L67.2725 13.937L79.9673 10.1442L84.77 11.4846L80.1056 14.4419L84.7038 13.4621L86.7355 13.0354L87.036 12.9813L87.3606 12.9332L87.7032 12.9031L88.0519 12.8791L88.4125 12.8731L88.7792 12.8791L89.1398 12.9031L89.5005 12.9332L89.8551 12.9753L90.2037 13.0294L90.5343 13.1015L90.8409 13.1796L94.9102 14.3157L82.5039 20.1341Z" fill="url(#paint8_linear_621_2422)"/>
<path d="M82.498 20.1462L77.6413 18.1687V18.1446L83.574 15.7343L75.9703 17.4894H75.9643L72.1294 15.9266V15.9026L76.6675 13.3841L70.7228 15.3496H70.7108L67.2666 13.9491V13.919L79.9675 10.1322H79.9735L84.7761 11.4726V11.4967L80.1839 14.4119L86.7296 13.0234L87.0362 12.9693L87.3608 12.9212L87.6974 12.8912L88.046 12.8731H88.4067H88.7733L89.14 12.8912L89.5006 12.9212L89.8553 12.9693L90.1979 13.0234L90.5285 13.0895L90.841 13.1677L94.9044 14.2977V14.3278L82.504 20.1462H82.492H82.498ZM77.6834 18.1566L82.504 20.1162L94.8683 14.3217L90.841 13.1977L90.5285 13.1196L90.1979 13.0535L89.8553 12.9994L89.5006 12.9573L89.14 12.9272L88.7793 12.9092H88.4127H88.052L87.7034 12.9272L87.3608 12.9573L87.0362 13.0054L86.7296 13.0655L80.1057 14.472L80.0937 14.448L84.728 11.5087L79.9675 10.1623L67.3147 13.9371L70.7168 15.3195L76.8058 13.3059L76.8178 13.33L72.1714 15.9086L75.9703 17.4534L83.7483 15.6561L83.7603 15.6862L77.6894 18.1506L77.6834 18.1566Z" fill="white"/>
<path opacity="0.58" d="M82.498 20.1462L77.6413 18.1687V18.1446L83.574 15.7343L75.9703 17.4894H75.9643L72.1294 15.9266V15.9026L76.6675 13.3841L70.7228 15.3496H70.7108L67.2666 13.9491V13.919L79.9675 10.1322H79.9735L84.7761 11.4726V11.4967L80.1839 14.4119L86.7296 13.0234L87.0362 12.9693L87.3608 12.9212L87.6974 12.8912L88.046 12.8731H88.4067H88.7733L89.14 12.8912L89.5006 12.9212L89.8553 12.9693L90.1979 13.0234L90.5285 13.0895L90.841 13.1677L94.9044 14.2977V14.3278L82.504 20.1462H82.492H82.498ZM77.6834 18.1566L82.504 20.1162L94.8683 14.3217L90.841 13.1977L90.5285 13.1196L90.1979 13.0535L89.8553 12.9994L89.5006 12.9573L89.14 12.9272L88.7793 12.9092H88.4127H88.052L87.7034 12.9272L87.3608 12.9573L87.0362 13.0054L86.7296 13.0655L80.1057 14.472L80.0937 14.448L84.728 11.5087L79.9675 10.1623L67.3147 13.9371L70.7168 15.3195L76.8058 13.3059L76.8178 13.33L72.1714 15.9086L75.9703 17.4534L83.7483 15.6561L83.7603 15.6862L77.6894 18.1506L77.6834 18.1566Z" fill="white"/>
<path d="M77.7551 18.1987C79.7567 17.3873 81.7583 16.5698 83.7599 15.7583C83.7599 15.7583 83.7599 15.6802 83.7599 15.6742C83.7058 15.4999 82.9184 15.7824 82.7621 15.8184C81.9386 16.0108 81.1211 16.1971 80.2977 16.3895C78.8791 16.714 77.4605 17.0446 76.042 17.3692C75.7294 17.4414 75.1524 17.0567 74.8699 16.9425C74.0825 16.6239 73.3011 16.3053 72.5136 15.9867C72.4295 15.9507 72.3453 15.9206 72.2612 15.8846C72.2071 15.8605 72.1951 15.9747 72.2732 15.9326C72.4896 15.8124 72.712 15.6922 72.9284 15.566C73.7098 15.1332 74.4852 14.7004 75.2666 14.2676C75.7895 13.9791 76.3065 13.6906 76.8294 13.4021C76.8294 13.4021 76.8294 13.3239 76.8294 13.3179C76.7573 13.1496 75.8196 13.5644 75.6573 13.6245C74.7857 13.913 73.9202 14.2015 73.0486 14.49C72.3514 14.7185 71.6541 14.9469 70.9629 15.1813C70.5782 15.3075 70.2957 15.0911 69.917 14.9348C69.1416 14.6163 68.3662 14.3037 67.5908 13.9911C67.5247 13.9671 67.4585 13.937 67.3984 13.913C67.4946 13.9551 67.3323 14.0152 67.4405 13.9791C67.5667 13.9431 67.699 13.901 67.8312 13.8649C69.1957 13.4562 70.5661 13.0474 71.9306 12.6387C74.6054 11.8333 77.2862 11.0278 79.9671 10.2284C80.0452 10.2043 80.2616 10.3125 80.3397 10.3306C80.7124 10.4327 81.0851 10.5409 81.4577 10.6431C82.3113 10.8836 83.1648 11.118 84.0184 11.3584C84.2227 11.4185 84.4331 11.4726 84.6435 11.5327C84.6916 11.5447 84.7036 11.4365 84.6315 11.4846C84.5473 11.5387 84.4632 11.5928 84.379 11.6469C83.6998 12.0797 83.0145 12.5125 82.3353 12.9453C81.59 13.4201 80.8386 13.895 80.0933 14.3698C80.0933 14.3698 80.0933 14.448 80.0933 14.454C80.1654 14.6403 81.3976 14.2556 81.59 14.2196C82.4555 14.0332 83.3151 13.8529 84.1806 13.6666C85.2385 13.4442 86.2965 13.1737 87.3724 13.0174C89.8609 12.6688 92.3794 13.6966 94.7296 14.3518C94.7957 14.3698 94.8318 14.2676 94.6996 14.3277C94.5553 14.3939 94.4111 14.466 94.2668 14.5321C93.7198 14.7846 93.1788 15.043 92.6319 15.2955C90.9909 16.0649 89.3499 16.8343 87.709 17.6036C86.2724 18.2769 84.8358 18.9561 83.3932 19.6293C83.1047 19.7675 82.8102 19.9058 82.5217 20.038C82.3473 20.1222 81.5659 19.6654 81.3976 19.5992C80.1835 19.1064 78.9693 18.6135 77.7611 18.1206C77.7671 18.1206 77.7491 18.1987 77.7611 18.2047C79.0895 18.7457 80.4179 19.2867 81.7463 19.8276C81.9386 19.9058 82.3714 20.2003 82.5818 20.1041C82.9364 19.9358 83.291 19.7736 83.6397 19.6052C86.7473 18.1506 89.8488 16.69 92.9564 15.2354C93.5695 14.9469 94.1826 14.6583 94.8018 14.3698V14.2857C92.5056 13.6425 90.1133 12.6808 87.685 12.9032C86.597 13.0054 85.5271 13.2939 84.4571 13.5223C83.0206 13.8289 81.584 14.1354 80.1414 14.442C80.0692 14.46 80.1113 14.442 80.1895 14.3939C80.3337 14.3037 80.478 14.2075 80.6283 14.1174C81.1692 13.7748 81.7102 13.4321 82.2512 13.0895C83.0626 12.5726 83.8741 12.0617 84.6916 11.5447V11.4606C83.3151 11.0759 81.9386 10.6912 80.5621 10.3065C80.3097 10.2344 80.0873 10.1142 79.8348 10.1923C79.402 10.3245 78.9693 10.4508 78.5305 10.583C75.2606 11.5628 71.9907 12.5365 68.7148 13.5163C68.276 13.6425 67.8432 13.7748 67.4044 13.907V13.9911C68.0115 14.2376 68.6186 14.484 69.2257 14.7305C69.5984 14.8807 69.9711 15.031 70.3437 15.1813C70.4339 15.2174 70.6563 15.3616 70.7585 15.3316C72.171 14.8627 73.5896 14.3939 75.0021 13.925C75.5852 13.7327 76.1622 13.5403 76.7453 13.348C76.8535 13.3119 76.8535 13.3119 76.7453 13.372C76.4928 13.5103 76.2404 13.6485 75.9879 13.7928C74.7376 14.484 73.4934 15.1813 72.2432 15.8725V15.9567C73.4754 16.4616 74.7136 16.9605 75.9458 17.4654C76.1502 17.5495 76.6731 17.3211 76.8775 17.2731C77.689 17.0867 78.4944 16.9004 79.3119 16.714C80.7605 16.3774 82.2031 16.0468 83.6517 15.7102C83.7298 15.6922 83.814 15.6622 83.7358 15.6982C83.5375 15.7764 83.3391 15.8605 83.1348 15.9447C82.3473 16.2632 81.5599 16.5818 80.7725 16.9064C79.7747 17.3151 78.7709 17.7239 77.7671 18.1266C77.7551 18.1266 77.7731 18.2047 77.7671 18.2107L77.7551 18.1987Z" fill="white"/>
<path style="mix-blend-mode:screen" d="M94.3143 19.0883L92.3608 20.1702L86.6205 23.368L86.5904 23.8368L86.4882 25.7362L92.6553 22.0636L92.8417 21.9674L93.016 21.9194L93.1783 21.9073L93.3225 21.9374L93.4548 22.0095L93.569 22.1117L93.6591 22.256L93.7313 22.4303L93.7733 22.6346L93.7974 22.8631V23.1155L93.7733 23.38L93.022 29.4028L92.9859 29.6553L92.9198 29.9138L92.8357 30.1842L92.7395 30.4547L92.6253 30.7192L92.493 30.9837L92.3488 31.2361L92.1925 31.4766L92.0302 31.699L91.8619 31.8973L91.6876 32.0716L91.5133 32.2159L82.2266 39.3808L82.2566 37.3672L82.2867 35.2574L90.3231 29.5771L90.5275 27.4493L88.6882 28.6815L84.1921 31.699L83.9577 31.8372L83.7233 31.9394L83.4948 31.9995L83.2785 32.0115L83.0741 31.9815L82.8938 31.9093L82.7315 31.7951L82.5992 31.6328L82.491 31.4345L82.4129 31.1941L82.3648 30.9296L82.3528 30.623L82.5031 20.1341L94.9094 14.3157L94.3143 19.0883Z" fill="url(#paint9_linear_621_2422)"/>
<g style="mix-blend-mode:screen" opacity="0.49">
<path d="M82.2389 39.3929L82.2148 39.3809L82.275 35.2574V35.2454L90.3114 29.5712L90.5158 27.4794L84.2044 31.711L83.964 31.8553L83.7296 31.9575L83.5012 32.0176L83.2848 32.0356L83.0804 32.0056L82.8941 31.9334L82.7318 31.8132L82.5935 31.6509L82.4853 31.4466L82.4072 31.2061L82.3591 30.9356L82.3471 30.6351L82.4974 20.1402V20.1282L94.9037 14.3037L94.9277 14.3157L94.3327 19.0883V19.1003L86.6388 23.38L86.5126 25.7122L92.6556 22.0517L92.842 21.9615L93.0223 21.9074L93.1846 21.8954L93.3349 21.9254L93.4671 21.9976L93.5813 22.1058L93.6715 22.25L93.7436 22.4303L93.7917 22.6347L93.8157 22.8631V23.1156L93.7917 23.3861L93.0403 29.4089L93.0043 29.6614L92.9381 29.9258L92.854 30.1963L92.7578 30.4668L92.6436 30.7373L92.5114 31.0018L92.3671 31.2542L92.2108 31.4947L92.0485 31.7171L91.8802 31.9154L91.7059 32.0897L91.5316 32.24L82.2449 39.3989L82.2389 39.3929ZM82.305 35.2634L82.2449 39.3508L91.5076 32.2099L91.6759 32.0657L91.8442 31.8914L92.0125 31.693L92.1748 31.4706L92.3311 31.2302L92.4753 30.9777L92.6076 30.7193L92.7278 30.4488L92.8239 30.1783L92.9081 29.9138L92.9682 29.6553L93.0103 29.4089L93.7616 23.3921L93.7857 23.1216V22.8751L93.7616 22.6467L93.7135 22.4484L93.6414 22.2741L93.5513 22.1358L93.4431 22.0336L93.3168 21.9675L93.1726 21.9375L93.0163 21.9495L92.842 21.9976L92.6616 22.0877L86.4945 25.7603L86.4705 25.7483L86.6027 23.38V23.368L94.2966 19.0883L94.8857 14.3518L82.5094 20.1522L82.3591 30.6351L82.3711 30.9356L82.4192 31.2061L82.4974 31.4406L82.6055 31.6389L82.7378 31.7952L82.8941 31.9094L83.0744 31.9815L83.2727 32.0116L83.4831 31.9936L83.7115 31.9334L83.946 31.8313L84.1804 31.693L90.5158 27.4434L90.5398 27.4554L90.3355 29.5832V29.5952L82.299 35.2695L82.305 35.2634Z" fill="#231F20"/>
</g>
<path d="M88.6888 28.6817L90.5281 27.4495L90.3237 29.5773L88.6768 28.7839L88.6888 28.6817Z" fill="url(#paint10_linear_621_2422)"/>
<path d="M92.3612 20.1703L92.2169 21.5227L91.5918 21.2883L91.4416 21.2582L91.2732 21.2643L91.0989 21.3123L90.9126 21.3965L86.5908 23.8369L86.6209 23.368L92.3612 20.1703Z" fill="url(#paint11_linear_621_2422)"/>
<path d="M82.3172 33.0575L88.6766 28.7838L90.3236 29.5772L82.2871 35.2575L82.3172 33.0575Z" fill="url(#paint12_linear_621_2422)"/>
<path d="M82.3477 30.9177L82.3537 30.6232L82.3657 30.9297L82.3477 30.9177Z" fill="#88888C"/>
<path d="M84.1928 31.6991L83.9583 31.8373L83.7239 31.9395L83.4955 31.9996L83.2791 32.0116L83.0747 31.9816L82.8944 31.9095L82.7321 31.7952L82.5999 31.633L82.4917 31.4346L82.4136 31.1942L82.3655 30.9297L82.3474 30.9177V31.1581L82.3414 31.3504V31.4887V31.5728V31.5969L82.3174 33.0575L88.6768 28.7838L88.6889 28.6816L84.1928 31.6991Z" fill="url(#paint13_linear_621_2422)"/>
<path d="M84.7699 11.4846L84.7037 13.4622L80.1055 14.4419L84.7699 11.4846Z" fill="url(#paint14_linear_621_2422)"/>
<path d="M83.7477 15.6802L77.6467 18.1566L75.9697 17.4774L83.7477 15.6802Z" fill="url(#paint15_linear_621_2422)"/>
<path d="M75.97 17.4775L77.647 18.1567L75.4591 19.0463L65.1445 14.5743L67.2724 13.9371L70.7166 15.3377L72.1351 15.9147L75.97 17.4775Z" fill="url(#paint16_linear_621_2422)"/>
<path d="M72.1353 15.9146L70.7168 15.3376L76.8118 13.324L72.1353 15.9146Z" fill="url(#paint17_linear_621_2422)"/>
<path d="M71.9783 28.8981L73.1985 29.6554L73.2105 29.7817L76.1137 31.5789L76.2279 33.845L70.127 29.8658L71.9783 28.8981Z" fill="url(#paint18_linear_621_2422)"/>
<path d="M74.8515 24.2758L80.2312 27.0588L78.2176 28.1888L72.8379 25.2315L74.8515 24.2758Z" fill="url(#paint19_linear_621_2422)"/>
<path d="M82.257 37.3673L82.2269 39.3809L81.2832 38.7438L81.8362 38.3351L81.9744 38.2088L82.0947 38.0465L82.1788 37.8542L82.2329 37.6258L82.257 37.3673Z" fill="#414042"/>
<path d="M81.8364 38.335L81.2835 38.7437L80.0332 39.6814L80.1775 39.5612L81.9747 38.2087L81.8364 38.335Z" fill="#193E3E"/>
<path d="M86.5908 23.8369L90.9066 21.4025L86.5908 23.8369ZM90.9066 21.4025L91.0929 21.3184L90.9066 21.4025ZM91.0929 21.3184L91.2672 21.2703L91.0929 21.3184ZM91.2672 21.2703H91.4355H91.2672ZM91.4355 21.2643L91.5858 21.2943L91.4355 21.2643ZM88.6706 28.7898V28.6876V28.7898Z" fill="#231F20"/>
<path d="M82.3412 30.3046L82.2871 29.9619L82.1969 29.6133L82.0767 29.2587L81.9204 28.91L81.7401 28.5674L81.5237 28.2489L81.2893 27.9423L81.0429 27.6658L80.7784 27.4254L80.5079 27.227L80.2314 27.0587L78.2178 28.1888L78.4883 28.3631L78.7648 28.5734L79.0292 28.8259L79.2877 29.1084L79.5221 29.427L79.7385 29.7576L79.9309 30.1122L80.0931 30.4729L80.2194 30.8335L80.3155 31.1942L80.3696 31.5428L80.3937 31.8674L80.4358 38.7137L80.4177 38.9722L80.3696 39.2006L80.2915 39.3989L80.1773 39.5612L81.9745 38.2088L82.0948 38.0465L82.1789 37.8541L82.233 37.6257L82.257 37.3673L82.2871 35.2575L82.3172 33.0575L82.3412 31.5969V31.5728V31.4887V31.3504L82.3472 31.1581V30.9177L82.3532 30.6231L82.3412 30.3046Z" fill="url(#paint20_linear_621_2422)"/>
<path d="M92.2166 21.5228L91.5915 21.2884L91.4412 21.2583L91.2729 21.2643L91.0986 21.3124L90.9122 21.3965L86.5905 23.8369L86.4883 25.7364L92.6554 22.0638L92.8417 21.9676L93.016 21.9195L93.1783 21.9075L93.3226 21.9375L92.2166 21.5228Z" fill="url(#paint21_linear_621_2422)"/>
<path d="M71.3358 22.19L69.0997 21.0419L70.0975 29.8598L76.2226 33.851L76.1083 31.5789L73.1931 29.7756L73.1811 29.6494L72.8264 25.2074L78.2181 28.1768L78.4946 28.3511L78.7711 28.5614L79.0356 28.8139L79.2881 29.1024L79.5285 29.415L79.7449 29.7516L79.9372 30.1062L80.0995 30.4669L80.2258 30.8335L80.3219 31.1942L80.382 31.5428L80.4001 31.8674L80.4482 38.7378L80.4301 39.0022L80.382 39.2307L80.2979 39.429L80.1837 39.5853L80.0454 39.7115L79.8771 39.7897L79.6848 39.8317L79.4804 39.8257L79.258 39.7836L79.0236 39.6995L78.7832 39.5793L78.5367 39.417L68.8894 32.5647L68.703 32.4204L68.5227 32.2461L68.3424 32.0537L68.1681 31.8313L68.0058 31.5969L67.8495 31.3445L67.7112 31.086L67.585 30.8155L67.4768 30.545L67.3867 30.2745L67.3205 30.0101L67.2724 29.7576L65.1025 14.5142L75.4532 19.0042L75.7357 24.4561L71.3358 22.19Z" fill="url(#paint22_linear_621_2422)"/>
<path d="M102.982 30.5991H101.864V16.7501H102.982V30.5991Z" fill="#231F20"/>
<path d="M111.29 25.6341V28.91C111.29 29.1264 111.29 29.3668 111.296 29.6313C111.296 29.8958 111.32 30.1302 111.344 30.3346H109.961C109.991 30.1062 110.009 29.8717 110.015 29.6313C110.015 29.3849 110.021 29.1444 110.021 28.91V25.6341H106.733C106.349 25.6341 105.976 25.6341 105.609 25.6401C105.243 25.6401 104.87 25.6642 104.485 25.6942V24.5341C104.87 24.5642 105.243 24.5822 105.609 24.5822C105.976 24.5822 106.349 24.5882 106.733 24.5882H114.475C114.86 24.5882 115.233 24.5882 115.599 24.5822C115.966 24.5822 116.339 24.5582 116.723 24.5341V25.6942C116.339 25.6642 115.966 25.6461 115.599 25.6401C115.233 25.6401 114.86 25.6341 114.475 25.6341H111.29ZM113.814 18.7758H111.29C111.35 19.3047 111.542 19.7736 111.867 20.1943C112.197 20.6091 112.606 20.9637 113.093 21.2582C113.532 21.5528 114.025 21.7932 114.559 21.9795C115.1 22.1659 115.629 22.3041 116.146 22.4063C115.978 22.5746 115.828 22.7309 115.69 22.8812C115.551 23.0314 115.425 23.1817 115.311 23.332C114.926 23.2418 114.523 23.1216 114.097 22.9713C113.67 22.821 113.255 22.6287 112.84 22.3943C112.39 22.1599 111.963 21.8653 111.56 21.5227C111.157 21.1741 110.839 20.7774 110.604 20.3266C110.388 20.7052 110.124 21.0479 109.811 21.3544C109.498 21.6549 109.15 21.9254 108.765 22.1599C108.332 22.4363 107.875 22.6708 107.389 22.8631C106.902 23.0615 106.415 23.2178 105.91 23.332C105.79 23.2057 105.645 23.0555 105.477 22.8812C105.303 22.7128 105.147 22.5506 104.996 22.4063C105.645 22.268 106.259 22.0877 106.842 21.8713C107.425 21.6489 107.936 21.3845 108.38 21.0719C108.813 20.7774 109.162 20.4408 109.438 20.0561C109.715 19.6714 109.871 19.2506 109.907 18.7818H107.383C107.118 18.7818 106.884 18.7818 106.667 18.7818C106.457 18.7878 106.222 18.8058 105.97 18.8359V17.6758C106.222 17.7058 106.457 17.7239 106.667 17.7239C106.878 17.7239 107.118 17.7299 107.383 17.7299H113.802C114.055 17.7299 114.289 17.7299 114.499 17.7239C114.71 17.7239 114.95 17.6998 115.215 17.6758V18.8359C114.95 18.8058 114.716 18.7878 114.499 18.7818C114.289 18.7818 114.055 18.7818 113.802 18.7818L113.814 18.7758Z" fill="#231F20"/>
<path d="M119.386 30.5991H118.268V16.7501H119.386V30.5991Z" fill="#231F20"/>
<path d="M128.787 19.5812V20.6571C128.787 21.2762 128.853 21.8593 128.979 22.4183C129.105 22.9773 129.304 23.5002 129.568 23.9931C129.833 24.504 130.175 24.9669 130.59 25.3816C131.005 25.7964 131.498 26.157 132.069 26.4636C131.834 26.6679 131.6 26.8843 131.371 27.1007C131.143 27.3231 130.939 27.5215 130.764 27.6958C130.512 27.5575 130.235 27.3712 129.941 27.1248C129.646 26.8783 129.364 26.6078 129.087 26.3133C128.811 26.0188 128.564 25.7182 128.33 25.4057C128.101 25.0931 127.927 24.7866 127.807 24.492C127.669 24.8527 127.488 25.2073 127.26 25.5559C127.032 25.9046 126.779 26.2291 126.503 26.5357C126.226 26.8362 125.944 27.1188 125.649 27.3712C125.355 27.6237 125.078 27.834 124.826 28.0023C124.717 27.9122 124.609 27.822 124.495 27.7319C124.381 27.6417 124.267 27.5455 124.152 27.4433C124.026 27.3351 123.888 27.233 123.75 27.1188C123.605 27.0106 123.455 26.8964 123.299 26.7821C123.858 26.4576 124.363 26.0909 124.814 25.6762C125.264 25.2614 125.649 24.7805 125.962 24.2456C126.244 23.7647 126.461 23.2298 126.617 22.6287C126.767 22.0336 126.845 21.3724 126.845 20.6571V19.5812H125.391C125.174 19.5812 124.976 19.5812 124.802 19.5872C124.627 19.5872 124.435 19.6112 124.231 19.6413V17.9402C124.435 17.9703 124.627 17.9883 124.802 17.9883C124.976 17.9883 125.174 17.9943 125.391 17.9943H130.265C130.47 17.9943 130.662 17.9943 130.836 17.9883C131.011 17.9883 131.209 17.9643 131.425 17.9402V19.6413C131.209 19.6112 131.017 19.5932 130.836 19.5872C130.662 19.5872 130.47 19.5812 130.265 19.5812H128.799H128.787ZM134.912 28.363C134.912 28.6936 134.912 29.0242 134.918 29.3548C134.918 29.6854 134.942 30.01 134.972 30.3345H133.018C133.048 30.01 133.066 29.6854 133.078 29.3548C133.09 29.0302 133.09 28.6936 133.09 28.363V19.1724C133.09 18.8479 133.09 18.5233 133.078 18.1987C133.066 17.8681 133.048 17.5375 133.018 17.2069H134.972C134.942 17.5375 134.924 17.8681 134.918 18.1987C134.918 18.5233 134.912 18.8539 134.912 19.1724V28.369V28.363Z" fill="#231F20"/>
<path d="M141.782 27.4253V24.6964C140.478 24.5702 139.498 24.1735 138.831 23.5063C138.164 22.8391 137.833 22.0457 137.833 21.114C137.833 20.6031 137.947 20.1282 138.176 19.6834C138.404 19.2386 138.735 18.8479 139.168 18.5173C139.588 18.1867 140.105 17.9222 140.712 17.7299C141.319 17.5375 141.993 17.4474 142.738 17.4474C143.483 17.4474 144.156 17.5496 144.758 17.7479C145.359 17.9523 145.876 18.2168 146.308 18.5474C146.729 18.878 147.054 19.2687 147.282 19.7135C147.511 20.1583 147.625 20.6271 147.625 21.114C147.625 22.0457 147.294 22.8451 146.639 23.5183C145.984 24.1915 144.998 24.5882 143.688 24.7145V27.4314H146.639C147.024 27.4314 147.396 27.4314 147.763 27.4253C148.13 27.4253 148.502 27.4013 148.887 27.3773V29.1084C148.502 29.0783 148.13 29.0603 147.763 29.0543C147.396 29.0543 147.024 29.0483 146.639 29.0483H138.837C138.452 29.0483 138.08 29.0483 137.713 29.0543C137.346 29.0543 136.974 29.0783 136.589 29.1084V27.3773C136.974 27.4073 137.346 27.4253 137.713 27.4253C138.08 27.4253 138.452 27.4314 138.837 27.4314H141.776L141.782 27.4253ZM139.757 21.126C139.757 21.4806 139.841 21.7812 140.009 22.0336C140.177 22.2861 140.394 22.5025 140.67 22.6828C140.947 22.8511 141.265 22.9713 141.626 23.0555C141.987 23.1396 142.359 23.1817 142.744 23.1817C143.147 23.1817 143.525 23.1396 143.892 23.0555C144.253 22.9713 144.571 22.8391 144.848 22.6648C145.124 22.4905 145.341 22.2741 145.503 22.0216C145.665 21.7692 145.743 21.4686 145.743 21.126C145.743 20.8255 145.665 20.543 145.503 20.2905C145.341 20.0381 145.13 19.8157 144.866 19.6293C144.589 19.443 144.271 19.2987 143.91 19.1965C143.549 19.0944 143.159 19.0403 142.75 19.0403C142.341 19.0403 141.969 19.0944 141.602 19.2025C141.241 19.3107 140.923 19.455 140.646 19.6413C140.37 19.8277 140.159 20.0501 139.997 20.3025C139.841 20.555 139.763 20.8315 139.763 21.126H139.757Z" fill="#231F20"/>
<path d="M156.888 19.9659V19.1304C156.888 18.8358 156.888 18.5473 156.876 18.2648C156.864 17.9823 156.852 17.6938 156.834 17.3993H158.685C158.655 17.6938 158.643 17.9823 158.643 18.2648V25.051H156.894V21.715H155.643V24.1254H150.474V19.2145C150.474 18.9801 150.474 18.7457 150.468 18.5173C150.468 18.2889 150.444 18.0364 150.414 17.7599H155.704C155.674 18.0364 155.655 18.2889 155.649 18.5173C155.649 18.7457 155.643 18.9801 155.643 19.2145V19.9659H156.894H156.888ZM161.312 29.0602C161.312 29.2826 161.312 29.5171 161.324 29.7515C161.336 29.9859 161.354 30.2083 161.384 30.4247H159.4C159.43 30.2203 159.448 29.9919 159.448 29.7515C159.448 29.505 159.454 29.2766 159.454 29.0602V27.1488H153.401C153.107 27.1488 152.836 27.1488 152.596 27.1548C152.35 27.1548 152.079 27.1789 151.791 27.2089V25.5018C152.085 25.5319 152.356 25.5439 152.596 25.5439H161.366C161.336 25.7423 161.318 25.9286 161.318 26.1089C161.318 26.2893 161.312 26.4756 161.312 26.6619V29.0542V29.0602ZM153.864 22.5505V19.3167H152.277V22.5505H153.864ZM161.312 18.938V25.051H159.563V18.938C159.563 18.6435 159.563 18.355 159.557 18.0725C159.557 17.79 159.532 17.4954 159.508 17.2069H161.372C161.342 17.5014 161.324 17.79 161.324 18.0725C161.324 18.355 161.318 18.6435 161.318 18.938H161.312Z" fill="#231F20"/>
<path d="M173.087 28.8679H165.303C164.918 28.8679 164.545 28.8679 164.179 28.8739C163.812 28.8739 163.439 28.8979 163.055 28.928V27.1969C163.439 27.2269 163.812 27.245 164.179 27.251C164.545 27.251 164.918 27.251 165.303 27.251H173.087C173.471 27.251 173.844 27.251 174.211 27.251C174.577 27.251 174.95 27.2269 175.335 27.1969V28.928C174.95 28.8979 174.577 28.8799 174.211 28.8739C173.844 28.8739 173.471 28.8679 173.087 28.8679ZM170.196 18.8058C170.196 19.4008 170.322 19.9659 170.586 20.4948C170.845 21.0238 171.193 21.5046 171.638 21.9374C172.077 22.3702 172.582 22.7368 173.141 23.0434C173.706 23.3499 174.289 23.5723 174.896 23.7106C174.668 23.939 174.451 24.1734 174.241 24.4259C174.03 24.6783 173.85 24.8887 173.706 25.063C173.297 24.9368 172.876 24.7625 172.444 24.5401C172.011 24.3177 171.596 24.0592 171.193 23.7527C170.791 23.4581 170.418 23.1275 170.063 22.7669C169.709 22.4062 169.414 22.0155 169.18 21.6068C168.729 22.4483 168.092 23.1636 167.262 23.7527C166.433 24.3417 165.573 24.7805 164.684 25.0751C164.533 24.9007 164.353 24.6904 164.137 24.4439C163.92 24.1975 163.686 23.945 163.433 23.6805C164.077 23.5062 164.69 23.2658 165.261 22.9653C165.832 22.6647 166.337 22.3101 166.769 21.8893C167.202 21.4806 167.539 21.0117 167.791 20.4948C168.044 19.9779 168.164 19.4129 168.164 18.8058C168.164 18.6194 168.164 18.4151 168.152 18.2047C168.14 17.9883 168.128 17.7839 168.11 17.5856H170.256C170.226 17.7719 170.208 17.9763 170.208 18.2047C170.208 18.4331 170.202 18.6315 170.202 18.8058H170.196Z" fill="#231F20"/>
<path d="M181.436 27.4133V26.1511C181.436 25.9467 181.436 25.7303 181.43 25.5019C181.43 25.2795 181.406 25.0631 181.375 24.8527H183.419C183.389 25.0511 183.371 25.2675 183.365 25.5079C183.365 25.7483 183.359 25.9647 183.359 26.145V27.4073H186.298C186.683 27.4073 187.056 27.4073 187.422 27.4013C187.789 27.4013 188.168 27.3773 188.546 27.3472V29.0543C188.168 29.0242 187.789 29.0062 187.422 29.0002C187.056 29.0002 186.683 28.9942 186.298 28.9942H178.526C178.142 28.9942 177.769 28.9942 177.402 29.0002C177.036 29.0002 176.663 29.0242 176.278 29.0543V27.3472C176.663 27.3773 177.036 27.3953 177.402 27.4013C177.769 27.4013 178.142 27.4073 178.526 27.4073H181.436V27.4133ZM183.479 17.5977C183.449 17.772 183.431 17.9643 183.425 18.1627C183.425 18.361 183.419 18.5534 183.419 18.7277C183.419 19.3228 183.551 19.8878 183.81 20.4167C184.068 20.9457 184.417 21.4265 184.862 21.8593C185.301 22.2921 185.805 22.6588 186.364 22.9653C186.929 23.2779 187.513 23.4943 188.12 23.6325C187.897 23.8609 187.675 24.0954 187.464 24.3478C187.254 24.6003 187.074 24.8106 186.929 24.985C186.521 24.8587 186.094 24.6844 185.667 24.462C185.234 24.2396 184.82 23.9811 184.417 23.6746C184.014 23.3801 183.636 23.0495 183.287 22.6888C182.932 22.3222 182.644 21.9375 182.403 21.5287C181.953 22.3702 181.315 23.0855 180.486 23.6746C179.656 24.2637 178.797 24.7024 177.907 24.997C177.763 24.8227 177.577 24.6123 177.366 24.3658C177.15 24.1194 176.915 23.8669 176.663 23.6025C177.312 23.4282 177.919 23.1877 178.49 22.8932C179.061 22.5926 179.566 22.232 179.999 21.8173C180.432 21.4085 180.768 20.9397 181.021 20.4227C181.273 19.9058 181.394 19.3408 181.394 18.7337C181.394 18.5594 181.394 18.3731 181.375 18.1747C181.363 17.9823 181.351 17.79 181.333 17.6037H183.479V17.5977Z" fill="#231F20"/>
<path d="M199.528 28.8198H191.744C191.365 28.8198 190.987 28.8198 190.62 28.8258C190.253 28.8258 189.881 28.8499 189.496 28.8799V27.1608C189.881 27.1909 190.253 27.2089 190.62 27.2089C190.987 27.2089 191.365 27.2149 191.744 27.2149H199.528C199.913 27.2149 200.286 27.2149 200.652 27.2089C201.019 27.2089 201.392 27.1849 201.776 27.1608V28.8799C201.392 28.8499 201.019 28.8319 200.652 28.8258C200.286 28.8258 199.913 28.8198 199.528 28.8198ZM192.171 19.3288C191.906 19.3288 191.672 19.3288 191.456 19.3348C191.245 19.3348 191.011 19.3588 190.758 19.3889V17.6517C191.011 17.6818 191.245 17.6998 191.456 17.6998C191.666 17.7058 191.906 17.7058 192.171 17.7058H199.089C199.342 17.7058 199.576 17.7058 199.787 17.6998C199.997 17.6998 200.231 17.6818 200.496 17.6517V19.3889C200.231 19.3588 199.985 19.3408 199.763 19.3348C199.534 19.3348 199.294 19.3288 199.041 19.3288L198.999 23.338H199.378C199.636 23.338 199.865 23.338 200.075 23.332C200.286 23.332 200.526 23.3139 200.79 23.2779V24.997C200.526 24.9669 200.28 24.9489 200.045 24.9429C199.817 24.9429 199.57 24.9368 199.318 24.9368H191.87C191.606 24.9368 191.365 24.9368 191.155 24.9429C190.945 24.9429 190.71 24.9669 190.458 24.997V23.2779C190.71 23.3079 190.945 23.3259 191.155 23.332C191.365 23.338 191.606 23.338 191.87 23.338H192.207L192.165 19.3288H192.171ZM194.022 19.3288L194.064 23.338H197.196L197.238 19.3288H194.022Z" fill="#231F20"/>
<path d="M212.752 28.8198H204.968C204.583 28.8198 204.21 28.8198 203.844 28.8258C203.477 28.8258 203.104 28.8499 202.72 28.8799V27.1488C203.104 27.1789 203.477 27.1969 203.844 27.2029C204.21 27.2029 204.583 27.2089 204.968 27.2089H212.752C213.13 27.2089 213.509 27.2089 213.876 27.2029C214.242 27.2029 214.621 27.1789 215 27.1488V28.8799C214.621 28.8499 214.242 28.8318 213.876 28.8258C213.509 28.8258 213.136 28.8198 212.752 28.8198ZM211.766 19.2987H206.182V20.8735H213.365V22.4604H206.182V24.0051L211.94 24.0232H212.704C212.974 24.0232 213.275 24.0051 213.599 23.9811V25.6521C213.275 25.6341 212.98 25.6221 212.704 25.616C212.427 25.616 212.175 25.61 211.94 25.61H204.319V19.2145C204.319 18.9681 204.319 18.7216 204.307 18.4632C204.295 18.2107 204.277 17.9522 204.246 17.6998H212.529C212.806 17.6998 213.1 17.6878 213.425 17.6577V19.3468C213.1 19.3287 212.806 19.3167 212.529 19.3107C212.253 19.3107 212 19.3047 211.766 19.3047V19.2987Z" fill="#231F20"/>
</g>
<defs>
<linearGradient id="paint0_linear_621_2422" x1="75.2489" y1="37.3732" x2="70.308" y2="24.9609" gradientUnits="userSpaceOnUse">
<stop stop-color="#367AAD"/>
<stop offset="0.69" stop-color="#2E8989"/>
<stop offset="0.98" stop-color="#255E5F"/>
</linearGradient>
<linearGradient id="paint1_linear_621_2422" x1="72.8203" y1="39.9158" x2="72.8203" y2="14.5983" gradientUnits="userSpaceOnUse">
<stop stop-color="#2C5698"/>
<stop offset="0.4" stop-color="#44A79D"/>
<stop offset="0.6" stop-color="#43B0A3"/>
<stop offset="1" stop-color="#7CC249"/>
</linearGradient>
<linearGradient id="paint2_linear_621_2422" x1="71.6661" y1="36.6039" x2="80.1053" y2="20.0501" gradientUnits="userSpaceOnUse">
<stop stop-color="#D5D7D8"/>
<stop offset="0.72" stop-color="#5C5D60"/>
<stop offset="0.84" stop-color="white"/>
</linearGradient>
<linearGradient id="paint3_linear_621_2422" x1="76.9316" y1="30.6232" x2="76.9316" y2="18.1567" gradientUnits="userSpaceOnUse">
<stop stop-color="#6E6F72"/>
<stop offset="0.5" stop-color="#4C4C4E"/>
<stop offset="0.54" stop-color="#525355"/>
<stop offset="0.67" stop-color="#626265"/>
<stop offset="0.81" stop-color="#6B6C6F"/>
<stop offset="1" stop-color="#6E6F72"/>
</linearGradient>
<linearGradient id="paint4_linear_621_2422" x1="76.9316" y1="18.1567" x2="76.9316" y2="30.6232" gradientUnits="userSpaceOnUse">
<stop stop-color="white"/>
<stop offset="0.2" stop-color="white"/>
<stop offset="0.34" stop-color="white"/>
<stop offset="0.35" stop-color="white"/>
<stop offset="0.51" stop-color="white"/>
<stop offset="0.52" stop-color="#E1E2E1"/>
<stop offset="0.55" stop-color="#B8B9B8"/>
<stop offset="0.57" stop-color="#939393"/>
<stop offset="0.6" stop-color="#727372"/>
<stop offset="0.63" stop-color="#575857"/>
<stop offset="0.66" stop-color="#414241"/>
<stop offset="0.7" stop-color="#303130"/>
<stop offset="0.75" stop-color="#242524"/>
<stop offset="0.81" stop-color="#1D1E1D"/>
<stop offset="1" stop-color="#1C1D1C"/>
</linearGradient>
<linearGradient id="paint5_linear_621_2422" x1="78.6988" y1="28.832" x2="75.4349" y2="16.5879" gradientUnits="userSpaceOnUse">
<stop stop-color="#35927B"/>
<stop offset="0.16" stop-color="#006664"/>
<stop offset="0.22" stop-color="#008B95"/>
<stop offset="0.51" stop-color="#006060"/>
<stop offset="0.98" stop-color="#528142"/>
</linearGradient>
<linearGradient id="paint6_linear_621_2422" x1="77.8575" y1="9.12834" x2="89.5546" y2="27.2209" gradientUnits="userSpaceOnUse">
<stop stop-color="white"/>
<stop offset="0.62" stop-color="#A9AAAD"/>
<stop offset="0.63" stop-color="white"/>
<stop offset="0.98" stop-color="#E6E7E8"/>
</linearGradient>
<linearGradient id="paint7_linear_621_2422" x1="81.0913" y1="20.1341" x2="81.0913" y2="10.1442" gradientUnits="userSpaceOnUse">
<stop stop-color="#9FA0A4"/>
<stop offset="0.5" stop-color="#828286"/>
<stop offset="0.51" stop-color="#838387"/>
<stop offset="0.64" stop-color="#929397"/>
<stop offset="0.8" stop-color="#9C9DA1"/>
<stop offset="1" stop-color="#9FA0A4"/>
</linearGradient>
<linearGradient id="paint8_linear_621_2422" x1="81.0913" y1="10.1442" x2="81.0913" y2="20.1341" gradientUnits="userSpaceOnUse">
<stop stop-color="white"/>
<stop offset="0.2" stop-color="white"/>
<stop offset="0.34" stop-color="white"/>
<stop offset="0.35" stop-color="white"/>
<stop offset="0.51" stop-color="white"/>
<stop offset="0.52" stop-color="#E1E2E1"/>
<stop offset="0.55" stop-color="#B8B9B8"/>
<stop offset="0.57" stop-color="#939393"/>
<stop offset="0.6" stop-color="#727372"/>
<stop offset="0.63" stop-color="#575857"/>
<stop offset="0.66" stop-color="#414241"/>
<stop offset="0.7" stop-color="#303130"/>
<stop offset="0.75" stop-color="#242524"/>
<stop offset="0.81" stop-color="#1D1E1D"/>
<stop offset="1" stop-color="#1C1D1C"/>
</linearGradient>
<linearGradient id="paint9_linear_621_2422" x1="83.585" y1="18.7456" x2="92.1925" y2="32.7448" gradientUnits="userSpaceOnUse">
<stop stop-color="white"/>
<stop offset="0.63" stop-color="#B6B6B9"/>
<stop offset="0.71" stop-color="#808285"/>
<stop offset="0.98" stop-color="#D1D3D4"/>
</linearGradient>
<linearGradient id="paint10_linear_621_2422" x1="89.903" y1="25.1593" x2="89.4582" y2="29.5893" gradientUnits="userSpaceOnUse">
<stop stop-color="#8A8B8E"/>
<stop offset="0.17" stop-color="#848488"/>
<stop offset="0.78" stop-color="#27292A"/>
</linearGradient>
<linearGradient id="paint11_linear_621_2422" x1="90.9366" y1="24.3057" x2="88.8809" y2="21.0599" gradientUnits="userSpaceOnUse">
<stop stop-color="#8A8B8E"/>
<stop offset="0.17" stop-color="#848488"/>
<stop offset="0.84" stop-color="#27292A"/>
<stop offset="1" stop-color="white"/>
</linearGradient>
<linearGradient id="paint12_linear_621_2422" x1="86.116" y1="32.1318" x2="84.1685" y2="29.2106" gradientUnits="userSpaceOnUse">
<stop stop-color="#4A4C4E"/>
<stop offset="0.49" stop-color="#131517"/>
<stop offset="1" stop-color="white"/>
</linearGradient>
<linearGradient id="paint13_linear_621_2422" x1="85.7676" y1="31.11" x2="83.3873" y2="28.9461" gradientUnits="userSpaceOnUse">
<stop offset="0.84" stop-color="#27292A"/>
<stop offset="1" stop-color="white"/>
</linearGradient>
<linearGradient id="paint14_linear_621_2422" x1="82.4918" y1="14.8928" x2="82.3836" y2="10.7814" gradientUnits="userSpaceOnUse">
<stop stop-color="#8A8B8E"/>
<stop offset="0.17" stop-color="#848488"/>
<stop offset="0.22" stop-color="#737477"/>
<stop offset="0.31" stop-color="#57585B"/>
<stop offset="0.42" stop-color="#424345"/>
<stop offset="0.53" stop-color="#323436"/>
<stop offset="0.66" stop-color="#292B2C"/>
<stop offset="0.84" stop-color="#27292A"/>
<stop offset="1" stop-color="white"/>
</linearGradient>
<linearGradient id="paint15_linear_621_2422" x1="75.2124" y1="16.9184" x2="82.9904" y2="16.9184" gradientUnits="userSpaceOnUse">
<stop stop-color="#848488"/>
<stop offset="0.36" stop-color="#27292A"/>
</linearGradient>
<linearGradient id="paint16_linear_621_2422" x1="78.5607" y1="19.6534" x2="65.2287" y2="13.5344" gradientUnits="userSpaceOnUse">
<stop stop-color="#528142"/>
<stop offset="0.98" stop-color="#7AB74A"/>
</linearGradient>
<linearGradient id="paint17_linear_621_2422" x1="68.8775" y1="14.6223" x2="74.9664" y2="14.6223" gradientUnits="userSpaceOnUse">
<stop stop-color="#8A8B8E"/>
<stop offset="0.04" stop-color="#848488"/>
<stop offset="0.61" stop-color="#27292A"/>
</linearGradient>
<linearGradient id="paint18_linear_621_2422" x1="77.2017" y1="33.8269" x2="67.0013" y2="26.073" gradientUnits="userSpaceOnUse">
<stop stop-color="#263E8E"/>
<stop offset="0.62" stop-color="#44A79D"/>
<stop offset="0.7" stop-color="#2768A2"/>
<stop offset="0.98" stop-color="#337FB7"/>
</linearGradient>
<linearGradient id="paint19_linear_621_2422" x1="76.5947" y1="26.2353" x2="79.6481" y2="31.0019" gradientUnits="userSpaceOnUse">
<stop stop-color="#245C5D"/>
<stop offset="0.51" stop-color="#479A92"/>
<stop offset="0.79" stop-color="#46A097"/>
</linearGradient>
<linearGradient id="paint20_linear_621_2422" x1="74.1424" y1="25.568" x2="82.0346" y2="35.3657" gradientUnits="userSpaceOnUse">
<stop offset="0.03" stop-color="#6CBFCE"/>
<stop offset="0.41" stop-color="#44A79D"/>
<stop offset="0.76" stop-color="#2B5290"/>
<stop offset="0.98" stop-color="#2E5C90"/>
</linearGradient>
<linearGradient id="paint21_linear_621_2422" x1="88.9467" y1="22.5867" x2="91.1106" y2="25.3998" gradientUnits="userSpaceOnUse">
<stop stop-color="#8A8B8E"/>
<stop offset="0.42" stop-color="#78797C"/>
<stop offset="0.53" stop-color="#848488"/>
<stop offset="0.55" stop-color="white"/>
</linearGradient>
<linearGradient id="paint22_linear_621_2422" x1="72.7723" y1="39.8317" x2="72.7723" y2="14.5142" gradientUnits="userSpaceOnUse">
<stop stop-color="#2C5698"/>
<stop offset="0.4" stop-color="#44A79D"/>
<stop offset="0.6" stop-color="#43B0A3"/>
<stop offset="1" stop-color="#7CC249"/>
</linearGradient>
<clipPath id="clip0_621_2422">
<rect width="150" height="29.9459" fill="white" transform="translate(65 10)"/>
</clipPath>
</defs>
</svg>
