<svg width="280" height="51" viewBox="0 0 280 51" fill="none" xmlns="http://www.w3.org/2000/svg">
<g clip-path="url(#clip0_621_2305)">
<path d="M115 43.2237L115.318 43.0332C115.54 43.4445 115.799 43.6496 116.091 43.6496C116.216 43.6496 116.334 43.6204 116.444 43.5621C116.555 43.5038 116.638 43.4257 116.695 43.3279C116.752 43.23 116.782 43.1259 116.782 43.0155C116.782 42.8906 116.739 42.7677 116.654 42.6479C116.538 42.4824 116.324 42.2825 116.015 42.0493C115.704 41.8139 115.51 41.6442 115.434 41.5391C115.302 41.3631 115.236 41.1726 115.236 40.9685C115.236 40.8061 115.275 40.6582 115.353 40.5249C115.431 40.3917 115.54 40.2865 115.681 40.2094C115.823 40.1324 115.976 40.0939 116.141 40.0939C116.317 40.0939 116.482 40.1376 116.635 40.224C116.788 40.3115 116.949 40.4718 117.121 40.7051L116.817 40.9362C116.676 40.7498 116.557 40.628 116.458 40.5687C116.359 40.5093 116.25 40.4802 116.134 40.4802C115.983 40.4802 115.86 40.526 115.765 40.6176C115.669 40.7092 115.622 40.8217 115.622 40.955C115.622 41.0362 115.638 41.1143 115.673 41.1913C115.706 41.2673 115.768 41.3506 115.858 41.4402C115.907 41.487 116.067 41.612 116.34 41.8129C116.663 42.0513 116.885 42.2637 117.004 42.4491C117.124 42.6355 117.184 42.8218 117.184 43.0092C117.184 43.28 117.081 43.5153 116.876 43.7141C116.671 43.9141 116.421 44.013 116.127 44.013C115.9 44.013 115.694 43.9526 115.51 43.8318C115.326 43.711 115.156 43.508 115 43.2248V43.2237Z" fill="#ACADAE"/>
<path d="M117.609 41.159H117.964V42.448C117.964 42.7625 117.981 42.979 118.016 43.0977C118.067 43.2664 118.163 43.4007 118.306 43.4986C118.449 43.5965 118.619 43.6454 118.818 43.6454C119.017 43.6454 119.185 43.5975 119.322 43.5017C119.461 43.4059 119.555 43.281 119.608 43.1248C119.643 43.0186 119.661 42.7927 119.661 42.448V41.159H120.023V42.5136C120.023 42.8937 119.978 43.181 119.89 43.3736C119.801 43.5663 119.667 43.7172 119.489 43.8266C119.311 43.9359 119.087 43.99 118.818 43.99C118.55 43.99 118.325 43.9359 118.145 43.8266C117.964 43.7172 117.83 43.5652 117.742 43.3695C117.653 43.1737 117.608 42.8801 117.608 42.4876V41.158L117.609 41.159Z" fill="#ACADAE"/>
<path d="M120.558 41.159H120.913V41.6661C121.053 41.4734 121.215 41.3287 121.397 41.2319C121.579 41.1351 121.783 41.0872 122.008 41.0872C122.4 41.0872 122.735 41.2288 123.014 41.5109C123.293 41.7931 123.432 42.1336 123.432 42.5303C123.432 42.927 123.294 43.281 123.018 43.5642C122.742 43.8474 122.409 43.989 122.018 43.989C121.799 43.989 121.597 43.9432 121.412 43.8516C121.228 43.7599 121.062 43.6246 120.914 43.4434V44.9271H120.559V41.158L120.558 41.159ZM121.978 41.4308C121.671 41.4308 121.412 41.538 121.202 41.7525C120.992 41.967 120.887 42.2335 120.887 42.5532C120.887 42.7625 120.933 42.9509 121.027 43.1186C121.121 43.2862 121.255 43.4184 121.429 43.5163C121.604 43.6142 121.788 43.6631 121.982 43.6631C122.176 43.6631 122.352 43.6142 122.519 43.5153C122.687 43.4163 122.821 43.2779 122.92 43.1008C123.02 42.9238 123.069 42.7375 123.069 42.5438C123.069 42.3501 123.02 42.1617 122.921 41.9868C122.822 41.8108 122.69 41.6744 122.522 41.5776C122.356 41.4807 122.174 41.4318 121.976 41.4318L121.978 41.4308Z" fill="#ACADAE"/>
<path d="M123.842 41.159H124.197V41.6661C124.337 41.4734 124.499 41.3287 124.681 41.2319C124.863 41.1351 125.067 41.0872 125.292 41.0872C125.684 41.0872 126.019 41.2288 126.298 41.5109C126.577 41.7931 126.717 42.1336 126.717 42.5303C126.717 42.927 126.578 43.281 126.302 43.5642C126.026 43.8474 125.693 43.989 125.303 43.989C125.083 43.989 124.881 43.9432 124.697 43.8516C124.512 43.7599 124.346 43.6246 124.198 43.4434V44.9271H123.843V41.158L123.842 41.159ZM125.262 41.4308C124.955 41.4308 124.697 41.538 124.486 41.7525C124.276 41.967 124.171 42.2335 124.171 42.5532C124.171 42.7625 124.218 42.9509 124.311 43.1186C124.405 43.2862 124.539 43.4184 124.713 43.5163C124.888 43.6142 125.073 43.6631 125.266 43.6631C125.46 43.6631 125.636 43.6142 125.803 43.5153C125.971 43.4163 126.105 43.2779 126.204 43.1008C126.304 42.9238 126.353 42.7375 126.353 42.5438C126.353 42.3501 126.304 42.1617 126.205 41.9868C126.106 41.8108 125.974 41.6744 125.807 41.5776C125.64 41.4807 125.458 41.4318 125.26 41.4318L125.262 41.4308Z" fill="#ACADAE"/>
<path d="M127.367 41.5526C127.647 41.2434 128.001 41.0883 128.427 41.0883C128.854 41.0883 129.205 41.2424 129.484 41.5495C129.738 41.8306 129.865 42.1628 129.865 42.5459C129.865 42.9291 129.731 43.2685 129.462 43.557C129.194 43.8454 128.849 43.9891 128.426 43.9891C128.004 43.9891 127.657 43.8454 127.388 43.557C127.12 43.2685 126.985 42.9312 126.985 42.5459C126.985 42.1607 127.112 41.8327 127.366 41.5516L127.367 41.5526ZM128.425 41.436C128.13 41.436 127.877 41.5453 127.664 41.763C127.452 41.9816 127.346 42.245 127.346 42.5543C127.346 42.7542 127.394 42.9395 127.49 43.1124C127.587 43.2852 127.717 43.4185 127.883 43.5122C128.047 43.6059 128.229 43.6527 128.425 43.6527C128.622 43.6527 128.803 43.6059 128.968 43.5122C129.132 43.4185 129.264 43.2852 129.36 43.1124C129.457 42.9395 129.505 42.7542 129.505 42.5543C129.505 42.245 129.399 41.9806 129.185 41.763C128.972 41.5443 128.719 41.436 128.425 41.436Z" fill="#ACADAE"/>
<path d="M130.128 41.1591H130.49V41.562C130.599 41.4027 130.713 41.284 130.833 41.2059C130.953 41.1268 131.078 41.0883 131.209 41.0883C131.307 41.0883 131.412 41.1195 131.523 41.182L131.338 41.4808C131.264 41.4485 131.2 41.4329 131.15 41.4329C131.032 41.4329 130.918 41.4818 130.808 41.5787C130.697 41.6755 130.614 41.8265 130.557 42.0316C130.513 42.1888 130.491 42.5064 130.491 42.9853V43.9193H130.129V41.1591H130.128Z" fill="#ACADAE"/>
<path d="M131.875 40.1345H132.23V41.1591H132.793V41.4662H132.23V43.9193H131.875V41.4662H131.391V41.1591H131.875V40.1345Z" fill="#ACADAE"/>
<path d="M133.189 40.0231C133.27 40.0231 133.339 40.0522 133.396 40.1095C133.453 40.1668 133.481 40.2365 133.481 40.3177C133.481 40.3989 133.452 40.4656 133.396 40.5229C133.339 40.5801 133.27 40.6093 133.189 40.6093C133.108 40.6093 133.041 40.5801 132.985 40.5229C132.928 40.4656 132.899 40.3969 132.899 40.3177C132.899 40.2386 132.928 40.1668 132.985 40.1095C133.042 40.0522 133.11 40.0231 133.189 40.0231ZM133.013 41.159H133.368V43.9193H133.013V41.159Z" fill="#ACADAE"/>
<path d="M133.846 41.1591H134.201V41.6536C134.342 41.4641 134.5 41.3225 134.672 41.2288C134.845 41.1351 135.033 41.0883 135.236 41.0883C135.439 41.0883 135.625 41.1403 135.784 41.2455C135.944 41.3506 136.062 41.4912 136.138 41.6692C136.214 41.8473 136.253 42.1232 136.253 42.4991V43.9193H135.898V42.6032C135.898 42.2856 135.884 42.0732 135.858 41.967C135.817 41.7848 135.739 41.6474 135.622 41.5547C135.505 41.462 135.353 41.4162 135.165 41.4162C134.95 41.4162 134.758 41.487 134.588 41.6297C134.418 41.7713 134.306 41.9473 134.252 42.1576C134.217 42.295 134.201 42.5449 134.201 42.9083V43.9203H133.846V41.1601V41.1591Z" fill="#ACADAE"/>
<path d="M139.134 41.159H139.489V43.358C139.489 43.7453 139.455 44.0286 139.388 44.2076C139.295 44.4617 139.134 44.6564 138.904 44.7938C138.674 44.9313 138.398 44.999 138.074 44.999C137.838 44.999 137.624 44.9656 137.436 44.899C137.247 44.8324 137.093 44.7418 136.976 44.6293C136.857 44.5169 136.749 44.3513 136.649 44.1348H137.034C137.139 44.317 137.275 44.4523 137.44 44.5408C137.606 44.6283 137.812 44.6731 138.057 44.6731C138.303 44.6731 138.504 44.6283 138.671 44.5377C138.837 44.4471 138.956 44.3336 139.028 44.1972C139.099 44.0608 139.134 43.8401 139.134 43.5361V43.3945C139.001 43.5631 138.837 43.6933 138.644 43.7839C138.451 43.8745 138.246 43.9192 138.029 43.9192C137.775 43.9192 137.537 43.8568 137.313 43.7308C137.089 43.6048 136.917 43.4351 136.796 43.2227C136.674 43.0092 136.612 42.7749 136.612 42.5199C136.612 42.2648 136.676 42.0263 136.803 41.8056C136.93 41.5848 137.106 41.4099 137.33 41.2819C137.554 41.1538 137.791 41.0892 138.04 41.0892C138.246 41.0892 138.439 41.1319 138.618 41.2173C138.797 41.3027 138.969 41.4432 139.134 41.64V41.1611V41.159ZM138.087 41.4308C137.886 41.4308 137.698 41.4797 137.526 41.5765C137.354 41.6734 137.218 41.8087 137.12 41.9795C137.023 42.1513 136.974 42.3366 136.974 42.5365C136.974 42.8395 137.075 43.0894 137.278 43.2872C137.481 43.485 137.743 43.584 138.067 43.584C138.391 43.584 138.656 43.4861 138.854 43.2893C139.053 43.0936 139.152 42.8353 139.152 42.5157C139.152 42.3074 139.106 42.1221 139.014 41.9586C138.923 41.7952 138.794 41.6661 138.626 41.5713C138.458 41.4766 138.278 41.4297 138.086 41.4297L138.087 41.4308Z" fill="#ACADAE"/>
<path d="M140.934 40.1876H141.363L142.317 41.7265L143.258 40.1876H143.689L142.507 42.1357V43.9193H142.139V42.1357L140.935 40.1876H140.934Z" fill="#ACADAE"/>
<path d="M144.23 41.5526C144.509 41.2434 144.863 41.0883 145.29 41.0883C145.717 41.0883 146.068 41.2424 146.347 41.5495C146.601 41.8306 146.728 42.1628 146.728 42.5459C146.728 42.9291 146.593 43.2685 146.325 43.557C146.056 43.8454 145.711 43.9891 145.289 43.9891C144.866 43.9891 144.519 43.8454 144.251 43.557C143.982 43.2685 143.848 42.9312 143.848 42.5459C143.848 42.1607 143.975 41.8327 144.229 41.5516L144.23 41.5526ZM145.288 41.436C144.992 41.436 144.739 41.5453 144.527 41.763C144.314 41.9816 144.208 42.245 144.208 42.5543C144.208 42.7542 144.256 42.9395 144.353 43.1124C144.449 43.2852 144.58 43.4185 144.745 43.5122C144.91 43.6059 145.091 43.6527 145.288 43.6527C145.484 43.6527 145.666 43.6059 145.83 43.5122C145.995 43.4185 146.126 43.2852 146.223 43.1124C146.319 42.9395 146.367 42.7542 146.367 42.5543C146.367 42.245 146.261 41.9806 146.048 41.763C145.834 41.5443 145.581 41.436 145.288 41.436V41.436Z" fill="#ACADAE"/>
<path d="M147.079 41.159H147.434V42.448C147.434 42.7625 147.451 42.979 147.485 43.0977C147.536 43.2664 147.633 43.4007 147.776 43.4986C147.918 43.5965 148.089 43.6454 148.288 43.6454C148.487 43.6454 148.655 43.5975 148.792 43.5017C148.93 43.4059 149.025 43.281 149.077 43.1248C149.113 43.0186 149.13 42.7927 149.13 42.448V41.159H149.493V42.5136C149.493 42.8937 149.448 43.181 149.359 43.3736C149.271 43.5663 149.137 43.7172 148.959 43.8266C148.78 43.9359 148.557 43.99 148.288 43.99C148.019 43.99 147.794 43.9359 147.614 43.8266C147.434 43.7172 147.3 43.5652 147.211 43.3695C147.123 43.1737 147.078 42.8801 147.078 42.4876V41.158L147.079 41.159Z" fill="#ACADAE"/>
<path d="M149.889 41.1591H150.251V41.562C150.359 41.4027 150.474 41.284 150.594 41.2059C150.713 41.1268 150.838 41.0883 150.969 41.0883C151.067 41.0883 151.172 41.1195 151.284 41.182L151.099 41.4808C151.025 41.4485 150.961 41.4329 150.911 41.4329C150.792 41.4329 150.679 41.4818 150.569 41.5787C150.458 41.6755 150.375 41.8265 150.318 42.0316C150.274 42.1888 150.252 42.5064 150.252 42.9853V43.9193H149.89V41.1591H149.889Z" fill="#ACADAE"/>
<path d="M152.279 40.1876H152.685L153.922 43.0707L155.179 40.1876H155.585L153.962 43.9193H153.881L152.28 40.1876H152.279Z" fill="#ACADAE"/>
<path d="M156.016 40.0231C156.097 40.0231 156.166 40.0522 156.223 40.1095C156.28 40.1668 156.309 40.2365 156.309 40.3177C156.309 40.3989 156.279 40.4656 156.223 40.5229C156.166 40.5801 156.097 40.6093 156.016 40.6093C155.935 40.6093 155.868 40.5801 155.812 40.5229C155.755 40.4656 155.727 40.3969 155.727 40.3177C155.727 40.2386 155.755 40.1668 155.812 40.1095C155.869 40.0522 155.937 40.0231 156.016 40.0231ZM155.84 41.159H156.195V43.9193H155.84V41.159Z" fill="#ACADAE"/>
<path d="M157.293 41.0883C157.547 41.0883 157.803 41.2122 158.06 41.461L157.832 41.6974C157.643 41.5131 157.456 41.4204 157.275 41.4204C157.16 41.4204 157.061 41.4589 156.978 41.5349C156.896 41.6109 156.856 41.6994 156.856 41.8015C156.856 41.891 156.89 41.9764 156.958 42.0576C157.025 42.1409 157.168 42.2377 157.385 42.3492C157.649 42.4866 157.828 42.6178 157.924 42.7448C158.017 42.8729 158.063 43.0176 158.063 43.179C158.063 43.406 157.984 43.5976 157.825 43.7548C157.666 43.912 157.467 43.9911 157.228 43.9911C157.069 43.9911 156.917 43.9568 156.772 43.887C156.628 43.8173 156.508 43.7225 156.413 43.6007L156.636 43.3466C156.817 43.5517 157.01 43.6538 157.213 43.6538C157.355 43.6538 157.476 43.608 157.576 43.5163C157.676 43.4247 157.726 43.3175 157.726 43.1946C157.726 43.0936 157.693 43.003 157.627 42.9229C157.562 42.8448 157.412 42.7469 157.179 42.6282C156.931 42.5001 156.761 42.3731 156.671 42.2482C156.582 42.1232 156.537 41.9806 156.537 41.8192C156.537 41.6099 156.609 41.435 156.751 41.2965C156.894 41.158 157.075 41.0883 157.294 41.0883H157.293Z" fill="#ACADAE"/>
<path d="M158.552 40.0231C158.633 40.0231 158.702 40.0522 158.759 40.1095C158.817 40.1668 158.845 40.2365 158.845 40.3177C158.845 40.3989 158.816 40.4656 158.759 40.5229C158.702 40.5801 158.633 40.6093 158.552 40.6093C158.471 40.6093 158.404 40.5801 158.348 40.5229C158.291 40.4656 158.263 40.3969 158.263 40.3177C158.263 40.2386 158.291 40.1668 158.348 40.1095C158.405 40.0522 158.473 40.0231 158.552 40.0231ZM158.376 41.159H158.731V43.9193H158.376V41.159Z" fill="#ACADAE"/>
<path d="M159.456 41.5526C159.735 41.2434 160.089 41.0883 160.516 41.0883C160.943 41.0883 161.294 41.2424 161.573 41.5495C161.827 41.8306 161.954 42.1628 161.954 42.5459C161.954 42.9291 161.82 43.2685 161.551 43.557C161.283 43.8454 160.938 43.9891 160.515 43.9891C160.093 43.9891 159.746 43.8454 159.477 43.557C159.209 43.2685 159.074 42.9312 159.074 42.5459C159.074 42.1607 159.201 41.8327 159.455 41.5516L159.456 41.5526ZM160.514 41.436C160.219 41.436 159.965 41.5453 159.753 41.763C159.541 41.9816 159.434 42.245 159.434 42.5543C159.434 42.7542 159.482 42.9395 159.579 43.1124C159.676 43.2852 159.806 43.4185 159.972 43.5122C160.136 43.6059 160.317 43.6527 160.514 43.6527C160.711 43.6527 160.892 43.6059 161.057 43.5122C161.221 43.4185 161.352 43.2852 161.449 43.1124C161.546 42.9395 161.594 42.7542 161.594 42.5543C161.594 42.245 161.488 41.9806 161.274 41.763C161.061 41.5443 160.808 41.436 160.514 41.436V41.436Z" fill="#ACADAE"/>
<path d="M162.352 41.1591H162.707V41.6536C162.848 41.4641 163.005 41.3225 163.178 41.2288C163.351 41.1351 163.539 41.0883 163.742 41.0883C163.945 41.0883 164.131 41.1403 164.29 41.2455C164.45 41.3506 164.568 41.4912 164.644 41.6692C164.72 41.8473 164.759 42.1232 164.759 42.4991V43.9193H164.404V42.6032C164.404 42.2856 164.39 42.0732 164.364 41.967C164.323 41.7848 164.244 41.6474 164.128 41.5547C164.011 41.462 163.859 41.4162 163.671 41.4162C163.456 41.4162 163.264 41.487 163.094 41.6297C162.924 41.7713 162.812 41.9473 162.758 42.1576C162.723 42.295 162.707 42.5449 162.707 42.9083V43.9203H162.352V41.1601V41.1591Z" fill="#ACADAE"/>
<path fill-rule="evenodd" clip-rule="evenodd" d="M135.659 5.19366C135.659 5.19366 135.667 5.18533 135.676 5.17596C135.747 5.11453 135.844 4.98542 135.882 5.00208C135.975 5.04269 136.057 5.1364 136.114 5.22698C136.22 5.40086 136.328 5.556 136.548 5.59244C136.598 5.59973 136.649 5.62889 136.698 5.64867C136.77 5.67782 136.841 5.70698 136.928 5.7101C137.043 5.81526 137.133 5.9298 137.319 6.0006C137.724 6.14949 138.055 6.7284 137.824 7.25317C137.626 7.70505 137.432 8.15902 137.082 8.53281C136.963 8.66192 136.94 8.88786 136.894 9.07424C136.801 9.46781 136.719 9.86451 136.636 10.2612C136.599 10.4372 136.574 10.6152 136.54 10.7922C136.412 11.4607 136.278 12.126 136.159 12.7955C136.128 12.9621 136.147 13.1391 136.135 13.3119C136.134 13.3546 136.115 13.3984 136.1 13.4379C136.077 13.4962 136.033 13.5514 136.025 13.6118C135.959 13.9991 135.9 14.3886 135.84 14.7759C135.785 15.1309 135.732 15.486 135.68 15.84C135.606 16.32 135.528 16.7989 135.466 17.2789C135.406 17.7423 135.37 18.2087 135.308 18.671C135.287 18.8251 135.219 18.9699 135.17 19.1167C135.159 19.1562 135.138 19.1927 135.131 19.2312C135.054 19.7716 134.971 20.3109 134.901 20.8534C134.857 21.196 134.845 21.5437 134.797 21.8863C134.724 22.4183 134.619 22.9462 134.555 23.4814C134.491 23.977 134.461 24.4758 134.413 24.9734C134.363 25.5034 134.301 26.0334 134.259 26.5665C134.234 26.8903 134.246 27.2162 134.231 27.5442C134.212 27.9065 134.172 28.2699 134.169 28.6322C134.158 29.3507 134.171 30.0691 134.171 30.7896C134.173 31.3258 134.171 31.86 134.169 32.3962C134.169 32.6159 134.179 32.6128 134.388 32.5753C134.734 32.5149 134.884 32.2161 135.114 32.0162C135.244 31.9006 135.359 31.7486 135.33 31.5455C135.324 31.5143 135.368 31.4497 135.382 31.4497C135.587 31.4737 135.562 31.3425 135.568 31.2092C135.573 31.1363 135.643 31.0718 135.675 31.001C135.747 30.8417 135.837 30.6855 135.88 30.5189C135.907 30.4085 135.934 30.3003 136.052 30.3242C136.182 30.3492 136.389 30.3398 136.379 30.5439C136.352 31.103 136.288 31.6413 136.028 32.1671C135.839 32.5534 135.542 32.8689 135.381 33.2656C135.343 33.3552 135.261 33.4249 135.201 33.5061C135.099 33.6436 135.007 33.7893 134.898 33.9216C134.819 34.0163 134.717 34.0923 134.63 34.1787C134.534 34.2745 134.428 34.363 134.35 34.4724C134.243 34.6181 134.055 34.6369 133.927 34.4901C133.644 34.1663 133.479 33.7852 133.378 33.3729C133.296 33.0376 133.186 32.7106 133.118 32.3754C133.073 32.1474 133.09 31.911 133.069 31.6788C133.038 31.3009 132.992 30.9239 132.96 30.5429C132.908 29.9358 132.85 29.3309 132.822 28.7218C132.798 28.2637 132.822 27.8014 132.809 27.3411C132.797 26.9215 132.754 26.5019 132.74 26.0813C132.733 25.8897 132.778 25.695 132.779 25.5034C132.781 25.189 132.75 24.8745 132.76 24.559C132.779 23.9458 132.817 23.3315 132.843 22.7203C132.848 22.6068 132.821 22.4923 132.828 22.3808C132.86 21.8415 132.904 21.3053 132.931 20.7659C132.951 20.3984 132.945 20.0308 132.962 19.6643C132.973 19.3645 132.994 19.0636 133.025 18.7647C133.098 18.0567 133.175 17.3497 133.256 16.6428C133.317 16.093 133.364 15.5401 133.451 14.9935C133.595 14.1168 133.77 13.2453 133.928 12.3717C134.004 11.95 134.057 11.5252 134.15 11.1077C134.263 10.5715 134.401 10.0384 134.536 9.5053C134.679 8.94409 134.836 8.38808 134.974 7.82479C135.002 7.70817 135.006 7.56761 134.964 7.45933C134.898 7.28024 134.702 7.3198 134.565 7.32813C134.393 7.33855 134.38 7.27816 134.414 7.14488C134.525 6.73673 134.581 6.32649 134.492 5.90585C134.448 5.69657 134.675 5.40399 134.888 5.36026C134.948 5.34776 135.004 5.3082 135.06 5.27696C135.146 5.22802 135.146 5.04685 135.317 5.12078C135.414 5.16139 135.527 5.16867 135.66 5.19575L135.659 5.19366Z" fill="#006EA8"/>
<path fill-rule="evenodd" clip-rule="evenodd" d="M123.253 20.7972C123.366 20.7003 123.434 20.7191 123.538 20.8086C123.802 21.0314 123.917 21.3344 124.081 21.6218C124.234 21.8831 124.308 22.1622 124.417 22.4308C124.549 22.764 124.643 23.1107 124.743 23.4554C124.842 23.8031 124.93 24.1551 125.019 24.507C125.043 24.5965 125.045 24.6913 125.056 24.785C125.061 24.8381 125.043 24.9026 125.067 24.9432C125.275 25.3097 125.149 25.7262 125.249 26.1115C125.365 26.5488 125.401 27.0069 125.474 27.4546C125.515 27.7108 125.58 27.9627 125.605 28.221C125.657 28.7915 125.693 29.3642 125.734 29.9358C125.755 30.2409 125.758 30.5501 125.789 30.8521C125.818 31.1259 125.884 31.3946 125.917 31.6663C125.939 31.8423 125.926 32.0245 125.937 32.2015C125.986 32.8856 126.033 33.5665 126.092 34.2506C126.106 34.4234 126.147 34.5931 126.183 34.7618C126.206 34.8774 126.21 35.0221 126.372 35.0242C126.561 35.0263 126.762 34.8618 126.791 34.7035C126.8 34.639 126.818 34.5734 126.825 34.5307C126.96 34.5671 127.066 34.5983 127.173 34.6223C127.372 34.6639 127.447 34.7587 127.376 34.9524C127.245 35.3043 127.116 35.6645 126.843 35.9457C126.767 36.0248 126.707 36.1206 126.65 36.2164C126.521 36.4392 126.016 36.4861 125.869 36.2695C125.649 35.9467 125.425 35.6219 125.251 35.271C125.108 34.9836 125.03 34.6629 124.938 34.3547C124.778 33.8195 124.612 33.2885 124.48 32.7481C124.356 32.2379 124.278 31.7163 124.166 31.2019C124.008 30.4793 123.834 29.7588 123.676 29.0362C123.639 28.8748 123.655 28.7041 123.626 28.5417C123.542 28.0689 123.463 27.5962 123.353 27.1329C123.252 26.7081 123.115 26.2916 122.989 25.873C122.869 25.4805 122.755 25.0817 122.608 24.6996C122.51 24.4435 122.369 24.2019 122.224 23.9687C122.092 23.7584 121.944 23.5501 121.774 23.3679C121.642 23.2315 121.465 23.1388 121.287 23.0118C121.081 23.2846 120.881 23.5158 120.72 23.7688C120.593 23.9708 120.651 24.102 120.837 24.2561C120.889 24.2967 120.92 24.3914 120.922 24.4632C120.924 24.6288 120.91 24.7964 120.887 24.9609C120.876 25.0307 120.84 25.113 120.79 25.1546C120.67 25.2525 120.536 25.3441 120.397 25.4149C120.225 25.5013 120.045 25.6055 119.856 25.6304C119.433 25.6877 119 25.6908 118.573 25.7387C118.43 25.7533 118.273 25.8127 118.16 25.9012C118.023 26.0136 117.926 26.0115 117.831 25.8824C117.722 25.7346 117.594 25.7012 117.415 25.7179C117.054 25.7512 116.978 25.6763 116.886 25.2879C116.584 25.2816 116.362 25.0484 116.488 24.7767C116.588 24.5642 116.644 24.2842 116.808 24.1488C116.972 24.0124 117.094 23.8531 117.243 23.7105C117.267 23.6876 117.298 23.6501 117.322 23.6553C117.556 23.6865 117.628 23.5053 117.739 23.3627C117.806 23.2752 117.914 23.2221 118.004 23.1524C118.289 22.9389 118.583 22.7348 118.857 22.5047C119.23 22.1903 119.586 21.8519 119.95 21.527C119.991 21.4906 120.036 21.4542 120.084 21.4417C120.407 21.3563 120.662 21.172 120.907 20.9533C121.049 20.8294 121.22 20.7316 121.4 20.6628C121.489 20.6274 121.618 20.6972 121.729 20.6972C121.852 20.6972 121.975 20.6681 122.1 20.6608C122.319 20.6493 122.55 20.6004 122.752 20.6545C122.895 20.6941 123.009 20.8669 123.113 20.9992C123.299 21.2303 123.469 21.475 123.647 21.7103C123.669 21.7395 123.706 21.7582 123.74 21.7863C123.788 21.5146 123.486 20.8992 123.255 20.793L123.253 20.7972Z" fill="#006EA8"/>
<path fill-rule="evenodd" clip-rule="evenodd" d="M141.984 33.7612C141.835 33.5082 141.801 33.2708 141.972 33.0355C141.983 33.0178 142.001 32.998 142 32.9834C141.955 32.6565 142.237 32.5346 142.404 32.3431C142.665 32.039 142.928 31.7319 143.193 31.4289C143.439 31.1488 143.695 30.876 143.939 30.5949C144.18 30.3148 144.405 30.0243 144.651 29.7505C144.752 29.638 144.906 29.5724 145.008 29.4589C145.397 29.0247 145.777 28.577 146.165 28.1366C146.412 27.8544 146.675 27.5837 146.907 27.2891C146.978 27.2047 146.985 27.0569 146.991 26.9361C147.005 26.7601 147.054 26.6758 147.26 26.6477C147.388 26.6289 147.528 26.479 147.605 26.352C147.707 26.1812 147.81 26.0313 147.973 25.9126C148.084 25.8335 148.142 25.6877 148.233 25.5825C148.295 25.5128 148.377 25.4597 148.443 25.3941C148.523 25.3149 148.615 25.24 148.673 25.1452C148.803 24.9422 149.015 24.9713 149.203 24.9547C149.237 24.9505 149.331 25.1067 149.312 25.1598C149.221 25.4263 149.116 25.6929 148.982 25.9417C148.806 26.2708 148.617 26.5935 148.398 26.8955C148.229 27.1298 148.081 27.3817 147.854 27.5816C147.718 27.7024 147.651 27.9034 147.556 28.0689C147.478 28.2053 147.429 28.3625 147.328 28.4792C147.014 28.8509 146.708 29.2174 146.453 29.6359C146.25 29.9681 145.938 30.2346 145.68 30.5387C145.425 30.8427 145.179 31.1509 144.935 31.4653C144.914 31.4914 144.934 31.5861 144.965 31.609C145.303 31.8631 145.456 32.2056 145.54 32.6179C145.622 33.024 145.663 33.4582 145.946 33.7997C145.966 33.8247 145.984 33.8591 145.982 33.8882C145.971 34.2766 146.154 34.6139 146.306 34.9409C146.544 35.4438 146.851 35.9134 147.128 36.3986C147.19 36.5058 147.249 36.6183 147.309 36.7297C147.38 36.865 147.455 36.9858 147.647 36.9317C147.673 36.9233 147.732 36.9921 147.757 37.0347C147.786 37.0774 147.797 37.1316 147.811 37.1836C147.854 37.3648 147.967 37.4335 148.149 37.4085C148.314 37.3877 148.478 37.3721 148.644 37.371C148.74 37.371 148.869 37.3742 148.921 37.4314C149.032 37.5574 149.041 37.7344 148.95 37.8823C148.881 37.9958 148.758 38.077 148.675 38.1842C148.414 38.5289 148.029 38.5101 147.672 38.4831C147.499 38.4706 147.303 38.3435 147.182 38.2113C146.814 37.8063 146.469 37.3846 146.137 36.9535C145.926 36.6818 145.737 36.3923 145.573 36.0904C145.397 35.7666 145.25 35.424 145.12 35.0783C144.882 34.438 144.677 33.7841 144.429 33.149C144.349 32.9438 144.249 32.7616 144.268 32.5294C144.273 32.4691 144.169 32.3993 144.113 32.3337C144.052 32.392 143.988 32.4493 143.93 32.5138C143.893 32.5534 143.872 32.6242 143.829 32.6409C143.503 32.7554 143.282 33.0126 143.004 33.1979C142.856 33.7279 142.378 33.6623 141.987 33.7664L141.984 33.7612Z" fill="#006EA8"/>
<path fill-rule="evenodd" clip-rule="evenodd" d="M157.765 34.8899C157.765 34.3349 157.788 33.7779 157.758 33.226C157.738 32.8335 157.642 32.4462 157.588 32.0557C157.576 31.9516 157.606 31.8433 157.598 31.7392C157.56 31.3144 157.51 30.8885 157.475 30.4637C157.451 30.1992 157.448 29.9337 157.431 29.6672C157.381 28.9238 157.322 28.1793 157.281 27.4348C157.256 26.9351 157.249 26.4332 157.249 25.9334C157.249 25.6158 157.28 25.2993 157.291 24.9818C157.3 24.8141 157.314 24.6475 157.298 24.482C157.291 24.4195 157.226 24.3393 157.167 24.3133C156.971 24.2217 156.932 24.028 157.099 23.8822C157.232 23.7708 157.367 23.6615 157.507 23.5605C157.55 23.5314 157.622 23.5168 157.668 23.5314C157.836 23.5824 158 23.6407 158.158 23.7125C158.219 23.7406 158.287 23.7979 158.314 23.8583C158.447 24.1613 158.571 24.4674 158.689 24.7756C158.808 25.0848 158.801 25.4003 158.767 25.7356C158.725 26.1281 158.781 26.5321 158.796 26.9319C158.818 27.5015 158.813 28.0762 158.875 28.6437C158.919 29.056 158.949 29.4589 158.922 29.8744C158.902 30.2273 158.993 30.5886 158.986 30.9447C158.972 31.4882 158.917 32.0328 158.879 32.5794C158.851 32.9595 158.829 33.3406 158.791 33.7175C158.767 33.9674 158.723 34.2172 158.689 34.4671C158.685 34.5005 158.669 34.5338 158.675 34.565C158.757 34.8826 158.604 35.147 158.481 35.4188C158.412 35.5708 158.279 35.6687 158.106 35.5989C157.819 35.4813 157.751 35.5011 157.791 35.2324C157.808 35.121 157.805 35.0054 157.81 34.8919H157.765V34.8899Z" fill="#006EA8"/>
<path fill-rule="evenodd" clip-rule="evenodd" d="M140.817 22.5401C140.589 22.6578 140.37 22.788 140.134 22.8869C139.681 23.0774 139.209 23.2273 138.766 23.4387C138.491 23.5709 138.163 23.6584 138.012 23.9791C137.988 24.0291 137.927 24.0707 137.875 24.0895C137.483 24.2165 137.125 24.2196 136.849 23.8417C136.77 23.7323 136.63 23.6719 136.53 23.5751C136.309 23.3575 136.407 23.0535 136.663 22.89C136.997 22.6776 137.356 22.5495 137.724 22.4267C138.181 22.2767 138.644 22.1466 139.1 21.9883C139.327 21.9102 139.531 21.7728 139.758 21.6978C140.022 21.6124 140.305 21.4958 140.567 21.525C140.863 21.5562 141.1 21.4833 141.344 21.3677C141.396 21.3438 141.454 21.2959 141.5 21.3053C141.675 21.3376 141.848 21.3907 142.023 21.4354C141.971 21.5749 141.945 21.7322 141.862 21.8477C141.72 22.0466 141.563 22.2444 141.373 22.3933C141.23 22.5068 141.028 22.5454 140.849 22.6182C140.839 22.5922 140.827 22.5672 140.816 22.5412L140.817 22.5401Z" fill="#006EA8"/>
<path d="M150.618 13.8304V14.2407H149.332V19.3842C149.332 19.7153 149.216 19.9413 148.985 20.0631C148.765 20.1891 148.378 20.2495 147.825 20.2443L147.652 19.6924C148.13 19.7341 148.448 19.7185 148.606 19.6456C148.748 19.5821 148.82 19.43 148.82 19.1885V14.2428H144V13.8325H150.618V13.8304ZM147.376 15.6609V18.4294H146.91V18.0432H145.254V18.5169H144.804V15.6609H147.376V15.6609ZM145.254 17.6329H146.91V16.0711H145.254V17.6329Z" fill="#006EA8"/>
<path d="M152.921 16.1023C152.926 16.144 152.884 16.1784 152.795 16.2044C152.758 16.878 152.715 17.4486 152.669 17.9161C152.6 18.5107 152.51 19.0208 152.4 19.4467C152.342 19.4207 152.274 19.3967 152.195 19.3759C152.111 19.3551 152.035 19.3415 151.966 19.3363C152.107 18.9261 152.216 18.3867 152.29 17.7193C152.353 17.1623 152.384 16.5865 152.384 15.992L152.739 16.0232C152.86 16.0336 152.921 16.0597 152.921 16.1023V16.1023ZM154.798 15.4474H153.662V20.1256H153.205V15.4474H152.038V15.0528H154.799V15.4474H154.798ZM154.577 13.7357V14.1376H152.329V13.7357H154.577ZM154.577 17.4038C154.624 17.9505 154.684 18.4055 154.758 18.7689L154.301 18.8397C154.238 18.4294 154.186 17.9401 154.143 17.3726C154.112 16.9103 154.093 16.4678 154.088 16.0472L154.498 16.0159C154.503 16.4418 154.529 16.9051 154.577 17.4038V17.4038ZM158.197 17.7745H157.456V19.2416C157.456 19.4311 157.49 19.555 157.558 19.6122C157.616 19.6539 157.737 19.6758 157.922 19.6758C158.137 19.6758 158.285 19.6175 158.363 19.5019C158.432 19.3915 158.476 19.1677 158.497 18.8313C158.582 18.873 158.663 18.9105 158.742 18.9417C158.821 18.9729 158.902 19 158.987 19.0208L158.892 19.4071C158.834 19.6706 158.739 19.8465 158.608 19.9361C158.482 20.0256 158.268 20.0704 157.968 20.0704C157.584 20.0704 157.329 20.0287 157.203 19.9444C157.067 19.8548 156.998 19.681 156.998 19.4238V17.7756H156.517C156.475 18.3805 156.293 18.8959 155.972 19.3218C155.641 19.7528 155.202 20.0391 154.655 20.1818C154.614 20.1131 154.555 20.0475 154.481 19.985C154.418 19.9215 154.345 19.8642 154.261 19.8111C154.807 19.7216 155.238 19.4956 155.555 19.1323C155.86 18.7855 156.039 18.3326 156.091 17.7756H155.389V13.7284H158.197V17.7756V17.7745ZM155.839 14.098V14.9976H157.748V14.098H155.839ZM155.839 15.3443V16.2117H157.748V15.3443H155.839ZM155.839 16.5594V17.4038H157.748V16.5594H155.839Z" fill="#006EA8"/>
</g>
<defs>
<clipPath id="clip0_621_2305">
<rect width="49.7592" height="40" fill="white" transform="translate(115 5)"/>
</clipPath>
</defs>
</svg>
