<svg width="103" height="48" viewBox="0 0 103 48" fill="none" xmlns="http://www.w3.org/2000/svg">
<g clip-path="url(#clip0_176_11593)">
<path d="M5.62573 28.3917H10.817C11.801 28.3917 12.719 29.1101 12.7705 30.0631H12.8178V26.1501H5.62573L5.62162 19.2812H12.5584C13.5465 19.2812 14.4666 19.9975 14.5181 20.9464H14.5633L14.5572 17.0293L-0.00195312 17.0355V17.0787C0.977849 17.1322 1.7127 18.1697 1.7127 19.1392V37.1358C1.7127 38.1012 0.977849 39.1448 -0.00195312 39.2004V39.2416H7.3445V39.2004C6.36264 39.1448 5.62162 38.1033 5.62162 37.1358L5.62573 28.3917Z" fill="#E60012"/>
<path d="M20.6588 33.2681C20.6588 35.5776 22.5855 37.5743 24.9609 37.5743C27.3363 37.5743 29.2671 35.5508 29.2671 33.2413V19.1371C29.2671 18.1676 28.5302 17.1281 27.5463 17.0766V17.0355L34.8968 17.0293V17.0787C33.915 17.1322 33.1719 18.1697 33.1719 19.1392V32.844C33.1719 37.2552 29.5141 39.8241 24.9794 39.8241C20.4448 39.8241 16.7396 37.2531 16.7396 32.844L16.7499 19.1392C16.7499 18.1697 16.0089 17.1302 15.0332 17.0787V17.0293H22.3735V17.0787C21.3957 17.1363 20.6568 18.1758 20.6568 19.1392L20.6609 33.2701L20.6588 33.2681Z" fill="#E60012"/>
<path d="M80.7208 20.6248C79.4899 18.6405 76.6781 18.8793 76.6781 18.8793C72.0817 18.8793 72.2978 22.3766 72.2978 22.3766C72.2978 22.3766 71.9808 24.1303 74.2924 25.3283L78.8888 27.7634C83.3268 30.1367 82.7998 33.5105 82.7998 33.5105C82.7998 33.5105 82.9995 39.8133 73.7202 39.8133C73.7202 39.8133 71.0237 39.8957 69.4984 39.3255L68.1934 35.2437H68.2386C69.6528 37.2753 73.7593 37.5697 73.7593 37.5697C78.9732 37.3412 79.0103 33.8089 79.0103 33.8089C79.0103 33.8089 79.2449 32.2878 77.203 31.1865L72.6292 28.7514C67.8537 26.2072 68.4013 22.78 68.4013 22.78C68.4013 22.78 68.288 16.5801 76.499 16.5801C76.499 16.5801 80.1836 16.6748 80.7723 17.247V20.6269H80.7249L80.7208 20.6248Z" fill="#E60012"/>
<path d="M44.902 9.30606C45.7151 10.1027 46.8513 10.5926 48.0926 10.5926C50.5915 10.5926 52.6149 8.62679 52.6149 6.19581C52.6149 3.76483 50.5915 1.80316 48.0926 1.80316C48.0926 1.80316 44.6118 1.48205 43.0453 5.81294L43.0515 2.56272C44.2166 1.07861 46.0218 0 48.0946 0C51.6207 0 54.4736 2.77062 54.4736 6.19581C54.4736 9.621 51.6207 12.3957 48.0946 12.3957C46.3326 12.3957 44.7394 11.7041 43.5888 10.5782L41.3945 8.18011C40.7934 7.59552 39.966 7.24148 39.0582 7.24148C37.2324 7.24148 35.7503 8.67619 35.7503 10.4505C35.7503 12.2249 37.2324 13.6699 39.0582 13.6699C39.0582 13.6699 41.5015 13.9889 43.0453 11.0454L43.0515 13.6493C42.1067 14.765 40.6638 15.4751 39.0603 15.4751C36.2094 15.4751 33.8916 13.2253 33.8916 10.4505C33.8916 7.6758 36.2073 5.43625 39.0603 5.43625C40.4806 5.43625 41.7712 5.99202 42.7078 6.90596L44.9041 9.304L44.902 9.30606Z" fill="#E60012"/>
<path d="M46.0772 19.0915C46.0772 18.1199 45.3382 17.1257 44.3584 17.0763V17.0352H51.6925V17.0763C50.7189 17.1298 49.9779 18.1261 49.9779 19.0915V37.1252C49.9779 38.0927 50.7209 39.1342 51.6925 39.1919V39.233H44.3584V39.1919C45.3382 39.1342 46.0772 38.0927 46.0772 37.1252V19.0915Z" fill="#E60012"/>
<path d="M41.4726 19.1388C41.4726 18.1693 42.2095 17.1298 43.1893 17.0784V17.0352H35.8428V17.0784C36.8267 17.1319 37.5595 18.1693 37.5595 19.1388L37.5657 41.6846C37.5657 41.6846 37.4834 45.6655 34.2764 47.9566L34.2846 47.9998C34.9165 47.8969 41.4767 46.6865 41.4767 40.3487L41.4705 19.1368L41.4726 19.1388Z" fill="#E60012"/>
<path d="M51.666 21.0289H51.7092C52.7035 19.2978 54.237 19.2792 54.237 19.2792H58.2138V37.1359C58.2159 38.1013 57.4769 39.1367 56.4971 39.1943V39.2355H63.8518V39.1943C62.8638 39.1367 62.1227 38.0951 62.1227 37.1359L62.1289 19.2792L65.4532 19.271C66.4618 19.271 67.2626 20.0532 67.2914 21.0289H67.3326L68.5532 17.0273H52.8928L51.6681 21.0289H51.666Z" fill="#E60012"/>
<path d="M88.2711 33.2681C88.2711 35.5776 90.1978 37.5743 92.5753 37.5743C94.9527 37.5743 96.8815 35.5508 96.8815 33.2413V19.1371C96.8815 18.1676 96.1425 17.1281 95.1647 17.0766V17.0355L102.511 17.0293V17.0787C101.538 17.1322 100.794 18.1697 100.794 19.1392V32.844C100.794 37.2552 97.1346 39.8241 92.5917 39.8241C88.0488 39.8241 84.3602 37.2531 84.3602 32.844L84.3663 19.1392C84.3663 18.1697 83.6274 17.1302 82.6455 17.0787V17.0293H89.994V17.0787C89.0101 17.1363 88.2711 18.1758 88.2711 19.1392L88.2773 33.2701L88.2711 33.2681Z" fill="#E60012"/>
</g>
<defs>
<clipPath id="clip0_176_11593">
<rect width="102.509" height="48" fill="white"/>
</clipPath>
</defs>
</svg>
