<svg width="281" height="51" viewBox="0 0 281 51" fill="none" xmlns="http://www.w3.org/2000/svg">
<g clip-path="url(#clip0_621_3032)">
<path d="M121.806 36.2385C116.698 36.2385 114.142 33.8968 114.142 29.2133V16.9269H118.1V28.992C118.1 30.5593 118.407 31.6657 119.028 32.311C119.643 32.9564 120.62 33.2821 121.947 33.2821C123.275 33.2821 124.142 32.9625 124.713 32.311C125.285 31.6657 125.574 30.5532 125.574 28.9613V16.9269H129.169V29.1272C129.169 31.5427 128.567 33.3313 127.368 34.493C126.17 35.6546 124.314 36.2385 121.806 36.2385Z" fill="#32BACB"/>
<path d="M132.931 35.9066V16.9269H137.331L144.664 29.539H144.744V16.9269H148.204V35.9066H144.332L136.477 22.2987H136.391V35.9066H132.931V35.9066Z" fill="#32BACB"/>
<path d="M152.156 35.9066V16.9269H156.114V35.9066H152.156Z" fill="#32BACB"/>
<path d="M163.245 35.9066L158.653 16.9269H162.612L165.629 30.3688H165.74L169.336 16.9269H172.575L176.115 30.3688H176.226L179.299 16.9269H182.784L178.217 35.9066H174.234L170.86 22.6859H170.78L167.209 35.9066H163.251H163.245Z" fill="#003564"/>
<path d="M185.321 35.9066V16.9269H189.279V35.9066H185.321Z" fill="#003564"/>
<path d="M193.263 35.9066V16.9269H199.765C205.906 16.9269 208.979 19.9324 208.979 25.9435V26.4966C208.979 29.5759 208.204 31.9115 206.655 33.5095C205.107 35.1076 202.82 35.9004 199.796 35.9004H193.269L193.263 35.9066ZM197.19 32.8888H199.79C201.542 32.8888 202.82 32.4217 203.619 31.4936C204.424 30.5655 204.824 29.0105 204.824 26.8347V25.8943C204.824 23.6816 204.387 22.1266 203.521 21.2354C202.654 20.3381 201.333 19.8955 199.563 19.8955H197.184V32.8949L197.19 32.8888Z" fill="#003564"/>
<path d="M211.936 35.9066V16.9269H224.105V19.8894H215.863V24.7019H222.31V27.6337H215.863V32.8888H224.302V35.9066H211.936V35.9066Z" fill="#003564"/>
<path d="M98.6537 20.9957C98.6414 21.0695 98.4386 21.8501 98.2972 22.3725C101.069 23.7984 102.968 26.6872 102.968 30.0123C102.968 34.7511 99.1147 38.6048 94.3759 38.6048C91.4748 38.6048 88.7889 37.1543 87.197 34.7327C86.9881 34.4131 86.5578 34.3209 86.2321 34.536L86.2013 34.5544C86.0968 34.622 86.0108 34.7204 85.9555 34.831C84.8553 37.0928 83.2204 38.1746 80.8172 38.2299C79.3175 38.2668 77.8608 37.7136 76.8344 36.7118L75.8633 37.7075C77.1601 38.9675 78.9794 39.662 80.8541 39.619C83.4416 39.5575 85.3593 38.4942 86.693 36.3799C88.5799 38.6601 91.3826 39.9939 94.382 39.9939C99.8891 39.9939 104.364 35.5132 104.364 30.0123C104.364 26.0357 102.028 22.5999 98.6598 20.9957H98.6537Z" fill="#003564"/>
<path d="M84.3505 10C79.0647 10 74.3382 13.3866 72.605 18.3159C71.6154 17.984 69.7347 17.5599 67.3438 18.0086L67.6019 19.3792C70.6074 18.8138 72.7095 19.8525 72.7279 19.8586C72.9123 19.9508 73.1335 19.9631 73.3241 19.8771C73.5146 19.791 73.6621 19.6312 73.7174 19.4284C75.0573 14.6958 79.4335 11.3891 84.3567 11.3891C89.2798 11.3891 93.7113 14.8064 95.0082 19.4899C95.5183 19.2502 95.7887 19.1395 96.305 18.9551C94.7869 13.7677 89.9621 10 84.3505 10Z" fill="#999999"/>
<path d="M76.3362 36.1463C77.086 35.2428 77.6577 34.2226 78.0326 33.1162C78.4751 31.8009 78.469 30.5102 78.0141 29.7419C77.7929 29.367 77.4548 29.1211 77.0738 29.0535C75.9797 28.863 75.0025 29.5022 74.5231 30.7192C74.2588 31.383 74.1051 32.477 74.1051 33.6448C74.1051 34.2226 74.1973 34.788 74.3694 35.3289C74.7443 35.0154 75.3159 34.3639 75.5187 34.032C75.5065 33.9091 75.5003 33.78 75.5003 33.651C75.5003 32.5446 75.6601 31.6411 75.8199 31.2355C75.9674 30.8544 76.244 30.3627 76.6988 30.418C77.0307 30.461 77.1229 31.4506 76.705 32.6675C76.453 33.4112 76.0904 34.1058 75.6355 34.7388C75.279 35.2305 74.9963 35.5563 74.5968 35.9374C72.882 37.5907 70.4665 38.5987 67.8851 38.5987C62.6423 38.5987 58.3768 34.3332 58.3768 29.0904C58.3768 25.4272 60.4235 22.1451 63.724 20.5409C64.0129 20.3996 64.1727 20.0738 64.099 19.7604C64.0252 19.4469 63.7425 19.2195 63.4229 19.2195H59.102L57.2459 20.6208H61.0381C58.5058 22.6614 57 25.7345 57 29.0966C57 35.1076 61.8924 40.0001 67.9035 40.0001C70.1592 40.0001 72.3165 39.3486 74.1543 38.1132C74.5845 37.8243 74.9902 37.5047 75.3651 37.1666C75.6355 36.9269 76.1887 36.3307 76.3362 36.1525V36.1463Z" fill="#32BACB"/>
<path d="M96.4532 22.3971C97.1355 22.3971 97.6886 21.844 97.6886 21.1617C97.6886 20.4794 97.1355 19.9263 96.4532 19.9263C95.7709 19.9263 95.2178 20.4794 95.2178 21.1617C95.2178 21.844 95.7709 22.3971 96.4532 22.3971Z" fill="#32BACB"/>
</g>
<defs>
<clipPath id="clip0_621_3032">
<rect width="167.302" height="30" fill="white" transform="translate(57 10)"/>
</clipPath>
</defs>
</svg>
