<svg width="168" height="31" viewBox="0 0 168 31" fill="none" xmlns="http://www.w3.org/2000/svg">
<g clip-path="url(#clip0_154_12190)">
<path d="M65.14 27.0577C60.0324 27.0577 57.4756 24.716 57.4756 20.0325V7.74609H61.4338V19.8112C61.4338 21.3785 61.7411 22.4849 62.3619 23.1302C62.9765 23.7756 63.9538 24.1013 65.2814 24.1013C66.609 24.1013 67.4756 23.7817 68.0472 23.1302C68.6188 22.4849 68.9077 21.3724 68.9077 19.7805V7.74609H72.5032V19.9465C72.5032 22.362 71.9009 24.1505 70.7024 25.3122C69.5039 26.4738 67.6477 27.0577 65.14 27.0577Z" fill="#32BACB"/>
<path d="M76.2646 26.7258V7.74609H80.6654L87.9979 20.3583H88.0778V7.74609H91.5382V26.7258H87.666L79.8111 13.1179H79.725V26.7258H76.2646Z" fill="#32BACB"/>
<path d="M95.4902 26.7258V7.74609H99.4484V26.7258H95.4902Z" fill="#32BACB"/>
<path d="M106.579 26.7258L101.987 7.74609H105.946L108.963 21.188H109.074L112.67 7.74609H115.909L119.449 21.188H119.56L122.633 7.74609H126.118L121.551 26.7258H117.568L114.194 13.5052H114.114L110.543 26.7258H106.585H106.579Z" fill="#003564"/>
<path d="M128.655 26.7258V7.74609H132.613V26.7258H128.655Z" fill="#003564"/>
<path d="M136.597 26.7258V7.74609H143.099C149.24 7.74609 152.313 10.7516 152.313 16.7627V17.3159C152.313 20.3951 151.538 22.7307 149.989 24.3288C148.441 25.9268 146.154 26.7197 143.13 26.7197H136.603L136.597 26.7258ZM140.524 23.708H143.124C144.876 23.708 146.154 23.2409 146.953 22.3128C147.758 21.3847 148.158 19.8297 148.158 17.6539V16.7135C148.158 14.5009 147.721 12.9458 146.855 12.0546C145.988 11.1573 144.667 10.7147 142.897 10.7147H140.518V23.7141L140.524 23.708Z" fill="#003564"/>
<path d="M155.27 26.7258V7.74609H167.439V10.7086H159.197V15.5211H165.644V18.4529H159.197V23.708H167.636V26.7258H155.27Z" fill="#003564"/>
<path d="M41.9877 11.8145C41.9754 11.8882 41.7726 12.6688 41.6312 13.1912C44.4032 14.6172 46.3024 17.5059 46.3024 20.831C46.3024 25.5698 42.4486 29.4235 37.7099 29.4235C34.8088 29.4235 32.1229 27.973 30.531 25.5514C30.322 25.2318 29.8918 25.1396 29.566 25.3547L29.5353 25.3732C29.4308 25.4408 29.3448 25.5391 29.2895 25.6497C28.1893 27.9116 26.5544 28.9933 24.1512 29.0486C22.6515 29.0855 21.1948 28.5323 20.1684 27.5305L19.1973 28.5262C20.4941 29.7862 22.3134 30.4807 24.188 30.4377C26.7756 30.3762 28.6933 29.3129 30.027 27.1986C31.9139 29.4789 34.7166 30.8126 37.716 30.8126C43.2231 30.8126 47.6976 26.332 47.6976 20.831C47.6976 16.8544 45.362 13.4186 41.9938 11.8145H41.9877Z" fill="#003564"/>
<path d="M27.6845 0.818359C22.3987 0.818359 17.6722 4.20496 15.939 9.13428C14.9494 8.80238 13.0686 8.37829 10.6777 8.82696L10.9359 10.1976C13.9414 9.63213 16.0434 10.6708 16.0619 10.677C16.2463 10.7692 16.4675 10.7815 16.6581 10.6954C16.8486 10.6094 16.9961 10.4496 17.0514 10.2468C18.3913 5.51412 22.7675 2.20742 27.6906 2.20742C32.6138 2.20742 37.0453 5.62475 38.3421 10.3082C38.8523 10.0685 39.1227 9.95788 39.639 9.77349C38.1209 4.58603 33.296 0.818359 27.6845 0.818359Z" fill="#999999"/>
<path d="M19.6702 26.964C20.42 26.0605 20.9916 25.0402 21.3666 23.9339C21.8091 22.6185 21.8029 21.3278 21.3481 20.5595C21.1269 20.1846 20.7888 19.9388 20.4077 19.8712C19.3137 19.6806 18.3364 20.3198 17.857 21.5368C17.5927 22.2006 17.4391 23.2946 17.4391 24.4624C17.4391 25.0402 17.5313 25.6056 17.7034 26.1465C18.0783 25.8331 18.6499 25.1815 18.8527 24.8496C18.8404 24.7267 18.8343 24.5976 18.8343 24.4686C18.8343 23.3622 18.9941 22.4587 19.1539 22.0531C19.3014 21.672 19.578 21.1803 20.0328 21.2356C20.3647 21.2787 20.4569 22.2682 20.039 23.4852C19.787 24.2289 19.4243 24.9234 18.9695 25.5565C18.613 26.0482 18.3303 26.3739 17.9308 26.755C16.216 28.4083 13.8005 29.4163 11.219 29.4163C5.97627 29.4163 1.71075 25.1508 1.71075 19.908C1.71075 16.2449 3.75746 12.9627 7.05802 11.3586C7.34689 11.2172 7.5067 10.8914 7.43294 10.578C7.35918 10.2645 7.07646 10.0371 6.75685 10.0371H2.43601L0.579836 11.4385H4.37209C1.83982 13.479 0.333984 16.5522 0.333984 19.9142C0.333984 25.9252 5.22642 30.8177 11.2375 30.8177C13.4932 30.8177 15.6505 30.1662 17.4883 28.9308C17.9185 28.6419 18.3242 28.3223 18.6991 27.9843C18.9695 27.7445 19.5227 27.1484 19.6702 26.9701V26.964Z" fill="#32BACB"/>
<path d="M39.7872 13.2149C40.4695 13.2149 41.0226 12.6618 41.0226 11.9795C41.0226 11.2972 40.4695 10.7441 39.7872 10.7441C39.1049 10.7441 38.5518 11.2972 38.5518 11.9795C38.5518 12.6618 39.1049 13.2149 39.7872 13.2149Z" fill="#32BACB"/>
</g>
<defs>
<clipPath id="clip0_154_12190">
<rect width="167.302" height="30" fill="white" transform="translate(0.333984 0.818359)"/>
</clipPath>
</defs>
</svg>
