<svg width="281" height="51" viewBox="0 0 281 51" fill="none" xmlns="http://www.w3.org/2000/svg">
<g clip-path="url(#clip0_621_2300)">
<path d="M85.1171 36.2367C85.1171 37.5908 85.0157 38.7419 84.8092 39.6866C84.6028 40.6313 84.1409 41.4221 83.4272 42.0518C82.7099 42.6851 81.6427 43 80.2257 43C79.7044 43 78.6582 42.9721 78.1369 42.8706L78.0039 38.8084C78.4763 39.1478 79.0011 39.1303 79.351 39.0813C79.7009 39.0288 79.9808 38.9168 80.1977 38.7349C80.4111 38.553 80.5651 38.2801 80.6561 37.9057C80.726 37.6118 80.761 36.7755 80.761 35.39V22.9025H85.1206V36.2367H85.1171Z" fill="#001C71"/>
<path d="M103.388 30.502C103.388 31.9226 103.076 33.2277 102.454 34.4243C101.831 35.6174 100.904 36.5656 99.6721 37.2689C98.4404 37.9722 96.9429 38.3256 95.176 38.3256C93.4091 38.3256 91.873 37.9582 90.6379 37.2269C89.3993 36.4956 88.4791 35.5299 87.8773 34.3368C87.2755 33.1437 86.9746 31.8666 86.9746 30.502C86.9746 29.1375 87.272 27.8534 87.8703 26.6638C88.4686 25.4742 89.3888 24.5155 90.6309 23.7877C91.873 23.0599 93.3881 22.696 95.176 22.696C96.5126 22.696 97.7022 22.906 98.7483 23.3223C99.7945 23.7387 100.655 24.3055 101.331 25.0193C102.006 25.7331 102.517 26.5623 102.867 27.5105C103.213 28.4587 103.388 29.4594 103.388 30.5055V30.502ZM98.9443 30.502C98.9443 29.9317 98.8638 29.4104 98.7029 28.9381C98.5419 28.4657 98.3005 28.0563 97.9786 27.7099C97.6567 27.3636 97.2613 27.0906 96.796 26.8982C96.3306 26.7023 95.7918 26.6043 95.1795 26.6043C94.0109 26.6043 93.0942 26.9647 92.4259 27.682C91.7576 28.3992 91.4252 29.3404 91.4252 30.5055C91.4252 31.6707 91.7611 32.6119 92.4329 33.3326C93.1047 34.0534 94.0214 34.4138 95.183 34.4138C95.9842 34.4138 96.6665 34.2459 97.2298 33.9135C97.7932 33.5811 98.22 33.1192 98.5139 32.5314C98.8043 31.9436 98.9513 31.2683 98.9513 30.5055L98.9443 30.502Z" fill="#001C71"/>
<path d="M109.627 38.1261H105.264V22.9025H109.627V38.1261Z" fill="#001C71"/>
<path d="M128.129 38.1261H124.249L116.747 29.6448V38.1261H112.426V22.9025H116.299L123.78 31.3383V22.9025H128.129V38.1261Z" fill="#001C71"/>
<path d="M144.774 26.6007H139.473V38.1226H135.12V26.6007H129.819V22.8989H144.77V26.6007H144.774Z" fill="#001C71"/>
<path d="M160.465 38.1261H155.78L154.643 35.425C154.223 34.4383 153.849 33.714 153.517 33.2557C153.184 32.7973 152.859 32.5069 152.54 32.3774C152.222 32.248 151.816 32.185 151.316 32.185H150.826V38.1261H146.463V22.9025H153.881C155.077 22.9025 156.057 23.1579 156.823 23.6722C157.589 24.1866 158.139 24.8094 158.478 25.5406C158.814 26.2719 158.985 26.9682 158.985 27.626C158.985 28.3957 158.845 29.0465 158.562 29.5748C158.279 30.1067 157.985 30.4915 157.67 30.733C157.358 30.9744 157.005 31.2053 156.617 31.4257C157.082 31.7092 157.467 32.0485 157.768 32.4404C158.072 32.8323 158.482 33.623 159.006 34.8162L160.465 38.1226V38.1261ZM154.538 27.7134C154.538 27.0102 154.321 26.5203 153.881 26.2404C153.443 25.9605 152.729 25.824 151.743 25.824H150.826V29.4944H151.764C152.827 29.4944 153.555 29.3719 153.947 29.127C154.342 28.8821 154.538 28.4097 154.538 27.7169V27.7134Z" fill="#001C71"/>
<path d="M172.498 38.1261H161.592V22.9025H172.319V25.957H165.955V28.7456H172.029V31.8106H165.955V35.0611H172.498V38.1261Z" fill="#001C71"/>
<path d="M185.469 38.1261H174.566V22.9025H185.294V25.957H178.93V28.7456H185V31.8106H178.93V35.0611H185.472V38.1261H185.469Z" fill="#001C71"/>
<path d="M199.117 13.8508C197.665 13.8508 196.486 15.03 196.486 16.482C196.486 17.934 197.665 19.1131 199.117 19.1131C200.57 19.1131 201.749 17.9375 201.749 16.482C201.749 15.0265 200.57 13.8508 199.117 13.8508Z" fill="url(#paint0_linear_621_2300)"/>
<path d="M187.557 11.0902C187.858 10.7613 188.31 10.5514 188.792 10.5514C189.275 10.5514 189.72 10.7473 190.021 11.0797C190.489 11.79 191.298 12.2623 192.214 12.2623C193.666 12.2623 194.846 11.0832 194.846 9.63116C194.846 8.17912 193.666 7 192.214 7C191.301 7 190.496 7.46535 190.024 8.17213C189.723 8.50452 189.272 8.71445 188.789 8.71445C188.306 8.71445 187.855 8.50452 187.554 8.17213C187.082 7.46535 186.28 7 185.364 7C183.912 7 182.732 8.17562 182.732 9.63116C182.732 10.5444 183.201 11.3491 183.908 11.8215C184.24 12.1259 184.45 12.5737 184.45 13.0566C184.45 13.5394 184.24 13.9908 183.908 14.2917C183.201 14.764 182.732 15.5688 182.732 16.482C182.732 17.934 183.912 19.1131 185.364 19.1131C186.277 19.1131 187.082 18.6478 187.55 17.941C187.851 17.6121 188.306 17.4022 188.789 17.4022C189.272 17.4022 189.716 17.6016 190.017 17.9305C190.21 18.2209 190.461 18.4763 190.755 18.6688C191.088 18.9697 191.298 19.4175 191.298 19.9039C191.298 20.3902 191.088 20.8381 190.755 21.139C190.045 21.6113 189.58 22.4161 189.58 23.3293C189.58 24.7813 190.759 25.9604 192.211 25.9604C193.663 25.9604 194.842 24.7813 194.842 23.3293C194.842 22.4161 194.377 21.6148 193.67 21.1425C193.338 20.8381 193.131 20.3867 193.131 19.9039C193.131 19.421 193.327 18.9767 193.659 18.6758C194.373 18.2034 194.842 17.3987 194.842 16.482C194.842 15.0299 193.663 13.8508 192.211 13.8508C191.298 13.8508 190.493 14.3162 190.021 15.0264C189.72 15.3588 189.268 15.5688 188.785 15.5688C188.303 15.5688 187.851 15.3588 187.55 15.0264C187.358 14.736 187.11 14.4876 186.819 14.2952C186.487 13.9908 186.28 13.5394 186.28 13.0566C186.28 12.5737 186.476 12.1294 186.809 11.8285C187.103 11.6325 187.354 11.3806 187.55 11.0902H187.557Z" fill="url(#paint1_linear_621_2300)"/>
</g>
<defs>
<linearGradient id="paint0_linear_621_2300" x1="186.497" y1="5.57947" x2="200.045" y2="17.2832" gradientUnits="userSpaceOnUse">
<stop stop-color="#93D500"/>
<stop offset="0.52" stop-color="#00C4B3"/>
<stop offset="1" stop-color="#000F9F"/>
</linearGradient>
<linearGradient id="paint1_linear_621_2300" x1="183.548" y1="8.99436" x2="197.095" y2="20.6981" gradientUnits="userSpaceOnUse">
<stop stop-color="#93D500"/>
<stop offset="0.52" stop-color="#00C4B3"/>
<stop offset="1" stop-color="#000F9F"/>
</linearGradient>
<clipPath id="clip0_621_2300">
<rect width="123.748" height="36" fill="white" transform="translate(78 7)"/>
</clipPath>
</defs>
</svg>
