<svg width="120" height="35" viewBox="0 0 120 35" fill="none" xmlns="http://www.w3.org/2000/svg">
<g clip-path="url(#clip0_321_1366)">
<path d="M6.90069 28.3963C6.90069 29.7093 6.8023 30.8256 6.60212 31.7417C6.40193 32.6578 5.95407 33.4245 5.26192 34.0353C4.56638 34.6494 3.53154 34.9547 2.15742 34.9547C1.65188 34.9547 0.637402 34.9276 0.13186 34.8292L0.00292969 30.8901C0.460971 31.2192 0.969905 31.2022 1.3092 31.1547C1.64848 31.1038 1.91992 30.9952 2.13028 30.8188C2.33724 30.6424 2.48653 30.3777 2.57475 30.0147C2.6426 29.7297 2.67653 28.9188 2.67653 27.5752V15.4659H6.90408V28.3963H6.90069Z" fill="#001C71"/>
<path d="M24.6182 22.8353C24.6182 24.2128 24.3163 25.4784 23.7123 26.6387C23.1084 27.7957 22.2093 28.7152 21.015 29.3972C19.8207 30.0791 18.3685 30.4218 16.6551 30.4218C14.9417 30.4218 13.4522 30.0656 12.2545 29.3565C11.0534 28.6473 10.1611 27.7109 9.57752 26.5539C8.99394 25.3969 8.70215 24.1585 8.70215 22.8353C8.70215 21.5121 8.99054 20.2669 9.57073 19.1133C10.1509 17.9597 11.0432 17.0301 12.2477 16.3243C13.4522 15.6186 14.9213 15.2657 16.6551 15.2657C17.9512 15.2657 19.1048 15.4693 20.1192 15.8731C21.1337 16.2768 21.9684 16.8265 22.6232 17.5186C23.278 18.2108 23.7734 19.0149 24.1127 19.9344C24.4486 20.8538 24.6182 21.8242 24.6182 22.8387V22.8353ZM20.3093 22.8353C20.3093 22.2823 20.2312 21.7767 20.0751 21.3187C19.9191 20.8606 19.685 20.4637 19.3728 20.1278C19.0607 19.7919 18.6773 19.5272 18.226 19.3406C17.7748 19.1506 17.2522 19.0556 16.6585 19.0556C15.5253 19.0556 14.6363 19.4051 13.9883 20.1006C13.3402 20.7962 13.0179 21.7089 13.0179 22.8387C13.0179 23.9685 13.3436 24.8812 13.9951 25.5802C14.6465 26.2791 15.5354 26.6286 16.6619 26.6286C17.4389 26.6286 18.1005 26.4657 18.6467 26.1434C19.193 25.8211 19.6069 25.3732 19.8919 24.8032C20.1735 24.2332 20.316 23.5783 20.316 22.8387L20.3093 22.8353Z" fill="#001C71"/>
<path d="M30.6675 30.2284H26.4365V15.4659H30.6675V30.2284Z" fill="#001C71"/>
<path d="M48.6092 30.2284H44.8464L37.5721 22.0041V30.2284H33.3818V15.4659H37.1378L44.3918 23.6462V15.4659H48.6092V30.2284Z" fill="#001C71"/>
<path d="M64.7493 19.0522H59.609V30.225H55.3883V19.0522H50.248V15.4625H64.7459V19.0522H64.7493Z" fill="#001C71"/>
<path d="M79.967 30.2284H75.424L74.3213 27.6091C73.9141 26.6523 73.5511 25.95 73.2288 25.5055C72.9064 25.0611 72.5909 24.7794 72.2821 24.6539C71.9734 24.5284 71.5798 24.4673 71.0946 24.4673H70.6196V30.2284H66.3887V15.4659H73.5816C74.742 15.4659 75.692 15.7136 76.435 16.2124C77.1781 16.7111 77.7108 17.3151 78.0399 18.0242C78.3656 18.7333 78.5319 19.4085 78.5319 20.0464C78.5319 20.7928 78.3961 21.4239 78.1213 21.9362C77.8465 22.4519 77.5615 22.8251 77.2561 23.0592C76.9542 23.2934 76.6115 23.5173 76.2349 23.731C76.6861 24.0059 77.0593 24.335 77.3511 24.715C77.6463 25.095 78.0433 25.8618 78.5522 27.0188L79.967 30.225V30.2284ZM74.2195 20.1312C74.2195 19.4492 74.0091 18.9742 73.5816 18.7028C73.1575 18.4313 72.4654 18.299 71.5086 18.299H70.6196V21.8582H71.5289C72.5604 21.8582 73.2661 21.7394 73.6461 21.5019C74.0295 21.2644 74.2195 20.8064 74.2195 20.1346V20.1312Z" fill="#001C71"/>
<path d="M91.6352 30.2284H81.0596V15.4659H91.4622V18.4279H85.2905V21.1321H91.1806V24.1043H85.2905V27.2563H91.6352V30.2284Z" fill="#001C71"/>
<path d="M104.212 30.2284H93.6396V15.4659H104.042V18.4279H97.8706V21.1321H103.757V24.1043H97.8706V27.2563H104.215V30.2284H104.212Z" fill="#001C71"/>
<path d="M117.449 6.68854C116.041 6.68854 114.897 7.83194 114.897 9.24C114.897 10.648 116.041 11.7915 117.449 11.7915C118.857 11.7915 120 10.6514 120 9.24C120 7.82855 118.857 6.68854 117.449 6.68854Z" fill="url(#paint0_linear_321_1366)"/>
<path d="M106.238 4.01152C106.53 3.69259 106.968 3.48902 107.436 3.48902C107.904 3.48902 108.335 3.67902 108.627 4.00135C109.082 4.6901 109.865 5.14815 110.754 5.14815C112.162 5.14815 113.306 4.00474 113.306 2.59669C113.306 1.18863 112.162 0.0452271 110.754 0.0452271C109.869 0.0452271 109.088 0.496482 108.63 1.18185C108.339 1.50417 107.901 1.70775 107.433 1.70775C106.964 1.70775 106.527 1.50417 106.235 1.18185C105.777 0.496482 105 0.0452271 104.111 0.0452271C102.703 0.0452271 101.56 1.18524 101.56 2.59669C101.56 3.48223 102.014 4.2626 102.7 4.72064C103.022 5.01582 103.225 5.45011 103.225 5.91833C103.225 6.38655 103.022 6.82424 102.7 7.11603C102.014 7.57407 101.56 8.35443 101.56 9.23998C101.56 10.648 102.703 11.7914 104.111 11.7914C104.997 11.7914 105.777 11.3402 106.232 10.6548C106.523 10.3359 106.964 10.1323 107.433 10.1323C107.901 10.1323 108.332 10.3257 108.624 10.6446C108.81 10.9263 109.054 11.1739 109.339 11.3605C109.662 11.6523 109.865 12.0866 109.865 12.5582C109.865 13.0298 109.662 13.4641 109.339 13.7559C108.651 14.214 108.199 14.9943 108.199 15.8799C108.199 17.2879 109.343 18.4313 110.751 18.4313C112.159 18.4313 113.302 17.2879 113.302 15.8799C113.302 14.9943 112.851 14.2174 112.166 13.7593C111.843 13.4641 111.643 13.0265 111.643 12.5582C111.643 12.09 111.833 11.6591 112.156 11.3673C112.848 10.9093 113.302 10.1289 113.302 9.23998C113.302 7.83193 112.159 6.68852 110.751 6.68852C109.865 6.68852 109.085 7.13978 108.627 7.82854C108.335 8.15086 107.898 8.35443 107.429 8.35443C106.961 8.35443 106.523 8.15086 106.232 7.82854C106.045 7.54692 105.804 7.30603 105.522 7.11942C105.2 6.82424 105 6.38655 105 5.91833C105 5.45011 105.19 5.01922 105.512 4.72743C105.797 4.53742 106.042 4.29314 106.232 4.01152H106.238Z" fill="url(#paint1_linear_321_1366)"/>
</g>
<defs>
<linearGradient id="paint0_linear_321_1366" x1="105.211" y1="-1.33227" x2="118.348" y2="10.017" gradientUnits="userSpaceOnUse">
<stop stop-color="#93D500"/>
<stop offset="0.52" stop-color="#00C4B3"/>
<stop offset="1" stop-color="#000F9F"/>
</linearGradient>
<linearGradient id="paint1_linear_321_1366" x1="102.35" y1="1.97918" x2="115.487" y2="13.3284" gradientUnits="userSpaceOnUse">
<stop stop-color="#93D500"/>
<stop offset="0.52" stop-color="#00C4B3"/>
<stop offset="1" stop-color="#000F9F"/>
</linearGradient>
<clipPath id="clip0_321_1366">
<rect width="120" height="34.9095" fill="white" transform="translate(0 0.0452271)"/>
</clipPath>
</defs>
</svg>
