<svg width="280" height="51" viewBox="0 0 280 51" fill="none" xmlns="http://www.w3.org/2000/svg">
<g clip-path="url(#clip0_621_2914)">
<path d="M100.073 34.2845V34.7713H97.7024V36.1508H99.9123V36.6375H97.7024V38.1388H100.092V38.6255H97.1367V34.2862H100.073V34.2845Z" fill="#6D6E71"/>
<path d="M101.168 35.4816V35.9798H101.18C101.39 35.5983 101.722 35.4076 102.179 35.4076C102.382 35.4076 102.551 35.4355 102.686 35.4931C102.821 35.549 102.931 35.6296 103.013 35.7299C103.097 35.8318 103.155 35.9518 103.189 36.0916C103.224 36.2314 103.24 36.3859 103.24 36.5569V38.6238H102.734V36.4961C102.734 36.3021 102.678 36.1475 102.568 36.0341C102.456 35.9206 102.303 35.8647 102.109 35.8647C101.954 35.8647 101.819 35.8894 101.706 35.9371C101.592 35.9864 101.499 36.0554 101.423 36.1442C101.347 36.233 101.292 36.3383 101.254 36.4566C101.216 36.5767 101.198 36.7066 101.198 36.848V38.6222H100.691V35.4799H101.168V35.4816Z" fill="#6D6E71"/>
<path d="M105.32 35.4815V35.9369H104.707V37.8887C104.707 37.9496 104.712 37.9972 104.722 38.0351C104.731 38.0712 104.751 38.0992 104.779 38.1206C104.807 38.1403 104.845 38.1534 104.894 38.16C104.944 38.1666 105.008 38.1682 105.088 38.1682H105.322V38.6237H104.934C104.802 38.6237 104.69 38.6155 104.597 38.5958C104.503 38.5777 104.427 38.5448 104.37 38.4955C104.312 38.4461 104.269 38.3787 104.241 38.2883C104.213 38.1995 104.2 38.0811 104.2 37.9364V35.9369H103.676V35.4815H104.2V34.5393H104.707V35.4815H105.32V35.4815Z" fill="#6D6E71"/>
<path d="M108.06 38.4232C107.829 38.6007 107.54 38.6912 107.19 38.6912C106.943 38.6912 106.731 38.6501 106.55 38.5695C106.369 38.4889 106.218 38.3755 106.095 38.2291C105.971 38.0828 105.879 37.9101 105.818 37.7062C105.758 37.504 105.723 37.2837 105.715 37.0436C105.715 36.8052 105.751 36.5865 105.822 36.3875C105.892 36.1886 105.994 36.0159 106.123 35.8712C106.251 35.7249 106.405 35.6114 106.581 35.5309C106.757 35.4503 106.951 35.4092 107.162 35.4092C107.436 35.4092 107.662 35.4667 107.843 35.5818C108.023 35.6969 108.168 35.8449 108.277 36.0225C108.387 36.2001 108.461 36.3958 108.504 36.6062C108.545 36.8167 108.563 37.0173 108.555 37.208H106.251C106.246 37.3461 106.262 37.476 106.299 37.5994C106.335 37.7227 106.392 37.8329 106.471 37.9282C106.55 38.0236 106.652 38.0992 106.775 38.1568C106.899 38.2127 107.043 38.2423 107.21 38.2423C107.425 38.2423 107.599 38.1913 107.736 38.091C107.874 37.9891 107.963 37.8361 108.007 37.629H108.507C108.439 37.9808 108.291 38.2472 108.06 38.4248V38.4232ZM107.938 36.4056C107.892 36.2971 107.831 36.2017 107.754 36.1228C107.676 36.0439 107.584 35.9814 107.479 35.9337C107.374 35.8877 107.257 35.8646 107.131 35.8646C107.004 35.8646 106.881 35.8877 106.777 35.9337C106.673 35.9797 106.581 36.0439 106.506 36.1244C106.43 36.205 106.371 36.3004 106.327 36.4073C106.282 36.5158 106.257 36.6292 106.249 36.7509H108.017C108.009 36.6292 107.982 36.5141 107.936 36.404L107.938 36.4056Z" fill="#6D6E71"/>
<path d="M109.538 35.4815V36.1441H109.55C109.673 35.8893 109.824 35.7002 110.004 35.5785C110.183 35.4568 110.408 35.4009 110.683 35.4075V35.955C110.481 35.955 110.308 35.983 110.165 36.0405C110.022 36.0965 109.907 36.1803 109.82 36.2905C109.732 36.399 109.668 36.5322 109.629 36.6884C109.589 36.8446 109.568 37.0238 109.568 37.2261V38.6237H109.062V35.4815H109.538V35.4815Z" fill="#6D6E71"/>
<path d="M111.586 35.4815V35.9074H111.597C111.681 35.7331 111.811 35.6065 111.99 35.5276C112.169 35.4486 112.365 35.4092 112.58 35.4092C112.819 35.4092 113.026 35.4536 113.202 35.5424C113.379 35.6312 113.526 35.7512 113.643 35.9041C113.759 36.0554 113.848 36.2313 113.909 36.4303C113.968 36.6292 113.998 36.8397 113.998 37.0617C113.998 37.2837 113.968 37.4958 113.911 37.6931C113.853 37.8921 113.766 38.0647 113.649 38.2127C113.532 38.3607 113.384 38.4774 113.208 38.5629C113.033 38.6484 112.827 38.6912 112.592 38.6912C112.516 38.6912 112.432 38.683 112.339 38.6665C112.245 38.6501 112.153 38.6238 112.062 38.5876C111.97 38.5514 111.885 38.5021 111.803 38.438C111.722 38.3755 111.653 38.2965 111.597 38.2045H111.586V39.8208H111.079V35.4815H111.586V35.4815ZM113.406 36.5964C113.368 36.4566 113.31 36.3316 113.233 36.2231C113.156 36.1146 113.056 36.0274 112.935 35.9617C112.815 35.8975 112.672 35.8646 112.51 35.8646C112.339 35.8646 112.194 35.8992 112.076 35.9682C111.956 36.0373 111.858 36.1277 111.783 36.2395C111.707 36.3514 111.653 36.478 111.618 36.6194C111.584 36.7608 111.567 36.9055 111.567 37.0502C111.567 37.2047 111.586 37.3527 111.62 37.4974C111.656 37.6405 111.712 37.7687 111.791 37.8773C111.868 37.9874 111.969 38.0746 112.092 38.142C112.215 38.2094 112.365 38.2423 112.539 38.2423C112.714 38.2423 112.86 38.2078 112.978 38.1387C113.095 38.0696 113.189 37.9792 113.261 37.8657C113.332 37.7523 113.384 37.6224 113.416 37.476C113.447 37.3297 113.463 37.1801 113.463 37.0272C113.463 36.8742 113.445 36.7378 113.407 36.598L113.406 36.5964Z" fill="#6D6E71"/>
<path d="M115.051 35.4815V36.1441H115.063C115.186 35.8893 115.337 35.7002 115.515 35.5785C115.694 35.4568 115.921 35.4009 116.194 35.4075V35.955C115.992 35.955 115.819 35.983 115.676 36.0405C115.533 36.0965 115.418 36.1803 115.331 36.2905C115.243 36.399 115.179 36.5322 115.14 36.6884C115.1 36.8446 115.081 37.0238 115.081 37.2261V38.6237H114.574V35.4815H115.051V35.4815Z" fill="#6D6E71"/>
<path d="M116.606 34.916V34.2845H117.113V34.916H116.606ZM117.113 35.4816V38.6238H116.606V35.4816H117.113V35.4816Z" fill="#6D6E71"/>
<path d="M118.286 37.9216C118.333 38.0006 118.396 38.0631 118.473 38.1107C118.55 38.1584 118.637 38.1913 118.734 38.211C118.831 38.2308 118.932 38.2406 119.035 38.2406C119.114 38.2406 119.198 38.2341 119.285 38.2225C119.372 38.211 119.453 38.188 119.527 38.1551C119.601 38.1222 119.662 38.0746 119.708 38.0121C119.756 37.9496 119.78 37.869 119.78 37.772C119.78 37.6388 119.729 37.5369 119.631 37.4678C119.532 37.3988 119.407 37.3429 119.259 37.3001C119.111 37.2574 118.948 37.2195 118.774 37.185C118.6 37.1505 118.437 37.1028 118.289 37.0387C118.139 36.9762 118.016 36.8874 117.917 36.7739C117.819 36.6605 117.769 36.5026 117.769 36.3004C117.769 36.1425 117.804 36.006 117.873 35.8926C117.942 35.7791 118.032 35.6871 118.141 35.6164C118.251 35.5456 118.374 35.493 118.511 35.4585C118.649 35.424 118.784 35.4059 118.919 35.4059C119.093 35.4059 119.254 35.4207 119.402 35.4519C119.548 35.4815 119.678 35.5341 119.792 35.6098C119.905 35.6854 119.996 35.7857 120.063 35.914C120.13 36.0422 120.17 36.2001 120.183 36.3908H119.677C119.668 36.2889 119.642 36.205 119.599 36.1392C119.555 36.0718 119.499 36.0192 119.432 35.9781C119.364 35.937 119.29 35.9074 119.208 35.8893C119.126 35.8712 119.044 35.8614 118.961 35.8614C118.886 35.8614 118.808 35.8679 118.731 35.8794C118.654 35.8909 118.583 35.9123 118.519 35.9436C118.457 35.9732 118.404 36.0143 118.364 36.0652C118.325 36.1162 118.305 36.182 118.305 36.2626C118.305 36.3513 118.337 36.4253 118.397 36.4845C118.458 36.5437 118.537 36.5914 118.633 36.6309C118.728 36.6687 118.835 36.7016 118.955 36.7279C119.073 36.7542 119.193 36.7822 119.312 36.8101C119.438 36.8381 119.562 36.8726 119.683 36.9137C119.803 36.9548 119.912 37.0074 120.004 37.0748C120.098 37.1423 120.173 37.2261 120.231 37.3264C120.288 37.4284 120.316 37.5533 120.316 37.703C120.316 37.8937 120.277 38.0515 120.2 38.1765C120.122 38.3015 120.02 38.4034 119.895 38.4807C119.77 38.558 119.629 38.6106 119.473 38.6418C119.317 38.6731 119.16 38.6879 119.006 38.6879C118.835 38.6879 118.672 38.6698 118.517 38.6336C118.363 38.5974 118.226 38.5383 118.106 38.4544C117.986 38.3722 117.891 38.262 117.82 38.1255C117.75 37.9907 117.708 37.8246 117.7 37.6306H118.207C118.21 37.7441 118.236 37.8411 118.284 37.92L118.286 37.9216Z" fill="#6D6E71"/>
<path d="M123.058 38.4232C122.827 38.6007 122.538 38.6912 122.188 38.6912C121.941 38.6912 121.729 38.6501 121.548 38.5695C121.367 38.4889 121.216 38.3755 121.093 38.2291C120.969 38.0828 120.877 37.9101 120.816 37.7062C120.756 37.504 120.721 37.2837 120.713 37.0436C120.713 36.8052 120.749 36.5865 120.82 36.3875C120.89 36.1886 120.992 36.0159 121.121 35.8712C121.251 35.7249 121.403 35.6114 121.579 35.5309C121.755 35.4503 121.949 35.4092 122.16 35.4092C122.434 35.4092 122.66 35.4667 122.841 35.5818C123.021 35.6969 123.166 35.8449 123.275 36.0225C123.385 36.2001 123.459 36.3958 123.502 36.6062C123.543 36.8167 123.561 37.0173 123.553 37.208H121.249C121.244 37.3461 121.26 37.476 121.297 37.5994C121.333 37.7227 121.39 37.8329 121.469 37.9282C121.548 38.0236 121.65 38.0992 121.773 38.1568C121.897 38.2127 122.041 38.2423 122.208 38.2423C122.423 38.2423 122.597 38.1913 122.734 38.091C122.872 37.9891 122.961 37.8361 123.005 37.629H123.505C123.437 37.9808 123.289 38.2472 123.058 38.4248V38.4232ZM122.936 36.4056C122.89 36.2971 122.829 36.2017 122.752 36.1228C122.675 36.0439 122.582 35.9814 122.477 35.9337C122.372 35.8877 122.255 35.8646 122.129 35.8646C122.002 35.8646 121.879 35.8877 121.775 35.9337C121.67 35.9797 121.579 36.0439 121.504 36.1244C121.428 36.205 121.369 36.3004 121.325 36.4073C121.28 36.5158 121.256 36.6292 121.247 36.7509H123.015C123.007 36.6292 122.98 36.5141 122.934 36.404L122.936 36.4056Z" fill="#6D6E71"/>
<path d="M127.273 34.2845C127.928 34.2845 128.433 34.4538 128.786 34.7942C129.14 35.1346 129.316 35.6525 129.316 36.3497C129.316 36.7147 129.276 37.037 129.195 37.3182C129.117 37.5994 128.993 37.8361 128.826 38.0302C128.659 38.2225 128.446 38.3689 128.188 38.4708C127.929 38.5728 127.624 38.6221 127.27 38.6221H125.812V34.2828H127.27L127.273 34.2845ZM127.321 38.137C127.383 38.137 127.464 38.1321 127.559 38.1222C127.655 38.1124 127.757 38.0877 127.864 38.0499C127.97 38.0104 128.077 37.9562 128.183 37.8822C128.288 37.8098 128.382 37.7095 128.465 37.5846C128.549 37.4596 128.618 37.3017 128.671 37.1143C128.724 36.9252 128.752 36.6983 128.752 36.4303C128.752 36.1623 128.727 35.9386 128.678 35.7347C128.628 35.5309 128.546 35.3549 128.434 35.2119C128.321 35.0688 128.174 34.9586 127.995 34.8846C127.816 34.809 127.597 34.7728 127.334 34.7728H126.38V38.1403H127.321V38.137Z" fill="#6D6E71"/>
<path d="M129.953 34.916V34.2845H130.46V34.916H129.953ZM130.46 35.4816V38.6238H129.953V35.4816H130.46V35.4816Z" fill="#6D6E71"/>
<path d="M133.558 39.5101C133.327 39.765 132.966 39.8932 132.474 39.8932C132.331 39.8932 132.185 39.8768 132.035 39.8439C131.887 39.811 131.751 39.7584 131.631 39.686C131.509 39.6137 131.409 39.5183 131.33 39.3999C131.251 39.2832 131.206 39.1385 131.2 38.9691H131.706C131.709 39.0628 131.739 39.1418 131.792 39.2059C131.846 39.27 131.912 39.3226 131.989 39.3637C132.066 39.4032 132.15 39.4328 132.242 39.4509C132.334 39.469 132.421 39.4788 132.504 39.4788C132.671 39.4788 132.811 39.4492 132.926 39.3917C133.041 39.3325 133.137 39.2519 133.212 39.1483C133.288 39.0448 133.342 38.9198 133.377 38.7751C133.411 38.6287 133.428 38.4693 133.428 38.295V38.0878H133.416C133.329 38.2818 133.198 38.4249 133.02 38.5169C132.842 38.6074 132.655 38.6534 132.458 38.6534C132.227 38.6534 132.027 38.6107 131.856 38.5252C131.685 38.4397 131.543 38.3262 131.427 38.1815C131.312 38.0384 131.226 37.8691 131.169 37.6767C131.111 37.4843 131.083 37.2804 131.083 37.065C131.083 36.8792 131.108 36.6868 131.154 36.4912C131.201 36.2955 131.28 36.1163 131.392 35.9568C131.504 35.7973 131.65 35.6657 131.833 35.5622C132.015 35.4586 132.239 35.4076 132.505 35.4076C132.699 35.4076 132.879 35.452 133.041 35.5391C133.204 35.6263 133.331 35.7562 133.421 35.9305H133.428V35.4816H133.905V38.3558C133.905 38.8705 133.79 39.2552 133.559 39.5101H133.558ZM132.911 38.0976C133.028 38.0269 133.124 37.9332 133.194 37.8181C133.265 37.703 133.318 37.5715 133.352 37.4268C133.387 37.2804 133.403 37.1357 133.403 36.9894C133.403 36.8513 133.387 36.7164 133.355 36.5816C133.324 36.4484 133.273 36.3284 133.204 36.2199C133.135 36.113 133.045 36.0258 132.933 35.9617C132.821 35.8976 132.686 35.8647 132.528 35.8647C132.37 35.8647 132.226 35.8959 132.112 35.9584C131.997 36.0209 131.904 36.1048 131.83 36.21C131.756 36.3152 131.701 36.4369 131.668 36.575C131.634 36.7132 131.617 36.8562 131.617 37.0058C131.617 37.1472 131.632 37.2903 131.66 37.4317C131.688 37.5731 131.736 37.703 131.803 37.8181C131.871 37.9332 131.959 38.0269 132.071 38.0976C132.183 38.1683 132.321 38.2045 132.489 38.2045C132.657 38.2045 132.798 38.1683 132.915 38.0976H132.911Z" fill="#6D6E71"/>
<path d="M134.694 34.916V34.2845H135.201V34.916H134.694ZM135.201 35.4816V38.6238H134.694V35.4816H135.201V35.4816Z" fill="#6D6E71"/>
<path d="M137.303 35.4815V35.9369H136.69V37.8887C136.69 37.9496 136.695 37.9972 136.705 38.0351C136.715 38.0712 136.735 38.0992 136.762 38.1206C136.79 38.1403 136.828 38.1534 136.878 38.16C136.927 38.1666 136.991 38.1682 137.072 38.1682H137.305V38.6237H136.917C136.786 38.6237 136.674 38.6155 136.58 38.5958C136.486 38.5777 136.411 38.5448 136.353 38.4955C136.296 38.4461 136.253 38.3787 136.225 38.2883C136.197 38.1995 136.184 38.0811 136.184 37.9364V35.9369H135.659V35.4815H136.184V34.5393H136.69V35.4815H137.303V35.4815Z" fill="#6D6E71"/>
<path d="M140.59 38.6123C140.503 38.6649 140.381 38.6912 140.227 38.6912C140.095 38.6912 139.991 38.6534 139.914 38.5794C139.837 38.5037 139.797 38.3821 139.797 38.2111C139.659 38.3804 139.496 38.5037 139.312 38.5794C139.128 38.6534 138.928 38.6912 138.714 38.6912C138.576 38.6912 138.442 38.6747 138.318 38.6435C138.193 38.6106 138.084 38.5596 137.992 38.4922C137.9 38.4232 137.828 38.3327 137.775 38.2209C137.721 38.1091 137.694 37.9743 137.694 37.8164C137.694 37.6388 137.724 37.4925 137.783 37.379C137.844 37.2656 137.921 37.1735 138.018 37.1028C138.115 37.0321 138.227 36.9778 138.352 36.9417C138.477 36.9055 138.605 36.8742 138.737 36.8512C138.875 36.8233 139.008 36.8019 139.133 36.7871C139.258 36.7739 139.368 36.7526 139.464 36.7263C139.559 36.7 139.635 36.6621 139.69 36.6112C139.746 36.5602 139.774 36.4862 139.774 36.3892C139.774 36.2757 139.753 36.1853 139.712 36.1162C139.671 36.0472 139.617 35.9946 139.551 35.9584C139.485 35.9222 139.413 35.8975 139.33 35.886C139.248 35.8729 139.168 35.8679 139.089 35.8679C138.875 35.8679 138.696 35.909 138.553 35.9929C138.41 36.0751 138.332 36.233 138.321 36.4632H137.814C137.823 36.2691 137.862 36.1047 137.934 35.9715C138.005 35.8383 138.1 35.7298 138.221 35.646C138.339 35.5637 138.475 35.5029 138.628 35.4667C138.781 35.4306 138.946 35.4125 139.12 35.4125C139.258 35.4125 139.396 35.4223 139.534 35.4421C139.672 35.4618 139.796 35.5046 139.906 35.567C140.018 35.6295 140.107 35.7183 140.174 35.8301C140.241 35.9436 140.276 36.0899 140.276 36.2724V37.8855C140.276 38.0072 140.282 38.096 140.297 38.1519C140.312 38.2078 140.358 38.2374 140.437 38.2374C140.48 38.2374 140.532 38.2291 140.592 38.2127V38.6139L140.59 38.6123ZM139.768 37.0009C139.704 37.0485 139.621 37.0847 139.518 37.1061C139.414 37.1291 139.306 37.1472 139.192 37.1604C139.079 37.1751 138.965 37.1899 138.85 37.208C138.735 37.2261 138.632 37.2557 138.539 37.2952C138.447 37.3346 138.373 37.3922 138.316 37.4678C138.258 37.5418 138.229 37.6438 138.229 37.7737C138.229 37.8592 138.245 37.9299 138.28 37.9891C138.314 38.0483 138.357 38.0943 138.411 38.1321C138.464 38.1683 138.526 38.1946 138.599 38.2111C138.669 38.2275 138.745 38.2357 138.824 38.2357C138.99 38.2357 139.135 38.2127 139.253 38.1667C139.373 38.1206 139.47 38.0614 139.546 37.9907C139.621 37.92 139.677 37.8444 139.712 37.7605C139.748 37.6783 139.766 37.601 139.766 37.527V37.0009H139.768Z" fill="#6D6E71"/>
<path d="M141.596 34.2845V38.6238H141.09V34.2845H141.596Z" fill="#6D6E71"/>
<path d="M142.412 34.916V34.2845H142.919V34.916H142.412ZM142.919 35.4816V38.6238H142.412V35.4816H142.919V35.4816Z" fill="#6D6E71"/>
<path d="M145.313 35.937H143.573V35.4816H145.968V35.8334L144.086 38.1667H146.051V38.6222H143.455V38.2275L145.313 35.937V35.937Z" fill="#6D6E71"/>
<path d="M149.291 38.6123C149.204 38.6649 149.084 38.6912 148.928 38.6912C148.798 38.6912 148.693 38.6534 148.616 38.5794C148.538 38.5037 148.499 38.3821 148.499 38.2111C148.361 38.3804 148.198 38.5037 148.014 38.5794C147.83 38.6534 147.629 38.6912 147.415 38.6912C147.277 38.6912 147.144 38.6747 147.019 38.6435C146.894 38.6106 146.786 38.5596 146.695 38.4922C146.603 38.4232 146.531 38.3327 146.478 38.2209C146.425 38.1091 146.397 37.9743 146.397 37.8164C146.397 37.6388 146.427 37.4925 146.486 37.379C146.545 37.2656 146.624 37.1735 146.721 37.1028C146.818 37.0321 146.93 36.9778 147.055 36.9417C147.18 36.9055 147.308 36.8742 147.44 36.8512C147.578 36.8233 147.711 36.8019 147.836 36.7871C147.961 36.7739 148.071 36.7526 148.167 36.7263C148.262 36.7 148.338 36.6621 148.392 36.6112C148.446 36.5602 148.476 36.4862 148.476 36.3892C148.476 36.2757 148.454 36.1853 148.413 36.1162C148.371 36.0472 148.318 35.9946 148.252 35.9584C148.186 35.9222 148.112 35.8975 148.032 35.886C147.951 35.8729 147.869 35.8679 147.79 35.8679C147.575 35.8679 147.397 35.909 147.254 35.9929C147.111 36.0751 147.034 36.233 147.021 36.4632H146.514C146.522 36.2691 146.562 36.1047 146.633 35.9715C146.705 35.8383 146.799 35.7298 146.919 35.646C147.039 35.5637 147.174 35.5029 147.326 35.4667C147.479 35.4306 147.644 35.4125 147.818 35.4125C147.956 35.4125 148.094 35.4223 148.232 35.4421C148.369 35.4618 148.494 35.5046 148.604 35.567C148.714 35.6295 148.805 35.7183 148.872 35.8301C148.94 35.9436 148.974 36.0899 148.974 36.2724V37.8855C148.974 38.0072 148.981 38.096 148.995 38.1519C149.009 38.2078 149.056 38.2374 149.135 38.2374C149.178 38.2374 149.231 38.2291 149.29 38.2127V38.6139L149.291 38.6123ZM148.469 37.0009C148.407 37.0485 148.323 37.0847 148.219 37.1061C148.116 37.1291 148.007 37.1472 147.895 37.1604C147.782 37.1751 147.668 37.1899 147.552 37.208C147.437 37.2261 147.333 37.2557 147.243 37.2952C147.151 37.3346 147.077 37.3922 147.019 37.4678C146.961 37.5435 146.933 37.6438 146.933 37.7737C146.933 37.8592 146.95 37.9299 146.984 37.9891C147.017 38.0483 147.062 38.0943 147.114 38.1321C147.167 38.1683 147.231 38.1946 147.302 38.2111C147.373 38.2275 147.448 38.2357 147.529 38.2357C147.695 38.2357 147.838 38.2127 147.958 38.1667C148.078 38.1206 148.173 38.0614 148.251 37.9907C148.326 37.92 148.38 37.8444 148.417 37.7605C148.451 37.6783 148.469 37.601 148.469 37.527V37.0009V37.0009Z" fill="#6D6E71"/>
<path d="M151.079 35.4815V35.9369H150.466V37.8887C150.466 37.9496 150.47 37.9972 150.48 38.0351C150.49 38.0712 150.51 38.0992 150.538 38.1206C150.566 38.1403 150.604 38.1534 150.653 38.16C150.702 38.1666 150.766 38.1682 150.847 38.1682H151.081V38.6237H150.692C150.561 38.6237 150.449 38.6155 150.355 38.5958C150.262 38.5777 150.186 38.5448 150.128 38.4955C150.071 38.4461 150.028 38.3787 150 38.2883C149.972 38.1995 149.959 38.0811 149.959 37.9364V35.9369H149.435V35.4815H149.959V34.5393H150.466V35.4815H151.079V35.4815Z" fill="#6D6E71"/>
<path d="M151.668 34.916V34.2845H152.174V34.916H151.668ZM152.174 35.4816V38.6238H151.668V35.4816H152.174V35.4816Z" fill="#6D6E71"/>
<path d="M152.889 36.409C152.952 36.2084 153.047 36.0341 153.175 35.8861C153.302 35.7381 153.46 35.6213 153.646 35.5358C153.831 35.4503 154.047 35.4076 154.289 35.4076C154.53 35.4076 154.751 35.4503 154.935 35.5358C155.119 35.6213 155.275 35.7381 155.402 35.8861C155.53 36.0341 155.625 36.2084 155.688 36.409C155.752 36.6096 155.783 36.825 155.783 37.0568C155.783 37.2887 155.752 37.5024 155.688 37.7014C155.625 37.9003 155.53 38.073 155.402 38.221C155.275 38.369 155.119 38.4841 154.935 38.5679C154.751 38.6501 154.535 38.6929 154.289 38.6929C154.042 38.6929 153.831 38.6518 153.646 38.5679C153.458 38.4857 153.302 38.369 153.175 38.221C153.047 38.073 152.952 37.9003 152.889 37.7014C152.825 37.5024 152.794 37.287 152.794 37.0568C152.794 36.8266 152.825 36.6096 152.889 36.409ZM153.404 37.5633C153.453 37.7112 153.522 37.8346 153.61 37.9349C153.697 38.0335 153.799 38.1108 153.917 38.1634C154.034 38.216 154.159 38.2423 154.289 38.2423C154.419 38.2423 154.543 38.216 154.66 38.1634C154.777 38.1108 154.879 38.0352 154.966 37.9349C155.053 37.8362 155.122 37.7112 155.172 37.5633C155.221 37.4153 155.246 37.2459 155.246 37.0552C155.246 36.8644 155.221 36.6951 155.172 36.5471C155.122 36.3991 155.053 36.2741 154.966 36.1738C154.879 36.0735 154.777 35.9962 154.66 35.9436C154.542 35.891 154.419 35.8647 154.289 35.8647C154.159 35.8647 154.034 35.891 153.917 35.9436C153.8 35.9962 153.697 36.0735 153.61 36.1738C153.522 36.2758 153.453 36.3991 153.404 36.5471C153.355 36.6951 153.33 36.8644 153.33 37.0552C153.33 37.2459 153.355 37.4153 153.404 37.5633Z" fill="#6D6E71"/>
<path d="M156.855 35.4816V35.9798H156.867C157.077 35.5983 157.411 35.4076 157.868 35.4076C158.07 35.4076 158.24 35.4355 158.374 35.4931C158.509 35.549 158.618 35.6296 158.702 35.7299C158.785 35.8318 158.843 35.9518 158.878 36.0916C158.912 36.2314 158.929 36.3859 158.929 36.5569V38.6238H158.422V36.4961C158.422 36.3021 158.366 36.1475 158.256 36.0341C158.144 35.9206 157.991 35.8647 157.797 35.8647C157.643 35.8647 157.508 35.8894 157.396 35.9371C157.283 35.9864 157.189 36.0554 157.113 36.1442C157.038 36.233 156.982 36.3383 156.942 36.4566C156.904 36.5767 156.886 36.7066 156.886 36.848V38.6222H156.38V35.4799H156.855V35.4816Z" fill="#6D6E71"/>
<path d="M164.365 34.2845V34.7713H161.994V36.1508H164.204V36.6375H161.994V38.1388H164.383V38.6255H161.429V34.2862H164.365V34.2845Z" fill="#6D6E71"/>
<path d="M165.462 35.4816V35.9798H165.473C165.683 35.5983 166.017 35.4076 166.474 35.4076C166.677 35.4076 166.846 35.4355 166.981 35.4931C167.116 35.549 167.224 35.6296 167.308 35.7299C167.392 35.8318 167.449 35.9518 167.484 36.0916C167.519 36.2314 167.535 36.3859 167.535 36.5569V38.6238H167.029V36.4961C167.029 36.3021 166.973 36.1475 166.862 36.0341C166.751 35.9206 166.598 35.8647 166.404 35.8647C166.249 35.8647 166.114 35.8894 166.002 35.9371C165.889 35.9864 165.795 36.0554 165.72 36.1442C165.644 36.233 165.588 36.3383 165.549 36.4566C165.511 36.5767 165.493 36.7066 165.493 36.848V38.6222H164.986V35.4799H165.462V35.4816Z" fill="#6D6E71"/>
<path d="M168.803 34.2845V35.9436H168.814C168.854 35.8466 168.91 35.7644 168.982 35.697C169.053 35.6296 169.133 35.5753 169.224 35.5326C169.312 35.4898 169.406 35.4586 169.503 35.4388C169.6 35.4191 169.694 35.4092 169.786 35.4092C169.988 35.4092 170.158 35.4372 170.292 35.4947C170.427 35.5506 170.537 35.6312 170.62 35.7315C170.703 35.8335 170.761 35.9535 170.796 36.0933C170.83 36.233 170.846 36.3876 170.846 36.5586V38.6255H170.34V36.4978C170.34 36.3037 170.284 36.1492 170.174 36.0357C170.062 35.9223 169.909 35.8663 169.715 35.8663C169.561 35.8663 169.426 35.891 169.312 35.9387C169.199 35.988 169.105 36.0571 169.03 36.1459C168.954 36.2347 168.898 36.3399 168.86 36.4583C168.822 36.5783 168.804 36.7082 168.804 36.8496V38.6238H168.298V34.2845H168.804H168.803Z" fill="#6D6E71"/>
<path d="M174.336 38.6123C174.249 38.6649 174.129 38.6912 173.973 38.6912C173.843 38.6912 173.738 38.6534 173.661 38.5794C173.583 38.5037 173.544 38.3821 173.544 38.2111C173.406 38.3804 173.243 38.5037 173.059 38.5794C172.875 38.6534 172.674 38.6912 172.46 38.6912C172.322 38.6912 172.189 38.6747 172.064 38.6435C171.939 38.6106 171.83 38.5596 171.74 38.4922C171.648 38.4232 171.576 38.3327 171.523 38.2209C171.47 38.1091 171.442 37.9743 171.442 37.8164C171.442 37.6388 171.472 37.4925 171.531 37.379C171.59 37.2656 171.669 37.1735 171.766 37.1028C171.863 37.0321 171.975 36.9778 172.1 36.9417C172.225 36.9055 172.353 36.8742 172.485 36.8512C172.623 36.8233 172.756 36.8019 172.881 36.7871C173.006 36.7739 173.116 36.7526 173.212 36.7263C173.307 36.7 173.383 36.6621 173.437 36.6112C173.491 36.5602 173.521 36.4862 173.521 36.3892C173.521 36.2757 173.499 36.1853 173.458 36.1162C173.416 36.0472 173.363 35.9946 173.297 35.9584C173.231 35.9222 173.157 35.8975 173.077 35.886C172.996 35.8729 172.914 35.8679 172.835 35.8679C172.62 35.8679 172.442 35.909 172.299 35.9929C172.156 36.0751 172.079 36.233 172.066 36.4632H171.559C171.567 36.2691 171.607 36.1047 171.678 35.9715C171.75 35.8383 171.844 35.7298 171.964 35.646C172.084 35.5637 172.218 35.5029 172.371 35.4667C172.524 35.4306 172.689 35.4125 172.863 35.4125C173.001 35.4125 173.139 35.4223 173.277 35.4421C173.414 35.4618 173.539 35.5046 173.649 35.567C173.761 35.6295 173.85 35.7183 173.917 35.8301C173.984 35.9436 174.019 36.0899 174.019 36.2724V37.8855C174.019 38.0072 174.026 38.096 174.04 38.1519C174.054 38.2078 174.101 38.2374 174.18 38.2374C174.223 38.2374 174.275 38.2291 174.335 38.2127V38.6139L174.336 38.6123ZM173.514 37.0009C173.452 37.0485 173.368 37.0847 173.264 37.1061C173.161 37.1291 173.052 37.1472 172.94 37.1604C172.827 37.1751 172.713 37.1899 172.597 37.208C172.482 37.2261 172.378 37.2557 172.288 37.2952C172.195 37.3346 172.121 37.3922 172.064 37.4678C172.006 37.5418 171.978 37.6438 171.978 37.7737C171.978 37.8592 171.995 37.9299 172.029 37.9891C172.062 38.0483 172.107 38.0943 172.159 38.1321C172.212 38.1683 172.276 38.1946 172.347 38.2111C172.417 38.2275 172.493 38.2357 172.574 38.2357C172.74 38.2357 172.883 38.2127 173.003 38.1667C173.123 38.1206 173.218 38.0614 173.295 37.9907C173.371 37.92 173.425 37.8444 173.462 37.7605C173.496 37.6783 173.514 37.601 173.514 37.527V37.0009V37.0009Z" fill="#6D6E71"/>
<path d="M175.283 35.4816V35.9798H175.295C175.505 35.5983 175.838 35.4076 176.295 35.4076C176.497 35.4076 176.666 35.4355 176.801 35.4931C176.936 35.549 177.046 35.6296 177.128 35.7299C177.212 35.8318 177.27 35.9518 177.304 36.0916C177.339 36.2314 177.355 36.3859 177.355 36.5569V38.6238H176.849V36.4961C176.849 36.3021 176.793 36.1475 176.683 36.0341C176.571 35.9206 176.418 35.8647 176.224 35.8647C176.069 35.8647 175.935 35.8894 175.821 35.9371C175.708 35.9864 175.614 36.0554 175.538 36.1442C175.463 36.233 175.407 36.3383 175.369 36.4566C175.331 36.5767 175.313 36.7066 175.313 36.848V38.6222H174.807V35.4799H175.283V35.4816Z" fill="#6D6E71"/>
<path d="M179.958 36.0291C179.832 35.9206 179.661 35.8647 179.447 35.8647C179.264 35.8647 179.111 35.8992 178.988 35.9683C178.865 36.0374 178.766 36.1278 178.694 36.2412C178.62 36.3547 178.567 36.4862 178.536 36.6342C178.503 36.7822 178.488 36.9351 178.488 37.093C178.488 37.2393 178.505 37.3807 178.539 37.5189C178.572 37.657 178.625 37.7787 178.697 37.8855C178.768 37.9941 178.861 38.0796 178.977 38.1437C179.092 38.2078 179.228 38.2407 179.388 38.2407C179.638 38.2407 179.833 38.1733 179.975 38.0401C180.116 37.9069 180.202 37.7178 180.233 37.4745H180.751C180.695 37.8642 180.553 38.1634 180.325 38.3739C180.096 38.5844 179.786 38.6896 179.393 38.6896C179.159 38.6896 178.952 38.6501 178.771 38.5745C178.59 38.4972 178.439 38.3887 178.319 38.2473C178.197 38.1059 178.107 37.9365 178.044 37.7392C177.983 37.5419 177.952 37.3265 177.952 37.0913C177.952 36.8562 177.982 36.6359 178.041 36.432C178.1 36.2281 178.191 36.0489 178.312 35.8976C178.432 35.7463 178.585 35.6263 178.768 35.5391C178.95 35.452 179.162 35.4076 179.406 35.4076C179.58 35.4076 179.744 35.429 179.897 35.4717C180.05 35.5145 180.185 35.5802 180.302 35.669C180.419 35.7578 180.516 35.8713 180.591 36.0061C180.667 36.1409 180.715 36.3037 180.734 36.4895H180.21C180.17 36.2906 180.086 36.1377 179.96 36.0275L179.958 36.0291Z" fill="#6D6E71"/>
<path d="M181.348 34.916V34.2845H181.854V34.916H181.348ZM181.854 35.4816V38.6238H181.348V35.4816H181.854V35.4816Z" fill="#6D6E71"/>
<path d="M183.115 35.4816V35.9798H183.126C183.337 35.5983 183.671 35.4076 184.128 35.4076C184.33 35.4076 184.499 35.4355 184.634 35.4931C184.769 35.549 184.878 35.6296 184.961 35.7299C185.045 35.8318 185.103 35.9518 185.137 36.0916C185.172 36.2314 185.188 36.3859 185.188 36.5569V38.6238H184.682V36.4961C184.682 36.3021 184.626 36.1475 184.516 36.0341C184.404 35.9206 184.251 35.8647 184.057 35.8647C183.902 35.8647 183.768 35.8894 183.656 35.9371C183.542 35.9864 183.449 36.0554 183.373 36.1442C183.297 36.233 183.241 36.3383 183.202 36.4566C183.164 36.5767 183.146 36.7066 183.146 36.848V38.6222H182.64V35.4799H183.115V35.4816Z" fill="#6D6E71"/>
<path d="M188.262 39.5101C188.032 39.765 187.67 39.8932 187.178 39.8932C187.035 39.8932 186.889 39.8768 186.739 39.8439C186.591 39.811 186.455 39.7584 186.335 39.686C186.213 39.6137 186.113 39.5183 186.034 39.3999C185.955 39.2832 185.91 39.1385 185.904 38.9691H186.41C186.414 39.0628 186.443 39.1418 186.496 39.2059C186.55 39.27 186.616 39.3226 186.693 39.3637C186.77 39.4032 186.854 39.4328 186.946 39.4509C187.038 39.469 187.126 39.4788 187.208 39.4788C187.375 39.4788 187.515 39.4492 187.63 39.3917C187.745 39.3325 187.841 39.2519 187.916 39.1483C187.992 39.0448 188.046 38.9198 188.081 38.7751C188.115 38.6287 188.132 38.4693 188.132 38.295V38.0878H188.12C188.033 38.2818 187.902 38.4249 187.724 38.5169C187.546 38.6074 187.359 38.6534 187.162 38.6534C186.932 38.6534 186.731 38.6107 186.56 38.5252C186.389 38.4397 186.248 38.3262 186.131 38.1815C186.016 38.0384 185.93 37.8691 185.873 37.6767C185.815 37.4843 185.787 37.2804 185.787 37.065C185.787 36.8792 185.812 36.6868 185.858 36.4912C185.905 36.2955 185.984 36.1163 186.096 35.9568C186.208 35.7973 186.354 35.6657 186.537 35.5622C186.719 35.4586 186.943 35.4076 187.209 35.4076C187.403 35.4076 187.583 35.452 187.745 35.5391C187.908 35.6263 188.035 35.7562 188.125 35.9305H188.132V35.4816H188.609V38.3558C188.609 38.8705 188.494 39.2552 188.263 39.5101H188.262ZM187.616 38.0976C187.732 38.0269 187.828 37.9332 187.898 37.8181C187.969 37.703 188.022 37.5715 188.056 37.4268C188.091 37.2804 188.107 37.1357 188.107 36.9894C188.107 36.8513 188.091 36.7164 188.06 36.5816C188.028 36.4468 187.977 36.3284 187.908 36.2199C187.839 36.113 187.749 36.0258 187.637 35.9617C187.525 35.8976 187.39 35.8647 187.231 35.8647C187.071 35.8647 186.928 35.8959 186.815 35.9584C186.7 36.0209 186.606 36.1048 186.532 36.21C186.458 36.3152 186.404 36.4369 186.371 36.575C186.336 36.7132 186.32 36.8562 186.32 37.0058C186.32 37.1472 186.335 37.2903 186.363 37.4317C186.391 37.5731 186.438 37.703 186.506 37.8181C186.573 37.9332 186.662 38.0269 186.774 38.0976C186.885 38.1683 187.024 38.2045 187.191 38.2045C187.359 38.2045 187.5 38.1683 187.617 38.0976H187.616Z" fill="#6D6E71"/>
<path d="M191.703 34.2845L193.943 37.8033H193.954V34.2845H194.49V38.6238H193.871L191.649 35.1412H191.638V38.6238H191.102V34.2845H191.703Z" fill="#6D6E71"/>
<path d="M197.504 38.4232C197.274 38.6007 196.984 38.6912 196.634 38.6912C196.387 38.6912 196.175 38.6501 195.994 38.5695C195.814 38.4889 195.662 38.3755 195.539 38.2291C195.416 38.0828 195.324 37.9101 195.263 37.7062C195.202 37.504 195.167 37.2837 195.159 37.0436C195.159 36.8052 195.195 36.5865 195.266 36.3875C195.337 36.1886 195.439 36.0159 195.567 35.8712C195.695 35.7249 195.85 35.6114 196.026 35.5309C196.202 35.4503 196.396 35.4092 196.606 35.4092C196.881 35.4092 197.106 35.4667 197.287 35.5818C197.468 35.6969 197.612 35.8449 197.721 36.0225C197.831 36.2001 197.905 36.3958 197.948 36.6062C197.989 36.8167 198.007 37.0173 197.999 37.208H195.695C195.69 37.3461 195.707 37.476 195.743 37.5994C195.779 37.7227 195.837 37.8329 195.916 37.9282C195.994 38.0236 196.096 38.0992 196.22 38.1568C196.343 38.2127 196.488 38.2423 196.654 38.2423C196.869 38.2423 197.044 38.1913 197.18 38.091C197.318 37.9891 197.407 37.8361 197.451 37.629H197.951C197.884 37.9808 197.736 38.2472 197.504 38.4248V38.4232ZM197.382 36.4056C197.336 36.2971 197.275 36.2017 197.198 36.1228C197.121 36.0439 197.029 35.9814 196.923 35.9337C196.818 35.8877 196.702 35.8646 196.575 35.8646C196.448 35.8646 196.325 35.8877 196.221 35.9337C196.118 35.9797 196.026 36.0439 195.95 36.1244C195.874 36.205 195.815 36.3004 195.771 36.4073C195.726 36.5158 195.702 36.6292 195.694 36.7509H197.461C197.453 36.6292 197.427 36.5141 197.381 36.404L197.382 36.4056Z" fill="#6D6E71"/>
<path d="M199.839 35.4815V35.9369H199.226V37.8887C199.226 37.9496 199.231 37.9972 199.241 38.0351C199.251 38.0712 199.269 38.0992 199.297 38.1206C199.325 38.1403 199.364 38.1534 199.413 38.16C199.463 38.1666 199.527 38.1682 199.607 38.1682H199.839V38.6237H199.451C199.321 38.6237 199.208 38.6155 199.114 38.5958C199.02 38.5777 198.945 38.5448 198.889 38.4955C198.831 38.4461 198.789 38.3787 198.761 38.2883C198.733 38.1995 198.718 38.0811 198.718 37.9364V35.9369H198.193V35.4815H198.718V34.5393H199.224V35.4815H199.838H199.839Z" fill="#6D6E71"/>
<path d="M202.912 38.6238L202.285 36.1261H202.274L201.654 38.6238H201.106L200.118 35.4816H200.679L201.376 38.0516H201.388L202.007 35.4816H202.56L203.203 38.0516H203.214L203.905 35.4816H204.429L203.446 38.6238H202.91H202.912Z" fill="#6D6E71"/>
<path d="M204.84 36.409C204.905 36.2084 205 36.0341 205.127 35.8861C205.253 35.7381 205.411 35.6213 205.597 35.5358C205.784 35.4503 205.998 35.4076 206.24 35.4076C206.481 35.4076 206.702 35.4503 206.886 35.5358C207.07 35.6213 207.226 35.7381 207.353 35.8861C207.48 36.0341 207.575 36.2084 207.639 36.409C207.702 36.6096 207.734 36.825 207.734 37.0568C207.734 37.2887 207.702 37.5024 207.639 37.7014C207.575 37.9003 207.48 38.073 207.353 38.221C207.226 38.369 207.07 38.4841 206.886 38.5679C206.702 38.6501 206.486 38.6929 206.24 38.6929C205.993 38.6929 205.783 38.6518 205.597 38.5679C205.409 38.4857 205.253 38.369 205.127 38.221C205 38.073 204.905 37.9003 204.84 37.7014C204.778 37.5024 204.745 37.287 204.745 37.0568C204.745 36.8266 204.778 36.6096 204.84 36.409ZM205.357 37.5633C205.406 37.7112 205.475 37.8346 205.562 37.9349C205.649 38.0335 205.751 38.1108 205.868 38.1634C205.985 38.216 206.11 38.2423 206.24 38.2423C206.37 38.2423 206.495 38.216 206.611 38.1634C206.728 38.1108 206.83 38.0352 206.919 37.9349C207.006 37.8362 207.073 37.7112 207.124 37.5633C207.175 37.4153 207.2 37.2459 207.2 37.0552C207.2 36.8644 207.175 36.6951 207.124 36.5471C207.075 36.3991 207.006 36.2741 206.919 36.1738C206.832 36.0719 206.73 35.9962 206.611 35.9436C206.495 35.891 206.37 35.8647 206.24 35.8647C206.11 35.8647 205.985 35.891 205.868 35.9436C205.751 35.9962 205.649 36.0735 205.562 36.1738C205.475 36.2758 205.406 36.3991 205.357 36.5471C205.307 36.6951 205.283 36.8644 205.283 37.0552C205.283 37.2459 205.307 37.4153 205.357 37.5633Z" fill="#6D6E71"/>
<path d="M208.79 35.4815V36.1441H208.802C208.925 35.8893 209.076 35.7002 209.254 35.5785C209.433 35.4568 209.66 35.4009 209.933 35.4075V35.955C209.731 35.955 209.558 35.983 209.415 36.0405C209.272 36.0965 209.157 36.1803 209.07 36.2905C208.983 36.399 208.919 36.5322 208.879 36.6884C208.84 36.8446 208.82 37.0238 208.82 37.2261V38.6237H208.313V35.4815H208.79V35.4815Z" fill="#6D6E71"/>
<path d="M210.85 34.2845V36.8545L212.256 35.4815H212.935L211.713 36.6243L213.024 38.6238H212.381L211.327 36.9828L210.85 37.4316V38.6221H210.344V34.2828H210.85V34.2845Z" fill="#6D6E71"/>
<path d="M215.586 38.4232C215.356 38.6007 215.066 38.6912 214.716 38.6912C214.469 38.6912 214.256 38.6501 214.077 38.5695C213.896 38.4889 213.744 38.3755 213.621 38.2291C213.498 38.0828 213.406 37.9101 213.345 37.7062C213.284 37.504 213.248 37.2837 213.241 37.0436C213.241 36.8052 213.277 36.5865 213.348 36.3875C213.419 36.1886 213.519 36.0159 213.649 35.8712C213.779 35.7249 213.932 35.6114 214.108 35.5309C214.285 35.4503 214.479 35.4092 214.688 35.4092C214.963 35.4092 215.19 35.4667 215.371 35.5818C215.551 35.6969 215.696 35.8449 215.805 36.0225C215.913 36.2001 215.989 36.3958 216.03 36.6062C216.073 36.8167 216.089 37.0173 216.081 37.208H213.776C213.772 37.3461 213.787 37.476 213.823 37.5994C213.858 37.7227 213.917 37.8329 213.996 37.9282C214.075 38.0236 214.177 38.0992 214.298 38.1568C214.422 38.2127 214.567 38.2423 214.734 38.2423C214.948 38.2423 215.124 38.1913 215.26 38.091C215.397 37.9891 215.487 37.8361 215.532 37.629H216.032C215.964 37.9808 215.816 38.2472 215.584 38.4248L215.586 38.4232ZM215.464 36.4056C215.418 36.2971 215.357 36.2017 215.28 36.1228C215.203 36.0439 215.111 35.9814 215.006 35.9337C214.9 35.8877 214.784 35.8646 214.657 35.8646C214.53 35.8646 214.407 35.8877 214.303 35.9337C214.198 35.9797 214.108 36.0439 214.032 36.1244C213.956 36.205 213.897 36.3004 213.853 36.4073C213.81 36.5158 213.784 36.6292 213.776 36.7509H215.545C215.537 36.6292 215.51 36.5141 215.464 36.404V36.4056Z" fill="#6D6E71"/>
<path d="M217.063 35.4815V36.1441H217.074C217.198 35.8893 217.349 35.7002 217.526 35.5785C217.704 35.4568 217.933 35.4009 218.206 35.4075V35.955C218.003 35.955 217.831 35.983 217.688 36.0405C217.545 36.0965 217.429 36.1803 217.342 36.2905C217.255 36.399 217.191 36.5322 217.152 36.6884C217.112 36.8446 217.092 37.0238 217.092 37.2261V38.6237H216.586V35.4815H217.063V35.4815Z" fill="#6D6E71"/>
<path d="M111.734 10.4916C111.734 10.2515 111.542 10.0575 111.304 10.0476H101.872C101.556 10.0476 101.272 10.1348 101.019 10.3107C100.765 10.485 100.596 10.7711 100.509 11.1657L97.1874 26.3425C97.1002 26.7371 97.1462 27.0216 97.3238 27.1975C97.5014 27.3718 97.7464 27.4606 98.0621 27.4606C98.0621 27.4606 107.777 27.4606 107.778 27.4606C107.948 27.4606 108.091 27.3554 108.153 27.209C108.153 27.209 108.59 25.18 108.59 25.1323C108.59 24.8922 108.4 24.6998 108.161 24.69H101.31L102.383 19.7785C102.383 19.7785 108.23 19.7785 108.242 19.7785C108.398 19.7653 108.525 19.6634 108.579 19.5269C108.605 19.4611 108.89 18.0684 108.967 17.6968C108.998 17.5456 109.048 17.4025 108.954 17.2644C108.877 17.1509 108.725 17.0769 108.587 17.0769H102.977L103.908 12.8248C103.908 12.8248 110.917 12.8363 110.919 12.8363C111.09 12.8363 111.234 12.7311 111.295 12.5831C111.295 12.5831 111.734 10.5442 111.734 10.4965V10.4916Z" fill="#154B94"/>
<path d="M184.783 22.6017C184.885 22.1331 185.056 21.6908 185.293 21.2748C185.531 20.8604 185.837 20.4675 186.212 20.0991C186.587 19.7308 187.026 19.3789 187.532 19.0435C188.037 18.7081 188.611 18.3809 189.251 18.0635C189.014 17.6788 188.815 17.3154 188.652 16.9766C188.489 16.6363 188.364 16.3124 188.276 16.0016C188.187 15.6908 188.136 15.3965 188.121 15.1153C188.106 14.8341 188.129 14.5563 188.19 14.28C188.318 13.693 188.55 13.1422 188.886 12.6259C189.221 12.1096 189.667 11.664 190.221 11.2874C190.775 10.9109 191.443 10.61 192.222 10.388C193.001 10.166 193.904 10.0542 194.93 10.0542C195.866 10.0542 196.655 10.1381 197.296 10.3058C197.938 10.4735 198.442 10.7103 198.814 11.0161C199.184 11.3219 199.427 11.7001 199.544 12.1474C199.661 12.5963 199.657 13.1011 199.534 13.6618C199.424 14.1649 199.232 14.6302 198.955 15.0578C198.679 15.4853 198.314 15.8914 197.86 16.2778C197.406 16.6642 196.864 17.0342 196.232 17.391C195.601 17.7478 194.877 18.1063 194.059 18.4664C194.243 18.7262 194.452 19.0008 194.688 19.2902C194.924 19.5795 195.169 19.8689 195.422 20.1583C195.675 20.4477 195.931 20.7338 196.19 21.0199C196.448 21.3044 196.703 21.5691 196.953 21.8125C197.106 21.6448 197.252 21.4524 197.393 21.2337C197.535 21.015 197.665 20.7848 197.785 20.5415C197.905 20.2981 198.012 20.0515 198.107 19.7999C198.202 19.5483 198.276 19.3017 198.329 19.0583L198.414 18.6686C198.434 18.5765 198.47 18.4976 198.52 18.4302C198.569 18.3628 198.654 18.3085 198.776 18.2674C198.896 18.2247 199.064 18.1934 199.278 18.1737C199.491 18.1523 199.764 18.1424 200.093 18.1424C200.406 18.1424 200.662 18.149 200.864 18.1622C201.067 18.1753 201.223 18.2016 201.335 18.2444C201.446 18.2871 201.519 18.343 201.552 18.4137C201.585 18.4845 201.589 18.5749 201.566 18.6834L201.479 19.0863C201.392 19.4891 201.272 19.8953 201.119 20.3063C200.966 20.7174 200.789 21.117 200.583 21.5067C200.378 21.8963 200.147 22.2696 199.891 22.6248C199.634 22.9816 199.366 23.3137 199.084 23.6245C199.347 23.8514 199.621 24.0734 199.815 24.2247C200.009 24.3759 200.177 24.4943 200.318 24.5831C200.46 24.6719 200.58 24.7327 200.68 24.7656C200.78 24.7985 200.866 24.8166 200.937 24.8166H201.211C201.297 24.8166 201.359 24.8462 201.399 24.9054C201.44 24.9646 201.456 25.0682 201.45 25.2195C201.443 25.3707 201.409 25.5927 201.344 25.8854C201.277 26.1962 201.218 26.4379 201.165 26.6155C201.114 26.7914 201.063 26.9213 201.014 27.0051C200.965 27.089 200.896 27.1581 200.808 27.2123C200.721 27.2666 200.583 27.3176 200.394 27.3636C200.205 27.4096 199.986 27.4327 199.736 27.4327C199.541 27.4327 199.342 27.4096 199.143 27.3636C198.944 27.3176 198.719 27.2288 198.472 27.1005C198.224 26.9706 197.941 26.798 197.622 26.5842C197.303 26.3705 196.893 26.0613 196.484 25.7259C196.005 25.9939 195.52 26.2356 195.029 26.4494C194.535 26.6631 194.031 26.8407 193.514 26.9838C192.996 27.1268 192.472 27.2353 191.938 27.311C191.403 27.3866 190.842 27.4244 190.254 27.4244C189.665 27.4244 189.118 27.3817 188.583 27.2995C188.049 27.2156 187.557 27.0874 187.108 26.9164C186.659 26.7453 186.263 26.5283 185.919 26.2685C185.574 26.0087 185.298 25.7012 185.091 25.3444C184.884 24.9876 184.749 24.5815 184.688 24.1244C184.627 23.6672 184.657 23.1624 184.778 22.61L184.783 22.6017ZM188.46 22.4258C188.381 22.7859 188.381 23.1164 188.457 23.419C188.534 23.7215 188.682 23.9813 188.902 24.1983C189.123 24.417 189.417 24.5864 189.787 24.7081C190.157 24.8298 190.601 24.8906 191.119 24.8906C191.387 24.8906 191.656 24.8676 191.929 24.8215C192.202 24.7755 192.475 24.713 192.746 24.6324C193.018 24.5535 193.279 24.4565 193.532 24.343C193.784 24.2296 194.022 24.1063 194.249 23.9714C193.914 23.6705 193.58 23.3483 193.248 23.0095C192.916 22.6708 192.597 22.3288 192.288 21.9851C191.979 21.6415 191.686 21.2995 191.408 20.9607C191.13 20.622 190.885 20.3014 190.675 19.9988C190.323 20.183 190.02 20.3737 189.767 20.5711C189.514 20.7684 189.3 20.9673 189.122 21.1679C188.945 21.3685 188.802 21.5741 188.693 21.7845C188.585 21.995 188.508 22.2088 188.46 22.4258V22.4258ZM191.771 14.1156C191.734 14.2915 191.724 14.474 191.745 14.6631C191.767 14.8522 191.811 15.0495 191.877 15.2534C191.942 15.459 192.036 15.6777 192.155 15.9079C192.273 16.1381 192.411 16.388 192.566 16.656C193.151 16.388 193.643 16.1397 194.045 15.9144C194.447 15.6875 194.779 15.4672 195.039 15.2551C195.3 15.0413 195.497 14.8276 195.634 14.6138C195.769 14.4 195.862 14.1797 195.912 13.9544C195.956 13.7538 195.956 13.5648 195.915 13.3888C195.874 13.2129 195.782 13.06 195.64 12.9301C195.499 12.8002 195.312 12.6982 195.08 12.6226C194.846 12.5469 194.56 12.5091 194.221 12.5091C193.847 12.5091 193.519 12.5486 193.238 12.6292C192.959 12.7097 192.717 12.8215 192.515 12.9695C192.312 13.1159 192.151 13.2885 192.028 13.4858C191.905 13.6831 191.819 13.8953 191.77 14.1205L191.771 14.1156Z" fill="#154B94"/>
<path d="M144.714 10.4916C144.714 10.2515 144.521 10.0575 144.283 10.0476H134.851C134.536 10.0476 134.251 10.1348 133.998 10.3107C133.745 10.485 133.575 10.7711 133.488 11.1657L130.167 26.3425C130.08 26.7371 130.126 27.0216 130.303 27.1975C130.481 27.3718 130.726 27.4606 131.042 27.4606C131.042 27.4606 140.756 27.4606 140.758 27.4606C140.927 27.4606 141.07 27.3554 141.133 27.209C141.133 27.209 141.57 25.18 141.57 25.1323C141.57 24.8922 141.379 24.6998 141.141 24.69H134.289L135.364 19.7785C135.364 19.7785 141.212 19.7785 141.223 19.7785C141.379 19.7653 141.506 19.6634 141.56 19.5269C141.586 19.4611 141.871 18.0684 141.948 17.6968C141.979 17.5456 142.029 17.4025 141.935 17.2644C141.858 17.1509 141.706 17.0769 141.568 17.0769H135.958L136.889 12.8248C136.889 12.8248 143.898 12.8363 143.9 12.8363C144.071 12.8363 144.214 12.7311 144.276 12.5831C144.276 12.5831 144.715 10.5442 144.715 10.4965L144.714 10.4916Z" fill="#154B94"/>
<path d="M115.659 24.6851H115.699L116.756 19.772H116.735L115.659 24.6851Z" fill="#154B94"/>
<path d="M117.336 17.0655L117.921 14.3458L117.326 17.0655H117.336Z" fill="#154B94"/>
<path d="M128.938 14.8736C128.756 13.818 128.345 12.9317 127.709 12.2132C127.072 11.4963 126.212 10.9537 125.134 10.5886C124.053 10.2236 122.68 10.0411 121.016 10.0411H118.849L116.223 10.0394C115.907 10.0394 115.623 10.1266 115.368 10.3025C115.368 10.3025 115.367 10.3042 115.365 10.3058C115.11 10.4817 114.939 10.7678 114.852 11.1658L113.592 16.9504L111.537 26.3442C111.45 26.7388 111.496 27.0233 111.673 27.1992C111.851 27.3735 112.098 27.4623 112.413 27.4623H116.891C118.547 27.4623 120.01 27.2929 121.283 26.9542C122.555 26.6155 123.69 26.086 124.685 25.3642C125.679 24.6423 126.526 23.71 127.223 22.5689C127.921 21.4278 128.409 20.1518 128.759 18.5453C129.063 17.1559 129.124 15.9325 128.942 14.8769L128.938 14.8736ZM124.803 18.6637C124.583 19.6749 124.267 20.5004 123.866 21.2584C123.465 22.0164 123.009 22.6116 122.422 23.1214C121.833 23.6311 121.156 24.0126 120.388 24.2658C119.62 24.519 118.718 24.644 117.677 24.644H115.699L118.269 12.8298H120.189C121.353 12.8298 122.263 12.9761 122.915 13.2705C123.568 13.5631 124.066 13.9726 124.408 14.4954C124.75 15.0183 124.948 15.6366 124.999 16.3502C125.05 17.0638 124.984 17.835 124.803 18.6654V18.6637Z" fill="#154B94"/>
<path d="M163.173 10.2992C162.995 10.1249 162.75 10.0362 162.434 10.0362C162.434 10.0362 160.524 10.0098 160.358 10.0822C160.103 10.1924 159.968 10.4111 159.886 10.8073L157.345 22.3288L153.48 11.0014C153.35 10.6182 153.149 10.3551 152.878 10.2088C152.671 10.097 152.442 10.0444 152.209 10.0362H149.218C148.902 10.0362 148.617 10.1233 148.364 10.2992C148.111 10.4735 147.942 10.7596 147.855 11.1543L144.533 26.331C144.446 26.7257 144.492 27.0101 144.67 27.1861C144.847 27.3604 145.092 27.4491 145.408 27.4491C145.408 27.4491 147.351 27.4541 147.485 27.4031C147.718 27.3143 147.874 27.0743 147.956 26.678L150.497 14.3573L154.363 26.4823C154.492 26.8654 154.693 27.1285 154.964 27.2749C155.119 27.3587 155.282 27.408 155.451 27.4327H155.466C155.522 27.4409 155.578 27.4459 155.634 27.4491H158.625C158.94 27.4491 159.225 27.362 159.478 27.1861C159.731 27.0118 159.901 26.7257 159.988 26.331L163.309 11.1543C163.396 10.7596 163.35 10.4752 163.173 10.2992V10.2992Z" fill="#154B94"/>
<path d="M218.183 11.6212C218.16 11.5259 218.118 11.4387 218.059 11.3614C218.059 11.3614 218.054 11.3549 218.053 11.3532C218.036 11.3318 217.946 11.2118 217.796 11.077C217.796 11.0753 217.795 11.0737 217.793 11.072C217.753 11.026 217.684 10.9717 217.591 10.9125C217.49 10.8418 217.377 10.7761 217.25 10.7267C217.004 10.6067 216.721 10.4982 216.395 10.3995C216.05 10.2959 215.672 10.2137 215.262 10.1545C214.853 10.0937 214.435 10.0641 214.013 10.0641C213.194 10.0641 212.398 10.1627 211.624 10.3617C210.849 10.5607 210.149 10.8599 209.524 11.2611C208.897 11.6623 208.36 12.1671 207.909 12.7739C207.459 13.3823 207.146 14.086 206.97 14.8884C206.817 15.5872 206.798 16.1858 206.908 16.6856C207.02 17.1855 207.212 17.6196 207.485 17.9846C207.758 18.3513 208.092 18.6653 208.485 18.9284C208.878 19.1915 209.29 19.4267 209.724 19.6338C210.157 19.841 210.578 20.0367 210.989 20.2225C211.398 20.4083 211.758 20.6056 212.066 20.8177C212.373 21.0298 212.608 21.2699 212.77 21.5412C212.931 21.8125 212.97 22.1381 212.886 22.5179C212.814 22.8451 212.684 23.1427 212.498 23.4108C212.311 23.6788 212.076 23.9024 211.793 24.0833C211.51 24.2641 211.183 24.4039 210.811 24.5042C210.44 24.6029 210.033 24.6538 209.593 24.6538C208.922 24.6538 208.346 24.5831 207.868 24.4401C207.388 24.2987 206.983 24.1408 206.654 23.9682C206.324 23.7955 206.058 23.6377 205.854 23.4963C205.795 23.4552 205.745 23.4321 205.691 23.4025C205.655 23.3779 205.617 23.3549 205.576 23.3368C205.512 23.3072 205.444 23.2825 205.37 23.2726C205 23.2217 204.658 23.4584 204.566 23.812H204.561C204.333 24.7404 204.213 25.2376 204.201 25.3033H204.205C204.201 25.3231 204.195 25.3395 204.191 25.3592C204.178 25.4513 204.185 25.5418 204.206 25.6273C204.229 25.7276 204.274 25.8196 204.334 25.9002C204.334 25.9002 204.339 25.9068 204.341 25.9084C204.374 25.9528 204.693 26.3738 205.183 26.5661L205.186 26.5629C205.405 26.6829 205.658 26.7996 205.972 26.9114C206.347 27.0446 206.789 27.1597 207.297 27.2535C207.805 27.3488 208.368 27.3965 208.984 27.3965C209.895 27.3965 210.775 27.2847 211.624 27.0611C212.472 26.8374 213.245 26.5037 213.94 26.0581C214.634 25.6141 215.229 25.06 215.724 24.3957C216.219 23.7314 216.563 22.9602 216.755 22.0805C216.903 21.408 216.92 20.8243 216.808 20.3277C216.696 19.8328 216.5 19.4003 216.223 19.0337C215.945 18.667 215.604 18.3529 215.201 18.0898C214.799 17.8268 214.381 17.5916 213.949 17.3844C213.516 17.1773 213.09 16.9816 212.671 16.7958C212.252 16.61 211.883 16.4127 211.566 16.2006C211.249 15.9901 211.012 15.7484 210.856 15.4754C210.699 15.2041 210.662 14.8835 210.742 14.5119C210.796 14.2619 210.897 14.0252 211.043 13.7999C211.189 13.5763 211.377 13.3839 211.61 13.2244C211.842 13.0649 212.117 12.9399 212.431 12.8495C212.745 12.7591 213.1 12.713 213.495 12.713C214 12.713 214.452 12.7706 214.85 12.8873C215.248 13.0041 215.591 13.1323 215.882 13.2754C216.173 13.4184 216.415 13.5483 216.609 13.67C216.722 13.7407 216.815 13.7835 216.897 13.8131C216.953 13.8377 217.012 13.8575 217.074 13.8657C217.428 13.915 217.753 13.6881 217.842 13.351C217.842 13.351 218.199 11.8925 218.201 11.8761C218.212 11.7873 218.206 11.7018 218.188 11.6196L218.183 11.6212Z" fill="#154B94"/>
<path d="M185.127 10.0542H175.359H172.327C172.049 10.0542 171.87 10.263 171.786 10.4784C171.779 10.4998 171.304 12.6472 171.299 12.667C171.296 12.6801 171.294 12.6933 171.291 12.7064C171.286 12.736 171.286 12.7623 171.291 12.7919C171.296 12.8166 171.306 12.8413 171.319 12.8643C171.345 12.9103 171.385 12.9465 171.432 12.9679C171.47 12.986 171.513 12.9942 171.556 12.9942C171.587 12.9942 176.1 12.9991 176.1 12.9975L174.466 20.4428L173.174 26.3277C173.086 26.7223 173.132 27.0068 173.31 27.1827C173.488 27.357 173.733 27.4458 174.048 27.4458C174.048 27.4458 176.303 27.4507 176.436 27.3998C176.669 27.311 176.825 27.0709 176.908 26.6746L178.266 20.4444L179.889 13.0024C182.423 13.0057 184.718 13.009 184.718 13.009C184.749 13.009 184.777 13.0024 184.807 12.9958C185.169 12.9169 185.175 12.4746 185.238 12.1835C185.323 11.7823 185.41 11.3811 185.494 10.9783C185.524 10.8369 185.585 10.6725 185.585 10.5278C185.585 10.2729 185.381 10.0674 185.127 10.0558V10.0542Z" fill="#154B94"/>
<path d="M91.9817 15.7238C91.9472 15.5528 91.8617 15.3982 91.7416 15.2798C91.5821 15.1203 91.3634 15.0216 91.1201 15.0216H87.353C86.868 15.0216 86.4733 14.6287 86.4733 14.142V10.8797C86.4733 10.3946 86.0803 10 85.5936 10H81.3497C80.8647 10 80.4717 10.393 80.4717 10.878V15.7616C80.4717 16.2466 80.8647 16.6413 81.3497 16.6413H84.9787C85.4637 16.6413 85.8567 17.0343 85.8584 17.5193V32.4264C85.8584 32.9115 85.4654 33.3045 84.9787 33.3045H81.3497C80.8647 33.3045 80.4717 33.6975 80.4717 34.1825V39.117C80.4717 39.6037 80.8647 39.9967 81.3497 39.9967H85.5936C86.0787 39.9967 86.4733 39.6037 86.4733 39.117V35.8564C86.4733 35.3713 86.8663 34.9767 87.353 34.9767H91.1201C91.3125 34.9767 91.49 34.9126 91.6347 34.8073C91.809 34.6807 91.9373 34.4933 91.9817 34.2746C91.9932 34.217 91.9998 34.1579 91.9998 34.097V15.9013C91.9998 15.8405 91.9932 15.7813 91.9817 15.7238Z" fill="#21B5E1"/>
<path d="M67.4968 14.1403C67.4968 14.6254 67.1137 15.02 66.6287 15.02H66.6204C66.6204 15.02 63.2036 15.02 62.8813 15.02C62.393 15.02 62 15.413 62 15.8981V34.1036C62 34.5887 62.393 34.9816 62.8797 34.9816H66.6287C67.0792 34.9816 67.4442 35.3204 67.4968 35.7561C67.4968 35.7561 67.4968 39.1252 67.4985 39.1252C67.5018 39.607 67.8931 39.9984 68.3765 39.9984H78.2702C78.7536 39.9984 79.145 39.6087 79.1499 39.1252V34.1842C79.1499 33.6991 78.7569 33.3061 78.2702 33.3061L69.0096 33.2979C68.5245 33.2979 68.1299 32.9049 68.1299 32.4182L68.1217 29.2299C68.1217 28.7449 68.5147 28.3502 69.0014 28.3502H78.2686C78.7536 28.3502 79.1466 27.9572 79.1483 27.4722V22.4801C79.1483 21.9951 78.7553 21.6021 78.2686 21.6021H69.0047C68.5196 21.6021 68.125 21.2091 68.125 20.7224V17.521C68.125 17.0359 68.5179 16.6413 69.003 16.6413H78.2702C78.7553 16.6413 79.1483 16.2483 79.1499 15.7632V10.8731C79.1466 10.3913 78.7553 10 78.2719 10H68.3782C67.8948 10 67.5034 10.3897 67.4985 10.8731C67.4985 10.9159 67.4968 14.1403 67.4968 14.1403V14.1403Z" fill="#2E3885"/>
</g>
<defs>
<clipPath id="clip0_621_2914">
<rect width="156.207" height="30" fill="white" transform="translate(62 10)"/>
</clipPath>
</defs>
</svg>
