<svg width="281" height="51" viewBox="0 0 281 51" fill="none" xmlns="http://www.w3.org/2000/svg">
<g clip-path="url(#clip0_621_2635)">
<path d="M154.14 42.8932C111.132 42.8932 76.2691 37.1055 76.2691 29.9618C76.2691 22.8182 111.137 17.035 154.14 17.035C156.615 17.035 159.058 17.0577 161.474 17.0941C156.369 16.9303 151.1 16.8439 145.708 16.8439C99.4792 16.8393 62 23.1458 62 30.9219C62 38.698 99.4792 44.9999 145.713 44.9999C183.447 44.9999 208.741 42.5884 219.193 36.8188C207.321 41.4418 186.314 42.8932 154.14 42.8932V42.8932Z" fill="#B81D23"/>
<path d="M108.493 5.0091H96.1261L84.2686 32.9149H97.5913C101.859 32.9149 105.258 32.0549 107.793 30.335C111.019 28.1464 113.876 24.1241 116.365 18.259C117.443 15.7246 117.985 13.5451 117.985 11.7114C117.985 7.23865 114.818 5.0091 108.493 5.0091ZM108.43 18.5821C107.033 21.8536 105.709 24.0058 104.457 25.0387C103.261 26.0215 101.509 26.5175 99.1929 26.5311L94.3743 26.5584L100.835 11.3474L106.555 11.311C108.298 11.2973 109.335 11.5522 109.676 12.0754C109.845 12.3302 109.931 12.7033 109.931 13.1947C109.931 14.4369 109.431 16.2342 108.43 18.5866V18.5821ZM156.743 5L144.526 22.4815L146.892 5H138.97L127.203 22.3951L129.46 5H121.884L119.182 32.9058H127.217L138.433 16.2934L136.035 32.9058H144.18L164.519 5H156.743Z" fill="#B81D23"/>
<path d="M164.614 19.7788C165.665 18.9325 167.021 18.5093 168.682 18.5093H175.621L178.146 12.5669H170.061C163.072 12.5669 158.14 15.934 155.273 22.6727C154.513 24.4609 154.131 26.0443 154.131 27.4275C154.131 28.8108 154.54 30.0575 155.355 31.0403C156.67 32.6283 158.886 33.42 162.003 33.42H169.283L171.763 27.5913H164.537C163.026 27.5913 162.089 27.3729 161.72 26.9316C161.548 26.7268 161.457 26.4174 161.457 26.0079C161.457 25.3481 161.684 24.4882 162.144 23.4189C162.849 21.7444 163.672 20.5341 164.614 19.7788V19.7788ZM184.594 27.6732C184.485 27.6732 184.425 27.6232 184.421 27.5276C184.389 26.9543 184.567 26.2217 184.953 25.3254L188.056 18.1408H193.435L195.837 12.5896H190.454L193.453 5.67346H186.432L183.456 12.5896H179.957L177.55 18.1408H181.049L177.559 26.2217C177.05 27.3866 176.8 28.4331 176.8 29.3522C176.8 30.0939 176.963 30.7537 177.295 31.3406C178.055 32.7011 179.525 33.3791 181.709 33.3791H186.855L189.326 27.6732H184.598H184.594ZM203.959 18.25H214.156L216.59 12.5259H204.537C199.741 12.5259 196.415 14.7191 194.549 19.1099C194.049 20.2839 193.799 21.3122 193.799 22.2086C193.799 24.5382 195.387 25.703 198.563 25.703C198.64 25.703 198.799 25.6985 199.031 25.6848C199.268 25.6712 199.464 25.6666 199.618 25.6666H203.955C204.678 25.6666 205.042 25.7713 205.042 25.976C205.042 26.0306 205.028 26.0943 205.006 26.1671C204.605 27.1864 203.7 27.696 202.28 27.696H191.232L188.816 33.3836H202.972C204.933 33.3836 206.721 32.6693 208.341 31.2451C209.71 30.0393 210.802 28.4786 211.617 26.5721C212.076 25.4846 212.304 24.5246 212.304 23.6828C212.304 21.2121 210.452 19.979 206.744 19.979H202.18C201.834 19.979 201.625 19.9562 201.548 19.9062C201.416 19.8197 201.388 19.615 201.475 19.2828C201.825 18.5958 202.653 18.25 203.955 18.25H203.959Z" fill="#5D5B59"/>
</g>
<defs>
<clipPath id="clip0_621_2635">
<rect width="157.193" height="40" fill="white" transform="translate(62 5)"/>
</clipPath>
</defs>
</svg>
