<svg width="280" height="51" viewBox="0 0 280 51" fill="none" xmlns="http://www.w3.org/2000/svg">
<g clip-path="url(#clip0_621_2322)">
<path d="M80.4971 32.6445H83.2993C84.5978 32.6445 85.603 32.9687 86.3107 33.621C87.0185 34.2713 87.3734 35.2888 87.3734 36.6755V36.9299C87.3734 38.3002 87.0349 39.3485 86.362 40.0706C85.6892 40.7947 84.6717 41.1558 83.3095 41.1558H80.4971V32.6445V32.6445ZM83.3218 39.9537C84.1486 39.9537 84.7578 39.7301 85.1558 39.287C85.5538 38.8439 85.7507 38.1074 85.7507 37.0817V36.6612C85.7507 36.1258 85.6933 35.6765 85.5804 35.3155C85.4676 34.9544 85.3014 34.6652 85.084 34.4498C84.8666 34.2344 84.5999 34.0826 84.286 33.9882C83.9701 33.8938 83.6111 33.8487 83.207 33.8487H82.0274V39.9537H83.3218V39.9537Z" fill="#231F20"/>
<path d="M89.2748 42.9999C89.1128 42.9999 88.9384 42.9794 88.7558 42.9425C88.5732 42.9035 88.4358 42.8522 88.3414 42.7907V41.8327C88.5199 41.8716 88.7291 41.8922 88.9712 41.8922C89.2666 41.8922 89.5107 41.8409 89.7015 41.7404C89.8923 41.6419 90.0441 41.4367 90.1631 41.1352L90.3374 40.6921L87.9209 34.7738H89.4369L91.0472 38.9156H91.0944L92.5899 34.7738H93.9684L91.5047 41.3342C91.396 41.6357 91.2749 41.8963 91.1375 42.1096C91.0021 42.325 90.8462 42.4973 90.6718 42.6307C90.4975 42.764 90.2944 42.8604 90.0646 42.9158C89.8349 42.9753 89.5723 43.004 89.2748 43.004V42.9999Z" fill="#231F20"/>
<path d="M94.8096 34.7718H96.1881V35.3442H96.2455C96.5163 35.1411 96.8364 34.977 97.2036 34.8457C97.5708 34.7185 97.9503 34.6528 98.3482 34.6528C98.9637 34.6528 99.4252 34.7903 99.737 35.0631C100.049 35.3339 100.203 35.7873 100.203 36.417V41.1558H98.7667V36.7535C98.7667 36.4375 98.6949 36.2057 98.5513 36.0601C98.4077 35.9165 98.1164 35.8426 97.6795 35.8426C97.4313 35.8426 97.1769 35.8796 96.9225 35.9493C96.6661 36.017 96.4384 36.0991 96.2455 36.1934V41.1558H94.8096V34.7718V34.7718Z" fill="#231F20"/>
<path d="M103.226 41.2726C102.937 41.2726 102.672 41.2357 102.432 41.1619C102.19 41.088 101.983 40.9772 101.807 40.8275C101.632 40.6798 101.495 40.4911 101.399 40.2613C101.302 40.0315 101.253 39.7669 101.253 39.4613C101.253 38.8705 101.436 38.4274 101.801 38.1319C102.168 37.8345 102.668 37.6396 103.306 37.5473L104.812 37.3729V36.8847C104.812 36.6672 104.787 36.4888 104.736 36.3534C104.687 36.218 104.603 36.1113 104.486 36.0334C104.369 35.9534 104.217 35.9 104.031 35.8693C103.844 35.8385 103.614 35.8221 103.341 35.8221C103.029 35.8221 102.742 35.8426 102.478 35.8816C102.213 35.9205 101.983 35.9575 101.788 35.9985V35.0179C102.379 34.7861 103.083 34.6692 103.901 34.6692C104.65 34.6692 105.224 34.8189 105.629 35.1164C106.033 35.4159 106.236 35.9021 106.236 36.5688V41.1578H105.056L104.939 40.6429H104.87C104.714 40.8234 104.506 40.9711 104.246 41.0921C103.983 41.2132 103.643 41.2726 103.224 41.2726H103.226ZM103.659 40.2695C103.885 40.2695 104.104 40.2326 104.318 40.1587C104.533 40.0849 104.697 39.9926 104.814 39.8838V38.3084L103.635 38.4232C103.308 38.454 103.064 38.5402 102.904 38.6797C102.744 38.8171 102.664 39.053 102.664 39.3771C102.664 39.7013 102.755 39.9146 102.939 40.0562C103.122 40.1936 103.36 40.2654 103.657 40.2654L103.659 40.2695Z" fill="#231F20"/>
<path d="M107.661 34.7718H109.038V35.3442H109.095C109.368 35.1493 109.668 34.9852 109.994 34.8559C110.32 34.7226 110.671 34.6549 111.044 34.6549C111.417 34.6549 111.717 34.7144 111.965 34.8293C112.215 34.9482 112.412 35.1288 112.562 35.377H112.632C112.958 35.1534 113.298 34.9749 113.653 34.8457C114.006 34.7185 114.367 34.6528 114.732 34.6528C115.294 34.6528 115.725 34.7882 116.035 35.057C116.343 35.3257 116.497 35.7749 116.497 36.4068V41.1578H115.073V36.7432C115.073 36.4273 115.003 36.1955 114.862 36.056C114.722 35.9144 114.464 35.8447 114.09 35.8447C113.881 35.8447 113.67 35.8796 113.454 35.9391C113.241 36.0047 113.013 36.0909 112.771 36.2078C112.779 36.255 112.786 36.3022 112.79 36.3432C112.792 36.3863 112.796 36.4396 112.796 36.5011V41.1578H111.382V36.7432C111.382 36.4273 111.311 36.1955 111.167 36.056C111.023 35.9144 110.769 35.8447 110.402 35.8447C110.176 35.8447 109.951 35.8796 109.725 35.9473C109.499 36.0129 109.29 36.097 109.095 36.1955V41.1578H107.659V34.7739L107.661 34.7718Z" fill="#231F20"/>
<path d="M117.936 32.4127H119.394V33.7072H117.936V32.4127ZM117.948 34.7718H119.384V41.1558H117.948V34.7718Z" fill="#231F20"/>
<path d="M123.562 41.2727C122.612 41.2727 121.868 41.0101 121.326 40.487C120.784 39.9619 120.514 39.17 120.514 38.1095V37.9125C120.514 37.3607 120.592 36.8807 120.748 36.4704C120.903 36.0642 121.121 35.7237 121.402 35.455C121.681 35.1862 122.013 34.9852 122.393 34.8559C122.774 34.7226 123.187 34.6549 123.63 34.6549C124.05 34.6549 124.395 34.6918 124.668 34.7677C124.941 34.8416 125.181 34.9318 125.392 35.0426V36.1627C125.261 36.1094 125.133 36.0581 125.012 36.015C124.893 35.9719 124.768 35.935 124.637 35.9042C124.51 35.8734 124.368 35.8509 124.218 35.8345C124.067 35.8201 123.896 35.8119 123.71 35.8119C123.172 35.8119 122.752 35.976 122.444 36.3001C122.136 36.6284 121.982 37.1145 121.982 37.7628V38.0438C121.982 38.7823 122.134 39.3157 122.438 39.6419C122.741 39.9701 123.197 40.1342 123.804 40.1342C124.202 40.1342 124.534 40.087 124.803 39.9926C125.072 39.9003 125.287 39.8142 125.451 39.7362V40.7886C125.248 40.9219 124.994 41.0348 124.688 41.1332C124.381 41.2296 124.005 41.2768 123.562 41.2768V41.2727Z" fill="#231F20"/>
<path d="M128.873 32.6445H130.473L132.713 39.2295H132.748L134.966 32.6445H136.402L133.39 41.1558H131.883L128.871 32.6445H128.873Z" fill="#231F20"/>
<path d="M138.293 41.2726C138.004 41.2726 137.739 41.2357 137.499 41.1619C137.259 41.088 137.05 40.9772 136.873 40.8275C136.699 40.6798 136.561 40.4911 136.465 40.2613C136.367 40.0315 136.319 39.7669 136.319 39.4613C136.319 38.8705 136.504 38.4274 136.867 38.1319C137.232 37.8345 137.735 37.6396 138.373 37.5473L139.879 37.3729V36.8847C139.879 36.6672 139.854 36.4888 139.803 36.3534C139.753 36.218 139.669 36.1113 139.552 36.0334C139.435 35.9534 139.286 35.9 139.097 35.8693C138.91 35.8385 138.68 35.8221 138.408 35.8221C138.096 35.8221 137.809 35.8426 137.544 35.8816C137.279 35.9205 137.05 35.9575 136.855 35.9985V35.0179C137.446 34.7861 138.149 34.6692 138.968 34.6692C139.716 34.6692 140.291 34.8189 140.695 35.1164C141.099 35.4159 141.302 35.9021 141.302 36.5688V41.1578H140.123L140.006 40.6429H139.936C139.78 40.8234 139.571 40.9711 139.31 41.0921C139.05 41.2132 138.707 41.2726 138.289 41.2726H138.293ZM138.724 40.2695C138.949 40.2695 139.169 40.2326 139.384 40.1587C139.597 40.0849 139.764 39.9926 139.879 39.8838V38.3084L138.699 38.4232C138.373 38.454 138.129 38.5402 137.969 38.6797C137.811 38.8171 137.731 39.053 137.731 39.3771C137.731 39.7013 137.823 39.9146 138.006 40.0562C138.188 40.1936 138.428 40.2654 138.724 40.2654V40.2695Z" fill="#231F20"/>
<path d="M142.766 32.0845H144.202V41.1558H142.766V32.0845Z" fill="#231F20"/>
<path d="M147.586 41.2727C146.964 41.2727 146.482 41.123 146.15 40.8173C145.816 40.5158 145.647 40.048 145.647 39.4183V34.7719H147.083V39.1372C147.083 39.488 147.157 39.7362 147.307 39.8901C147.455 40.0419 147.726 40.1157 148.123 40.1157C148.405 40.1157 148.661 40.0768 148.893 39.9947C149.127 39.9127 149.346 39.8244 149.545 39.7321V34.7719H150.971V41.1558H149.732L149.605 40.6081H149.545C149.274 40.803 148.979 40.9609 148.665 41.0861C148.349 41.2112 147.99 41.2727 147.584 41.2727H147.586Z" fill="#231F20"/>
<path d="M155.232 41.2726C154.165 41.2726 153.371 40.9895 152.85 40.4213C152.327 39.8531 152.066 39.0592 152.066 38.0396V37.8755C152.066 37.3381 152.142 36.8683 152.296 36.4683C152.446 36.0703 152.655 35.7339 152.918 35.4651C153.184 35.1964 153.492 34.9995 153.849 34.8661C154.202 34.7328 154.583 34.6692 154.998 34.6692C155.939 34.6692 156.623 34.9297 157.053 35.4487C157.48 35.9718 157.695 36.7411 157.695 37.7606V38.3556H153.527C153.55 38.6899 153.611 38.971 153.708 39.2007C153.804 39.4325 153.937 39.6172 154.097 39.7546C154.261 39.8962 154.462 39.9987 154.7 40.0603C154.938 40.1218 155.209 40.1526 155.513 40.1526C155.925 40.1526 156.288 40.1095 156.598 40.0233C156.91 39.9392 157.205 39.8264 157.486 39.6869V40.6798C157.269 40.8172 156.971 40.9547 156.598 41.0819C156.225 41.209 155.769 41.2747 155.232 41.2747V41.2726ZM154.963 35.7154C154.799 35.7154 154.639 35.74 154.479 35.7913C154.317 35.8426 154.171 35.9287 154.04 36.0539C153.907 36.179 153.794 36.3472 153.701 36.5606C153.607 36.776 153.55 37.0468 153.527 37.3729H156.247C156.247 36.7678 156.136 36.339 155.919 36.0888C155.701 35.8385 155.381 35.7154 154.963 35.7154V35.7154Z" fill="#231F20"/>
<path d="M165.386 41.2952C164.795 41.2952 164.264 41.207 163.788 41.0347C163.312 40.8603 162.908 40.5936 162.58 40.2408C162.25 39.8879 161.991 39.4428 161.813 38.9094C161.634 38.3781 161.544 37.7524 161.544 37.0385V36.7329C161.544 35.9636 161.649 35.3113 161.86 34.78C162.069 34.2445 162.354 33.8096 162.717 33.4712C163.078 33.1347 163.501 32.8886 163.983 32.7368C164.467 32.587 164.984 32.5111 165.536 32.5111C166.012 32.5111 166.42 32.5501 166.769 32.626C167.113 32.706 167.417 32.8127 167.674 32.9542V34.144C167.345 34.0107 167.025 33.9122 166.716 33.8445C166.404 33.7789 166.051 33.7461 165.653 33.7461C165.28 33.7461 164.943 33.7994 164.644 33.904C164.344 34.0086 164.086 34.1748 163.868 34.4025C163.651 34.6261 163.48 34.9194 163.366 35.2764C163.249 35.6354 163.191 36.0682 163.191 36.5708V37.0037C163.191 37.496 163.236 37.9289 163.327 38.3043C163.415 38.6838 163.558 39.0038 163.757 39.2623C163.958 39.5228 164.215 39.7197 164.529 39.8592C164.843 39.9946 165.224 40.0623 165.665 40.0623C166.158 40.0623 166.564 40.011 166.892 39.9085C167.22 39.8059 167.511 39.7013 167.768 39.5946V40.7741C167.47 40.93 167.128 41.0552 166.738 41.1537C166.35 41.2501 165.899 41.2972 165.384 41.2972L165.386 41.2952Z" fill="#231F20"/>
<path d="M168.854 34.7717H170.231V35.5061H170.288C170.469 35.2805 170.707 35.0897 171.006 34.94C171.306 34.7882 171.622 34.7102 171.96 34.7102C172.044 34.7102 172.124 34.7123 172.198 34.7205C172.274 34.7287 172.325 34.741 172.356 34.7574V36.0149C172.28 36.0005 172.192 35.9903 172.094 35.9862C171.997 35.9841 171.913 35.98 171.841 35.98C171.556 35.98 171.275 36.0169 171.002 36.0908C170.732 36.1646 170.494 36.2693 170.29 36.4026V41.1536H168.857V34.7697L168.854 34.7717Z" fill="#231F20"/>
<path d="M176.112 41.2726C175.046 41.2726 174.252 40.9895 173.731 40.4213C173.21 39.8531 172.951 39.0592 172.951 38.0396V37.8755C172.951 37.3381 173.025 36.8683 173.177 36.4683C173.331 36.0703 173.536 35.7339 173.803 35.4651C174.065 35.1964 174.377 34.9995 174.73 34.8661C175.083 34.7328 175.468 34.6692 175.881 34.6692C176.822 34.6692 177.507 34.9297 177.934 35.4487C178.365 35.9718 178.576 36.7411 178.576 37.7606V38.3556H174.412C174.434 38.6899 174.494 38.971 174.592 39.2007C174.689 39.4325 174.818 39.6172 174.982 39.7546C175.146 39.8962 175.343 39.9987 175.581 40.0603C175.819 40.1218 176.09 40.1526 176.393 40.1526C176.806 40.1526 177.169 40.1095 177.479 40.0233C177.79 39.9392 178.086 39.8264 178.367 39.6869V40.6798C178.149 40.8172 177.852 40.9547 177.479 41.0819C177.105 41.209 176.65 41.2747 176.112 41.2747V41.2726ZM175.844 35.7154C175.682 35.7154 175.517 35.74 175.36 35.7913C175.202 35.8426 175.054 35.9287 174.921 36.0539C174.787 36.179 174.676 36.3472 174.582 36.5606C174.488 36.776 174.432 37.0468 174.41 37.3729H177.128C177.128 36.7678 177.021 36.339 176.802 36.0888C176.584 35.8405 176.264 35.7154 175.844 35.7154V35.7154Z" fill="#231F20"/>
<path d="M181.274 41.2726C180.985 41.2726 180.723 41.2357 180.48 41.1619C180.24 41.088 180.031 40.9772 179.855 40.8275C179.682 40.6798 179.543 40.4911 179.447 40.2613C179.35 40.0315 179.299 39.7669 179.299 39.4613C179.299 38.8705 179.483 38.4274 179.847 38.1319C180.214 37.8345 180.714 37.6396 181.354 37.5473L182.862 37.3729V36.8847C182.862 36.6672 182.837 36.4888 182.786 36.3534C182.735 36.218 182.651 36.1113 182.534 36.0334C182.419 35.9534 182.265 35.9 182.078 35.8693C181.892 35.8385 181.662 35.8221 181.389 35.8221C181.077 35.8221 180.79 35.8426 180.528 35.8816C180.261 35.9205 180.033 35.9575 179.838 35.9985V35.0179C180.429 34.7861 181.137 34.6692 181.953 34.6692C182.7 34.6692 183.274 34.8189 183.681 35.1164C184.085 35.4159 184.286 35.9021 184.286 36.5688V41.1578H183.106L182.989 40.6429H182.92C182.764 40.8234 182.559 40.9711 182.294 41.0921C182.033 41.2132 181.695 41.2726 181.272 41.2726H181.274ZM181.707 40.2695C181.933 40.2695 182.15 40.2326 182.366 40.1587C182.581 40.0849 182.745 39.9926 182.864 39.8838V38.3084L181.685 38.4232C181.356 38.454 181.114 38.5402 180.954 38.6797C180.792 38.8171 180.714 39.053 180.714 39.3771C180.714 39.7013 180.805 39.9146 180.989 40.0562C181.174 40.1936 181.41 40.2654 181.707 40.2654V40.2695Z" fill="#231F20"/>
<path d="M187.904 41.2378C187.344 41.2378 186.901 41.1127 186.573 40.8645C186.247 40.6163 186.085 40.1855 186.085 39.5803V35.8796H185.196V34.7718H186.085V33.264H187.498V34.7718H189.014V35.8796H187.498V39.3793C187.498 39.6541 187.557 39.8429 187.678 39.9537C187.797 40.0603 188.027 40.1157 188.36 40.1157C188.616 40.1157 188.862 40.0849 189.094 40.0213V40.9691C188.961 41.0306 188.805 41.0901 188.622 41.1496C188.438 41.2071 188.202 41.2378 187.904 41.2378V41.2378Z" fill="#231F20"/>
<path d="M192.829 41.2727C191.849 41.2727 191.098 40.9958 190.581 40.4378C190.064 39.8798 189.806 39.1003 189.806 38.0972V37.9002C189.806 37.3853 189.88 36.9299 190.027 36.5299C190.175 36.1278 190.384 35.7893 190.653 35.5083C190.922 35.2293 191.242 35.016 191.611 34.8724C191.978 34.7288 192.388 34.6549 192.842 34.6549C193.806 34.6549 194.553 34.9339 195.078 35.4919C195.603 36.0458 195.863 36.8355 195.863 37.8551V38.0274C195.863 38.5423 195.79 39.0039 195.644 39.408C195.496 39.8121 195.287 40.1506 195.018 40.4296C194.75 40.7065 194.43 40.9158 194.056 41.0594C193.681 41.203 193.273 41.2748 192.829 41.2748V41.2727ZM192.852 40.1978C193.336 40.1978 193.709 40.0316 193.974 39.6972C194.237 39.3629 194.37 38.85 194.37 38.1566V37.8407C194.37 37.4304 194.331 37.0858 194.249 36.815C194.167 36.5442 194.056 36.3268 193.915 36.1668C193.773 36.0088 193.611 35.896 193.426 35.8324C193.24 35.7709 193.037 35.7401 192.819 35.7401C192.331 35.7401 191.947 35.9104 191.674 36.2488C191.404 36.5873 191.266 37.1022 191.266 37.7956V38.0972C191.266 38.5095 191.305 38.8521 191.387 39.1188C191.469 39.3875 191.582 39.6029 191.726 39.7629C191.869 39.9209 192.038 40.0337 192.226 40.0993C192.419 40.167 192.624 40.1978 192.852 40.1978V40.1978Z" fill="#231F20"/>
<path d="M196.938 34.7717H198.319V35.5061H198.377C198.555 35.2805 198.795 35.0897 199.094 34.94C199.394 34.7882 199.71 34.7102 200.048 34.7102C200.133 34.7102 200.213 34.7123 200.286 34.7205C200.36 34.7287 200.414 34.741 200.444 34.7574V36.0149C200.364 36.0005 200.278 35.9903 200.182 35.9862C200.085 35.9841 200.001 35.98 199.929 35.98C199.64 35.98 199.361 36.0169 199.09 36.0908C198.82 36.1646 198.582 36.2693 198.379 36.4026V41.1536H196.943V34.7697L196.938 34.7717Z" fill="#231F20"/>
<path fill-rule="evenodd" clip-rule="evenodd" d="M111.398 21.247V7.69336H108.23V22.5681C108.23 22.9845 108.397 23.3743 108.694 23.6676C109.002 23.9753 109.41 24.1476 109.859 24.1476H124.063L125.926 21.247H111.4H111.398Z" fill="#D81F2A"/>
<path fill-rule="evenodd" clip-rule="evenodd" d="M87.1299 7.69336V24.1497H90.289V24.1333L100.123 24.1497C103.024 23.9835 105.48 22.7999 105.693 19.8458C105.816 18.1288 104.854 16.7626 103.445 15.8928C104.891 15.142 105.947 13.8291 105.703 11.9849C105.332 9.20114 102.899 7.86157 100 7.69336H87.134H87.1299ZM99.7788 10.5899C101.25 10.5899 102.597 11.3284 102.597 12.5388C102.597 13.9501 100.819 14.3419 99.348 14.3419H92.1538L90.367 17.179H99.8773C101.313 17.218 102.595 18.1001 102.595 19.294C102.595 20.4879 101.375 21.2428 99.9039 21.2428H90.287V10.5899H99.7768H99.7788Z" fill="#D81F2A"/>
<path fill-rule="evenodd" clip-rule="evenodd" d="M144.572 14.5245L142.775 17.2796H129.771L131.505 14.5245H144.572Z" fill="#D81F2A"/>
<path fill-rule="evenodd" clip-rule="evenodd" d="M134.783 21.247C132.765 21.247 131.009 20.1187 130.106 18.4653C130.063 18.3853 130.022 18.3073 129.983 18.2253C129.964 18.1883 129.948 18.1494 129.93 18.1083C129.882 18.0058 129.837 17.8991 129.794 17.7924C129.794 17.7904 129.794 17.7863 129.792 17.7842C129.571 17.2057 129.452 16.578 129.452 15.9195C129.452 15.1379 129.622 14.3933 129.932 13.7245C129.946 13.6917 129.96 13.6609 129.977 13.6281C130.02 13.5399 130.065 13.4517 130.112 13.3655C130.149 13.2978 130.188 13.2322 130.229 13.1645C130.231 13.1583 130.235 13.1522 130.239 13.146C131.134 11.6854 132.711 10.6884 134.529 10.6064C134.558 10.6043 134.586 10.6043 134.613 10.6043C134.67 10.6002 134.726 10.5941 134.783 10.5941H144.558L146.421 7.69543H134.566C130.028 7.69543 126.344 11.3777 126.344 15.9236C126.344 20.4695 130.03 24.1518 134.566 24.1518H144.558L146.421 21.2511H134.783V21.247Z" fill="#D81F2A"/>
<path fill-rule="evenodd" clip-rule="evenodd" d="M81.236 24.1497H84.9777L75.4182 8.68419C74.9915 8.06261 74.2735 7.69336 73.4919 7.69336C72.7104 7.69336 71.9657 8.04825 71.5411 8.68419L62 24.1497H65.7315L67.8096 20.7279H75.2295L77.1804 17.6303H69.6804L73.494 11.3182L81.2339 24.1476L81.236 24.1497Z" fill="#D81F2A"/>
<path fill-rule="evenodd" clip-rule="evenodd" d="M159.429 14.3399H153.299C151.828 14.3399 150.177 13.9481 150.177 12.5387C150.177 11.3305 151.397 10.5899 152.868 10.5899H163.041L165.086 7.69128H152.651C149.752 7.8595 147.457 9.19906 147.083 11.9828C146.679 15.0291 149.795 17.1749 152.868 17.1749H153.219H159.1C160.571 17.1749 161.987 17.8806 161.987 19.2878C161.987 20.4961 160.764 21.2387 159.295 21.2387H149.04L147.186 24.1456H159.683C162.584 23.9794 164.844 22.7957 165.08 19.8438C165.408 15.741 162.5 14.3358 159.429 14.3358V14.3399Z" fill="#231F20"/>
<path fill-rule="evenodd" clip-rule="evenodd" d="M184.306 7.69543H167.548L165.513 10.5941H173.093V24.1456H176.262V10.5941H181.961L184.306 7.69543Z" fill="#231F20"/>
<path fill-rule="evenodd" clip-rule="evenodd" d="M191.221 7C186.513 7 182.695 10.9941 182.695 15.9215C182.695 20.849 186.513 24.841 191.221 24.841C195.929 24.841 199.744 20.849 199.744 15.9215C199.744 10.9941 195.929 7 191.221 7ZM191.221 21.7619C188.136 21.7619 185.637 19.1463 185.637 15.9215C185.637 12.6967 188.136 10.0791 191.221 10.0791C194.306 10.0791 196.803 12.6967 196.803 15.9215C196.803 19.1463 194.304 21.7619 191.221 21.7619Z" fill="#231F20"/>
<path fill-rule="evenodd" clip-rule="evenodd" d="M213.027 18.4796C216.277 18.2785 217.758 16.5307 217.936 13.3162C218.103 10.2535 215.446 7.70152 212.375 7.70152L201.712 7.68921V24.1517H204.873V10.5858L212.158 10.6535C213.628 10.6535 214.818 11.8474 214.818 13.3162C214.818 14.785 213.628 15.981 212.158 15.981L207.394 15.9215L214.047 24.1517H217.547L213.027 18.4796V18.4796Z" fill="#231F20"/>
</g>
<defs>
<clipPath id="clip0_621_2322">
<rect width="155.945" height="36" fill="white" transform="translate(62 7)"/>
</clipPath>
</defs>
</svg>
