<svg width="16" height="13" viewBox="0 0 16 13" fill="none" xmlns="http://www.w3.org/2000/svg">
<path d="M1.00009 6.49997C1.00009 6.35309 1.05844 6.21222 1.1623 6.10836C1.26617 6.0045 1.40703 5.94615 1.55392 5.94615L13.3079 5.94615L8.73445 1.44908C8.68257 1.39808 8.64124 1.33735 8.61283 1.27037C8.58442 1.20339 8.56948 1.13147 8.56886 1.05872C8.56825 0.985969 8.58196 0.913807 8.60924 0.846356C8.63651 0.778905 8.6768 0.717487 8.7278 0.665606C8.77881 0.613726 8.83954 0.5724 8.90652 0.543989C8.97349 0.515578 9.04541 0.500637 9.11817 0.50002C9.2651 0.498773 9.4065 0.555946 9.51128 0.658961L15.0484 6.10417C15.0509 6.10658 15.0534 6.10904 15.0558 6.11156C15.1076 6.16416 15.1483 6.22658 15.1756 6.29514C15.2029 6.3637 15.2162 6.43703 15.2147 6.51081C15.2133 6.58459 15.1971 6.65733 15.1672 6.72477C15.1372 6.79222 15.0941 6.85299 15.0403 6.90353L9.51128 12.341C9.45942 12.392 9.39803 12.4323 9.3306 12.4596C9.26317 12.4868 9.19103 12.5006 9.1183 12.5C9.04556 12.4994 8.97366 12.4845 8.90669 12.4561C8.83972 12.4277 8.77899 12.3864 8.72799 12.3345C8.67698 12.2827 8.63669 12.2213 8.60941 12.1538C8.58213 12.0864 8.56839 12.0143 8.56899 11.9415C8.56959 11.8688 8.58451 11.7969 8.6129 11.7299C8.64129 11.663 8.68259 11.6022 8.73445 11.5512L13.3079 7.0538L1.55392 7.0538C1.40703 7.0538 1.26617 6.99545 1.1623 6.89159C1.05844 6.78772 1.00009 6.64686 1.00009 6.49997Z" fill="#0085F2" stroke="#0085F2"/>
</svg>
